M48
; DRILL file {KiCad (5.1.9)-1} date 11/27/21 21:19:14
; FORMAT={-:-/ absolute / inch / decimal}
; #@! TF.CreationDate,2021-11-27T21:19:14-05:00
; #@! TF.GenerationSoftware,Kicad,Pcbnew,(5.1.9)-1
; #@! TF.FileFunction,Plated,1,2,PTH
FMAT,2
INCH
T1C0.0157
T2C0.0197
T3C0.0276
T4C0.0300
T5C0.0315
T6C0.0394
T7C0.1260
%
G90
G05
T1
X4.49Y-5.33
X4.7172Y-3.0118
X4.76Y-2.98
X4.85Y-2.7
X4.922Y-3.578
X4.96Y-3.7
X5.14Y-3.06
X5.16Y-2.98
X5.2Y-3.4
X5.325Y-2.7
X5.325Y-3.55
X5.46Y-4.278
X5.461Y-4.361
X5.475Y-2.7
X5.525Y-3.85
X5.58Y-3.985
X5.6643Y-4.4243
X5.6828Y-4.48
X5.7038Y-4.34
X5.775Y-2.8914
X5.785Y-4.725
X5.785Y-4.6
X5.8062Y-4.0612
X5.82Y-4.4
X5.85Y-2.8914
X5.86Y-4.725
X5.925Y-3.55
X6.1Y-4.62
X6.1562Y-4.1088
X6.175Y-2.7
X6.28Y-3.81
X6.4Y-2.86
X6.44Y-2.9
X6.47Y-2.79
X6.51Y-2.83
X6.71Y-4.95
X6.7111Y-4.26
X6.76Y-4.8
X6.82Y-4.26
X6.82Y-4.52
X6.86Y-3.36
X6.985Y-5.5
X7.04Y-3.4
X7.04Y-4.12
X7.08Y-4.3711
T2
X4.41Y-2.95
X4.43Y-4.425
X4.4884Y-2.5842
X4.4884Y-2.6334
X4.4884Y-2.6826
X4.4884Y-2.7319
X4.4884Y-2.7811
X4.4884Y-2.8303
X4.4884Y-2.8795
X4.4884Y-2.9287
X4.4884Y-2.9779
X4.55Y-4.425
X5.15Y-5.55
X5.225Y-4.925
X5.3Y-4.7
X5.36Y-4.2
X5.44Y-4.66
X5.5Y-4.95
X5.6Y-5.175
X5.625Y-4.855
X5.785Y-5.15
X5.93Y-4.035
X5.93Y-4.235
X5.95Y-4.74
X6.01Y-2.66
X6.0659Y-5.2309
X6.18Y-4.7
X6.18Y-4.825
X6.2Y-4.42
X6.23Y-4.235
X6.24Y-5.11
X6.66Y-5.2
X7.17Y-5.22
X7.1924Y-5.76
X7.2416Y-5.76
X7.27Y-5.4
X7.2908Y-5.76
X7.34Y-5.76
T4
X5.525Y-3.725
X5.625Y-3.725
X5.725Y-3.725
X5.825Y-3.725
X5.925Y-3.725
X6.025Y-3.725
T6
X4.625Y-3.2713
X4.625Y-3.3713
X4.625Y-3.4713
X4.625Y-3.5713
X4.625Y-3.6713
X4.625Y-3.7713
X4.625Y-3.8713
X4.625Y-3.9713
X4.625Y-4.0713
X4.625Y-4.1713
X4.625Y-4.7181
X4.625Y-4.8181
X4.625Y-4.9181
X4.625Y-5.0181
X4.625Y-5.1181
X4.625Y-5.2181
X4.625Y-5.3181
X4.625Y-5.4181
X4.725Y-3.2713
X4.725Y-3.3713
X4.725Y-3.4713
X4.725Y-3.5713
X4.725Y-3.6713
X4.725Y-3.7713
X4.725Y-3.8713
X4.725Y-3.9713
X4.725Y-4.0713
X4.725Y-4.1713
X4.725Y-4.7181
X4.725Y-4.8181
X4.725Y-4.9181
X4.725Y-5.0181
X4.725Y-5.1181
X4.725Y-5.2181
X4.725Y-5.3181
X4.725Y-5.4181
X4.7561Y-2.2811
X4.7561Y-2.3811
X4.7561Y-2.4811
X4.7561Y-2.5811
X4.8561Y-2.2811
X4.8561Y-2.3811
X4.8561Y-2.4811
X4.8561Y-2.5811
X4.9561Y-2.2811
X4.9561Y-2.3811
X4.9561Y-2.4811
X4.9561Y-2.5811
X5.0561Y-2.2811
X5.0561Y-2.3811
X5.0561Y-2.4811
X5.0561Y-2.5811
X5.1561Y-2.2811
X5.1561Y-2.3811
X5.1561Y-2.4811
X5.1561Y-2.5811
X5.2561Y-2.2811
X5.2561Y-2.3811
X5.2561Y-2.4811
X5.2561Y-2.5811
X5.3561Y-2.2811
X5.3561Y-2.3811
X5.3561Y-2.4811
X5.3561Y-2.5811
X5.4561Y-2.2811
X5.4561Y-2.3811
X5.4561Y-2.4811
X5.4561Y-2.5811
X5.5561Y-2.2811
X5.5561Y-2.3811
X5.5561Y-2.4811
X5.5561Y-2.5811
X5.6561Y-2.2811
X5.6561Y-2.3811
X5.6561Y-2.4811
X5.6561Y-2.5811
X5.7561Y-2.2811
X5.7561Y-2.3811
X5.7561Y-2.4811
X5.7561Y-2.5811
X5.8561Y-2.2811
X5.8561Y-2.3811
X5.8561Y-2.4811
X5.8561Y-2.5811
X5.9561Y-2.2811
X5.9561Y-2.3811
X5.9561Y-2.4811
X5.9561Y-2.5811
X6.0561Y-2.2811
X6.0561Y-2.3811
X6.0561Y-2.4811
X6.0561Y-2.5811
X6.1561Y-2.2811
X6.1561Y-2.3811
X6.1561Y-2.4811
X6.1561Y-2.5811
X6.2561Y-2.2811
X6.2561Y-2.3811
X6.2561Y-2.4811
X6.2561Y-2.5811
X6.3561Y-2.2811
X6.3561Y-2.3811
X6.3561Y-2.4811
X6.3561Y-2.5811
X6.401Y-5.66
X6.4555Y-3.3076
X6.4555Y-3.4076
X6.4555Y-3.5076
X6.4555Y-3.6076
X6.4555Y-3.7076
X6.4555Y-3.8076
X6.4555Y-3.9076
X6.4555Y-4.0076
X6.4555Y-4.1076
X6.4555Y-4.2076
X6.4555Y-4.3076
X6.4555Y-4.4076
X6.4555Y-4.5076
X6.4555Y-4.6076
X6.4555Y-4.7076
X6.4555Y-4.8076
X6.4555Y-4.9076
X6.4555Y-5.0076
X6.4555Y-5.1076
X6.4555Y-5.2076
X6.4561Y-2.2811
X6.4561Y-2.3811
X6.4561Y-2.4811
X6.4561Y-2.5811
X6.501Y-5.66
X6.5555Y-3.3076
X6.5555Y-3.4076
X6.5555Y-3.5076
X6.5555Y-3.6076
X6.5555Y-3.7076
X6.5555Y-3.8076
X6.5555Y-3.9076
X6.5555Y-4.0076
X6.5555Y-4.1076
X6.5555Y-4.2076
X6.5555Y-4.3076
X6.5555Y-4.4076
X6.5555Y-4.5076
X6.5555Y-4.6076
X6.5555Y-4.7076
X6.5555Y-4.8076
X6.5555Y-4.9076
X6.5555Y-5.0076
X6.5555Y-5.1076
X6.5555Y-5.2076
X6.5561Y-2.2811
X6.5561Y-2.3811
X6.5561Y-2.4811
X6.5561Y-2.5811
X6.6561Y-2.2811
X6.6561Y-2.3811
X6.6561Y-2.4811
X6.6561Y-2.5811
X6.7561Y-2.2811
X6.7561Y-2.3811
X6.7561Y-2.4811
X6.7561Y-2.5811
X6.8561Y-2.2811
X6.8561Y-2.3811
X6.8561Y-2.4811
X6.8561Y-2.5811
X6.9561Y-2.2811
X6.9561Y-2.3811
X6.9561Y-2.4811
X6.9561Y-2.5811
X7.0259Y-3.1406
X7.0259Y-3.9594
X7.0561Y-2.2811
X7.0561Y-2.3811
X7.0561Y-2.4811
X7.0561Y-2.5811
X7.148Y-3.1406
X7.148Y-3.9594
X7.1561Y-2.2811
X7.1561Y-2.3811
X7.1561Y-2.4811
X7.1561Y-2.5811
X7.2561Y-2.2811
X7.2561Y-2.3811
X7.2561Y-2.4811
X7.2561Y-2.5811
X7.4305Y-3.8576
X7.4305Y-3.9576
X7.625Y-2.65
X7.625Y-2.7484
T7
X4.4061Y-5.6561
X4.5561Y-2.2811
X7.4561Y-2.2811
X7.5561Y-5.6561
T3
G00X5.884Y-5.5648
M15
G01X5.8761Y-5.5648
M16
G05
G00X6.1439Y-5.5648
M15
G01X6.136Y-5.5648
M16
G05
T5
G00X5.8683Y-5.6848
M15
G01X5.8683Y-5.6652
M16
G05
G00X6.1517Y-5.6848
M15
G01X6.1517Y-5.6652
M16
G05
T0
M30
