%TF.GenerationSoftware,KiCad,Pcbnew,(5.1.9)-1*%
%TF.CreationDate,2021-10-15T18:05:21-04:00*%
%TF.ProjectId,REVERB Interface,52455645-5242-4204-996e-746572666163,rev?*%
%TF.SameCoordinates,Original*%
%TF.FileFunction,Paste,Top*%
%TF.FilePolarity,Positive*%
%FSLAX46Y46*%
G04 Gerber Fmt 4.6, Leading zero omitted, Abs format (unit mm)*
G04 Created by KiCad (PCBNEW (5.1.9)-1) date 2021-10-15 18:05:21*
%MOMM*%
%LPD*%
G01*
G04 APERTURE LIST*
%ADD10R,1.750000X0.450000*%
%ADD11R,1.100000X1.350000*%
%ADD12R,0.400000X2.000000*%
G04 APERTURE END LIST*
%TO.C,U2*%
G36*
G01*
X139354999Y-131120000D02*
X140614997Y-131120000D01*
G75*
G02*
X140809997Y-131315000I0J-195000D01*
G01*
X140809997Y-131575000D01*
G75*
G02*
X140614997Y-131770000I-195000J0D01*
G01*
X139354999Y-131770000D01*
G75*
G02*
X139159999Y-131575000I0J195000D01*
G01*
X139159999Y-131315000D01*
G75*
G02*
X139354999Y-131120000I195000J0D01*
G01*
G37*
G36*
G01*
X139354999Y-129850000D02*
X140614997Y-129850000D01*
G75*
G02*
X140809997Y-130045000I0J-195000D01*
G01*
X140809997Y-130305000D01*
G75*
G02*
X140614997Y-130500000I-195000J0D01*
G01*
X139354999Y-130500000D01*
G75*
G02*
X139159999Y-130305000I0J195000D01*
G01*
X139159999Y-130045000D01*
G75*
G02*
X139354999Y-129850000I195000J0D01*
G01*
G37*
G36*
G01*
X139354999Y-128580000D02*
X140614997Y-128580000D01*
G75*
G02*
X140809997Y-128775000I0J-195000D01*
G01*
X140809997Y-129035000D01*
G75*
G02*
X140614997Y-129230000I-195000J0D01*
G01*
X139354999Y-129230000D01*
G75*
G02*
X139159999Y-129035000I0J195000D01*
G01*
X139159999Y-128775000D01*
G75*
G02*
X139354999Y-128580000I195000J0D01*
G01*
G37*
G36*
G01*
X139354999Y-127310000D02*
X140614997Y-127310000D01*
G75*
G02*
X140809997Y-127505000I0J-195000D01*
G01*
X140809997Y-127765000D01*
G75*
G02*
X140614997Y-127960000I-195000J0D01*
G01*
X139354999Y-127960000D01*
G75*
G02*
X139159999Y-127765000I0J195000D01*
G01*
X139159999Y-127505000D01*
G75*
G02*
X139354999Y-127310000I195000J0D01*
G01*
G37*
G36*
G01*
X139354999Y-126040000D02*
X140614997Y-126040000D01*
G75*
G02*
X140809997Y-126235000I0J-195000D01*
G01*
X140809997Y-126495000D01*
G75*
G02*
X140614997Y-126690000I-195000J0D01*
G01*
X139354999Y-126690000D01*
G75*
G02*
X139159999Y-126495000I0J195000D01*
G01*
X139159999Y-126235000D01*
G75*
G02*
X139354999Y-126040000I195000J0D01*
G01*
G37*
G36*
G01*
X139354999Y-124770000D02*
X140614997Y-124770000D01*
G75*
G02*
X140809997Y-124965000I0J-195000D01*
G01*
X140809997Y-125225000D01*
G75*
G02*
X140614997Y-125420000I-195000J0D01*
G01*
X139354999Y-125420000D01*
G75*
G02*
X139159999Y-125225000I0J195000D01*
G01*
X139159999Y-124965000D01*
G75*
G02*
X139354999Y-124770000I195000J0D01*
G01*
G37*
G36*
G01*
X139354999Y-123500000D02*
X140614997Y-123500000D01*
G75*
G02*
X140809997Y-123695000I0J-195000D01*
G01*
X140809997Y-123955000D01*
G75*
G02*
X140614997Y-124150000I-195000J0D01*
G01*
X139354999Y-124150000D01*
G75*
G02*
X139159999Y-123955000I0J195000D01*
G01*
X139159999Y-123695000D01*
G75*
G02*
X139354999Y-123500000I195000J0D01*
G01*
G37*
G36*
G01*
X139354999Y-122230000D02*
X140614997Y-122230000D01*
G75*
G02*
X140809997Y-122425000I0J-195000D01*
G01*
X140809997Y-122685000D01*
G75*
G02*
X140614997Y-122880000I-195000J0D01*
G01*
X139354999Y-122880000D01*
G75*
G02*
X139159999Y-122685000I0J195000D01*
G01*
X139159999Y-122425000D01*
G75*
G02*
X139354999Y-122230000I195000J0D01*
G01*
G37*
G36*
G01*
X133705000Y-131120000D02*
X134964998Y-131120000D01*
G75*
G02*
X135159998Y-131315000I0J-195000D01*
G01*
X135159998Y-131575000D01*
G75*
G02*
X134964998Y-131770000I-195000J0D01*
G01*
X133705000Y-131770000D01*
G75*
G02*
X133510000Y-131575000I0J195000D01*
G01*
X133510000Y-131315000D01*
G75*
G02*
X133705000Y-131120000I195000J0D01*
G01*
G37*
G36*
G01*
X133705000Y-129850000D02*
X134964998Y-129850000D01*
G75*
G02*
X135159998Y-130045000I0J-195000D01*
G01*
X135159998Y-130305000D01*
G75*
G02*
X134964998Y-130500000I-195000J0D01*
G01*
X133705000Y-130500000D01*
G75*
G02*
X133510000Y-130305000I0J195000D01*
G01*
X133510000Y-130045000D01*
G75*
G02*
X133705000Y-129850000I195000J0D01*
G01*
G37*
G36*
G01*
X133705000Y-128580000D02*
X134964998Y-128580000D01*
G75*
G02*
X135159998Y-128775000I0J-195000D01*
G01*
X135159998Y-129035000D01*
G75*
G02*
X134964998Y-129230000I-195000J0D01*
G01*
X133705000Y-129230000D01*
G75*
G02*
X133510000Y-129035000I0J195000D01*
G01*
X133510000Y-128775000D01*
G75*
G02*
X133705000Y-128580000I195000J0D01*
G01*
G37*
G36*
G01*
X133705000Y-127310000D02*
X134964998Y-127310000D01*
G75*
G02*
X135159998Y-127505000I0J-195000D01*
G01*
X135159998Y-127765000D01*
G75*
G02*
X134964998Y-127960000I-195000J0D01*
G01*
X133705000Y-127960000D01*
G75*
G02*
X133510000Y-127765000I0J195000D01*
G01*
X133510000Y-127505000D01*
G75*
G02*
X133705000Y-127310000I195000J0D01*
G01*
G37*
G36*
G01*
X133705000Y-126040000D02*
X134964998Y-126040000D01*
G75*
G02*
X135159998Y-126235000I0J-195000D01*
G01*
X135159998Y-126495000D01*
G75*
G02*
X134964998Y-126690000I-195000J0D01*
G01*
X133705000Y-126690000D01*
G75*
G02*
X133510000Y-126495000I0J195000D01*
G01*
X133510000Y-126235000D01*
G75*
G02*
X133705000Y-126040000I195000J0D01*
G01*
G37*
G36*
G01*
X133705000Y-124770000D02*
X134964998Y-124770000D01*
G75*
G02*
X135159998Y-124965000I0J-195000D01*
G01*
X135159998Y-125225000D01*
G75*
G02*
X134964998Y-125420000I-195000J0D01*
G01*
X133705000Y-125420000D01*
G75*
G02*
X133510000Y-125225000I0J195000D01*
G01*
X133510000Y-124965000D01*
G75*
G02*
X133705000Y-124770000I195000J0D01*
G01*
G37*
G36*
G01*
X133705000Y-123500000D02*
X134964998Y-123500000D01*
G75*
G02*
X135159998Y-123695000I0J-195000D01*
G01*
X135159998Y-123955000D01*
G75*
G02*
X134964998Y-124150000I-195000J0D01*
G01*
X133705000Y-124150000D01*
G75*
G02*
X133510000Y-123955000I0J195000D01*
G01*
X133510000Y-123695000D01*
G75*
G02*
X133705000Y-123500000I195000J0D01*
G01*
G37*
G36*
G01*
X133705000Y-122230000D02*
X134964998Y-122230000D01*
G75*
G02*
X135159998Y-122425000I0J-195000D01*
G01*
X135159998Y-122685000D01*
G75*
G02*
X134964998Y-122880000I-195000J0D01*
G01*
X133705000Y-122880000D01*
G75*
G02*
X133510000Y-122685000I0J195000D01*
G01*
X133510000Y-122425000D01*
G75*
G02*
X133705000Y-122230000I195000J0D01*
G01*
G37*
%TD*%
%TO.C,R12*%
G36*
G01*
X158545000Y-74163001D02*
X158545000Y-73262999D01*
G75*
G02*
X158794999Y-73013000I249999J0D01*
G01*
X159495001Y-73013000D01*
G75*
G02*
X159745000Y-73262999I0J-249999D01*
G01*
X159745000Y-74163001D01*
G75*
G02*
X159495001Y-74413000I-249999J0D01*
G01*
X158794999Y-74413000D01*
G75*
G02*
X158545000Y-74163001I0J249999D01*
G01*
G37*
G36*
G01*
X156545000Y-74163001D02*
X156545000Y-73262999D01*
G75*
G02*
X156794999Y-73013000I249999J0D01*
G01*
X157495001Y-73013000D01*
G75*
G02*
X157745000Y-73262999I0J-249999D01*
G01*
X157745000Y-74163001D01*
G75*
G02*
X157495001Y-74413000I-249999J0D01*
G01*
X156794999Y-74413000D01*
G75*
G02*
X156545000Y-74163001I0J249999D01*
G01*
G37*
%TD*%
%TO.C,R11*%
G36*
G01*
X111309999Y-80110000D02*
X112210001Y-80110000D01*
G75*
G02*
X112460000Y-80359999I0J-249999D01*
G01*
X112460000Y-81060001D01*
G75*
G02*
X112210001Y-81310000I-249999J0D01*
G01*
X111309999Y-81310000D01*
G75*
G02*
X111060000Y-81060001I0J249999D01*
G01*
X111060000Y-80359999D01*
G75*
G02*
X111309999Y-80110000I249999J0D01*
G01*
G37*
G36*
G01*
X111309999Y-78110000D02*
X112210001Y-78110000D01*
G75*
G02*
X112460000Y-78359999I0J-249999D01*
G01*
X112460000Y-79060001D01*
G75*
G02*
X112210001Y-79310000I-249999J0D01*
G01*
X111309999Y-79310000D01*
G75*
G02*
X111060000Y-79060001I0J249999D01*
G01*
X111060000Y-78359999D01*
G75*
G02*
X111309999Y-78110000I249999J0D01*
G01*
G37*
%TD*%
%TO.C,R10*%
G36*
G01*
X128505000Y-73209999D02*
X128505000Y-74110001D01*
G75*
G02*
X128255001Y-74360000I-249999J0D01*
G01*
X127554999Y-74360000D01*
G75*
G02*
X127305000Y-74110001I0J249999D01*
G01*
X127305000Y-73209999D01*
G75*
G02*
X127554999Y-72960000I249999J0D01*
G01*
X128255001Y-72960000D01*
G75*
G02*
X128505000Y-73209999I0J-249999D01*
G01*
G37*
G36*
G01*
X130505000Y-73209999D02*
X130505000Y-74110001D01*
G75*
G02*
X130255001Y-74360000I-249999J0D01*
G01*
X129554999Y-74360000D01*
G75*
G02*
X129305000Y-74110001I0J249999D01*
G01*
X129305000Y-73209999D01*
G75*
G02*
X129554999Y-72960000I249999J0D01*
G01*
X130255001Y-72960000D01*
G75*
G02*
X130505000Y-73209999I0J-249999D01*
G01*
G37*
%TD*%
%TO.C,R9*%
G36*
G01*
X121520000Y-73209999D02*
X121520000Y-74110001D01*
G75*
G02*
X121270001Y-74360000I-249999J0D01*
G01*
X120569999Y-74360000D01*
G75*
G02*
X120320000Y-74110001I0J249999D01*
G01*
X120320000Y-73209999D01*
G75*
G02*
X120569999Y-72960000I249999J0D01*
G01*
X121270001Y-72960000D01*
G75*
G02*
X121520000Y-73209999I0J-249999D01*
G01*
G37*
G36*
G01*
X123520000Y-73209999D02*
X123520000Y-74110001D01*
G75*
G02*
X123270001Y-74360000I-249999J0D01*
G01*
X122569999Y-74360000D01*
G75*
G02*
X122320000Y-74110001I0J249999D01*
G01*
X122320000Y-73209999D01*
G75*
G02*
X122569999Y-72960000I249999J0D01*
G01*
X123270001Y-72960000D01*
G75*
G02*
X123520000Y-73209999I0J-249999D01*
G01*
G37*
%TD*%
%TO.C,D12*%
G36*
G01*
X158565000Y-70935001D02*
X158565000Y-70034999D01*
G75*
G02*
X158814999Y-69785000I249999J0D01*
G01*
X159465001Y-69785000D01*
G75*
G02*
X159715000Y-70034999I0J-249999D01*
G01*
X159715000Y-70935001D01*
G75*
G02*
X159465001Y-71185000I-249999J0D01*
G01*
X158814999Y-71185000D01*
G75*
G02*
X158565000Y-70935001I0J249999D01*
G01*
G37*
G36*
G01*
X156515000Y-70935001D02*
X156515000Y-70034999D01*
G75*
G02*
X156764999Y-69785000I249999J0D01*
G01*
X157415001Y-69785000D01*
G75*
G02*
X157665000Y-70034999I0J-249999D01*
G01*
X157665000Y-70935001D01*
G75*
G02*
X157415001Y-71185000I-249999J0D01*
G01*
X156764999Y-71185000D01*
G75*
G02*
X156515000Y-70935001I0J249999D01*
G01*
G37*
%TD*%
%TO.C,D11*%
G36*
G01*
X114484999Y-80115000D02*
X115385001Y-80115000D01*
G75*
G02*
X115635000Y-80364999I0J-249999D01*
G01*
X115635000Y-81015001D01*
G75*
G02*
X115385001Y-81265000I-249999J0D01*
G01*
X114484999Y-81265000D01*
G75*
G02*
X114235000Y-81015001I0J249999D01*
G01*
X114235000Y-80364999D01*
G75*
G02*
X114484999Y-80115000I249999J0D01*
G01*
G37*
G36*
G01*
X114484999Y-78065000D02*
X115385001Y-78065000D01*
G75*
G02*
X115635000Y-78314999I0J-249999D01*
G01*
X115635000Y-78965001D01*
G75*
G02*
X115385001Y-79215000I-249999J0D01*
G01*
X114484999Y-79215000D01*
G75*
G02*
X114235000Y-78965001I0J249999D01*
G01*
X114235000Y-78314999D01*
G75*
G02*
X114484999Y-78065000I249999J0D01*
G01*
G37*
%TD*%
%TO.C,D10*%
G36*
G01*
X128455000Y-70034999D02*
X128455000Y-70935001D01*
G75*
G02*
X128205001Y-71185000I-249999J0D01*
G01*
X127554999Y-71185000D01*
G75*
G02*
X127305000Y-70935001I0J249999D01*
G01*
X127305000Y-70034999D01*
G75*
G02*
X127554999Y-69785000I249999J0D01*
G01*
X128205001Y-69785000D01*
G75*
G02*
X128455000Y-70034999I0J-249999D01*
G01*
G37*
G36*
G01*
X130505000Y-70034999D02*
X130505000Y-70935001D01*
G75*
G02*
X130255001Y-71185000I-249999J0D01*
G01*
X129604999Y-71185000D01*
G75*
G02*
X129355000Y-70935001I0J249999D01*
G01*
X129355000Y-70034999D01*
G75*
G02*
X129604999Y-69785000I249999J0D01*
G01*
X130255001Y-69785000D01*
G75*
G02*
X130505000Y-70034999I0J-249999D01*
G01*
G37*
%TD*%
%TO.C,D9*%
G36*
G01*
X121470000Y-70034999D02*
X121470000Y-70935001D01*
G75*
G02*
X121220001Y-71185000I-249999J0D01*
G01*
X120569999Y-71185000D01*
G75*
G02*
X120320000Y-70935001I0J249999D01*
G01*
X120320000Y-70034999D01*
G75*
G02*
X120569999Y-69785000I249999J0D01*
G01*
X121220001Y-69785000D01*
G75*
G02*
X121470000Y-70034999I0J-249999D01*
G01*
G37*
G36*
G01*
X123520000Y-70034999D02*
X123520000Y-70935001D01*
G75*
G02*
X123270001Y-71185000I-249999J0D01*
G01*
X122619999Y-71185000D01*
G75*
G02*
X122370000Y-70935001I0J249999D01*
G01*
X122370000Y-70034999D01*
G75*
G02*
X122619999Y-69785000I249999J0D01*
G01*
X123270001Y-69785000D01*
G75*
G02*
X123520000Y-70034999I0J-249999D01*
G01*
G37*
%TD*%
%TO.C,R6*%
G36*
G01*
X131680000Y-104959999D02*
X131680000Y-105860001D01*
G75*
G02*
X131430001Y-106110000I-249999J0D01*
G01*
X130729999Y-106110000D01*
G75*
G02*
X130480000Y-105860001I0J249999D01*
G01*
X130480000Y-104959999D01*
G75*
G02*
X130729999Y-104710000I249999J0D01*
G01*
X131430001Y-104710000D01*
G75*
G02*
X131680000Y-104959999I0J-249999D01*
G01*
G37*
G36*
G01*
X133680000Y-104959999D02*
X133680000Y-105860001D01*
G75*
G02*
X133430001Y-106110000I-249999J0D01*
G01*
X132729999Y-106110000D01*
G75*
G02*
X132480000Y-105860001I0J249999D01*
G01*
X132480000Y-104959999D01*
G75*
G02*
X132729999Y-104710000I249999J0D01*
G01*
X133430001Y-104710000D01*
G75*
G02*
X133680000Y-104959999I0J-249999D01*
G01*
G37*
%TD*%
%TO.C,R5*%
G36*
G01*
X131680000Y-111309999D02*
X131680000Y-112210001D01*
G75*
G02*
X131430001Y-112460000I-249999J0D01*
G01*
X130729999Y-112460000D01*
G75*
G02*
X130480000Y-112210001I0J249999D01*
G01*
X130480000Y-111309999D01*
G75*
G02*
X130729999Y-111060000I249999J0D01*
G01*
X131430001Y-111060000D01*
G75*
G02*
X131680000Y-111309999I0J-249999D01*
G01*
G37*
G36*
G01*
X133680000Y-111309999D02*
X133680000Y-112210001D01*
G75*
G02*
X133430001Y-112460000I-249999J0D01*
G01*
X132729999Y-112460000D01*
G75*
G02*
X132480000Y-112210001I0J249999D01*
G01*
X132480000Y-111309999D01*
G75*
G02*
X132729999Y-111060000I249999J0D01*
G01*
X133430001Y-111060000D01*
G75*
G02*
X133680000Y-111309999I0J-249999D01*
G01*
G37*
%TD*%
%TO.C,R4*%
G36*
G01*
X133585000Y-73209999D02*
X133585000Y-74110001D01*
G75*
G02*
X133335001Y-74360000I-249999J0D01*
G01*
X132634999Y-74360000D01*
G75*
G02*
X132385000Y-74110001I0J249999D01*
G01*
X132385000Y-73209999D01*
G75*
G02*
X132634999Y-72960000I249999J0D01*
G01*
X133335001Y-72960000D01*
G75*
G02*
X133585000Y-73209999I0J-249999D01*
G01*
G37*
G36*
G01*
X135585000Y-73209999D02*
X135585000Y-74110001D01*
G75*
G02*
X135335001Y-74360000I-249999J0D01*
G01*
X134634999Y-74360000D01*
G75*
G02*
X134385000Y-74110001I0J249999D01*
G01*
X134385000Y-73209999D01*
G75*
G02*
X134634999Y-72960000I249999J0D01*
G01*
X135335001Y-72960000D01*
G75*
G02*
X135585000Y-73209999I0J-249999D01*
G01*
G37*
%TD*%
%TO.C,R3*%
G36*
G01*
X138665000Y-73209999D02*
X138665000Y-74110001D01*
G75*
G02*
X138415001Y-74360000I-249999J0D01*
G01*
X137714999Y-74360000D01*
G75*
G02*
X137465000Y-74110001I0J249999D01*
G01*
X137465000Y-73209999D01*
G75*
G02*
X137714999Y-72960000I249999J0D01*
G01*
X138415001Y-72960000D01*
G75*
G02*
X138665000Y-73209999I0J-249999D01*
G01*
G37*
G36*
G01*
X140665000Y-73209999D02*
X140665000Y-74110001D01*
G75*
G02*
X140415001Y-74360000I-249999J0D01*
G01*
X139714999Y-74360000D01*
G75*
G02*
X139465000Y-74110001I0J249999D01*
G01*
X139465000Y-73209999D01*
G75*
G02*
X139714999Y-72960000I249999J0D01*
G01*
X140415001Y-72960000D01*
G75*
G02*
X140665000Y-73209999I0J-249999D01*
G01*
G37*
%TD*%
%TO.C,R2*%
G36*
G01*
X151949999Y-114700000D02*
X152850001Y-114700000D01*
G75*
G02*
X153100000Y-114949999I0J-249999D01*
G01*
X153100000Y-115650001D01*
G75*
G02*
X152850001Y-115900000I-249999J0D01*
G01*
X151949999Y-115900000D01*
G75*
G02*
X151700000Y-115650001I0J249999D01*
G01*
X151700000Y-114949999D01*
G75*
G02*
X151949999Y-114700000I249999J0D01*
G01*
G37*
G36*
G01*
X151949999Y-112700000D02*
X152850001Y-112700000D01*
G75*
G02*
X153100000Y-112949999I0J-249999D01*
G01*
X153100000Y-113650001D01*
G75*
G02*
X152850001Y-113900000I-249999J0D01*
G01*
X151949999Y-113900000D01*
G75*
G02*
X151700000Y-113650001I0J249999D01*
G01*
X151700000Y-112949999D01*
G75*
G02*
X151949999Y-112700000I249999J0D01*
G01*
G37*
%TD*%
%TO.C,R1*%
G36*
G01*
X157029999Y-114700000D02*
X157930001Y-114700000D01*
G75*
G02*
X158180000Y-114949999I0J-249999D01*
G01*
X158180000Y-115650001D01*
G75*
G02*
X157930001Y-115900000I-249999J0D01*
G01*
X157029999Y-115900000D01*
G75*
G02*
X156780000Y-115650001I0J249999D01*
G01*
X156780000Y-114949999D01*
G75*
G02*
X157029999Y-114700000I249999J0D01*
G01*
G37*
G36*
G01*
X157029999Y-112700000D02*
X157930001Y-112700000D01*
G75*
G02*
X158180000Y-112949999I0J-249999D01*
G01*
X158180000Y-113650001D01*
G75*
G02*
X157930001Y-113900000I-249999J0D01*
G01*
X157029999Y-113900000D01*
G75*
G02*
X156780000Y-113650001I0J249999D01*
G01*
X156780000Y-112949999D01*
G75*
G02*
X157029999Y-112700000I249999J0D01*
G01*
G37*
%TD*%
D10*
%TO.C,U3*%
X157270000Y-126585000D03*
X157270000Y-127235000D03*
X157270000Y-127885000D03*
X157270000Y-128535000D03*
X157270000Y-129185000D03*
X157270000Y-129835000D03*
X157270000Y-130485000D03*
X157270000Y-131135000D03*
X157270000Y-131785000D03*
X157270000Y-132435000D03*
X157270000Y-133085000D03*
X157270000Y-133735000D03*
X157270000Y-134385000D03*
X157270000Y-135035000D03*
X150070000Y-135035000D03*
X150070000Y-134385000D03*
X150070000Y-133735000D03*
X150070000Y-133085000D03*
X150070000Y-132435000D03*
X150070000Y-131785000D03*
X150070000Y-131135000D03*
X150070000Y-130485000D03*
X150070000Y-129835000D03*
X150070000Y-129185000D03*
X150070000Y-128535000D03*
X150070000Y-127885000D03*
X150070000Y-127235000D03*
X150070000Y-126585000D03*
%TD*%
D11*
%TO.C,J6*%
X155870000Y-144145000D03*
X151470000Y-144145000D03*
D12*
X152370000Y-141545000D03*
X153020000Y-141545000D03*
X153670000Y-141545000D03*
X154320000Y-141545000D03*
X154970000Y-141545000D03*
%TD*%
%TO.C,D6*%
G36*
G01*
X131630000Y-108134999D02*
X131630000Y-109035001D01*
G75*
G02*
X131380001Y-109285000I-249999J0D01*
G01*
X130729999Y-109285000D01*
G75*
G02*
X130480000Y-109035001I0J249999D01*
G01*
X130480000Y-108134999D01*
G75*
G02*
X130729999Y-107885000I249999J0D01*
G01*
X131380001Y-107885000D01*
G75*
G02*
X131630000Y-108134999I0J-249999D01*
G01*
G37*
G36*
G01*
X133680000Y-108134999D02*
X133680000Y-109035001D01*
G75*
G02*
X133430001Y-109285000I-249999J0D01*
G01*
X132779999Y-109285000D01*
G75*
G02*
X132530000Y-109035001I0J249999D01*
G01*
X132530000Y-108134999D01*
G75*
G02*
X132779999Y-107885000I249999J0D01*
G01*
X133430001Y-107885000D01*
G75*
G02*
X133680000Y-108134999I0J-249999D01*
G01*
G37*
%TD*%
%TO.C,D5*%
G36*
G01*
X131630000Y-114484999D02*
X131630000Y-115385001D01*
G75*
G02*
X131380001Y-115635000I-249999J0D01*
G01*
X130729999Y-115635000D01*
G75*
G02*
X130480000Y-115385001I0J249999D01*
G01*
X130480000Y-114484999D01*
G75*
G02*
X130729999Y-114235000I249999J0D01*
G01*
X131380001Y-114235000D01*
G75*
G02*
X131630000Y-114484999I0J-249999D01*
G01*
G37*
G36*
G01*
X133680000Y-114484999D02*
X133680000Y-115385001D01*
G75*
G02*
X133430001Y-115635000I-249999J0D01*
G01*
X132779999Y-115635000D01*
G75*
G02*
X132530000Y-115385001I0J249999D01*
G01*
X132530000Y-114484999D01*
G75*
G02*
X132779999Y-114235000I249999J0D01*
G01*
X133430001Y-114235000D01*
G75*
G02*
X133680000Y-114484999I0J-249999D01*
G01*
G37*
%TD*%
%TO.C,D4*%
G36*
G01*
X133535000Y-70034999D02*
X133535000Y-70935001D01*
G75*
G02*
X133285001Y-71185000I-249999J0D01*
G01*
X132634999Y-71185000D01*
G75*
G02*
X132385000Y-70935001I0J249999D01*
G01*
X132385000Y-70034999D01*
G75*
G02*
X132634999Y-69785000I249999J0D01*
G01*
X133285001Y-69785000D01*
G75*
G02*
X133535000Y-70034999I0J-249999D01*
G01*
G37*
G36*
G01*
X135585000Y-70034999D02*
X135585000Y-70935001D01*
G75*
G02*
X135335001Y-71185000I-249999J0D01*
G01*
X134684999Y-71185000D01*
G75*
G02*
X134435000Y-70935001I0J249999D01*
G01*
X134435000Y-70034999D01*
G75*
G02*
X134684999Y-69785000I249999J0D01*
G01*
X135335001Y-69785000D01*
G75*
G02*
X135585000Y-70034999I0J-249999D01*
G01*
G37*
%TD*%
%TO.C,D3*%
G36*
G01*
X138615000Y-70034999D02*
X138615000Y-70935001D01*
G75*
G02*
X138365001Y-71185000I-249999J0D01*
G01*
X137714999Y-71185000D01*
G75*
G02*
X137465000Y-70935001I0J249999D01*
G01*
X137465000Y-70034999D01*
G75*
G02*
X137714999Y-69785000I249999J0D01*
G01*
X138365001Y-69785000D01*
G75*
G02*
X138615000Y-70034999I0J-249999D01*
G01*
G37*
G36*
G01*
X140665000Y-70034999D02*
X140665000Y-70935001D01*
G75*
G02*
X140415001Y-71185000I-249999J0D01*
G01*
X139764999Y-71185000D01*
G75*
G02*
X139515000Y-70935001I0J249999D01*
G01*
X139515000Y-70034999D01*
G75*
G02*
X139764999Y-69785000I249999J0D01*
G01*
X140415001Y-69785000D01*
G75*
G02*
X140665000Y-70034999I0J-249999D01*
G01*
G37*
%TD*%
%TO.C,D2*%
G36*
G01*
X148774999Y-114750000D02*
X149675001Y-114750000D01*
G75*
G02*
X149925000Y-114999999I0J-249999D01*
G01*
X149925000Y-115650001D01*
G75*
G02*
X149675001Y-115900000I-249999J0D01*
G01*
X148774999Y-115900000D01*
G75*
G02*
X148525000Y-115650001I0J249999D01*
G01*
X148525000Y-114999999D01*
G75*
G02*
X148774999Y-114750000I249999J0D01*
G01*
G37*
G36*
G01*
X148774999Y-112700000D02*
X149675001Y-112700000D01*
G75*
G02*
X149925000Y-112949999I0J-249999D01*
G01*
X149925000Y-113600001D01*
G75*
G02*
X149675001Y-113850000I-249999J0D01*
G01*
X148774999Y-113850000D01*
G75*
G02*
X148525000Y-113600001I0J249999D01*
G01*
X148525000Y-112949999D01*
G75*
G02*
X148774999Y-112700000I249999J0D01*
G01*
G37*
%TD*%
%TO.C,D1*%
G36*
G01*
X160204999Y-114750000D02*
X161105001Y-114750000D01*
G75*
G02*
X161355000Y-114999999I0J-249999D01*
G01*
X161355000Y-115650001D01*
G75*
G02*
X161105001Y-115900000I-249999J0D01*
G01*
X160204999Y-115900000D01*
G75*
G02*
X159955000Y-115650001I0J249999D01*
G01*
X159955000Y-114999999D01*
G75*
G02*
X160204999Y-114750000I249999J0D01*
G01*
G37*
G36*
G01*
X160204999Y-112700000D02*
X161105001Y-112700000D01*
G75*
G02*
X161355000Y-112949999I0J-249999D01*
G01*
X161355000Y-113600001D01*
G75*
G02*
X161105001Y-113850000I-249999J0D01*
G01*
X160204999Y-113850000D01*
G75*
G02*
X159955000Y-113600001I0J249999D01*
G01*
X159955000Y-112949999D01*
G75*
G02*
X160204999Y-112700000I249999J0D01*
G01*
G37*
%TD*%
%TO.C,C8*%
G36*
G01*
X161765000Y-131630000D02*
X160815000Y-131630000D01*
G75*
G02*
X160565000Y-131380000I0J250000D01*
G01*
X160565000Y-130705000D01*
G75*
G02*
X160815000Y-130455000I250000J0D01*
G01*
X161765000Y-130455000D01*
G75*
G02*
X162015000Y-130705000I0J-250000D01*
G01*
X162015000Y-131380000D01*
G75*
G02*
X161765000Y-131630000I-250000J0D01*
G01*
G37*
G36*
G01*
X161765000Y-133705000D02*
X160815000Y-133705000D01*
G75*
G02*
X160565000Y-133455000I0J250000D01*
G01*
X160565000Y-132780000D01*
G75*
G02*
X160815000Y-132530000I250000J0D01*
G01*
X161765000Y-132530000D01*
G75*
G02*
X162015000Y-132780000I0J-250000D01*
G01*
X162015000Y-133455000D01*
G75*
G02*
X161765000Y-133705000I-250000J0D01*
G01*
G37*
%TD*%
%TO.C,C7*%
G36*
G01*
X155390000Y-123030000D02*
X155390000Y-122080000D01*
G75*
G02*
X155640000Y-121830000I250000J0D01*
G01*
X156315000Y-121830000D01*
G75*
G02*
X156565000Y-122080000I0J-250000D01*
G01*
X156565000Y-123030000D01*
G75*
G02*
X156315000Y-123280000I-250000J0D01*
G01*
X155640000Y-123280000D01*
G75*
G02*
X155390000Y-123030000I0J250000D01*
G01*
G37*
G36*
G01*
X153315000Y-123030000D02*
X153315000Y-122080000D01*
G75*
G02*
X153565000Y-121830000I250000J0D01*
G01*
X154240000Y-121830000D01*
G75*
G02*
X154490000Y-122080000I0J-250000D01*
G01*
X154490000Y-123030000D01*
G75*
G02*
X154240000Y-123280000I-250000J0D01*
G01*
X153565000Y-123280000D01*
G75*
G02*
X153315000Y-123030000I0J250000D01*
G01*
G37*
%TD*%
%TO.C,C6*%
G36*
G01*
X155390000Y-119855000D02*
X155390000Y-118905000D01*
G75*
G02*
X155640000Y-118655000I250000J0D01*
G01*
X156315000Y-118655000D01*
G75*
G02*
X156565000Y-118905000I0J-250000D01*
G01*
X156565000Y-119855000D01*
G75*
G02*
X156315000Y-120105000I-250000J0D01*
G01*
X155640000Y-120105000D01*
G75*
G02*
X155390000Y-119855000I0J250000D01*
G01*
G37*
G36*
G01*
X153315000Y-119855000D02*
X153315000Y-118905000D01*
G75*
G02*
X153565000Y-118655000I250000J0D01*
G01*
X154240000Y-118655000D01*
G75*
G02*
X154490000Y-118905000I0J-250000D01*
G01*
X154490000Y-119855000D01*
G75*
G02*
X154240000Y-120105000I-250000J0D01*
G01*
X153565000Y-120105000D01*
G75*
G02*
X153315000Y-119855000I0J250000D01*
G01*
G37*
%TD*%
%TO.C,C5*%
G36*
G01*
X142400000Y-123640000D02*
X143350000Y-123640000D01*
G75*
G02*
X143600000Y-123890000I0J-250000D01*
G01*
X143600000Y-124565000D01*
G75*
G02*
X143350000Y-124815000I-250000J0D01*
G01*
X142400000Y-124815000D01*
G75*
G02*
X142150000Y-124565000I0J250000D01*
G01*
X142150000Y-123890000D01*
G75*
G02*
X142400000Y-123640000I250000J0D01*
G01*
G37*
G36*
G01*
X142400000Y-121565000D02*
X143350000Y-121565000D01*
G75*
G02*
X143600000Y-121815000I0J-250000D01*
G01*
X143600000Y-122490000D01*
G75*
G02*
X143350000Y-122740000I-250000J0D01*
G01*
X142400000Y-122740000D01*
G75*
G02*
X142150000Y-122490000I0J250000D01*
G01*
X142150000Y-121815000D01*
G75*
G02*
X142400000Y-121565000I250000J0D01*
G01*
G37*
%TD*%
%TO.C,C4*%
G36*
G01*
X131285000Y-132265000D02*
X130335000Y-132265000D01*
G75*
G02*
X130085000Y-132015000I0J250000D01*
G01*
X130085000Y-131340000D01*
G75*
G02*
X130335000Y-131090000I250000J0D01*
G01*
X131285000Y-131090000D01*
G75*
G02*
X131535000Y-131340000I0J-250000D01*
G01*
X131535000Y-132015000D01*
G75*
G02*
X131285000Y-132265000I-250000J0D01*
G01*
G37*
G36*
G01*
X131285000Y-134340000D02*
X130335000Y-134340000D01*
G75*
G02*
X130085000Y-134090000I0J250000D01*
G01*
X130085000Y-133415000D01*
G75*
G02*
X130335000Y-133165000I250000J0D01*
G01*
X131285000Y-133165000D01*
G75*
G02*
X131535000Y-133415000I0J-250000D01*
G01*
X131535000Y-134090000D01*
G75*
G02*
X131285000Y-134340000I-250000J0D01*
G01*
G37*
%TD*%
%TO.C,C3*%
G36*
G01*
X135937500Y-120490000D02*
X135937500Y-119540000D01*
G75*
G02*
X136187500Y-119290000I250000J0D01*
G01*
X136862500Y-119290000D01*
G75*
G02*
X137112500Y-119540000I0J-250000D01*
G01*
X137112500Y-120490000D01*
G75*
G02*
X136862500Y-120740000I-250000J0D01*
G01*
X136187500Y-120740000D01*
G75*
G02*
X135937500Y-120490000I0J250000D01*
G01*
G37*
G36*
G01*
X133862500Y-120490000D02*
X133862500Y-119540000D01*
G75*
G02*
X134112500Y-119290000I250000J0D01*
G01*
X134787500Y-119290000D01*
G75*
G02*
X135037500Y-119540000I0J-250000D01*
G01*
X135037500Y-120490000D01*
G75*
G02*
X134787500Y-120740000I-250000J0D01*
G01*
X134112500Y-120740000D01*
G75*
G02*
X133862500Y-120490000I0J250000D01*
G01*
G37*
%TD*%
%TO.C,C2*%
G36*
G01*
X130335000Y-128085000D02*
X131285000Y-128085000D01*
G75*
G02*
X131535000Y-128335000I0J-250000D01*
G01*
X131535000Y-129010000D01*
G75*
G02*
X131285000Y-129260000I-250000J0D01*
G01*
X130335000Y-129260000D01*
G75*
G02*
X130085000Y-129010000I0J250000D01*
G01*
X130085000Y-128335000D01*
G75*
G02*
X130335000Y-128085000I250000J0D01*
G01*
G37*
G36*
G01*
X130335000Y-126010000D02*
X131285000Y-126010000D01*
G75*
G02*
X131535000Y-126260000I0J-250000D01*
G01*
X131535000Y-126935000D01*
G75*
G02*
X131285000Y-127185000I-250000J0D01*
G01*
X130335000Y-127185000D01*
G75*
G02*
X130085000Y-126935000I0J250000D01*
G01*
X130085000Y-126260000D01*
G75*
G02*
X130335000Y-126010000I250000J0D01*
G01*
G37*
%TD*%
%TO.C,C1*%
G36*
G01*
X131285000Y-122105000D02*
X130335000Y-122105000D01*
G75*
G02*
X130085000Y-121855000I0J250000D01*
G01*
X130085000Y-121180000D01*
G75*
G02*
X130335000Y-120930000I250000J0D01*
G01*
X131285000Y-120930000D01*
G75*
G02*
X131535000Y-121180000I0J-250000D01*
G01*
X131535000Y-121855000D01*
G75*
G02*
X131285000Y-122105000I-250000J0D01*
G01*
G37*
G36*
G01*
X131285000Y-124180000D02*
X130335000Y-124180000D01*
G75*
G02*
X130085000Y-123930000I0J250000D01*
G01*
X130085000Y-123255000D01*
G75*
G02*
X130335000Y-123005000I250000J0D01*
G01*
X131285000Y-123005000D01*
G75*
G02*
X131535000Y-123255000I0J-250000D01*
G01*
X131535000Y-123930000D01*
G75*
G02*
X131285000Y-124180000I-250000J0D01*
G01*
G37*
%TD*%
M02*
