%TF.GenerationSoftware,KiCad,Pcbnew,(5.1.9)-1*%
%TF.CreationDate,2021-10-10T13:34:13-04:00*%
%TF.ProjectId,REVERB Interface,52455645-5242-4204-996e-746572666163,rev?*%
%TF.SameCoordinates,Original*%
%TF.FileFunction,Legend,Top*%
%TF.FilePolarity,Positive*%
%FSLAX46Y46*%
G04 Gerber Fmt 4.6, Leading zero omitted, Abs format (unit mm)*
G04 Created by KiCad (PCBNEW (5.1.9)-1) date 2021-10-10 13:34:13*
%MOMM*%
%LPD*%
G01*
G04 APERTURE LIST*
%ADD10C,0.150000*%
%ADD11C,0.125000*%
%ADD12C,0.120000*%
%ADD13C,0.599999*%
%ADD14C,0.249999*%
G04 APERTURE END LIST*
D10*
X182118095Y-71636000D02*
X182022857Y-71588380D01*
X181880000Y-71588380D01*
X181737142Y-71636000D01*
X181641904Y-71731238D01*
X181594285Y-71826476D01*
X181546666Y-72016952D01*
X181546666Y-72159809D01*
X181594285Y-72350285D01*
X181641904Y-72445523D01*
X181737142Y-72540761D01*
X181880000Y-72588380D01*
X181975238Y-72588380D01*
X182118095Y-72540761D01*
X182165714Y-72493142D01*
X182165714Y-72159809D01*
X181975238Y-72159809D01*
X182594285Y-72588380D02*
X182594285Y-71588380D01*
X183165714Y-72588380D01*
X183165714Y-71588380D01*
X183641904Y-72588380D02*
X183641904Y-71588380D01*
X183880000Y-71588380D01*
X184022857Y-71636000D01*
X184118095Y-71731238D01*
X184165714Y-71826476D01*
X184213333Y-72016952D01*
X184213333Y-72159809D01*
X184165714Y-72350285D01*
X184118095Y-72445523D01*
X184022857Y-72540761D01*
X183880000Y-72588380D01*
X183641904Y-72588380D01*
X178585904Y-72064571D02*
X178728761Y-72112190D01*
X178776380Y-72159809D01*
X178824000Y-72255047D01*
X178824000Y-72397904D01*
X178776380Y-72493142D01*
X178728761Y-72540761D01*
X178633523Y-72588380D01*
X178252571Y-72588380D01*
X178252571Y-71588380D01*
X178585904Y-71588380D01*
X178681142Y-71636000D01*
X178728761Y-71683619D01*
X178776380Y-71778857D01*
X178776380Y-71874095D01*
X178728761Y-71969333D01*
X178681142Y-72016952D01*
X178585904Y-72064571D01*
X178252571Y-72064571D01*
X179204952Y-72302666D02*
X179681142Y-72302666D01*
X179109714Y-72588380D02*
X179443047Y-71588380D01*
X179776380Y-72588380D01*
X179966857Y-71588380D02*
X180538285Y-71588380D01*
X180252571Y-72588380D02*
X180252571Y-71588380D01*
X152685904Y-72096380D02*
X153304952Y-72096380D01*
X152971619Y-72477333D01*
X153114476Y-72477333D01*
X153209714Y-72524952D01*
X153257333Y-72572571D01*
X153304952Y-72667809D01*
X153304952Y-72905904D01*
X153257333Y-73001142D01*
X153209714Y-73048761D01*
X153114476Y-73096380D01*
X152828761Y-73096380D01*
X152733523Y-73048761D01*
X152685904Y-73001142D01*
X153590666Y-72096380D02*
X153924000Y-73096380D01*
X154257333Y-72096380D01*
X154495428Y-72096380D02*
X155114476Y-72096380D01*
X154781142Y-72477333D01*
X154924000Y-72477333D01*
X155019238Y-72524952D01*
X155066857Y-72572571D01*
X155114476Y-72667809D01*
X155114476Y-72905904D01*
X155066857Y-73001142D01*
X155019238Y-73048761D01*
X154924000Y-73096380D01*
X154638285Y-73096380D01*
X154543047Y-73048761D01*
X154495428Y-73001142D01*
X149669523Y-72096380D02*
X149193333Y-72096380D01*
X149145714Y-72572571D01*
X149193333Y-72524952D01*
X149288571Y-72477333D01*
X149526666Y-72477333D01*
X149621904Y-72524952D01*
X149669523Y-72572571D01*
X149717142Y-72667809D01*
X149717142Y-72905904D01*
X149669523Y-73001142D01*
X149621904Y-73048761D01*
X149526666Y-73096380D01*
X149288571Y-73096380D01*
X149193333Y-73048761D01*
X149145714Y-73001142D01*
X150002857Y-72096380D02*
X150336190Y-73096380D01*
X150669523Y-72096380D01*
X145176952Y-73096380D02*
X144605523Y-73096380D01*
X144891238Y-73096380D02*
X144891238Y-72096380D01*
X144796000Y-72239238D01*
X144700761Y-72334476D01*
X144605523Y-72382095D01*
X145557904Y-72191619D02*
X145605523Y-72144000D01*
X145700761Y-72096380D01*
X145938857Y-72096380D01*
X146034095Y-72144000D01*
X146081714Y-72191619D01*
X146129333Y-72286857D01*
X146129333Y-72382095D01*
X146081714Y-72524952D01*
X145510285Y-73096380D01*
X146129333Y-73096380D01*
X146415047Y-72096380D02*
X146748380Y-73096380D01*
X147081714Y-72096380D01*
X181999047Y-138882380D02*
X181999047Y-137882380D01*
X182237142Y-137882380D01*
X182380000Y-137930000D01*
X182475238Y-138025238D01*
X182522857Y-138120476D01*
X182570476Y-138310952D01*
X182570476Y-138453809D01*
X182522857Y-138644285D01*
X182475238Y-138739523D01*
X182380000Y-138834761D01*
X182237142Y-138882380D01*
X181999047Y-138882380D01*
X182999047Y-138501428D02*
X183760952Y-138501428D01*
X181999047Y-141422380D02*
X181999047Y-140422380D01*
X182237142Y-140422380D01*
X182380000Y-140470000D01*
X182475238Y-140565238D01*
X182522857Y-140660476D01*
X182570476Y-140850952D01*
X182570476Y-140993809D01*
X182522857Y-141184285D01*
X182475238Y-141279523D01*
X182380000Y-141374761D01*
X182237142Y-141422380D01*
X181999047Y-141422380D01*
X182999047Y-141041428D02*
X183760952Y-141041428D01*
X183380000Y-141422380D02*
X183380000Y-140660476D01*
D11*
X143570000Y-98155357D02*
X143655714Y-98183928D01*
X143798571Y-98183928D01*
X143855714Y-98155357D01*
X143884285Y-98126785D01*
X143912857Y-98069642D01*
X143912857Y-98012500D01*
X143884285Y-97955357D01*
X143855714Y-97926785D01*
X143798571Y-97898214D01*
X143684285Y-97869642D01*
X143627142Y-97841071D01*
X143598571Y-97812500D01*
X143570000Y-97755357D01*
X143570000Y-97698214D01*
X143598571Y-97641071D01*
X143627142Y-97612500D01*
X143684285Y-97583928D01*
X143827142Y-97583928D01*
X143912857Y-97612500D01*
X144398571Y-98155357D02*
X144341428Y-98183928D01*
X144227142Y-98183928D01*
X144170000Y-98155357D01*
X144141428Y-98098214D01*
X144141428Y-97869642D01*
X144170000Y-97812500D01*
X144227142Y-97783928D01*
X144341428Y-97783928D01*
X144398571Y-97812500D01*
X144427142Y-97869642D01*
X144427142Y-97926785D01*
X144141428Y-97983928D01*
X144598571Y-97783928D02*
X144827142Y-97783928D01*
X144684285Y-97583928D02*
X144684285Y-98098214D01*
X144712857Y-98155357D01*
X144770000Y-98183928D01*
X144827142Y-98183928D01*
X145655714Y-97583928D02*
X145655714Y-98012500D01*
X145627142Y-98098214D01*
X145570000Y-98155357D01*
X145484285Y-98183928D01*
X145427142Y-98183928D01*
X145941428Y-98183928D02*
X145941428Y-97583928D01*
X146170000Y-97583928D01*
X146227142Y-97612500D01*
X146255714Y-97641071D01*
X146284285Y-97698214D01*
X146284285Y-97783928D01*
X146255714Y-97841071D01*
X146227142Y-97869642D01*
X146170000Y-97898214D01*
X145941428Y-97898214D01*
X146855714Y-98183928D02*
X146512857Y-98183928D01*
X146684285Y-98183928D02*
X146684285Y-97583928D01*
X146627142Y-97669642D01*
X146570000Y-97726785D01*
X146512857Y-97755357D01*
X147541428Y-98155357D02*
X147598571Y-98183928D01*
X147712857Y-98183928D01*
X147770000Y-98155357D01*
X147798571Y-98098214D01*
X147798571Y-98069642D01*
X147770000Y-98012500D01*
X147712857Y-97983928D01*
X147627142Y-97983928D01*
X147570000Y-97955357D01*
X147541428Y-97898214D01*
X147541428Y-97869642D01*
X147570000Y-97812500D01*
X147627142Y-97783928D01*
X147712857Y-97783928D01*
X147770000Y-97812500D01*
X148312857Y-98183928D02*
X148312857Y-97869642D01*
X148284285Y-97812500D01*
X148227142Y-97783928D01*
X148112857Y-97783928D01*
X148055714Y-97812500D01*
X148312857Y-98155357D02*
X148255714Y-98183928D01*
X148112857Y-98183928D01*
X148055714Y-98155357D01*
X148027142Y-98098214D01*
X148027142Y-98041071D01*
X148055714Y-97983928D01*
X148112857Y-97955357D01*
X148255714Y-97955357D01*
X148312857Y-97926785D01*
X148598571Y-98183928D02*
X148598571Y-97783928D01*
X148598571Y-97841071D02*
X148627142Y-97812500D01*
X148684285Y-97783928D01*
X148770000Y-97783928D01*
X148827142Y-97812500D01*
X148855714Y-97869642D01*
X148855714Y-98183928D01*
X148855714Y-97869642D02*
X148884285Y-97812500D01*
X148941428Y-97783928D01*
X149027142Y-97783928D01*
X149084285Y-97812500D01*
X149112857Y-97869642D01*
X149112857Y-98183928D01*
X149627142Y-98155357D02*
X149570000Y-98183928D01*
X149455714Y-98183928D01*
X149398571Y-98155357D01*
X149370000Y-98098214D01*
X149370000Y-97869642D01*
X149398571Y-97812500D01*
X149455714Y-97783928D01*
X149570000Y-97783928D01*
X149627142Y-97812500D01*
X149655714Y-97869642D01*
X149655714Y-97926785D01*
X149370000Y-97983928D01*
X150627142Y-98183928D02*
X150627142Y-97869642D01*
X150598571Y-97812500D01*
X150541428Y-97783928D01*
X150427142Y-97783928D01*
X150370000Y-97812500D01*
X150627142Y-98155357D02*
X150570000Y-98183928D01*
X150427142Y-98183928D01*
X150370000Y-98155357D01*
X150341428Y-98098214D01*
X150341428Y-98041071D01*
X150370000Y-97983928D01*
X150427142Y-97955357D01*
X150570000Y-97955357D01*
X150627142Y-97926785D01*
X150884285Y-98155357D02*
X150941428Y-98183928D01*
X151055714Y-98183928D01*
X151112857Y-98155357D01*
X151141428Y-98098214D01*
X151141428Y-98069642D01*
X151112857Y-98012500D01*
X151055714Y-97983928D01*
X150970000Y-97983928D01*
X150912857Y-97955357D01*
X150884285Y-97898214D01*
X150884285Y-97869642D01*
X150912857Y-97812500D01*
X150970000Y-97783928D01*
X151055714Y-97783928D01*
X151112857Y-97812500D01*
X152027142Y-97583928D02*
X152027142Y-98012500D01*
X151998571Y-98098214D01*
X151941428Y-98155357D01*
X151855714Y-98183928D01*
X151798571Y-98183928D01*
X152312857Y-98183928D02*
X152312857Y-97583928D01*
X152541428Y-97583928D01*
X152598571Y-97612500D01*
X152627142Y-97641071D01*
X152655714Y-97698214D01*
X152655714Y-97783928D01*
X152627142Y-97841071D01*
X152598571Y-97869642D01*
X152541428Y-97898214D01*
X152312857Y-97898214D01*
X152884285Y-97641071D02*
X152912857Y-97612500D01*
X152970000Y-97583928D01*
X153112857Y-97583928D01*
X153170000Y-97612500D01*
X153198571Y-97641071D01*
X153227142Y-97698214D01*
X153227142Y-97755357D01*
X153198571Y-97841071D01*
X152855714Y-98183928D01*
X153227142Y-98183928D01*
X154198571Y-98183928D02*
X154198571Y-97869642D01*
X154170000Y-97812500D01*
X154112857Y-97783928D01*
X153998571Y-97783928D01*
X153941428Y-97812500D01*
X154198571Y-98155357D02*
X154141428Y-98183928D01*
X153998571Y-98183928D01*
X153941428Y-98155357D01*
X153912857Y-98098214D01*
X153912857Y-98041071D01*
X153941428Y-97983928D01*
X153998571Y-97955357D01*
X154141428Y-97955357D01*
X154198571Y-97926785D01*
X154484285Y-97783928D02*
X154484285Y-98183928D01*
X154484285Y-97841071D02*
X154512857Y-97812500D01*
X154570000Y-97783928D01*
X154655714Y-97783928D01*
X154712857Y-97812500D01*
X154741428Y-97869642D01*
X154741428Y-98183928D01*
X155284285Y-98183928D02*
X155284285Y-97583928D01*
X155284285Y-98155357D02*
X155227142Y-98183928D01*
X155112857Y-98183928D01*
X155055714Y-98155357D01*
X155027142Y-98126785D01*
X154998571Y-98069642D01*
X154998571Y-97898214D01*
X155027142Y-97841071D01*
X155055714Y-97812500D01*
X155112857Y-97783928D01*
X155227142Y-97783928D01*
X155284285Y-97812500D01*
X156198571Y-97583928D02*
X156198571Y-98012500D01*
X156170000Y-98098214D01*
X156112857Y-98155357D01*
X156027142Y-98183928D01*
X155970000Y-98183928D01*
X156484285Y-98183928D02*
X156484285Y-97583928D01*
X156712857Y-97583928D01*
X156770000Y-97612500D01*
X156798571Y-97641071D01*
X156827142Y-97698214D01*
X156827142Y-97783928D01*
X156798571Y-97841071D01*
X156770000Y-97869642D01*
X156712857Y-97898214D01*
X156484285Y-97898214D01*
X157027142Y-97583928D02*
X157398571Y-97583928D01*
X157198571Y-97812500D01*
X157284285Y-97812500D01*
X157341428Y-97841071D01*
X157370000Y-97869642D01*
X157398571Y-97926785D01*
X157398571Y-98069642D01*
X157370000Y-98126785D01*
X157341428Y-98155357D01*
X157284285Y-98183928D01*
X157112857Y-98183928D01*
X157055714Y-98155357D01*
X157027142Y-98126785D01*
X158084285Y-98155357D02*
X158141428Y-98183928D01*
X158255714Y-98183928D01*
X158312857Y-98155357D01*
X158341428Y-98098214D01*
X158341428Y-98069642D01*
X158312857Y-98012500D01*
X158255714Y-97983928D01*
X158170000Y-97983928D01*
X158112857Y-97955357D01*
X158084285Y-97898214D01*
X158084285Y-97869642D01*
X158112857Y-97812500D01*
X158170000Y-97783928D01*
X158255714Y-97783928D01*
X158312857Y-97812500D01*
X158855714Y-98183928D02*
X158855714Y-97869642D01*
X158827142Y-97812500D01*
X158770000Y-97783928D01*
X158655714Y-97783928D01*
X158598571Y-97812500D01*
X158855714Y-98155357D02*
X158798571Y-98183928D01*
X158655714Y-98183928D01*
X158598571Y-98155357D01*
X158570000Y-98098214D01*
X158570000Y-98041071D01*
X158598571Y-97983928D01*
X158655714Y-97955357D01*
X158798571Y-97955357D01*
X158855714Y-97926785D01*
X159141428Y-98183928D02*
X159141428Y-97783928D01*
X159141428Y-97841071D02*
X159170000Y-97812500D01*
X159227142Y-97783928D01*
X159312857Y-97783928D01*
X159370000Y-97812500D01*
X159398571Y-97869642D01*
X159398571Y-98183928D01*
X159398571Y-97869642D02*
X159427142Y-97812500D01*
X159484285Y-97783928D01*
X159570000Y-97783928D01*
X159627142Y-97812500D01*
X159655714Y-97869642D01*
X159655714Y-98183928D01*
X160170000Y-98155357D02*
X160112857Y-98183928D01*
X159998571Y-98183928D01*
X159941428Y-98155357D01*
X159912857Y-98098214D01*
X159912857Y-97869642D01*
X159941428Y-97812500D01*
X159998571Y-97783928D01*
X160112857Y-97783928D01*
X160170000Y-97812500D01*
X160198571Y-97869642D01*
X160198571Y-97926785D01*
X159912857Y-97983928D01*
X161170000Y-98183928D02*
X161170000Y-97869642D01*
X161141428Y-97812500D01*
X161084285Y-97783928D01*
X160970000Y-97783928D01*
X160912857Y-97812500D01*
X161170000Y-98155357D02*
X161112857Y-98183928D01*
X160970000Y-98183928D01*
X160912857Y-98155357D01*
X160884285Y-98098214D01*
X160884285Y-98041071D01*
X160912857Y-97983928D01*
X160970000Y-97955357D01*
X161112857Y-97955357D01*
X161170000Y-97926785D01*
X161427142Y-98155357D02*
X161484285Y-98183928D01*
X161598571Y-98183928D01*
X161655714Y-98155357D01*
X161684285Y-98098214D01*
X161684285Y-98069642D01*
X161655714Y-98012500D01*
X161598571Y-97983928D01*
X161512857Y-97983928D01*
X161455714Y-97955357D01*
X161427142Y-97898214D01*
X161427142Y-97869642D01*
X161455714Y-97812500D01*
X161512857Y-97783928D01*
X161598571Y-97783928D01*
X161655714Y-97812500D01*
X162570000Y-97583928D02*
X162570000Y-98012500D01*
X162541428Y-98098214D01*
X162484285Y-98155357D01*
X162398571Y-98183928D01*
X162341428Y-98183928D01*
X162855714Y-98183928D02*
X162855714Y-97583928D01*
X163084285Y-97583928D01*
X163141428Y-97612500D01*
X163170000Y-97641071D01*
X163198571Y-97698214D01*
X163198571Y-97783928D01*
X163170000Y-97841071D01*
X163141428Y-97869642D01*
X163084285Y-97898214D01*
X162855714Y-97898214D01*
X163712857Y-97783928D02*
X163712857Y-98183928D01*
X163570000Y-97555357D02*
X163427142Y-97983928D01*
X163798571Y-97983928D01*
X143355714Y-98608928D02*
X143355714Y-99037500D01*
X143327142Y-99123214D01*
X143270000Y-99180357D01*
X143184285Y-99208928D01*
X143127142Y-99208928D01*
X143641428Y-99208928D02*
X143641428Y-98608928D01*
X143870000Y-98608928D01*
X143927142Y-98637500D01*
X143955714Y-98666071D01*
X143984285Y-98723214D01*
X143984285Y-98808928D01*
X143955714Y-98866071D01*
X143927142Y-98894642D01*
X143870000Y-98923214D01*
X143641428Y-98923214D01*
X144184285Y-98608928D02*
X144555714Y-98608928D01*
X144355714Y-98837500D01*
X144441428Y-98837500D01*
X144498571Y-98866071D01*
X144527142Y-98894642D01*
X144555714Y-98951785D01*
X144555714Y-99094642D01*
X144527142Y-99151785D01*
X144498571Y-99180357D01*
X144441428Y-99208928D01*
X144270000Y-99208928D01*
X144212857Y-99180357D01*
X144184285Y-99151785D01*
X145527142Y-99208928D02*
X145527142Y-98894642D01*
X145498571Y-98837500D01*
X145441428Y-98808928D01*
X145327142Y-98808928D01*
X145270000Y-98837500D01*
X145527142Y-99180357D02*
X145470000Y-99208928D01*
X145327142Y-99208928D01*
X145270000Y-99180357D01*
X145241428Y-99123214D01*
X145241428Y-99066071D01*
X145270000Y-99008928D01*
X145327142Y-98980357D01*
X145470000Y-98980357D01*
X145527142Y-98951785D01*
X145812857Y-98808928D02*
X145812857Y-99208928D01*
X145812857Y-98866071D02*
X145841428Y-98837500D01*
X145898571Y-98808928D01*
X145984285Y-98808928D01*
X146041428Y-98837500D01*
X146070000Y-98894642D01*
X146070000Y-99208928D01*
X146612857Y-99208928D02*
X146612857Y-98608928D01*
X146612857Y-99180357D02*
X146555714Y-99208928D01*
X146441428Y-99208928D01*
X146384285Y-99180357D01*
X146355714Y-99151785D01*
X146327142Y-99094642D01*
X146327142Y-98923214D01*
X146355714Y-98866071D01*
X146384285Y-98837500D01*
X146441428Y-98808928D01*
X146555714Y-98808928D01*
X146612857Y-98837500D01*
X147527142Y-98608928D02*
X147527142Y-99037500D01*
X147498571Y-99123214D01*
X147441428Y-99180357D01*
X147355714Y-99208928D01*
X147298571Y-99208928D01*
X147812857Y-99208928D02*
X147812857Y-98608928D01*
X148041428Y-98608928D01*
X148098571Y-98637500D01*
X148127142Y-98666071D01*
X148155714Y-98723214D01*
X148155714Y-98808928D01*
X148127142Y-98866071D01*
X148098571Y-98894642D01*
X148041428Y-98923214D01*
X147812857Y-98923214D01*
X148670000Y-98808928D02*
X148670000Y-99208928D01*
X148527142Y-98580357D02*
X148384285Y-99008928D01*
X148755714Y-99008928D01*
X149412857Y-99180357D02*
X149470000Y-99208928D01*
X149584285Y-99208928D01*
X149641428Y-99180357D01*
X149670000Y-99123214D01*
X149670000Y-99094642D01*
X149641428Y-99037500D01*
X149584285Y-99008928D01*
X149498571Y-99008928D01*
X149441428Y-98980357D01*
X149412857Y-98923214D01*
X149412857Y-98894642D01*
X149441428Y-98837500D01*
X149498571Y-98808928D01*
X149584285Y-98808928D01*
X149641428Y-98837500D01*
X149927142Y-99208928D02*
X149927142Y-98608928D01*
X150184285Y-99208928D02*
X150184285Y-98894642D01*
X150155714Y-98837500D01*
X150098571Y-98808928D01*
X150012857Y-98808928D01*
X149955714Y-98837500D01*
X149927142Y-98866071D01*
X150555714Y-99208928D02*
X150498571Y-99180357D01*
X150470000Y-99151785D01*
X150441428Y-99094642D01*
X150441428Y-98923214D01*
X150470000Y-98866071D01*
X150498571Y-98837500D01*
X150555714Y-98808928D01*
X150641428Y-98808928D01*
X150698571Y-98837500D01*
X150727142Y-98866071D01*
X150755714Y-98923214D01*
X150755714Y-99094642D01*
X150727142Y-99151785D01*
X150698571Y-99180357D01*
X150641428Y-99208928D01*
X150555714Y-99208928D01*
X151270000Y-98808928D02*
X151270000Y-99208928D01*
X151012857Y-98808928D02*
X151012857Y-99123214D01*
X151041428Y-99180357D01*
X151098571Y-99208928D01*
X151184285Y-99208928D01*
X151241428Y-99180357D01*
X151270000Y-99151785D01*
X151641428Y-99208928D02*
X151584285Y-99180357D01*
X151555714Y-99123214D01*
X151555714Y-98608928D01*
X152127142Y-99208928D02*
X152127142Y-98608928D01*
X152127142Y-99180357D02*
X152070000Y-99208928D01*
X151955714Y-99208928D01*
X151898571Y-99180357D01*
X151870000Y-99151785D01*
X151841428Y-99094642D01*
X151841428Y-98923214D01*
X151870000Y-98866071D01*
X151898571Y-98837500D01*
X151955714Y-98808928D01*
X152070000Y-98808928D01*
X152127142Y-98837500D01*
X152870000Y-99208928D02*
X152870000Y-98608928D01*
X152870000Y-98837500D02*
X152927142Y-98808928D01*
X153041428Y-98808928D01*
X153098571Y-98837500D01*
X153127142Y-98866071D01*
X153155714Y-98923214D01*
X153155714Y-99094642D01*
X153127142Y-99151785D01*
X153098571Y-99180357D01*
X153041428Y-99208928D01*
X152927142Y-99208928D01*
X152870000Y-99180357D01*
X153641428Y-99180357D02*
X153584285Y-99208928D01*
X153470000Y-99208928D01*
X153412857Y-99180357D01*
X153384285Y-99123214D01*
X153384285Y-98894642D01*
X153412857Y-98837500D01*
X153470000Y-98808928D01*
X153584285Y-98808928D01*
X153641428Y-98837500D01*
X153670000Y-98894642D01*
X153670000Y-98951785D01*
X153384285Y-99008928D01*
X154470000Y-99208928D02*
X154412857Y-99180357D01*
X154384285Y-99151785D01*
X154355714Y-99094642D01*
X154355714Y-98923214D01*
X154384285Y-98866071D01*
X154412857Y-98837500D01*
X154470000Y-98808928D01*
X154555714Y-98808928D01*
X154612857Y-98837500D01*
X154641428Y-98866071D01*
X154670000Y-98923214D01*
X154670000Y-99094642D01*
X154641428Y-99151785D01*
X154612857Y-99180357D01*
X154555714Y-99208928D01*
X154470000Y-99208928D01*
X154927142Y-98808928D02*
X154927142Y-99408928D01*
X154927142Y-98837500D02*
X154984285Y-98808928D01*
X155098571Y-98808928D01*
X155155714Y-98837500D01*
X155184285Y-98866071D01*
X155212857Y-98923214D01*
X155212857Y-99094642D01*
X155184285Y-99151785D01*
X155155714Y-99180357D01*
X155098571Y-99208928D01*
X154984285Y-99208928D01*
X154927142Y-99180357D01*
X155470000Y-98808928D02*
X155470000Y-99408928D01*
X155470000Y-98837500D02*
X155527142Y-98808928D01*
X155641428Y-98808928D01*
X155698571Y-98837500D01*
X155727142Y-98866071D01*
X155755714Y-98923214D01*
X155755714Y-99094642D01*
X155727142Y-99151785D01*
X155698571Y-99180357D01*
X155641428Y-99208928D01*
X155527142Y-99208928D01*
X155470000Y-99180357D01*
X156098571Y-99208928D02*
X156041428Y-99180357D01*
X156012857Y-99151785D01*
X155984285Y-99094642D01*
X155984285Y-98923214D01*
X156012857Y-98866071D01*
X156041428Y-98837500D01*
X156098571Y-98808928D01*
X156184285Y-98808928D01*
X156241428Y-98837500D01*
X156270000Y-98866071D01*
X156298571Y-98923214D01*
X156298571Y-99094642D01*
X156270000Y-99151785D01*
X156241428Y-99180357D01*
X156184285Y-99208928D01*
X156098571Y-99208928D01*
X156527142Y-99180357D02*
X156584285Y-99208928D01*
X156698571Y-99208928D01*
X156755714Y-99180357D01*
X156784285Y-99123214D01*
X156784285Y-99094642D01*
X156755714Y-99037500D01*
X156698571Y-99008928D01*
X156612857Y-99008928D01*
X156555714Y-98980357D01*
X156527142Y-98923214D01*
X156527142Y-98894642D01*
X156555714Y-98837500D01*
X156612857Y-98808928D01*
X156698571Y-98808928D01*
X156755714Y-98837500D01*
X157041428Y-99208928D02*
X157041428Y-98808928D01*
X157041428Y-98608928D02*
X157012857Y-98637500D01*
X157041428Y-98666071D01*
X157070000Y-98637500D01*
X157041428Y-98608928D01*
X157041428Y-98666071D01*
X157241428Y-98808928D02*
X157470000Y-98808928D01*
X157327142Y-98608928D02*
X157327142Y-99123214D01*
X157355714Y-99180357D01*
X157412857Y-99208928D01*
X157470000Y-99208928D01*
X157898571Y-99180357D02*
X157841428Y-99208928D01*
X157727142Y-99208928D01*
X157670000Y-99180357D01*
X157641428Y-99123214D01*
X157641428Y-98894642D01*
X157670000Y-98837500D01*
X157727142Y-98808928D01*
X157841428Y-98808928D01*
X157898571Y-98837500D01*
X157927142Y-98894642D01*
X157927142Y-98951785D01*
X157641428Y-99008928D01*
X158812857Y-98608928D02*
X158812857Y-99037500D01*
X158784285Y-99123214D01*
X158727142Y-99180357D01*
X158641428Y-99208928D01*
X158584285Y-99208928D01*
X159098571Y-99208928D02*
X159098571Y-98608928D01*
X159327142Y-98608928D01*
X159384285Y-98637500D01*
X159412857Y-98666071D01*
X159441428Y-98723214D01*
X159441428Y-98808928D01*
X159412857Y-98866071D01*
X159384285Y-98894642D01*
X159327142Y-98923214D01*
X159098571Y-98923214D01*
X160012857Y-99208928D02*
X159670000Y-99208928D01*
X159841428Y-99208928D02*
X159841428Y-98608928D01*
X159784285Y-98694642D01*
X159727142Y-98751785D01*
X159670000Y-98780357D01*
X160984285Y-99208928D02*
X160984285Y-98894642D01*
X160955714Y-98837500D01*
X160898571Y-98808928D01*
X160784285Y-98808928D01*
X160727142Y-98837500D01*
X160984285Y-99180357D02*
X160927142Y-99208928D01*
X160784285Y-99208928D01*
X160727142Y-99180357D01*
X160698571Y-99123214D01*
X160698571Y-99066071D01*
X160727142Y-99008928D01*
X160784285Y-98980357D01*
X160927142Y-98980357D01*
X160984285Y-98951785D01*
X161270000Y-98808928D02*
X161270000Y-99208928D01*
X161270000Y-98866071D02*
X161298571Y-98837500D01*
X161355714Y-98808928D01*
X161441428Y-98808928D01*
X161498571Y-98837500D01*
X161527142Y-98894642D01*
X161527142Y-99208928D01*
X162070000Y-99208928D02*
X162070000Y-98608928D01*
X162070000Y-99180357D02*
X162012857Y-99208928D01*
X161898571Y-99208928D01*
X161841428Y-99180357D01*
X161812857Y-99151785D01*
X161784285Y-99094642D01*
X161784285Y-98923214D01*
X161812857Y-98866071D01*
X161841428Y-98837500D01*
X161898571Y-98808928D01*
X162012857Y-98808928D01*
X162070000Y-98837500D01*
X162984285Y-98608928D02*
X162984285Y-99037500D01*
X162955714Y-99123214D01*
X162898571Y-99180357D01*
X162812857Y-99208928D01*
X162755714Y-99208928D01*
X163270000Y-99208928D02*
X163270000Y-98608928D01*
X163498571Y-98608928D01*
X163555714Y-98637500D01*
X163584285Y-98666071D01*
X163612857Y-98723214D01*
X163612857Y-98808928D01*
X163584285Y-98866071D01*
X163555714Y-98894642D01*
X163498571Y-98923214D01*
X163270000Y-98923214D01*
X163841428Y-98666071D02*
X163870000Y-98637500D01*
X163927142Y-98608928D01*
X164070000Y-98608928D01*
X164127142Y-98637500D01*
X164155714Y-98666071D01*
X164184285Y-98723214D01*
X164184285Y-98780357D01*
X164155714Y-98866071D01*
X163812857Y-99208928D01*
X164184285Y-99208928D01*
D10*
X172537380Y-108378571D02*
X172061190Y-108711904D01*
X172537380Y-108950000D02*
X171537380Y-108950000D01*
X171537380Y-108569047D01*
X171585000Y-108473809D01*
X171632619Y-108426190D01*
X171727857Y-108378571D01*
X171870714Y-108378571D01*
X171965952Y-108426190D01*
X172013571Y-108473809D01*
X172061190Y-108569047D01*
X172061190Y-108950000D01*
X172537380Y-107950000D02*
X171537380Y-107950000D01*
X171537380Y-107569047D01*
X171585000Y-107473809D01*
X171632619Y-107426190D01*
X171727857Y-107378571D01*
X171870714Y-107378571D01*
X171965952Y-107426190D01*
X172013571Y-107473809D01*
X172061190Y-107569047D01*
X172061190Y-107950000D01*
X172537380Y-106950000D02*
X171537380Y-106950000D01*
X110323333Y-64127857D02*
X110323333Y-64604047D01*
X110037619Y-64032619D02*
X111037619Y-64365952D01*
X110037619Y-64699285D01*
X110704285Y-65032619D02*
X110037619Y-65032619D01*
X110609047Y-65032619D02*
X110656666Y-65080238D01*
X110704285Y-65175476D01*
X110704285Y-65318333D01*
X110656666Y-65413571D01*
X110561428Y-65461190D01*
X110037619Y-65461190D01*
X110704285Y-65794523D02*
X110704285Y-66175476D01*
X111037619Y-65937380D02*
X110180476Y-65937380D01*
X110085238Y-65985000D01*
X110037619Y-66080238D01*
X110037619Y-66175476D01*
X110085238Y-66889761D02*
X110037619Y-66794523D01*
X110037619Y-66604047D01*
X110085238Y-66508809D01*
X110180476Y-66461190D01*
X110561428Y-66461190D01*
X110656666Y-66508809D01*
X110704285Y-66604047D01*
X110704285Y-66794523D01*
X110656666Y-66889761D01*
X110561428Y-66937380D01*
X110466190Y-66937380D01*
X110370952Y-66461190D01*
X110704285Y-67365952D02*
X110037619Y-67365952D01*
X110609047Y-67365952D02*
X110656666Y-67413571D01*
X110704285Y-67508809D01*
X110704285Y-67651666D01*
X110656666Y-67746904D01*
X110561428Y-67794523D01*
X110037619Y-67794523D01*
X110704285Y-68270714D02*
X110037619Y-68270714D01*
X110609047Y-68270714D02*
X110656666Y-68318333D01*
X110704285Y-68413571D01*
X110704285Y-68556428D01*
X110656666Y-68651666D01*
X110561428Y-68699285D01*
X110037619Y-68699285D01*
X110037619Y-69604047D02*
X110561428Y-69604047D01*
X110656666Y-69556428D01*
X110704285Y-69461190D01*
X110704285Y-69270714D01*
X110656666Y-69175476D01*
X110085238Y-69604047D02*
X110037619Y-69508809D01*
X110037619Y-69270714D01*
X110085238Y-69175476D01*
X110180476Y-69127857D01*
X110275714Y-69127857D01*
X110370952Y-69175476D01*
X110418571Y-69270714D01*
X110418571Y-69508809D01*
X110466190Y-69604047D01*
X110037619Y-70842142D02*
X111037619Y-70842142D01*
X111037619Y-71080238D01*
X110990000Y-71223095D01*
X110894761Y-71318333D01*
X110799523Y-71365952D01*
X110609047Y-71413571D01*
X110466190Y-71413571D01*
X110275714Y-71365952D01*
X110180476Y-71318333D01*
X110085238Y-71223095D01*
X110037619Y-71080238D01*
X110037619Y-70842142D01*
X110085238Y-72223095D02*
X110037619Y-72127857D01*
X110037619Y-71937380D01*
X110085238Y-71842142D01*
X110180476Y-71794523D01*
X110561428Y-71794523D01*
X110656666Y-71842142D01*
X110704285Y-71937380D01*
X110704285Y-72127857D01*
X110656666Y-72223095D01*
X110561428Y-72270714D01*
X110466190Y-72270714D01*
X110370952Y-71794523D01*
X110704285Y-72699285D02*
X109704285Y-72699285D01*
X110656666Y-72699285D02*
X110704285Y-72794523D01*
X110704285Y-72985000D01*
X110656666Y-73080238D01*
X110609047Y-73127857D01*
X110513809Y-73175476D01*
X110228095Y-73175476D01*
X110132857Y-73127857D01*
X110085238Y-73080238D01*
X110037619Y-72985000D01*
X110037619Y-72794523D01*
X110085238Y-72699285D01*
X110037619Y-73746904D02*
X110085238Y-73651666D01*
X110180476Y-73604047D01*
X111037619Y-73604047D01*
X110037619Y-74270714D02*
X110085238Y-74175476D01*
X110132857Y-74127857D01*
X110228095Y-74080238D01*
X110513809Y-74080238D01*
X110609047Y-74127857D01*
X110656666Y-74175476D01*
X110704285Y-74270714D01*
X110704285Y-74413571D01*
X110656666Y-74508809D01*
X110609047Y-74556428D01*
X110513809Y-74604047D01*
X110228095Y-74604047D01*
X110132857Y-74556428D01*
X110085238Y-74508809D01*
X110037619Y-74413571D01*
X110037619Y-74270714D01*
X110704285Y-74937380D02*
X110037619Y-75175476D01*
X110704285Y-75413571D02*
X110037619Y-75175476D01*
X109799523Y-75080238D01*
X109751904Y-75032619D01*
X109704285Y-74937380D01*
X110085238Y-76175476D02*
X110037619Y-76080238D01*
X110037619Y-75889761D01*
X110085238Y-75794523D01*
X110180476Y-75746904D01*
X110561428Y-75746904D01*
X110656666Y-75794523D01*
X110704285Y-75889761D01*
X110704285Y-76080238D01*
X110656666Y-76175476D01*
X110561428Y-76223095D01*
X110466190Y-76223095D01*
X110370952Y-75746904D01*
X110037619Y-76651666D02*
X110704285Y-76651666D01*
X110513809Y-76651666D02*
X110609047Y-76699285D01*
X110656666Y-76746904D01*
X110704285Y-76842142D01*
X110704285Y-76937380D01*
X117308333Y-90662857D02*
X117308333Y-91139047D01*
X117022619Y-90567619D02*
X118022619Y-90900952D01*
X117022619Y-91234285D01*
X117022619Y-91567619D02*
X118022619Y-91567619D01*
X118022619Y-91948571D01*
X117975000Y-92043809D01*
X117927380Y-92091428D01*
X117832142Y-92139047D01*
X117689285Y-92139047D01*
X117594047Y-92091428D01*
X117546428Y-92043809D01*
X117498809Y-91948571D01*
X117498809Y-91567619D01*
X117022619Y-93139047D02*
X117498809Y-92805714D01*
X117022619Y-92567619D02*
X118022619Y-92567619D01*
X118022619Y-92948571D01*
X117975000Y-93043809D01*
X117927380Y-93091428D01*
X117832142Y-93139047D01*
X117689285Y-93139047D01*
X117594047Y-93091428D01*
X117546428Y-93043809D01*
X117498809Y-92948571D01*
X117498809Y-92567619D01*
X117070238Y-93520000D02*
X117022619Y-93662857D01*
X117022619Y-93900952D01*
X117070238Y-93996190D01*
X117117857Y-94043809D01*
X117213095Y-94091428D01*
X117308333Y-94091428D01*
X117403571Y-94043809D01*
X117451190Y-93996190D01*
X117498809Y-93900952D01*
X117546428Y-93710476D01*
X117594047Y-93615238D01*
X117641666Y-93567619D01*
X117736904Y-93520000D01*
X117832142Y-93520000D01*
X117927380Y-93567619D01*
X117975000Y-93615238D01*
X118022619Y-93710476D01*
X118022619Y-93948571D01*
X117975000Y-94091428D01*
X117117857Y-95853333D02*
X117070238Y-95805714D01*
X117022619Y-95662857D01*
X117022619Y-95567619D01*
X117070238Y-95424761D01*
X117165476Y-95329523D01*
X117260714Y-95281904D01*
X117451190Y-95234285D01*
X117594047Y-95234285D01*
X117784523Y-95281904D01*
X117879761Y-95329523D01*
X117975000Y-95424761D01*
X118022619Y-95567619D01*
X118022619Y-95662857D01*
X117975000Y-95805714D01*
X117927380Y-95853333D01*
X117022619Y-96424761D02*
X117070238Y-96329523D01*
X117117857Y-96281904D01*
X117213095Y-96234285D01*
X117498809Y-96234285D01*
X117594047Y-96281904D01*
X117641666Y-96329523D01*
X117689285Y-96424761D01*
X117689285Y-96567619D01*
X117641666Y-96662857D01*
X117594047Y-96710476D01*
X117498809Y-96758095D01*
X117213095Y-96758095D01*
X117117857Y-96710476D01*
X117070238Y-96662857D01*
X117022619Y-96567619D01*
X117022619Y-96424761D01*
X117689285Y-97186666D02*
X117022619Y-97186666D01*
X117594047Y-97186666D02*
X117641666Y-97234285D01*
X117689285Y-97329523D01*
X117689285Y-97472380D01*
X117641666Y-97567619D01*
X117546428Y-97615238D01*
X117022619Y-97615238D01*
X117689285Y-98091428D02*
X117022619Y-98091428D01*
X117594047Y-98091428D02*
X117641666Y-98139047D01*
X117689285Y-98234285D01*
X117689285Y-98377142D01*
X117641666Y-98472380D01*
X117546428Y-98520000D01*
X117022619Y-98520000D01*
X117070238Y-99377142D02*
X117022619Y-99281904D01*
X117022619Y-99091428D01*
X117070238Y-98996190D01*
X117165476Y-98948571D01*
X117546428Y-98948571D01*
X117641666Y-98996190D01*
X117689285Y-99091428D01*
X117689285Y-99281904D01*
X117641666Y-99377142D01*
X117546428Y-99424761D01*
X117451190Y-99424761D01*
X117355952Y-98948571D01*
X117070238Y-100281904D02*
X117022619Y-100186666D01*
X117022619Y-99996190D01*
X117070238Y-99900952D01*
X117117857Y-99853333D01*
X117213095Y-99805714D01*
X117498809Y-99805714D01*
X117594047Y-99853333D01*
X117641666Y-99900952D01*
X117689285Y-99996190D01*
X117689285Y-100186666D01*
X117641666Y-100281904D01*
X117689285Y-100567619D02*
X117689285Y-100948571D01*
X118022619Y-100710476D02*
X117165476Y-100710476D01*
X117070238Y-100758095D01*
X117022619Y-100853333D01*
X117022619Y-100948571D01*
X117022619Y-101424761D02*
X117070238Y-101329523D01*
X117117857Y-101281904D01*
X117213095Y-101234285D01*
X117498809Y-101234285D01*
X117594047Y-101281904D01*
X117641666Y-101329523D01*
X117689285Y-101424761D01*
X117689285Y-101567619D01*
X117641666Y-101662857D01*
X117594047Y-101710476D01*
X117498809Y-101758095D01*
X117213095Y-101758095D01*
X117117857Y-101710476D01*
X117070238Y-101662857D01*
X117022619Y-101567619D01*
X117022619Y-101424761D01*
X117022619Y-102186666D02*
X117689285Y-102186666D01*
X117498809Y-102186666D02*
X117594047Y-102234285D01*
X117641666Y-102281904D01*
X117689285Y-102377142D01*
X117689285Y-102472380D01*
X117022619Y-119865000D02*
X118022619Y-119865000D01*
X117022619Y-120341190D02*
X117689285Y-120341190D01*
X117498809Y-120341190D02*
X117594047Y-120388809D01*
X117641666Y-120436428D01*
X117689285Y-120531666D01*
X117689285Y-120626904D01*
X117022619Y-120960238D02*
X117689285Y-120960238D01*
X118022619Y-120960238D02*
X117975000Y-120912619D01*
X117927380Y-120960238D01*
X117975000Y-121007857D01*
X118022619Y-120960238D01*
X117927380Y-120960238D01*
X117022619Y-121865000D02*
X118022619Y-121865000D01*
X117070238Y-121865000D02*
X117022619Y-121769761D01*
X117022619Y-121579285D01*
X117070238Y-121484047D01*
X117117857Y-121436428D01*
X117213095Y-121388809D01*
X117498809Y-121388809D01*
X117594047Y-121436428D01*
X117641666Y-121484047D01*
X117689285Y-121579285D01*
X117689285Y-121769761D01*
X117641666Y-121865000D01*
X117022619Y-122341190D02*
X117689285Y-122341190D01*
X118022619Y-122341190D02*
X117975000Y-122293571D01*
X117927380Y-122341190D01*
X117975000Y-122388809D01*
X118022619Y-122341190D01*
X117927380Y-122341190D01*
X117689285Y-123245952D02*
X117022619Y-123245952D01*
X117689285Y-122817380D02*
X117165476Y-122817380D01*
X117070238Y-122865000D01*
X117022619Y-122960238D01*
X117022619Y-123103095D01*
X117070238Y-123198333D01*
X117117857Y-123245952D01*
X117022619Y-123722142D02*
X117689285Y-123722142D01*
X117594047Y-123722142D02*
X117641666Y-123769761D01*
X117689285Y-123865000D01*
X117689285Y-124007857D01*
X117641666Y-124103095D01*
X117546428Y-124150714D01*
X117022619Y-124150714D01*
X117546428Y-124150714D02*
X117641666Y-124198333D01*
X117689285Y-124293571D01*
X117689285Y-124436428D01*
X117641666Y-124531666D01*
X117546428Y-124579285D01*
X117022619Y-124579285D01*
X117117857Y-126388809D02*
X117070238Y-126341190D01*
X117022619Y-126198333D01*
X117022619Y-126103095D01*
X117070238Y-125960238D01*
X117165476Y-125865000D01*
X117260714Y-125817380D01*
X117451190Y-125769761D01*
X117594047Y-125769761D01*
X117784523Y-125817380D01*
X117879761Y-125865000D01*
X117975000Y-125960238D01*
X118022619Y-126103095D01*
X118022619Y-126198333D01*
X117975000Y-126341190D01*
X117927380Y-126388809D01*
X117022619Y-126960238D02*
X117070238Y-126865000D01*
X117117857Y-126817380D01*
X117213095Y-126769761D01*
X117498809Y-126769761D01*
X117594047Y-126817380D01*
X117641666Y-126865000D01*
X117689285Y-126960238D01*
X117689285Y-127103095D01*
X117641666Y-127198333D01*
X117594047Y-127245952D01*
X117498809Y-127293571D01*
X117213095Y-127293571D01*
X117117857Y-127245952D01*
X117070238Y-127198333D01*
X117022619Y-127103095D01*
X117022619Y-126960238D01*
X117689285Y-127722142D02*
X117022619Y-127722142D01*
X117594047Y-127722142D02*
X117641666Y-127769761D01*
X117689285Y-127865000D01*
X117689285Y-128007857D01*
X117641666Y-128103095D01*
X117546428Y-128150714D01*
X117022619Y-128150714D01*
X117689285Y-128626904D02*
X117022619Y-128626904D01*
X117594047Y-128626904D02*
X117641666Y-128674523D01*
X117689285Y-128769761D01*
X117689285Y-128912619D01*
X117641666Y-129007857D01*
X117546428Y-129055476D01*
X117022619Y-129055476D01*
X117070238Y-129912619D02*
X117022619Y-129817380D01*
X117022619Y-129626904D01*
X117070238Y-129531666D01*
X117165476Y-129484047D01*
X117546428Y-129484047D01*
X117641666Y-129531666D01*
X117689285Y-129626904D01*
X117689285Y-129817380D01*
X117641666Y-129912619D01*
X117546428Y-129960238D01*
X117451190Y-129960238D01*
X117355952Y-129484047D01*
X117070238Y-130817380D02*
X117022619Y-130722142D01*
X117022619Y-130531666D01*
X117070238Y-130436428D01*
X117117857Y-130388809D01*
X117213095Y-130341190D01*
X117498809Y-130341190D01*
X117594047Y-130388809D01*
X117641666Y-130436428D01*
X117689285Y-130531666D01*
X117689285Y-130722142D01*
X117641666Y-130817380D01*
X117689285Y-131103095D02*
X117689285Y-131484047D01*
X118022619Y-131245952D02*
X117165476Y-131245952D01*
X117070238Y-131293571D01*
X117022619Y-131388809D01*
X117022619Y-131484047D01*
X117022619Y-131960238D02*
X117070238Y-131865000D01*
X117117857Y-131817380D01*
X117213095Y-131769761D01*
X117498809Y-131769761D01*
X117594047Y-131817380D01*
X117641666Y-131865000D01*
X117689285Y-131960238D01*
X117689285Y-132103095D01*
X117641666Y-132198333D01*
X117594047Y-132245952D01*
X117498809Y-132293571D01*
X117213095Y-132293571D01*
X117117857Y-132245952D01*
X117070238Y-132198333D01*
X117022619Y-132103095D01*
X117022619Y-131960238D01*
X117022619Y-132722142D02*
X117689285Y-132722142D01*
X117498809Y-132722142D02*
X117594047Y-132769761D01*
X117641666Y-132817380D01*
X117689285Y-132912619D01*
X117689285Y-133007857D01*
X144319761Y-95702380D02*
X144319761Y-94702380D01*
X144795952Y-95702380D02*
X144795952Y-94702380D01*
X145129285Y-95416666D01*
X145462619Y-94702380D01*
X145462619Y-95702380D01*
X145938809Y-94702380D02*
X145938809Y-95511904D01*
X145986428Y-95607142D01*
X146034047Y-95654761D01*
X146129285Y-95702380D01*
X146319761Y-95702380D01*
X146415000Y-95654761D01*
X146462619Y-95607142D01*
X146510238Y-95511904D01*
X146510238Y-94702380D01*
X141589761Y-143772380D02*
X141589761Y-142772380D01*
X141970714Y-142772380D01*
X142065952Y-142820000D01*
X142113571Y-142867619D01*
X142161190Y-142962857D01*
X142161190Y-143105714D01*
X142113571Y-143200952D01*
X142065952Y-143248571D01*
X141970714Y-143296190D01*
X141589761Y-143296190D01*
X142589761Y-143772380D02*
X142589761Y-143105714D01*
X142589761Y-143296190D02*
X142637380Y-143200952D01*
X142685000Y-143153333D01*
X142780238Y-143105714D01*
X142875476Y-143105714D01*
X143351666Y-143772380D02*
X143256428Y-143724761D01*
X143208809Y-143677142D01*
X143161190Y-143581904D01*
X143161190Y-143296190D01*
X143208809Y-143200952D01*
X143256428Y-143153333D01*
X143351666Y-143105714D01*
X143494523Y-143105714D01*
X143589761Y-143153333D01*
X143637380Y-143200952D01*
X143685000Y-143296190D01*
X143685000Y-143581904D01*
X143637380Y-143677142D01*
X143589761Y-143724761D01*
X143494523Y-143772380D01*
X143351666Y-143772380D01*
X144542142Y-143105714D02*
X144542142Y-143915238D01*
X144494523Y-144010476D01*
X144446904Y-144058095D01*
X144351666Y-144105714D01*
X144208809Y-144105714D01*
X144113571Y-144058095D01*
X144542142Y-143724761D02*
X144446904Y-143772380D01*
X144256428Y-143772380D01*
X144161190Y-143724761D01*
X144113571Y-143677142D01*
X144065952Y-143581904D01*
X144065952Y-143296190D01*
X144113571Y-143200952D01*
X144161190Y-143153333D01*
X144256428Y-143105714D01*
X144446904Y-143105714D01*
X144542142Y-143153333D01*
X145018333Y-143772380D02*
X145018333Y-143105714D01*
X145018333Y-143296190D02*
X145065952Y-143200952D01*
X145113571Y-143153333D01*
X145208809Y-143105714D01*
X145304047Y-143105714D01*
X146065952Y-143772380D02*
X146065952Y-143248571D01*
X146018333Y-143153333D01*
X145923095Y-143105714D01*
X145732619Y-143105714D01*
X145637380Y-143153333D01*
X146065952Y-143724761D02*
X145970714Y-143772380D01*
X145732619Y-143772380D01*
X145637380Y-143724761D01*
X145589761Y-143629523D01*
X145589761Y-143534285D01*
X145637380Y-143439047D01*
X145732619Y-143391428D01*
X145970714Y-143391428D01*
X146065952Y-143343809D01*
X146542142Y-143772380D02*
X146542142Y-143105714D01*
X146542142Y-143200952D02*
X146589761Y-143153333D01*
X146685000Y-143105714D01*
X146827857Y-143105714D01*
X146923095Y-143153333D01*
X146970714Y-143248571D01*
X146970714Y-143772380D01*
X146970714Y-143248571D02*
X147018333Y-143153333D01*
X147113571Y-143105714D01*
X147256428Y-143105714D01*
X147351666Y-143153333D01*
X147399285Y-143248571D01*
X147399285Y-143772380D01*
X147875476Y-143772380D02*
X147875476Y-143105714D01*
X147875476Y-143200952D02*
X147923095Y-143153333D01*
X148018333Y-143105714D01*
X148161190Y-143105714D01*
X148256428Y-143153333D01*
X148304047Y-143248571D01*
X148304047Y-143772380D01*
X148304047Y-143248571D02*
X148351666Y-143153333D01*
X148446904Y-143105714D01*
X148589761Y-143105714D01*
X148685000Y-143153333D01*
X148732619Y-143248571D01*
X148732619Y-143772380D01*
X149208809Y-143772380D02*
X149208809Y-143105714D01*
X149208809Y-142772380D02*
X149161190Y-142820000D01*
X149208809Y-142867619D01*
X149256428Y-142820000D01*
X149208809Y-142772380D01*
X149208809Y-142867619D01*
X149685000Y-143105714D02*
X149685000Y-143772380D01*
X149685000Y-143200952D02*
X149732619Y-143153333D01*
X149827857Y-143105714D01*
X149970714Y-143105714D01*
X150065952Y-143153333D01*
X150113571Y-143248571D01*
X150113571Y-143772380D01*
X151018333Y-143105714D02*
X151018333Y-143915238D01*
X150970714Y-144010476D01*
X150923095Y-144058095D01*
X150827857Y-144105714D01*
X150685000Y-144105714D01*
X150589761Y-144058095D01*
X151018333Y-143724761D02*
X150923095Y-143772380D01*
X150732619Y-143772380D01*
X150637380Y-143724761D01*
X150589761Y-143677142D01*
X150542142Y-143581904D01*
X150542142Y-143296190D01*
X150589761Y-143200952D01*
X150637380Y-143153333D01*
X150732619Y-143105714D01*
X150923095Y-143105714D01*
X151018333Y-143153333D01*
X142446904Y-144422380D02*
X142446904Y-145231904D01*
X142494523Y-145327142D01*
X142542142Y-145374761D01*
X142637380Y-145422380D01*
X142827857Y-145422380D01*
X142923095Y-145374761D01*
X142970714Y-145327142D01*
X143018333Y-145231904D01*
X143018333Y-144422380D01*
X143446904Y-145374761D02*
X143589761Y-145422380D01*
X143827857Y-145422380D01*
X143923095Y-145374761D01*
X143970714Y-145327142D01*
X144018333Y-145231904D01*
X144018333Y-145136666D01*
X143970714Y-145041428D01*
X143923095Y-144993809D01*
X143827857Y-144946190D01*
X143637380Y-144898571D01*
X143542142Y-144850952D01*
X143494523Y-144803333D01*
X143446904Y-144708095D01*
X143446904Y-144612857D01*
X143494523Y-144517619D01*
X143542142Y-144470000D01*
X143637380Y-144422380D01*
X143875476Y-144422380D01*
X144018333Y-144470000D01*
X144780238Y-144898571D02*
X144923095Y-144946190D01*
X144970714Y-144993809D01*
X145018333Y-145089047D01*
X145018333Y-145231904D01*
X144970714Y-145327142D01*
X144923095Y-145374761D01*
X144827857Y-145422380D01*
X144446904Y-145422380D01*
X144446904Y-144422380D01*
X144780238Y-144422380D01*
X144875476Y-144470000D01*
X144923095Y-144517619D01*
X144970714Y-144612857D01*
X144970714Y-144708095D01*
X144923095Y-144803333D01*
X144875476Y-144850952D01*
X144780238Y-144898571D01*
X144446904Y-144898571D01*
X146208809Y-145422380D02*
X146208809Y-144422380D01*
X146208809Y-144898571D02*
X146780238Y-144898571D01*
X146780238Y-145422380D02*
X146780238Y-144422380D01*
X147637380Y-145374761D02*
X147542142Y-145422380D01*
X147351666Y-145422380D01*
X147256428Y-145374761D01*
X147208809Y-145279523D01*
X147208809Y-144898571D01*
X147256428Y-144803333D01*
X147351666Y-144755714D01*
X147542142Y-144755714D01*
X147637380Y-144803333D01*
X147685000Y-144898571D01*
X147685000Y-144993809D01*
X147208809Y-145089047D01*
X148542142Y-145422380D02*
X148542142Y-144898571D01*
X148494523Y-144803333D01*
X148399285Y-144755714D01*
X148208809Y-144755714D01*
X148113571Y-144803333D01*
X148542142Y-145374761D02*
X148446904Y-145422380D01*
X148208809Y-145422380D01*
X148113571Y-145374761D01*
X148065952Y-145279523D01*
X148065952Y-145184285D01*
X148113571Y-145089047D01*
X148208809Y-145041428D01*
X148446904Y-145041428D01*
X148542142Y-144993809D01*
X149446904Y-145422380D02*
X149446904Y-144422380D01*
X149446904Y-145374761D02*
X149351666Y-145422380D01*
X149161190Y-145422380D01*
X149065952Y-145374761D01*
X149018333Y-145327142D01*
X148970714Y-145231904D01*
X148970714Y-144946190D01*
X149018333Y-144850952D01*
X149065952Y-144803333D01*
X149161190Y-144755714D01*
X149351666Y-144755714D01*
X149446904Y-144803333D01*
X150304047Y-145374761D02*
X150208809Y-145422380D01*
X150018333Y-145422380D01*
X149923095Y-145374761D01*
X149875476Y-145279523D01*
X149875476Y-144898571D01*
X149923095Y-144803333D01*
X150018333Y-144755714D01*
X150208809Y-144755714D01*
X150304047Y-144803333D01*
X150351666Y-144898571D01*
X150351666Y-144993809D01*
X149875476Y-145089047D01*
X150780238Y-145422380D02*
X150780238Y-144755714D01*
X150780238Y-144946190D02*
X150827857Y-144850952D01*
X150875476Y-144803333D01*
X150970714Y-144755714D01*
X151065952Y-144755714D01*
X109942380Y-108481190D02*
X109942380Y-107909761D01*
X110942380Y-108195476D02*
X109942380Y-108195476D01*
X110942380Y-107576428D02*
X109942380Y-107576428D01*
X110418571Y-107576428D02*
X110418571Y-107005000D01*
X110942380Y-107005000D02*
X109942380Y-107005000D01*
X110942380Y-106528809D02*
X109942380Y-106528809D01*
X110894761Y-106100238D02*
X110942380Y-105957380D01*
X110942380Y-105719285D01*
X110894761Y-105624047D01*
X110847142Y-105576428D01*
X110751904Y-105528809D01*
X110656666Y-105528809D01*
X110561428Y-105576428D01*
X110513809Y-105624047D01*
X110466190Y-105719285D01*
X110418571Y-105909761D01*
X110370952Y-106005000D01*
X110323333Y-106052619D01*
X110228095Y-106100238D01*
X110132857Y-106100238D01*
X110037619Y-106052619D01*
X109990000Y-106005000D01*
X109942380Y-105909761D01*
X109942380Y-105671666D01*
X109990000Y-105528809D01*
X110894761Y-104385952D02*
X110942380Y-104243095D01*
X110942380Y-104005000D01*
X110894761Y-103909761D01*
X110847142Y-103862142D01*
X110751904Y-103814523D01*
X110656666Y-103814523D01*
X110561428Y-103862142D01*
X110513809Y-103909761D01*
X110466190Y-104005000D01*
X110418571Y-104195476D01*
X110370952Y-104290714D01*
X110323333Y-104338333D01*
X110228095Y-104385952D01*
X110132857Y-104385952D01*
X110037619Y-104338333D01*
X109990000Y-104290714D01*
X109942380Y-104195476D01*
X109942380Y-103957380D01*
X109990000Y-103814523D01*
X110942380Y-103385952D02*
X109942380Y-103385952D01*
X110942380Y-102909761D02*
X109942380Y-102909761D01*
X109942380Y-102671666D01*
X109990000Y-102528809D01*
X110085238Y-102433571D01*
X110180476Y-102385952D01*
X110370952Y-102338333D01*
X110513809Y-102338333D01*
X110704285Y-102385952D01*
X110799523Y-102433571D01*
X110894761Y-102528809D01*
X110942380Y-102671666D01*
X110942380Y-102909761D01*
X110418571Y-101909761D02*
X110418571Y-101576428D01*
X110942380Y-101433571D02*
X110942380Y-101909761D01*
X109942380Y-101909761D01*
X109942380Y-101433571D01*
X109942380Y-100243095D02*
X110751904Y-100243095D01*
X110847142Y-100195476D01*
X110894761Y-100147857D01*
X110942380Y-100052619D01*
X110942380Y-99862142D01*
X110894761Y-99766904D01*
X110847142Y-99719285D01*
X110751904Y-99671666D01*
X109942380Y-99671666D01*
X110942380Y-99195476D02*
X109942380Y-99195476D01*
X109942380Y-98814523D01*
X109990000Y-98719285D01*
X110037619Y-98671666D01*
X110132857Y-98624047D01*
X110275714Y-98624047D01*
X110370952Y-98671666D01*
X110418571Y-98719285D01*
X110466190Y-98814523D01*
X110466190Y-99195476D01*
X187786571Y-131839642D02*
X187786571Y-130982500D01*
X189286571Y-131411071D02*
X187786571Y-131411071D01*
X187786571Y-130053928D02*
X188858000Y-130053928D01*
X189072285Y-130125357D01*
X189215142Y-130268214D01*
X189286571Y-130482500D01*
X189286571Y-130625357D01*
X189286571Y-127339642D02*
X188572285Y-127839642D01*
X189286571Y-128196785D02*
X187786571Y-128196785D01*
X187786571Y-127625357D01*
X187858000Y-127482500D01*
X187929428Y-127411071D01*
X188072285Y-127339642D01*
X188286571Y-127339642D01*
X188429428Y-127411071D01*
X188500857Y-127482500D01*
X188572285Y-127625357D01*
X188572285Y-128196785D01*
X188500857Y-126696785D02*
X188500857Y-126196785D01*
X189286571Y-125982500D02*
X189286571Y-126696785D01*
X187786571Y-126696785D01*
X187786571Y-125982500D01*
X187786571Y-125553928D02*
X189286571Y-125053928D01*
X187786571Y-124553928D01*
X188500857Y-124053928D02*
X188500857Y-123553928D01*
X189286571Y-123339642D02*
X189286571Y-124053928D01*
X187786571Y-124053928D01*
X187786571Y-123339642D01*
X189286571Y-121839642D02*
X188572285Y-122339642D01*
X189286571Y-122696785D02*
X187786571Y-122696785D01*
X187786571Y-122125357D01*
X187858000Y-121982500D01*
X187929428Y-121911071D01*
X188072285Y-121839642D01*
X188286571Y-121839642D01*
X188429428Y-121911071D01*
X188500857Y-121982500D01*
X188572285Y-122125357D01*
X188572285Y-122696785D01*
X188500857Y-120696785D02*
X188572285Y-120482500D01*
X188643714Y-120411071D01*
X188786571Y-120339642D01*
X189000857Y-120339642D01*
X189143714Y-120411071D01*
X189215142Y-120482500D01*
X189286571Y-120625357D01*
X189286571Y-121196785D01*
X187786571Y-121196785D01*
X187786571Y-120696785D01*
X187858000Y-120553928D01*
X187929428Y-120482500D01*
X188072285Y-120411071D01*
X188215142Y-120411071D01*
X188358000Y-120482500D01*
X188429428Y-120553928D01*
X188500857Y-120696785D01*
X188500857Y-121196785D01*
X189286571Y-118553928D02*
X187786571Y-118553928D01*
X189286571Y-117839642D02*
X187786571Y-117839642D01*
X189286571Y-116982500D01*
X187786571Y-116982500D01*
X187786571Y-116482500D02*
X187786571Y-115625357D01*
X189286571Y-116053928D02*
X187786571Y-116053928D01*
X188500857Y-115125357D02*
X188500857Y-114625357D01*
X189286571Y-114411071D02*
X189286571Y-115125357D01*
X187786571Y-115125357D01*
X187786571Y-114411071D01*
X189286571Y-112911071D02*
X188572285Y-113411071D01*
X189286571Y-113768214D02*
X187786571Y-113768214D01*
X187786571Y-113196785D01*
X187858000Y-113053928D01*
X187929428Y-112982500D01*
X188072285Y-112911071D01*
X188286571Y-112911071D01*
X188429428Y-112982500D01*
X188500857Y-113053928D01*
X188572285Y-113196785D01*
X188572285Y-113768214D01*
X188500857Y-111768214D02*
X188500857Y-112268214D01*
X189286571Y-112268214D02*
X187786571Y-112268214D01*
X187786571Y-111553928D01*
X188858000Y-111053928D02*
X188858000Y-110339642D01*
X189286571Y-111196785D02*
X187786571Y-110696785D01*
X189286571Y-110196785D01*
X189143714Y-108839642D02*
X189215142Y-108911071D01*
X189286571Y-109125357D01*
X189286571Y-109268214D01*
X189215142Y-109482500D01*
X189072285Y-109625357D01*
X188929428Y-109696785D01*
X188643714Y-109768214D01*
X188429428Y-109768214D01*
X188143714Y-109696785D01*
X188000857Y-109625357D01*
X187858000Y-109482500D01*
X187786571Y-109268214D01*
X187786571Y-109125357D01*
X187858000Y-108911071D01*
X187929428Y-108839642D01*
X188500857Y-108196785D02*
X188500857Y-107696785D01*
X189286571Y-107482500D02*
X189286571Y-108196785D01*
X187786571Y-108196785D01*
X187786571Y-107482500D01*
X188500857Y-105196785D02*
X188572285Y-104982500D01*
X188643714Y-104911071D01*
X188786571Y-104839642D01*
X189000857Y-104839642D01*
X189143714Y-104911071D01*
X189215142Y-104982500D01*
X189286571Y-105125357D01*
X189286571Y-105696785D01*
X187786571Y-105696785D01*
X187786571Y-105196785D01*
X187858000Y-105053928D01*
X187929428Y-104982500D01*
X188072285Y-104911071D01*
X188215142Y-104911071D01*
X188358000Y-104982500D01*
X188429428Y-105053928D01*
X188500857Y-105196785D01*
X188500857Y-105696785D01*
X187786571Y-103911071D02*
X187786571Y-103625357D01*
X187858000Y-103482500D01*
X188000857Y-103339642D01*
X188286571Y-103268214D01*
X188786571Y-103268214D01*
X189072285Y-103339642D01*
X189215142Y-103482500D01*
X189286571Y-103625357D01*
X189286571Y-103911071D01*
X189215142Y-104053928D01*
X189072285Y-104196785D01*
X188786571Y-104268214D01*
X188286571Y-104268214D01*
X188000857Y-104196785D01*
X187858000Y-104053928D01*
X187786571Y-103911071D01*
X188858000Y-102696785D02*
X188858000Y-101982500D01*
X189286571Y-102839642D02*
X187786571Y-102339642D01*
X189286571Y-101839642D01*
X189286571Y-100482500D02*
X188572285Y-100982500D01*
X189286571Y-101339642D02*
X187786571Y-101339642D01*
X187786571Y-100768214D01*
X187858000Y-100625357D01*
X187929428Y-100553928D01*
X188072285Y-100482500D01*
X188286571Y-100482500D01*
X188429428Y-100553928D01*
X188500857Y-100625357D01*
X188572285Y-100768214D01*
X188572285Y-101339642D01*
X189286571Y-99839642D02*
X187786571Y-99839642D01*
X187786571Y-99482500D01*
X187858000Y-99268214D01*
X188000857Y-99125357D01*
X188143714Y-99053928D01*
X188429428Y-98982500D01*
X188643714Y-98982500D01*
X188929428Y-99053928D01*
X189072285Y-99125357D01*
X189215142Y-99268214D01*
X189286571Y-99482500D01*
X189286571Y-99839642D01*
X191686571Y-130768214D02*
X190972285Y-131268214D01*
X191686571Y-131625357D02*
X190186571Y-131625357D01*
X190186571Y-131053928D01*
X190258000Y-130911071D01*
X190329428Y-130839642D01*
X190472285Y-130768214D01*
X190686571Y-130768214D01*
X190829428Y-130839642D01*
X190900857Y-130911071D01*
X190972285Y-131053928D01*
X190972285Y-131625357D01*
X191615142Y-129553928D02*
X191686571Y-129696785D01*
X191686571Y-129982500D01*
X191615142Y-130125357D01*
X191472285Y-130196785D01*
X190900857Y-130196785D01*
X190758000Y-130125357D01*
X190686571Y-129982500D01*
X190686571Y-129696785D01*
X190758000Y-129553928D01*
X190900857Y-129482500D01*
X191043714Y-129482500D01*
X191186571Y-130196785D01*
X191686571Y-128196785D02*
X190186571Y-128196785D01*
X191615142Y-128196785D02*
X191686571Y-128339642D01*
X191686571Y-128625357D01*
X191615142Y-128768214D01*
X191543714Y-128839642D01*
X191400857Y-128911071D01*
X190972285Y-128911071D01*
X190829428Y-128839642D01*
X190758000Y-128768214D01*
X190686571Y-128625357D01*
X190686571Y-128339642D01*
X190758000Y-128196785D01*
X191615142Y-126911071D02*
X191686571Y-127053928D01*
X191686571Y-127339642D01*
X191615142Y-127482500D01*
X191472285Y-127553928D01*
X190900857Y-127553928D01*
X190758000Y-127482500D01*
X190686571Y-127339642D01*
X190686571Y-127053928D01*
X190758000Y-126911071D01*
X190900857Y-126839642D01*
X191043714Y-126839642D01*
X191186571Y-127553928D01*
X191615142Y-126268214D02*
X191686571Y-126125357D01*
X191686571Y-125839642D01*
X191615142Y-125696785D01*
X191472285Y-125625357D01*
X191400857Y-125625357D01*
X191258000Y-125696785D01*
X191186571Y-125839642D01*
X191186571Y-126053928D01*
X191115142Y-126196785D01*
X190972285Y-126268214D01*
X190900857Y-126268214D01*
X190758000Y-126196785D01*
X190686571Y-126053928D01*
X190686571Y-125839642D01*
X190758000Y-125696785D01*
X191686571Y-124982500D02*
X190686571Y-124982500D01*
X190186571Y-124982500D02*
X190258000Y-125053928D01*
X190329428Y-124982500D01*
X190258000Y-124911071D01*
X190186571Y-124982500D01*
X190329428Y-124982500D01*
X190686571Y-123625357D02*
X191900857Y-123625357D01*
X192043714Y-123696785D01*
X192115142Y-123768214D01*
X192186571Y-123911071D01*
X192186571Y-124125357D01*
X192115142Y-124268214D01*
X191615142Y-123625357D02*
X191686571Y-123768214D01*
X191686571Y-124053928D01*
X191615142Y-124196785D01*
X191543714Y-124268214D01*
X191400857Y-124339642D01*
X190972285Y-124339642D01*
X190829428Y-124268214D01*
X190758000Y-124196785D01*
X190686571Y-124053928D01*
X190686571Y-123768214D01*
X190758000Y-123625357D01*
X190686571Y-122911071D02*
X191686571Y-122911071D01*
X190829428Y-122911071D02*
X190758000Y-122839642D01*
X190686571Y-122696785D01*
X190686571Y-122482500D01*
X190758000Y-122339642D01*
X190900857Y-122268214D01*
X191686571Y-122268214D01*
X191686571Y-119553928D02*
X190972285Y-120053928D01*
X191686571Y-120411071D02*
X190186571Y-120411071D01*
X190186571Y-119839642D01*
X190258000Y-119696785D01*
X190329428Y-119625357D01*
X190472285Y-119553928D01*
X190686571Y-119553928D01*
X190829428Y-119625357D01*
X190900857Y-119696785D01*
X190972285Y-119839642D01*
X190972285Y-120411071D01*
X191615142Y-118339642D02*
X191686571Y-118482500D01*
X191686571Y-118768214D01*
X191615142Y-118911071D01*
X191472285Y-118982500D01*
X190900857Y-118982500D01*
X190758000Y-118911071D01*
X190686571Y-118768214D01*
X190686571Y-118482500D01*
X190758000Y-118339642D01*
X190900857Y-118268214D01*
X191043714Y-118268214D01*
X191186571Y-118982500D01*
X190686571Y-117768214D02*
X191686571Y-117411071D01*
X190686571Y-117053928D01*
X191686571Y-115696785D02*
X191686571Y-116553928D01*
X191686571Y-116125357D02*
X190186571Y-116125357D01*
X190400857Y-116268214D01*
X190543714Y-116411071D01*
X190615142Y-116553928D01*
X194086571Y-131625357D02*
X192586571Y-131625357D01*
X192586571Y-131268214D01*
X192658000Y-131053928D01*
X192800857Y-130911071D01*
X192943714Y-130839642D01*
X193229428Y-130768214D01*
X193443714Y-130768214D01*
X193729428Y-130839642D01*
X193872285Y-130911071D01*
X194015142Y-131053928D01*
X194086571Y-131268214D01*
X194086571Y-131625357D01*
X194015142Y-129553928D02*
X194086571Y-129696785D01*
X194086571Y-129982500D01*
X194015142Y-130125357D01*
X193872285Y-130196785D01*
X193300857Y-130196785D01*
X193158000Y-130125357D01*
X193086571Y-129982500D01*
X193086571Y-129696785D01*
X193158000Y-129553928D01*
X193300857Y-129482500D01*
X193443714Y-129482500D01*
X193586571Y-130196785D01*
X194015142Y-128911071D02*
X194086571Y-128768214D01*
X194086571Y-128482500D01*
X194015142Y-128339642D01*
X193872285Y-128268214D01*
X193800857Y-128268214D01*
X193658000Y-128339642D01*
X193586571Y-128482500D01*
X193586571Y-128696785D01*
X193515142Y-128839642D01*
X193372285Y-128911071D01*
X193300857Y-128911071D01*
X193158000Y-128839642D01*
X193086571Y-128696785D01*
X193086571Y-128482500D01*
X193158000Y-128339642D01*
X194086571Y-127625357D02*
X193086571Y-127625357D01*
X192586571Y-127625357D02*
X192658000Y-127696785D01*
X192729428Y-127625357D01*
X192658000Y-127553928D01*
X192586571Y-127625357D01*
X192729428Y-127625357D01*
X193086571Y-126268214D02*
X194300857Y-126268214D01*
X194443714Y-126339642D01*
X194515142Y-126411071D01*
X194586571Y-126553928D01*
X194586571Y-126768214D01*
X194515142Y-126911071D01*
X194015142Y-126268214D02*
X194086571Y-126411071D01*
X194086571Y-126696785D01*
X194015142Y-126839642D01*
X193943714Y-126911071D01*
X193800857Y-126982500D01*
X193372285Y-126982500D01*
X193229428Y-126911071D01*
X193158000Y-126839642D01*
X193086571Y-126696785D01*
X193086571Y-126411071D01*
X193158000Y-126268214D01*
X193086571Y-125553928D02*
X194086571Y-125553928D01*
X193229428Y-125553928D02*
X193158000Y-125482500D01*
X193086571Y-125339642D01*
X193086571Y-125125357D01*
X193158000Y-124982500D01*
X193300857Y-124911071D01*
X194086571Y-124911071D01*
X194015142Y-123625357D02*
X194086571Y-123768214D01*
X194086571Y-124053928D01*
X194015142Y-124196785D01*
X193872285Y-124268214D01*
X193300857Y-124268214D01*
X193158000Y-124196785D01*
X193086571Y-124053928D01*
X193086571Y-123768214D01*
X193158000Y-123625357D01*
X193300857Y-123553928D01*
X193443714Y-123553928D01*
X193586571Y-124268214D01*
X194086571Y-122268214D02*
X192586571Y-122268214D01*
X194015142Y-122268214D02*
X194086571Y-122411071D01*
X194086571Y-122696785D01*
X194015142Y-122839642D01*
X193943714Y-122911071D01*
X193800857Y-122982500D01*
X193372285Y-122982500D01*
X193229428Y-122911071D01*
X193158000Y-122839642D01*
X193086571Y-122696785D01*
X193086571Y-122411071D01*
X193158000Y-122268214D01*
X194086571Y-120411071D02*
X192586571Y-120411071D01*
X193158000Y-120411071D02*
X193086571Y-120268214D01*
X193086571Y-119982500D01*
X193158000Y-119839642D01*
X193229428Y-119768214D01*
X193372285Y-119696785D01*
X193800857Y-119696785D01*
X193943714Y-119768214D01*
X194015142Y-119839642D01*
X194086571Y-119982500D01*
X194086571Y-120268214D01*
X194015142Y-120411071D01*
X193086571Y-119196785D02*
X194086571Y-118839642D01*
X193086571Y-118482500D02*
X194086571Y-118839642D01*
X194443714Y-118982500D01*
X194515142Y-119053928D01*
X194586571Y-119196785D01*
X193658000Y-116839642D02*
X193658000Y-116125357D01*
X194086571Y-116982500D02*
X192586571Y-116482500D01*
X194086571Y-115982500D01*
X194086571Y-115268214D02*
X194015142Y-115411071D01*
X193872285Y-115482500D01*
X192586571Y-115482500D01*
X194086571Y-114053928D02*
X193300857Y-114053928D01*
X193158000Y-114125357D01*
X193086571Y-114268214D01*
X193086571Y-114553928D01*
X193158000Y-114696785D01*
X194015142Y-114053928D02*
X194086571Y-114196785D01*
X194086571Y-114553928D01*
X194015142Y-114696785D01*
X193872285Y-114768214D01*
X193729428Y-114768214D01*
X193586571Y-114696785D01*
X193515142Y-114553928D01*
X193515142Y-114196785D01*
X193443714Y-114053928D01*
X193086571Y-113339642D02*
X194086571Y-113339642D01*
X193229428Y-113339642D02*
X193158000Y-113268214D01*
X193086571Y-113125357D01*
X193086571Y-112911071D01*
X193158000Y-112768214D01*
X193300857Y-112696785D01*
X194086571Y-112696785D01*
X194086571Y-110839642D02*
X192586571Y-110839642D01*
X193300857Y-110839642D02*
X193300857Y-109982500D01*
X194086571Y-109982500D02*
X192586571Y-109982500D01*
X194015142Y-109339642D02*
X194086571Y-109196785D01*
X194086571Y-108911071D01*
X194015142Y-108768214D01*
X193872285Y-108696785D01*
X193800857Y-108696785D01*
X193658000Y-108768214D01*
X193586571Y-108911071D01*
X193586571Y-109125357D01*
X193515142Y-109268214D01*
X193372285Y-109339642D01*
X193300857Y-109339642D01*
X193158000Y-109268214D01*
X193086571Y-109125357D01*
X193086571Y-108911071D01*
X193158000Y-108768214D01*
X193086571Y-107411071D02*
X194086571Y-107411071D01*
X193086571Y-108053928D02*
X193872285Y-108053928D01*
X194015142Y-107982500D01*
X194086571Y-107839642D01*
X194086571Y-107625357D01*
X194015142Y-107482500D01*
X193943714Y-107411071D01*
X194015142Y-106625357D02*
X194086571Y-106625357D01*
X194229428Y-106696785D01*
X194300857Y-106768214D01*
X193943714Y-103982500D02*
X194015142Y-104053928D01*
X194086571Y-104268214D01*
X194086571Y-104411071D01*
X194015142Y-104625357D01*
X193872285Y-104768214D01*
X193729428Y-104839642D01*
X193443714Y-104911071D01*
X193229428Y-104911071D01*
X192943714Y-104839642D01*
X192800857Y-104768214D01*
X192658000Y-104625357D01*
X192586571Y-104411071D01*
X192586571Y-104268214D01*
X192658000Y-104053928D01*
X192729428Y-103982500D01*
X194086571Y-103125357D02*
X194015142Y-103268214D01*
X193872285Y-103339642D01*
X192586571Y-103339642D01*
X194086571Y-101911071D02*
X193300857Y-101911071D01*
X193158000Y-101982500D01*
X193086571Y-102125357D01*
X193086571Y-102411071D01*
X193158000Y-102553928D01*
X194015142Y-101911071D02*
X194086571Y-102053928D01*
X194086571Y-102411071D01*
X194015142Y-102553928D01*
X193872285Y-102625357D01*
X193729428Y-102625357D01*
X193586571Y-102553928D01*
X193515142Y-102411071D01*
X193515142Y-102053928D01*
X193443714Y-101911071D01*
X194015142Y-101268214D02*
X194086571Y-101125357D01*
X194086571Y-100839642D01*
X194015142Y-100696785D01*
X193872285Y-100625357D01*
X193800857Y-100625357D01*
X193658000Y-100696785D01*
X193586571Y-100839642D01*
X193586571Y-101053928D01*
X193515142Y-101196785D01*
X193372285Y-101268214D01*
X193300857Y-101268214D01*
X193158000Y-101196785D01*
X193086571Y-101053928D01*
X193086571Y-100839642D01*
X193158000Y-100696785D01*
X194015142Y-100053928D02*
X194086571Y-99911071D01*
X194086571Y-99625357D01*
X194015142Y-99482500D01*
X193872285Y-99411071D01*
X193800857Y-99411071D01*
X193658000Y-99482500D01*
X193586571Y-99625357D01*
X193586571Y-99839642D01*
X193515142Y-99982500D01*
X193372285Y-100053928D01*
X193300857Y-100053928D01*
X193158000Y-99982500D01*
X193086571Y-99839642D01*
X193086571Y-99625357D01*
X193158000Y-99482500D01*
X194086571Y-97411071D02*
X194015142Y-97553928D01*
X193943714Y-97625357D01*
X193800857Y-97696785D01*
X193372285Y-97696785D01*
X193229428Y-97625357D01*
X193158000Y-97553928D01*
X193086571Y-97411071D01*
X193086571Y-97196785D01*
X193158000Y-97053928D01*
X193229428Y-96982500D01*
X193372285Y-96911071D01*
X193800857Y-96911071D01*
X193943714Y-96982500D01*
X194015142Y-97053928D01*
X194086571Y-97196785D01*
X194086571Y-97411071D01*
X193086571Y-96482500D02*
X193086571Y-95911071D01*
X194086571Y-96268214D02*
X192800857Y-96268214D01*
X192658000Y-96196785D01*
X192586571Y-96053928D01*
X192586571Y-95911071D01*
X192586571Y-94196785D02*
X192872285Y-94339642D01*
X192729428Y-93625357D02*
X192658000Y-93553928D01*
X192586571Y-93411071D01*
X192586571Y-93053928D01*
X192658000Y-92911071D01*
X192729428Y-92839642D01*
X192872285Y-92768214D01*
X193015142Y-92768214D01*
X193229428Y-92839642D01*
X194086571Y-93696785D01*
X194086571Y-92768214D01*
X192586571Y-92268214D02*
X192586571Y-91339642D01*
X193158000Y-91839642D01*
X193158000Y-91625357D01*
X193229428Y-91482500D01*
X193300857Y-91411071D01*
X193443714Y-91339642D01*
X193800857Y-91339642D01*
X193943714Y-91411071D01*
X194015142Y-91482500D01*
X194086571Y-91625357D01*
X194086571Y-92053928D01*
X194015142Y-92196785D01*
X193943714Y-92268214D01*
X125198333Y-132008571D02*
X125341190Y-132056190D01*
X125388809Y-132103809D01*
X125436428Y-132199047D01*
X125436428Y-132341904D01*
X125388809Y-132437142D01*
X125341190Y-132484761D01*
X125245952Y-132532380D01*
X124865000Y-132532380D01*
X124865000Y-131532380D01*
X125198333Y-131532380D01*
X125293571Y-131580000D01*
X125341190Y-131627619D01*
X125388809Y-131722857D01*
X125388809Y-131818095D01*
X125341190Y-131913333D01*
X125293571Y-131960952D01*
X125198333Y-132008571D01*
X124865000Y-132008571D01*
X125817380Y-132246666D02*
X126293571Y-132246666D01*
X125722142Y-132532380D02*
X126055476Y-131532380D01*
X126388809Y-132532380D01*
X126579285Y-131532380D02*
X127150714Y-131532380D01*
X126865000Y-132532380D02*
X126865000Y-131532380D01*
X127341190Y-131532380D02*
X127674523Y-132532380D01*
X128007857Y-131532380D01*
X125603095Y-129040000D02*
X125507857Y-128992380D01*
X125365000Y-128992380D01*
X125222142Y-129040000D01*
X125126904Y-129135238D01*
X125079285Y-129230476D01*
X125031666Y-129420952D01*
X125031666Y-129563809D01*
X125079285Y-129754285D01*
X125126904Y-129849523D01*
X125222142Y-129944761D01*
X125365000Y-129992380D01*
X125460238Y-129992380D01*
X125603095Y-129944761D01*
X125650714Y-129897142D01*
X125650714Y-129563809D01*
X125460238Y-129563809D01*
X126079285Y-129992380D02*
X126079285Y-128992380D01*
X126650714Y-129992380D01*
X126650714Y-128992380D01*
X127126904Y-129992380D02*
X127126904Y-128992380D01*
X127365000Y-128992380D01*
X127507857Y-129040000D01*
X127603095Y-129135238D01*
X127650714Y-129230476D01*
X127698333Y-129420952D01*
X127698333Y-129563809D01*
X127650714Y-129754285D01*
X127603095Y-129849523D01*
X127507857Y-129944761D01*
X127365000Y-129992380D01*
X127126904Y-129992380D01*
X124968095Y-121372380D02*
X125539523Y-121372380D01*
X125253809Y-122372380D02*
X125253809Y-121372380D01*
X125777619Y-121372380D02*
X126444285Y-122372380D01*
X126444285Y-121372380D02*
X125777619Y-122372380D01*
X125563333Y-119832380D02*
X125230000Y-119356190D01*
X124991904Y-119832380D02*
X124991904Y-118832380D01*
X125372857Y-118832380D01*
X125468095Y-118880000D01*
X125515714Y-118927619D01*
X125563333Y-119022857D01*
X125563333Y-119165714D01*
X125515714Y-119260952D01*
X125468095Y-119308571D01*
X125372857Y-119356190D01*
X124991904Y-119356190D01*
X125896666Y-118832380D02*
X126563333Y-119832380D01*
X126563333Y-118832380D02*
X125896666Y-119832380D01*
X125198333Y-105338571D02*
X125341190Y-105386190D01*
X125388809Y-105433809D01*
X125436428Y-105529047D01*
X125436428Y-105671904D01*
X125388809Y-105767142D01*
X125341190Y-105814761D01*
X125245952Y-105862380D01*
X124865000Y-105862380D01*
X124865000Y-104862380D01*
X125198333Y-104862380D01*
X125293571Y-104910000D01*
X125341190Y-104957619D01*
X125388809Y-105052857D01*
X125388809Y-105148095D01*
X125341190Y-105243333D01*
X125293571Y-105290952D01*
X125198333Y-105338571D01*
X124865000Y-105338571D01*
X125817380Y-105576666D02*
X126293571Y-105576666D01*
X125722142Y-105862380D02*
X126055476Y-104862380D01*
X126388809Y-105862380D01*
X126579285Y-104862380D02*
X127150714Y-104862380D01*
X126865000Y-105862380D02*
X126865000Y-104862380D01*
X127341190Y-104862380D02*
X127674523Y-105862380D01*
X128007857Y-104862380D01*
X125603095Y-102370000D02*
X125507857Y-102322380D01*
X125365000Y-102322380D01*
X125222142Y-102370000D01*
X125126904Y-102465238D01*
X125079285Y-102560476D01*
X125031666Y-102750952D01*
X125031666Y-102893809D01*
X125079285Y-103084285D01*
X125126904Y-103179523D01*
X125222142Y-103274761D01*
X125365000Y-103322380D01*
X125460238Y-103322380D01*
X125603095Y-103274761D01*
X125650714Y-103227142D01*
X125650714Y-102893809D01*
X125460238Y-102893809D01*
X126079285Y-103322380D02*
X126079285Y-102322380D01*
X126650714Y-103322380D01*
X126650714Y-102322380D01*
X127126904Y-103322380D02*
X127126904Y-102322380D01*
X127365000Y-102322380D01*
X127507857Y-102370000D01*
X127603095Y-102465238D01*
X127650714Y-102560476D01*
X127698333Y-102750952D01*
X127698333Y-102893809D01*
X127650714Y-103084285D01*
X127603095Y-103179523D01*
X127507857Y-103274761D01*
X127365000Y-103322380D01*
X127126904Y-103322380D01*
X125603095Y-89622380D02*
X126174523Y-89622380D01*
X125888809Y-90622380D02*
X125888809Y-89622380D01*
X126412619Y-89622380D02*
X127079285Y-90622380D01*
X127079285Y-89622380D02*
X126412619Y-90622380D01*
X126198333Y-88082380D02*
X125865000Y-87606190D01*
X125626904Y-88082380D02*
X125626904Y-87082380D01*
X126007857Y-87082380D01*
X126103095Y-87130000D01*
X126150714Y-87177619D01*
X126198333Y-87272857D01*
X126198333Y-87415714D01*
X126150714Y-87510952D01*
X126103095Y-87558571D01*
X126007857Y-87606190D01*
X125626904Y-87606190D01*
X126531666Y-87082380D02*
X127198333Y-88082380D01*
X127198333Y-87082380D02*
X126531666Y-88082380D01*
X170478571Y-68268809D02*
X170592857Y-68306904D01*
X170783333Y-68306904D01*
X170859523Y-68268809D01*
X170897619Y-68230714D01*
X170935714Y-68154523D01*
X170935714Y-68078333D01*
X170897619Y-68002142D01*
X170859523Y-67964047D01*
X170783333Y-67925952D01*
X170630952Y-67887857D01*
X170554761Y-67849761D01*
X170516666Y-67811666D01*
X170478571Y-67735476D01*
X170478571Y-67659285D01*
X170516666Y-67583095D01*
X170554761Y-67545000D01*
X170630952Y-67506904D01*
X170821428Y-67506904D01*
X170935714Y-67545000D01*
X171278571Y-68306904D02*
X171278571Y-67506904D01*
X171469047Y-67506904D01*
X171583333Y-67545000D01*
X171659523Y-67621190D01*
X171697619Y-67697380D01*
X171735714Y-67849761D01*
X171735714Y-67964047D01*
X171697619Y-68116428D01*
X171659523Y-68192619D01*
X171583333Y-68268809D01*
X171469047Y-68306904D01*
X171278571Y-68306904D01*
X172040476Y-68078333D02*
X172421428Y-68078333D01*
X171964285Y-68306904D02*
X172230952Y-67506904D01*
X172497619Y-68306904D01*
X173037619Y-68268809D02*
X173151904Y-68306904D01*
X173342380Y-68306904D01*
X173418571Y-68268809D01*
X173456666Y-68230714D01*
X173494761Y-68154523D01*
X173494761Y-68078333D01*
X173456666Y-68002142D01*
X173418571Y-67964047D01*
X173342380Y-67925952D01*
X173190000Y-67887857D01*
X173113809Y-67849761D01*
X173075714Y-67811666D01*
X173037619Y-67735476D01*
X173037619Y-67659285D01*
X173075714Y-67583095D01*
X173113809Y-67545000D01*
X173190000Y-67506904D01*
X173380476Y-67506904D01*
X173494761Y-67545000D01*
X174294761Y-68230714D02*
X174256666Y-68268809D01*
X174142380Y-68306904D01*
X174066190Y-68306904D01*
X173951904Y-68268809D01*
X173875714Y-68192619D01*
X173837619Y-68116428D01*
X173799523Y-67964047D01*
X173799523Y-67849761D01*
X173837619Y-67697380D01*
X173875714Y-67621190D01*
X173951904Y-67545000D01*
X174066190Y-67506904D01*
X174142380Y-67506904D01*
X174256666Y-67545000D01*
X174294761Y-67583095D01*
X175018571Y-68306904D02*
X174637619Y-68306904D01*
X174637619Y-67506904D01*
X128555714Y-54237380D02*
X127984285Y-54237380D01*
X128270000Y-54237380D02*
X128270000Y-53237380D01*
X128174761Y-53380238D01*
X128079523Y-53475476D01*
X127984285Y-53523095D01*
X128270000Y-55792142D02*
X128317619Y-55839761D01*
X128270000Y-55887380D01*
X128222380Y-55839761D01*
X128270000Y-55792142D01*
X128270000Y-55887380D01*
X179331904Y-53285000D02*
X179236666Y-53237380D01*
X179093809Y-53237380D01*
X178950952Y-53285000D01*
X178855714Y-53380238D01*
X178808095Y-53475476D01*
X178760476Y-53665952D01*
X178760476Y-53808809D01*
X178808095Y-53999285D01*
X178855714Y-54094523D01*
X178950952Y-54189761D01*
X179093809Y-54237380D01*
X179189047Y-54237380D01*
X179331904Y-54189761D01*
X179379523Y-54142142D01*
X179379523Y-53808809D01*
X179189047Y-53808809D01*
X179331904Y-54935000D02*
X179236666Y-54887380D01*
X179093809Y-54887380D01*
X178950952Y-54935000D01*
X178855714Y-55030238D01*
X178808095Y-55125476D01*
X178760476Y-55315952D01*
X178760476Y-55458809D01*
X178808095Y-55649285D01*
X178855714Y-55744523D01*
X178950952Y-55839761D01*
X179093809Y-55887380D01*
X179189047Y-55887380D01*
X179331904Y-55839761D01*
X179379523Y-55792142D01*
X179379523Y-55458809D01*
X179189047Y-55458809D01*
X175596666Y-53877857D02*
X175710952Y-53915952D01*
X175749047Y-53954047D01*
X175787142Y-54030238D01*
X175787142Y-54144523D01*
X175749047Y-54220714D01*
X175710952Y-54258809D01*
X175634761Y-54296904D01*
X175330000Y-54296904D01*
X175330000Y-53496904D01*
X175596666Y-53496904D01*
X175672857Y-53535000D01*
X175710952Y-53573095D01*
X175749047Y-53649285D01*
X175749047Y-53725476D01*
X175710952Y-53801666D01*
X175672857Y-53839761D01*
X175596666Y-53877857D01*
X175330000Y-53877857D01*
X176091904Y-54068333D02*
X176472857Y-54068333D01*
X176015714Y-54296904D02*
X176282380Y-53496904D01*
X176549047Y-54296904D01*
X176701428Y-53496904D02*
X177158571Y-53496904D01*
X176930000Y-54296904D02*
X176930000Y-53496904D01*
X177310952Y-53496904D02*
X177577619Y-54296904D01*
X177844285Y-53496904D01*
X175596666Y-55227857D02*
X175710952Y-55265952D01*
X175749047Y-55304047D01*
X175787142Y-55380238D01*
X175787142Y-55494523D01*
X175749047Y-55570714D01*
X175710952Y-55608809D01*
X175634761Y-55646904D01*
X175330000Y-55646904D01*
X175330000Y-54846904D01*
X175596666Y-54846904D01*
X175672857Y-54885000D01*
X175710952Y-54923095D01*
X175749047Y-54999285D01*
X175749047Y-55075476D01*
X175710952Y-55151666D01*
X175672857Y-55189761D01*
X175596666Y-55227857D01*
X175330000Y-55227857D01*
X176091904Y-55418333D02*
X176472857Y-55418333D01*
X176015714Y-55646904D02*
X176282380Y-54846904D01*
X176549047Y-55646904D01*
X176701428Y-54846904D02*
X177158571Y-54846904D01*
X176930000Y-55646904D02*
X176930000Y-54846904D01*
X177310952Y-54846904D02*
X177577619Y-55646904D01*
X177844285Y-54846904D01*
X173247142Y-53877857D02*
X173361428Y-53915952D01*
X173399523Y-53954047D01*
X173437619Y-54030238D01*
X173437619Y-54144523D01*
X173399523Y-54220714D01*
X173361428Y-54258809D01*
X173285238Y-54296904D01*
X172980476Y-54296904D01*
X172980476Y-53496904D01*
X173247142Y-53496904D01*
X173323333Y-53535000D01*
X173361428Y-53573095D01*
X173399523Y-53649285D01*
X173399523Y-53725476D01*
X173361428Y-53801666D01*
X173323333Y-53839761D01*
X173247142Y-53877857D01*
X172980476Y-53877857D01*
X174237619Y-54220714D02*
X174199523Y-54258809D01*
X174085238Y-54296904D01*
X174009047Y-54296904D01*
X173894761Y-54258809D01*
X173818571Y-54182619D01*
X173780476Y-54106428D01*
X173742380Y-53954047D01*
X173742380Y-53839761D01*
X173780476Y-53687380D01*
X173818571Y-53611190D01*
X173894761Y-53535000D01*
X174009047Y-53496904D01*
X174085238Y-53496904D01*
X174199523Y-53535000D01*
X174237619Y-53573095D01*
X175037619Y-54296904D02*
X174770952Y-53915952D01*
X174580476Y-54296904D02*
X174580476Y-53496904D01*
X174885238Y-53496904D01*
X174961428Y-53535000D01*
X174999523Y-53573095D01*
X175037619Y-53649285D01*
X175037619Y-53763571D01*
X174999523Y-53839761D01*
X174961428Y-53877857D01*
X174885238Y-53915952D01*
X174580476Y-53915952D01*
X173247142Y-55227857D02*
X173361428Y-55265952D01*
X173399523Y-55304047D01*
X173437619Y-55380238D01*
X173437619Y-55494523D01*
X173399523Y-55570714D01*
X173361428Y-55608809D01*
X173285238Y-55646904D01*
X172980476Y-55646904D01*
X172980476Y-54846904D01*
X173247142Y-54846904D01*
X173323333Y-54885000D01*
X173361428Y-54923095D01*
X173399523Y-54999285D01*
X173399523Y-55075476D01*
X173361428Y-55151666D01*
X173323333Y-55189761D01*
X173247142Y-55227857D01*
X172980476Y-55227857D01*
X174237619Y-55570714D02*
X174199523Y-55608809D01*
X174085238Y-55646904D01*
X174009047Y-55646904D01*
X173894761Y-55608809D01*
X173818571Y-55532619D01*
X173780476Y-55456428D01*
X173742380Y-55304047D01*
X173742380Y-55189761D01*
X173780476Y-55037380D01*
X173818571Y-54961190D01*
X173894761Y-54885000D01*
X174009047Y-54846904D01*
X174085238Y-54846904D01*
X174199523Y-54885000D01*
X174237619Y-54923095D01*
X175037619Y-55646904D02*
X174770952Y-55265952D01*
X174580476Y-55646904D02*
X174580476Y-54846904D01*
X174885238Y-54846904D01*
X174961428Y-54885000D01*
X174999523Y-54923095D01*
X175037619Y-54999285D01*
X175037619Y-55113571D01*
X174999523Y-55189761D01*
X174961428Y-55227857D01*
X174885238Y-55265952D01*
X174580476Y-55265952D01*
X170707142Y-53877857D02*
X170821428Y-53915952D01*
X170859523Y-53954047D01*
X170897619Y-54030238D01*
X170897619Y-54144523D01*
X170859523Y-54220714D01*
X170821428Y-54258809D01*
X170745238Y-54296904D01*
X170440476Y-54296904D01*
X170440476Y-53496904D01*
X170707142Y-53496904D01*
X170783333Y-53535000D01*
X170821428Y-53573095D01*
X170859523Y-53649285D01*
X170859523Y-53725476D01*
X170821428Y-53801666D01*
X170783333Y-53839761D01*
X170707142Y-53877857D01*
X170440476Y-53877857D01*
X171697619Y-54220714D02*
X171659523Y-54258809D01*
X171545238Y-54296904D01*
X171469047Y-54296904D01*
X171354761Y-54258809D01*
X171278571Y-54182619D01*
X171240476Y-54106428D01*
X171202380Y-53954047D01*
X171202380Y-53839761D01*
X171240476Y-53687380D01*
X171278571Y-53611190D01*
X171354761Y-53535000D01*
X171469047Y-53496904D01*
X171545238Y-53496904D01*
X171659523Y-53535000D01*
X171697619Y-53573095D01*
X172497619Y-54296904D02*
X172230952Y-53915952D01*
X172040476Y-54296904D02*
X172040476Y-53496904D01*
X172345238Y-53496904D01*
X172421428Y-53535000D01*
X172459523Y-53573095D01*
X172497619Y-53649285D01*
X172497619Y-53763571D01*
X172459523Y-53839761D01*
X172421428Y-53877857D01*
X172345238Y-53915952D01*
X172040476Y-53915952D01*
X170707142Y-55227857D02*
X170821428Y-55265952D01*
X170859523Y-55304047D01*
X170897619Y-55380238D01*
X170897619Y-55494523D01*
X170859523Y-55570714D01*
X170821428Y-55608809D01*
X170745238Y-55646904D01*
X170440476Y-55646904D01*
X170440476Y-54846904D01*
X170707142Y-54846904D01*
X170783333Y-54885000D01*
X170821428Y-54923095D01*
X170859523Y-54999285D01*
X170859523Y-55075476D01*
X170821428Y-55151666D01*
X170783333Y-55189761D01*
X170707142Y-55227857D01*
X170440476Y-55227857D01*
X171697619Y-55570714D02*
X171659523Y-55608809D01*
X171545238Y-55646904D01*
X171469047Y-55646904D01*
X171354761Y-55608809D01*
X171278571Y-55532619D01*
X171240476Y-55456428D01*
X171202380Y-55304047D01*
X171202380Y-55189761D01*
X171240476Y-55037380D01*
X171278571Y-54961190D01*
X171354761Y-54885000D01*
X171469047Y-54846904D01*
X171545238Y-54846904D01*
X171659523Y-54885000D01*
X171697619Y-54923095D01*
X172497619Y-55646904D02*
X172230952Y-55265952D01*
X172040476Y-55646904D02*
X172040476Y-54846904D01*
X172345238Y-54846904D01*
X172421428Y-54885000D01*
X172459523Y-54923095D01*
X172497619Y-54999285D01*
X172497619Y-55113571D01*
X172459523Y-55189761D01*
X172421428Y-55227857D01*
X172345238Y-55265952D01*
X172040476Y-55265952D01*
X168910000Y-54142142D02*
X168957619Y-54189761D01*
X168910000Y-54237380D01*
X168862380Y-54189761D01*
X168910000Y-54142142D01*
X168910000Y-54237380D01*
X168910000Y-55792142D02*
X168957619Y-55839761D01*
X168910000Y-55887380D01*
X168862380Y-55839761D01*
X168910000Y-55792142D01*
X168910000Y-55887380D01*
X166370000Y-54142142D02*
X166417619Y-54189761D01*
X166370000Y-54237380D01*
X166322380Y-54189761D01*
X166370000Y-54142142D01*
X166370000Y-54237380D01*
X166370000Y-55792142D02*
X166417619Y-55839761D01*
X166370000Y-55887380D01*
X166322380Y-55839761D01*
X166370000Y-55792142D01*
X166370000Y-55887380D01*
X162763333Y-54296904D02*
X162763333Y-53496904D01*
X163068095Y-53496904D01*
X163144285Y-53535000D01*
X163182380Y-53573095D01*
X163220476Y-53649285D01*
X163220476Y-53763571D01*
X163182380Y-53839761D01*
X163144285Y-53877857D01*
X163068095Y-53915952D01*
X162763333Y-53915952D01*
X164020476Y-54220714D02*
X163982380Y-54258809D01*
X163868095Y-54296904D01*
X163791904Y-54296904D01*
X163677619Y-54258809D01*
X163601428Y-54182619D01*
X163563333Y-54106428D01*
X163525238Y-53954047D01*
X163525238Y-53839761D01*
X163563333Y-53687380D01*
X163601428Y-53611190D01*
X163677619Y-53535000D01*
X163791904Y-53496904D01*
X163868095Y-53496904D01*
X163982380Y-53535000D01*
X164020476Y-53573095D01*
X164363333Y-54296904D02*
X164363333Y-53496904D01*
X164630000Y-54068333D01*
X164896666Y-53496904D01*
X164896666Y-54296904D01*
X162763333Y-55646904D02*
X162763333Y-54846904D01*
X163068095Y-54846904D01*
X163144285Y-54885000D01*
X163182380Y-54923095D01*
X163220476Y-54999285D01*
X163220476Y-55113571D01*
X163182380Y-55189761D01*
X163144285Y-55227857D01*
X163068095Y-55265952D01*
X162763333Y-55265952D01*
X164020476Y-55570714D02*
X163982380Y-55608809D01*
X163868095Y-55646904D01*
X163791904Y-55646904D01*
X163677619Y-55608809D01*
X163601428Y-55532619D01*
X163563333Y-55456428D01*
X163525238Y-55304047D01*
X163525238Y-55189761D01*
X163563333Y-55037380D01*
X163601428Y-54961190D01*
X163677619Y-54885000D01*
X163791904Y-54846904D01*
X163868095Y-54846904D01*
X163982380Y-54885000D01*
X164020476Y-54923095D01*
X164363333Y-55646904D02*
X164363333Y-54846904D01*
X164630000Y-55418333D01*
X164896666Y-54846904D01*
X164896666Y-55646904D01*
X161290000Y-54142142D02*
X161337619Y-54189761D01*
X161290000Y-54237380D01*
X161242380Y-54189761D01*
X161290000Y-54142142D01*
X161290000Y-54237380D01*
X161290000Y-55792142D02*
X161337619Y-55839761D01*
X161290000Y-55887380D01*
X161242380Y-55839761D01*
X161290000Y-55792142D01*
X161290000Y-55887380D01*
X159011904Y-53285000D02*
X158916666Y-53237380D01*
X158773809Y-53237380D01*
X158630952Y-53285000D01*
X158535714Y-53380238D01*
X158488095Y-53475476D01*
X158440476Y-53665952D01*
X158440476Y-53808809D01*
X158488095Y-53999285D01*
X158535714Y-54094523D01*
X158630952Y-54189761D01*
X158773809Y-54237380D01*
X158869047Y-54237380D01*
X159011904Y-54189761D01*
X159059523Y-54142142D01*
X159059523Y-53808809D01*
X158869047Y-53808809D01*
X158750000Y-55792142D02*
X158797619Y-55839761D01*
X158750000Y-55887380D01*
X158702380Y-55839761D01*
X158750000Y-55792142D01*
X158750000Y-55887380D01*
X156471904Y-53285000D02*
X156376666Y-53237380D01*
X156233809Y-53237380D01*
X156090952Y-53285000D01*
X155995714Y-53380238D01*
X155948095Y-53475476D01*
X155900476Y-53665952D01*
X155900476Y-53808809D01*
X155948095Y-53999285D01*
X155995714Y-54094523D01*
X156090952Y-54189761D01*
X156233809Y-54237380D01*
X156329047Y-54237380D01*
X156471904Y-54189761D01*
X156519523Y-54142142D01*
X156519523Y-53808809D01*
X156329047Y-53808809D01*
X156471904Y-54935000D02*
X156376666Y-54887380D01*
X156233809Y-54887380D01*
X156090952Y-54935000D01*
X155995714Y-55030238D01*
X155948095Y-55125476D01*
X155900476Y-55315952D01*
X155900476Y-55458809D01*
X155948095Y-55649285D01*
X155995714Y-55744523D01*
X156090952Y-55839761D01*
X156233809Y-55887380D01*
X156329047Y-55887380D01*
X156471904Y-55839761D01*
X156519523Y-55792142D01*
X156519523Y-55458809D01*
X156329047Y-55458809D01*
X152679523Y-53496904D02*
X153174761Y-53496904D01*
X152908095Y-53801666D01*
X153022380Y-53801666D01*
X153098571Y-53839761D01*
X153136666Y-53877857D01*
X153174761Y-53954047D01*
X153174761Y-54144523D01*
X153136666Y-54220714D01*
X153098571Y-54258809D01*
X153022380Y-54296904D01*
X152793809Y-54296904D01*
X152717619Y-54258809D01*
X152679523Y-54220714D01*
X153403333Y-53496904D02*
X153670000Y-54296904D01*
X153936666Y-53496904D01*
X154127142Y-53496904D02*
X154622380Y-53496904D01*
X154355714Y-53801666D01*
X154470000Y-53801666D01*
X154546190Y-53839761D01*
X154584285Y-53877857D01*
X154622380Y-53954047D01*
X154622380Y-54144523D01*
X154584285Y-54220714D01*
X154546190Y-54258809D01*
X154470000Y-54296904D01*
X154241428Y-54296904D01*
X154165238Y-54258809D01*
X154127142Y-54220714D01*
X152679523Y-54846904D02*
X153174761Y-54846904D01*
X152908095Y-55151666D01*
X153022380Y-55151666D01*
X153098571Y-55189761D01*
X153136666Y-55227857D01*
X153174761Y-55304047D01*
X153174761Y-55494523D01*
X153136666Y-55570714D01*
X153098571Y-55608809D01*
X153022380Y-55646904D01*
X152793809Y-55646904D01*
X152717619Y-55608809D01*
X152679523Y-55570714D01*
X153403333Y-54846904D02*
X153670000Y-55646904D01*
X153936666Y-54846904D01*
X154127142Y-54846904D02*
X154622380Y-54846904D01*
X154355714Y-55151666D01*
X154470000Y-55151666D01*
X154546190Y-55189761D01*
X154584285Y-55227857D01*
X154622380Y-55304047D01*
X154622380Y-55494523D01*
X154584285Y-55570714D01*
X154546190Y-55608809D01*
X154470000Y-55646904D01*
X154241428Y-55646904D01*
X154165238Y-55608809D01*
X154127142Y-55570714D01*
X150977619Y-53496904D02*
X150596666Y-53496904D01*
X150558571Y-53877857D01*
X150596666Y-53839761D01*
X150672857Y-53801666D01*
X150863333Y-53801666D01*
X150939523Y-53839761D01*
X150977619Y-53877857D01*
X151015714Y-53954047D01*
X151015714Y-54144523D01*
X150977619Y-54220714D01*
X150939523Y-54258809D01*
X150863333Y-54296904D01*
X150672857Y-54296904D01*
X150596666Y-54258809D01*
X150558571Y-54220714D01*
X151244285Y-53496904D02*
X151510952Y-54296904D01*
X151777619Y-53496904D01*
X150977619Y-54846904D02*
X150596666Y-54846904D01*
X150558571Y-55227857D01*
X150596666Y-55189761D01*
X150672857Y-55151666D01*
X150863333Y-55151666D01*
X150939523Y-55189761D01*
X150977619Y-55227857D01*
X151015714Y-55304047D01*
X151015714Y-55494523D01*
X150977619Y-55570714D01*
X150939523Y-55608809D01*
X150863333Y-55646904D01*
X150672857Y-55646904D01*
X150596666Y-55608809D01*
X150558571Y-55570714D01*
X151244285Y-54846904D02*
X151510952Y-55646904D01*
X151777619Y-54846904D01*
X148094761Y-54296904D02*
X147637619Y-54296904D01*
X147866190Y-54296904D02*
X147866190Y-53496904D01*
X147790000Y-53611190D01*
X147713809Y-53687380D01*
X147637619Y-53725476D01*
X148399523Y-53573095D02*
X148437619Y-53535000D01*
X148513809Y-53496904D01*
X148704285Y-53496904D01*
X148780476Y-53535000D01*
X148818571Y-53573095D01*
X148856666Y-53649285D01*
X148856666Y-53725476D01*
X148818571Y-53839761D01*
X148361428Y-54296904D01*
X148856666Y-54296904D01*
X149085238Y-53496904D02*
X149351904Y-54296904D01*
X149618571Y-53496904D01*
X148094761Y-55646904D02*
X147637619Y-55646904D01*
X147866190Y-55646904D02*
X147866190Y-54846904D01*
X147790000Y-54961190D01*
X147713809Y-55037380D01*
X147637619Y-55075476D01*
X148399523Y-54923095D02*
X148437619Y-54885000D01*
X148513809Y-54846904D01*
X148704285Y-54846904D01*
X148780476Y-54885000D01*
X148818571Y-54923095D01*
X148856666Y-54999285D01*
X148856666Y-55075476D01*
X148818571Y-55189761D01*
X148361428Y-55646904D01*
X148856666Y-55646904D01*
X149085238Y-54846904D02*
X149351904Y-55646904D01*
X149618571Y-54846904D01*
X146311904Y-53285000D02*
X146216666Y-53237380D01*
X146073809Y-53237380D01*
X145930952Y-53285000D01*
X145835714Y-53380238D01*
X145788095Y-53475476D01*
X145740476Y-53665952D01*
X145740476Y-53808809D01*
X145788095Y-53999285D01*
X145835714Y-54094523D01*
X145930952Y-54189761D01*
X146073809Y-54237380D01*
X146169047Y-54237380D01*
X146311904Y-54189761D01*
X146359523Y-54142142D01*
X146359523Y-53808809D01*
X146169047Y-53808809D01*
X146311904Y-54935000D02*
X146216666Y-54887380D01*
X146073809Y-54887380D01*
X145930952Y-54935000D01*
X145835714Y-55030238D01*
X145788095Y-55125476D01*
X145740476Y-55315952D01*
X145740476Y-55458809D01*
X145788095Y-55649285D01*
X145835714Y-55744523D01*
X145930952Y-55839761D01*
X146073809Y-55887380D01*
X146169047Y-55887380D01*
X146311904Y-55839761D01*
X146359523Y-55792142D01*
X146359523Y-55458809D01*
X146169047Y-55458809D01*
X143319523Y-54237380D02*
X142748095Y-54237380D01*
X143033809Y-54237380D02*
X143033809Y-53237380D01*
X142938571Y-53380238D01*
X142843333Y-53475476D01*
X142748095Y-53523095D01*
X143938571Y-53237380D02*
X144033809Y-53237380D01*
X144129047Y-53285000D01*
X144176666Y-53332619D01*
X144224285Y-53427857D01*
X144271904Y-53618333D01*
X144271904Y-53856428D01*
X144224285Y-54046904D01*
X144176666Y-54142142D01*
X144129047Y-54189761D01*
X144033809Y-54237380D01*
X143938571Y-54237380D01*
X143843333Y-54189761D01*
X143795714Y-54142142D01*
X143748095Y-54046904D01*
X143700476Y-53856428D01*
X143700476Y-53618333D01*
X143748095Y-53427857D01*
X143795714Y-53332619D01*
X143843333Y-53285000D01*
X143938571Y-53237380D01*
X143319523Y-55887380D02*
X143510000Y-55887380D01*
X143605238Y-55839761D01*
X143652857Y-55792142D01*
X143748095Y-55649285D01*
X143795714Y-55458809D01*
X143795714Y-55077857D01*
X143748095Y-54982619D01*
X143700476Y-54935000D01*
X143605238Y-54887380D01*
X143414761Y-54887380D01*
X143319523Y-54935000D01*
X143271904Y-54982619D01*
X143224285Y-55077857D01*
X143224285Y-55315952D01*
X143271904Y-55411190D01*
X143319523Y-55458809D01*
X143414761Y-55506428D01*
X143605238Y-55506428D01*
X143700476Y-55458809D01*
X143748095Y-55411190D01*
X143795714Y-55315952D01*
X140874761Y-53665952D02*
X140779523Y-53618333D01*
X140731904Y-53570714D01*
X140684285Y-53475476D01*
X140684285Y-53427857D01*
X140731904Y-53332619D01*
X140779523Y-53285000D01*
X140874761Y-53237380D01*
X141065238Y-53237380D01*
X141160476Y-53285000D01*
X141208095Y-53332619D01*
X141255714Y-53427857D01*
X141255714Y-53475476D01*
X141208095Y-53570714D01*
X141160476Y-53618333D01*
X141065238Y-53665952D01*
X140874761Y-53665952D01*
X140779523Y-53713571D01*
X140731904Y-53761190D01*
X140684285Y-53856428D01*
X140684285Y-54046904D01*
X140731904Y-54142142D01*
X140779523Y-54189761D01*
X140874761Y-54237380D01*
X141065238Y-54237380D01*
X141160476Y-54189761D01*
X141208095Y-54142142D01*
X141255714Y-54046904D01*
X141255714Y-53856428D01*
X141208095Y-53761190D01*
X141160476Y-53713571D01*
X141065238Y-53665952D01*
X141231904Y-54935000D02*
X141136666Y-54887380D01*
X140993809Y-54887380D01*
X140850952Y-54935000D01*
X140755714Y-55030238D01*
X140708095Y-55125476D01*
X140660476Y-55315952D01*
X140660476Y-55458809D01*
X140708095Y-55649285D01*
X140755714Y-55744523D01*
X140850952Y-55839761D01*
X140993809Y-55887380D01*
X141089047Y-55887380D01*
X141231904Y-55839761D01*
X141279523Y-55792142D01*
X141279523Y-55458809D01*
X141089047Y-55458809D01*
X138096666Y-53237380D02*
X138763333Y-53237380D01*
X138334761Y-54237380D01*
X138620476Y-54887380D02*
X138430000Y-54887380D01*
X138334761Y-54935000D01*
X138287142Y-54982619D01*
X138191904Y-55125476D01*
X138144285Y-55315952D01*
X138144285Y-55696904D01*
X138191904Y-55792142D01*
X138239523Y-55839761D01*
X138334761Y-55887380D01*
X138525238Y-55887380D01*
X138620476Y-55839761D01*
X138668095Y-55792142D01*
X138715714Y-55696904D01*
X138715714Y-55458809D01*
X138668095Y-55363571D01*
X138620476Y-55315952D01*
X138525238Y-55268333D01*
X138334761Y-55268333D01*
X138239523Y-55315952D01*
X138191904Y-55363571D01*
X138144285Y-55458809D01*
X130524285Y-53332619D02*
X130571904Y-53285000D01*
X130667142Y-53237380D01*
X130905238Y-53237380D01*
X131000476Y-53285000D01*
X131048095Y-53332619D01*
X131095714Y-53427857D01*
X131095714Y-53523095D01*
X131048095Y-53665952D01*
X130476666Y-54237380D01*
X131095714Y-54237380D01*
X131071904Y-54935000D02*
X130976666Y-54887380D01*
X130833809Y-54887380D01*
X130690952Y-54935000D01*
X130595714Y-55030238D01*
X130548095Y-55125476D01*
X130500476Y-55315952D01*
X130500476Y-55458809D01*
X130548095Y-55649285D01*
X130595714Y-55744523D01*
X130690952Y-55839761D01*
X130833809Y-55887380D01*
X130929047Y-55887380D01*
X131071904Y-55839761D01*
X131119523Y-55792142D01*
X131119523Y-55458809D01*
X130929047Y-55458809D01*
X136151904Y-53285000D02*
X136056666Y-53237380D01*
X135913809Y-53237380D01*
X135770952Y-53285000D01*
X135675714Y-53380238D01*
X135628095Y-53475476D01*
X135580476Y-53665952D01*
X135580476Y-53808809D01*
X135628095Y-53999285D01*
X135675714Y-54094523D01*
X135770952Y-54189761D01*
X135913809Y-54237380D01*
X136009047Y-54237380D01*
X136151904Y-54189761D01*
X136199523Y-54142142D01*
X136199523Y-53808809D01*
X136009047Y-53808809D01*
X136128095Y-54887380D02*
X135651904Y-54887380D01*
X135604285Y-55363571D01*
X135651904Y-55315952D01*
X135747142Y-55268333D01*
X135985238Y-55268333D01*
X136080476Y-55315952D01*
X136128095Y-55363571D01*
X136175714Y-55458809D01*
X136175714Y-55696904D01*
X136128095Y-55792142D01*
X136080476Y-55839761D01*
X135985238Y-55887380D01*
X135747142Y-55887380D01*
X135651904Y-55839761D01*
X135604285Y-55792142D01*
X133540476Y-53570714D02*
X133540476Y-54237380D01*
X133302380Y-53189761D02*
X133064285Y-53904047D01*
X133683333Y-53904047D01*
X133016666Y-54887380D02*
X133635714Y-54887380D01*
X133302380Y-55268333D01*
X133445238Y-55268333D01*
X133540476Y-55315952D01*
X133588095Y-55363571D01*
X133635714Y-55458809D01*
X133635714Y-55696904D01*
X133588095Y-55792142D01*
X133540476Y-55839761D01*
X133445238Y-55887380D01*
X133159523Y-55887380D01*
X133064285Y-55839761D01*
X133016666Y-55792142D01*
D12*
%TO.C,C10*%
X149486252Y-124360000D02*
X148963748Y-124360000D01*
X149486252Y-125830000D02*
X148963748Y-125830000D01*
%TO.C,C9*%
X149486252Y-121185000D02*
X148963748Y-121185000D01*
X149486252Y-122655000D02*
X148963748Y-122655000D01*
%TO.C,U4*%
X136235000Y-135655000D02*
X142245000Y-135655000D01*
X138485000Y-142475000D02*
X142245000Y-142475000D01*
X142245000Y-135655000D02*
X142245000Y-136915000D01*
X142245000Y-142475000D02*
X142245000Y-141215000D01*
%TO.C,TP5*%
X146996000Y-70612000D02*
G75*
G03*
X146996000Y-70612000I-1200000J0D01*
G01*
%TO.C,TP4*%
X180524000Y-70104000D02*
G75*
G03*
X180524000Y-70104000I-1200000J0D01*
G01*
%TO.C,TP3*%
X151060000Y-70612000D02*
G75*
G03*
X151060000Y-70612000I-1200000J0D01*
G01*
%TO.C,TP2*%
X155124000Y-70612000D02*
G75*
G03*
X155124000Y-70612000I-1200000J0D01*
G01*
%TO.C,TP1*%
X184080000Y-70104000D02*
G75*
G03*
X184080000Y-70104000I-1200000J0D01*
G01*
%TO.C,J8*%
X191021000Y-96654000D02*
X192351000Y-96654000D01*
X192351000Y-96654000D02*
X192351000Y-97984000D01*
X192351000Y-99254000D02*
X192351000Y-101854000D01*
X189691000Y-101854000D02*
X192351000Y-101854000D01*
X189691000Y-99254000D02*
X189691000Y-101854000D01*
X189691000Y-99254000D02*
X192351000Y-99254000D01*
%TO.C,R6*%
X132307064Y-106145000D02*
X131852936Y-106145000D01*
X132307064Y-104675000D02*
X131852936Y-104675000D01*
%TO.C,R5*%
X132307064Y-112495000D02*
X131852936Y-112495000D01*
X132307064Y-111025000D02*
X131852936Y-111025000D01*
%TO.C,R4*%
X130312936Y-73560000D02*
X130767064Y-73560000D01*
X130312936Y-75030000D02*
X130767064Y-75030000D01*
%TO.C,R3*%
X138927064Y-75030000D02*
X138472936Y-75030000D01*
X138927064Y-73560000D02*
X138472936Y-73560000D01*
%TO.C,R2*%
X153135000Y-114072936D02*
X153135000Y-114527064D01*
X151665000Y-114072936D02*
X151665000Y-114527064D01*
%TO.C,R1*%
X158215000Y-114072936D02*
X158215000Y-114527064D01*
X156745000Y-114072936D02*
X156745000Y-114527064D01*
%TO.C,JP4*%
X156065000Y-107585000D02*
X160165000Y-107585000D01*
X160165000Y-107585000D02*
X160165000Y-109585000D01*
X160165000Y-109585000D02*
X156065000Y-109585000D01*
X156065000Y-109585000D02*
X156065000Y-107585000D01*
%TO.C,JP3*%
X147175000Y-107585000D02*
X151275000Y-107585000D01*
X151275000Y-107585000D02*
X151275000Y-109585000D01*
X151275000Y-109585000D02*
X147175000Y-109585000D01*
X147175000Y-109585000D02*
X147175000Y-107585000D01*
%TO.C,JP2*%
X156065000Y-101320000D02*
X160165000Y-101320000D01*
X160165000Y-101320000D02*
X160165000Y-103320000D01*
X160165000Y-103320000D02*
X156065000Y-103320000D01*
X156065000Y-103320000D02*
X156065000Y-101320000D01*
%TO.C,JP1*%
X147175000Y-101235000D02*
X151275000Y-101235000D01*
X151275000Y-101235000D02*
X151275000Y-103235000D01*
X151275000Y-103235000D02*
X147175000Y-103235000D01*
X147175000Y-103235000D02*
X147175000Y-101235000D01*
%TO.C,U1*%
X161290000Y-93980000D02*
X129540000Y-93980000D01*
X129540000Y-76200000D02*
X161290000Y-76200000D01*
X161290000Y-76200000D02*
X161290000Y-93980000D01*
X129540000Y-93980000D02*
X129540000Y-76200000D01*
D10*
%TO.C,U3*%
X153970000Y-125485000D02*
X153970000Y-126060000D01*
X159720000Y-125485000D02*
X159720000Y-126135000D01*
X159720000Y-136135000D02*
X159720000Y-135485000D01*
X153970000Y-136135000D02*
X153970000Y-135485000D01*
X153970000Y-125485000D02*
X159720000Y-125485000D01*
X153970000Y-136135000D02*
X159720000Y-136135000D01*
X153970000Y-126060000D02*
X152370000Y-126060000D01*
D12*
%TO.C,J6*%
X160745000Y-146275000D02*
X152945000Y-146275000D01*
X152945000Y-140395000D02*
X160745000Y-140395000D01*
%TO.C,D6*%
X131080000Y-109545000D02*
X133940000Y-109545000D01*
X133940000Y-109545000D02*
X133940000Y-107625000D01*
X133940000Y-107625000D02*
X131080000Y-107625000D01*
%TO.C,D5*%
X131080000Y-115895000D02*
X133940000Y-115895000D01*
X133940000Y-115895000D02*
X133940000Y-113975000D01*
X133940000Y-113975000D02*
X131080000Y-113975000D01*
%TO.C,D4*%
X133620000Y-75255000D02*
X136480000Y-75255000D01*
X136480000Y-75255000D02*
X136480000Y-73335000D01*
X136480000Y-73335000D02*
X133620000Y-73335000D01*
%TO.C,D3*%
X138120000Y-71485000D02*
X138120000Y-68625000D01*
X138120000Y-68625000D02*
X136200000Y-68625000D01*
X136200000Y-68625000D02*
X136200000Y-71485000D01*
%TO.C,D2*%
X150185000Y-115300000D02*
X150185000Y-112440000D01*
X150185000Y-112440000D02*
X148265000Y-112440000D01*
X148265000Y-112440000D02*
X148265000Y-115300000D01*
%TO.C,D1*%
X161615000Y-115300000D02*
X161615000Y-112440000D01*
X161615000Y-112440000D02*
X159695000Y-112440000D01*
X159695000Y-112440000D02*
X159695000Y-115300000D01*
%TO.C,C8*%
X150595000Y-136263748D02*
X150595000Y-136786252D01*
X149125000Y-136263748D02*
X149125000Y-136786252D01*
%TO.C,C7*%
X158488748Y-121185000D02*
X159011252Y-121185000D01*
X158488748Y-122655000D02*
X159011252Y-122655000D01*
%TO.C,C6*%
X158488748Y-118010000D02*
X159011252Y-118010000D01*
X158488748Y-119480000D02*
X159011252Y-119480000D01*
D13*
%TO.C,U2*%
X136859998Y-123000000D02*
G75*
G03*
X136859998Y-123000000I-299999J0D01*
G01*
D14*
X134560000Y-121704999D02*
G75*
G03*
X134560000Y-121704999I-125001J0D01*
G01*
D10*
X135559998Y-132000000D02*
X138759999Y-132000000D01*
X135559998Y-122000000D02*
X138759999Y-122000000D01*
X138759999Y-132000000D02*
X138759999Y-122000000D01*
X135559998Y-132000000D02*
X135559998Y-122000000D01*
D12*
%TO.C,J7*%
X181035000Y-139700000D02*
X178375000Y-139700000D01*
X181035000Y-139700000D02*
X181035000Y-137100000D01*
X181035000Y-137100000D02*
X178375000Y-137100000D01*
X178375000Y-139700000D02*
X178375000Y-137100000D01*
X178375000Y-142300000D02*
X178375000Y-140970000D01*
X179705000Y-142300000D02*
X178375000Y-142300000D01*
%TO.C,C5*%
X143610000Y-122928748D02*
X143610000Y-123451252D01*
X142140000Y-122928748D02*
X142140000Y-123451252D01*
%TO.C,C4*%
X130075000Y-132976252D02*
X130075000Y-132453748D01*
X131545000Y-132976252D02*
X131545000Y-132453748D01*
%TO.C,C3*%
X135226248Y-119280000D02*
X135748752Y-119280000D01*
X135226248Y-120750000D02*
X135748752Y-120750000D01*
%TO.C,C2*%
X131545000Y-127373748D02*
X131545000Y-127896252D01*
X130075000Y-127373748D02*
X130075000Y-127896252D01*
%TO.C,C1*%
X130075000Y-122816252D02*
X130075000Y-122293748D01*
X131545000Y-122816252D02*
X131545000Y-122293748D01*
%TO.C,C10*%
D10*
X148582142Y-127132142D02*
X148534523Y-127179761D01*
X148391666Y-127227380D01*
X148296428Y-127227380D01*
X148153571Y-127179761D01*
X148058333Y-127084523D01*
X148010714Y-126989285D01*
X147963095Y-126798809D01*
X147963095Y-126655952D01*
X148010714Y-126465476D01*
X148058333Y-126370238D01*
X148153571Y-126275000D01*
X148296428Y-126227380D01*
X148391666Y-126227380D01*
X148534523Y-126275000D01*
X148582142Y-126322619D01*
X149534523Y-127227380D02*
X148963095Y-127227380D01*
X149248809Y-127227380D02*
X149248809Y-126227380D01*
X149153571Y-126370238D01*
X149058333Y-126465476D01*
X148963095Y-126513095D01*
X150153571Y-126227380D02*
X150248809Y-126227380D01*
X150344047Y-126275000D01*
X150391666Y-126322619D01*
X150439285Y-126417857D01*
X150486904Y-126608333D01*
X150486904Y-126846428D01*
X150439285Y-127036904D01*
X150391666Y-127132142D01*
X150344047Y-127179761D01*
X150248809Y-127227380D01*
X150153571Y-127227380D01*
X150058333Y-127179761D01*
X150010714Y-127132142D01*
X149963095Y-127036904D01*
X149915476Y-126846428D01*
X149915476Y-126608333D01*
X149963095Y-126417857D01*
X150010714Y-126322619D01*
X150058333Y-126275000D01*
X150153571Y-126227380D01*
%TO.C,C9*%
X149058333Y-123957142D02*
X149010714Y-124004761D01*
X148867857Y-124052380D01*
X148772619Y-124052380D01*
X148629761Y-124004761D01*
X148534523Y-123909523D01*
X148486904Y-123814285D01*
X148439285Y-123623809D01*
X148439285Y-123480952D01*
X148486904Y-123290476D01*
X148534523Y-123195238D01*
X148629761Y-123100000D01*
X148772619Y-123052380D01*
X148867857Y-123052380D01*
X149010714Y-123100000D01*
X149058333Y-123147619D01*
X149534523Y-124052380D02*
X149725000Y-124052380D01*
X149820238Y-124004761D01*
X149867857Y-123957142D01*
X149963095Y-123814285D01*
X150010714Y-123623809D01*
X150010714Y-123242857D01*
X149963095Y-123147619D01*
X149915476Y-123100000D01*
X149820238Y-123052380D01*
X149629761Y-123052380D01*
X149534523Y-123100000D01*
X149486904Y-123147619D01*
X149439285Y-123242857D01*
X149439285Y-123480952D01*
X149486904Y-123576190D01*
X149534523Y-123623809D01*
X149629761Y-123671428D01*
X149820238Y-123671428D01*
X149915476Y-123623809D01*
X149963095Y-123576190D01*
X150010714Y-123480952D01*
%TO.C,U4*%
X139573095Y-134017380D02*
X139573095Y-134826904D01*
X139620714Y-134922142D01*
X139668333Y-134969761D01*
X139763571Y-135017380D01*
X139954047Y-135017380D01*
X140049285Y-134969761D01*
X140096904Y-134922142D01*
X140144523Y-134826904D01*
X140144523Y-134017380D01*
X141049285Y-134350714D02*
X141049285Y-135017380D01*
X140811190Y-133969761D02*
X140573095Y-134684047D01*
X141192142Y-134684047D01*
%TO.C,TP5*%
X144534095Y-68066380D02*
X145105523Y-68066380D01*
X144819809Y-69066380D02*
X144819809Y-68066380D01*
X145438857Y-69066380D02*
X145438857Y-68066380D01*
X145819809Y-68066380D01*
X145915047Y-68114000D01*
X145962666Y-68161619D01*
X146010285Y-68256857D01*
X146010285Y-68399714D01*
X145962666Y-68494952D01*
X145915047Y-68542571D01*
X145819809Y-68590190D01*
X145438857Y-68590190D01*
X146915047Y-68066380D02*
X146438857Y-68066380D01*
X146391238Y-68542571D01*
X146438857Y-68494952D01*
X146534095Y-68447333D01*
X146772190Y-68447333D01*
X146867428Y-68494952D01*
X146915047Y-68542571D01*
X146962666Y-68637809D01*
X146962666Y-68875904D01*
X146915047Y-68971142D01*
X146867428Y-69018761D01*
X146772190Y-69066380D01*
X146534095Y-69066380D01*
X146438857Y-69018761D01*
X146391238Y-68971142D01*
%TO.C,TP4*%
X178062095Y-67558380D02*
X178633523Y-67558380D01*
X178347809Y-68558380D02*
X178347809Y-67558380D01*
X178966857Y-68558380D02*
X178966857Y-67558380D01*
X179347809Y-67558380D01*
X179443047Y-67606000D01*
X179490666Y-67653619D01*
X179538285Y-67748857D01*
X179538285Y-67891714D01*
X179490666Y-67986952D01*
X179443047Y-68034571D01*
X179347809Y-68082190D01*
X178966857Y-68082190D01*
X180395428Y-67891714D02*
X180395428Y-68558380D01*
X180157333Y-67510761D02*
X179919238Y-68225047D01*
X180538285Y-68225047D01*
%TO.C,TP3*%
X148598095Y-68066380D02*
X149169523Y-68066380D01*
X148883809Y-69066380D02*
X148883809Y-68066380D01*
X149502857Y-69066380D02*
X149502857Y-68066380D01*
X149883809Y-68066380D01*
X149979047Y-68114000D01*
X150026666Y-68161619D01*
X150074285Y-68256857D01*
X150074285Y-68399714D01*
X150026666Y-68494952D01*
X149979047Y-68542571D01*
X149883809Y-68590190D01*
X149502857Y-68590190D01*
X150407619Y-68066380D02*
X151026666Y-68066380D01*
X150693333Y-68447333D01*
X150836190Y-68447333D01*
X150931428Y-68494952D01*
X150979047Y-68542571D01*
X151026666Y-68637809D01*
X151026666Y-68875904D01*
X150979047Y-68971142D01*
X150931428Y-69018761D01*
X150836190Y-69066380D01*
X150550476Y-69066380D01*
X150455238Y-69018761D01*
X150407619Y-68971142D01*
%TO.C,TP2*%
X152662095Y-68066380D02*
X153233523Y-68066380D01*
X152947809Y-69066380D02*
X152947809Y-68066380D01*
X153566857Y-69066380D02*
X153566857Y-68066380D01*
X153947809Y-68066380D01*
X154043047Y-68114000D01*
X154090666Y-68161619D01*
X154138285Y-68256857D01*
X154138285Y-68399714D01*
X154090666Y-68494952D01*
X154043047Y-68542571D01*
X153947809Y-68590190D01*
X153566857Y-68590190D01*
X154519238Y-68161619D02*
X154566857Y-68114000D01*
X154662095Y-68066380D01*
X154900190Y-68066380D01*
X154995428Y-68114000D01*
X155043047Y-68161619D01*
X155090666Y-68256857D01*
X155090666Y-68352095D01*
X155043047Y-68494952D01*
X154471619Y-69066380D01*
X155090666Y-69066380D01*
%TO.C,TP1*%
X181618095Y-67558380D02*
X182189523Y-67558380D01*
X181903809Y-68558380D02*
X181903809Y-67558380D01*
X182522857Y-68558380D02*
X182522857Y-67558380D01*
X182903809Y-67558380D01*
X182999047Y-67606000D01*
X183046666Y-67653619D01*
X183094285Y-67748857D01*
X183094285Y-67891714D01*
X183046666Y-67986952D01*
X182999047Y-68034571D01*
X182903809Y-68082190D01*
X182522857Y-68082190D01*
X184046666Y-68558380D02*
X183475238Y-68558380D01*
X183760952Y-68558380D02*
X183760952Y-67558380D01*
X183665714Y-67701238D01*
X183570476Y-67796476D01*
X183475238Y-67844095D01*
%TO.C,M8*%
X189891476Y-140660380D02*
X189891476Y-139660380D01*
X190224809Y-140374666D01*
X190558142Y-139660380D01*
X190558142Y-140660380D01*
X191177190Y-140088952D02*
X191081952Y-140041333D01*
X191034333Y-139993714D01*
X190986714Y-139898476D01*
X190986714Y-139850857D01*
X191034333Y-139755619D01*
X191081952Y-139708000D01*
X191177190Y-139660380D01*
X191367666Y-139660380D01*
X191462904Y-139708000D01*
X191510523Y-139755619D01*
X191558142Y-139850857D01*
X191558142Y-139898476D01*
X191510523Y-139993714D01*
X191462904Y-140041333D01*
X191367666Y-140088952D01*
X191177190Y-140088952D01*
X191081952Y-140136571D01*
X191034333Y-140184190D01*
X190986714Y-140279428D01*
X190986714Y-140469904D01*
X191034333Y-140565142D01*
X191081952Y-140612761D01*
X191177190Y-140660380D01*
X191367666Y-140660380D01*
X191462904Y-140612761D01*
X191510523Y-140565142D01*
X191558142Y-140469904D01*
X191558142Y-140279428D01*
X191510523Y-140184190D01*
X191462904Y-140136571D01*
X191367666Y-140088952D01*
%TO.C,M7*%
X189891476Y-75361380D02*
X189891476Y-74361380D01*
X190224809Y-75075666D01*
X190558142Y-74361380D01*
X190558142Y-75361380D01*
X190939095Y-74361380D02*
X191605761Y-74361380D01*
X191177190Y-75361380D01*
%TO.C,M6*%
X166830476Y-140787380D02*
X166830476Y-139787380D01*
X167163809Y-140501666D01*
X167497142Y-139787380D01*
X167497142Y-140787380D01*
X168401904Y-139787380D02*
X168211428Y-139787380D01*
X168116190Y-139835000D01*
X168068571Y-139882619D01*
X167973333Y-140025476D01*
X167925714Y-140215952D01*
X167925714Y-140596904D01*
X167973333Y-140692142D01*
X168020952Y-140739761D01*
X168116190Y-140787380D01*
X168306666Y-140787380D01*
X168401904Y-140739761D01*
X168449523Y-140692142D01*
X168497142Y-140596904D01*
X168497142Y-140358809D01*
X168449523Y-140263571D01*
X168401904Y-140215952D01*
X168306666Y-140168333D01*
X168116190Y-140168333D01*
X168020952Y-140215952D01*
X167973333Y-140263571D01*
X167925714Y-140358809D01*
%TO.C,M5*%
X166574476Y-75996380D02*
X166574476Y-74996380D01*
X166907809Y-75710666D01*
X167241142Y-74996380D01*
X167241142Y-75996380D01*
X168193523Y-74996380D02*
X167717333Y-74996380D01*
X167669714Y-75472571D01*
X167717333Y-75424952D01*
X167812571Y-75377333D01*
X168050666Y-75377333D01*
X168145904Y-75424952D01*
X168193523Y-75472571D01*
X168241142Y-75567809D01*
X168241142Y-75805904D01*
X168193523Y-75901142D01*
X168145904Y-75948761D01*
X168050666Y-75996380D01*
X167812571Y-75996380D01*
X167717333Y-75948761D01*
X167669714Y-75901142D01*
%TO.C,J8*%
X190687666Y-94666380D02*
X190687666Y-95380666D01*
X190640047Y-95523523D01*
X190544809Y-95618761D01*
X190401952Y-95666380D01*
X190306714Y-95666380D01*
X191306714Y-95094952D02*
X191211476Y-95047333D01*
X191163857Y-94999714D01*
X191116238Y-94904476D01*
X191116238Y-94856857D01*
X191163857Y-94761619D01*
X191211476Y-94714000D01*
X191306714Y-94666380D01*
X191497190Y-94666380D01*
X191592428Y-94714000D01*
X191640047Y-94761619D01*
X191687666Y-94856857D01*
X191687666Y-94904476D01*
X191640047Y-94999714D01*
X191592428Y-95047333D01*
X191497190Y-95094952D01*
X191306714Y-95094952D01*
X191211476Y-95142571D01*
X191163857Y-95190190D01*
X191116238Y-95285428D01*
X191116238Y-95475904D01*
X191163857Y-95571142D01*
X191211476Y-95618761D01*
X191306714Y-95666380D01*
X191497190Y-95666380D01*
X191592428Y-95618761D01*
X191640047Y-95571142D01*
X191687666Y-95475904D01*
X191687666Y-95285428D01*
X191640047Y-95190190D01*
X191592428Y-95142571D01*
X191497190Y-95094952D01*
%TO.C,R6*%
X131913333Y-107512380D02*
X131580000Y-107036190D01*
X131341904Y-107512380D02*
X131341904Y-106512380D01*
X131722857Y-106512380D01*
X131818095Y-106560000D01*
X131865714Y-106607619D01*
X131913333Y-106702857D01*
X131913333Y-106845714D01*
X131865714Y-106940952D01*
X131818095Y-106988571D01*
X131722857Y-107036190D01*
X131341904Y-107036190D01*
X132770476Y-106512380D02*
X132580000Y-106512380D01*
X132484761Y-106560000D01*
X132437142Y-106607619D01*
X132341904Y-106750476D01*
X132294285Y-106940952D01*
X132294285Y-107321904D01*
X132341904Y-107417142D01*
X132389523Y-107464761D01*
X132484761Y-107512380D01*
X132675238Y-107512380D01*
X132770476Y-107464761D01*
X132818095Y-107417142D01*
X132865714Y-107321904D01*
X132865714Y-107083809D01*
X132818095Y-106988571D01*
X132770476Y-106940952D01*
X132675238Y-106893333D01*
X132484761Y-106893333D01*
X132389523Y-106940952D01*
X132341904Y-106988571D01*
X132294285Y-107083809D01*
%TO.C,R5*%
X131913333Y-113862380D02*
X131580000Y-113386190D01*
X131341904Y-113862380D02*
X131341904Y-112862380D01*
X131722857Y-112862380D01*
X131818095Y-112910000D01*
X131865714Y-112957619D01*
X131913333Y-113052857D01*
X131913333Y-113195714D01*
X131865714Y-113290952D01*
X131818095Y-113338571D01*
X131722857Y-113386190D01*
X131341904Y-113386190D01*
X132818095Y-112862380D02*
X132341904Y-112862380D01*
X132294285Y-113338571D01*
X132341904Y-113290952D01*
X132437142Y-113243333D01*
X132675238Y-113243333D01*
X132770476Y-113290952D01*
X132818095Y-113338571D01*
X132865714Y-113433809D01*
X132865714Y-113671904D01*
X132818095Y-113767142D01*
X132770476Y-113814761D01*
X132675238Y-113862380D01*
X132437142Y-113862380D01*
X132341904Y-113814761D01*
X132294285Y-113767142D01*
%TO.C,R4*%
X130373333Y-73097380D02*
X130040000Y-72621190D01*
X129801904Y-73097380D02*
X129801904Y-72097380D01*
X130182857Y-72097380D01*
X130278095Y-72145000D01*
X130325714Y-72192619D01*
X130373333Y-72287857D01*
X130373333Y-72430714D01*
X130325714Y-72525952D01*
X130278095Y-72573571D01*
X130182857Y-72621190D01*
X129801904Y-72621190D01*
X131230476Y-72430714D02*
X131230476Y-73097380D01*
X130992380Y-72049761D02*
X130754285Y-72764047D01*
X131373333Y-72764047D01*
%TO.C,R3*%
X138533333Y-76397380D02*
X138200000Y-75921190D01*
X137961904Y-76397380D02*
X137961904Y-75397380D01*
X138342857Y-75397380D01*
X138438095Y-75445000D01*
X138485714Y-75492619D01*
X138533333Y-75587857D01*
X138533333Y-75730714D01*
X138485714Y-75825952D01*
X138438095Y-75873571D01*
X138342857Y-75921190D01*
X137961904Y-75921190D01*
X138866666Y-75397380D02*
X139485714Y-75397380D01*
X139152380Y-75778333D01*
X139295238Y-75778333D01*
X139390476Y-75825952D01*
X139438095Y-75873571D01*
X139485714Y-75968809D01*
X139485714Y-76206904D01*
X139438095Y-76302142D01*
X139390476Y-76349761D01*
X139295238Y-76397380D01*
X139009523Y-76397380D01*
X138914285Y-76349761D01*
X138866666Y-76302142D01*
%TO.C,R2*%
X154502380Y-114466666D02*
X154026190Y-114800000D01*
X154502380Y-115038095D02*
X153502380Y-115038095D01*
X153502380Y-114657142D01*
X153550000Y-114561904D01*
X153597619Y-114514285D01*
X153692857Y-114466666D01*
X153835714Y-114466666D01*
X153930952Y-114514285D01*
X153978571Y-114561904D01*
X154026190Y-114657142D01*
X154026190Y-115038095D01*
X153597619Y-114085714D02*
X153550000Y-114038095D01*
X153502380Y-113942857D01*
X153502380Y-113704761D01*
X153550000Y-113609523D01*
X153597619Y-113561904D01*
X153692857Y-113514285D01*
X153788095Y-113514285D01*
X153930952Y-113561904D01*
X154502380Y-114133333D01*
X154502380Y-113514285D01*
%TO.C,R1*%
X159582380Y-114466666D02*
X159106190Y-114800000D01*
X159582380Y-115038095D02*
X158582380Y-115038095D01*
X158582380Y-114657142D01*
X158630000Y-114561904D01*
X158677619Y-114514285D01*
X158772857Y-114466666D01*
X158915714Y-114466666D01*
X159010952Y-114514285D01*
X159058571Y-114561904D01*
X159106190Y-114657142D01*
X159106190Y-115038095D01*
X159582380Y-113514285D02*
X159582380Y-114085714D01*
X159582380Y-113800000D02*
X158582380Y-113800000D01*
X158725238Y-113895238D01*
X158820476Y-113990476D01*
X158868095Y-114085714D01*
%TO.C,JP4*%
X157281666Y-106237380D02*
X157281666Y-106951666D01*
X157234047Y-107094523D01*
X157138809Y-107189761D01*
X156995952Y-107237380D01*
X156900714Y-107237380D01*
X157757857Y-107237380D02*
X157757857Y-106237380D01*
X158138809Y-106237380D01*
X158234047Y-106285000D01*
X158281666Y-106332619D01*
X158329285Y-106427857D01*
X158329285Y-106570714D01*
X158281666Y-106665952D01*
X158234047Y-106713571D01*
X158138809Y-106761190D01*
X157757857Y-106761190D01*
X159186428Y-106570714D02*
X159186428Y-107237380D01*
X158948333Y-106189761D02*
X158710238Y-106904047D01*
X159329285Y-106904047D01*
X155800714Y-109037380D02*
X155229285Y-109037380D01*
X155515000Y-109037380D02*
X155515000Y-108037380D01*
X155419761Y-108180238D01*
X155324523Y-108275476D01*
X155229285Y-108323095D01*
X160381666Y-108037380D02*
X161000714Y-108037380D01*
X160667380Y-108418333D01*
X160810238Y-108418333D01*
X160905476Y-108465952D01*
X160953095Y-108513571D01*
X161000714Y-108608809D01*
X161000714Y-108846904D01*
X160953095Y-108942142D01*
X160905476Y-108989761D01*
X160810238Y-109037380D01*
X160524523Y-109037380D01*
X160429285Y-108989761D01*
X160381666Y-108942142D01*
%TO.C,JP3*%
X148391666Y-106237380D02*
X148391666Y-106951666D01*
X148344047Y-107094523D01*
X148248809Y-107189761D01*
X148105952Y-107237380D01*
X148010714Y-107237380D01*
X148867857Y-107237380D02*
X148867857Y-106237380D01*
X149248809Y-106237380D01*
X149344047Y-106285000D01*
X149391666Y-106332619D01*
X149439285Y-106427857D01*
X149439285Y-106570714D01*
X149391666Y-106665952D01*
X149344047Y-106713571D01*
X149248809Y-106761190D01*
X148867857Y-106761190D01*
X149772619Y-106237380D02*
X150391666Y-106237380D01*
X150058333Y-106618333D01*
X150201190Y-106618333D01*
X150296428Y-106665952D01*
X150344047Y-106713571D01*
X150391666Y-106808809D01*
X150391666Y-107046904D01*
X150344047Y-107142142D01*
X150296428Y-107189761D01*
X150201190Y-107237380D01*
X149915476Y-107237380D01*
X149820238Y-107189761D01*
X149772619Y-107142142D01*
X146910714Y-109037380D02*
X146339285Y-109037380D01*
X146625000Y-109037380D02*
X146625000Y-108037380D01*
X146529761Y-108180238D01*
X146434523Y-108275476D01*
X146339285Y-108323095D01*
X151491666Y-108037380D02*
X152110714Y-108037380D01*
X151777380Y-108418333D01*
X151920238Y-108418333D01*
X152015476Y-108465952D01*
X152063095Y-108513571D01*
X152110714Y-108608809D01*
X152110714Y-108846904D01*
X152063095Y-108942142D01*
X152015476Y-108989761D01*
X151920238Y-109037380D01*
X151634523Y-109037380D01*
X151539285Y-108989761D01*
X151491666Y-108942142D01*
%TO.C,JP2*%
X157281666Y-99972380D02*
X157281666Y-100686666D01*
X157234047Y-100829523D01*
X157138809Y-100924761D01*
X156995952Y-100972380D01*
X156900714Y-100972380D01*
X157757857Y-100972380D02*
X157757857Y-99972380D01*
X158138809Y-99972380D01*
X158234047Y-100020000D01*
X158281666Y-100067619D01*
X158329285Y-100162857D01*
X158329285Y-100305714D01*
X158281666Y-100400952D01*
X158234047Y-100448571D01*
X158138809Y-100496190D01*
X157757857Y-100496190D01*
X158710238Y-100067619D02*
X158757857Y-100020000D01*
X158853095Y-99972380D01*
X159091190Y-99972380D01*
X159186428Y-100020000D01*
X159234047Y-100067619D01*
X159281666Y-100162857D01*
X159281666Y-100258095D01*
X159234047Y-100400952D01*
X158662619Y-100972380D01*
X159281666Y-100972380D01*
X155800714Y-102772380D02*
X155229285Y-102772380D01*
X155515000Y-102772380D02*
X155515000Y-101772380D01*
X155419761Y-101915238D01*
X155324523Y-102010476D01*
X155229285Y-102058095D01*
X160381666Y-101772380D02*
X161000714Y-101772380D01*
X160667380Y-102153333D01*
X160810238Y-102153333D01*
X160905476Y-102200952D01*
X160953095Y-102248571D01*
X161000714Y-102343809D01*
X161000714Y-102581904D01*
X160953095Y-102677142D01*
X160905476Y-102724761D01*
X160810238Y-102772380D01*
X160524523Y-102772380D01*
X160429285Y-102724761D01*
X160381666Y-102677142D01*
%TO.C,JP1*%
X148391666Y-99887380D02*
X148391666Y-100601666D01*
X148344047Y-100744523D01*
X148248809Y-100839761D01*
X148105952Y-100887380D01*
X148010714Y-100887380D01*
X148867857Y-100887380D02*
X148867857Y-99887380D01*
X149248809Y-99887380D01*
X149344047Y-99935000D01*
X149391666Y-99982619D01*
X149439285Y-100077857D01*
X149439285Y-100220714D01*
X149391666Y-100315952D01*
X149344047Y-100363571D01*
X149248809Y-100411190D01*
X148867857Y-100411190D01*
X150391666Y-100887380D02*
X149820238Y-100887380D01*
X150105952Y-100887380D02*
X150105952Y-99887380D01*
X150010714Y-100030238D01*
X149915476Y-100125476D01*
X149820238Y-100173095D01*
X146910714Y-102687380D02*
X146339285Y-102687380D01*
X146625000Y-102687380D02*
X146625000Y-101687380D01*
X146529761Y-101830238D01*
X146434523Y-101925476D01*
X146339285Y-101973095D01*
X151491666Y-101687380D02*
X152110714Y-101687380D01*
X151777380Y-102068333D01*
X151920238Y-102068333D01*
X152015476Y-102115952D01*
X152063095Y-102163571D01*
X152110714Y-102258809D01*
X152110714Y-102496904D01*
X152063095Y-102592142D01*
X152015476Y-102639761D01*
X151920238Y-102687380D01*
X151634523Y-102687380D01*
X151539285Y-102639761D01*
X151491666Y-102592142D01*
%TO.C,U1*%
X144653095Y-74382380D02*
X144653095Y-75191904D01*
X144700714Y-75287142D01*
X144748333Y-75334761D01*
X144843571Y-75382380D01*
X145034047Y-75382380D01*
X145129285Y-75334761D01*
X145176904Y-75287142D01*
X145224523Y-75191904D01*
X145224523Y-74382380D01*
X146224523Y-75382380D02*
X145653095Y-75382380D01*
X145938809Y-75382380D02*
X145938809Y-74382380D01*
X145843571Y-74525238D01*
X145748333Y-74620476D01*
X145653095Y-74668095D01*
%TO.C,U3*%
X156083095Y-124012380D02*
X156083095Y-124821904D01*
X156130714Y-124917142D01*
X156178333Y-124964761D01*
X156273571Y-125012380D01*
X156464047Y-125012380D01*
X156559285Y-124964761D01*
X156606904Y-124917142D01*
X156654523Y-124821904D01*
X156654523Y-124012380D01*
X157035476Y-124012380D02*
X157654523Y-124012380D01*
X157321190Y-124393333D01*
X157464047Y-124393333D01*
X157559285Y-124440952D01*
X157606904Y-124488571D01*
X157654523Y-124583809D01*
X157654523Y-124821904D01*
X157606904Y-124917142D01*
X157559285Y-124964761D01*
X157464047Y-125012380D01*
X157178333Y-125012380D01*
X157083095Y-124964761D01*
X157035476Y-124917142D01*
%TO.C,J6*%
X162226666Y-144867380D02*
X162226666Y-145581666D01*
X162179047Y-145724523D01*
X162083809Y-145819761D01*
X161940952Y-145867380D01*
X161845714Y-145867380D01*
X163131428Y-144867380D02*
X162940952Y-144867380D01*
X162845714Y-144915000D01*
X162798095Y-144962619D01*
X162702857Y-145105476D01*
X162655238Y-145295952D01*
X162655238Y-145676904D01*
X162702857Y-145772142D01*
X162750476Y-145819761D01*
X162845714Y-145867380D01*
X163036190Y-145867380D01*
X163131428Y-145819761D01*
X163179047Y-145772142D01*
X163226666Y-145676904D01*
X163226666Y-145438809D01*
X163179047Y-145343571D01*
X163131428Y-145295952D01*
X163036190Y-145248333D01*
X162845714Y-145248333D01*
X162750476Y-145295952D01*
X162702857Y-145343571D01*
X162655238Y-145438809D01*
%TO.C,D6*%
X131341904Y-110687380D02*
X131341904Y-109687380D01*
X131580000Y-109687380D01*
X131722857Y-109735000D01*
X131818095Y-109830238D01*
X131865714Y-109925476D01*
X131913333Y-110115952D01*
X131913333Y-110258809D01*
X131865714Y-110449285D01*
X131818095Y-110544523D01*
X131722857Y-110639761D01*
X131580000Y-110687380D01*
X131341904Y-110687380D01*
X132770476Y-109687380D02*
X132580000Y-109687380D01*
X132484761Y-109735000D01*
X132437142Y-109782619D01*
X132341904Y-109925476D01*
X132294285Y-110115952D01*
X132294285Y-110496904D01*
X132341904Y-110592142D01*
X132389523Y-110639761D01*
X132484761Y-110687380D01*
X132675238Y-110687380D01*
X132770476Y-110639761D01*
X132818095Y-110592142D01*
X132865714Y-110496904D01*
X132865714Y-110258809D01*
X132818095Y-110163571D01*
X132770476Y-110115952D01*
X132675238Y-110068333D01*
X132484761Y-110068333D01*
X132389523Y-110115952D01*
X132341904Y-110163571D01*
X132294285Y-110258809D01*
%TO.C,D5*%
X131341904Y-117037380D02*
X131341904Y-116037380D01*
X131580000Y-116037380D01*
X131722857Y-116085000D01*
X131818095Y-116180238D01*
X131865714Y-116275476D01*
X131913333Y-116465952D01*
X131913333Y-116608809D01*
X131865714Y-116799285D01*
X131818095Y-116894523D01*
X131722857Y-116989761D01*
X131580000Y-117037380D01*
X131341904Y-117037380D01*
X132818095Y-116037380D02*
X132341904Y-116037380D01*
X132294285Y-116513571D01*
X132341904Y-116465952D01*
X132437142Y-116418333D01*
X132675238Y-116418333D01*
X132770476Y-116465952D01*
X132818095Y-116513571D01*
X132865714Y-116608809D01*
X132865714Y-116846904D01*
X132818095Y-116942142D01*
X132770476Y-116989761D01*
X132675238Y-117037380D01*
X132437142Y-117037380D01*
X132341904Y-116989761D01*
X132294285Y-116942142D01*
%TO.C,D4*%
X133881904Y-76397380D02*
X133881904Y-75397380D01*
X134120000Y-75397380D01*
X134262857Y-75445000D01*
X134358095Y-75540238D01*
X134405714Y-75635476D01*
X134453333Y-75825952D01*
X134453333Y-75968809D01*
X134405714Y-76159285D01*
X134358095Y-76254523D01*
X134262857Y-76349761D01*
X134120000Y-76397380D01*
X133881904Y-76397380D01*
X135310476Y-75730714D02*
X135310476Y-76397380D01*
X135072380Y-75349761D02*
X134834285Y-76064047D01*
X135453333Y-76064047D01*
%TO.C,D3*%
X139262380Y-71223095D02*
X138262380Y-71223095D01*
X138262380Y-70985000D01*
X138310000Y-70842142D01*
X138405238Y-70746904D01*
X138500476Y-70699285D01*
X138690952Y-70651666D01*
X138833809Y-70651666D01*
X139024285Y-70699285D01*
X139119523Y-70746904D01*
X139214761Y-70842142D01*
X139262380Y-70985000D01*
X139262380Y-71223095D01*
X138262380Y-70318333D02*
X138262380Y-69699285D01*
X138643333Y-70032619D01*
X138643333Y-69889761D01*
X138690952Y-69794523D01*
X138738571Y-69746904D01*
X138833809Y-69699285D01*
X139071904Y-69699285D01*
X139167142Y-69746904D01*
X139214761Y-69794523D01*
X139262380Y-69889761D01*
X139262380Y-70175476D01*
X139214761Y-70270714D01*
X139167142Y-70318333D01*
%TO.C,D2*%
X151327380Y-115038095D02*
X150327380Y-115038095D01*
X150327380Y-114800000D01*
X150375000Y-114657142D01*
X150470238Y-114561904D01*
X150565476Y-114514285D01*
X150755952Y-114466666D01*
X150898809Y-114466666D01*
X151089285Y-114514285D01*
X151184523Y-114561904D01*
X151279761Y-114657142D01*
X151327380Y-114800000D01*
X151327380Y-115038095D01*
X150422619Y-114085714D02*
X150375000Y-114038095D01*
X150327380Y-113942857D01*
X150327380Y-113704761D01*
X150375000Y-113609523D01*
X150422619Y-113561904D01*
X150517857Y-113514285D01*
X150613095Y-113514285D01*
X150755952Y-113561904D01*
X151327380Y-114133333D01*
X151327380Y-113514285D01*
%TO.C,D1*%
X162757380Y-115038095D02*
X161757380Y-115038095D01*
X161757380Y-114800000D01*
X161805000Y-114657142D01*
X161900238Y-114561904D01*
X161995476Y-114514285D01*
X162185952Y-114466666D01*
X162328809Y-114466666D01*
X162519285Y-114514285D01*
X162614523Y-114561904D01*
X162709761Y-114657142D01*
X162757380Y-114800000D01*
X162757380Y-115038095D01*
X162757380Y-113514285D02*
X162757380Y-114085714D01*
X162757380Y-113800000D02*
X161757380Y-113800000D01*
X161900238Y-113895238D01*
X161995476Y-113990476D01*
X162043095Y-114085714D01*
%TO.C,C8*%
X148544642Y-136691666D02*
X148592261Y-136739285D01*
X148639880Y-136882142D01*
X148639880Y-136977380D01*
X148592261Y-137120238D01*
X148497023Y-137215476D01*
X148401785Y-137263095D01*
X148211309Y-137310714D01*
X148068452Y-137310714D01*
X147877976Y-137263095D01*
X147782738Y-137215476D01*
X147687500Y-137120238D01*
X147639880Y-136977380D01*
X147639880Y-136882142D01*
X147687500Y-136739285D01*
X147735119Y-136691666D01*
X148068452Y-136120238D02*
X148020833Y-136215476D01*
X147973214Y-136263095D01*
X147877976Y-136310714D01*
X147830357Y-136310714D01*
X147735119Y-136263095D01*
X147687500Y-136215476D01*
X147639880Y-136120238D01*
X147639880Y-135929761D01*
X147687500Y-135834523D01*
X147735119Y-135786904D01*
X147830357Y-135739285D01*
X147877976Y-135739285D01*
X147973214Y-135786904D01*
X148020833Y-135834523D01*
X148068452Y-135929761D01*
X148068452Y-136120238D01*
X148116071Y-136215476D01*
X148163690Y-136263095D01*
X148258928Y-136310714D01*
X148449404Y-136310714D01*
X148544642Y-136263095D01*
X148592261Y-136215476D01*
X148639880Y-136120238D01*
X148639880Y-135929761D01*
X148592261Y-135834523D01*
X148544642Y-135786904D01*
X148449404Y-135739285D01*
X148258928Y-135739285D01*
X148163690Y-135786904D01*
X148116071Y-135834523D01*
X148068452Y-135929761D01*
%TO.C,C7*%
X158583333Y-120597142D02*
X158535714Y-120644761D01*
X158392857Y-120692380D01*
X158297619Y-120692380D01*
X158154761Y-120644761D01*
X158059523Y-120549523D01*
X158011904Y-120454285D01*
X157964285Y-120263809D01*
X157964285Y-120120952D01*
X158011904Y-119930476D01*
X158059523Y-119835238D01*
X158154761Y-119740000D01*
X158297619Y-119692380D01*
X158392857Y-119692380D01*
X158535714Y-119740000D01*
X158583333Y-119787619D01*
X158916666Y-119692380D02*
X159583333Y-119692380D01*
X159154761Y-120692380D01*
%TO.C,C6*%
X158583333Y-117422142D02*
X158535714Y-117469761D01*
X158392857Y-117517380D01*
X158297619Y-117517380D01*
X158154761Y-117469761D01*
X158059523Y-117374523D01*
X158011904Y-117279285D01*
X157964285Y-117088809D01*
X157964285Y-116945952D01*
X158011904Y-116755476D01*
X158059523Y-116660238D01*
X158154761Y-116565000D01*
X158297619Y-116517380D01*
X158392857Y-116517380D01*
X158535714Y-116565000D01*
X158583333Y-116612619D01*
X159440476Y-116517380D02*
X159250000Y-116517380D01*
X159154761Y-116565000D01*
X159107142Y-116612619D01*
X159011904Y-116755476D01*
X158964285Y-116945952D01*
X158964285Y-117326904D01*
X159011904Y-117422142D01*
X159059523Y-117469761D01*
X159154761Y-117517380D01*
X159345238Y-117517380D01*
X159440476Y-117469761D01*
X159488095Y-117422142D01*
X159535714Y-117326904D01*
X159535714Y-117088809D01*
X159488095Y-116993571D01*
X159440476Y-116945952D01*
X159345238Y-116898333D01*
X159154761Y-116898333D01*
X159059523Y-116945952D01*
X159011904Y-116993571D01*
X158964285Y-117088809D01*
%TO.C,U2*%
X139352976Y-120846904D02*
X139352976Y-121494524D01*
X139391071Y-121570714D01*
X139429167Y-121608809D01*
X139505357Y-121646905D01*
X139657738Y-121646905D01*
X139733929Y-121608809D01*
X139772024Y-121570714D01*
X139810119Y-121494524D01*
X139810119Y-120846904D01*
X140152977Y-120923094D02*
X140191072Y-120884999D01*
X140267263Y-120846904D01*
X140457739Y-120846904D01*
X140533930Y-120884999D01*
X140572025Y-120923094D01*
X140610120Y-120999285D01*
X140610120Y-121075475D01*
X140572025Y-121189761D01*
X140114882Y-121646905D01*
X140610120Y-121646905D01*
X137734523Y-131626428D02*
X136464523Y-131626428D01*
X137371666Y-131203095D01*
X136464523Y-130779761D01*
X137734523Y-130779761D01*
X137371666Y-130235476D02*
X137371666Y-129630714D01*
X137734523Y-130356428D02*
X136464523Y-129933095D01*
X137734523Y-129509761D01*
X136464523Y-129207380D02*
X137734523Y-128360714D01*
X136464523Y-128360714D02*
X137734523Y-129207380D01*
X136464523Y-127997857D02*
X136464523Y-127211666D01*
X136948333Y-127635000D01*
X136948333Y-127453571D01*
X137008809Y-127332619D01*
X137069285Y-127272142D01*
X137190238Y-127211666D01*
X137492619Y-127211666D01*
X137613571Y-127272142D01*
X137674047Y-127332619D01*
X137734523Y-127453571D01*
X137734523Y-127816428D01*
X137674047Y-127937380D01*
X137613571Y-127997857D01*
X136585476Y-126727857D02*
X136525000Y-126667380D01*
X136464523Y-126546428D01*
X136464523Y-126244047D01*
X136525000Y-126123095D01*
X136585476Y-126062619D01*
X136706428Y-126002142D01*
X136827380Y-126002142D01*
X137008809Y-126062619D01*
X137734523Y-126788333D01*
X137734523Y-126002142D01*
X136464523Y-125578809D02*
X136464523Y-124792619D01*
X136948333Y-125215952D01*
X136948333Y-125034523D01*
X137008809Y-124913571D01*
X137069285Y-124853095D01*
X137190238Y-124792619D01*
X137492619Y-124792619D01*
X137613571Y-124853095D01*
X137674047Y-124913571D01*
X137734523Y-125034523D01*
X137734523Y-125397380D01*
X137674047Y-125518333D01*
X137613571Y-125578809D01*
X136585476Y-124308809D02*
X136525000Y-124248333D01*
X136464523Y-124127380D01*
X136464523Y-123825000D01*
X136525000Y-123704047D01*
X136585476Y-123643571D01*
X136706428Y-123583095D01*
X136827380Y-123583095D01*
X137008809Y-123643571D01*
X137734523Y-124369285D01*
X137734523Y-123583095D01*
%TO.C,M4*%
X191116476Y-140316380D02*
X191116476Y-139316380D01*
X191449809Y-140030666D01*
X191783142Y-139316380D01*
X191783142Y-140316380D01*
X192687904Y-139649714D02*
X192687904Y-140316380D01*
X192449809Y-139268761D02*
X192211714Y-139983047D01*
X192830761Y-139983047D01*
%TO.C,M3*%
X111106476Y-140316380D02*
X111106476Y-139316380D01*
X111439809Y-140030666D01*
X111773142Y-139316380D01*
X111773142Y-140316380D01*
X112154095Y-139316380D02*
X112773142Y-139316380D01*
X112439809Y-139697333D01*
X112582666Y-139697333D01*
X112677904Y-139744952D01*
X112725523Y-139792571D01*
X112773142Y-139887809D01*
X112773142Y-140125904D01*
X112725523Y-140221142D01*
X112677904Y-140268761D01*
X112582666Y-140316380D01*
X112296952Y-140316380D01*
X112201714Y-140268761D01*
X112154095Y-140221142D01*
%TO.C,M2*%
X188576476Y-54591380D02*
X188576476Y-53591380D01*
X188909809Y-54305666D01*
X189243142Y-53591380D01*
X189243142Y-54591380D01*
X189671714Y-53686619D02*
X189719333Y-53639000D01*
X189814571Y-53591380D01*
X190052666Y-53591380D01*
X190147904Y-53639000D01*
X190195523Y-53686619D01*
X190243142Y-53781857D01*
X190243142Y-53877095D01*
X190195523Y-54019952D01*
X189624095Y-54591380D01*
X190243142Y-54591380D01*
%TO.C,M1*%
X114916476Y-54591380D02*
X114916476Y-53591380D01*
X115249809Y-54305666D01*
X115583142Y-53591380D01*
X115583142Y-54591380D01*
X116583142Y-54591380D02*
X116011714Y-54591380D01*
X116297428Y-54591380D02*
X116297428Y-53591380D01*
X116202190Y-53734238D01*
X116106952Y-53829476D01*
X116011714Y-53877095D01*
%TO.C,J7*%
X179371666Y-143192380D02*
X179371666Y-143906666D01*
X179324047Y-144049523D01*
X179228809Y-144144761D01*
X179085952Y-144192380D01*
X178990714Y-144192380D01*
X179752619Y-143192380D02*
X180419285Y-143192380D01*
X179990714Y-144192380D01*
%TO.C,J4*%
X113672666Y-63051380D02*
X113672666Y-63765666D01*
X113625047Y-63908523D01*
X113529809Y-64003761D01*
X113386952Y-64051380D01*
X113291714Y-64051380D01*
X114577428Y-63384714D02*
X114577428Y-64051380D01*
X114339333Y-63003761D02*
X114101238Y-63718047D01*
X114720285Y-63718047D01*
%TO.C,J3*%
X121586666Y-81772380D02*
X121586666Y-82486666D01*
X121539047Y-82629523D01*
X121443809Y-82724761D01*
X121300952Y-82772380D01*
X121205714Y-82772380D01*
X121967619Y-81772380D02*
X122586666Y-81772380D01*
X122253333Y-82153333D01*
X122396190Y-82153333D01*
X122491428Y-82200952D01*
X122539047Y-82248571D01*
X122586666Y-82343809D01*
X122586666Y-82581904D01*
X122539047Y-82677142D01*
X122491428Y-82724761D01*
X122396190Y-82772380D01*
X122110476Y-82772380D01*
X122015238Y-82724761D01*
X121967619Y-82677142D01*
%TO.C,J2*%
X121586666Y-136842380D02*
X121586666Y-137556666D01*
X121539047Y-137699523D01*
X121443809Y-137794761D01*
X121300952Y-137842380D01*
X121205714Y-137842380D01*
X122015238Y-136937619D02*
X122062857Y-136890000D01*
X122158095Y-136842380D01*
X122396190Y-136842380D01*
X122491428Y-136890000D01*
X122539047Y-136937619D01*
X122586666Y-137032857D01*
X122586666Y-137128095D01*
X122539047Y-137270952D01*
X121967619Y-137842380D01*
X122586666Y-137842380D01*
%TO.C,H2*%
X119888095Y-55697380D02*
X119888095Y-54697380D01*
X119888095Y-55173571D02*
X120459523Y-55173571D01*
X120459523Y-55697380D02*
X120459523Y-54697380D01*
X120888095Y-54792619D02*
X120935714Y-54745000D01*
X121030952Y-54697380D01*
X121269047Y-54697380D01*
X121364285Y-54745000D01*
X121411904Y-54792619D01*
X121459523Y-54887857D01*
X121459523Y-54983095D01*
X121411904Y-55125952D01*
X120840476Y-55697380D01*
X121459523Y-55697380D01*
%TO.C,H1*%
X119888095Y-68397380D02*
X119888095Y-67397380D01*
X119888095Y-67873571D02*
X120459523Y-67873571D01*
X120459523Y-68397380D02*
X120459523Y-67397380D01*
X121459523Y-68397380D02*
X120888095Y-68397380D01*
X121173809Y-68397380D02*
X121173809Y-67397380D01*
X121078571Y-67540238D01*
X120983333Y-67635476D01*
X120888095Y-67683095D01*
%TO.C,C5*%
X144912142Y-123356666D02*
X144959761Y-123404285D01*
X145007380Y-123547142D01*
X145007380Y-123642380D01*
X144959761Y-123785238D01*
X144864523Y-123880476D01*
X144769285Y-123928095D01*
X144578809Y-123975714D01*
X144435952Y-123975714D01*
X144245476Y-123928095D01*
X144150238Y-123880476D01*
X144055000Y-123785238D01*
X144007380Y-123642380D01*
X144007380Y-123547142D01*
X144055000Y-123404285D01*
X144102619Y-123356666D01*
X144007380Y-122451904D02*
X144007380Y-122928095D01*
X144483571Y-122975714D01*
X144435952Y-122928095D01*
X144388333Y-122832857D01*
X144388333Y-122594761D01*
X144435952Y-122499523D01*
X144483571Y-122451904D01*
X144578809Y-122404285D01*
X144816904Y-122404285D01*
X144912142Y-122451904D01*
X144959761Y-122499523D01*
X145007380Y-122594761D01*
X145007380Y-122832857D01*
X144959761Y-122928095D01*
X144912142Y-122975714D01*
%TO.C,C4*%
X129487142Y-132881666D02*
X129534761Y-132929285D01*
X129582380Y-133072142D01*
X129582380Y-133167380D01*
X129534761Y-133310238D01*
X129439523Y-133405476D01*
X129344285Y-133453095D01*
X129153809Y-133500714D01*
X129010952Y-133500714D01*
X128820476Y-133453095D01*
X128725238Y-133405476D01*
X128630000Y-133310238D01*
X128582380Y-133167380D01*
X128582380Y-133072142D01*
X128630000Y-132929285D01*
X128677619Y-132881666D01*
X128915714Y-132024523D02*
X129582380Y-132024523D01*
X128534761Y-132262619D02*
X129249047Y-132500714D01*
X129249047Y-131881666D01*
%TO.C,C3*%
X135320833Y-118692142D02*
X135273214Y-118739761D01*
X135130357Y-118787380D01*
X135035119Y-118787380D01*
X134892261Y-118739761D01*
X134797023Y-118644523D01*
X134749404Y-118549285D01*
X134701785Y-118358809D01*
X134701785Y-118215952D01*
X134749404Y-118025476D01*
X134797023Y-117930238D01*
X134892261Y-117835000D01*
X135035119Y-117787380D01*
X135130357Y-117787380D01*
X135273214Y-117835000D01*
X135320833Y-117882619D01*
X135654166Y-117787380D02*
X136273214Y-117787380D01*
X135939880Y-118168333D01*
X136082738Y-118168333D01*
X136177976Y-118215952D01*
X136225595Y-118263571D01*
X136273214Y-118358809D01*
X136273214Y-118596904D01*
X136225595Y-118692142D01*
X136177976Y-118739761D01*
X136082738Y-118787380D01*
X135797023Y-118787380D01*
X135701785Y-118739761D01*
X135654166Y-118692142D01*
%TO.C,C2*%
X132847142Y-127801666D02*
X132894761Y-127849285D01*
X132942380Y-127992142D01*
X132942380Y-128087380D01*
X132894761Y-128230238D01*
X132799523Y-128325476D01*
X132704285Y-128373095D01*
X132513809Y-128420714D01*
X132370952Y-128420714D01*
X132180476Y-128373095D01*
X132085238Y-128325476D01*
X131990000Y-128230238D01*
X131942380Y-128087380D01*
X131942380Y-127992142D01*
X131990000Y-127849285D01*
X132037619Y-127801666D01*
X132037619Y-127420714D02*
X131990000Y-127373095D01*
X131942380Y-127277857D01*
X131942380Y-127039761D01*
X131990000Y-126944523D01*
X132037619Y-126896904D01*
X132132857Y-126849285D01*
X132228095Y-126849285D01*
X132370952Y-126896904D01*
X132942380Y-127468333D01*
X132942380Y-126849285D01*
%TO.C,C1*%
X129487142Y-122721666D02*
X129534761Y-122769285D01*
X129582380Y-122912142D01*
X129582380Y-123007380D01*
X129534761Y-123150238D01*
X129439523Y-123245476D01*
X129344285Y-123293095D01*
X129153809Y-123340714D01*
X129010952Y-123340714D01*
X128820476Y-123293095D01*
X128725238Y-123245476D01*
X128630000Y-123150238D01*
X128582380Y-123007380D01*
X128582380Y-122912142D01*
X128630000Y-122769285D01*
X128677619Y-122721666D01*
X129582380Y-121769285D02*
X129582380Y-122340714D01*
X129582380Y-122055000D02*
X128582380Y-122055000D01*
X128725238Y-122150238D01*
X128820476Y-122245476D01*
X128868095Y-122340714D01*
%TD*%
M02*
