M48
; DRILL file {KiCad (5.1.9)-1} date 11/11/21 22:19:22
; FORMAT={-:-/ absolute / inch / decimal}
; #@! TF.CreationDate,2021-11-11T22:19:22-05:00
; #@! TF.GenerationSoftware,Kicad,Pcbnew,(5.1.9)-1
; #@! TF.FileFunction,Plated,1,2,PTH
FMAT,2
INCH
T1C0.0157
T2C0.0197
T3C0.0276
T4C0.0300
T5C0.0315
T6C0.0394
T7C0.1260
%
G90
G05
T1
X4.775Y-3.05
X4.825Y-3.0
X4.85Y-2.7
X5.035Y-3.65
X5.075Y-3.775
X5.1Y-3.15
X5.125Y-3.2
X5.2Y-3.4
X5.325Y-2.7
X5.325Y-3.55
X5.475Y-2.7
X5.525Y-3.85
X5.525Y-4.675
X5.5375Y-4.3125
X5.575Y-4.25
X5.6Y-4.625
X5.7Y-4.025
X5.7Y-4.49
X5.7311Y-4.625
X5.775Y-2.8914
X5.825Y-4.355
X5.825Y-4.725
X5.825Y-4.625
X5.85Y-2.8914
X5.9Y-4.725
X5.925Y-3.55
X5.9262Y-4.1012
X5.95Y-4.4
X6.0486Y-4.6236
X6.175Y-2.7
X6.2762Y-4.1488
X6.4Y-2.86
X6.4Y-3.85
X6.44Y-2.9
X6.4888Y-2.7612
X6.5324Y-2.8048
X6.9Y-5.0
X6.95Y-4.875
T2
X4.4Y-3.025
X4.4884Y-2.5842
X4.4884Y-2.6334
X4.4884Y-2.6826
X4.4884Y-2.7319
X4.4884Y-2.7811
X4.4884Y-2.8303
X4.4884Y-2.8795
X4.4884Y-2.9287
X4.4884Y-2.9779
X4.55Y-4.425
X4.63Y-5.32
X4.7Y-4.425
X5.01Y-4.495
X5.15Y-5.55
X5.175Y-3.95
X5.225Y-4.925
X5.325Y-4.05
X5.5Y-4.515
X5.5Y-4.95
X5.6Y-5.175
X5.65Y-4.85
X5.825Y-5.15
X5.99Y-4.74
X6.01Y-2.66
X6.05Y-4.075
X6.05Y-4.275
X6.1Y-5.225
X6.225Y-4.825
X6.275Y-5.1
X6.35Y-4.275
X6.4Y-4.475
X6.4Y-4.675
X6.825Y-5.145
X7.26Y-5.22
X7.36Y-5.4
T4
X5.525Y-3.725
X5.625Y-3.725
X5.725Y-3.725
X5.825Y-3.725
X5.925Y-3.725
X6.025Y-3.725
T6
X4.75Y-3.35
X4.75Y-3.45
X4.75Y-3.55
X4.75Y-3.65
X4.75Y-3.75
X4.75Y-3.85
X4.75Y-3.95
X4.75Y-4.05
X4.75Y-4.15
X4.75Y-4.25
X4.75Y-4.6
X4.75Y-4.7
X4.75Y-4.8
X4.75Y-4.9
X4.75Y-5.0
X4.75Y-5.1
X4.75Y-5.2
X4.75Y-5.3
X4.7561Y-2.2811
X4.7561Y-2.3811
X4.7561Y-2.4811
X4.7561Y-2.5811
X4.85Y-3.35
X4.85Y-3.45
X4.85Y-3.55
X4.85Y-3.65
X4.85Y-3.75
X4.85Y-3.85
X4.85Y-3.95
X4.85Y-4.05
X4.85Y-4.15
X4.85Y-4.25
X4.85Y-4.6
X4.85Y-4.7
X4.85Y-4.8
X4.85Y-4.9
X4.85Y-5.0
X4.85Y-5.1
X4.85Y-5.2
X4.85Y-5.3
X4.8561Y-2.2811
X4.8561Y-2.3811
X4.8561Y-2.4811
X4.8561Y-2.5811
X4.9561Y-2.2811
X4.9561Y-2.3811
X4.9561Y-2.4811
X4.9561Y-2.5811
X5.0561Y-2.2811
X5.0561Y-2.3811
X5.0561Y-2.4811
X5.0561Y-2.5811
X5.1561Y-2.2811
X5.1561Y-2.3811
X5.1561Y-2.4811
X5.1561Y-2.5811
X5.2561Y-2.2811
X5.2561Y-2.3811
X5.2561Y-2.4811
X5.2561Y-2.5811
X5.3561Y-2.2811
X5.3561Y-2.3811
X5.3561Y-2.4811
X5.3561Y-2.5811
X5.4561Y-2.2811
X5.4561Y-2.3811
X5.4561Y-2.4811
X5.4561Y-2.5811
X5.5561Y-2.2811
X5.5561Y-2.3811
X5.5561Y-2.4811
X5.5561Y-2.5811
X5.6561Y-2.2811
X5.6561Y-2.3811
X5.6561Y-2.4811
X5.6561Y-2.5811
X5.7561Y-2.2811
X5.7561Y-2.3811
X5.7561Y-2.4811
X5.7561Y-2.5811
X5.8561Y-2.2811
X5.8561Y-2.3811
X5.8561Y-2.4811
X5.8561Y-2.5811
X5.9561Y-2.2811
X5.9561Y-2.3811
X5.9561Y-2.4811
X5.9561Y-2.5811
X6.0561Y-2.2811
X6.0561Y-2.3811
X6.0561Y-2.4811
X6.0561Y-2.5811
X6.1561Y-2.2811
X6.1561Y-2.3811
X6.1561Y-2.4811
X6.1561Y-2.5811
X6.2561Y-2.2811
X6.2561Y-2.3811
X6.2561Y-2.4811
X6.2561Y-2.5811
X6.3561Y-2.2811
X6.3561Y-2.3811
X6.3561Y-2.4811
X6.3561Y-2.5811
X6.4561Y-2.2811
X6.4561Y-2.3811
X6.4561Y-2.4811
X6.4561Y-2.5811
X6.5455Y-3.3076
X6.5455Y-3.4076
X6.5455Y-3.5076
X6.5455Y-3.6076
X6.5455Y-3.7076
X6.5455Y-3.8076
X6.5455Y-3.9076
X6.5455Y-4.0076
X6.5455Y-4.1076
X6.5455Y-4.2076
X6.5455Y-4.3076
X6.5455Y-4.4076
X6.5455Y-4.5076
X6.5455Y-4.6076
X6.5455Y-4.7076
X6.5455Y-4.8076
X6.5455Y-4.9076
X6.5455Y-5.0076
X6.5455Y-5.1076
X6.5455Y-5.2076
X6.5561Y-2.2811
X6.5561Y-2.3811
X6.5561Y-2.4811
X6.5561Y-2.5811
X6.6455Y-3.3076
X6.6455Y-3.4076
X6.6455Y-3.5076
X6.6455Y-3.6076
X6.6455Y-3.7076
X6.6455Y-3.8076
X6.6455Y-3.9076
X6.6455Y-4.0076
X6.6455Y-4.1076
X6.6455Y-4.2076
X6.6455Y-4.3076
X6.6455Y-4.4076
X6.6455Y-4.5076
X6.6455Y-4.6076
X6.6455Y-4.7076
X6.6455Y-4.8076
X6.6455Y-4.9076
X6.6455Y-5.0076
X6.6455Y-5.1076
X6.6455Y-5.2076
X6.6561Y-2.2811
X6.6561Y-2.3811
X6.6561Y-2.4811
X6.6561Y-2.5811
X6.7561Y-2.2811
X6.7561Y-2.3811
X6.7561Y-2.4811
X6.7561Y-2.5811
X6.8561Y-2.2811
X6.8561Y-2.3811
X6.8561Y-2.4811
X6.8561Y-2.5811
X6.9561Y-2.2811
X6.9561Y-2.3811
X6.9561Y-2.4811
X6.9561Y-2.5811
X7.02Y-5.66
X7.0561Y-2.2811
X7.0561Y-2.3811
X7.0561Y-2.4811
X7.0561Y-2.5811
X7.12Y-5.66
X7.1561Y-2.2811
X7.1561Y-2.3811
X7.1561Y-2.4811
X7.1561Y-2.5811
X7.2561Y-2.2811
X7.2561Y-2.3811
X7.2561Y-2.4811
X7.2561Y-2.5811
X7.5205Y-3.8576
X7.5205Y-3.9576
T7
X4.4061Y-5.6561
X4.5561Y-2.2811
X7.4561Y-2.2811
X7.5561Y-5.6561
T3
G00X5.924Y-5.5648
M15
G01X5.9161Y-5.5648
M16
G05
G00X6.1839Y-5.5648
M15
G01X6.176Y-5.5648
M16
G05
T5
G00X5.9083Y-5.6848
M15
G01X5.9083Y-5.6652
M16
G05
G00X6.1917Y-5.6848
M15
G01X6.1917Y-5.6652
M16
G05
T0
M30
