%TF.GenerationSoftware,KiCad,Pcbnew,(5.1.9)-1*%
%TF.CreationDate,2021-11-28T13:45:01-05:00*%
%TF.ProjectId,REVERB Interface,52455645-5242-4204-996e-746572666163,rev?*%
%TF.SameCoordinates,Original*%
%TF.FileFunction,Paste,Top*%
%TF.FilePolarity,Positive*%
%FSLAX46Y46*%
G04 Gerber Fmt 4.6, Leading zero omitted, Abs format (unit mm)*
G04 Created by KiCad (PCBNEW (5.1.9)-1) date 2021-11-28 13:45:01*
%MOMM*%
%LPD*%
G01*
G04 APERTURE LIST*
%ADD10R,1.750000X0.450000*%
%ADD11R,1.100000X1.350000*%
%ADD12R,0.400000X2.000000*%
G04 APERTURE END LIST*
%TO.C,R2*%
G36*
G01*
X182488000Y-107579000D02*
X182488000Y-108829000D01*
G75*
G02*
X182238000Y-109079000I-250000J0D01*
G01*
X181438000Y-109079000D01*
G75*
G02*
X181188000Y-108829000I0J250000D01*
G01*
X181188000Y-107579000D01*
G75*
G02*
X181438000Y-107329000I250000J0D01*
G01*
X182238000Y-107329000D01*
G75*
G02*
X182488000Y-107579000I0J-250000D01*
G01*
G37*
G36*
G01*
X185588000Y-107579000D02*
X185588000Y-108829000D01*
G75*
G02*
X185338000Y-109079000I-250000J0D01*
G01*
X184538000Y-109079000D01*
G75*
G02*
X184288000Y-108829000I0J250000D01*
G01*
X184288000Y-107579000D01*
G75*
G02*
X184538000Y-107329000I250000J0D01*
G01*
X185338000Y-107329000D01*
G75*
G02*
X185588000Y-107579000I0J-250000D01*
G01*
G37*
%TD*%
%TO.C,R1*%
G36*
G01*
X182488000Y-111643000D02*
X182488000Y-112893000D01*
G75*
G02*
X182238000Y-113143000I-250000J0D01*
G01*
X181438000Y-113143000D01*
G75*
G02*
X181188000Y-112893000I0J250000D01*
G01*
X181188000Y-111643000D01*
G75*
G02*
X181438000Y-111393000I250000J0D01*
G01*
X182238000Y-111393000D01*
G75*
G02*
X182488000Y-111643000I0J-250000D01*
G01*
G37*
G36*
G01*
X185588000Y-111643000D02*
X185588000Y-112893000D01*
G75*
G02*
X185338000Y-113143000I-250000J0D01*
G01*
X184538000Y-113143000D01*
G75*
G02*
X184288000Y-112893000I0J250000D01*
G01*
X184288000Y-111643000D01*
G75*
G02*
X184538000Y-111393000I250000J0D01*
G01*
X185338000Y-111393000D01*
G75*
G02*
X185588000Y-111643000I0J-250000D01*
G01*
G37*
%TD*%
%TO.C,U5*%
G36*
G01*
X180175000Y-91925000D02*
X180175000Y-92225000D01*
G75*
G02*
X180025000Y-92375000I-150000J0D01*
G01*
X178375000Y-92375000D01*
G75*
G02*
X178225000Y-92225000I0J150000D01*
G01*
X178225000Y-91925000D01*
G75*
G02*
X178375000Y-91775000I150000J0D01*
G01*
X180025000Y-91775000D01*
G75*
G02*
X180175000Y-91925000I0J-150000D01*
G01*
G37*
G36*
G01*
X180175000Y-90655000D02*
X180175000Y-90955000D01*
G75*
G02*
X180025000Y-91105000I-150000J0D01*
G01*
X178375000Y-91105000D01*
G75*
G02*
X178225000Y-90955000I0J150000D01*
G01*
X178225000Y-90655000D01*
G75*
G02*
X178375000Y-90505000I150000J0D01*
G01*
X180025000Y-90505000D01*
G75*
G02*
X180175000Y-90655000I0J-150000D01*
G01*
G37*
G36*
G01*
X180175000Y-89385000D02*
X180175000Y-89685000D01*
G75*
G02*
X180025000Y-89835000I-150000J0D01*
G01*
X178375000Y-89835000D01*
G75*
G02*
X178225000Y-89685000I0J150000D01*
G01*
X178225000Y-89385000D01*
G75*
G02*
X178375000Y-89235000I150000J0D01*
G01*
X180025000Y-89235000D01*
G75*
G02*
X180175000Y-89385000I0J-150000D01*
G01*
G37*
G36*
G01*
X180175000Y-88115000D02*
X180175000Y-88415000D01*
G75*
G02*
X180025000Y-88565000I-150000J0D01*
G01*
X178375000Y-88565000D01*
G75*
G02*
X178225000Y-88415000I0J150000D01*
G01*
X178225000Y-88115000D01*
G75*
G02*
X178375000Y-87965000I150000J0D01*
G01*
X180025000Y-87965000D01*
G75*
G02*
X180175000Y-88115000I0J-150000D01*
G01*
G37*
G36*
G01*
X185125000Y-88115000D02*
X185125000Y-88415000D01*
G75*
G02*
X184975000Y-88565000I-150000J0D01*
G01*
X183325000Y-88565000D01*
G75*
G02*
X183175000Y-88415000I0J150000D01*
G01*
X183175000Y-88115000D01*
G75*
G02*
X183325000Y-87965000I150000J0D01*
G01*
X184975000Y-87965000D01*
G75*
G02*
X185125000Y-88115000I0J-150000D01*
G01*
G37*
G36*
G01*
X185125000Y-89385000D02*
X185125000Y-89685000D01*
G75*
G02*
X184975000Y-89835000I-150000J0D01*
G01*
X183325000Y-89835000D01*
G75*
G02*
X183175000Y-89685000I0J150000D01*
G01*
X183175000Y-89385000D01*
G75*
G02*
X183325000Y-89235000I150000J0D01*
G01*
X184975000Y-89235000D01*
G75*
G02*
X185125000Y-89385000I0J-150000D01*
G01*
G37*
G36*
G01*
X185125000Y-90655000D02*
X185125000Y-90955000D01*
G75*
G02*
X184975000Y-91105000I-150000J0D01*
G01*
X183325000Y-91105000D01*
G75*
G02*
X183175000Y-90955000I0J150000D01*
G01*
X183175000Y-90655000D01*
G75*
G02*
X183325000Y-90505000I150000J0D01*
G01*
X184975000Y-90505000D01*
G75*
G02*
X185125000Y-90655000I0J-150000D01*
G01*
G37*
G36*
G01*
X185125000Y-91925000D02*
X185125000Y-92225000D01*
G75*
G02*
X184975000Y-92375000I-150000J0D01*
G01*
X183325000Y-92375000D01*
G75*
G02*
X183175000Y-92225000I0J150000D01*
G01*
X183175000Y-91925000D01*
G75*
G02*
X183325000Y-91775000I150000J0D01*
G01*
X184975000Y-91775000D01*
G75*
G02*
X185125000Y-91925000I0J-150000D01*
G01*
G37*
%TD*%
%TO.C,C21*%
G36*
G01*
X174973000Y-87688000D02*
X174023000Y-87688000D01*
G75*
G02*
X173773000Y-87438000I0J250000D01*
G01*
X173773000Y-86763000D01*
G75*
G02*
X174023000Y-86513000I250000J0D01*
G01*
X174973000Y-86513000D01*
G75*
G02*
X175223000Y-86763000I0J-250000D01*
G01*
X175223000Y-87438000D01*
G75*
G02*
X174973000Y-87688000I-250000J0D01*
G01*
G37*
G36*
G01*
X174973000Y-89763000D02*
X174023000Y-89763000D01*
G75*
G02*
X173773000Y-89513000I0J250000D01*
G01*
X173773000Y-88838000D01*
G75*
G02*
X174023000Y-88588000I250000J0D01*
G01*
X174973000Y-88588000D01*
G75*
G02*
X175223000Y-88838000I0J-250000D01*
G01*
X175223000Y-89513000D01*
G75*
G02*
X174973000Y-89763000I-250000J0D01*
G01*
G37*
%TD*%
%TO.C,C20*%
G36*
G01*
X181138500Y-84615000D02*
X181138500Y-85565000D01*
G75*
G02*
X180888500Y-85815000I-250000J0D01*
G01*
X180213500Y-85815000D01*
G75*
G02*
X179963500Y-85565000I0J250000D01*
G01*
X179963500Y-84615000D01*
G75*
G02*
X180213500Y-84365000I250000J0D01*
G01*
X180888500Y-84365000D01*
G75*
G02*
X181138500Y-84615000I0J-250000D01*
G01*
G37*
G36*
G01*
X183213500Y-84615000D02*
X183213500Y-85565000D01*
G75*
G02*
X182963500Y-85815000I-250000J0D01*
G01*
X182288500Y-85815000D01*
G75*
G02*
X182038500Y-85565000I0J250000D01*
G01*
X182038500Y-84615000D01*
G75*
G02*
X182288500Y-84365000I250000J0D01*
G01*
X182963500Y-84365000D01*
G75*
G02*
X183213500Y-84615000I0J-250000D01*
G01*
G37*
%TD*%
%TO.C,U4*%
G36*
G01*
X131977000Y-116055000D02*
X131977000Y-116355000D01*
G75*
G02*
X131827000Y-116505000I-150000J0D01*
G01*
X130177000Y-116505000D01*
G75*
G02*
X130027000Y-116355000I0J150000D01*
G01*
X130027000Y-116055000D01*
G75*
G02*
X130177000Y-115905000I150000J0D01*
G01*
X131827000Y-115905000D01*
G75*
G02*
X131977000Y-116055000I0J-150000D01*
G01*
G37*
G36*
G01*
X131977000Y-114785000D02*
X131977000Y-115085000D01*
G75*
G02*
X131827000Y-115235000I-150000J0D01*
G01*
X130177000Y-115235000D01*
G75*
G02*
X130027000Y-115085000I0J150000D01*
G01*
X130027000Y-114785000D01*
G75*
G02*
X130177000Y-114635000I150000J0D01*
G01*
X131827000Y-114635000D01*
G75*
G02*
X131977000Y-114785000I0J-150000D01*
G01*
G37*
G36*
G01*
X131977000Y-113515000D02*
X131977000Y-113815000D01*
G75*
G02*
X131827000Y-113965000I-150000J0D01*
G01*
X130177000Y-113965000D01*
G75*
G02*
X130027000Y-113815000I0J150000D01*
G01*
X130027000Y-113515000D01*
G75*
G02*
X130177000Y-113365000I150000J0D01*
G01*
X131827000Y-113365000D01*
G75*
G02*
X131977000Y-113515000I0J-150000D01*
G01*
G37*
G36*
G01*
X131977000Y-112245000D02*
X131977000Y-112545000D01*
G75*
G02*
X131827000Y-112695000I-150000J0D01*
G01*
X130177000Y-112695000D01*
G75*
G02*
X130027000Y-112545000I0J150000D01*
G01*
X130027000Y-112245000D01*
G75*
G02*
X130177000Y-112095000I150000J0D01*
G01*
X131827000Y-112095000D01*
G75*
G02*
X131977000Y-112245000I0J-150000D01*
G01*
G37*
G36*
G01*
X131977000Y-110975000D02*
X131977000Y-111275000D01*
G75*
G02*
X131827000Y-111425000I-150000J0D01*
G01*
X130177000Y-111425000D01*
G75*
G02*
X130027000Y-111275000I0J150000D01*
G01*
X130027000Y-110975000D01*
G75*
G02*
X130177000Y-110825000I150000J0D01*
G01*
X131827000Y-110825000D01*
G75*
G02*
X131977000Y-110975000I0J-150000D01*
G01*
G37*
G36*
G01*
X131977000Y-109705000D02*
X131977000Y-110005000D01*
G75*
G02*
X131827000Y-110155000I-150000J0D01*
G01*
X130177000Y-110155000D01*
G75*
G02*
X130027000Y-110005000I0J150000D01*
G01*
X130027000Y-109705000D01*
G75*
G02*
X130177000Y-109555000I150000J0D01*
G01*
X131827000Y-109555000D01*
G75*
G02*
X131977000Y-109705000I0J-150000D01*
G01*
G37*
G36*
G01*
X131977000Y-108435000D02*
X131977000Y-108735000D01*
G75*
G02*
X131827000Y-108885000I-150000J0D01*
G01*
X130177000Y-108885000D01*
G75*
G02*
X130027000Y-108735000I0J150000D01*
G01*
X130027000Y-108435000D01*
G75*
G02*
X130177000Y-108285000I150000J0D01*
G01*
X131827000Y-108285000D01*
G75*
G02*
X131977000Y-108435000I0J-150000D01*
G01*
G37*
G36*
G01*
X136927000Y-108435000D02*
X136927000Y-108735000D01*
G75*
G02*
X136777000Y-108885000I-150000J0D01*
G01*
X135127000Y-108885000D01*
G75*
G02*
X134977000Y-108735000I0J150000D01*
G01*
X134977000Y-108435000D01*
G75*
G02*
X135127000Y-108285000I150000J0D01*
G01*
X136777000Y-108285000D01*
G75*
G02*
X136927000Y-108435000I0J-150000D01*
G01*
G37*
G36*
G01*
X136927000Y-109705000D02*
X136927000Y-110005000D01*
G75*
G02*
X136777000Y-110155000I-150000J0D01*
G01*
X135127000Y-110155000D01*
G75*
G02*
X134977000Y-110005000I0J150000D01*
G01*
X134977000Y-109705000D01*
G75*
G02*
X135127000Y-109555000I150000J0D01*
G01*
X136777000Y-109555000D01*
G75*
G02*
X136927000Y-109705000I0J-150000D01*
G01*
G37*
G36*
G01*
X136927000Y-110975000D02*
X136927000Y-111275000D01*
G75*
G02*
X136777000Y-111425000I-150000J0D01*
G01*
X135127000Y-111425000D01*
G75*
G02*
X134977000Y-111275000I0J150000D01*
G01*
X134977000Y-110975000D01*
G75*
G02*
X135127000Y-110825000I150000J0D01*
G01*
X136777000Y-110825000D01*
G75*
G02*
X136927000Y-110975000I0J-150000D01*
G01*
G37*
G36*
G01*
X136927000Y-112245000D02*
X136927000Y-112545000D01*
G75*
G02*
X136777000Y-112695000I-150000J0D01*
G01*
X135127000Y-112695000D01*
G75*
G02*
X134977000Y-112545000I0J150000D01*
G01*
X134977000Y-112245000D01*
G75*
G02*
X135127000Y-112095000I150000J0D01*
G01*
X136777000Y-112095000D01*
G75*
G02*
X136927000Y-112245000I0J-150000D01*
G01*
G37*
G36*
G01*
X136927000Y-113515000D02*
X136927000Y-113815000D01*
G75*
G02*
X136777000Y-113965000I-150000J0D01*
G01*
X135127000Y-113965000D01*
G75*
G02*
X134977000Y-113815000I0J150000D01*
G01*
X134977000Y-113515000D01*
G75*
G02*
X135127000Y-113365000I150000J0D01*
G01*
X136777000Y-113365000D01*
G75*
G02*
X136927000Y-113515000I0J-150000D01*
G01*
G37*
G36*
G01*
X136927000Y-114785000D02*
X136927000Y-115085000D01*
G75*
G02*
X136777000Y-115235000I-150000J0D01*
G01*
X135127000Y-115235000D01*
G75*
G02*
X134977000Y-115085000I0J150000D01*
G01*
X134977000Y-114785000D01*
G75*
G02*
X135127000Y-114635000I150000J0D01*
G01*
X136777000Y-114635000D01*
G75*
G02*
X136927000Y-114785000I0J-150000D01*
G01*
G37*
G36*
G01*
X136927000Y-116055000D02*
X136927000Y-116355000D01*
G75*
G02*
X136777000Y-116505000I-150000J0D01*
G01*
X135127000Y-116505000D01*
G75*
G02*
X134977000Y-116355000I0J150000D01*
G01*
X134977000Y-116055000D01*
G75*
G02*
X135127000Y-115905000I150000J0D01*
G01*
X136777000Y-115905000D01*
G75*
G02*
X136927000Y-116055000I0J-150000D01*
G01*
G37*
%TD*%
%TO.C,C10*%
G36*
G01*
X139733000Y-117819500D02*
X140683000Y-117819500D01*
G75*
G02*
X140933000Y-118069500I0J-250000D01*
G01*
X140933000Y-118744500D01*
G75*
G02*
X140683000Y-118994500I-250000J0D01*
G01*
X139733000Y-118994500D01*
G75*
G02*
X139483000Y-118744500I0J250000D01*
G01*
X139483000Y-118069500D01*
G75*
G02*
X139733000Y-117819500I250000J0D01*
G01*
G37*
G36*
G01*
X139733000Y-115744500D02*
X140683000Y-115744500D01*
G75*
G02*
X140933000Y-115994500I0J-250000D01*
G01*
X140933000Y-116669500D01*
G75*
G02*
X140683000Y-116919500I-250000J0D01*
G01*
X139733000Y-116919500D01*
G75*
G02*
X139483000Y-116669500I0J250000D01*
G01*
X139483000Y-115994500D01*
G75*
G02*
X139733000Y-115744500I250000J0D01*
G01*
G37*
%TD*%
%TO.C,C9*%
G36*
G01*
X132551500Y-119855000D02*
X132551500Y-118905000D01*
G75*
G02*
X132801500Y-118655000I250000J0D01*
G01*
X133476500Y-118655000D01*
G75*
G02*
X133726500Y-118905000I0J-250000D01*
G01*
X133726500Y-119855000D01*
G75*
G02*
X133476500Y-120105000I-250000J0D01*
G01*
X132801500Y-120105000D01*
G75*
G02*
X132551500Y-119855000I0J250000D01*
G01*
G37*
G36*
G01*
X130476500Y-119855000D02*
X130476500Y-118905000D01*
G75*
G02*
X130726500Y-118655000I250000J0D01*
G01*
X131401500Y-118655000D01*
G75*
G02*
X131651500Y-118905000I0J-250000D01*
G01*
X131651500Y-119855000D01*
G75*
G02*
X131401500Y-120105000I-250000J0D01*
G01*
X130726500Y-120105000D01*
G75*
G02*
X130476500Y-119855000I0J250000D01*
G01*
G37*
%TD*%
%TO.C,U2*%
G36*
G01*
X139354999Y-136200000D02*
X140614997Y-136200000D01*
G75*
G02*
X140809997Y-136395000I0J-195000D01*
G01*
X140809997Y-136655000D01*
G75*
G02*
X140614997Y-136850000I-195000J0D01*
G01*
X139354999Y-136850000D01*
G75*
G02*
X139159999Y-136655000I0J195000D01*
G01*
X139159999Y-136395000D01*
G75*
G02*
X139354999Y-136200000I195000J0D01*
G01*
G37*
G36*
G01*
X139354999Y-134930000D02*
X140614997Y-134930000D01*
G75*
G02*
X140809997Y-135125000I0J-195000D01*
G01*
X140809997Y-135385000D01*
G75*
G02*
X140614997Y-135580000I-195000J0D01*
G01*
X139354999Y-135580000D01*
G75*
G02*
X139159999Y-135385000I0J195000D01*
G01*
X139159999Y-135125000D01*
G75*
G02*
X139354999Y-134930000I195000J0D01*
G01*
G37*
G36*
G01*
X139354999Y-133660000D02*
X140614997Y-133660000D01*
G75*
G02*
X140809997Y-133855000I0J-195000D01*
G01*
X140809997Y-134115000D01*
G75*
G02*
X140614997Y-134310000I-195000J0D01*
G01*
X139354999Y-134310000D01*
G75*
G02*
X139159999Y-134115000I0J195000D01*
G01*
X139159999Y-133855000D01*
G75*
G02*
X139354999Y-133660000I195000J0D01*
G01*
G37*
G36*
G01*
X139354999Y-132390000D02*
X140614997Y-132390000D01*
G75*
G02*
X140809997Y-132585000I0J-195000D01*
G01*
X140809997Y-132845000D01*
G75*
G02*
X140614997Y-133040000I-195000J0D01*
G01*
X139354999Y-133040000D01*
G75*
G02*
X139159999Y-132845000I0J195000D01*
G01*
X139159999Y-132585000D01*
G75*
G02*
X139354999Y-132390000I195000J0D01*
G01*
G37*
G36*
G01*
X139354999Y-131120000D02*
X140614997Y-131120000D01*
G75*
G02*
X140809997Y-131315000I0J-195000D01*
G01*
X140809997Y-131575000D01*
G75*
G02*
X140614997Y-131770000I-195000J0D01*
G01*
X139354999Y-131770000D01*
G75*
G02*
X139159999Y-131575000I0J195000D01*
G01*
X139159999Y-131315000D01*
G75*
G02*
X139354999Y-131120000I195000J0D01*
G01*
G37*
G36*
G01*
X139354999Y-129850000D02*
X140614997Y-129850000D01*
G75*
G02*
X140809997Y-130045000I0J-195000D01*
G01*
X140809997Y-130305000D01*
G75*
G02*
X140614997Y-130500000I-195000J0D01*
G01*
X139354999Y-130500000D01*
G75*
G02*
X139159999Y-130305000I0J195000D01*
G01*
X139159999Y-130045000D01*
G75*
G02*
X139354999Y-129850000I195000J0D01*
G01*
G37*
G36*
G01*
X139354999Y-128580000D02*
X140614997Y-128580000D01*
G75*
G02*
X140809997Y-128775000I0J-195000D01*
G01*
X140809997Y-129035000D01*
G75*
G02*
X140614997Y-129230000I-195000J0D01*
G01*
X139354999Y-129230000D01*
G75*
G02*
X139159999Y-129035000I0J195000D01*
G01*
X139159999Y-128775000D01*
G75*
G02*
X139354999Y-128580000I195000J0D01*
G01*
G37*
G36*
G01*
X139354999Y-127310000D02*
X140614997Y-127310000D01*
G75*
G02*
X140809997Y-127505000I0J-195000D01*
G01*
X140809997Y-127765000D01*
G75*
G02*
X140614997Y-127960000I-195000J0D01*
G01*
X139354999Y-127960000D01*
G75*
G02*
X139159999Y-127765000I0J195000D01*
G01*
X139159999Y-127505000D01*
G75*
G02*
X139354999Y-127310000I195000J0D01*
G01*
G37*
G36*
G01*
X133705000Y-136200000D02*
X134964998Y-136200000D01*
G75*
G02*
X135159998Y-136395000I0J-195000D01*
G01*
X135159998Y-136655000D01*
G75*
G02*
X134964998Y-136850000I-195000J0D01*
G01*
X133705000Y-136850000D01*
G75*
G02*
X133510000Y-136655000I0J195000D01*
G01*
X133510000Y-136395000D01*
G75*
G02*
X133705000Y-136200000I195000J0D01*
G01*
G37*
G36*
G01*
X133705000Y-134930000D02*
X134964998Y-134930000D01*
G75*
G02*
X135159998Y-135125000I0J-195000D01*
G01*
X135159998Y-135385000D01*
G75*
G02*
X134964998Y-135580000I-195000J0D01*
G01*
X133705000Y-135580000D01*
G75*
G02*
X133510000Y-135385000I0J195000D01*
G01*
X133510000Y-135125000D01*
G75*
G02*
X133705000Y-134930000I195000J0D01*
G01*
G37*
G36*
G01*
X133705000Y-133660000D02*
X134964998Y-133660000D01*
G75*
G02*
X135159998Y-133855000I0J-195000D01*
G01*
X135159998Y-134115000D01*
G75*
G02*
X134964998Y-134310000I-195000J0D01*
G01*
X133705000Y-134310000D01*
G75*
G02*
X133510000Y-134115000I0J195000D01*
G01*
X133510000Y-133855000D01*
G75*
G02*
X133705000Y-133660000I195000J0D01*
G01*
G37*
G36*
G01*
X133705000Y-132390000D02*
X134964998Y-132390000D01*
G75*
G02*
X135159998Y-132585000I0J-195000D01*
G01*
X135159998Y-132845000D01*
G75*
G02*
X134964998Y-133040000I-195000J0D01*
G01*
X133705000Y-133040000D01*
G75*
G02*
X133510000Y-132845000I0J195000D01*
G01*
X133510000Y-132585000D01*
G75*
G02*
X133705000Y-132390000I195000J0D01*
G01*
G37*
G36*
G01*
X133705000Y-131120000D02*
X134964998Y-131120000D01*
G75*
G02*
X135159998Y-131315000I0J-195000D01*
G01*
X135159998Y-131575000D01*
G75*
G02*
X134964998Y-131770000I-195000J0D01*
G01*
X133705000Y-131770000D01*
G75*
G02*
X133510000Y-131575000I0J195000D01*
G01*
X133510000Y-131315000D01*
G75*
G02*
X133705000Y-131120000I195000J0D01*
G01*
G37*
G36*
G01*
X133705000Y-129850000D02*
X134964998Y-129850000D01*
G75*
G02*
X135159998Y-130045000I0J-195000D01*
G01*
X135159998Y-130305000D01*
G75*
G02*
X134964998Y-130500000I-195000J0D01*
G01*
X133705000Y-130500000D01*
G75*
G02*
X133510000Y-130305000I0J195000D01*
G01*
X133510000Y-130045000D01*
G75*
G02*
X133705000Y-129850000I195000J0D01*
G01*
G37*
G36*
G01*
X133705000Y-128580000D02*
X134964998Y-128580000D01*
G75*
G02*
X135159998Y-128775000I0J-195000D01*
G01*
X135159998Y-129035000D01*
G75*
G02*
X134964998Y-129230000I-195000J0D01*
G01*
X133705000Y-129230000D01*
G75*
G02*
X133510000Y-129035000I0J195000D01*
G01*
X133510000Y-128775000D01*
G75*
G02*
X133705000Y-128580000I195000J0D01*
G01*
G37*
G36*
G01*
X133705000Y-127310000D02*
X134964998Y-127310000D01*
G75*
G02*
X135159998Y-127505000I0J-195000D01*
G01*
X135159998Y-127765000D01*
G75*
G02*
X134964998Y-127960000I-195000J0D01*
G01*
X133705000Y-127960000D01*
G75*
G02*
X133510000Y-127765000I0J195000D01*
G01*
X133510000Y-127505000D01*
G75*
G02*
X133705000Y-127310000I195000J0D01*
G01*
G37*
%TD*%
%TO.C,R12*%
G36*
G01*
X158545000Y-74163001D02*
X158545000Y-73262999D01*
G75*
G02*
X158794999Y-73013000I249999J0D01*
G01*
X159495001Y-73013000D01*
G75*
G02*
X159745000Y-73262999I0J-249999D01*
G01*
X159745000Y-74163001D01*
G75*
G02*
X159495001Y-74413000I-249999J0D01*
G01*
X158794999Y-74413000D01*
G75*
G02*
X158545000Y-74163001I0J249999D01*
G01*
G37*
G36*
G01*
X156545000Y-74163001D02*
X156545000Y-73262999D01*
G75*
G02*
X156794999Y-73013000I249999J0D01*
G01*
X157495001Y-73013000D01*
G75*
G02*
X157745000Y-73262999I0J-249999D01*
G01*
X157745000Y-74163001D01*
G75*
G02*
X157495001Y-74413000I-249999J0D01*
G01*
X156794999Y-74413000D01*
G75*
G02*
X156545000Y-74163001I0J249999D01*
G01*
G37*
%TD*%
%TO.C,R11*%
G36*
G01*
X108612000Y-70415999D02*
X108612000Y-71316001D01*
G75*
G02*
X108362001Y-71566000I-249999J0D01*
G01*
X107661999Y-71566000D01*
G75*
G02*
X107412000Y-71316001I0J249999D01*
G01*
X107412000Y-70415999D01*
G75*
G02*
X107661999Y-70166000I249999J0D01*
G01*
X108362001Y-70166000D01*
G75*
G02*
X108612000Y-70415999I0J-249999D01*
G01*
G37*
G36*
G01*
X110612000Y-70415999D02*
X110612000Y-71316001D01*
G75*
G02*
X110362001Y-71566000I-249999J0D01*
G01*
X109661999Y-71566000D01*
G75*
G02*
X109412000Y-71316001I0J249999D01*
G01*
X109412000Y-70415999D01*
G75*
G02*
X109661999Y-70166000I249999J0D01*
G01*
X110362001Y-70166000D01*
G75*
G02*
X110612000Y-70415999I0J-249999D01*
G01*
G37*
%TD*%
%TO.C,R10*%
G36*
G01*
X128505000Y-73209999D02*
X128505000Y-74110001D01*
G75*
G02*
X128255001Y-74360000I-249999J0D01*
G01*
X127554999Y-74360000D01*
G75*
G02*
X127305000Y-74110001I0J249999D01*
G01*
X127305000Y-73209999D01*
G75*
G02*
X127554999Y-72960000I249999J0D01*
G01*
X128255001Y-72960000D01*
G75*
G02*
X128505000Y-73209999I0J-249999D01*
G01*
G37*
G36*
G01*
X130505000Y-73209999D02*
X130505000Y-74110001D01*
G75*
G02*
X130255001Y-74360000I-249999J0D01*
G01*
X129554999Y-74360000D01*
G75*
G02*
X129305000Y-74110001I0J249999D01*
G01*
X129305000Y-73209999D01*
G75*
G02*
X129554999Y-72960000I249999J0D01*
G01*
X130255001Y-72960000D01*
G75*
G02*
X130505000Y-73209999I0J-249999D01*
G01*
G37*
%TD*%
%TO.C,R9*%
G36*
G01*
X121520000Y-73209999D02*
X121520000Y-74110001D01*
G75*
G02*
X121270001Y-74360000I-249999J0D01*
G01*
X120569999Y-74360000D01*
G75*
G02*
X120320000Y-74110001I0J249999D01*
G01*
X120320000Y-73209999D01*
G75*
G02*
X120569999Y-72960000I249999J0D01*
G01*
X121270001Y-72960000D01*
G75*
G02*
X121520000Y-73209999I0J-249999D01*
G01*
G37*
G36*
G01*
X123520000Y-73209999D02*
X123520000Y-74110001D01*
G75*
G02*
X123270001Y-74360000I-249999J0D01*
G01*
X122569999Y-74360000D01*
G75*
G02*
X122320000Y-74110001I0J249999D01*
G01*
X122320000Y-73209999D01*
G75*
G02*
X122569999Y-72960000I249999J0D01*
G01*
X123270001Y-72960000D01*
G75*
G02*
X123520000Y-73209999I0J-249999D01*
G01*
G37*
%TD*%
%TO.C,D12*%
G36*
G01*
X158565000Y-70935001D02*
X158565000Y-70034999D01*
G75*
G02*
X158814999Y-69785000I249999J0D01*
G01*
X159465001Y-69785000D01*
G75*
G02*
X159715000Y-70034999I0J-249999D01*
G01*
X159715000Y-70935001D01*
G75*
G02*
X159465001Y-71185000I-249999J0D01*
G01*
X158814999Y-71185000D01*
G75*
G02*
X158565000Y-70935001I0J249999D01*
G01*
G37*
G36*
G01*
X156515000Y-70935001D02*
X156515000Y-70034999D01*
G75*
G02*
X156764999Y-69785000I249999J0D01*
G01*
X157415001Y-69785000D01*
G75*
G02*
X157665000Y-70034999I0J-249999D01*
G01*
X157665000Y-70935001D01*
G75*
G02*
X157415001Y-71185000I-249999J0D01*
G01*
X156764999Y-71185000D01*
G75*
G02*
X156515000Y-70935001I0J249999D01*
G01*
G37*
%TD*%
%TO.C,D11*%
G36*
G01*
X108607000Y-73590999D02*
X108607000Y-74491001D01*
G75*
G02*
X108357001Y-74741000I-249999J0D01*
G01*
X107706999Y-74741000D01*
G75*
G02*
X107457000Y-74491001I0J249999D01*
G01*
X107457000Y-73590999D01*
G75*
G02*
X107706999Y-73341000I249999J0D01*
G01*
X108357001Y-73341000D01*
G75*
G02*
X108607000Y-73590999I0J-249999D01*
G01*
G37*
G36*
G01*
X110657000Y-73590999D02*
X110657000Y-74491001D01*
G75*
G02*
X110407001Y-74741000I-249999J0D01*
G01*
X109756999Y-74741000D01*
G75*
G02*
X109507000Y-74491001I0J249999D01*
G01*
X109507000Y-73590999D01*
G75*
G02*
X109756999Y-73341000I249999J0D01*
G01*
X110407001Y-73341000D01*
G75*
G02*
X110657000Y-73590999I0J-249999D01*
G01*
G37*
%TD*%
%TO.C,D10*%
G36*
G01*
X128455000Y-70034999D02*
X128455000Y-70935001D01*
G75*
G02*
X128205001Y-71185000I-249999J0D01*
G01*
X127554999Y-71185000D01*
G75*
G02*
X127305000Y-70935001I0J249999D01*
G01*
X127305000Y-70034999D01*
G75*
G02*
X127554999Y-69785000I249999J0D01*
G01*
X128205001Y-69785000D01*
G75*
G02*
X128455000Y-70034999I0J-249999D01*
G01*
G37*
G36*
G01*
X130505000Y-70034999D02*
X130505000Y-70935001D01*
G75*
G02*
X130255001Y-71185000I-249999J0D01*
G01*
X129604999Y-71185000D01*
G75*
G02*
X129355000Y-70935001I0J249999D01*
G01*
X129355000Y-70034999D01*
G75*
G02*
X129604999Y-69785000I249999J0D01*
G01*
X130255001Y-69785000D01*
G75*
G02*
X130505000Y-70034999I0J-249999D01*
G01*
G37*
%TD*%
%TO.C,D9*%
G36*
G01*
X121470000Y-70034999D02*
X121470000Y-70935001D01*
G75*
G02*
X121220001Y-71185000I-249999J0D01*
G01*
X120569999Y-71185000D01*
G75*
G02*
X120320000Y-70935001I0J249999D01*
G01*
X120320000Y-70034999D01*
G75*
G02*
X120569999Y-69785000I249999J0D01*
G01*
X121220001Y-69785000D01*
G75*
G02*
X121470000Y-70034999I0J-249999D01*
G01*
G37*
G36*
G01*
X123520000Y-70034999D02*
X123520000Y-70935001D01*
G75*
G02*
X123270001Y-71185000I-249999J0D01*
G01*
X122619999Y-71185000D01*
G75*
G02*
X122370000Y-70935001I0J249999D01*
G01*
X122370000Y-70034999D01*
G75*
G02*
X122619999Y-69785000I249999J0D01*
G01*
X123270001Y-69785000D01*
G75*
G02*
X123520000Y-70034999I0J-249999D01*
G01*
G37*
%TD*%
%TO.C,R4*%
G36*
G01*
X133585000Y-73209999D02*
X133585000Y-74110001D01*
G75*
G02*
X133335001Y-74360000I-249999J0D01*
G01*
X132634999Y-74360000D01*
G75*
G02*
X132385000Y-74110001I0J249999D01*
G01*
X132385000Y-73209999D01*
G75*
G02*
X132634999Y-72960000I249999J0D01*
G01*
X133335001Y-72960000D01*
G75*
G02*
X133585000Y-73209999I0J-249999D01*
G01*
G37*
G36*
G01*
X135585000Y-73209999D02*
X135585000Y-74110001D01*
G75*
G02*
X135335001Y-74360000I-249999J0D01*
G01*
X134634999Y-74360000D01*
G75*
G02*
X134385000Y-74110001I0J249999D01*
G01*
X134385000Y-73209999D01*
G75*
G02*
X134634999Y-72960000I249999J0D01*
G01*
X135335001Y-72960000D01*
G75*
G02*
X135585000Y-73209999I0J-249999D01*
G01*
G37*
%TD*%
%TO.C,R3*%
G36*
G01*
X138665000Y-73209999D02*
X138665000Y-74110001D01*
G75*
G02*
X138415001Y-74360000I-249999J0D01*
G01*
X137714999Y-74360000D01*
G75*
G02*
X137465000Y-74110001I0J249999D01*
G01*
X137465000Y-73209999D01*
G75*
G02*
X137714999Y-72960000I249999J0D01*
G01*
X138415001Y-72960000D01*
G75*
G02*
X138665000Y-73209999I0J-249999D01*
G01*
G37*
G36*
G01*
X140665000Y-73209999D02*
X140665000Y-74110001D01*
G75*
G02*
X140415001Y-74360000I-249999J0D01*
G01*
X139714999Y-74360000D01*
G75*
G02*
X139465000Y-74110001I0J249999D01*
G01*
X139465000Y-73209999D01*
G75*
G02*
X139714999Y-72960000I249999J0D01*
G01*
X140415001Y-72960000D01*
G75*
G02*
X140665000Y-73209999I0J-249999D01*
G01*
G37*
%TD*%
D10*
%TO.C,U3*%
X156254000Y-126585000D03*
X156254000Y-127235000D03*
X156254000Y-127885000D03*
X156254000Y-128535000D03*
X156254000Y-129185000D03*
X156254000Y-129835000D03*
X156254000Y-130485000D03*
X156254000Y-131135000D03*
X156254000Y-131785000D03*
X156254000Y-132435000D03*
X156254000Y-133085000D03*
X156254000Y-133735000D03*
X156254000Y-134385000D03*
X156254000Y-135035000D03*
X149054000Y-135035000D03*
X149054000Y-134385000D03*
X149054000Y-133735000D03*
X149054000Y-133085000D03*
X149054000Y-132435000D03*
X149054000Y-131785000D03*
X149054000Y-131135000D03*
X149054000Y-130485000D03*
X149054000Y-129835000D03*
X149054000Y-129185000D03*
X149054000Y-128535000D03*
X149054000Y-127885000D03*
X149054000Y-127235000D03*
X149054000Y-126585000D03*
%TD*%
D11*
%TO.C,J6*%
X154854000Y-144145000D03*
X150454000Y-144145000D03*
D12*
X151354000Y-141545000D03*
X152004000Y-141545000D03*
X152654000Y-141545000D03*
X153304000Y-141545000D03*
X153954000Y-141545000D03*
%TD*%
%TO.C,D4*%
G36*
G01*
X133535000Y-70034999D02*
X133535000Y-70935001D01*
G75*
G02*
X133285001Y-71185000I-249999J0D01*
G01*
X132634999Y-71185000D01*
G75*
G02*
X132385000Y-70935001I0J249999D01*
G01*
X132385000Y-70034999D01*
G75*
G02*
X132634999Y-69785000I249999J0D01*
G01*
X133285001Y-69785000D01*
G75*
G02*
X133535000Y-70034999I0J-249999D01*
G01*
G37*
G36*
G01*
X135585000Y-70034999D02*
X135585000Y-70935001D01*
G75*
G02*
X135335001Y-71185000I-249999J0D01*
G01*
X134684999Y-71185000D01*
G75*
G02*
X134435000Y-70935001I0J249999D01*
G01*
X134435000Y-70034999D01*
G75*
G02*
X134684999Y-69785000I249999J0D01*
G01*
X135335001Y-69785000D01*
G75*
G02*
X135585000Y-70034999I0J-249999D01*
G01*
G37*
%TD*%
%TO.C,D3*%
G36*
G01*
X138615000Y-70034999D02*
X138615000Y-70935001D01*
G75*
G02*
X138365001Y-71185000I-249999J0D01*
G01*
X137714999Y-71185000D01*
G75*
G02*
X137465000Y-70935001I0J249999D01*
G01*
X137465000Y-70034999D01*
G75*
G02*
X137714999Y-69785000I249999J0D01*
G01*
X138365001Y-69785000D01*
G75*
G02*
X138615000Y-70034999I0J-249999D01*
G01*
G37*
G36*
G01*
X140665000Y-70034999D02*
X140665000Y-70935001D01*
G75*
G02*
X140415001Y-71185000I-249999J0D01*
G01*
X139764999Y-71185000D01*
G75*
G02*
X139515000Y-70935001I0J249999D01*
G01*
X139515000Y-70034999D01*
G75*
G02*
X139764999Y-69785000I249999J0D01*
G01*
X140415001Y-69785000D01*
G75*
G02*
X140665000Y-70034999I0J-249999D01*
G01*
G37*
%TD*%
%TO.C,C8*%
G36*
G01*
X160495000Y-131608500D02*
X159545000Y-131608500D01*
G75*
G02*
X159295000Y-131358500I0J250000D01*
G01*
X159295000Y-130683500D01*
G75*
G02*
X159545000Y-130433500I250000J0D01*
G01*
X160495000Y-130433500D01*
G75*
G02*
X160745000Y-130683500I0J-250000D01*
G01*
X160745000Y-131358500D01*
G75*
G02*
X160495000Y-131608500I-250000J0D01*
G01*
G37*
G36*
G01*
X160495000Y-133683500D02*
X159545000Y-133683500D01*
G75*
G02*
X159295000Y-133433500I0J250000D01*
G01*
X159295000Y-132758500D01*
G75*
G02*
X159545000Y-132508500I250000J0D01*
G01*
X160495000Y-132508500D01*
G75*
G02*
X160745000Y-132758500I0J-250000D01*
G01*
X160745000Y-133433500D01*
G75*
G02*
X160495000Y-133683500I-250000J0D01*
G01*
G37*
%TD*%
%TO.C,C7*%
G36*
G01*
X154374000Y-123030000D02*
X154374000Y-122080000D01*
G75*
G02*
X154624000Y-121830000I250000J0D01*
G01*
X155299000Y-121830000D01*
G75*
G02*
X155549000Y-122080000I0J-250000D01*
G01*
X155549000Y-123030000D01*
G75*
G02*
X155299000Y-123280000I-250000J0D01*
G01*
X154624000Y-123280000D01*
G75*
G02*
X154374000Y-123030000I0J250000D01*
G01*
G37*
G36*
G01*
X152299000Y-123030000D02*
X152299000Y-122080000D01*
G75*
G02*
X152549000Y-121830000I250000J0D01*
G01*
X153224000Y-121830000D01*
G75*
G02*
X153474000Y-122080000I0J-250000D01*
G01*
X153474000Y-123030000D01*
G75*
G02*
X153224000Y-123280000I-250000J0D01*
G01*
X152549000Y-123280000D01*
G75*
G02*
X152299000Y-123030000I0J250000D01*
G01*
G37*
%TD*%
%TO.C,C6*%
G36*
G01*
X154374000Y-119855000D02*
X154374000Y-118905000D01*
G75*
G02*
X154624000Y-118655000I250000J0D01*
G01*
X155299000Y-118655000D01*
G75*
G02*
X155549000Y-118905000I0J-250000D01*
G01*
X155549000Y-119855000D01*
G75*
G02*
X155299000Y-120105000I-250000J0D01*
G01*
X154624000Y-120105000D01*
G75*
G02*
X154374000Y-119855000I0J250000D01*
G01*
G37*
G36*
G01*
X152299000Y-119855000D02*
X152299000Y-118905000D01*
G75*
G02*
X152549000Y-118655000I250000J0D01*
G01*
X153224000Y-118655000D01*
G75*
G02*
X153474000Y-118905000I0J-250000D01*
G01*
X153474000Y-119855000D01*
G75*
G02*
X153224000Y-120105000I-250000J0D01*
G01*
X152549000Y-120105000D01*
G75*
G02*
X152299000Y-119855000I0J250000D01*
G01*
G37*
%TD*%
%TO.C,C5*%
G36*
G01*
X142400000Y-128720000D02*
X143350000Y-128720000D01*
G75*
G02*
X143600000Y-128970000I0J-250000D01*
G01*
X143600000Y-129645000D01*
G75*
G02*
X143350000Y-129895000I-250000J0D01*
G01*
X142400000Y-129895000D01*
G75*
G02*
X142150000Y-129645000I0J250000D01*
G01*
X142150000Y-128970000D01*
G75*
G02*
X142400000Y-128720000I250000J0D01*
G01*
G37*
G36*
G01*
X142400000Y-126645000D02*
X143350000Y-126645000D01*
G75*
G02*
X143600000Y-126895000I0J-250000D01*
G01*
X143600000Y-127570000D01*
G75*
G02*
X143350000Y-127820000I-250000J0D01*
G01*
X142400000Y-127820000D01*
G75*
G02*
X142150000Y-127570000I0J250000D01*
G01*
X142150000Y-126895000D01*
G75*
G02*
X142400000Y-126645000I250000J0D01*
G01*
G37*
%TD*%
%TO.C,C4*%
G36*
G01*
X131285000Y-137345000D02*
X130335000Y-137345000D01*
G75*
G02*
X130085000Y-137095000I0J250000D01*
G01*
X130085000Y-136420000D01*
G75*
G02*
X130335000Y-136170000I250000J0D01*
G01*
X131285000Y-136170000D01*
G75*
G02*
X131535000Y-136420000I0J-250000D01*
G01*
X131535000Y-137095000D01*
G75*
G02*
X131285000Y-137345000I-250000J0D01*
G01*
G37*
G36*
G01*
X131285000Y-139420000D02*
X130335000Y-139420000D01*
G75*
G02*
X130085000Y-139170000I0J250000D01*
G01*
X130085000Y-138495000D01*
G75*
G02*
X130335000Y-138245000I250000J0D01*
G01*
X131285000Y-138245000D01*
G75*
G02*
X131535000Y-138495000I0J-250000D01*
G01*
X131535000Y-139170000D01*
G75*
G02*
X131285000Y-139420000I-250000J0D01*
G01*
G37*
%TD*%
%TO.C,C3*%
G36*
G01*
X135937500Y-125570000D02*
X135937500Y-124620000D01*
G75*
G02*
X136187500Y-124370000I250000J0D01*
G01*
X136862500Y-124370000D01*
G75*
G02*
X137112500Y-124620000I0J-250000D01*
G01*
X137112500Y-125570000D01*
G75*
G02*
X136862500Y-125820000I-250000J0D01*
G01*
X136187500Y-125820000D01*
G75*
G02*
X135937500Y-125570000I0J250000D01*
G01*
G37*
G36*
G01*
X133862500Y-125570000D02*
X133862500Y-124620000D01*
G75*
G02*
X134112500Y-124370000I250000J0D01*
G01*
X134787500Y-124370000D01*
G75*
G02*
X135037500Y-124620000I0J-250000D01*
G01*
X135037500Y-125570000D01*
G75*
G02*
X134787500Y-125820000I-250000J0D01*
G01*
X134112500Y-125820000D01*
G75*
G02*
X133862500Y-125570000I0J250000D01*
G01*
G37*
%TD*%
%TO.C,C2*%
G36*
G01*
X130335000Y-133165000D02*
X131285000Y-133165000D01*
G75*
G02*
X131535000Y-133415000I0J-250000D01*
G01*
X131535000Y-134090000D01*
G75*
G02*
X131285000Y-134340000I-250000J0D01*
G01*
X130335000Y-134340000D01*
G75*
G02*
X130085000Y-134090000I0J250000D01*
G01*
X130085000Y-133415000D01*
G75*
G02*
X130335000Y-133165000I250000J0D01*
G01*
G37*
G36*
G01*
X130335000Y-131090000D02*
X131285000Y-131090000D01*
G75*
G02*
X131535000Y-131340000I0J-250000D01*
G01*
X131535000Y-132015000D01*
G75*
G02*
X131285000Y-132265000I-250000J0D01*
G01*
X130335000Y-132265000D01*
G75*
G02*
X130085000Y-132015000I0J250000D01*
G01*
X130085000Y-131340000D01*
G75*
G02*
X130335000Y-131090000I250000J0D01*
G01*
G37*
%TD*%
%TO.C,C1*%
G36*
G01*
X131285000Y-127185000D02*
X130335000Y-127185000D01*
G75*
G02*
X130085000Y-126935000I0J250000D01*
G01*
X130085000Y-126260000D01*
G75*
G02*
X130335000Y-126010000I250000J0D01*
G01*
X131285000Y-126010000D01*
G75*
G02*
X131535000Y-126260000I0J-250000D01*
G01*
X131535000Y-126935000D01*
G75*
G02*
X131285000Y-127185000I-250000J0D01*
G01*
G37*
G36*
G01*
X131285000Y-129260000D02*
X130335000Y-129260000D01*
G75*
G02*
X130085000Y-129010000I0J250000D01*
G01*
X130085000Y-128335000D01*
G75*
G02*
X130335000Y-128085000I250000J0D01*
G01*
X131285000Y-128085000D01*
G75*
G02*
X131535000Y-128335000I0J-250000D01*
G01*
X131535000Y-129010000D01*
G75*
G02*
X131285000Y-129260000I-250000J0D01*
G01*
G37*
%TD*%
M02*
