%TF.GenerationSoftware,KiCad,Pcbnew,(5.1.9)-1*%
%TF.CreationDate,2021-11-27T21:19:13-05:00*%
%TF.ProjectId,REVERB Interface,52455645-5242-4204-996e-746572666163,rev?*%
%TF.SameCoordinates,Original*%
%TF.FileFunction,Soldermask,Bot*%
%TF.FilePolarity,Negative*%
%FSLAX46Y46*%
G04 Gerber Fmt 4.6, Leading zero omitted, Abs format (unit mm)*
G04 Created by KiCad (PCBNEW (5.1.9)-1) date 2021-11-27 21:19:13*
%MOMM*%
%LPD*%
G01*
G04 APERTURE LIST*
%ADD10O,0.800000X1.300000*%
%ADD11O,2.000000X1.700000*%
%ADD12C,17.500000*%
%ADD13C,2.300000*%
%ADD14C,2.500000*%
%ADD15C,1.524000*%
%ADD16C,2.700000*%
%ADD17O,1.700000X1.700000*%
%ADD18R,1.700000X1.700000*%
%ADD19C,0.800000*%
%ADD20C,5.600000*%
%ADD21C,3.600000*%
%ADD22O,1.400000X0.700000*%
%ADD23O,1.500000X1.500000*%
%ADD24R,1.500000X1.500000*%
G04 APERTURE END LIST*
D10*
%TO.C,J9*%
X182686000Y-146304000D03*
X183936000Y-146304000D03*
X185186000Y-146304000D03*
G36*
G01*
X186836000Y-145854000D02*
X186836000Y-146754000D01*
G75*
G02*
X186636000Y-146954000I-200000J0D01*
G01*
X186236000Y-146954000D01*
G75*
G02*
X186036000Y-146754000I0J200000D01*
G01*
X186036000Y-145854000D01*
G75*
G02*
X186236000Y-145654000I200000J0D01*
G01*
X186636000Y-145654000D01*
G75*
G02*
X186836000Y-145854000I0J-200000D01*
G01*
G37*
%TD*%
D11*
%TO.C,J10*%
X193675000Y-69810000D03*
G36*
G01*
X192925000Y-66460000D02*
X194425000Y-66460000D01*
G75*
G02*
X194675000Y-66710000I0J-250000D01*
G01*
X194675000Y-67910000D01*
G75*
G02*
X194425000Y-68160000I-250000J0D01*
G01*
X192925000Y-68160000D01*
G75*
G02*
X192675000Y-67910000I0J250000D01*
G01*
X192675000Y-66710000D01*
G75*
G02*
X192925000Y-66460000I250000J0D01*
G01*
G37*
%TD*%
D12*
%TO.C,BT1*%
X179959000Y-90170000D03*
D13*
X178459000Y-100570000D03*
X181559000Y-100570000D03*
X181559000Y-79770000D03*
X178459000Y-79770000D03*
%TD*%
%TO.C,C19*%
G36*
G01*
X153073000Y-123353001D02*
X153073000Y-121502999D01*
G75*
G02*
X153322999Y-121253000I249999J0D01*
G01*
X155073001Y-121253000D01*
G75*
G02*
X155323000Y-121502999I0J-249999D01*
G01*
X155323000Y-123353001D01*
G75*
G02*
X155073001Y-123603000I-249999J0D01*
G01*
X153322999Y-123603000D01*
G75*
G02*
X153073000Y-123353001I0J249999D01*
G01*
G37*
G36*
G01*
X147973000Y-123353001D02*
X147973000Y-121502999D01*
G75*
G02*
X148222999Y-121253000I249999J0D01*
G01*
X149973001Y-121253000D01*
G75*
G02*
X150223000Y-121502999I0J-249999D01*
G01*
X150223000Y-123353001D01*
G75*
G02*
X149973001Y-123603000I-249999J0D01*
G01*
X148222999Y-123603000D01*
G75*
G02*
X147973000Y-123353001I0J249999D01*
G01*
G37*
%TD*%
%TO.C,C18*%
G36*
G01*
X144310000Y-89952001D02*
X144310000Y-88101999D01*
G75*
G02*
X144559999Y-87852000I249999J0D01*
G01*
X146310001Y-87852000D01*
G75*
G02*
X146560000Y-88101999I0J-249999D01*
G01*
X146560000Y-89952001D01*
G75*
G02*
X146310001Y-90202000I-249999J0D01*
G01*
X144559999Y-90202000D01*
G75*
G02*
X144310000Y-89952001I0J249999D01*
G01*
G37*
G36*
G01*
X139210000Y-89952001D02*
X139210000Y-88101999D01*
G75*
G02*
X139459999Y-87852000I249999J0D01*
G01*
X141210001Y-87852000D01*
G75*
G02*
X141460000Y-88101999I0J-249999D01*
G01*
X141460000Y-89952001D01*
G75*
G02*
X141210001Y-90202000I-249999J0D01*
G01*
X139459999Y-90202000D01*
G75*
G02*
X139210000Y-89952001I0J249999D01*
G01*
G37*
%TD*%
%TO.C,C17*%
G36*
G01*
X136995000Y-122264999D02*
X136995000Y-124115001D01*
G75*
G02*
X136745001Y-124365000I-249999J0D01*
G01*
X134994999Y-124365000D01*
G75*
G02*
X134745000Y-124115001I0J249999D01*
G01*
X134745000Y-122264999D01*
G75*
G02*
X134994999Y-122015000I249999J0D01*
G01*
X136745001Y-122015000D01*
G75*
G02*
X136995000Y-122264999I0J-249999D01*
G01*
G37*
G36*
G01*
X142095000Y-122264999D02*
X142095000Y-124115001D01*
G75*
G02*
X141845001Y-124365000I-249999J0D01*
G01*
X140094999Y-124365000D01*
G75*
G02*
X139845000Y-124115001I0J249999D01*
G01*
X139845000Y-122264999D01*
G75*
G02*
X140094999Y-122015000I249999J0D01*
G01*
X141845001Y-122015000D01*
G75*
G02*
X142095000Y-122264999I0J-249999D01*
G01*
G37*
%TD*%
%TO.C,C16*%
G36*
G01*
X111088999Y-82721000D02*
X112939001Y-82721000D01*
G75*
G02*
X113189000Y-82970999I0J-249999D01*
G01*
X113189000Y-84721001D01*
G75*
G02*
X112939001Y-84971000I-249999J0D01*
G01*
X111088999Y-84971000D01*
G75*
G02*
X110839000Y-84721001I0J249999D01*
G01*
X110839000Y-82970999D01*
G75*
G02*
X111088999Y-82721000I249999J0D01*
G01*
G37*
G36*
G01*
X111088999Y-77621000D02*
X112939001Y-77621000D01*
G75*
G02*
X113189000Y-77870999I0J-249999D01*
G01*
X113189000Y-79621001D01*
G75*
G02*
X112939001Y-79871000I-249999J0D01*
G01*
X111088999Y-79871000D01*
G75*
G02*
X110839000Y-79621001I0J249999D01*
G01*
X110839000Y-77870999D01*
G75*
G02*
X111088999Y-77621000I249999J0D01*
G01*
G37*
%TD*%
%TO.C,C15*%
G36*
G01*
X114055001Y-101405000D02*
X112004999Y-101405000D01*
G75*
G02*
X111755000Y-101155001I0J249999D01*
G01*
X111755000Y-99404999D01*
G75*
G02*
X112004999Y-99155000I249999J0D01*
G01*
X114055001Y-99155000D01*
G75*
G02*
X114305000Y-99404999I0J-249999D01*
G01*
X114305000Y-101155001D01*
G75*
G02*
X114055001Y-101405000I-249999J0D01*
G01*
G37*
G36*
G01*
X114055001Y-107805000D02*
X112004999Y-107805000D01*
G75*
G02*
X111755000Y-107555001I0J249999D01*
G01*
X111755000Y-105804999D01*
G75*
G02*
X112004999Y-105555000I249999J0D01*
G01*
X114055001Y-105555000D01*
G75*
G02*
X114305000Y-105804999I0J-249999D01*
G01*
X114305000Y-107555001D01*
G75*
G02*
X114055001Y-107805000I-249999J0D01*
G01*
G37*
%TD*%
%TO.C,C14*%
G36*
G01*
X114080001Y-127440000D02*
X112029999Y-127440000D01*
G75*
G02*
X111780000Y-127190001I0J249999D01*
G01*
X111780000Y-125439999D01*
G75*
G02*
X112029999Y-125190000I249999J0D01*
G01*
X114080001Y-125190000D01*
G75*
G02*
X114330000Y-125439999I0J-249999D01*
G01*
X114330000Y-127190001D01*
G75*
G02*
X114080001Y-127440000I-249999J0D01*
G01*
G37*
G36*
G01*
X114080001Y-133840000D02*
X112029999Y-133840000D01*
G75*
G02*
X111780000Y-133590001I0J249999D01*
G01*
X111780000Y-131839999D01*
G75*
G02*
X112029999Y-131590000I249999J0D01*
G01*
X114080001Y-131590000D01*
G75*
G02*
X114330000Y-131839999I0J-249999D01*
G01*
X114330000Y-133590001D01*
G75*
G02*
X114080001Y-133840000I-249999J0D01*
G01*
G37*
%TD*%
%TO.C,C13*%
G36*
G01*
X178209000Y-130973001D02*
X178209000Y-129122999D01*
G75*
G02*
X178458999Y-128873000I249999J0D01*
G01*
X180209001Y-128873000D01*
G75*
G02*
X180459000Y-129122999I0J-249999D01*
G01*
X180459000Y-130973001D01*
G75*
G02*
X180209001Y-131223000I-249999J0D01*
G01*
X178458999Y-131223000D01*
G75*
G02*
X178209000Y-130973001I0J249999D01*
G01*
G37*
G36*
G01*
X173109000Y-130973001D02*
X173109000Y-129122999D01*
G75*
G02*
X173358999Y-128873000I249999J0D01*
G01*
X175109001Y-128873000D01*
G75*
G02*
X175359000Y-129122999I0J-249999D01*
G01*
X175359000Y-130973001D01*
G75*
G02*
X175109001Y-131223000I-249999J0D01*
G01*
X173358999Y-131223000D01*
G75*
G02*
X173109000Y-130973001I0J249999D01*
G01*
G37*
%TD*%
%TO.C,C12*%
G36*
G01*
X166413000Y-71383001D02*
X166413000Y-69332999D01*
G75*
G02*
X166662999Y-69083000I249999J0D01*
G01*
X168413001Y-69083000D01*
G75*
G02*
X168663000Y-69332999I0J-249999D01*
G01*
X168663000Y-71383001D01*
G75*
G02*
X168413001Y-71633000I-249999J0D01*
G01*
X166662999Y-71633000D01*
G75*
G02*
X166413000Y-71383001I0J249999D01*
G01*
G37*
G36*
G01*
X160013000Y-71383001D02*
X160013000Y-69332999D01*
G75*
G02*
X160262999Y-69083000I249999J0D01*
G01*
X162013001Y-69083000D01*
G75*
G02*
X162263000Y-69332999I0J-249999D01*
G01*
X162263000Y-71383001D01*
G75*
G02*
X162013001Y-71633000I-249999J0D01*
G01*
X160262999Y-71633000D01*
G75*
G02*
X160013000Y-71383001I0J249999D01*
G01*
G37*
%TD*%
%TO.C,C11*%
G36*
G01*
X179621000Y-125231001D02*
X179621000Y-123180999D01*
G75*
G02*
X179870999Y-122931000I249999J0D01*
G01*
X181621001Y-122931000D01*
G75*
G02*
X181871000Y-123180999I0J-249999D01*
G01*
X181871000Y-125231001D01*
G75*
G02*
X181621001Y-125481000I-249999J0D01*
G01*
X179870999Y-125481000D01*
G75*
G02*
X179621000Y-125231001I0J249999D01*
G01*
G37*
G36*
G01*
X173221000Y-125231001D02*
X173221000Y-123180999D01*
G75*
G02*
X173470999Y-122931000I249999J0D01*
G01*
X175221001Y-122931000D01*
G75*
G02*
X175471000Y-123180999I0J-249999D01*
G01*
X175471000Y-125231001D01*
G75*
G02*
X175221001Y-125481000I-249999J0D01*
G01*
X173470999Y-125481000D01*
G75*
G02*
X173221000Y-125231001I0J249999D01*
G01*
G37*
%TD*%
D14*
%TO.C,U1*%
X157480000Y-78105000D03*
X135890000Y-78105000D03*
X157480000Y-93345000D03*
X135890000Y-93345000D03*
D15*
X140335000Y-94615000D03*
X142875000Y-94615000D03*
X145415000Y-94615000D03*
X147955000Y-94615000D03*
X150495000Y-94615000D03*
X153035000Y-94615000D03*
%TD*%
D16*
%TO.C,M8*%
X188258000Y-137144000D03*
%TD*%
%TO.C,M7*%
X188258000Y-79144000D03*
%TD*%
%TO.C,M6*%
X165258000Y-137144000D03*
%TD*%
%TO.C,M5*%
X165258000Y-79144000D03*
%TD*%
D17*
%TO.C,J8*%
X188735000Y-100524000D03*
D18*
X188735000Y-97984000D03*
%TD*%
D19*
%TO.C,J6*%
X154604000Y-142315000D03*
X150704000Y-142315000D03*
G36*
G01*
X149804000Y-143420000D02*
X149804000Y-144870000D01*
G75*
G02*
X149429000Y-145245000I-375000J0D01*
G01*
X148679000Y-145245000D01*
G75*
G02*
X148304000Y-144870000I0J375000D01*
G01*
X148304000Y-143420000D01*
G75*
G02*
X148679000Y-143045000I375000J0D01*
G01*
X149429000Y-143045000D01*
G75*
G02*
X149804000Y-143420000I0J-375000D01*
G01*
G37*
G36*
G01*
X157004000Y-143420000D02*
X157004000Y-144870000D01*
G75*
G02*
X156629000Y-145245000I-375000J0D01*
G01*
X155879000Y-145245000D01*
G75*
G02*
X155504000Y-144870000I0J375000D01*
G01*
X155504000Y-143420000D01*
G75*
G02*
X155879000Y-143045000I375000J0D01*
G01*
X156629000Y-143045000D01*
G75*
G02*
X157004000Y-143420000I0J-375000D01*
G01*
G37*
G36*
G01*
X156804000Y-140970000D02*
X156804000Y-141720000D01*
G75*
G02*
X156429000Y-142095000I-375000J0D01*
G01*
X155479000Y-142095000D01*
G75*
G02*
X155104000Y-141720000I0J375000D01*
G01*
X155104000Y-140970000D01*
G75*
G02*
X155479000Y-140595000I375000J0D01*
G01*
X156429000Y-140595000D01*
G75*
G02*
X156804000Y-140970000I0J-375000D01*
G01*
G37*
G36*
G01*
X150204000Y-140970000D02*
X150204000Y-141720000D01*
G75*
G02*
X149829000Y-142095000I-375000J0D01*
G01*
X148879000Y-142095000D01*
G75*
G02*
X148504000Y-141720000I0J375000D01*
G01*
X148504000Y-140970000D01*
G75*
G02*
X148879000Y-140595000I375000J0D01*
G01*
X149829000Y-140595000D01*
G75*
G02*
X150204000Y-140970000I0J-375000D01*
G01*
G37*
%TD*%
D20*
%TO.C,M4*%
X191926000Y-143664000D03*
D21*
X191926000Y-143664000D03*
%TD*%
D20*
%TO.C,M3*%
X111916000Y-143664000D03*
D21*
X111916000Y-143664000D03*
%TD*%
D20*
%TO.C,M2*%
X189386000Y-57939000D03*
D21*
X189386000Y-57939000D03*
%TD*%
D20*
%TO.C,M1*%
X115726000Y-57939000D03*
D21*
X115726000Y-57939000D03*
%TD*%
D17*
%TO.C,J7*%
X162585400Y-143764000D03*
D18*
X165125400Y-143764000D03*
%TD*%
D22*
%TO.C,J4*%
X114006000Y-75639000D03*
X114006000Y-74389000D03*
X114006000Y-73139000D03*
X114006000Y-71889000D03*
X114006000Y-70639000D03*
X114006000Y-69389000D03*
X114006000Y-68139000D03*
X114006000Y-66889000D03*
X114006000Y-65639000D03*
%TD*%
D17*
%TO.C,J3*%
X120015000Y-105950000D03*
X117475000Y-105950000D03*
X120015000Y-103410000D03*
X117475000Y-103410000D03*
X120015000Y-100870000D03*
X117475000Y-100870000D03*
X120015000Y-98330000D03*
X117475000Y-98330000D03*
X120015000Y-95790000D03*
X117475000Y-95790000D03*
X120015000Y-93250000D03*
X117475000Y-93250000D03*
X120015000Y-90710000D03*
X117475000Y-90710000D03*
X120015000Y-88170000D03*
X117475000Y-88170000D03*
X120015000Y-85630000D03*
X117475000Y-85630000D03*
X120015000Y-83090000D03*
D18*
X117475000Y-83090000D03*
%TD*%
D17*
%TO.C,J2*%
X117475000Y-119840000D03*
X120015000Y-119840000D03*
X117475000Y-122380000D03*
X120015000Y-122380000D03*
X117475000Y-124920000D03*
X120015000Y-124920000D03*
X117475000Y-127460000D03*
X120015000Y-127460000D03*
X117475000Y-130000000D03*
X120015000Y-130000000D03*
X117475000Y-132540000D03*
X120015000Y-132540000D03*
X117475000Y-135080000D03*
X120015000Y-135080000D03*
X117475000Y-137620000D03*
D18*
X120015000Y-137620000D03*
%TD*%
D17*
%TO.C,J1*%
X163970000Y-84014000D03*
X166510000Y-84014000D03*
X163970000Y-86554000D03*
X166510000Y-86554000D03*
X163970000Y-89094000D03*
X166510000Y-89094000D03*
X163970000Y-91634000D03*
X166510000Y-91634000D03*
X163970000Y-94174000D03*
X166510000Y-94174000D03*
X163970000Y-96714000D03*
X166510000Y-96714000D03*
X163970000Y-99254000D03*
X166510000Y-99254000D03*
X163970000Y-101794000D03*
X166510000Y-101794000D03*
X163970000Y-104334000D03*
X166510000Y-104334000D03*
X163970000Y-106874000D03*
X166510000Y-106874000D03*
X163970000Y-109414000D03*
X166510000Y-109414000D03*
X163970000Y-111954000D03*
X166510000Y-111954000D03*
X163970000Y-114494000D03*
X166510000Y-114494000D03*
X163970000Y-117034000D03*
X166510000Y-117034000D03*
X163970000Y-119574000D03*
X166510000Y-119574000D03*
X163970000Y-122114000D03*
X166510000Y-122114000D03*
X163970000Y-124654000D03*
X166510000Y-124654000D03*
X163970000Y-127194000D03*
X166510000Y-127194000D03*
X163970000Y-129734000D03*
X166510000Y-129734000D03*
X163970000Y-132274000D03*
D18*
X166510000Y-132274000D03*
%TD*%
D23*
%TO.C,H2*%
X184306000Y-57939000D03*
X184306000Y-60479000D03*
X181766000Y-57939000D03*
X181766000Y-60479000D03*
X179226000Y-57939000D03*
X179226000Y-60479000D03*
X176686000Y-57939000D03*
X176686000Y-60479000D03*
X174146000Y-57939000D03*
X174146000Y-60479000D03*
X171606000Y-57939000D03*
X171606000Y-60479000D03*
X169066000Y-57939000D03*
X169066000Y-60479000D03*
X166526000Y-57939000D03*
X166526000Y-60479000D03*
X163986000Y-57939000D03*
X163986000Y-60479000D03*
X161446000Y-57939000D03*
X161446000Y-60479000D03*
X158906000Y-57939000D03*
X158906000Y-60479000D03*
X156366000Y-57939000D03*
X156366000Y-60479000D03*
X153826000Y-57939000D03*
X153826000Y-60479000D03*
X151286000Y-57939000D03*
X151286000Y-60479000D03*
X148746000Y-57939000D03*
X148746000Y-60479000D03*
X146206000Y-57939000D03*
X146206000Y-60479000D03*
X143666000Y-57939000D03*
X143666000Y-60479000D03*
X141126000Y-57939000D03*
X141126000Y-60479000D03*
X138586000Y-57939000D03*
X138586000Y-60479000D03*
X136046000Y-57939000D03*
X136046000Y-60479000D03*
X133506000Y-57939000D03*
X133506000Y-60479000D03*
X130966000Y-57939000D03*
X130966000Y-60479000D03*
X128426000Y-57939000D03*
X128426000Y-60479000D03*
X125886000Y-57939000D03*
X125886000Y-60479000D03*
X123346000Y-57939000D03*
X123346000Y-60479000D03*
X120806000Y-57939000D03*
D24*
X120806000Y-60479000D03*
%TD*%
D23*
%TO.C,H1*%
X184306000Y-63019000D03*
X184306000Y-65559000D03*
X181766000Y-63019000D03*
X181766000Y-65559000D03*
X179226000Y-63019000D03*
X179226000Y-65559000D03*
X176686000Y-63019000D03*
X176686000Y-65559000D03*
X174146000Y-63019000D03*
X174146000Y-65559000D03*
X171606000Y-63019000D03*
X171606000Y-65559000D03*
X169066000Y-63019000D03*
X169066000Y-65559000D03*
X166526000Y-63019000D03*
X166526000Y-65559000D03*
X163986000Y-63019000D03*
X163986000Y-65559000D03*
X161446000Y-63019000D03*
X161446000Y-65559000D03*
X158906000Y-63019000D03*
X158906000Y-65559000D03*
X156366000Y-63019000D03*
X156366000Y-65559000D03*
X153826000Y-63019000D03*
X153826000Y-65559000D03*
X151286000Y-63019000D03*
X151286000Y-65559000D03*
X148746000Y-63019000D03*
X148746000Y-65559000D03*
X146206000Y-63019000D03*
X146206000Y-65559000D03*
X143666000Y-63019000D03*
X143666000Y-65559000D03*
X141126000Y-63019000D03*
X141126000Y-65559000D03*
X138586000Y-63019000D03*
X138586000Y-65559000D03*
X136046000Y-63019000D03*
X136046000Y-65559000D03*
X133506000Y-63019000D03*
X133506000Y-65559000D03*
X130966000Y-63019000D03*
X130966000Y-65559000D03*
X128426000Y-63019000D03*
X128426000Y-65559000D03*
X125886000Y-63019000D03*
X125886000Y-65559000D03*
X123346000Y-63019000D03*
X123346000Y-65559000D03*
X120806000Y-63019000D03*
D24*
X120806000Y-65559000D03*
%TD*%
M02*
