%TF.GenerationSoftware,KiCad,Pcbnew,(5.1.9)-1*%
%TF.CreationDate,2021-11-05T18:48:06-04:00*%
%TF.ProjectId,REVERB Interface,52455645-5242-4204-996e-746572666163,rev?*%
%TF.SameCoordinates,Original*%
%TF.FileFunction,Paste,Bot*%
%TF.FilePolarity,Positive*%
%FSLAX46Y46*%
G04 Gerber Fmt 4.6, Leading zero omitted, Abs format (unit mm)*
G04 Created by KiCad (PCBNEW (5.1.9)-1) date 2021-11-05 18:48:06*
%MOMM*%
%LPD*%
G01*
G04 APERTURE LIST*
%ADD10C,0.150000*%
G04 APERTURE END LIST*
%TO.C,J1*%
D10*
X172386666Y-131532380D02*
X172386666Y-132246666D01*
X172339047Y-132389523D01*
X172243809Y-132484761D01*
X172100952Y-132532380D01*
X172005714Y-132532380D01*
X173386666Y-132532380D02*
X172815238Y-132532380D01*
X173100952Y-132532380D02*
X173100952Y-131532380D01*
X173005714Y-131675238D01*
X172910476Y-131770476D01*
X172815238Y-131818095D01*
%TD*%
%TO.C,C17*%
G36*
G01*
X115090000Y-85710001D02*
X115090000Y-83859999D01*
G75*
G02*
X115339999Y-83610000I249999J0D01*
G01*
X117090001Y-83610000D01*
G75*
G02*
X117340000Y-83859999I0J-249999D01*
G01*
X117340000Y-85710001D01*
G75*
G02*
X117090001Y-85960000I-249999J0D01*
G01*
X115339999Y-85960000D01*
G75*
G02*
X115090000Y-85710001I0J249999D01*
G01*
G37*
G36*
G01*
X109990000Y-85710001D02*
X109990000Y-83859999D01*
G75*
G02*
X110239999Y-83610000I249999J0D01*
G01*
X111990001Y-83610000D01*
G75*
G02*
X112240000Y-83859999I0J-249999D01*
G01*
X112240000Y-85710001D01*
G75*
G02*
X111990001Y-85960000I-249999J0D01*
G01*
X110239999Y-85960000D01*
G75*
G02*
X109990000Y-85710001I0J249999D01*
G01*
G37*
%TD*%
%TO.C,C16*%
G36*
G01*
X115090000Y-90460001D02*
X115090000Y-88609999D01*
G75*
G02*
X115339999Y-88360000I249999J0D01*
G01*
X117090001Y-88360000D01*
G75*
G02*
X117340000Y-88609999I0J-249999D01*
G01*
X117340000Y-90460001D01*
G75*
G02*
X117090001Y-90710000I-249999J0D01*
G01*
X115339999Y-90710000D01*
G75*
G02*
X115090000Y-90460001I0J249999D01*
G01*
G37*
G36*
G01*
X109990000Y-90460001D02*
X109990000Y-88609999D01*
G75*
G02*
X110239999Y-88360000I249999J0D01*
G01*
X111990001Y-88360000D01*
G75*
G02*
X112240000Y-88609999I0J-249999D01*
G01*
X112240000Y-90460001D01*
G75*
G02*
X111990001Y-90710000I-249999J0D01*
G01*
X110239999Y-90710000D01*
G75*
G02*
X109990000Y-90460001I0J249999D01*
G01*
G37*
%TD*%
%TO.C,C27*%
G36*
G01*
X149188999Y-126393000D02*
X151039001Y-126393000D01*
G75*
G02*
X151289000Y-126642999I0J-249999D01*
G01*
X151289000Y-128393001D01*
G75*
G02*
X151039001Y-128643000I-249999J0D01*
G01*
X149188999Y-128643000D01*
G75*
G02*
X148939000Y-128393001I0J249999D01*
G01*
X148939000Y-126642999D01*
G75*
G02*
X149188999Y-126393000I249999J0D01*
G01*
G37*
G36*
G01*
X149188999Y-121293000D02*
X151039001Y-121293000D01*
G75*
G02*
X151289000Y-121542999I0J-249999D01*
G01*
X151289000Y-123293001D01*
G75*
G02*
X151039001Y-123543000I-249999J0D01*
G01*
X149188999Y-123543000D01*
G75*
G02*
X148939000Y-123293001I0J249999D01*
G01*
X148939000Y-121542999D01*
G75*
G02*
X149188999Y-121293000I249999J0D01*
G01*
G37*
%TD*%
%TO.C,C25*%
G36*
G01*
X137005000Y-122264999D02*
X137005000Y-124115001D01*
G75*
G02*
X136755001Y-124365000I-249999J0D01*
G01*
X135004999Y-124365000D01*
G75*
G02*
X134755000Y-124115001I0J249999D01*
G01*
X134755000Y-122264999D01*
G75*
G02*
X135004999Y-122015000I249999J0D01*
G01*
X136755001Y-122015000D01*
G75*
G02*
X137005000Y-122264999I0J-249999D01*
G01*
G37*
G36*
G01*
X142105000Y-122264999D02*
X142105000Y-124115001D01*
G75*
G02*
X141855001Y-124365000I-249999J0D01*
G01*
X140104999Y-124365000D01*
G75*
G02*
X139855000Y-124115001I0J249999D01*
G01*
X139855000Y-122264999D01*
G75*
G02*
X140104999Y-122015000I249999J0D01*
G01*
X141855001Y-122015000D01*
G75*
G02*
X142105000Y-122264999I0J-249999D01*
G01*
G37*
%TD*%
%TO.C,C24*%
G36*
G01*
X112875000Y-104484999D02*
X112875000Y-106335001D01*
G75*
G02*
X112625001Y-106585000I-249999J0D01*
G01*
X110874999Y-106585000D01*
G75*
G02*
X110625000Y-106335001I0J249999D01*
G01*
X110625000Y-104484999D01*
G75*
G02*
X110874999Y-104235000I249999J0D01*
G01*
X112625001Y-104235000D01*
G75*
G02*
X112875000Y-104484999I0J-249999D01*
G01*
G37*
G36*
G01*
X117975000Y-104484999D02*
X117975000Y-106335001D01*
G75*
G02*
X117725001Y-106585000I-249999J0D01*
G01*
X115974999Y-106585000D01*
G75*
G02*
X115725000Y-106335001I0J249999D01*
G01*
X115725000Y-104484999D01*
G75*
G02*
X115974999Y-104235000I249999J0D01*
G01*
X117725001Y-104235000D01*
G75*
G02*
X117975000Y-104484999I0J-249999D01*
G01*
G37*
%TD*%
%TO.C,C23*%
G36*
G01*
X112024999Y-98825000D02*
X112024999Y-100875002D01*
G75*
G02*
X111775000Y-101125001I-249999J0D01*
G01*
X110024998Y-101125001D01*
G75*
G02*
X109774999Y-100875002I0J249999D01*
G01*
X109774999Y-98825000D01*
G75*
G02*
X110024998Y-98575001I249999J0D01*
G01*
X111775000Y-98575001D01*
G75*
G02*
X112024999Y-98825000I0J-249999D01*
G01*
G37*
G36*
G01*
X118424999Y-98825000D02*
X118424999Y-100875002D01*
G75*
G02*
X118175000Y-101125001I-249999J0D01*
G01*
X116424998Y-101125001D01*
G75*
G02*
X116174999Y-100875002I0J249999D01*
G01*
X116174999Y-98825000D01*
G75*
G02*
X116424998Y-98575001I249999J0D01*
G01*
X118175000Y-98575001D01*
G75*
G02*
X118424999Y-98825000I0J-249999D01*
G01*
G37*
%TD*%
%TO.C,C22*%
G36*
G01*
X173445999Y-73688000D02*
X175296001Y-73688000D01*
G75*
G02*
X175546000Y-73937999I0J-249999D01*
G01*
X175546000Y-75688001D01*
G75*
G02*
X175296001Y-75938000I-249999J0D01*
G01*
X173445999Y-75938000D01*
G75*
G02*
X173196000Y-75688001I0J249999D01*
G01*
X173196000Y-73937999D01*
G75*
G02*
X173445999Y-73688000I249999J0D01*
G01*
G37*
G36*
G01*
X173445999Y-68588000D02*
X175296001Y-68588000D01*
G75*
G02*
X175546000Y-68837999I0J-249999D01*
G01*
X175546000Y-70588001D01*
G75*
G02*
X175296001Y-70838000I-249999J0D01*
G01*
X173445999Y-70838000D01*
G75*
G02*
X173196000Y-70588001I0J249999D01*
G01*
X173196000Y-68837999D01*
G75*
G02*
X173445999Y-68588000I249999J0D01*
G01*
G37*
%TD*%
%TO.C,C21*%
G36*
G01*
X167630999Y-74338000D02*
X169681001Y-74338000D01*
G75*
G02*
X169931000Y-74587999I0J-249999D01*
G01*
X169931000Y-76338001D01*
G75*
G02*
X169681001Y-76588000I-249999J0D01*
G01*
X167630999Y-76588000D01*
G75*
G02*
X167381000Y-76338001I0J249999D01*
G01*
X167381000Y-74587999D01*
G75*
G02*
X167630999Y-74338000I249999J0D01*
G01*
G37*
G36*
G01*
X167630999Y-67938000D02*
X169681001Y-67938000D01*
G75*
G02*
X169931000Y-68187999I0J-249999D01*
G01*
X169931000Y-69938001D01*
G75*
G02*
X169681001Y-70188000I-249999J0D01*
G01*
X167630999Y-70188000D01*
G75*
G02*
X167381000Y-69938001I0J249999D01*
G01*
X167381000Y-68187999D01*
G75*
G02*
X167630999Y-67938000I249999J0D01*
G01*
G37*
%TD*%
%TO.C,C20*%
G36*
G01*
X161280999Y-74338000D02*
X163331001Y-74338000D01*
G75*
G02*
X163581000Y-74587999I0J-249999D01*
G01*
X163581000Y-76338001D01*
G75*
G02*
X163331001Y-76588000I-249999J0D01*
G01*
X161280999Y-76588000D01*
G75*
G02*
X161031000Y-76338001I0J249999D01*
G01*
X161031000Y-74587999D01*
G75*
G02*
X161280999Y-74338000I249999J0D01*
G01*
G37*
G36*
G01*
X161280999Y-67938000D02*
X163331001Y-67938000D01*
G75*
G02*
X163581000Y-68187999I0J-249999D01*
G01*
X163581000Y-69938001D01*
G75*
G02*
X163331001Y-70188000I-249999J0D01*
G01*
X161280999Y-70188000D01*
G75*
G02*
X161031000Y-69938001I0J249999D01*
G01*
X161031000Y-68187999D01*
G75*
G02*
X161280999Y-67938000I249999J0D01*
G01*
G37*
%TD*%
%TO.C,C18*%
G36*
G01*
X141760000Y-87920001D02*
X141760000Y-86069999D01*
G75*
G02*
X142009999Y-85820000I249999J0D01*
G01*
X143760001Y-85820000D01*
G75*
G02*
X144010000Y-86069999I0J-249999D01*
G01*
X144010000Y-87920001D01*
G75*
G02*
X143760001Y-88170000I-249999J0D01*
G01*
X142009999Y-88170000D01*
G75*
G02*
X141760000Y-87920001I0J249999D01*
G01*
G37*
G36*
G01*
X136660000Y-87920001D02*
X136660000Y-86069999D01*
G75*
G02*
X136909999Y-85820000I249999J0D01*
G01*
X138660001Y-85820000D01*
G75*
G02*
X138910000Y-86069999I0J-249999D01*
G01*
X138910000Y-87920001D01*
G75*
G02*
X138660001Y-88170000I-249999J0D01*
G01*
X136909999Y-88170000D01*
G75*
G02*
X136660000Y-87920001I0J249999D01*
G01*
G37*
%TD*%
%TO.C,C15*%
G36*
G01*
X112875000Y-131154999D02*
X112875000Y-133005001D01*
G75*
G02*
X112625001Y-133255000I-249999J0D01*
G01*
X110874999Y-133255000D01*
G75*
G02*
X110625000Y-133005001I0J249999D01*
G01*
X110625000Y-131154999D01*
G75*
G02*
X110874999Y-130905000I249999J0D01*
G01*
X112625001Y-130905000D01*
G75*
G02*
X112875000Y-131154999I0J-249999D01*
G01*
G37*
G36*
G01*
X117975000Y-131154999D02*
X117975000Y-133005001D01*
G75*
G02*
X117725001Y-133255000I-249999J0D01*
G01*
X115974999Y-133255000D01*
G75*
G02*
X115725000Y-133005001I0J249999D01*
G01*
X115725000Y-131154999D01*
G75*
G02*
X115974999Y-130905000I249999J0D01*
G01*
X117725001Y-130905000D01*
G75*
G02*
X117975000Y-131154999I0J-249999D01*
G01*
G37*
%TD*%
%TO.C,C14*%
G36*
G01*
X112225000Y-125339999D02*
X112225000Y-127390001D01*
G75*
G02*
X111975001Y-127640000I-249999J0D01*
G01*
X110224999Y-127640000D01*
G75*
G02*
X109975000Y-127390001I0J249999D01*
G01*
X109975000Y-125339999D01*
G75*
G02*
X110224999Y-125090000I249999J0D01*
G01*
X111975001Y-125090000D01*
G75*
G02*
X112225000Y-125339999I0J-249999D01*
G01*
G37*
G36*
G01*
X118625000Y-125339999D02*
X118625000Y-127390001D01*
G75*
G02*
X118375001Y-127640000I-249999J0D01*
G01*
X116624999Y-127640000D01*
G75*
G02*
X116375000Y-127390001I0J249999D01*
G01*
X116375000Y-125339999D01*
G75*
G02*
X116624999Y-125090000I249999J0D01*
G01*
X118375001Y-125090000D01*
G75*
G02*
X118625000Y-125339999I0J-249999D01*
G01*
G37*
%TD*%
%TO.C,C13*%
G36*
G01*
X183035000Y-130465001D02*
X183035000Y-128614999D01*
G75*
G02*
X183284999Y-128365000I249999J0D01*
G01*
X185035001Y-128365000D01*
G75*
G02*
X185285000Y-128614999I0J-249999D01*
G01*
X185285000Y-130465001D01*
G75*
G02*
X185035001Y-130715000I-249999J0D01*
G01*
X183284999Y-130715000D01*
G75*
G02*
X183035000Y-130465001I0J249999D01*
G01*
G37*
G36*
G01*
X177935000Y-130465001D02*
X177935000Y-128614999D01*
G75*
G02*
X178184999Y-128365000I249999J0D01*
G01*
X179935001Y-128365000D01*
G75*
G02*
X180185000Y-128614999I0J-249999D01*
G01*
X180185000Y-130465001D01*
G75*
G02*
X179935001Y-130715000I-249999J0D01*
G01*
X178184999Y-130715000D01*
G75*
G02*
X177935000Y-130465001I0J249999D01*
G01*
G37*
%TD*%
%TO.C,C12*%
G36*
G01*
X183035000Y-125385001D02*
X183035000Y-123534999D01*
G75*
G02*
X183284999Y-123285000I249999J0D01*
G01*
X185035001Y-123285000D01*
G75*
G02*
X185285000Y-123534999I0J-249999D01*
G01*
X185285000Y-125385001D01*
G75*
G02*
X185035001Y-125635000I-249999J0D01*
G01*
X183284999Y-125635000D01*
G75*
G02*
X183035000Y-125385001I0J249999D01*
G01*
G37*
G36*
G01*
X177935000Y-125385001D02*
X177935000Y-123534999D01*
G75*
G02*
X178184999Y-123285000I249999J0D01*
G01*
X179935001Y-123285000D01*
G75*
G02*
X180185000Y-123534999I0J-249999D01*
G01*
X180185000Y-125385001D01*
G75*
G02*
X179935001Y-125635000I-249999J0D01*
G01*
X178184999Y-125635000D01*
G75*
G02*
X177935000Y-125385001I0J249999D01*
G01*
G37*
%TD*%
%TO.C,C11*%
G36*
G01*
X183685000Y-119770001D02*
X183685000Y-117719999D01*
G75*
G02*
X183934999Y-117470000I249999J0D01*
G01*
X185685001Y-117470000D01*
G75*
G02*
X185935000Y-117719999I0J-249999D01*
G01*
X185935000Y-119770001D01*
G75*
G02*
X185685001Y-120020000I-249999J0D01*
G01*
X183934999Y-120020000D01*
G75*
G02*
X183685000Y-119770001I0J249999D01*
G01*
G37*
G36*
G01*
X177285000Y-119770001D02*
X177285000Y-117719999D01*
G75*
G02*
X177534999Y-117470000I249999J0D01*
G01*
X179285001Y-117470000D01*
G75*
G02*
X179535000Y-117719999I0J-249999D01*
G01*
X179535000Y-119770001D01*
G75*
G02*
X179285001Y-120020000I-249999J0D01*
G01*
X177534999Y-120020000D01*
G75*
G02*
X177285000Y-119770001I0J249999D01*
G01*
G37*
%TD*%
M02*
