%TF.GenerationSoftware,KiCad,Pcbnew,(5.1.9)-1*%
%TF.CreationDate,2021-11-11T22:19:21-05:00*%
%TF.ProjectId,REVERB Interface,52455645-5242-4204-996e-746572666163,rev?*%
%TF.SameCoordinates,Original*%
%TF.FileFunction,Soldermask,Top*%
%TF.FilePolarity,Negative*%
%FSLAX46Y46*%
G04 Gerber Fmt 4.6, Leading zero omitted, Abs format (unit mm)*
G04 Created by KiCad (PCBNEW (5.1.9)-1) date 2021-11-11 22:19:21*
%MOMM*%
%LPD*%
G01*
G04 APERTURE LIST*
%ADD10C,2.500000*%
%ADD11C,1.524000*%
%ADD12C,2.000000*%
%ADD13C,2.700000*%
%ADD14O,1.700000X1.700000*%
%ADD15R,1.700000X1.700000*%
%ADD16R,1.000000X1.500000*%
%ADD17R,1.750000X0.450000*%
%ADD18R,1.100000X1.350000*%
%ADD19C,0.800000*%
%ADD20R,0.400000X2.000000*%
%ADD21C,5.600000*%
%ADD22C,3.600000*%
%ADD23O,1.400000X0.700000*%
%ADD24O,1.500000X1.500000*%
%ADD25R,1.500000X1.500000*%
G04 APERTURE END LIST*
D10*
%TO.C,U1*%
X157480000Y-78105000D03*
X135890000Y-78105000D03*
X157480000Y-93345000D03*
X135890000Y-93345000D03*
D11*
X140335000Y-94615000D03*
X142875000Y-94615000D03*
X145415000Y-94615000D03*
X147955000Y-94615000D03*
X150495000Y-94615000D03*
X153035000Y-94615000D03*
%TD*%
%TO.C,U4*%
G36*
G01*
X133755000Y-112245000D02*
X133755000Y-112545000D01*
G75*
G02*
X133605000Y-112695000I-150000J0D01*
G01*
X131955000Y-112695000D01*
G75*
G02*
X131805000Y-112545000I0J150000D01*
G01*
X131805000Y-112245000D01*
G75*
G02*
X131955000Y-112095000I150000J0D01*
G01*
X133605000Y-112095000D01*
G75*
G02*
X133755000Y-112245000I0J-150000D01*
G01*
G37*
G36*
G01*
X133755000Y-110975000D02*
X133755000Y-111275000D01*
G75*
G02*
X133605000Y-111425000I-150000J0D01*
G01*
X131955000Y-111425000D01*
G75*
G02*
X131805000Y-111275000I0J150000D01*
G01*
X131805000Y-110975000D01*
G75*
G02*
X131955000Y-110825000I150000J0D01*
G01*
X133605000Y-110825000D01*
G75*
G02*
X133755000Y-110975000I0J-150000D01*
G01*
G37*
G36*
G01*
X133755000Y-109705000D02*
X133755000Y-110005000D01*
G75*
G02*
X133605000Y-110155000I-150000J0D01*
G01*
X131955000Y-110155000D01*
G75*
G02*
X131805000Y-110005000I0J150000D01*
G01*
X131805000Y-109705000D01*
G75*
G02*
X131955000Y-109555000I150000J0D01*
G01*
X133605000Y-109555000D01*
G75*
G02*
X133755000Y-109705000I0J-150000D01*
G01*
G37*
G36*
G01*
X133755000Y-108435000D02*
X133755000Y-108735000D01*
G75*
G02*
X133605000Y-108885000I-150000J0D01*
G01*
X131955000Y-108885000D01*
G75*
G02*
X131805000Y-108735000I0J150000D01*
G01*
X131805000Y-108435000D01*
G75*
G02*
X131955000Y-108285000I150000J0D01*
G01*
X133605000Y-108285000D01*
G75*
G02*
X133755000Y-108435000I0J-150000D01*
G01*
G37*
G36*
G01*
X133755000Y-107165000D02*
X133755000Y-107465000D01*
G75*
G02*
X133605000Y-107615000I-150000J0D01*
G01*
X131955000Y-107615000D01*
G75*
G02*
X131805000Y-107465000I0J150000D01*
G01*
X131805000Y-107165000D01*
G75*
G02*
X131955000Y-107015000I150000J0D01*
G01*
X133605000Y-107015000D01*
G75*
G02*
X133755000Y-107165000I0J-150000D01*
G01*
G37*
G36*
G01*
X133755000Y-105895000D02*
X133755000Y-106195000D01*
G75*
G02*
X133605000Y-106345000I-150000J0D01*
G01*
X131955000Y-106345000D01*
G75*
G02*
X131805000Y-106195000I0J150000D01*
G01*
X131805000Y-105895000D01*
G75*
G02*
X131955000Y-105745000I150000J0D01*
G01*
X133605000Y-105745000D01*
G75*
G02*
X133755000Y-105895000I0J-150000D01*
G01*
G37*
G36*
G01*
X133755000Y-104625000D02*
X133755000Y-104925000D01*
G75*
G02*
X133605000Y-105075000I-150000J0D01*
G01*
X131955000Y-105075000D01*
G75*
G02*
X131805000Y-104925000I0J150000D01*
G01*
X131805000Y-104625000D01*
G75*
G02*
X131955000Y-104475000I150000J0D01*
G01*
X133605000Y-104475000D01*
G75*
G02*
X133755000Y-104625000I0J-150000D01*
G01*
G37*
G36*
G01*
X138705000Y-104625000D02*
X138705000Y-104925000D01*
G75*
G02*
X138555000Y-105075000I-150000J0D01*
G01*
X136905000Y-105075000D01*
G75*
G02*
X136755000Y-104925000I0J150000D01*
G01*
X136755000Y-104625000D01*
G75*
G02*
X136905000Y-104475000I150000J0D01*
G01*
X138555000Y-104475000D01*
G75*
G02*
X138705000Y-104625000I0J-150000D01*
G01*
G37*
G36*
G01*
X138705000Y-105895000D02*
X138705000Y-106195000D01*
G75*
G02*
X138555000Y-106345000I-150000J0D01*
G01*
X136905000Y-106345000D01*
G75*
G02*
X136755000Y-106195000I0J150000D01*
G01*
X136755000Y-105895000D01*
G75*
G02*
X136905000Y-105745000I150000J0D01*
G01*
X138555000Y-105745000D01*
G75*
G02*
X138705000Y-105895000I0J-150000D01*
G01*
G37*
G36*
G01*
X138705000Y-107165000D02*
X138705000Y-107465000D01*
G75*
G02*
X138555000Y-107615000I-150000J0D01*
G01*
X136905000Y-107615000D01*
G75*
G02*
X136755000Y-107465000I0J150000D01*
G01*
X136755000Y-107165000D01*
G75*
G02*
X136905000Y-107015000I150000J0D01*
G01*
X138555000Y-107015000D01*
G75*
G02*
X138705000Y-107165000I0J-150000D01*
G01*
G37*
G36*
G01*
X138705000Y-108435000D02*
X138705000Y-108735000D01*
G75*
G02*
X138555000Y-108885000I-150000J0D01*
G01*
X136905000Y-108885000D01*
G75*
G02*
X136755000Y-108735000I0J150000D01*
G01*
X136755000Y-108435000D01*
G75*
G02*
X136905000Y-108285000I150000J0D01*
G01*
X138555000Y-108285000D01*
G75*
G02*
X138705000Y-108435000I0J-150000D01*
G01*
G37*
G36*
G01*
X138705000Y-109705000D02*
X138705000Y-110005000D01*
G75*
G02*
X138555000Y-110155000I-150000J0D01*
G01*
X136905000Y-110155000D01*
G75*
G02*
X136755000Y-110005000I0J150000D01*
G01*
X136755000Y-109705000D01*
G75*
G02*
X136905000Y-109555000I150000J0D01*
G01*
X138555000Y-109555000D01*
G75*
G02*
X138705000Y-109705000I0J-150000D01*
G01*
G37*
G36*
G01*
X138705000Y-110975000D02*
X138705000Y-111275000D01*
G75*
G02*
X138555000Y-111425000I-150000J0D01*
G01*
X136905000Y-111425000D01*
G75*
G02*
X136755000Y-111275000I0J150000D01*
G01*
X136755000Y-110975000D01*
G75*
G02*
X136905000Y-110825000I150000J0D01*
G01*
X138555000Y-110825000D01*
G75*
G02*
X138705000Y-110975000I0J-150000D01*
G01*
G37*
G36*
G01*
X138705000Y-112245000D02*
X138705000Y-112545000D01*
G75*
G02*
X138555000Y-112695000I-150000J0D01*
G01*
X136905000Y-112695000D01*
G75*
G02*
X136755000Y-112545000I0J150000D01*
G01*
X136755000Y-112245000D01*
G75*
G02*
X136905000Y-112095000I150000J0D01*
G01*
X138555000Y-112095000D01*
G75*
G02*
X138705000Y-112245000I0J-150000D01*
G01*
G37*
%TD*%
%TO.C,C10*%
G36*
G01*
X141003000Y-114115000D02*
X141953000Y-114115000D01*
G75*
G02*
X142203000Y-114365000I0J-250000D01*
G01*
X142203000Y-115040000D01*
G75*
G02*
X141953000Y-115290000I-250000J0D01*
G01*
X141003000Y-115290000D01*
G75*
G02*
X140753000Y-115040000I0J250000D01*
G01*
X140753000Y-114365000D01*
G75*
G02*
X141003000Y-114115000I250000J0D01*
G01*
G37*
G36*
G01*
X141003000Y-112040000D02*
X141953000Y-112040000D01*
G75*
G02*
X142203000Y-112290000I0J-250000D01*
G01*
X142203000Y-112965000D01*
G75*
G02*
X141953000Y-113215000I-250000J0D01*
G01*
X141003000Y-113215000D01*
G75*
G02*
X140753000Y-112965000I0J250000D01*
G01*
X140753000Y-112290000D01*
G75*
G02*
X141003000Y-112040000I250000J0D01*
G01*
G37*
%TD*%
%TO.C,C9*%
G36*
G01*
X127820000Y-111920000D02*
X127820000Y-112870000D01*
G75*
G02*
X127570000Y-113120000I-250000J0D01*
G01*
X126895000Y-113120000D01*
G75*
G02*
X126645000Y-112870000I0J250000D01*
G01*
X126645000Y-111920000D01*
G75*
G02*
X126895000Y-111670000I250000J0D01*
G01*
X127570000Y-111670000D01*
G75*
G02*
X127820000Y-111920000I0J-250000D01*
G01*
G37*
G36*
G01*
X129895000Y-111920000D02*
X129895000Y-112870000D01*
G75*
G02*
X129645000Y-113120000I-250000J0D01*
G01*
X128970000Y-113120000D01*
G75*
G02*
X128720000Y-112870000I0J250000D01*
G01*
X128720000Y-111920000D01*
G75*
G02*
X128970000Y-111670000I250000J0D01*
G01*
X129645000Y-111670000D01*
G75*
G02*
X129895000Y-111920000I0J-250000D01*
G01*
G37*
%TD*%
%TO.C,U2*%
G36*
G01*
X139354999Y-136200000D02*
X140614997Y-136200000D01*
G75*
G02*
X140809997Y-136395000I0J-195000D01*
G01*
X140809997Y-136655000D01*
G75*
G02*
X140614997Y-136850000I-195000J0D01*
G01*
X139354999Y-136850000D01*
G75*
G02*
X139159999Y-136655000I0J195000D01*
G01*
X139159999Y-136395000D01*
G75*
G02*
X139354999Y-136200000I195000J0D01*
G01*
G37*
G36*
G01*
X139354999Y-134930000D02*
X140614997Y-134930000D01*
G75*
G02*
X140809997Y-135125000I0J-195000D01*
G01*
X140809997Y-135385000D01*
G75*
G02*
X140614997Y-135580000I-195000J0D01*
G01*
X139354999Y-135580000D01*
G75*
G02*
X139159999Y-135385000I0J195000D01*
G01*
X139159999Y-135125000D01*
G75*
G02*
X139354999Y-134930000I195000J0D01*
G01*
G37*
G36*
G01*
X139354999Y-133660000D02*
X140614997Y-133660000D01*
G75*
G02*
X140809997Y-133855000I0J-195000D01*
G01*
X140809997Y-134115000D01*
G75*
G02*
X140614997Y-134310000I-195000J0D01*
G01*
X139354999Y-134310000D01*
G75*
G02*
X139159999Y-134115000I0J195000D01*
G01*
X139159999Y-133855000D01*
G75*
G02*
X139354999Y-133660000I195000J0D01*
G01*
G37*
G36*
G01*
X139354999Y-132390000D02*
X140614997Y-132390000D01*
G75*
G02*
X140809997Y-132585000I0J-195000D01*
G01*
X140809997Y-132845000D01*
G75*
G02*
X140614997Y-133040000I-195000J0D01*
G01*
X139354999Y-133040000D01*
G75*
G02*
X139159999Y-132845000I0J195000D01*
G01*
X139159999Y-132585000D01*
G75*
G02*
X139354999Y-132390000I195000J0D01*
G01*
G37*
G36*
G01*
X139354999Y-131120000D02*
X140614997Y-131120000D01*
G75*
G02*
X140809997Y-131315000I0J-195000D01*
G01*
X140809997Y-131575000D01*
G75*
G02*
X140614997Y-131770000I-195000J0D01*
G01*
X139354999Y-131770000D01*
G75*
G02*
X139159999Y-131575000I0J195000D01*
G01*
X139159999Y-131315000D01*
G75*
G02*
X139354999Y-131120000I195000J0D01*
G01*
G37*
G36*
G01*
X139354999Y-129850000D02*
X140614997Y-129850000D01*
G75*
G02*
X140809997Y-130045000I0J-195000D01*
G01*
X140809997Y-130305000D01*
G75*
G02*
X140614997Y-130500000I-195000J0D01*
G01*
X139354999Y-130500000D01*
G75*
G02*
X139159999Y-130305000I0J195000D01*
G01*
X139159999Y-130045000D01*
G75*
G02*
X139354999Y-129850000I195000J0D01*
G01*
G37*
G36*
G01*
X139354999Y-128580000D02*
X140614997Y-128580000D01*
G75*
G02*
X140809997Y-128775000I0J-195000D01*
G01*
X140809997Y-129035000D01*
G75*
G02*
X140614997Y-129230000I-195000J0D01*
G01*
X139354999Y-129230000D01*
G75*
G02*
X139159999Y-129035000I0J195000D01*
G01*
X139159999Y-128775000D01*
G75*
G02*
X139354999Y-128580000I195000J0D01*
G01*
G37*
G36*
G01*
X139354999Y-127310000D02*
X140614997Y-127310000D01*
G75*
G02*
X140809997Y-127505000I0J-195000D01*
G01*
X140809997Y-127765000D01*
G75*
G02*
X140614997Y-127960000I-195000J0D01*
G01*
X139354999Y-127960000D01*
G75*
G02*
X139159999Y-127765000I0J195000D01*
G01*
X139159999Y-127505000D01*
G75*
G02*
X139354999Y-127310000I195000J0D01*
G01*
G37*
G36*
G01*
X133705000Y-136200000D02*
X134964998Y-136200000D01*
G75*
G02*
X135159998Y-136395000I0J-195000D01*
G01*
X135159998Y-136655000D01*
G75*
G02*
X134964998Y-136850000I-195000J0D01*
G01*
X133705000Y-136850000D01*
G75*
G02*
X133510000Y-136655000I0J195000D01*
G01*
X133510000Y-136395000D01*
G75*
G02*
X133705000Y-136200000I195000J0D01*
G01*
G37*
G36*
G01*
X133705000Y-134930000D02*
X134964998Y-134930000D01*
G75*
G02*
X135159998Y-135125000I0J-195000D01*
G01*
X135159998Y-135385000D01*
G75*
G02*
X134964998Y-135580000I-195000J0D01*
G01*
X133705000Y-135580000D01*
G75*
G02*
X133510000Y-135385000I0J195000D01*
G01*
X133510000Y-135125000D01*
G75*
G02*
X133705000Y-134930000I195000J0D01*
G01*
G37*
G36*
G01*
X133705000Y-133660000D02*
X134964998Y-133660000D01*
G75*
G02*
X135159998Y-133855000I0J-195000D01*
G01*
X135159998Y-134115000D01*
G75*
G02*
X134964998Y-134310000I-195000J0D01*
G01*
X133705000Y-134310000D01*
G75*
G02*
X133510000Y-134115000I0J195000D01*
G01*
X133510000Y-133855000D01*
G75*
G02*
X133705000Y-133660000I195000J0D01*
G01*
G37*
G36*
G01*
X133705000Y-132390000D02*
X134964998Y-132390000D01*
G75*
G02*
X135159998Y-132585000I0J-195000D01*
G01*
X135159998Y-132845000D01*
G75*
G02*
X134964998Y-133040000I-195000J0D01*
G01*
X133705000Y-133040000D01*
G75*
G02*
X133510000Y-132845000I0J195000D01*
G01*
X133510000Y-132585000D01*
G75*
G02*
X133705000Y-132390000I195000J0D01*
G01*
G37*
G36*
G01*
X133705000Y-131120000D02*
X134964998Y-131120000D01*
G75*
G02*
X135159998Y-131315000I0J-195000D01*
G01*
X135159998Y-131575000D01*
G75*
G02*
X134964998Y-131770000I-195000J0D01*
G01*
X133705000Y-131770000D01*
G75*
G02*
X133510000Y-131575000I0J195000D01*
G01*
X133510000Y-131315000D01*
G75*
G02*
X133705000Y-131120000I195000J0D01*
G01*
G37*
G36*
G01*
X133705000Y-129850000D02*
X134964998Y-129850000D01*
G75*
G02*
X135159998Y-130045000I0J-195000D01*
G01*
X135159998Y-130305000D01*
G75*
G02*
X134964998Y-130500000I-195000J0D01*
G01*
X133705000Y-130500000D01*
G75*
G02*
X133510000Y-130305000I0J195000D01*
G01*
X133510000Y-130045000D01*
G75*
G02*
X133705000Y-129850000I195000J0D01*
G01*
G37*
G36*
G01*
X133705000Y-128580000D02*
X134964998Y-128580000D01*
G75*
G02*
X135159998Y-128775000I0J-195000D01*
G01*
X135159998Y-129035000D01*
G75*
G02*
X134964998Y-129230000I-195000J0D01*
G01*
X133705000Y-129230000D01*
G75*
G02*
X133510000Y-129035000I0J195000D01*
G01*
X133510000Y-128775000D01*
G75*
G02*
X133705000Y-128580000I195000J0D01*
G01*
G37*
G36*
G01*
X133705000Y-127310000D02*
X134964998Y-127310000D01*
G75*
G02*
X135159998Y-127505000I0J-195000D01*
G01*
X135159998Y-127765000D01*
G75*
G02*
X134964998Y-127960000I-195000J0D01*
G01*
X133705000Y-127960000D01*
G75*
G02*
X133510000Y-127765000I0J195000D01*
G01*
X133510000Y-127505000D01*
G75*
G02*
X133705000Y-127310000I195000J0D01*
G01*
G37*
%TD*%
%TO.C,R12*%
G36*
G01*
X158545000Y-74163001D02*
X158545000Y-73262999D01*
G75*
G02*
X158794999Y-73013000I249999J0D01*
G01*
X159495001Y-73013000D01*
G75*
G02*
X159745000Y-73262999I0J-249999D01*
G01*
X159745000Y-74163001D01*
G75*
G02*
X159495001Y-74413000I-249999J0D01*
G01*
X158794999Y-74413000D01*
G75*
G02*
X158545000Y-74163001I0J249999D01*
G01*
G37*
G36*
G01*
X156545000Y-74163001D02*
X156545000Y-73262999D01*
G75*
G02*
X156794999Y-73013000I249999J0D01*
G01*
X157495001Y-73013000D01*
G75*
G02*
X157745000Y-73262999I0J-249999D01*
G01*
X157745000Y-74163001D01*
G75*
G02*
X157495001Y-74413000I-249999J0D01*
G01*
X156794999Y-74413000D01*
G75*
G02*
X156545000Y-74163001I0J249999D01*
G01*
G37*
%TD*%
%TO.C,R11*%
G36*
G01*
X111309999Y-80110000D02*
X112210001Y-80110000D01*
G75*
G02*
X112460000Y-80359999I0J-249999D01*
G01*
X112460000Y-81060001D01*
G75*
G02*
X112210001Y-81310000I-249999J0D01*
G01*
X111309999Y-81310000D01*
G75*
G02*
X111060000Y-81060001I0J249999D01*
G01*
X111060000Y-80359999D01*
G75*
G02*
X111309999Y-80110000I249999J0D01*
G01*
G37*
G36*
G01*
X111309999Y-78110000D02*
X112210001Y-78110000D01*
G75*
G02*
X112460000Y-78359999I0J-249999D01*
G01*
X112460000Y-79060001D01*
G75*
G02*
X112210001Y-79310000I-249999J0D01*
G01*
X111309999Y-79310000D01*
G75*
G02*
X111060000Y-79060001I0J249999D01*
G01*
X111060000Y-78359999D01*
G75*
G02*
X111309999Y-78110000I249999J0D01*
G01*
G37*
%TD*%
%TO.C,R10*%
G36*
G01*
X128505000Y-73209999D02*
X128505000Y-74110001D01*
G75*
G02*
X128255001Y-74360000I-249999J0D01*
G01*
X127554999Y-74360000D01*
G75*
G02*
X127305000Y-74110001I0J249999D01*
G01*
X127305000Y-73209999D01*
G75*
G02*
X127554999Y-72960000I249999J0D01*
G01*
X128255001Y-72960000D01*
G75*
G02*
X128505000Y-73209999I0J-249999D01*
G01*
G37*
G36*
G01*
X130505000Y-73209999D02*
X130505000Y-74110001D01*
G75*
G02*
X130255001Y-74360000I-249999J0D01*
G01*
X129554999Y-74360000D01*
G75*
G02*
X129305000Y-74110001I0J249999D01*
G01*
X129305000Y-73209999D01*
G75*
G02*
X129554999Y-72960000I249999J0D01*
G01*
X130255001Y-72960000D01*
G75*
G02*
X130505000Y-73209999I0J-249999D01*
G01*
G37*
%TD*%
%TO.C,R9*%
G36*
G01*
X121520000Y-73209999D02*
X121520000Y-74110001D01*
G75*
G02*
X121270001Y-74360000I-249999J0D01*
G01*
X120569999Y-74360000D01*
G75*
G02*
X120320000Y-74110001I0J249999D01*
G01*
X120320000Y-73209999D01*
G75*
G02*
X120569999Y-72960000I249999J0D01*
G01*
X121270001Y-72960000D01*
G75*
G02*
X121520000Y-73209999I0J-249999D01*
G01*
G37*
G36*
G01*
X123520000Y-73209999D02*
X123520000Y-74110001D01*
G75*
G02*
X123270001Y-74360000I-249999J0D01*
G01*
X122569999Y-74360000D01*
G75*
G02*
X122320000Y-74110001I0J249999D01*
G01*
X122320000Y-73209999D01*
G75*
G02*
X122569999Y-72960000I249999J0D01*
G01*
X123270001Y-72960000D01*
G75*
G02*
X123520000Y-73209999I0J-249999D01*
G01*
G37*
%TD*%
%TO.C,D12*%
G36*
G01*
X158565000Y-70935001D02*
X158565000Y-70034999D01*
G75*
G02*
X158814999Y-69785000I249999J0D01*
G01*
X159465001Y-69785000D01*
G75*
G02*
X159715000Y-70034999I0J-249999D01*
G01*
X159715000Y-70935001D01*
G75*
G02*
X159465001Y-71185000I-249999J0D01*
G01*
X158814999Y-71185000D01*
G75*
G02*
X158565000Y-70935001I0J249999D01*
G01*
G37*
G36*
G01*
X156515000Y-70935001D02*
X156515000Y-70034999D01*
G75*
G02*
X156764999Y-69785000I249999J0D01*
G01*
X157415001Y-69785000D01*
G75*
G02*
X157665000Y-70034999I0J-249999D01*
G01*
X157665000Y-70935001D01*
G75*
G02*
X157415001Y-71185000I-249999J0D01*
G01*
X156764999Y-71185000D01*
G75*
G02*
X156515000Y-70935001I0J249999D01*
G01*
G37*
%TD*%
%TO.C,D11*%
G36*
G01*
X114484999Y-80115000D02*
X115385001Y-80115000D01*
G75*
G02*
X115635000Y-80364999I0J-249999D01*
G01*
X115635000Y-81015001D01*
G75*
G02*
X115385001Y-81265000I-249999J0D01*
G01*
X114484999Y-81265000D01*
G75*
G02*
X114235000Y-81015001I0J249999D01*
G01*
X114235000Y-80364999D01*
G75*
G02*
X114484999Y-80115000I249999J0D01*
G01*
G37*
G36*
G01*
X114484999Y-78065000D02*
X115385001Y-78065000D01*
G75*
G02*
X115635000Y-78314999I0J-249999D01*
G01*
X115635000Y-78965001D01*
G75*
G02*
X115385001Y-79215000I-249999J0D01*
G01*
X114484999Y-79215000D01*
G75*
G02*
X114235000Y-78965001I0J249999D01*
G01*
X114235000Y-78314999D01*
G75*
G02*
X114484999Y-78065000I249999J0D01*
G01*
G37*
%TD*%
%TO.C,D10*%
G36*
G01*
X128455000Y-70034999D02*
X128455000Y-70935001D01*
G75*
G02*
X128205001Y-71185000I-249999J0D01*
G01*
X127554999Y-71185000D01*
G75*
G02*
X127305000Y-70935001I0J249999D01*
G01*
X127305000Y-70034999D01*
G75*
G02*
X127554999Y-69785000I249999J0D01*
G01*
X128205001Y-69785000D01*
G75*
G02*
X128455000Y-70034999I0J-249999D01*
G01*
G37*
G36*
G01*
X130505000Y-70034999D02*
X130505000Y-70935001D01*
G75*
G02*
X130255001Y-71185000I-249999J0D01*
G01*
X129604999Y-71185000D01*
G75*
G02*
X129355000Y-70935001I0J249999D01*
G01*
X129355000Y-70034999D01*
G75*
G02*
X129604999Y-69785000I249999J0D01*
G01*
X130255001Y-69785000D01*
G75*
G02*
X130505000Y-70034999I0J-249999D01*
G01*
G37*
%TD*%
%TO.C,D9*%
G36*
G01*
X121470000Y-70034999D02*
X121470000Y-70935001D01*
G75*
G02*
X121220001Y-71185000I-249999J0D01*
G01*
X120569999Y-71185000D01*
G75*
G02*
X120320000Y-70935001I0J249999D01*
G01*
X120320000Y-70034999D01*
G75*
G02*
X120569999Y-69785000I249999J0D01*
G01*
X121220001Y-69785000D01*
G75*
G02*
X121470000Y-70034999I0J-249999D01*
G01*
G37*
G36*
G01*
X123520000Y-70034999D02*
X123520000Y-70935001D01*
G75*
G02*
X123270001Y-71185000I-249999J0D01*
G01*
X122619999Y-71185000D01*
G75*
G02*
X122370000Y-70935001I0J249999D01*
G01*
X122370000Y-70034999D01*
G75*
G02*
X122619999Y-69785000I249999J0D01*
G01*
X123270001Y-69785000D01*
G75*
G02*
X123520000Y-70034999I0J-249999D01*
G01*
G37*
%TD*%
D12*
%TO.C,TP5*%
X145796000Y-70612000D03*
%TD*%
%TO.C,TP4*%
X179324000Y-70104000D03*
%TD*%
%TO.C,TP3*%
X149860000Y-70612000D03*
%TD*%
%TO.C,TP2*%
X153924000Y-70612000D03*
%TD*%
%TO.C,TP1*%
X182880000Y-70104000D03*
%TD*%
D13*
%TO.C,M8*%
X190701000Y-136609000D03*
%TD*%
%TO.C,M7*%
X190701000Y-78609000D03*
%TD*%
%TO.C,M6*%
X167574000Y-136609000D03*
%TD*%
%TO.C,M5*%
X167384000Y-79244000D03*
%TD*%
D14*
%TO.C,J8*%
X191021000Y-100524000D03*
D15*
X191021000Y-97984000D03*
%TD*%
%TO.C,R6*%
G36*
G01*
X130410000Y-115754999D02*
X130410000Y-116655001D01*
G75*
G02*
X130160001Y-116905000I-249999J0D01*
G01*
X129459999Y-116905000D01*
G75*
G02*
X129210000Y-116655001I0J249999D01*
G01*
X129210000Y-115754999D01*
G75*
G02*
X129459999Y-115505000I249999J0D01*
G01*
X130160001Y-115505000D01*
G75*
G02*
X130410000Y-115754999I0J-249999D01*
G01*
G37*
G36*
G01*
X132410000Y-115754999D02*
X132410000Y-116655001D01*
G75*
G02*
X132160001Y-116905000I-249999J0D01*
G01*
X131459999Y-116905000D01*
G75*
G02*
X131210000Y-116655001I0J249999D01*
G01*
X131210000Y-115754999D01*
G75*
G02*
X131459999Y-115505000I249999J0D01*
G01*
X132160001Y-115505000D01*
G75*
G02*
X132410000Y-115754999I0J-249999D01*
G01*
G37*
%TD*%
%TO.C,R5*%
G36*
G01*
X136125000Y-115754999D02*
X136125000Y-116655001D01*
G75*
G02*
X135875001Y-116905000I-249999J0D01*
G01*
X135174999Y-116905000D01*
G75*
G02*
X134925000Y-116655001I0J249999D01*
G01*
X134925000Y-115754999D01*
G75*
G02*
X135174999Y-115505000I249999J0D01*
G01*
X135875001Y-115505000D01*
G75*
G02*
X136125000Y-115754999I0J-249999D01*
G01*
G37*
G36*
G01*
X138125000Y-115754999D02*
X138125000Y-116655001D01*
G75*
G02*
X137875001Y-116905000I-249999J0D01*
G01*
X137174999Y-116905000D01*
G75*
G02*
X136925000Y-116655001I0J249999D01*
G01*
X136925000Y-115754999D01*
G75*
G02*
X137174999Y-115505000I249999J0D01*
G01*
X137875001Y-115505000D01*
G75*
G02*
X138125000Y-115754999I0J-249999D01*
G01*
G37*
%TD*%
%TO.C,R4*%
G36*
G01*
X133585000Y-73209999D02*
X133585000Y-74110001D01*
G75*
G02*
X133335001Y-74360000I-249999J0D01*
G01*
X132634999Y-74360000D01*
G75*
G02*
X132385000Y-74110001I0J249999D01*
G01*
X132385000Y-73209999D01*
G75*
G02*
X132634999Y-72960000I249999J0D01*
G01*
X133335001Y-72960000D01*
G75*
G02*
X133585000Y-73209999I0J-249999D01*
G01*
G37*
G36*
G01*
X135585000Y-73209999D02*
X135585000Y-74110001D01*
G75*
G02*
X135335001Y-74360000I-249999J0D01*
G01*
X134634999Y-74360000D01*
G75*
G02*
X134385000Y-74110001I0J249999D01*
G01*
X134385000Y-73209999D01*
G75*
G02*
X134634999Y-72960000I249999J0D01*
G01*
X135335001Y-72960000D01*
G75*
G02*
X135585000Y-73209999I0J-249999D01*
G01*
G37*
%TD*%
%TO.C,R3*%
G36*
G01*
X138665000Y-73209999D02*
X138665000Y-74110001D01*
G75*
G02*
X138415001Y-74360000I-249999J0D01*
G01*
X137714999Y-74360000D01*
G75*
G02*
X137465000Y-74110001I0J249999D01*
G01*
X137465000Y-73209999D01*
G75*
G02*
X137714999Y-72960000I249999J0D01*
G01*
X138415001Y-72960000D01*
G75*
G02*
X138665000Y-73209999I0J-249999D01*
G01*
G37*
G36*
G01*
X140665000Y-73209999D02*
X140665000Y-74110001D01*
G75*
G02*
X140415001Y-74360000I-249999J0D01*
G01*
X139714999Y-74360000D01*
G75*
G02*
X139465000Y-74110001I0J249999D01*
G01*
X139465000Y-73209999D01*
G75*
G02*
X139714999Y-72960000I249999J0D01*
G01*
X140415001Y-72960000D01*
G75*
G02*
X140665000Y-73209999I0J-249999D01*
G01*
G37*
%TD*%
%TO.C,R2*%
G36*
G01*
X151949999Y-114700000D02*
X152850001Y-114700000D01*
G75*
G02*
X153100000Y-114949999I0J-249999D01*
G01*
X153100000Y-115650001D01*
G75*
G02*
X152850001Y-115900000I-249999J0D01*
G01*
X151949999Y-115900000D01*
G75*
G02*
X151700000Y-115650001I0J249999D01*
G01*
X151700000Y-114949999D01*
G75*
G02*
X151949999Y-114700000I249999J0D01*
G01*
G37*
G36*
G01*
X151949999Y-112700000D02*
X152850001Y-112700000D01*
G75*
G02*
X153100000Y-112949999I0J-249999D01*
G01*
X153100000Y-113650001D01*
G75*
G02*
X152850001Y-113900000I-249999J0D01*
G01*
X151949999Y-113900000D01*
G75*
G02*
X151700000Y-113650001I0J249999D01*
G01*
X151700000Y-112949999D01*
G75*
G02*
X151949999Y-112700000I249999J0D01*
G01*
G37*
%TD*%
%TO.C,R1*%
G36*
G01*
X157029999Y-114700000D02*
X157930001Y-114700000D01*
G75*
G02*
X158180000Y-114949999I0J-249999D01*
G01*
X158180000Y-115650001D01*
G75*
G02*
X157930001Y-115900000I-249999J0D01*
G01*
X157029999Y-115900000D01*
G75*
G02*
X156780000Y-115650001I0J249999D01*
G01*
X156780000Y-114949999D01*
G75*
G02*
X157029999Y-114700000I249999J0D01*
G01*
G37*
G36*
G01*
X157029999Y-112700000D02*
X157930001Y-112700000D01*
G75*
G02*
X158180000Y-112949999I0J-249999D01*
G01*
X158180000Y-113650001D01*
G75*
G02*
X157930001Y-113900000I-249999J0D01*
G01*
X157029999Y-113900000D01*
G75*
G02*
X156780000Y-113650001I0J249999D01*
G01*
X156780000Y-112949999D01*
G75*
G02*
X157029999Y-112700000I249999J0D01*
G01*
G37*
%TD*%
D16*
%TO.C,JP4*%
X156815000Y-108585000D03*
X158115000Y-108585000D03*
X159415000Y-108585000D03*
%TD*%
%TO.C,JP3*%
X147925000Y-108585000D03*
X149225000Y-108585000D03*
X150525000Y-108585000D03*
%TD*%
%TO.C,JP2*%
X156815000Y-102320000D03*
X158115000Y-102320000D03*
X159415000Y-102320000D03*
%TD*%
%TO.C,JP1*%
X147925000Y-102235000D03*
X149225000Y-102235000D03*
X150525000Y-102235000D03*
%TD*%
D17*
%TO.C,U3*%
X157270000Y-126585000D03*
X157270000Y-127235000D03*
X157270000Y-127885000D03*
X157270000Y-128535000D03*
X157270000Y-129185000D03*
X157270000Y-129835000D03*
X157270000Y-130485000D03*
X157270000Y-131135000D03*
X157270000Y-131785000D03*
X157270000Y-132435000D03*
X157270000Y-133085000D03*
X157270000Y-133735000D03*
X157270000Y-134385000D03*
X157270000Y-135035000D03*
X150070000Y-135035000D03*
X150070000Y-134385000D03*
X150070000Y-133735000D03*
X150070000Y-133085000D03*
X150070000Y-132435000D03*
X150070000Y-131785000D03*
X150070000Y-131135000D03*
X150070000Y-130485000D03*
X150070000Y-129835000D03*
X150070000Y-129185000D03*
X150070000Y-128535000D03*
X150070000Y-127885000D03*
X150070000Y-127235000D03*
X150070000Y-126585000D03*
%TD*%
D18*
%TO.C,J6*%
X155870000Y-144145000D03*
X151470000Y-144145000D03*
D19*
X155620000Y-142315000D03*
X151720000Y-142315000D03*
D20*
X152370000Y-141545000D03*
X153020000Y-141545000D03*
X153670000Y-141545000D03*
X154320000Y-141545000D03*
X154970000Y-141545000D03*
G36*
G01*
X150820000Y-143420000D02*
X150820000Y-144870000D01*
G75*
G02*
X150445000Y-145245000I-375000J0D01*
G01*
X149695000Y-145245000D01*
G75*
G02*
X149320000Y-144870000I0J375000D01*
G01*
X149320000Y-143420000D01*
G75*
G02*
X149695000Y-143045000I375000J0D01*
G01*
X150445000Y-143045000D01*
G75*
G02*
X150820000Y-143420000I0J-375000D01*
G01*
G37*
G36*
G01*
X158020000Y-143420000D02*
X158020000Y-144870000D01*
G75*
G02*
X157645000Y-145245000I-375000J0D01*
G01*
X156895000Y-145245000D01*
G75*
G02*
X156520000Y-144870000I0J375000D01*
G01*
X156520000Y-143420000D01*
G75*
G02*
X156895000Y-143045000I375000J0D01*
G01*
X157645000Y-143045000D01*
G75*
G02*
X158020000Y-143420000I0J-375000D01*
G01*
G37*
G36*
G01*
X157820000Y-140970000D02*
X157820000Y-141720000D01*
G75*
G02*
X157445000Y-142095000I-375000J0D01*
G01*
X156495000Y-142095000D01*
G75*
G02*
X156120000Y-141720000I0J375000D01*
G01*
X156120000Y-140970000D01*
G75*
G02*
X156495000Y-140595000I375000J0D01*
G01*
X157445000Y-140595000D01*
G75*
G02*
X157820000Y-140970000I0J-375000D01*
G01*
G37*
G36*
G01*
X151220000Y-140970000D02*
X151220000Y-141720000D01*
G75*
G02*
X150845000Y-142095000I-375000J0D01*
G01*
X149895000Y-142095000D01*
G75*
G02*
X149520000Y-141720000I0J375000D01*
G01*
X149520000Y-140970000D01*
G75*
G02*
X149895000Y-140595000I375000J0D01*
G01*
X150845000Y-140595000D01*
G75*
G02*
X151220000Y-140970000I0J-375000D01*
G01*
G37*
%TD*%
%TO.C,D6*%
G36*
G01*
X130360000Y-118929999D02*
X130360000Y-119830001D01*
G75*
G02*
X130110001Y-120080000I-249999J0D01*
G01*
X129459999Y-120080000D01*
G75*
G02*
X129210000Y-119830001I0J249999D01*
G01*
X129210000Y-118929999D01*
G75*
G02*
X129459999Y-118680000I249999J0D01*
G01*
X130110001Y-118680000D01*
G75*
G02*
X130360000Y-118929999I0J-249999D01*
G01*
G37*
G36*
G01*
X132410000Y-118929999D02*
X132410000Y-119830001D01*
G75*
G02*
X132160001Y-120080000I-249999J0D01*
G01*
X131509999Y-120080000D01*
G75*
G02*
X131260000Y-119830001I0J249999D01*
G01*
X131260000Y-118929999D01*
G75*
G02*
X131509999Y-118680000I249999J0D01*
G01*
X132160001Y-118680000D01*
G75*
G02*
X132410000Y-118929999I0J-249999D01*
G01*
G37*
%TD*%
%TO.C,D5*%
G36*
G01*
X136075000Y-118929999D02*
X136075000Y-119830001D01*
G75*
G02*
X135825001Y-120080000I-249999J0D01*
G01*
X135174999Y-120080000D01*
G75*
G02*
X134925000Y-119830001I0J249999D01*
G01*
X134925000Y-118929999D01*
G75*
G02*
X135174999Y-118680000I249999J0D01*
G01*
X135825001Y-118680000D01*
G75*
G02*
X136075000Y-118929999I0J-249999D01*
G01*
G37*
G36*
G01*
X138125000Y-118929999D02*
X138125000Y-119830001D01*
G75*
G02*
X137875001Y-120080000I-249999J0D01*
G01*
X137224999Y-120080000D01*
G75*
G02*
X136975000Y-119830001I0J249999D01*
G01*
X136975000Y-118929999D01*
G75*
G02*
X137224999Y-118680000I249999J0D01*
G01*
X137875001Y-118680000D01*
G75*
G02*
X138125000Y-118929999I0J-249999D01*
G01*
G37*
%TD*%
%TO.C,D4*%
G36*
G01*
X133535000Y-70034999D02*
X133535000Y-70935001D01*
G75*
G02*
X133285001Y-71185000I-249999J0D01*
G01*
X132634999Y-71185000D01*
G75*
G02*
X132385000Y-70935001I0J249999D01*
G01*
X132385000Y-70034999D01*
G75*
G02*
X132634999Y-69785000I249999J0D01*
G01*
X133285001Y-69785000D01*
G75*
G02*
X133535000Y-70034999I0J-249999D01*
G01*
G37*
G36*
G01*
X135585000Y-70034999D02*
X135585000Y-70935001D01*
G75*
G02*
X135335001Y-71185000I-249999J0D01*
G01*
X134684999Y-71185000D01*
G75*
G02*
X134435000Y-70935001I0J249999D01*
G01*
X134435000Y-70034999D01*
G75*
G02*
X134684999Y-69785000I249999J0D01*
G01*
X135335001Y-69785000D01*
G75*
G02*
X135585000Y-70034999I0J-249999D01*
G01*
G37*
%TD*%
%TO.C,D3*%
G36*
G01*
X138615000Y-70034999D02*
X138615000Y-70935001D01*
G75*
G02*
X138365001Y-71185000I-249999J0D01*
G01*
X137714999Y-71185000D01*
G75*
G02*
X137465000Y-70935001I0J249999D01*
G01*
X137465000Y-70034999D01*
G75*
G02*
X137714999Y-69785000I249999J0D01*
G01*
X138365001Y-69785000D01*
G75*
G02*
X138615000Y-70034999I0J-249999D01*
G01*
G37*
G36*
G01*
X140665000Y-70034999D02*
X140665000Y-70935001D01*
G75*
G02*
X140415001Y-71185000I-249999J0D01*
G01*
X139764999Y-71185000D01*
G75*
G02*
X139515000Y-70935001I0J249999D01*
G01*
X139515000Y-70034999D01*
G75*
G02*
X139764999Y-69785000I249999J0D01*
G01*
X140415001Y-69785000D01*
G75*
G02*
X140665000Y-70034999I0J-249999D01*
G01*
G37*
%TD*%
%TO.C,D2*%
G36*
G01*
X148774999Y-114750000D02*
X149675001Y-114750000D01*
G75*
G02*
X149925000Y-114999999I0J-249999D01*
G01*
X149925000Y-115650001D01*
G75*
G02*
X149675001Y-115900000I-249999J0D01*
G01*
X148774999Y-115900000D01*
G75*
G02*
X148525000Y-115650001I0J249999D01*
G01*
X148525000Y-114999999D01*
G75*
G02*
X148774999Y-114750000I249999J0D01*
G01*
G37*
G36*
G01*
X148774999Y-112700000D02*
X149675001Y-112700000D01*
G75*
G02*
X149925000Y-112949999I0J-249999D01*
G01*
X149925000Y-113600001D01*
G75*
G02*
X149675001Y-113850000I-249999J0D01*
G01*
X148774999Y-113850000D01*
G75*
G02*
X148525000Y-113600001I0J249999D01*
G01*
X148525000Y-112949999D01*
G75*
G02*
X148774999Y-112700000I249999J0D01*
G01*
G37*
%TD*%
%TO.C,D1*%
G36*
G01*
X160204999Y-114750000D02*
X161105001Y-114750000D01*
G75*
G02*
X161355000Y-114999999I0J-249999D01*
G01*
X161355000Y-115650001D01*
G75*
G02*
X161105001Y-115900000I-249999J0D01*
G01*
X160204999Y-115900000D01*
G75*
G02*
X159955000Y-115650001I0J249999D01*
G01*
X159955000Y-114999999D01*
G75*
G02*
X160204999Y-114750000I249999J0D01*
G01*
G37*
G36*
G01*
X160204999Y-112700000D02*
X161105001Y-112700000D01*
G75*
G02*
X161355000Y-112949999I0J-249999D01*
G01*
X161355000Y-113600001D01*
G75*
G02*
X161105001Y-113850000I-249999J0D01*
G01*
X160204999Y-113850000D01*
G75*
G02*
X159955000Y-113600001I0J249999D01*
G01*
X159955000Y-112949999D01*
G75*
G02*
X160204999Y-112700000I249999J0D01*
G01*
G37*
%TD*%
%TO.C,C8*%
G36*
G01*
X161765000Y-131630000D02*
X160815000Y-131630000D01*
G75*
G02*
X160565000Y-131380000I0J250000D01*
G01*
X160565000Y-130705000D01*
G75*
G02*
X160815000Y-130455000I250000J0D01*
G01*
X161765000Y-130455000D01*
G75*
G02*
X162015000Y-130705000I0J-250000D01*
G01*
X162015000Y-131380000D01*
G75*
G02*
X161765000Y-131630000I-250000J0D01*
G01*
G37*
G36*
G01*
X161765000Y-133705000D02*
X160815000Y-133705000D01*
G75*
G02*
X160565000Y-133455000I0J250000D01*
G01*
X160565000Y-132780000D01*
G75*
G02*
X160815000Y-132530000I250000J0D01*
G01*
X161765000Y-132530000D01*
G75*
G02*
X162015000Y-132780000I0J-250000D01*
G01*
X162015000Y-133455000D01*
G75*
G02*
X161765000Y-133705000I-250000J0D01*
G01*
G37*
%TD*%
%TO.C,C7*%
G36*
G01*
X155390000Y-123030000D02*
X155390000Y-122080000D01*
G75*
G02*
X155640000Y-121830000I250000J0D01*
G01*
X156315000Y-121830000D01*
G75*
G02*
X156565000Y-122080000I0J-250000D01*
G01*
X156565000Y-123030000D01*
G75*
G02*
X156315000Y-123280000I-250000J0D01*
G01*
X155640000Y-123280000D01*
G75*
G02*
X155390000Y-123030000I0J250000D01*
G01*
G37*
G36*
G01*
X153315000Y-123030000D02*
X153315000Y-122080000D01*
G75*
G02*
X153565000Y-121830000I250000J0D01*
G01*
X154240000Y-121830000D01*
G75*
G02*
X154490000Y-122080000I0J-250000D01*
G01*
X154490000Y-123030000D01*
G75*
G02*
X154240000Y-123280000I-250000J0D01*
G01*
X153565000Y-123280000D01*
G75*
G02*
X153315000Y-123030000I0J250000D01*
G01*
G37*
%TD*%
%TO.C,C6*%
G36*
G01*
X155390000Y-119855000D02*
X155390000Y-118905000D01*
G75*
G02*
X155640000Y-118655000I250000J0D01*
G01*
X156315000Y-118655000D01*
G75*
G02*
X156565000Y-118905000I0J-250000D01*
G01*
X156565000Y-119855000D01*
G75*
G02*
X156315000Y-120105000I-250000J0D01*
G01*
X155640000Y-120105000D01*
G75*
G02*
X155390000Y-119855000I0J250000D01*
G01*
G37*
G36*
G01*
X153315000Y-119855000D02*
X153315000Y-118905000D01*
G75*
G02*
X153565000Y-118655000I250000J0D01*
G01*
X154240000Y-118655000D01*
G75*
G02*
X154490000Y-118905000I0J-250000D01*
G01*
X154490000Y-119855000D01*
G75*
G02*
X154240000Y-120105000I-250000J0D01*
G01*
X153565000Y-120105000D01*
G75*
G02*
X153315000Y-119855000I0J250000D01*
G01*
G37*
%TD*%
D21*
%TO.C,M4*%
X191926000Y-143664000D03*
D22*
X191926000Y-143664000D03*
%TD*%
D21*
%TO.C,M3*%
X111916000Y-143664000D03*
D22*
X111916000Y-143664000D03*
%TD*%
D21*
%TO.C,M2*%
X189386000Y-57939000D03*
D22*
X189386000Y-57939000D03*
%TD*%
D21*
%TO.C,M1*%
X115726000Y-57939000D03*
D22*
X115726000Y-57939000D03*
%TD*%
D14*
%TO.C,J7*%
X178308000Y-143764000D03*
D15*
X180848000Y-143764000D03*
%TD*%
D23*
%TO.C,J4*%
X114006000Y-75639000D03*
X114006000Y-74389000D03*
X114006000Y-73139000D03*
X114006000Y-71889000D03*
X114006000Y-70639000D03*
X114006000Y-69389000D03*
X114006000Y-68139000D03*
X114006000Y-66889000D03*
X114006000Y-65639000D03*
%TD*%
D14*
%TO.C,J3*%
X123190000Y-107950000D03*
X120650000Y-107950000D03*
X123190000Y-105410000D03*
X120650000Y-105410000D03*
X123190000Y-102870000D03*
X120650000Y-102870000D03*
X123190000Y-100330000D03*
X120650000Y-100330000D03*
X123190000Y-97790000D03*
X120650000Y-97790000D03*
X123190000Y-95250000D03*
X120650000Y-95250000D03*
X123190000Y-92710000D03*
X120650000Y-92710000D03*
X123190000Y-90170000D03*
X120650000Y-90170000D03*
X123190000Y-87630000D03*
X120650000Y-87630000D03*
X123190000Y-85090000D03*
D15*
X120650000Y-85090000D03*
%TD*%
D14*
%TO.C,J2*%
X120650000Y-116840000D03*
X123190000Y-116840000D03*
X120650000Y-119380000D03*
X123190000Y-119380000D03*
X120650000Y-121920000D03*
X123190000Y-121920000D03*
X120650000Y-124460000D03*
X123190000Y-124460000D03*
X120650000Y-127000000D03*
X123190000Y-127000000D03*
X120650000Y-129540000D03*
X123190000Y-129540000D03*
X120650000Y-132080000D03*
X123190000Y-132080000D03*
X120650000Y-134620000D03*
D15*
X123190000Y-134620000D03*
%TD*%
D14*
%TO.C,J1*%
X166256000Y-84014000D03*
X168796000Y-84014000D03*
X166256000Y-86554000D03*
X168796000Y-86554000D03*
X166256000Y-89094000D03*
X168796000Y-89094000D03*
X166256000Y-91634000D03*
X168796000Y-91634000D03*
X166256000Y-94174000D03*
X168796000Y-94174000D03*
X166256000Y-96714000D03*
X168796000Y-96714000D03*
X166256000Y-99254000D03*
X168796000Y-99254000D03*
X166256000Y-101794000D03*
X168796000Y-101794000D03*
X166256000Y-104334000D03*
X168796000Y-104334000D03*
X166256000Y-106874000D03*
X168796000Y-106874000D03*
X166256000Y-109414000D03*
X168796000Y-109414000D03*
X166256000Y-111954000D03*
X168796000Y-111954000D03*
X166256000Y-114494000D03*
X168796000Y-114494000D03*
X166256000Y-117034000D03*
X168796000Y-117034000D03*
X166256000Y-119574000D03*
X168796000Y-119574000D03*
X166256000Y-122114000D03*
X168796000Y-122114000D03*
X166256000Y-124654000D03*
X168796000Y-124654000D03*
X166256000Y-127194000D03*
X168796000Y-127194000D03*
X166256000Y-129734000D03*
X168796000Y-129734000D03*
X166256000Y-132274000D03*
D15*
X168796000Y-132274000D03*
%TD*%
D24*
%TO.C,H2*%
X184306000Y-57939000D03*
X184306000Y-60479000D03*
X181766000Y-57939000D03*
X181766000Y-60479000D03*
X179226000Y-57939000D03*
X179226000Y-60479000D03*
X176686000Y-57939000D03*
X176686000Y-60479000D03*
X174146000Y-57939000D03*
X174146000Y-60479000D03*
X171606000Y-57939000D03*
X171606000Y-60479000D03*
X169066000Y-57939000D03*
X169066000Y-60479000D03*
X166526000Y-57939000D03*
X166526000Y-60479000D03*
X163986000Y-57939000D03*
X163986000Y-60479000D03*
X161446000Y-57939000D03*
X161446000Y-60479000D03*
X158906000Y-57939000D03*
X158906000Y-60479000D03*
X156366000Y-57939000D03*
X156366000Y-60479000D03*
X153826000Y-57939000D03*
X153826000Y-60479000D03*
X151286000Y-57939000D03*
X151286000Y-60479000D03*
X148746000Y-57939000D03*
X148746000Y-60479000D03*
X146206000Y-57939000D03*
X146206000Y-60479000D03*
X143666000Y-57939000D03*
X143666000Y-60479000D03*
X141126000Y-57939000D03*
X141126000Y-60479000D03*
X138586000Y-57939000D03*
X138586000Y-60479000D03*
X136046000Y-57939000D03*
X136046000Y-60479000D03*
X133506000Y-57939000D03*
X133506000Y-60479000D03*
X130966000Y-57939000D03*
X130966000Y-60479000D03*
X128426000Y-57939000D03*
X128426000Y-60479000D03*
X125886000Y-57939000D03*
X125886000Y-60479000D03*
X123346000Y-57939000D03*
X123346000Y-60479000D03*
X120806000Y-57939000D03*
D25*
X120806000Y-60479000D03*
%TD*%
D24*
%TO.C,H1*%
X184306000Y-63019000D03*
X184306000Y-65559000D03*
X181766000Y-63019000D03*
X181766000Y-65559000D03*
X179226000Y-63019000D03*
X179226000Y-65559000D03*
X176686000Y-63019000D03*
X176686000Y-65559000D03*
X174146000Y-63019000D03*
X174146000Y-65559000D03*
X171606000Y-63019000D03*
X171606000Y-65559000D03*
X169066000Y-63019000D03*
X169066000Y-65559000D03*
X166526000Y-63019000D03*
X166526000Y-65559000D03*
X163986000Y-63019000D03*
X163986000Y-65559000D03*
X161446000Y-63019000D03*
X161446000Y-65559000D03*
X158906000Y-63019000D03*
X158906000Y-65559000D03*
X156366000Y-63019000D03*
X156366000Y-65559000D03*
X153826000Y-63019000D03*
X153826000Y-65559000D03*
X151286000Y-63019000D03*
X151286000Y-65559000D03*
X148746000Y-63019000D03*
X148746000Y-65559000D03*
X146206000Y-63019000D03*
X146206000Y-65559000D03*
X143666000Y-63019000D03*
X143666000Y-65559000D03*
X141126000Y-63019000D03*
X141126000Y-65559000D03*
X138586000Y-63019000D03*
X138586000Y-65559000D03*
X136046000Y-63019000D03*
X136046000Y-65559000D03*
X133506000Y-63019000D03*
X133506000Y-65559000D03*
X130966000Y-63019000D03*
X130966000Y-65559000D03*
X128426000Y-63019000D03*
X128426000Y-65559000D03*
X125886000Y-63019000D03*
X125886000Y-65559000D03*
X123346000Y-63019000D03*
X123346000Y-65559000D03*
X120806000Y-63019000D03*
D25*
X120806000Y-65559000D03*
%TD*%
%TO.C,C5*%
G36*
G01*
X142400000Y-128720000D02*
X143350000Y-128720000D01*
G75*
G02*
X143600000Y-128970000I0J-250000D01*
G01*
X143600000Y-129645000D01*
G75*
G02*
X143350000Y-129895000I-250000J0D01*
G01*
X142400000Y-129895000D01*
G75*
G02*
X142150000Y-129645000I0J250000D01*
G01*
X142150000Y-128970000D01*
G75*
G02*
X142400000Y-128720000I250000J0D01*
G01*
G37*
G36*
G01*
X142400000Y-126645000D02*
X143350000Y-126645000D01*
G75*
G02*
X143600000Y-126895000I0J-250000D01*
G01*
X143600000Y-127570000D01*
G75*
G02*
X143350000Y-127820000I-250000J0D01*
G01*
X142400000Y-127820000D01*
G75*
G02*
X142150000Y-127570000I0J250000D01*
G01*
X142150000Y-126895000D01*
G75*
G02*
X142400000Y-126645000I250000J0D01*
G01*
G37*
%TD*%
%TO.C,C4*%
G36*
G01*
X131285000Y-137345000D02*
X130335000Y-137345000D01*
G75*
G02*
X130085000Y-137095000I0J250000D01*
G01*
X130085000Y-136420000D01*
G75*
G02*
X130335000Y-136170000I250000J0D01*
G01*
X131285000Y-136170000D01*
G75*
G02*
X131535000Y-136420000I0J-250000D01*
G01*
X131535000Y-137095000D01*
G75*
G02*
X131285000Y-137345000I-250000J0D01*
G01*
G37*
G36*
G01*
X131285000Y-139420000D02*
X130335000Y-139420000D01*
G75*
G02*
X130085000Y-139170000I0J250000D01*
G01*
X130085000Y-138495000D01*
G75*
G02*
X130335000Y-138245000I250000J0D01*
G01*
X131285000Y-138245000D01*
G75*
G02*
X131535000Y-138495000I0J-250000D01*
G01*
X131535000Y-139170000D01*
G75*
G02*
X131285000Y-139420000I-250000J0D01*
G01*
G37*
%TD*%
%TO.C,C3*%
G36*
G01*
X135937500Y-125570000D02*
X135937500Y-124620000D01*
G75*
G02*
X136187500Y-124370000I250000J0D01*
G01*
X136862500Y-124370000D01*
G75*
G02*
X137112500Y-124620000I0J-250000D01*
G01*
X137112500Y-125570000D01*
G75*
G02*
X136862500Y-125820000I-250000J0D01*
G01*
X136187500Y-125820000D01*
G75*
G02*
X135937500Y-125570000I0J250000D01*
G01*
G37*
G36*
G01*
X133862500Y-125570000D02*
X133862500Y-124620000D01*
G75*
G02*
X134112500Y-124370000I250000J0D01*
G01*
X134787500Y-124370000D01*
G75*
G02*
X135037500Y-124620000I0J-250000D01*
G01*
X135037500Y-125570000D01*
G75*
G02*
X134787500Y-125820000I-250000J0D01*
G01*
X134112500Y-125820000D01*
G75*
G02*
X133862500Y-125570000I0J250000D01*
G01*
G37*
%TD*%
%TO.C,C2*%
G36*
G01*
X130335000Y-133165000D02*
X131285000Y-133165000D01*
G75*
G02*
X131535000Y-133415000I0J-250000D01*
G01*
X131535000Y-134090000D01*
G75*
G02*
X131285000Y-134340000I-250000J0D01*
G01*
X130335000Y-134340000D01*
G75*
G02*
X130085000Y-134090000I0J250000D01*
G01*
X130085000Y-133415000D01*
G75*
G02*
X130335000Y-133165000I250000J0D01*
G01*
G37*
G36*
G01*
X130335000Y-131090000D02*
X131285000Y-131090000D01*
G75*
G02*
X131535000Y-131340000I0J-250000D01*
G01*
X131535000Y-132015000D01*
G75*
G02*
X131285000Y-132265000I-250000J0D01*
G01*
X130335000Y-132265000D01*
G75*
G02*
X130085000Y-132015000I0J250000D01*
G01*
X130085000Y-131340000D01*
G75*
G02*
X130335000Y-131090000I250000J0D01*
G01*
G37*
%TD*%
%TO.C,C1*%
G36*
G01*
X131285000Y-127185000D02*
X130335000Y-127185000D01*
G75*
G02*
X130085000Y-126935000I0J250000D01*
G01*
X130085000Y-126260000D01*
G75*
G02*
X130335000Y-126010000I250000J0D01*
G01*
X131285000Y-126010000D01*
G75*
G02*
X131535000Y-126260000I0J-250000D01*
G01*
X131535000Y-126935000D01*
G75*
G02*
X131285000Y-127185000I-250000J0D01*
G01*
G37*
G36*
G01*
X131285000Y-129260000D02*
X130335000Y-129260000D01*
G75*
G02*
X130085000Y-129010000I0J250000D01*
G01*
X130085000Y-128335000D01*
G75*
G02*
X130335000Y-128085000I250000J0D01*
G01*
X131285000Y-128085000D01*
G75*
G02*
X131535000Y-128335000I0J-250000D01*
G01*
X131535000Y-129010000D01*
G75*
G02*
X131285000Y-129260000I-250000J0D01*
G01*
G37*
%TD*%
M02*
