%TF.GenerationSoftware,KiCad,Pcbnew,(5.1.9)-1*%
%TF.CreationDate,2021-11-11T22:19:21-05:00*%
%TF.ProjectId,REVERB Interface,52455645-5242-4204-996e-746572666163,rev?*%
%TF.SameCoordinates,Original*%
%TF.FileFunction,Legend,Top*%
%TF.FilePolarity,Positive*%
%FSLAX46Y46*%
G04 Gerber Fmt 4.6, Leading zero omitted, Abs format (unit mm)*
G04 Created by KiCad (PCBNEW (5.1.9)-1) date 2021-11-11 22:19:21*
%MOMM*%
%LPD*%
G01*
G04 APERTURE LIST*
%ADD10C,0.150000*%
%ADD11C,0.125000*%
%ADD12C,0.120000*%
%ADD13C,0.249999*%
%ADD14C,0.599999*%
G04 APERTURE END LIST*
D10*
X111950666Y-82700761D02*
X112093523Y-82748380D01*
X112331619Y-82748380D01*
X112426857Y-82700761D01*
X112474476Y-82653142D01*
X112522095Y-82557904D01*
X112522095Y-82462666D01*
X112474476Y-82367428D01*
X112426857Y-82319809D01*
X112331619Y-82272190D01*
X112141142Y-82224571D01*
X112045904Y-82176952D01*
X111998285Y-82129333D01*
X111950666Y-82034095D01*
X111950666Y-81938857D01*
X111998285Y-81843619D01*
X112045904Y-81796000D01*
X112141142Y-81748380D01*
X112379238Y-81748380D01*
X112522095Y-81796000D01*
X112855428Y-81748380D02*
X113093523Y-82748380D01*
X113284000Y-82034095D01*
X113474476Y-82748380D01*
X113712571Y-81748380D01*
X114522095Y-81748380D02*
X114331619Y-81748380D01*
X114236380Y-81796000D01*
X114188761Y-81843619D01*
X114093523Y-81986476D01*
X114045904Y-82176952D01*
X114045904Y-82557904D01*
X114093523Y-82653142D01*
X114141142Y-82700761D01*
X114236380Y-82748380D01*
X114426857Y-82748380D01*
X114522095Y-82700761D01*
X114569714Y-82653142D01*
X114617333Y-82557904D01*
X114617333Y-82319809D01*
X114569714Y-82224571D01*
X114522095Y-82176952D01*
X114426857Y-82129333D01*
X114236380Y-82129333D01*
X114141142Y-82176952D01*
X114093523Y-82224571D01*
X114045904Y-82319809D01*
X161186761Y-73469333D02*
X161234380Y-73326476D01*
X161234380Y-73088380D01*
X161186761Y-72993142D01*
X161139142Y-72945523D01*
X161043904Y-72897904D01*
X160948666Y-72897904D01*
X160853428Y-72945523D01*
X160805809Y-72993142D01*
X160758190Y-73088380D01*
X160710571Y-73278857D01*
X160662952Y-73374095D01*
X160615333Y-73421714D01*
X160520095Y-73469333D01*
X160424857Y-73469333D01*
X160329619Y-73421714D01*
X160282000Y-73374095D01*
X160234380Y-73278857D01*
X160234380Y-73040761D01*
X160282000Y-72897904D01*
X160234380Y-72564571D02*
X161234380Y-72326476D01*
X160520095Y-72136000D01*
X161234380Y-71945523D01*
X160234380Y-71707428D01*
X161234380Y-71278857D02*
X161234380Y-71088380D01*
X161186761Y-70993142D01*
X161139142Y-70945523D01*
X160996285Y-70850285D01*
X160805809Y-70802666D01*
X160424857Y-70802666D01*
X160329619Y-70850285D01*
X160282000Y-70897904D01*
X160234380Y-70993142D01*
X160234380Y-71183619D01*
X160282000Y-71278857D01*
X160329619Y-71326476D01*
X160424857Y-71374095D01*
X160662952Y-71374095D01*
X160758190Y-71326476D01*
X160805809Y-71278857D01*
X160853428Y-71183619D01*
X160853428Y-70993142D01*
X160805809Y-70897904D01*
X160758190Y-70850285D01*
X160662952Y-70802666D01*
X137056761Y-73691523D02*
X137104380Y-73548666D01*
X137104380Y-73310571D01*
X137056761Y-73215333D01*
X137009142Y-73167714D01*
X136913904Y-73120095D01*
X136818666Y-73120095D01*
X136723428Y-73167714D01*
X136675809Y-73215333D01*
X136628190Y-73310571D01*
X136580571Y-73501047D01*
X136532952Y-73596285D01*
X136485333Y-73643904D01*
X136390095Y-73691523D01*
X136294857Y-73691523D01*
X136199619Y-73643904D01*
X136152000Y-73596285D01*
X136104380Y-73501047D01*
X136104380Y-73262952D01*
X136152000Y-73120095D01*
X136104380Y-72786761D02*
X137104380Y-72548666D01*
X136390095Y-72358190D01*
X137104380Y-72167714D01*
X136104380Y-71929619D01*
X137104380Y-71024857D02*
X137104380Y-71596285D01*
X137104380Y-71310571D02*
X136104380Y-71310571D01*
X136247238Y-71405809D01*
X136342476Y-71501047D01*
X136390095Y-71596285D01*
X136104380Y-70405809D02*
X136104380Y-70310571D01*
X136152000Y-70215333D01*
X136199619Y-70167714D01*
X136294857Y-70120095D01*
X136485333Y-70072476D01*
X136723428Y-70072476D01*
X136913904Y-70120095D01*
X137009142Y-70167714D01*
X137056761Y-70215333D01*
X137104380Y-70310571D01*
X137104380Y-70405809D01*
X137056761Y-70501047D01*
X137009142Y-70548666D01*
X136913904Y-70596285D01*
X136723428Y-70643904D01*
X136485333Y-70643904D01*
X136294857Y-70596285D01*
X136199619Y-70548666D01*
X136152000Y-70501047D01*
X136104380Y-70405809D01*
X131976761Y-73469333D02*
X132024380Y-73326476D01*
X132024380Y-73088380D01*
X131976761Y-72993142D01*
X131929142Y-72945523D01*
X131833904Y-72897904D01*
X131738666Y-72897904D01*
X131643428Y-72945523D01*
X131595809Y-72993142D01*
X131548190Y-73088380D01*
X131500571Y-73278857D01*
X131452952Y-73374095D01*
X131405333Y-73421714D01*
X131310095Y-73469333D01*
X131214857Y-73469333D01*
X131119619Y-73421714D01*
X131072000Y-73374095D01*
X131024380Y-73278857D01*
X131024380Y-73040761D01*
X131072000Y-72897904D01*
X131024380Y-72564571D02*
X132024380Y-72326476D01*
X131310095Y-72136000D01*
X132024380Y-71945523D01*
X131024380Y-71707428D01*
X131452952Y-71183619D02*
X131405333Y-71278857D01*
X131357714Y-71326476D01*
X131262476Y-71374095D01*
X131214857Y-71374095D01*
X131119619Y-71326476D01*
X131072000Y-71278857D01*
X131024380Y-71183619D01*
X131024380Y-70993142D01*
X131072000Y-70897904D01*
X131119619Y-70850285D01*
X131214857Y-70802666D01*
X131262476Y-70802666D01*
X131357714Y-70850285D01*
X131405333Y-70897904D01*
X131452952Y-70993142D01*
X131452952Y-71183619D01*
X131500571Y-71278857D01*
X131548190Y-71326476D01*
X131643428Y-71374095D01*
X131833904Y-71374095D01*
X131929142Y-71326476D01*
X131976761Y-71278857D01*
X132024380Y-71183619D01*
X132024380Y-70993142D01*
X131976761Y-70897904D01*
X131929142Y-70850285D01*
X131833904Y-70802666D01*
X131643428Y-70802666D01*
X131548190Y-70850285D01*
X131500571Y-70897904D01*
X131452952Y-70993142D01*
X126642761Y-73469333D02*
X126690380Y-73326476D01*
X126690380Y-73088380D01*
X126642761Y-72993142D01*
X126595142Y-72945523D01*
X126499904Y-72897904D01*
X126404666Y-72897904D01*
X126309428Y-72945523D01*
X126261809Y-72993142D01*
X126214190Y-73088380D01*
X126166571Y-73278857D01*
X126118952Y-73374095D01*
X126071333Y-73421714D01*
X125976095Y-73469333D01*
X125880857Y-73469333D01*
X125785619Y-73421714D01*
X125738000Y-73374095D01*
X125690380Y-73278857D01*
X125690380Y-73040761D01*
X125738000Y-72897904D01*
X125690380Y-72564571D02*
X126690380Y-72326476D01*
X125976095Y-72136000D01*
X126690380Y-71945523D01*
X125690380Y-71707428D01*
X126023714Y-70897904D02*
X126690380Y-70897904D01*
X125642761Y-71136000D02*
X126357047Y-71374095D01*
X126357047Y-70755047D01*
X119530761Y-73469333D02*
X119578380Y-73326476D01*
X119578380Y-73088380D01*
X119530761Y-72993142D01*
X119483142Y-72945523D01*
X119387904Y-72897904D01*
X119292666Y-72897904D01*
X119197428Y-72945523D01*
X119149809Y-72993142D01*
X119102190Y-73088380D01*
X119054571Y-73278857D01*
X119006952Y-73374095D01*
X118959333Y-73421714D01*
X118864095Y-73469333D01*
X118768857Y-73469333D01*
X118673619Y-73421714D01*
X118626000Y-73374095D01*
X118578380Y-73278857D01*
X118578380Y-73040761D01*
X118626000Y-72897904D01*
X118578380Y-72564571D02*
X119578380Y-72326476D01*
X118864095Y-72136000D01*
X119578380Y-71945523D01*
X118578380Y-71707428D01*
X118578380Y-71421714D02*
X118578380Y-70802666D01*
X118959333Y-71136000D01*
X118959333Y-70993142D01*
X119006952Y-70897904D01*
X119054571Y-70850285D01*
X119149809Y-70802666D01*
X119387904Y-70802666D01*
X119483142Y-70850285D01*
X119530761Y-70897904D01*
X119578380Y-70993142D01*
X119578380Y-71278857D01*
X119530761Y-71374095D01*
X119483142Y-71421714D01*
X195365714Y-134143571D02*
X196032380Y-133905476D01*
X195365714Y-133667380D01*
X196032380Y-132762619D02*
X196032380Y-133334047D01*
X196032380Y-133048333D02*
X195032380Y-133048333D01*
X195175238Y-133143571D01*
X195270476Y-133238809D01*
X195318095Y-133334047D01*
X195937142Y-132334047D02*
X195984761Y-132286428D01*
X196032380Y-132334047D01*
X195984761Y-132381666D01*
X195937142Y-132334047D01*
X196032380Y-132334047D01*
X195032380Y-131381666D02*
X195032380Y-131857857D01*
X195508571Y-131905476D01*
X195460952Y-131857857D01*
X195413333Y-131762619D01*
X195413333Y-131524523D01*
X195460952Y-131429285D01*
X195508571Y-131381666D01*
X195603809Y-131334047D01*
X195841904Y-131334047D01*
X195937142Y-131381666D01*
X195984761Y-131429285D01*
X196032380Y-131524523D01*
X196032380Y-131762619D01*
X195984761Y-131857857D01*
X195937142Y-131905476D01*
X126231428Y-139962380D02*
X126231428Y-138962380D01*
X126469523Y-138962380D01*
X126612380Y-139010000D01*
X126707619Y-139105238D01*
X126755238Y-139200476D01*
X126802857Y-139390952D01*
X126802857Y-139533809D01*
X126755238Y-139724285D01*
X126707619Y-139819523D01*
X126612380Y-139914761D01*
X126469523Y-139962380D01*
X126231428Y-139962380D01*
X127421904Y-138962380D02*
X127612380Y-138962380D01*
X127707619Y-139010000D01*
X127802857Y-139105238D01*
X127850476Y-139295714D01*
X127850476Y-139629047D01*
X127802857Y-139819523D01*
X127707619Y-139914761D01*
X127612380Y-139962380D01*
X127421904Y-139962380D01*
X127326666Y-139914761D01*
X127231428Y-139819523D01*
X127183809Y-139629047D01*
X127183809Y-139295714D01*
X127231428Y-139105238D01*
X127326666Y-139010000D01*
X127421904Y-138962380D01*
X129040952Y-139962380D02*
X129040952Y-138962380D01*
X129612380Y-139962380D01*
X129612380Y-138962380D01*
X130279047Y-138962380D02*
X130469523Y-138962380D01*
X130564761Y-139010000D01*
X130660000Y-139105238D01*
X130707619Y-139295714D01*
X130707619Y-139629047D01*
X130660000Y-139819523D01*
X130564761Y-139914761D01*
X130469523Y-139962380D01*
X130279047Y-139962380D01*
X130183809Y-139914761D01*
X130088571Y-139819523D01*
X130040952Y-139629047D01*
X130040952Y-139295714D01*
X130088571Y-139105238D01*
X130183809Y-139010000D01*
X130279047Y-138962380D01*
X130993333Y-138962380D02*
X131564761Y-138962380D01*
X131279047Y-139962380D02*
X131279047Y-138962380D01*
X133231428Y-139867142D02*
X133183809Y-139914761D01*
X133040952Y-139962380D01*
X132945714Y-139962380D01*
X132802857Y-139914761D01*
X132707619Y-139819523D01*
X132660000Y-139724285D01*
X132612380Y-139533809D01*
X132612380Y-139390952D01*
X132660000Y-139200476D01*
X132707619Y-139105238D01*
X132802857Y-139010000D01*
X132945714Y-138962380D01*
X133040952Y-138962380D01*
X133183809Y-139010000D01*
X133231428Y-139057619D01*
X133850476Y-138962380D02*
X134040952Y-138962380D01*
X134136190Y-139010000D01*
X134231428Y-139105238D01*
X134279047Y-139295714D01*
X134279047Y-139629047D01*
X134231428Y-139819523D01*
X134136190Y-139914761D01*
X134040952Y-139962380D01*
X133850476Y-139962380D01*
X133755238Y-139914761D01*
X133660000Y-139819523D01*
X133612380Y-139629047D01*
X133612380Y-139295714D01*
X133660000Y-139105238D01*
X133755238Y-139010000D01*
X133850476Y-138962380D01*
X134707619Y-139962380D02*
X134707619Y-138962380D01*
X135279047Y-139962380D01*
X135279047Y-138962380D01*
X135755238Y-139962380D02*
X135755238Y-138962380D01*
X136326666Y-139962380D01*
X136326666Y-138962380D01*
X136802857Y-139438571D02*
X137136190Y-139438571D01*
X137279047Y-139962380D02*
X136802857Y-139962380D01*
X136802857Y-138962380D01*
X137279047Y-138962380D01*
X138279047Y-139867142D02*
X138231428Y-139914761D01*
X138088571Y-139962380D01*
X137993333Y-139962380D01*
X137850476Y-139914761D01*
X137755238Y-139819523D01*
X137707619Y-139724285D01*
X137660000Y-139533809D01*
X137660000Y-139390952D01*
X137707619Y-139200476D01*
X137755238Y-139105238D01*
X137850476Y-139010000D01*
X137993333Y-138962380D01*
X138088571Y-138962380D01*
X138231428Y-139010000D01*
X138279047Y-139057619D01*
X138564761Y-138962380D02*
X139136190Y-138962380D01*
X138850476Y-139962380D02*
X138850476Y-138962380D01*
X140231428Y-138962380D02*
X140231428Y-139771904D01*
X140279047Y-139867142D01*
X140326666Y-139914761D01*
X140421904Y-139962380D01*
X140612380Y-139962380D01*
X140707619Y-139914761D01*
X140755238Y-139867142D01*
X140802857Y-139771904D01*
X140802857Y-138962380D01*
X141231428Y-139914761D02*
X141374285Y-139962380D01*
X141612380Y-139962380D01*
X141707619Y-139914761D01*
X141755238Y-139867142D01*
X141802857Y-139771904D01*
X141802857Y-139676666D01*
X141755238Y-139581428D01*
X141707619Y-139533809D01*
X141612380Y-139486190D01*
X141421904Y-139438571D01*
X141326666Y-139390952D01*
X141279047Y-139343333D01*
X141231428Y-139248095D01*
X141231428Y-139152857D01*
X141279047Y-139057619D01*
X141326666Y-139010000D01*
X141421904Y-138962380D01*
X141660000Y-138962380D01*
X141802857Y-139010000D01*
X142564761Y-139438571D02*
X142707619Y-139486190D01*
X142755238Y-139533809D01*
X142802857Y-139629047D01*
X142802857Y-139771904D01*
X142755238Y-139867142D01*
X142707619Y-139914761D01*
X142612380Y-139962380D01*
X142231428Y-139962380D01*
X142231428Y-138962380D01*
X142564761Y-138962380D01*
X142660000Y-139010000D01*
X142707619Y-139057619D01*
X142755238Y-139152857D01*
X142755238Y-139248095D01*
X142707619Y-139343333D01*
X142660000Y-139390952D01*
X142564761Y-139438571D01*
X142231428Y-139438571D01*
X143850476Y-138962380D02*
X144421904Y-138962380D01*
X144136190Y-139962380D02*
X144136190Y-138962380D01*
X144945714Y-138962380D02*
X145136190Y-138962380D01*
X145231428Y-139010000D01*
X145326666Y-139105238D01*
X145374285Y-139295714D01*
X145374285Y-139629047D01*
X145326666Y-139819523D01*
X145231428Y-139914761D01*
X145136190Y-139962380D01*
X144945714Y-139962380D01*
X144850476Y-139914761D01*
X144755238Y-139819523D01*
X144707619Y-139629047D01*
X144707619Y-139295714D01*
X144755238Y-139105238D01*
X144850476Y-139010000D01*
X144945714Y-138962380D01*
X146564761Y-139962380D02*
X146564761Y-138962380D01*
X146945714Y-138962380D01*
X147040952Y-139010000D01*
X147088571Y-139057619D01*
X147136190Y-139152857D01*
X147136190Y-139295714D01*
X147088571Y-139390952D01*
X147040952Y-139438571D01*
X146945714Y-139486190D01*
X146564761Y-139486190D01*
X148136190Y-139867142D02*
X148088571Y-139914761D01*
X147945714Y-139962380D01*
X147850476Y-139962380D01*
X147707619Y-139914761D01*
X147612380Y-139819523D01*
X147564761Y-139724285D01*
X147517142Y-139533809D01*
X147517142Y-139390952D01*
X147564761Y-139200476D01*
X147612380Y-139105238D01*
X147707619Y-139010000D01*
X147850476Y-138962380D01*
X147945714Y-138962380D01*
X148088571Y-139010000D01*
X148136190Y-139057619D01*
X127279047Y-140612380D02*
X127517142Y-141612380D01*
X127707619Y-140898095D01*
X127898095Y-141612380D01*
X128136190Y-140612380D01*
X128517142Y-141612380D02*
X128517142Y-140612380D01*
X128517142Y-141088571D02*
X129088571Y-141088571D01*
X129088571Y-141612380D02*
X129088571Y-140612380D01*
X129564761Y-141612380D02*
X129564761Y-140612380D01*
X130517142Y-141612380D02*
X130040952Y-141612380D01*
X130040952Y-140612380D01*
X130850476Y-141088571D02*
X131183809Y-141088571D01*
X131326666Y-141612380D02*
X130850476Y-141612380D01*
X130850476Y-140612380D01*
X131326666Y-140612380D01*
X133088571Y-141517142D02*
X133040952Y-141564761D01*
X132898095Y-141612380D01*
X132802857Y-141612380D01*
X132660000Y-141564761D01*
X132564761Y-141469523D01*
X132517142Y-141374285D01*
X132469523Y-141183809D01*
X132469523Y-141040952D01*
X132517142Y-140850476D01*
X132564761Y-140755238D01*
X132660000Y-140660000D01*
X132802857Y-140612380D01*
X132898095Y-140612380D01*
X133040952Y-140660000D01*
X133088571Y-140707619D01*
X133707619Y-140612380D02*
X133898095Y-140612380D01*
X133993333Y-140660000D01*
X134088571Y-140755238D01*
X134136190Y-140945714D01*
X134136190Y-141279047D01*
X134088571Y-141469523D01*
X133993333Y-141564761D01*
X133898095Y-141612380D01*
X133707619Y-141612380D01*
X133612380Y-141564761D01*
X133517142Y-141469523D01*
X133469523Y-141279047D01*
X133469523Y-140945714D01*
X133517142Y-140755238D01*
X133612380Y-140660000D01*
X133707619Y-140612380D01*
X134564761Y-141612380D02*
X134564761Y-140612380D01*
X135136190Y-141612380D01*
X135136190Y-140612380D01*
X135612380Y-141612380D02*
X135612380Y-140612380D01*
X136183809Y-141612380D01*
X136183809Y-140612380D01*
X136660000Y-141088571D02*
X136993333Y-141088571D01*
X137136190Y-141612380D02*
X136660000Y-141612380D01*
X136660000Y-140612380D01*
X137136190Y-140612380D01*
X138136190Y-141517142D02*
X138088571Y-141564761D01*
X137945714Y-141612380D01*
X137850476Y-141612380D01*
X137707619Y-141564761D01*
X137612380Y-141469523D01*
X137564761Y-141374285D01*
X137517142Y-141183809D01*
X137517142Y-141040952D01*
X137564761Y-140850476D01*
X137612380Y-140755238D01*
X137707619Y-140660000D01*
X137850476Y-140612380D01*
X137945714Y-140612380D01*
X138088571Y-140660000D01*
X138136190Y-140707619D01*
X138421904Y-140612380D02*
X138993333Y-140612380D01*
X138707619Y-141612380D02*
X138707619Y-140612380D01*
X139326666Y-141088571D02*
X139660000Y-141088571D01*
X139802857Y-141612380D02*
X139326666Y-141612380D01*
X139326666Y-140612380D01*
X139802857Y-140612380D01*
X140231428Y-141612380D02*
X140231428Y-140612380D01*
X140469523Y-140612380D01*
X140612380Y-140660000D01*
X140707619Y-140755238D01*
X140755238Y-140850476D01*
X140802857Y-141040952D01*
X140802857Y-141183809D01*
X140755238Y-141374285D01*
X140707619Y-141469523D01*
X140612380Y-141564761D01*
X140469523Y-141612380D01*
X140231428Y-141612380D01*
X141850476Y-140612380D02*
X142421904Y-140612380D01*
X142136190Y-141612380D02*
X142136190Y-140612380D01*
X142945714Y-140612380D02*
X143136190Y-140612380D01*
X143231428Y-140660000D01*
X143326666Y-140755238D01*
X143374285Y-140945714D01*
X143374285Y-141279047D01*
X143326666Y-141469523D01*
X143231428Y-141564761D01*
X143136190Y-141612380D01*
X142945714Y-141612380D01*
X142850476Y-141564761D01*
X142755238Y-141469523D01*
X142707619Y-141279047D01*
X142707619Y-140945714D01*
X142755238Y-140755238D01*
X142850476Y-140660000D01*
X142945714Y-140612380D01*
X144564761Y-141088571D02*
X144898095Y-141088571D01*
X145040952Y-141612380D02*
X144564761Y-141612380D01*
X144564761Y-140612380D01*
X145040952Y-140612380D01*
X145469523Y-141612380D02*
X145469523Y-140612380D01*
X145850476Y-140612380D01*
X145945714Y-140660000D01*
X145993333Y-140707619D01*
X146040952Y-140802857D01*
X146040952Y-140945714D01*
X145993333Y-141040952D01*
X145945714Y-141088571D01*
X145850476Y-141136190D01*
X145469523Y-141136190D01*
X146421904Y-141564761D02*
X146564761Y-141612380D01*
X146802857Y-141612380D01*
X146898095Y-141564761D01*
X146945714Y-141517142D01*
X146993333Y-141421904D01*
X146993333Y-141326666D01*
X146945714Y-141231428D01*
X146898095Y-141183809D01*
X146802857Y-141136190D01*
X146612380Y-141088571D01*
X146517142Y-141040952D01*
X146469523Y-140993333D01*
X146421904Y-140898095D01*
X146421904Y-140802857D01*
X146469523Y-140707619D01*
X146517142Y-140660000D01*
X146612380Y-140612380D01*
X146850476Y-140612380D01*
X146993333Y-140660000D01*
X182118095Y-71636000D02*
X182022857Y-71588380D01*
X181880000Y-71588380D01*
X181737142Y-71636000D01*
X181641904Y-71731238D01*
X181594285Y-71826476D01*
X181546666Y-72016952D01*
X181546666Y-72159809D01*
X181594285Y-72350285D01*
X181641904Y-72445523D01*
X181737142Y-72540761D01*
X181880000Y-72588380D01*
X181975238Y-72588380D01*
X182118095Y-72540761D01*
X182165714Y-72493142D01*
X182165714Y-72159809D01*
X181975238Y-72159809D01*
X182594285Y-72588380D02*
X182594285Y-71588380D01*
X183165714Y-72588380D01*
X183165714Y-71588380D01*
X183641904Y-72588380D02*
X183641904Y-71588380D01*
X183880000Y-71588380D01*
X184022857Y-71636000D01*
X184118095Y-71731238D01*
X184165714Y-71826476D01*
X184213333Y-72016952D01*
X184213333Y-72159809D01*
X184165714Y-72350285D01*
X184118095Y-72445523D01*
X184022857Y-72540761D01*
X183880000Y-72588380D01*
X183641904Y-72588380D01*
X178585904Y-72064571D02*
X178728761Y-72112190D01*
X178776380Y-72159809D01*
X178824000Y-72255047D01*
X178824000Y-72397904D01*
X178776380Y-72493142D01*
X178728761Y-72540761D01*
X178633523Y-72588380D01*
X178252571Y-72588380D01*
X178252571Y-71588380D01*
X178585904Y-71588380D01*
X178681142Y-71636000D01*
X178728761Y-71683619D01*
X178776380Y-71778857D01*
X178776380Y-71874095D01*
X178728761Y-71969333D01*
X178681142Y-72016952D01*
X178585904Y-72064571D01*
X178252571Y-72064571D01*
X179204952Y-72302666D02*
X179681142Y-72302666D01*
X179109714Y-72588380D02*
X179443047Y-71588380D01*
X179776380Y-72588380D01*
X179966857Y-71588380D02*
X180538285Y-71588380D01*
X180252571Y-72588380D02*
X180252571Y-71588380D01*
X152685904Y-72096380D02*
X153304952Y-72096380D01*
X152971619Y-72477333D01*
X153114476Y-72477333D01*
X153209714Y-72524952D01*
X153257333Y-72572571D01*
X153304952Y-72667809D01*
X153304952Y-72905904D01*
X153257333Y-73001142D01*
X153209714Y-73048761D01*
X153114476Y-73096380D01*
X152828761Y-73096380D01*
X152733523Y-73048761D01*
X152685904Y-73001142D01*
X153590666Y-72096380D02*
X153924000Y-73096380D01*
X154257333Y-72096380D01*
X154495428Y-72096380D02*
X155114476Y-72096380D01*
X154781142Y-72477333D01*
X154924000Y-72477333D01*
X155019238Y-72524952D01*
X155066857Y-72572571D01*
X155114476Y-72667809D01*
X155114476Y-72905904D01*
X155066857Y-73001142D01*
X155019238Y-73048761D01*
X154924000Y-73096380D01*
X154638285Y-73096380D01*
X154543047Y-73048761D01*
X154495428Y-73001142D01*
X149669523Y-72096380D02*
X149193333Y-72096380D01*
X149145714Y-72572571D01*
X149193333Y-72524952D01*
X149288571Y-72477333D01*
X149526666Y-72477333D01*
X149621904Y-72524952D01*
X149669523Y-72572571D01*
X149717142Y-72667809D01*
X149717142Y-72905904D01*
X149669523Y-73001142D01*
X149621904Y-73048761D01*
X149526666Y-73096380D01*
X149288571Y-73096380D01*
X149193333Y-73048761D01*
X149145714Y-73001142D01*
X150002857Y-72096380D02*
X150336190Y-73096380D01*
X150669523Y-72096380D01*
X145176952Y-73096380D02*
X144605523Y-73096380D01*
X144891238Y-73096380D02*
X144891238Y-72096380D01*
X144796000Y-72239238D01*
X144700761Y-72334476D01*
X144605523Y-72382095D01*
X145557904Y-72191619D02*
X145605523Y-72144000D01*
X145700761Y-72096380D01*
X145938857Y-72096380D01*
X146034095Y-72144000D01*
X146081714Y-72191619D01*
X146129333Y-72286857D01*
X146129333Y-72382095D01*
X146081714Y-72524952D01*
X145510285Y-73096380D01*
X146129333Y-73096380D01*
X146415047Y-72096380D02*
X146748380Y-73096380D01*
X147081714Y-72096380D01*
X181999047Y-138882380D02*
X181999047Y-137882380D01*
X182237142Y-137882380D01*
X182380000Y-137930000D01*
X182475238Y-138025238D01*
X182522857Y-138120476D01*
X182570476Y-138310952D01*
X182570476Y-138453809D01*
X182522857Y-138644285D01*
X182475238Y-138739523D01*
X182380000Y-138834761D01*
X182237142Y-138882380D01*
X181999047Y-138882380D01*
X182999047Y-138501428D02*
X183760952Y-138501428D01*
X181999047Y-141422380D02*
X181999047Y-140422380D01*
X182237142Y-140422380D01*
X182380000Y-140470000D01*
X182475238Y-140565238D01*
X182522857Y-140660476D01*
X182570476Y-140850952D01*
X182570476Y-140993809D01*
X182522857Y-141184285D01*
X182475238Y-141279523D01*
X182380000Y-141374761D01*
X182237142Y-141422380D01*
X181999047Y-141422380D01*
X182999047Y-141041428D02*
X183760952Y-141041428D01*
X183380000Y-141422380D02*
X183380000Y-140660476D01*
D11*
X143570000Y-98155357D02*
X143655714Y-98183928D01*
X143798571Y-98183928D01*
X143855714Y-98155357D01*
X143884285Y-98126785D01*
X143912857Y-98069642D01*
X143912857Y-98012500D01*
X143884285Y-97955357D01*
X143855714Y-97926785D01*
X143798571Y-97898214D01*
X143684285Y-97869642D01*
X143627142Y-97841071D01*
X143598571Y-97812500D01*
X143570000Y-97755357D01*
X143570000Y-97698214D01*
X143598571Y-97641071D01*
X143627142Y-97612500D01*
X143684285Y-97583928D01*
X143827142Y-97583928D01*
X143912857Y-97612500D01*
X144398571Y-98155357D02*
X144341428Y-98183928D01*
X144227142Y-98183928D01*
X144170000Y-98155357D01*
X144141428Y-98098214D01*
X144141428Y-97869642D01*
X144170000Y-97812500D01*
X144227142Y-97783928D01*
X144341428Y-97783928D01*
X144398571Y-97812500D01*
X144427142Y-97869642D01*
X144427142Y-97926785D01*
X144141428Y-97983928D01*
X144598571Y-97783928D02*
X144827142Y-97783928D01*
X144684285Y-97583928D02*
X144684285Y-98098214D01*
X144712857Y-98155357D01*
X144770000Y-98183928D01*
X144827142Y-98183928D01*
X145655714Y-97583928D02*
X145655714Y-98012500D01*
X145627142Y-98098214D01*
X145570000Y-98155357D01*
X145484285Y-98183928D01*
X145427142Y-98183928D01*
X145941428Y-98183928D02*
X145941428Y-97583928D01*
X146170000Y-97583928D01*
X146227142Y-97612500D01*
X146255714Y-97641071D01*
X146284285Y-97698214D01*
X146284285Y-97783928D01*
X146255714Y-97841071D01*
X146227142Y-97869642D01*
X146170000Y-97898214D01*
X145941428Y-97898214D01*
X146855714Y-98183928D02*
X146512857Y-98183928D01*
X146684285Y-98183928D02*
X146684285Y-97583928D01*
X146627142Y-97669642D01*
X146570000Y-97726785D01*
X146512857Y-97755357D01*
X147541428Y-98155357D02*
X147598571Y-98183928D01*
X147712857Y-98183928D01*
X147770000Y-98155357D01*
X147798571Y-98098214D01*
X147798571Y-98069642D01*
X147770000Y-98012500D01*
X147712857Y-97983928D01*
X147627142Y-97983928D01*
X147570000Y-97955357D01*
X147541428Y-97898214D01*
X147541428Y-97869642D01*
X147570000Y-97812500D01*
X147627142Y-97783928D01*
X147712857Y-97783928D01*
X147770000Y-97812500D01*
X148312857Y-98183928D02*
X148312857Y-97869642D01*
X148284285Y-97812500D01*
X148227142Y-97783928D01*
X148112857Y-97783928D01*
X148055714Y-97812500D01*
X148312857Y-98155357D02*
X148255714Y-98183928D01*
X148112857Y-98183928D01*
X148055714Y-98155357D01*
X148027142Y-98098214D01*
X148027142Y-98041071D01*
X148055714Y-97983928D01*
X148112857Y-97955357D01*
X148255714Y-97955357D01*
X148312857Y-97926785D01*
X148598571Y-98183928D02*
X148598571Y-97783928D01*
X148598571Y-97841071D02*
X148627142Y-97812500D01*
X148684285Y-97783928D01*
X148770000Y-97783928D01*
X148827142Y-97812500D01*
X148855714Y-97869642D01*
X148855714Y-98183928D01*
X148855714Y-97869642D02*
X148884285Y-97812500D01*
X148941428Y-97783928D01*
X149027142Y-97783928D01*
X149084285Y-97812500D01*
X149112857Y-97869642D01*
X149112857Y-98183928D01*
X149627142Y-98155357D02*
X149570000Y-98183928D01*
X149455714Y-98183928D01*
X149398571Y-98155357D01*
X149370000Y-98098214D01*
X149370000Y-97869642D01*
X149398571Y-97812500D01*
X149455714Y-97783928D01*
X149570000Y-97783928D01*
X149627142Y-97812500D01*
X149655714Y-97869642D01*
X149655714Y-97926785D01*
X149370000Y-97983928D01*
X150627142Y-98183928D02*
X150627142Y-97869642D01*
X150598571Y-97812500D01*
X150541428Y-97783928D01*
X150427142Y-97783928D01*
X150370000Y-97812500D01*
X150627142Y-98155357D02*
X150570000Y-98183928D01*
X150427142Y-98183928D01*
X150370000Y-98155357D01*
X150341428Y-98098214D01*
X150341428Y-98041071D01*
X150370000Y-97983928D01*
X150427142Y-97955357D01*
X150570000Y-97955357D01*
X150627142Y-97926785D01*
X150884285Y-98155357D02*
X150941428Y-98183928D01*
X151055714Y-98183928D01*
X151112857Y-98155357D01*
X151141428Y-98098214D01*
X151141428Y-98069642D01*
X151112857Y-98012500D01*
X151055714Y-97983928D01*
X150970000Y-97983928D01*
X150912857Y-97955357D01*
X150884285Y-97898214D01*
X150884285Y-97869642D01*
X150912857Y-97812500D01*
X150970000Y-97783928D01*
X151055714Y-97783928D01*
X151112857Y-97812500D01*
X152027142Y-97583928D02*
X152027142Y-98012500D01*
X151998571Y-98098214D01*
X151941428Y-98155357D01*
X151855714Y-98183928D01*
X151798571Y-98183928D01*
X152312857Y-98183928D02*
X152312857Y-97583928D01*
X152541428Y-97583928D01*
X152598571Y-97612500D01*
X152627142Y-97641071D01*
X152655714Y-97698214D01*
X152655714Y-97783928D01*
X152627142Y-97841071D01*
X152598571Y-97869642D01*
X152541428Y-97898214D01*
X152312857Y-97898214D01*
X152884285Y-97641071D02*
X152912857Y-97612500D01*
X152970000Y-97583928D01*
X153112857Y-97583928D01*
X153170000Y-97612500D01*
X153198571Y-97641071D01*
X153227142Y-97698214D01*
X153227142Y-97755357D01*
X153198571Y-97841071D01*
X152855714Y-98183928D01*
X153227142Y-98183928D01*
X154198571Y-98183928D02*
X154198571Y-97869642D01*
X154170000Y-97812500D01*
X154112857Y-97783928D01*
X153998571Y-97783928D01*
X153941428Y-97812500D01*
X154198571Y-98155357D02*
X154141428Y-98183928D01*
X153998571Y-98183928D01*
X153941428Y-98155357D01*
X153912857Y-98098214D01*
X153912857Y-98041071D01*
X153941428Y-97983928D01*
X153998571Y-97955357D01*
X154141428Y-97955357D01*
X154198571Y-97926785D01*
X154484285Y-97783928D02*
X154484285Y-98183928D01*
X154484285Y-97841071D02*
X154512857Y-97812500D01*
X154570000Y-97783928D01*
X154655714Y-97783928D01*
X154712857Y-97812500D01*
X154741428Y-97869642D01*
X154741428Y-98183928D01*
X155284285Y-98183928D02*
X155284285Y-97583928D01*
X155284285Y-98155357D02*
X155227142Y-98183928D01*
X155112857Y-98183928D01*
X155055714Y-98155357D01*
X155027142Y-98126785D01*
X154998571Y-98069642D01*
X154998571Y-97898214D01*
X155027142Y-97841071D01*
X155055714Y-97812500D01*
X155112857Y-97783928D01*
X155227142Y-97783928D01*
X155284285Y-97812500D01*
X156198571Y-97583928D02*
X156198571Y-98012500D01*
X156170000Y-98098214D01*
X156112857Y-98155357D01*
X156027142Y-98183928D01*
X155970000Y-98183928D01*
X156484285Y-98183928D02*
X156484285Y-97583928D01*
X156712857Y-97583928D01*
X156770000Y-97612500D01*
X156798571Y-97641071D01*
X156827142Y-97698214D01*
X156827142Y-97783928D01*
X156798571Y-97841071D01*
X156770000Y-97869642D01*
X156712857Y-97898214D01*
X156484285Y-97898214D01*
X157027142Y-97583928D02*
X157398571Y-97583928D01*
X157198571Y-97812500D01*
X157284285Y-97812500D01*
X157341428Y-97841071D01*
X157370000Y-97869642D01*
X157398571Y-97926785D01*
X157398571Y-98069642D01*
X157370000Y-98126785D01*
X157341428Y-98155357D01*
X157284285Y-98183928D01*
X157112857Y-98183928D01*
X157055714Y-98155357D01*
X157027142Y-98126785D01*
X158084285Y-98155357D02*
X158141428Y-98183928D01*
X158255714Y-98183928D01*
X158312857Y-98155357D01*
X158341428Y-98098214D01*
X158341428Y-98069642D01*
X158312857Y-98012500D01*
X158255714Y-97983928D01*
X158170000Y-97983928D01*
X158112857Y-97955357D01*
X158084285Y-97898214D01*
X158084285Y-97869642D01*
X158112857Y-97812500D01*
X158170000Y-97783928D01*
X158255714Y-97783928D01*
X158312857Y-97812500D01*
X158855714Y-98183928D02*
X158855714Y-97869642D01*
X158827142Y-97812500D01*
X158770000Y-97783928D01*
X158655714Y-97783928D01*
X158598571Y-97812500D01*
X158855714Y-98155357D02*
X158798571Y-98183928D01*
X158655714Y-98183928D01*
X158598571Y-98155357D01*
X158570000Y-98098214D01*
X158570000Y-98041071D01*
X158598571Y-97983928D01*
X158655714Y-97955357D01*
X158798571Y-97955357D01*
X158855714Y-97926785D01*
X159141428Y-98183928D02*
X159141428Y-97783928D01*
X159141428Y-97841071D02*
X159170000Y-97812500D01*
X159227142Y-97783928D01*
X159312857Y-97783928D01*
X159370000Y-97812500D01*
X159398571Y-97869642D01*
X159398571Y-98183928D01*
X159398571Y-97869642D02*
X159427142Y-97812500D01*
X159484285Y-97783928D01*
X159570000Y-97783928D01*
X159627142Y-97812500D01*
X159655714Y-97869642D01*
X159655714Y-98183928D01*
X160170000Y-98155357D02*
X160112857Y-98183928D01*
X159998571Y-98183928D01*
X159941428Y-98155357D01*
X159912857Y-98098214D01*
X159912857Y-97869642D01*
X159941428Y-97812500D01*
X159998571Y-97783928D01*
X160112857Y-97783928D01*
X160170000Y-97812500D01*
X160198571Y-97869642D01*
X160198571Y-97926785D01*
X159912857Y-97983928D01*
X161170000Y-98183928D02*
X161170000Y-97869642D01*
X161141428Y-97812500D01*
X161084285Y-97783928D01*
X160970000Y-97783928D01*
X160912857Y-97812500D01*
X161170000Y-98155357D02*
X161112857Y-98183928D01*
X160970000Y-98183928D01*
X160912857Y-98155357D01*
X160884285Y-98098214D01*
X160884285Y-98041071D01*
X160912857Y-97983928D01*
X160970000Y-97955357D01*
X161112857Y-97955357D01*
X161170000Y-97926785D01*
X161427142Y-98155357D02*
X161484285Y-98183928D01*
X161598571Y-98183928D01*
X161655714Y-98155357D01*
X161684285Y-98098214D01*
X161684285Y-98069642D01*
X161655714Y-98012500D01*
X161598571Y-97983928D01*
X161512857Y-97983928D01*
X161455714Y-97955357D01*
X161427142Y-97898214D01*
X161427142Y-97869642D01*
X161455714Y-97812500D01*
X161512857Y-97783928D01*
X161598571Y-97783928D01*
X161655714Y-97812500D01*
X162570000Y-97583928D02*
X162570000Y-98012500D01*
X162541428Y-98098214D01*
X162484285Y-98155357D01*
X162398571Y-98183928D01*
X162341428Y-98183928D01*
X162855714Y-98183928D02*
X162855714Y-97583928D01*
X163084285Y-97583928D01*
X163141428Y-97612500D01*
X163170000Y-97641071D01*
X163198571Y-97698214D01*
X163198571Y-97783928D01*
X163170000Y-97841071D01*
X163141428Y-97869642D01*
X163084285Y-97898214D01*
X162855714Y-97898214D01*
X163712857Y-97783928D02*
X163712857Y-98183928D01*
X163570000Y-97555357D02*
X163427142Y-97983928D01*
X163798571Y-97983928D01*
X143355714Y-98608928D02*
X143355714Y-99037500D01*
X143327142Y-99123214D01*
X143270000Y-99180357D01*
X143184285Y-99208928D01*
X143127142Y-99208928D01*
X143641428Y-99208928D02*
X143641428Y-98608928D01*
X143870000Y-98608928D01*
X143927142Y-98637500D01*
X143955714Y-98666071D01*
X143984285Y-98723214D01*
X143984285Y-98808928D01*
X143955714Y-98866071D01*
X143927142Y-98894642D01*
X143870000Y-98923214D01*
X143641428Y-98923214D01*
X144184285Y-98608928D02*
X144555714Y-98608928D01*
X144355714Y-98837500D01*
X144441428Y-98837500D01*
X144498571Y-98866071D01*
X144527142Y-98894642D01*
X144555714Y-98951785D01*
X144555714Y-99094642D01*
X144527142Y-99151785D01*
X144498571Y-99180357D01*
X144441428Y-99208928D01*
X144270000Y-99208928D01*
X144212857Y-99180357D01*
X144184285Y-99151785D01*
X145527142Y-99208928D02*
X145527142Y-98894642D01*
X145498571Y-98837500D01*
X145441428Y-98808928D01*
X145327142Y-98808928D01*
X145270000Y-98837500D01*
X145527142Y-99180357D02*
X145470000Y-99208928D01*
X145327142Y-99208928D01*
X145270000Y-99180357D01*
X145241428Y-99123214D01*
X145241428Y-99066071D01*
X145270000Y-99008928D01*
X145327142Y-98980357D01*
X145470000Y-98980357D01*
X145527142Y-98951785D01*
X145812857Y-98808928D02*
X145812857Y-99208928D01*
X145812857Y-98866071D02*
X145841428Y-98837500D01*
X145898571Y-98808928D01*
X145984285Y-98808928D01*
X146041428Y-98837500D01*
X146070000Y-98894642D01*
X146070000Y-99208928D01*
X146612857Y-99208928D02*
X146612857Y-98608928D01*
X146612857Y-99180357D02*
X146555714Y-99208928D01*
X146441428Y-99208928D01*
X146384285Y-99180357D01*
X146355714Y-99151785D01*
X146327142Y-99094642D01*
X146327142Y-98923214D01*
X146355714Y-98866071D01*
X146384285Y-98837500D01*
X146441428Y-98808928D01*
X146555714Y-98808928D01*
X146612857Y-98837500D01*
X147527142Y-98608928D02*
X147527142Y-99037500D01*
X147498571Y-99123214D01*
X147441428Y-99180357D01*
X147355714Y-99208928D01*
X147298571Y-99208928D01*
X147812857Y-99208928D02*
X147812857Y-98608928D01*
X148041428Y-98608928D01*
X148098571Y-98637500D01*
X148127142Y-98666071D01*
X148155714Y-98723214D01*
X148155714Y-98808928D01*
X148127142Y-98866071D01*
X148098571Y-98894642D01*
X148041428Y-98923214D01*
X147812857Y-98923214D01*
X148670000Y-98808928D02*
X148670000Y-99208928D01*
X148527142Y-98580357D02*
X148384285Y-99008928D01*
X148755714Y-99008928D01*
X149412857Y-99180357D02*
X149470000Y-99208928D01*
X149584285Y-99208928D01*
X149641428Y-99180357D01*
X149670000Y-99123214D01*
X149670000Y-99094642D01*
X149641428Y-99037500D01*
X149584285Y-99008928D01*
X149498571Y-99008928D01*
X149441428Y-98980357D01*
X149412857Y-98923214D01*
X149412857Y-98894642D01*
X149441428Y-98837500D01*
X149498571Y-98808928D01*
X149584285Y-98808928D01*
X149641428Y-98837500D01*
X149927142Y-99208928D02*
X149927142Y-98608928D01*
X150184285Y-99208928D02*
X150184285Y-98894642D01*
X150155714Y-98837500D01*
X150098571Y-98808928D01*
X150012857Y-98808928D01*
X149955714Y-98837500D01*
X149927142Y-98866071D01*
X150555714Y-99208928D02*
X150498571Y-99180357D01*
X150470000Y-99151785D01*
X150441428Y-99094642D01*
X150441428Y-98923214D01*
X150470000Y-98866071D01*
X150498571Y-98837500D01*
X150555714Y-98808928D01*
X150641428Y-98808928D01*
X150698571Y-98837500D01*
X150727142Y-98866071D01*
X150755714Y-98923214D01*
X150755714Y-99094642D01*
X150727142Y-99151785D01*
X150698571Y-99180357D01*
X150641428Y-99208928D01*
X150555714Y-99208928D01*
X151270000Y-98808928D02*
X151270000Y-99208928D01*
X151012857Y-98808928D02*
X151012857Y-99123214D01*
X151041428Y-99180357D01*
X151098571Y-99208928D01*
X151184285Y-99208928D01*
X151241428Y-99180357D01*
X151270000Y-99151785D01*
X151641428Y-99208928D02*
X151584285Y-99180357D01*
X151555714Y-99123214D01*
X151555714Y-98608928D01*
X152127142Y-99208928D02*
X152127142Y-98608928D01*
X152127142Y-99180357D02*
X152070000Y-99208928D01*
X151955714Y-99208928D01*
X151898571Y-99180357D01*
X151870000Y-99151785D01*
X151841428Y-99094642D01*
X151841428Y-98923214D01*
X151870000Y-98866071D01*
X151898571Y-98837500D01*
X151955714Y-98808928D01*
X152070000Y-98808928D01*
X152127142Y-98837500D01*
X152870000Y-99208928D02*
X152870000Y-98608928D01*
X152870000Y-98837500D02*
X152927142Y-98808928D01*
X153041428Y-98808928D01*
X153098571Y-98837500D01*
X153127142Y-98866071D01*
X153155714Y-98923214D01*
X153155714Y-99094642D01*
X153127142Y-99151785D01*
X153098571Y-99180357D01*
X153041428Y-99208928D01*
X152927142Y-99208928D01*
X152870000Y-99180357D01*
X153641428Y-99180357D02*
X153584285Y-99208928D01*
X153470000Y-99208928D01*
X153412857Y-99180357D01*
X153384285Y-99123214D01*
X153384285Y-98894642D01*
X153412857Y-98837500D01*
X153470000Y-98808928D01*
X153584285Y-98808928D01*
X153641428Y-98837500D01*
X153670000Y-98894642D01*
X153670000Y-98951785D01*
X153384285Y-99008928D01*
X154470000Y-99208928D02*
X154412857Y-99180357D01*
X154384285Y-99151785D01*
X154355714Y-99094642D01*
X154355714Y-98923214D01*
X154384285Y-98866071D01*
X154412857Y-98837500D01*
X154470000Y-98808928D01*
X154555714Y-98808928D01*
X154612857Y-98837500D01*
X154641428Y-98866071D01*
X154670000Y-98923214D01*
X154670000Y-99094642D01*
X154641428Y-99151785D01*
X154612857Y-99180357D01*
X154555714Y-99208928D01*
X154470000Y-99208928D01*
X154927142Y-98808928D02*
X154927142Y-99408928D01*
X154927142Y-98837500D02*
X154984285Y-98808928D01*
X155098571Y-98808928D01*
X155155714Y-98837500D01*
X155184285Y-98866071D01*
X155212857Y-98923214D01*
X155212857Y-99094642D01*
X155184285Y-99151785D01*
X155155714Y-99180357D01*
X155098571Y-99208928D01*
X154984285Y-99208928D01*
X154927142Y-99180357D01*
X155470000Y-98808928D02*
X155470000Y-99408928D01*
X155470000Y-98837500D02*
X155527142Y-98808928D01*
X155641428Y-98808928D01*
X155698571Y-98837500D01*
X155727142Y-98866071D01*
X155755714Y-98923214D01*
X155755714Y-99094642D01*
X155727142Y-99151785D01*
X155698571Y-99180357D01*
X155641428Y-99208928D01*
X155527142Y-99208928D01*
X155470000Y-99180357D01*
X156098571Y-99208928D02*
X156041428Y-99180357D01*
X156012857Y-99151785D01*
X155984285Y-99094642D01*
X155984285Y-98923214D01*
X156012857Y-98866071D01*
X156041428Y-98837500D01*
X156098571Y-98808928D01*
X156184285Y-98808928D01*
X156241428Y-98837500D01*
X156270000Y-98866071D01*
X156298571Y-98923214D01*
X156298571Y-99094642D01*
X156270000Y-99151785D01*
X156241428Y-99180357D01*
X156184285Y-99208928D01*
X156098571Y-99208928D01*
X156527142Y-99180357D02*
X156584285Y-99208928D01*
X156698571Y-99208928D01*
X156755714Y-99180357D01*
X156784285Y-99123214D01*
X156784285Y-99094642D01*
X156755714Y-99037500D01*
X156698571Y-99008928D01*
X156612857Y-99008928D01*
X156555714Y-98980357D01*
X156527142Y-98923214D01*
X156527142Y-98894642D01*
X156555714Y-98837500D01*
X156612857Y-98808928D01*
X156698571Y-98808928D01*
X156755714Y-98837500D01*
X157041428Y-99208928D02*
X157041428Y-98808928D01*
X157041428Y-98608928D02*
X157012857Y-98637500D01*
X157041428Y-98666071D01*
X157070000Y-98637500D01*
X157041428Y-98608928D01*
X157041428Y-98666071D01*
X157241428Y-98808928D02*
X157470000Y-98808928D01*
X157327142Y-98608928D02*
X157327142Y-99123214D01*
X157355714Y-99180357D01*
X157412857Y-99208928D01*
X157470000Y-99208928D01*
X157898571Y-99180357D02*
X157841428Y-99208928D01*
X157727142Y-99208928D01*
X157670000Y-99180357D01*
X157641428Y-99123214D01*
X157641428Y-98894642D01*
X157670000Y-98837500D01*
X157727142Y-98808928D01*
X157841428Y-98808928D01*
X157898571Y-98837500D01*
X157927142Y-98894642D01*
X157927142Y-98951785D01*
X157641428Y-99008928D01*
X158812857Y-98608928D02*
X158812857Y-99037500D01*
X158784285Y-99123214D01*
X158727142Y-99180357D01*
X158641428Y-99208928D01*
X158584285Y-99208928D01*
X159098571Y-99208928D02*
X159098571Y-98608928D01*
X159327142Y-98608928D01*
X159384285Y-98637500D01*
X159412857Y-98666071D01*
X159441428Y-98723214D01*
X159441428Y-98808928D01*
X159412857Y-98866071D01*
X159384285Y-98894642D01*
X159327142Y-98923214D01*
X159098571Y-98923214D01*
X160012857Y-99208928D02*
X159670000Y-99208928D01*
X159841428Y-99208928D02*
X159841428Y-98608928D01*
X159784285Y-98694642D01*
X159727142Y-98751785D01*
X159670000Y-98780357D01*
X160984285Y-99208928D02*
X160984285Y-98894642D01*
X160955714Y-98837500D01*
X160898571Y-98808928D01*
X160784285Y-98808928D01*
X160727142Y-98837500D01*
X160984285Y-99180357D02*
X160927142Y-99208928D01*
X160784285Y-99208928D01*
X160727142Y-99180357D01*
X160698571Y-99123214D01*
X160698571Y-99066071D01*
X160727142Y-99008928D01*
X160784285Y-98980357D01*
X160927142Y-98980357D01*
X160984285Y-98951785D01*
X161270000Y-98808928D02*
X161270000Y-99208928D01*
X161270000Y-98866071D02*
X161298571Y-98837500D01*
X161355714Y-98808928D01*
X161441428Y-98808928D01*
X161498571Y-98837500D01*
X161527142Y-98894642D01*
X161527142Y-99208928D01*
X162070000Y-99208928D02*
X162070000Y-98608928D01*
X162070000Y-99180357D02*
X162012857Y-99208928D01*
X161898571Y-99208928D01*
X161841428Y-99180357D01*
X161812857Y-99151785D01*
X161784285Y-99094642D01*
X161784285Y-98923214D01*
X161812857Y-98866071D01*
X161841428Y-98837500D01*
X161898571Y-98808928D01*
X162012857Y-98808928D01*
X162070000Y-98837500D01*
X162984285Y-98608928D02*
X162984285Y-99037500D01*
X162955714Y-99123214D01*
X162898571Y-99180357D01*
X162812857Y-99208928D01*
X162755714Y-99208928D01*
X163270000Y-99208928D02*
X163270000Y-98608928D01*
X163498571Y-98608928D01*
X163555714Y-98637500D01*
X163584285Y-98666071D01*
X163612857Y-98723214D01*
X163612857Y-98808928D01*
X163584285Y-98866071D01*
X163555714Y-98894642D01*
X163498571Y-98923214D01*
X163270000Y-98923214D01*
X163841428Y-98666071D02*
X163870000Y-98637500D01*
X163927142Y-98608928D01*
X164070000Y-98608928D01*
X164127142Y-98637500D01*
X164155714Y-98666071D01*
X164184285Y-98723214D01*
X164184285Y-98780357D01*
X164155714Y-98866071D01*
X163812857Y-99208928D01*
X164184285Y-99208928D01*
D10*
X172537380Y-108378571D02*
X172061190Y-108711904D01*
X172537380Y-108950000D02*
X171537380Y-108950000D01*
X171537380Y-108569047D01*
X171585000Y-108473809D01*
X171632619Y-108426190D01*
X171727857Y-108378571D01*
X171870714Y-108378571D01*
X171965952Y-108426190D01*
X172013571Y-108473809D01*
X172061190Y-108569047D01*
X172061190Y-108950000D01*
X172537380Y-107950000D02*
X171537380Y-107950000D01*
X171537380Y-107569047D01*
X171585000Y-107473809D01*
X171632619Y-107426190D01*
X171727857Y-107378571D01*
X171870714Y-107378571D01*
X171965952Y-107426190D01*
X172013571Y-107473809D01*
X172061190Y-107569047D01*
X172061190Y-107950000D01*
X172537380Y-106950000D02*
X171537380Y-106950000D01*
X110323333Y-64127857D02*
X110323333Y-64604047D01*
X110037619Y-64032619D02*
X111037619Y-64365952D01*
X110037619Y-64699285D01*
X110704285Y-65032619D02*
X110037619Y-65032619D01*
X110609047Y-65032619D02*
X110656666Y-65080238D01*
X110704285Y-65175476D01*
X110704285Y-65318333D01*
X110656666Y-65413571D01*
X110561428Y-65461190D01*
X110037619Y-65461190D01*
X110704285Y-65794523D02*
X110704285Y-66175476D01*
X111037619Y-65937380D02*
X110180476Y-65937380D01*
X110085238Y-65985000D01*
X110037619Y-66080238D01*
X110037619Y-66175476D01*
X110085238Y-66889761D02*
X110037619Y-66794523D01*
X110037619Y-66604047D01*
X110085238Y-66508809D01*
X110180476Y-66461190D01*
X110561428Y-66461190D01*
X110656666Y-66508809D01*
X110704285Y-66604047D01*
X110704285Y-66794523D01*
X110656666Y-66889761D01*
X110561428Y-66937380D01*
X110466190Y-66937380D01*
X110370952Y-66461190D01*
X110704285Y-67365952D02*
X110037619Y-67365952D01*
X110609047Y-67365952D02*
X110656666Y-67413571D01*
X110704285Y-67508809D01*
X110704285Y-67651666D01*
X110656666Y-67746904D01*
X110561428Y-67794523D01*
X110037619Y-67794523D01*
X110704285Y-68270714D02*
X110037619Y-68270714D01*
X110609047Y-68270714D02*
X110656666Y-68318333D01*
X110704285Y-68413571D01*
X110704285Y-68556428D01*
X110656666Y-68651666D01*
X110561428Y-68699285D01*
X110037619Y-68699285D01*
X110037619Y-69604047D02*
X110561428Y-69604047D01*
X110656666Y-69556428D01*
X110704285Y-69461190D01*
X110704285Y-69270714D01*
X110656666Y-69175476D01*
X110085238Y-69604047D02*
X110037619Y-69508809D01*
X110037619Y-69270714D01*
X110085238Y-69175476D01*
X110180476Y-69127857D01*
X110275714Y-69127857D01*
X110370952Y-69175476D01*
X110418571Y-69270714D01*
X110418571Y-69508809D01*
X110466190Y-69604047D01*
X110037619Y-70842142D02*
X111037619Y-70842142D01*
X111037619Y-71080238D01*
X110990000Y-71223095D01*
X110894761Y-71318333D01*
X110799523Y-71365952D01*
X110609047Y-71413571D01*
X110466190Y-71413571D01*
X110275714Y-71365952D01*
X110180476Y-71318333D01*
X110085238Y-71223095D01*
X110037619Y-71080238D01*
X110037619Y-70842142D01*
X110085238Y-72223095D02*
X110037619Y-72127857D01*
X110037619Y-71937380D01*
X110085238Y-71842142D01*
X110180476Y-71794523D01*
X110561428Y-71794523D01*
X110656666Y-71842142D01*
X110704285Y-71937380D01*
X110704285Y-72127857D01*
X110656666Y-72223095D01*
X110561428Y-72270714D01*
X110466190Y-72270714D01*
X110370952Y-71794523D01*
X110704285Y-72699285D02*
X109704285Y-72699285D01*
X110656666Y-72699285D02*
X110704285Y-72794523D01*
X110704285Y-72985000D01*
X110656666Y-73080238D01*
X110609047Y-73127857D01*
X110513809Y-73175476D01*
X110228095Y-73175476D01*
X110132857Y-73127857D01*
X110085238Y-73080238D01*
X110037619Y-72985000D01*
X110037619Y-72794523D01*
X110085238Y-72699285D01*
X110037619Y-73746904D02*
X110085238Y-73651666D01*
X110180476Y-73604047D01*
X111037619Y-73604047D01*
X110037619Y-74270714D02*
X110085238Y-74175476D01*
X110132857Y-74127857D01*
X110228095Y-74080238D01*
X110513809Y-74080238D01*
X110609047Y-74127857D01*
X110656666Y-74175476D01*
X110704285Y-74270714D01*
X110704285Y-74413571D01*
X110656666Y-74508809D01*
X110609047Y-74556428D01*
X110513809Y-74604047D01*
X110228095Y-74604047D01*
X110132857Y-74556428D01*
X110085238Y-74508809D01*
X110037619Y-74413571D01*
X110037619Y-74270714D01*
X110704285Y-74937380D02*
X110037619Y-75175476D01*
X110704285Y-75413571D02*
X110037619Y-75175476D01*
X109799523Y-75080238D01*
X109751904Y-75032619D01*
X109704285Y-74937380D01*
X110085238Y-76175476D02*
X110037619Y-76080238D01*
X110037619Y-75889761D01*
X110085238Y-75794523D01*
X110180476Y-75746904D01*
X110561428Y-75746904D01*
X110656666Y-75794523D01*
X110704285Y-75889761D01*
X110704285Y-76080238D01*
X110656666Y-76175476D01*
X110561428Y-76223095D01*
X110466190Y-76223095D01*
X110370952Y-75746904D01*
X110037619Y-76651666D02*
X110704285Y-76651666D01*
X110513809Y-76651666D02*
X110609047Y-76699285D01*
X110656666Y-76746904D01*
X110704285Y-76842142D01*
X110704285Y-76937380D01*
X114768333Y-90662857D02*
X114768333Y-91139047D01*
X114482619Y-90567619D02*
X115482619Y-90900952D01*
X114482619Y-91234285D01*
X114482619Y-91567619D02*
X115482619Y-91567619D01*
X115482619Y-91948571D01*
X115435000Y-92043809D01*
X115387380Y-92091428D01*
X115292142Y-92139047D01*
X115149285Y-92139047D01*
X115054047Y-92091428D01*
X115006428Y-92043809D01*
X114958809Y-91948571D01*
X114958809Y-91567619D01*
X114482619Y-93139047D02*
X114958809Y-92805714D01*
X114482619Y-92567619D02*
X115482619Y-92567619D01*
X115482619Y-92948571D01*
X115435000Y-93043809D01*
X115387380Y-93091428D01*
X115292142Y-93139047D01*
X115149285Y-93139047D01*
X115054047Y-93091428D01*
X115006428Y-93043809D01*
X114958809Y-92948571D01*
X114958809Y-92567619D01*
X114530238Y-93520000D02*
X114482619Y-93662857D01*
X114482619Y-93900952D01*
X114530238Y-93996190D01*
X114577857Y-94043809D01*
X114673095Y-94091428D01*
X114768333Y-94091428D01*
X114863571Y-94043809D01*
X114911190Y-93996190D01*
X114958809Y-93900952D01*
X115006428Y-93710476D01*
X115054047Y-93615238D01*
X115101666Y-93567619D01*
X115196904Y-93520000D01*
X115292142Y-93520000D01*
X115387380Y-93567619D01*
X115435000Y-93615238D01*
X115482619Y-93710476D01*
X115482619Y-93948571D01*
X115435000Y-94091428D01*
X114577857Y-95853333D02*
X114530238Y-95805714D01*
X114482619Y-95662857D01*
X114482619Y-95567619D01*
X114530238Y-95424761D01*
X114625476Y-95329523D01*
X114720714Y-95281904D01*
X114911190Y-95234285D01*
X115054047Y-95234285D01*
X115244523Y-95281904D01*
X115339761Y-95329523D01*
X115435000Y-95424761D01*
X115482619Y-95567619D01*
X115482619Y-95662857D01*
X115435000Y-95805714D01*
X115387380Y-95853333D01*
X114482619Y-96424761D02*
X114530238Y-96329523D01*
X114577857Y-96281904D01*
X114673095Y-96234285D01*
X114958809Y-96234285D01*
X115054047Y-96281904D01*
X115101666Y-96329523D01*
X115149285Y-96424761D01*
X115149285Y-96567619D01*
X115101666Y-96662857D01*
X115054047Y-96710476D01*
X114958809Y-96758095D01*
X114673095Y-96758095D01*
X114577857Y-96710476D01*
X114530238Y-96662857D01*
X114482619Y-96567619D01*
X114482619Y-96424761D01*
X115149285Y-97186666D02*
X114482619Y-97186666D01*
X115054047Y-97186666D02*
X115101666Y-97234285D01*
X115149285Y-97329523D01*
X115149285Y-97472380D01*
X115101666Y-97567619D01*
X115006428Y-97615238D01*
X114482619Y-97615238D01*
X115149285Y-98091428D02*
X114482619Y-98091428D01*
X115054047Y-98091428D02*
X115101666Y-98139047D01*
X115149285Y-98234285D01*
X115149285Y-98377142D01*
X115101666Y-98472380D01*
X115006428Y-98520000D01*
X114482619Y-98520000D01*
X114530238Y-99377142D02*
X114482619Y-99281904D01*
X114482619Y-99091428D01*
X114530238Y-98996190D01*
X114625476Y-98948571D01*
X115006428Y-98948571D01*
X115101666Y-98996190D01*
X115149285Y-99091428D01*
X115149285Y-99281904D01*
X115101666Y-99377142D01*
X115006428Y-99424761D01*
X114911190Y-99424761D01*
X114815952Y-98948571D01*
X114530238Y-100281904D02*
X114482619Y-100186666D01*
X114482619Y-99996190D01*
X114530238Y-99900952D01*
X114577857Y-99853333D01*
X114673095Y-99805714D01*
X114958809Y-99805714D01*
X115054047Y-99853333D01*
X115101666Y-99900952D01*
X115149285Y-99996190D01*
X115149285Y-100186666D01*
X115101666Y-100281904D01*
X115149285Y-100567619D02*
X115149285Y-100948571D01*
X115482619Y-100710476D02*
X114625476Y-100710476D01*
X114530238Y-100758095D01*
X114482619Y-100853333D01*
X114482619Y-100948571D01*
X114482619Y-101424761D02*
X114530238Y-101329523D01*
X114577857Y-101281904D01*
X114673095Y-101234285D01*
X114958809Y-101234285D01*
X115054047Y-101281904D01*
X115101666Y-101329523D01*
X115149285Y-101424761D01*
X115149285Y-101567619D01*
X115101666Y-101662857D01*
X115054047Y-101710476D01*
X114958809Y-101758095D01*
X114673095Y-101758095D01*
X114577857Y-101710476D01*
X114530238Y-101662857D01*
X114482619Y-101567619D01*
X114482619Y-101424761D01*
X114482619Y-102186666D02*
X115149285Y-102186666D01*
X114958809Y-102186666D02*
X115054047Y-102234285D01*
X115101666Y-102281904D01*
X115149285Y-102377142D01*
X115149285Y-102472380D01*
X114482619Y-119865000D02*
X115482619Y-119865000D01*
X114482619Y-120341190D02*
X115149285Y-120341190D01*
X114958809Y-120341190D02*
X115054047Y-120388809D01*
X115101666Y-120436428D01*
X115149285Y-120531666D01*
X115149285Y-120626904D01*
X114482619Y-120960238D02*
X115149285Y-120960238D01*
X115482619Y-120960238D02*
X115435000Y-120912619D01*
X115387380Y-120960238D01*
X115435000Y-121007857D01*
X115482619Y-120960238D01*
X115387380Y-120960238D01*
X114482619Y-121865000D02*
X115482619Y-121865000D01*
X114530238Y-121865000D02*
X114482619Y-121769761D01*
X114482619Y-121579285D01*
X114530238Y-121484047D01*
X114577857Y-121436428D01*
X114673095Y-121388809D01*
X114958809Y-121388809D01*
X115054047Y-121436428D01*
X115101666Y-121484047D01*
X115149285Y-121579285D01*
X115149285Y-121769761D01*
X115101666Y-121865000D01*
X114482619Y-122341190D02*
X115149285Y-122341190D01*
X115482619Y-122341190D02*
X115435000Y-122293571D01*
X115387380Y-122341190D01*
X115435000Y-122388809D01*
X115482619Y-122341190D01*
X115387380Y-122341190D01*
X115149285Y-123245952D02*
X114482619Y-123245952D01*
X115149285Y-122817380D02*
X114625476Y-122817380D01*
X114530238Y-122865000D01*
X114482619Y-122960238D01*
X114482619Y-123103095D01*
X114530238Y-123198333D01*
X114577857Y-123245952D01*
X114482619Y-123722142D02*
X115149285Y-123722142D01*
X115054047Y-123722142D02*
X115101666Y-123769761D01*
X115149285Y-123865000D01*
X115149285Y-124007857D01*
X115101666Y-124103095D01*
X115006428Y-124150714D01*
X114482619Y-124150714D01*
X115006428Y-124150714D02*
X115101666Y-124198333D01*
X115149285Y-124293571D01*
X115149285Y-124436428D01*
X115101666Y-124531666D01*
X115006428Y-124579285D01*
X114482619Y-124579285D01*
X114577857Y-126388809D02*
X114530238Y-126341190D01*
X114482619Y-126198333D01*
X114482619Y-126103095D01*
X114530238Y-125960238D01*
X114625476Y-125865000D01*
X114720714Y-125817380D01*
X114911190Y-125769761D01*
X115054047Y-125769761D01*
X115244523Y-125817380D01*
X115339761Y-125865000D01*
X115435000Y-125960238D01*
X115482619Y-126103095D01*
X115482619Y-126198333D01*
X115435000Y-126341190D01*
X115387380Y-126388809D01*
X114482619Y-126960238D02*
X114530238Y-126865000D01*
X114577857Y-126817380D01*
X114673095Y-126769761D01*
X114958809Y-126769761D01*
X115054047Y-126817380D01*
X115101666Y-126865000D01*
X115149285Y-126960238D01*
X115149285Y-127103095D01*
X115101666Y-127198333D01*
X115054047Y-127245952D01*
X114958809Y-127293571D01*
X114673095Y-127293571D01*
X114577857Y-127245952D01*
X114530238Y-127198333D01*
X114482619Y-127103095D01*
X114482619Y-126960238D01*
X115149285Y-127722142D02*
X114482619Y-127722142D01*
X115054047Y-127722142D02*
X115101666Y-127769761D01*
X115149285Y-127865000D01*
X115149285Y-128007857D01*
X115101666Y-128103095D01*
X115006428Y-128150714D01*
X114482619Y-128150714D01*
X115149285Y-128626904D02*
X114482619Y-128626904D01*
X115054047Y-128626904D02*
X115101666Y-128674523D01*
X115149285Y-128769761D01*
X115149285Y-128912619D01*
X115101666Y-129007857D01*
X115006428Y-129055476D01*
X114482619Y-129055476D01*
X114530238Y-129912619D02*
X114482619Y-129817380D01*
X114482619Y-129626904D01*
X114530238Y-129531666D01*
X114625476Y-129484047D01*
X115006428Y-129484047D01*
X115101666Y-129531666D01*
X115149285Y-129626904D01*
X115149285Y-129817380D01*
X115101666Y-129912619D01*
X115006428Y-129960238D01*
X114911190Y-129960238D01*
X114815952Y-129484047D01*
X114530238Y-130817380D02*
X114482619Y-130722142D01*
X114482619Y-130531666D01*
X114530238Y-130436428D01*
X114577857Y-130388809D01*
X114673095Y-130341190D01*
X114958809Y-130341190D01*
X115054047Y-130388809D01*
X115101666Y-130436428D01*
X115149285Y-130531666D01*
X115149285Y-130722142D01*
X115101666Y-130817380D01*
X115149285Y-131103095D02*
X115149285Y-131484047D01*
X115482619Y-131245952D02*
X114625476Y-131245952D01*
X114530238Y-131293571D01*
X114482619Y-131388809D01*
X114482619Y-131484047D01*
X114482619Y-131960238D02*
X114530238Y-131865000D01*
X114577857Y-131817380D01*
X114673095Y-131769761D01*
X114958809Y-131769761D01*
X115054047Y-131817380D01*
X115101666Y-131865000D01*
X115149285Y-131960238D01*
X115149285Y-132103095D01*
X115101666Y-132198333D01*
X115054047Y-132245952D01*
X114958809Y-132293571D01*
X114673095Y-132293571D01*
X114577857Y-132245952D01*
X114530238Y-132198333D01*
X114482619Y-132103095D01*
X114482619Y-131960238D01*
X114482619Y-132722142D02*
X115149285Y-132722142D01*
X114958809Y-132722142D02*
X115054047Y-132769761D01*
X115101666Y-132817380D01*
X115149285Y-132912619D01*
X115149285Y-133007857D01*
X145589761Y-96972380D02*
X145589761Y-95972380D01*
X146065952Y-96972380D02*
X146065952Y-95972380D01*
X146399285Y-96686666D01*
X146732619Y-95972380D01*
X146732619Y-96972380D01*
X147208809Y-95972380D02*
X147208809Y-96781904D01*
X147256428Y-96877142D01*
X147304047Y-96924761D01*
X147399285Y-96972380D01*
X147589761Y-96972380D01*
X147685000Y-96924761D01*
X147732619Y-96877142D01*
X147780238Y-96781904D01*
X147780238Y-95972380D01*
X138414761Y-143772380D02*
X138414761Y-142772380D01*
X138795714Y-142772380D01*
X138890952Y-142820000D01*
X138938571Y-142867619D01*
X138986190Y-142962857D01*
X138986190Y-143105714D01*
X138938571Y-143200952D01*
X138890952Y-143248571D01*
X138795714Y-143296190D01*
X138414761Y-143296190D01*
X139414761Y-143772380D02*
X139414761Y-143105714D01*
X139414761Y-143296190D02*
X139462380Y-143200952D01*
X139510000Y-143153333D01*
X139605238Y-143105714D01*
X139700476Y-143105714D01*
X140176666Y-143772380D02*
X140081428Y-143724761D01*
X140033809Y-143677142D01*
X139986190Y-143581904D01*
X139986190Y-143296190D01*
X140033809Y-143200952D01*
X140081428Y-143153333D01*
X140176666Y-143105714D01*
X140319523Y-143105714D01*
X140414761Y-143153333D01*
X140462380Y-143200952D01*
X140510000Y-143296190D01*
X140510000Y-143581904D01*
X140462380Y-143677142D01*
X140414761Y-143724761D01*
X140319523Y-143772380D01*
X140176666Y-143772380D01*
X141367142Y-143105714D02*
X141367142Y-143915238D01*
X141319523Y-144010476D01*
X141271904Y-144058095D01*
X141176666Y-144105714D01*
X141033809Y-144105714D01*
X140938571Y-144058095D01*
X141367142Y-143724761D02*
X141271904Y-143772380D01*
X141081428Y-143772380D01*
X140986190Y-143724761D01*
X140938571Y-143677142D01*
X140890952Y-143581904D01*
X140890952Y-143296190D01*
X140938571Y-143200952D01*
X140986190Y-143153333D01*
X141081428Y-143105714D01*
X141271904Y-143105714D01*
X141367142Y-143153333D01*
X141843333Y-143772380D02*
X141843333Y-143105714D01*
X141843333Y-143296190D02*
X141890952Y-143200952D01*
X141938571Y-143153333D01*
X142033809Y-143105714D01*
X142129047Y-143105714D01*
X142890952Y-143772380D02*
X142890952Y-143248571D01*
X142843333Y-143153333D01*
X142748095Y-143105714D01*
X142557619Y-143105714D01*
X142462380Y-143153333D01*
X142890952Y-143724761D02*
X142795714Y-143772380D01*
X142557619Y-143772380D01*
X142462380Y-143724761D01*
X142414761Y-143629523D01*
X142414761Y-143534285D01*
X142462380Y-143439047D01*
X142557619Y-143391428D01*
X142795714Y-143391428D01*
X142890952Y-143343809D01*
X143367142Y-143772380D02*
X143367142Y-143105714D01*
X143367142Y-143200952D02*
X143414761Y-143153333D01*
X143510000Y-143105714D01*
X143652857Y-143105714D01*
X143748095Y-143153333D01*
X143795714Y-143248571D01*
X143795714Y-143772380D01*
X143795714Y-143248571D02*
X143843333Y-143153333D01*
X143938571Y-143105714D01*
X144081428Y-143105714D01*
X144176666Y-143153333D01*
X144224285Y-143248571D01*
X144224285Y-143772380D01*
X144700476Y-143772380D02*
X144700476Y-143105714D01*
X144700476Y-143200952D02*
X144748095Y-143153333D01*
X144843333Y-143105714D01*
X144986190Y-143105714D01*
X145081428Y-143153333D01*
X145129047Y-143248571D01*
X145129047Y-143772380D01*
X145129047Y-143248571D02*
X145176666Y-143153333D01*
X145271904Y-143105714D01*
X145414761Y-143105714D01*
X145510000Y-143153333D01*
X145557619Y-143248571D01*
X145557619Y-143772380D01*
X146033809Y-143772380D02*
X146033809Y-143105714D01*
X146033809Y-142772380D02*
X145986190Y-142820000D01*
X146033809Y-142867619D01*
X146081428Y-142820000D01*
X146033809Y-142772380D01*
X146033809Y-142867619D01*
X146510000Y-143105714D02*
X146510000Y-143772380D01*
X146510000Y-143200952D02*
X146557619Y-143153333D01*
X146652857Y-143105714D01*
X146795714Y-143105714D01*
X146890952Y-143153333D01*
X146938571Y-143248571D01*
X146938571Y-143772380D01*
X147843333Y-143105714D02*
X147843333Y-143915238D01*
X147795714Y-144010476D01*
X147748095Y-144058095D01*
X147652857Y-144105714D01*
X147510000Y-144105714D01*
X147414761Y-144058095D01*
X147843333Y-143724761D02*
X147748095Y-143772380D01*
X147557619Y-143772380D01*
X147462380Y-143724761D01*
X147414761Y-143677142D01*
X147367142Y-143581904D01*
X147367142Y-143296190D01*
X147414761Y-143200952D01*
X147462380Y-143153333D01*
X147557619Y-143105714D01*
X147748095Y-143105714D01*
X147843333Y-143153333D01*
X139271904Y-144422380D02*
X139271904Y-145231904D01*
X139319523Y-145327142D01*
X139367142Y-145374761D01*
X139462380Y-145422380D01*
X139652857Y-145422380D01*
X139748095Y-145374761D01*
X139795714Y-145327142D01*
X139843333Y-145231904D01*
X139843333Y-144422380D01*
X140271904Y-145374761D02*
X140414761Y-145422380D01*
X140652857Y-145422380D01*
X140748095Y-145374761D01*
X140795714Y-145327142D01*
X140843333Y-145231904D01*
X140843333Y-145136666D01*
X140795714Y-145041428D01*
X140748095Y-144993809D01*
X140652857Y-144946190D01*
X140462380Y-144898571D01*
X140367142Y-144850952D01*
X140319523Y-144803333D01*
X140271904Y-144708095D01*
X140271904Y-144612857D01*
X140319523Y-144517619D01*
X140367142Y-144470000D01*
X140462380Y-144422380D01*
X140700476Y-144422380D01*
X140843333Y-144470000D01*
X141605238Y-144898571D02*
X141748095Y-144946190D01*
X141795714Y-144993809D01*
X141843333Y-145089047D01*
X141843333Y-145231904D01*
X141795714Y-145327142D01*
X141748095Y-145374761D01*
X141652857Y-145422380D01*
X141271904Y-145422380D01*
X141271904Y-144422380D01*
X141605238Y-144422380D01*
X141700476Y-144470000D01*
X141748095Y-144517619D01*
X141795714Y-144612857D01*
X141795714Y-144708095D01*
X141748095Y-144803333D01*
X141700476Y-144850952D01*
X141605238Y-144898571D01*
X141271904Y-144898571D01*
X143033809Y-145422380D02*
X143033809Y-144422380D01*
X143033809Y-144898571D02*
X143605238Y-144898571D01*
X143605238Y-145422380D02*
X143605238Y-144422380D01*
X144462380Y-145374761D02*
X144367142Y-145422380D01*
X144176666Y-145422380D01*
X144081428Y-145374761D01*
X144033809Y-145279523D01*
X144033809Y-144898571D01*
X144081428Y-144803333D01*
X144176666Y-144755714D01*
X144367142Y-144755714D01*
X144462380Y-144803333D01*
X144510000Y-144898571D01*
X144510000Y-144993809D01*
X144033809Y-145089047D01*
X145367142Y-145422380D02*
X145367142Y-144898571D01*
X145319523Y-144803333D01*
X145224285Y-144755714D01*
X145033809Y-144755714D01*
X144938571Y-144803333D01*
X145367142Y-145374761D02*
X145271904Y-145422380D01*
X145033809Y-145422380D01*
X144938571Y-145374761D01*
X144890952Y-145279523D01*
X144890952Y-145184285D01*
X144938571Y-145089047D01*
X145033809Y-145041428D01*
X145271904Y-145041428D01*
X145367142Y-144993809D01*
X146271904Y-145422380D02*
X146271904Y-144422380D01*
X146271904Y-145374761D02*
X146176666Y-145422380D01*
X145986190Y-145422380D01*
X145890952Y-145374761D01*
X145843333Y-145327142D01*
X145795714Y-145231904D01*
X145795714Y-144946190D01*
X145843333Y-144850952D01*
X145890952Y-144803333D01*
X145986190Y-144755714D01*
X146176666Y-144755714D01*
X146271904Y-144803333D01*
X147129047Y-145374761D02*
X147033809Y-145422380D01*
X146843333Y-145422380D01*
X146748095Y-145374761D01*
X146700476Y-145279523D01*
X146700476Y-144898571D01*
X146748095Y-144803333D01*
X146843333Y-144755714D01*
X147033809Y-144755714D01*
X147129047Y-144803333D01*
X147176666Y-144898571D01*
X147176666Y-144993809D01*
X146700476Y-145089047D01*
X147605238Y-145422380D02*
X147605238Y-144755714D01*
X147605238Y-144946190D02*
X147652857Y-144850952D01*
X147700476Y-144803333D01*
X147795714Y-144755714D01*
X147890952Y-144755714D01*
X111037619Y-109577809D02*
X111037619Y-110149238D01*
X110037619Y-109863523D02*
X111037619Y-109863523D01*
X110037619Y-110482571D02*
X111037619Y-110482571D01*
X110561428Y-110482571D02*
X110561428Y-111054000D01*
X110037619Y-111054000D02*
X111037619Y-111054000D01*
X110037619Y-111530190D02*
X111037619Y-111530190D01*
X110085238Y-111958761D02*
X110037619Y-112101619D01*
X110037619Y-112339714D01*
X110085238Y-112434952D01*
X110132857Y-112482571D01*
X110228095Y-112530190D01*
X110323333Y-112530190D01*
X110418571Y-112482571D01*
X110466190Y-112434952D01*
X110513809Y-112339714D01*
X110561428Y-112149238D01*
X110609047Y-112054000D01*
X110656666Y-112006380D01*
X110751904Y-111958761D01*
X110847142Y-111958761D01*
X110942380Y-112006380D01*
X110990000Y-112054000D01*
X111037619Y-112149238D01*
X111037619Y-112387333D01*
X110990000Y-112530190D01*
X110085238Y-113673047D02*
X110037619Y-113815904D01*
X110037619Y-114054000D01*
X110085238Y-114149238D01*
X110132857Y-114196857D01*
X110228095Y-114244476D01*
X110323333Y-114244476D01*
X110418571Y-114196857D01*
X110466190Y-114149238D01*
X110513809Y-114054000D01*
X110561428Y-113863523D01*
X110609047Y-113768285D01*
X110656666Y-113720666D01*
X110751904Y-113673047D01*
X110847142Y-113673047D01*
X110942380Y-113720666D01*
X110990000Y-113768285D01*
X111037619Y-113863523D01*
X111037619Y-114101619D01*
X110990000Y-114244476D01*
X110037619Y-114673047D02*
X111037619Y-114673047D01*
X110037619Y-115149238D02*
X111037619Y-115149238D01*
X111037619Y-115387333D01*
X110990000Y-115530190D01*
X110894761Y-115625428D01*
X110799523Y-115673047D01*
X110609047Y-115720666D01*
X110466190Y-115720666D01*
X110275714Y-115673047D01*
X110180476Y-115625428D01*
X110085238Y-115530190D01*
X110037619Y-115387333D01*
X110037619Y-115149238D01*
X110561428Y-116149238D02*
X110561428Y-116482571D01*
X110037619Y-116625428D02*
X110037619Y-116149238D01*
X111037619Y-116149238D01*
X111037619Y-116625428D01*
X111037619Y-117815904D02*
X110228095Y-117815904D01*
X110132857Y-117863523D01*
X110085238Y-117911142D01*
X110037619Y-118006380D01*
X110037619Y-118196857D01*
X110085238Y-118292095D01*
X110132857Y-118339714D01*
X110228095Y-118387333D01*
X111037619Y-118387333D01*
X110037619Y-118863523D02*
X111037619Y-118863523D01*
X111037619Y-119244476D01*
X110990000Y-119339714D01*
X110942380Y-119387333D01*
X110847142Y-119434952D01*
X110704285Y-119434952D01*
X110609047Y-119387333D01*
X110561428Y-119339714D01*
X110513809Y-119244476D01*
X110513809Y-118863523D01*
X187786571Y-134379642D02*
X187786571Y-133522500D01*
X189286571Y-133951071D02*
X187786571Y-133951071D01*
X187786571Y-132593928D02*
X188858000Y-132593928D01*
X189072285Y-132665357D01*
X189215142Y-132808214D01*
X189286571Y-133022500D01*
X189286571Y-133165357D01*
X189286571Y-129879642D02*
X188572285Y-130379642D01*
X189286571Y-130736785D02*
X187786571Y-130736785D01*
X187786571Y-130165357D01*
X187858000Y-130022500D01*
X187929428Y-129951071D01*
X188072285Y-129879642D01*
X188286571Y-129879642D01*
X188429428Y-129951071D01*
X188500857Y-130022500D01*
X188572285Y-130165357D01*
X188572285Y-130736785D01*
X188500857Y-129236785D02*
X188500857Y-128736785D01*
X189286571Y-128522500D02*
X189286571Y-129236785D01*
X187786571Y-129236785D01*
X187786571Y-128522500D01*
X187786571Y-128093928D02*
X189286571Y-127593928D01*
X187786571Y-127093928D01*
X188500857Y-126593928D02*
X188500857Y-126093928D01*
X189286571Y-125879642D02*
X189286571Y-126593928D01*
X187786571Y-126593928D01*
X187786571Y-125879642D01*
X189286571Y-124379642D02*
X188572285Y-124879642D01*
X189286571Y-125236785D02*
X187786571Y-125236785D01*
X187786571Y-124665357D01*
X187858000Y-124522500D01*
X187929428Y-124451071D01*
X188072285Y-124379642D01*
X188286571Y-124379642D01*
X188429428Y-124451071D01*
X188500857Y-124522500D01*
X188572285Y-124665357D01*
X188572285Y-125236785D01*
X188500857Y-123236785D02*
X188572285Y-123022500D01*
X188643714Y-122951071D01*
X188786571Y-122879642D01*
X189000857Y-122879642D01*
X189143714Y-122951071D01*
X189215142Y-123022500D01*
X189286571Y-123165357D01*
X189286571Y-123736785D01*
X187786571Y-123736785D01*
X187786571Y-123236785D01*
X187858000Y-123093928D01*
X187929428Y-123022500D01*
X188072285Y-122951071D01*
X188215142Y-122951071D01*
X188358000Y-123022500D01*
X188429428Y-123093928D01*
X188500857Y-123236785D01*
X188500857Y-123736785D01*
X189286571Y-121093928D02*
X187786571Y-121093928D01*
X189286571Y-120379642D02*
X187786571Y-120379642D01*
X189286571Y-119522500D01*
X187786571Y-119522500D01*
X187786571Y-119022500D02*
X187786571Y-118165357D01*
X189286571Y-118593928D02*
X187786571Y-118593928D01*
X188500857Y-117665357D02*
X188500857Y-117165357D01*
X189286571Y-116951071D02*
X189286571Y-117665357D01*
X187786571Y-117665357D01*
X187786571Y-116951071D01*
X189286571Y-115451071D02*
X188572285Y-115951071D01*
X189286571Y-116308214D02*
X187786571Y-116308214D01*
X187786571Y-115736785D01*
X187858000Y-115593928D01*
X187929428Y-115522500D01*
X188072285Y-115451071D01*
X188286571Y-115451071D01*
X188429428Y-115522500D01*
X188500857Y-115593928D01*
X188572285Y-115736785D01*
X188572285Y-116308214D01*
X188500857Y-114308214D02*
X188500857Y-114808214D01*
X189286571Y-114808214D02*
X187786571Y-114808214D01*
X187786571Y-114093928D01*
X188858000Y-113593928D02*
X188858000Y-112879642D01*
X189286571Y-113736785D02*
X187786571Y-113236785D01*
X189286571Y-112736785D01*
X189143714Y-111379642D02*
X189215142Y-111451071D01*
X189286571Y-111665357D01*
X189286571Y-111808214D01*
X189215142Y-112022500D01*
X189072285Y-112165357D01*
X188929428Y-112236785D01*
X188643714Y-112308214D01*
X188429428Y-112308214D01*
X188143714Y-112236785D01*
X188000857Y-112165357D01*
X187858000Y-112022500D01*
X187786571Y-111808214D01*
X187786571Y-111665357D01*
X187858000Y-111451071D01*
X187929428Y-111379642D01*
X188500857Y-110736785D02*
X188500857Y-110236785D01*
X189286571Y-110022500D02*
X189286571Y-110736785D01*
X187786571Y-110736785D01*
X187786571Y-110022500D01*
X188500857Y-107736785D02*
X188572285Y-107522500D01*
X188643714Y-107451071D01*
X188786571Y-107379642D01*
X189000857Y-107379642D01*
X189143714Y-107451071D01*
X189215142Y-107522500D01*
X189286571Y-107665357D01*
X189286571Y-108236785D01*
X187786571Y-108236785D01*
X187786571Y-107736785D01*
X187858000Y-107593928D01*
X187929428Y-107522500D01*
X188072285Y-107451071D01*
X188215142Y-107451071D01*
X188358000Y-107522500D01*
X188429428Y-107593928D01*
X188500857Y-107736785D01*
X188500857Y-108236785D01*
X187786571Y-106451071D02*
X187786571Y-106165357D01*
X187858000Y-106022500D01*
X188000857Y-105879642D01*
X188286571Y-105808214D01*
X188786571Y-105808214D01*
X189072285Y-105879642D01*
X189215142Y-106022500D01*
X189286571Y-106165357D01*
X189286571Y-106451071D01*
X189215142Y-106593928D01*
X189072285Y-106736785D01*
X188786571Y-106808214D01*
X188286571Y-106808214D01*
X188000857Y-106736785D01*
X187858000Y-106593928D01*
X187786571Y-106451071D01*
X188858000Y-105236785D02*
X188858000Y-104522500D01*
X189286571Y-105379642D02*
X187786571Y-104879642D01*
X189286571Y-104379642D01*
X189286571Y-103022500D02*
X188572285Y-103522500D01*
X189286571Y-103879642D02*
X187786571Y-103879642D01*
X187786571Y-103308214D01*
X187858000Y-103165357D01*
X187929428Y-103093928D01*
X188072285Y-103022500D01*
X188286571Y-103022500D01*
X188429428Y-103093928D01*
X188500857Y-103165357D01*
X188572285Y-103308214D01*
X188572285Y-103879642D01*
X189286571Y-102379642D02*
X187786571Y-102379642D01*
X187786571Y-102022500D01*
X187858000Y-101808214D01*
X188000857Y-101665357D01*
X188143714Y-101593928D01*
X188429428Y-101522500D01*
X188643714Y-101522500D01*
X188929428Y-101593928D01*
X189072285Y-101665357D01*
X189215142Y-101808214D01*
X189286571Y-102022500D01*
X189286571Y-102379642D01*
X191686571Y-133308214D02*
X190972285Y-133808214D01*
X191686571Y-134165357D02*
X190186571Y-134165357D01*
X190186571Y-133593928D01*
X190258000Y-133451071D01*
X190329428Y-133379642D01*
X190472285Y-133308214D01*
X190686571Y-133308214D01*
X190829428Y-133379642D01*
X190900857Y-133451071D01*
X190972285Y-133593928D01*
X190972285Y-134165357D01*
X191615142Y-132093928D02*
X191686571Y-132236785D01*
X191686571Y-132522500D01*
X191615142Y-132665357D01*
X191472285Y-132736785D01*
X190900857Y-132736785D01*
X190758000Y-132665357D01*
X190686571Y-132522500D01*
X190686571Y-132236785D01*
X190758000Y-132093928D01*
X190900857Y-132022500D01*
X191043714Y-132022500D01*
X191186571Y-132736785D01*
X191686571Y-130736785D02*
X190186571Y-130736785D01*
X191615142Y-130736785D02*
X191686571Y-130879642D01*
X191686571Y-131165357D01*
X191615142Y-131308214D01*
X191543714Y-131379642D01*
X191400857Y-131451071D01*
X190972285Y-131451071D01*
X190829428Y-131379642D01*
X190758000Y-131308214D01*
X190686571Y-131165357D01*
X190686571Y-130879642D01*
X190758000Y-130736785D01*
X191615142Y-129451071D02*
X191686571Y-129593928D01*
X191686571Y-129879642D01*
X191615142Y-130022500D01*
X191472285Y-130093928D01*
X190900857Y-130093928D01*
X190758000Y-130022500D01*
X190686571Y-129879642D01*
X190686571Y-129593928D01*
X190758000Y-129451071D01*
X190900857Y-129379642D01*
X191043714Y-129379642D01*
X191186571Y-130093928D01*
X191615142Y-128808214D02*
X191686571Y-128665357D01*
X191686571Y-128379642D01*
X191615142Y-128236785D01*
X191472285Y-128165357D01*
X191400857Y-128165357D01*
X191258000Y-128236785D01*
X191186571Y-128379642D01*
X191186571Y-128593928D01*
X191115142Y-128736785D01*
X190972285Y-128808214D01*
X190900857Y-128808214D01*
X190758000Y-128736785D01*
X190686571Y-128593928D01*
X190686571Y-128379642D01*
X190758000Y-128236785D01*
X191686571Y-127522500D02*
X190686571Y-127522500D01*
X190186571Y-127522500D02*
X190258000Y-127593928D01*
X190329428Y-127522500D01*
X190258000Y-127451071D01*
X190186571Y-127522500D01*
X190329428Y-127522500D01*
X190686571Y-126165357D02*
X191900857Y-126165357D01*
X192043714Y-126236785D01*
X192115142Y-126308214D01*
X192186571Y-126451071D01*
X192186571Y-126665357D01*
X192115142Y-126808214D01*
X191615142Y-126165357D02*
X191686571Y-126308214D01*
X191686571Y-126593928D01*
X191615142Y-126736785D01*
X191543714Y-126808214D01*
X191400857Y-126879642D01*
X190972285Y-126879642D01*
X190829428Y-126808214D01*
X190758000Y-126736785D01*
X190686571Y-126593928D01*
X190686571Y-126308214D01*
X190758000Y-126165357D01*
X190686571Y-125451071D02*
X191686571Y-125451071D01*
X190829428Y-125451071D02*
X190758000Y-125379642D01*
X190686571Y-125236785D01*
X190686571Y-125022500D01*
X190758000Y-124879642D01*
X190900857Y-124808214D01*
X191686571Y-124808214D01*
X190186571Y-122951071D02*
X191400857Y-122951071D01*
X191543714Y-122879642D01*
X191615142Y-122808214D01*
X191686571Y-122665357D01*
X191686571Y-122379642D01*
X191615142Y-122236785D01*
X191543714Y-122165357D01*
X191400857Y-122093928D01*
X190186571Y-122093928D01*
X191615142Y-121451071D02*
X191686571Y-121236785D01*
X191686571Y-120879642D01*
X191615142Y-120736785D01*
X191543714Y-120665357D01*
X191400857Y-120593928D01*
X191258000Y-120593928D01*
X191115142Y-120665357D01*
X191043714Y-120736785D01*
X190972285Y-120879642D01*
X190900857Y-121165357D01*
X190829428Y-121308214D01*
X190758000Y-121379642D01*
X190615142Y-121451071D01*
X190472285Y-121451071D01*
X190329428Y-121379642D01*
X190258000Y-121308214D01*
X190186571Y-121165357D01*
X190186571Y-120808214D01*
X190258000Y-120593928D01*
X190900857Y-119451071D02*
X190972285Y-119236785D01*
X191043714Y-119165357D01*
X191186571Y-119093928D01*
X191400857Y-119093928D01*
X191543714Y-119165357D01*
X191615142Y-119236785D01*
X191686571Y-119379642D01*
X191686571Y-119951071D01*
X190186571Y-119951071D01*
X190186571Y-119451071D01*
X190258000Y-119308214D01*
X190329428Y-119236785D01*
X190472285Y-119165357D01*
X190615142Y-119165357D01*
X190758000Y-119236785D01*
X190829428Y-119308214D01*
X190900857Y-119451071D01*
X190900857Y-119951071D01*
X190900857Y-116808214D02*
X190972285Y-116593928D01*
X191043714Y-116522500D01*
X191186571Y-116451071D01*
X191400857Y-116451071D01*
X191543714Y-116522500D01*
X191615142Y-116593928D01*
X191686571Y-116736785D01*
X191686571Y-117308214D01*
X190186571Y-117308214D01*
X190186571Y-116808214D01*
X190258000Y-116665357D01*
X190329428Y-116593928D01*
X190472285Y-116522500D01*
X190615142Y-116522500D01*
X190758000Y-116593928D01*
X190829428Y-116665357D01*
X190900857Y-116808214D01*
X190900857Y-117308214D01*
X191686571Y-115808214D02*
X190686571Y-115808214D01*
X190972285Y-115808214D02*
X190829428Y-115736785D01*
X190758000Y-115665357D01*
X190686571Y-115522500D01*
X190686571Y-115379642D01*
X191686571Y-114236785D02*
X190900857Y-114236785D01*
X190758000Y-114308214D01*
X190686571Y-114451071D01*
X190686571Y-114736785D01*
X190758000Y-114879642D01*
X191615142Y-114236785D02*
X191686571Y-114379642D01*
X191686571Y-114736785D01*
X191615142Y-114879642D01*
X191472285Y-114951071D01*
X191329428Y-114951071D01*
X191186571Y-114879642D01*
X191115142Y-114736785D01*
X191115142Y-114379642D01*
X191043714Y-114236785D01*
X190686571Y-113522500D02*
X191686571Y-113522500D01*
X190829428Y-113522500D02*
X190758000Y-113451071D01*
X190686571Y-113308214D01*
X190686571Y-113093928D01*
X190758000Y-112951071D01*
X190900857Y-112879642D01*
X191686571Y-112879642D01*
X191615142Y-111522500D02*
X191686571Y-111665357D01*
X191686571Y-111951071D01*
X191615142Y-112093928D01*
X191543714Y-112165357D01*
X191400857Y-112236785D01*
X190972285Y-112236785D01*
X190829428Y-112165357D01*
X190758000Y-112093928D01*
X190686571Y-111951071D01*
X190686571Y-111665357D01*
X190758000Y-111522500D01*
X191686571Y-110879642D02*
X190186571Y-110879642D01*
X191686571Y-110236785D02*
X190900857Y-110236785D01*
X190758000Y-110308214D01*
X190686571Y-110451071D01*
X190686571Y-110665357D01*
X190758000Y-110808214D01*
X190829428Y-110879642D01*
X194086571Y-134165357D02*
X192586571Y-134165357D01*
X192586571Y-133808214D01*
X192658000Y-133593928D01*
X192800857Y-133451071D01*
X192943714Y-133379642D01*
X193229428Y-133308214D01*
X193443714Y-133308214D01*
X193729428Y-133379642D01*
X193872285Y-133451071D01*
X194015142Y-133593928D01*
X194086571Y-133808214D01*
X194086571Y-134165357D01*
X194015142Y-132093928D02*
X194086571Y-132236785D01*
X194086571Y-132522500D01*
X194015142Y-132665357D01*
X193872285Y-132736785D01*
X193300857Y-132736785D01*
X193158000Y-132665357D01*
X193086571Y-132522500D01*
X193086571Y-132236785D01*
X193158000Y-132093928D01*
X193300857Y-132022500D01*
X193443714Y-132022500D01*
X193586571Y-132736785D01*
X194015142Y-131451071D02*
X194086571Y-131308214D01*
X194086571Y-131022500D01*
X194015142Y-130879642D01*
X193872285Y-130808214D01*
X193800857Y-130808214D01*
X193658000Y-130879642D01*
X193586571Y-131022500D01*
X193586571Y-131236785D01*
X193515142Y-131379642D01*
X193372285Y-131451071D01*
X193300857Y-131451071D01*
X193158000Y-131379642D01*
X193086571Y-131236785D01*
X193086571Y-131022500D01*
X193158000Y-130879642D01*
X194086571Y-130165357D02*
X193086571Y-130165357D01*
X192586571Y-130165357D02*
X192658000Y-130236785D01*
X192729428Y-130165357D01*
X192658000Y-130093928D01*
X192586571Y-130165357D01*
X192729428Y-130165357D01*
X193086571Y-128808214D02*
X194300857Y-128808214D01*
X194443714Y-128879642D01*
X194515142Y-128951071D01*
X194586571Y-129093928D01*
X194586571Y-129308214D01*
X194515142Y-129451071D01*
X194015142Y-128808214D02*
X194086571Y-128951071D01*
X194086571Y-129236785D01*
X194015142Y-129379642D01*
X193943714Y-129451071D01*
X193800857Y-129522500D01*
X193372285Y-129522500D01*
X193229428Y-129451071D01*
X193158000Y-129379642D01*
X193086571Y-129236785D01*
X193086571Y-128951071D01*
X193158000Y-128808214D01*
X193086571Y-128093928D02*
X194086571Y-128093928D01*
X193229428Y-128093928D02*
X193158000Y-128022500D01*
X193086571Y-127879642D01*
X193086571Y-127665357D01*
X193158000Y-127522500D01*
X193300857Y-127451071D01*
X194086571Y-127451071D01*
X194015142Y-126165357D02*
X194086571Y-126308214D01*
X194086571Y-126593928D01*
X194015142Y-126736785D01*
X193872285Y-126808214D01*
X193300857Y-126808214D01*
X193158000Y-126736785D01*
X193086571Y-126593928D01*
X193086571Y-126308214D01*
X193158000Y-126165357D01*
X193300857Y-126093928D01*
X193443714Y-126093928D01*
X193586571Y-126808214D01*
X194086571Y-124808214D02*
X192586571Y-124808214D01*
X194015142Y-124808214D02*
X194086571Y-124951071D01*
X194086571Y-125236785D01*
X194015142Y-125379642D01*
X193943714Y-125451071D01*
X193800857Y-125522500D01*
X193372285Y-125522500D01*
X193229428Y-125451071D01*
X193158000Y-125379642D01*
X193086571Y-125236785D01*
X193086571Y-124951071D01*
X193158000Y-124808214D01*
X194086571Y-122951071D02*
X192586571Y-122951071D01*
X193158000Y-122951071D02*
X193086571Y-122808214D01*
X193086571Y-122522500D01*
X193158000Y-122379642D01*
X193229428Y-122308214D01*
X193372285Y-122236785D01*
X193800857Y-122236785D01*
X193943714Y-122308214D01*
X194015142Y-122379642D01*
X194086571Y-122522500D01*
X194086571Y-122808214D01*
X194015142Y-122951071D01*
X193086571Y-121736785D02*
X194086571Y-121379642D01*
X193086571Y-121022500D02*
X194086571Y-121379642D01*
X194443714Y-121522500D01*
X194515142Y-121593928D01*
X194586571Y-121736785D01*
X193658000Y-119379642D02*
X193658000Y-118665357D01*
X194086571Y-119522500D02*
X192586571Y-119022500D01*
X194086571Y-118522500D01*
X194086571Y-117808214D02*
X194015142Y-117951071D01*
X193872285Y-118022500D01*
X192586571Y-118022500D01*
X194086571Y-116593928D02*
X193300857Y-116593928D01*
X193158000Y-116665357D01*
X193086571Y-116808214D01*
X193086571Y-117093928D01*
X193158000Y-117236785D01*
X194015142Y-116593928D02*
X194086571Y-116736785D01*
X194086571Y-117093928D01*
X194015142Y-117236785D01*
X193872285Y-117308214D01*
X193729428Y-117308214D01*
X193586571Y-117236785D01*
X193515142Y-117093928D01*
X193515142Y-116736785D01*
X193443714Y-116593928D01*
X193086571Y-115879642D02*
X194086571Y-115879642D01*
X193229428Y-115879642D02*
X193158000Y-115808214D01*
X193086571Y-115665357D01*
X193086571Y-115451071D01*
X193158000Y-115308214D01*
X193300857Y-115236785D01*
X194086571Y-115236785D01*
X194086571Y-113379642D02*
X192586571Y-113379642D01*
X193300857Y-113379642D02*
X193300857Y-112522500D01*
X194086571Y-112522500D02*
X192586571Y-112522500D01*
X194015142Y-111879642D02*
X194086571Y-111736785D01*
X194086571Y-111451071D01*
X194015142Y-111308214D01*
X193872285Y-111236785D01*
X193800857Y-111236785D01*
X193658000Y-111308214D01*
X193586571Y-111451071D01*
X193586571Y-111665357D01*
X193515142Y-111808214D01*
X193372285Y-111879642D01*
X193300857Y-111879642D01*
X193158000Y-111808214D01*
X193086571Y-111665357D01*
X193086571Y-111451071D01*
X193158000Y-111308214D01*
X193086571Y-109951071D02*
X194086571Y-109951071D01*
X193086571Y-110593928D02*
X193872285Y-110593928D01*
X194015142Y-110522500D01*
X194086571Y-110379642D01*
X194086571Y-110165357D01*
X194015142Y-110022500D01*
X193943714Y-109951071D01*
X194015142Y-109165357D02*
X194086571Y-109165357D01*
X194229428Y-109236785D01*
X194300857Y-109308214D01*
X193943714Y-106522500D02*
X194015142Y-106593928D01*
X194086571Y-106808214D01*
X194086571Y-106951071D01*
X194015142Y-107165357D01*
X193872285Y-107308214D01*
X193729428Y-107379642D01*
X193443714Y-107451071D01*
X193229428Y-107451071D01*
X192943714Y-107379642D01*
X192800857Y-107308214D01*
X192658000Y-107165357D01*
X192586571Y-106951071D01*
X192586571Y-106808214D01*
X192658000Y-106593928D01*
X192729428Y-106522500D01*
X194086571Y-105665357D02*
X194015142Y-105808214D01*
X193872285Y-105879642D01*
X192586571Y-105879642D01*
X194086571Y-104451071D02*
X193300857Y-104451071D01*
X193158000Y-104522500D01*
X193086571Y-104665357D01*
X193086571Y-104951071D01*
X193158000Y-105093928D01*
X194015142Y-104451071D02*
X194086571Y-104593928D01*
X194086571Y-104951071D01*
X194015142Y-105093928D01*
X193872285Y-105165357D01*
X193729428Y-105165357D01*
X193586571Y-105093928D01*
X193515142Y-104951071D01*
X193515142Y-104593928D01*
X193443714Y-104451071D01*
X194015142Y-103808214D02*
X194086571Y-103665357D01*
X194086571Y-103379642D01*
X194015142Y-103236785D01*
X193872285Y-103165357D01*
X193800857Y-103165357D01*
X193658000Y-103236785D01*
X193586571Y-103379642D01*
X193586571Y-103593928D01*
X193515142Y-103736785D01*
X193372285Y-103808214D01*
X193300857Y-103808214D01*
X193158000Y-103736785D01*
X193086571Y-103593928D01*
X193086571Y-103379642D01*
X193158000Y-103236785D01*
X194015142Y-102593928D02*
X194086571Y-102451071D01*
X194086571Y-102165357D01*
X194015142Y-102022500D01*
X193872285Y-101951071D01*
X193800857Y-101951071D01*
X193658000Y-102022500D01*
X193586571Y-102165357D01*
X193586571Y-102379642D01*
X193515142Y-102522500D01*
X193372285Y-102593928D01*
X193300857Y-102593928D01*
X193158000Y-102522500D01*
X193086571Y-102379642D01*
X193086571Y-102165357D01*
X193158000Y-102022500D01*
X194086571Y-99951071D02*
X194015142Y-100093928D01*
X193943714Y-100165357D01*
X193800857Y-100236785D01*
X193372285Y-100236785D01*
X193229428Y-100165357D01*
X193158000Y-100093928D01*
X193086571Y-99951071D01*
X193086571Y-99736785D01*
X193158000Y-99593928D01*
X193229428Y-99522500D01*
X193372285Y-99451071D01*
X193800857Y-99451071D01*
X193943714Y-99522500D01*
X194015142Y-99593928D01*
X194086571Y-99736785D01*
X194086571Y-99951071D01*
X193086571Y-99022500D02*
X193086571Y-98451071D01*
X194086571Y-98808214D02*
X192800857Y-98808214D01*
X192658000Y-98736785D01*
X192586571Y-98593928D01*
X192586571Y-98451071D01*
X192586571Y-96736785D02*
X192872285Y-96879642D01*
X192729428Y-96165357D02*
X192658000Y-96093928D01*
X192586571Y-95951071D01*
X192586571Y-95593928D01*
X192658000Y-95451071D01*
X192729428Y-95379642D01*
X192872285Y-95308214D01*
X193015142Y-95308214D01*
X193229428Y-95379642D01*
X194086571Y-96236785D01*
X194086571Y-95308214D01*
X192586571Y-94808214D02*
X192586571Y-93879642D01*
X193158000Y-94379642D01*
X193158000Y-94165357D01*
X193229428Y-94022500D01*
X193300857Y-93951071D01*
X193443714Y-93879642D01*
X193800857Y-93879642D01*
X193943714Y-93951071D01*
X194015142Y-94022500D01*
X194086571Y-94165357D01*
X194086571Y-94593928D01*
X194015142Y-94736785D01*
X193943714Y-94808214D01*
X125833333Y-132008571D02*
X125976190Y-132056190D01*
X126023809Y-132103809D01*
X126071428Y-132199047D01*
X126071428Y-132341904D01*
X126023809Y-132437142D01*
X125976190Y-132484761D01*
X125880952Y-132532380D01*
X125500000Y-132532380D01*
X125500000Y-131532380D01*
X125833333Y-131532380D01*
X125928571Y-131580000D01*
X125976190Y-131627619D01*
X126023809Y-131722857D01*
X126023809Y-131818095D01*
X125976190Y-131913333D01*
X125928571Y-131960952D01*
X125833333Y-132008571D01*
X125500000Y-132008571D01*
X126452380Y-132246666D02*
X126928571Y-132246666D01*
X126357142Y-132532380D02*
X126690476Y-131532380D01*
X127023809Y-132532380D01*
X127214285Y-131532380D02*
X127785714Y-131532380D01*
X127500000Y-132532380D02*
X127500000Y-131532380D01*
X127976190Y-131532380D02*
X128309523Y-132532380D01*
X128642857Y-131532380D01*
X126238095Y-129040000D02*
X126142857Y-128992380D01*
X126000000Y-128992380D01*
X125857142Y-129040000D01*
X125761904Y-129135238D01*
X125714285Y-129230476D01*
X125666666Y-129420952D01*
X125666666Y-129563809D01*
X125714285Y-129754285D01*
X125761904Y-129849523D01*
X125857142Y-129944761D01*
X126000000Y-129992380D01*
X126095238Y-129992380D01*
X126238095Y-129944761D01*
X126285714Y-129897142D01*
X126285714Y-129563809D01*
X126095238Y-129563809D01*
X126714285Y-129992380D02*
X126714285Y-128992380D01*
X127285714Y-129992380D01*
X127285714Y-128992380D01*
X127761904Y-129992380D02*
X127761904Y-128992380D01*
X128000000Y-128992380D01*
X128142857Y-129040000D01*
X128238095Y-129135238D01*
X128285714Y-129230476D01*
X128333333Y-129420952D01*
X128333333Y-129563809D01*
X128285714Y-129754285D01*
X128238095Y-129849523D01*
X128142857Y-129944761D01*
X128000000Y-129992380D01*
X127761904Y-129992380D01*
X125603095Y-121372380D02*
X126174523Y-121372380D01*
X125888809Y-122372380D02*
X125888809Y-121372380D01*
X126412619Y-121372380D02*
X127079285Y-122372380D01*
X127079285Y-121372380D02*
X126412619Y-122372380D01*
X126198333Y-119832380D02*
X125865000Y-119356190D01*
X125626904Y-119832380D02*
X125626904Y-118832380D01*
X126007857Y-118832380D01*
X126103095Y-118880000D01*
X126150714Y-118927619D01*
X126198333Y-119022857D01*
X126198333Y-119165714D01*
X126150714Y-119260952D01*
X126103095Y-119308571D01*
X126007857Y-119356190D01*
X125626904Y-119356190D01*
X126531666Y-118832380D02*
X127198333Y-119832380D01*
X127198333Y-118832380D02*
X126531666Y-119832380D01*
X125833333Y-105338571D02*
X125976190Y-105386190D01*
X126023809Y-105433809D01*
X126071428Y-105529047D01*
X126071428Y-105671904D01*
X126023809Y-105767142D01*
X125976190Y-105814761D01*
X125880952Y-105862380D01*
X125500000Y-105862380D01*
X125500000Y-104862380D01*
X125833333Y-104862380D01*
X125928571Y-104910000D01*
X125976190Y-104957619D01*
X126023809Y-105052857D01*
X126023809Y-105148095D01*
X125976190Y-105243333D01*
X125928571Y-105290952D01*
X125833333Y-105338571D01*
X125500000Y-105338571D01*
X126452380Y-105576666D02*
X126928571Y-105576666D01*
X126357142Y-105862380D02*
X126690476Y-104862380D01*
X127023809Y-105862380D01*
X127214285Y-104862380D02*
X127785714Y-104862380D01*
X127500000Y-105862380D02*
X127500000Y-104862380D01*
X127976190Y-104862380D02*
X128309523Y-105862380D01*
X128642857Y-104862380D01*
X126238095Y-102370000D02*
X126142857Y-102322380D01*
X126000000Y-102322380D01*
X125857142Y-102370000D01*
X125761904Y-102465238D01*
X125714285Y-102560476D01*
X125666666Y-102750952D01*
X125666666Y-102893809D01*
X125714285Y-103084285D01*
X125761904Y-103179523D01*
X125857142Y-103274761D01*
X126000000Y-103322380D01*
X126095238Y-103322380D01*
X126238095Y-103274761D01*
X126285714Y-103227142D01*
X126285714Y-102893809D01*
X126095238Y-102893809D01*
X126714285Y-103322380D02*
X126714285Y-102322380D01*
X127285714Y-103322380D01*
X127285714Y-102322380D01*
X127761904Y-103322380D02*
X127761904Y-102322380D01*
X128000000Y-102322380D01*
X128142857Y-102370000D01*
X128238095Y-102465238D01*
X128285714Y-102560476D01*
X128333333Y-102750952D01*
X128333333Y-102893809D01*
X128285714Y-103084285D01*
X128238095Y-103179523D01*
X128142857Y-103274761D01*
X128000000Y-103322380D01*
X127761904Y-103322380D01*
X125603095Y-89622380D02*
X126174523Y-89622380D01*
X125888809Y-90622380D02*
X125888809Y-89622380D01*
X126412619Y-89622380D02*
X127079285Y-90622380D01*
X127079285Y-89622380D02*
X126412619Y-90622380D01*
X126198333Y-88082380D02*
X125865000Y-87606190D01*
X125626904Y-88082380D02*
X125626904Y-87082380D01*
X126007857Y-87082380D01*
X126103095Y-87130000D01*
X126150714Y-87177619D01*
X126198333Y-87272857D01*
X126198333Y-87415714D01*
X126150714Y-87510952D01*
X126103095Y-87558571D01*
X126007857Y-87606190D01*
X125626904Y-87606190D01*
X126531666Y-87082380D02*
X127198333Y-88082380D01*
X127198333Y-87082380D02*
X126531666Y-88082380D01*
X170478571Y-68268809D02*
X170592857Y-68306904D01*
X170783333Y-68306904D01*
X170859523Y-68268809D01*
X170897619Y-68230714D01*
X170935714Y-68154523D01*
X170935714Y-68078333D01*
X170897619Y-68002142D01*
X170859523Y-67964047D01*
X170783333Y-67925952D01*
X170630952Y-67887857D01*
X170554761Y-67849761D01*
X170516666Y-67811666D01*
X170478571Y-67735476D01*
X170478571Y-67659285D01*
X170516666Y-67583095D01*
X170554761Y-67545000D01*
X170630952Y-67506904D01*
X170821428Y-67506904D01*
X170935714Y-67545000D01*
X171278571Y-68306904D02*
X171278571Y-67506904D01*
X171469047Y-67506904D01*
X171583333Y-67545000D01*
X171659523Y-67621190D01*
X171697619Y-67697380D01*
X171735714Y-67849761D01*
X171735714Y-67964047D01*
X171697619Y-68116428D01*
X171659523Y-68192619D01*
X171583333Y-68268809D01*
X171469047Y-68306904D01*
X171278571Y-68306904D01*
X172040476Y-68078333D02*
X172421428Y-68078333D01*
X171964285Y-68306904D02*
X172230952Y-67506904D01*
X172497619Y-68306904D01*
X173037619Y-68268809D02*
X173151904Y-68306904D01*
X173342380Y-68306904D01*
X173418571Y-68268809D01*
X173456666Y-68230714D01*
X173494761Y-68154523D01*
X173494761Y-68078333D01*
X173456666Y-68002142D01*
X173418571Y-67964047D01*
X173342380Y-67925952D01*
X173190000Y-67887857D01*
X173113809Y-67849761D01*
X173075714Y-67811666D01*
X173037619Y-67735476D01*
X173037619Y-67659285D01*
X173075714Y-67583095D01*
X173113809Y-67545000D01*
X173190000Y-67506904D01*
X173380476Y-67506904D01*
X173494761Y-67545000D01*
X174294761Y-68230714D02*
X174256666Y-68268809D01*
X174142380Y-68306904D01*
X174066190Y-68306904D01*
X173951904Y-68268809D01*
X173875714Y-68192619D01*
X173837619Y-68116428D01*
X173799523Y-67964047D01*
X173799523Y-67849761D01*
X173837619Y-67697380D01*
X173875714Y-67621190D01*
X173951904Y-67545000D01*
X174066190Y-67506904D01*
X174142380Y-67506904D01*
X174256666Y-67545000D01*
X174294761Y-67583095D01*
X175018571Y-68306904D02*
X174637619Y-68306904D01*
X174637619Y-67506904D01*
X128555714Y-54237380D02*
X127984285Y-54237380D01*
X128270000Y-54237380D02*
X128270000Y-53237380D01*
X128174761Y-53380238D01*
X128079523Y-53475476D01*
X127984285Y-53523095D01*
X128270000Y-55792142D02*
X128317619Y-55839761D01*
X128270000Y-55887380D01*
X128222380Y-55839761D01*
X128270000Y-55792142D01*
X128270000Y-55887380D01*
X179331904Y-53285000D02*
X179236666Y-53237380D01*
X179093809Y-53237380D01*
X178950952Y-53285000D01*
X178855714Y-53380238D01*
X178808095Y-53475476D01*
X178760476Y-53665952D01*
X178760476Y-53808809D01*
X178808095Y-53999285D01*
X178855714Y-54094523D01*
X178950952Y-54189761D01*
X179093809Y-54237380D01*
X179189047Y-54237380D01*
X179331904Y-54189761D01*
X179379523Y-54142142D01*
X179379523Y-53808809D01*
X179189047Y-53808809D01*
X179331904Y-54935000D02*
X179236666Y-54887380D01*
X179093809Y-54887380D01*
X178950952Y-54935000D01*
X178855714Y-55030238D01*
X178808095Y-55125476D01*
X178760476Y-55315952D01*
X178760476Y-55458809D01*
X178808095Y-55649285D01*
X178855714Y-55744523D01*
X178950952Y-55839761D01*
X179093809Y-55887380D01*
X179189047Y-55887380D01*
X179331904Y-55839761D01*
X179379523Y-55792142D01*
X179379523Y-55458809D01*
X179189047Y-55458809D01*
X175596666Y-53877857D02*
X175710952Y-53915952D01*
X175749047Y-53954047D01*
X175787142Y-54030238D01*
X175787142Y-54144523D01*
X175749047Y-54220714D01*
X175710952Y-54258809D01*
X175634761Y-54296904D01*
X175330000Y-54296904D01*
X175330000Y-53496904D01*
X175596666Y-53496904D01*
X175672857Y-53535000D01*
X175710952Y-53573095D01*
X175749047Y-53649285D01*
X175749047Y-53725476D01*
X175710952Y-53801666D01*
X175672857Y-53839761D01*
X175596666Y-53877857D01*
X175330000Y-53877857D01*
X176091904Y-54068333D02*
X176472857Y-54068333D01*
X176015714Y-54296904D02*
X176282380Y-53496904D01*
X176549047Y-54296904D01*
X176701428Y-53496904D02*
X177158571Y-53496904D01*
X176930000Y-54296904D02*
X176930000Y-53496904D01*
X177310952Y-53496904D02*
X177577619Y-54296904D01*
X177844285Y-53496904D01*
X175596666Y-55227857D02*
X175710952Y-55265952D01*
X175749047Y-55304047D01*
X175787142Y-55380238D01*
X175787142Y-55494523D01*
X175749047Y-55570714D01*
X175710952Y-55608809D01*
X175634761Y-55646904D01*
X175330000Y-55646904D01*
X175330000Y-54846904D01*
X175596666Y-54846904D01*
X175672857Y-54885000D01*
X175710952Y-54923095D01*
X175749047Y-54999285D01*
X175749047Y-55075476D01*
X175710952Y-55151666D01*
X175672857Y-55189761D01*
X175596666Y-55227857D01*
X175330000Y-55227857D01*
X176091904Y-55418333D02*
X176472857Y-55418333D01*
X176015714Y-55646904D02*
X176282380Y-54846904D01*
X176549047Y-55646904D01*
X176701428Y-54846904D02*
X177158571Y-54846904D01*
X176930000Y-55646904D02*
X176930000Y-54846904D01*
X177310952Y-54846904D02*
X177577619Y-55646904D01*
X177844285Y-54846904D01*
X173247142Y-53877857D02*
X173361428Y-53915952D01*
X173399523Y-53954047D01*
X173437619Y-54030238D01*
X173437619Y-54144523D01*
X173399523Y-54220714D01*
X173361428Y-54258809D01*
X173285238Y-54296904D01*
X172980476Y-54296904D01*
X172980476Y-53496904D01*
X173247142Y-53496904D01*
X173323333Y-53535000D01*
X173361428Y-53573095D01*
X173399523Y-53649285D01*
X173399523Y-53725476D01*
X173361428Y-53801666D01*
X173323333Y-53839761D01*
X173247142Y-53877857D01*
X172980476Y-53877857D01*
X174237619Y-54220714D02*
X174199523Y-54258809D01*
X174085238Y-54296904D01*
X174009047Y-54296904D01*
X173894761Y-54258809D01*
X173818571Y-54182619D01*
X173780476Y-54106428D01*
X173742380Y-53954047D01*
X173742380Y-53839761D01*
X173780476Y-53687380D01*
X173818571Y-53611190D01*
X173894761Y-53535000D01*
X174009047Y-53496904D01*
X174085238Y-53496904D01*
X174199523Y-53535000D01*
X174237619Y-53573095D01*
X175037619Y-54296904D02*
X174770952Y-53915952D01*
X174580476Y-54296904D02*
X174580476Y-53496904D01*
X174885238Y-53496904D01*
X174961428Y-53535000D01*
X174999523Y-53573095D01*
X175037619Y-53649285D01*
X175037619Y-53763571D01*
X174999523Y-53839761D01*
X174961428Y-53877857D01*
X174885238Y-53915952D01*
X174580476Y-53915952D01*
X173247142Y-55227857D02*
X173361428Y-55265952D01*
X173399523Y-55304047D01*
X173437619Y-55380238D01*
X173437619Y-55494523D01*
X173399523Y-55570714D01*
X173361428Y-55608809D01*
X173285238Y-55646904D01*
X172980476Y-55646904D01*
X172980476Y-54846904D01*
X173247142Y-54846904D01*
X173323333Y-54885000D01*
X173361428Y-54923095D01*
X173399523Y-54999285D01*
X173399523Y-55075476D01*
X173361428Y-55151666D01*
X173323333Y-55189761D01*
X173247142Y-55227857D01*
X172980476Y-55227857D01*
X174237619Y-55570714D02*
X174199523Y-55608809D01*
X174085238Y-55646904D01*
X174009047Y-55646904D01*
X173894761Y-55608809D01*
X173818571Y-55532619D01*
X173780476Y-55456428D01*
X173742380Y-55304047D01*
X173742380Y-55189761D01*
X173780476Y-55037380D01*
X173818571Y-54961190D01*
X173894761Y-54885000D01*
X174009047Y-54846904D01*
X174085238Y-54846904D01*
X174199523Y-54885000D01*
X174237619Y-54923095D01*
X175037619Y-55646904D02*
X174770952Y-55265952D01*
X174580476Y-55646904D02*
X174580476Y-54846904D01*
X174885238Y-54846904D01*
X174961428Y-54885000D01*
X174999523Y-54923095D01*
X175037619Y-54999285D01*
X175037619Y-55113571D01*
X174999523Y-55189761D01*
X174961428Y-55227857D01*
X174885238Y-55265952D01*
X174580476Y-55265952D01*
X170707142Y-53877857D02*
X170821428Y-53915952D01*
X170859523Y-53954047D01*
X170897619Y-54030238D01*
X170897619Y-54144523D01*
X170859523Y-54220714D01*
X170821428Y-54258809D01*
X170745238Y-54296904D01*
X170440476Y-54296904D01*
X170440476Y-53496904D01*
X170707142Y-53496904D01*
X170783333Y-53535000D01*
X170821428Y-53573095D01*
X170859523Y-53649285D01*
X170859523Y-53725476D01*
X170821428Y-53801666D01*
X170783333Y-53839761D01*
X170707142Y-53877857D01*
X170440476Y-53877857D01*
X171697619Y-54220714D02*
X171659523Y-54258809D01*
X171545238Y-54296904D01*
X171469047Y-54296904D01*
X171354761Y-54258809D01*
X171278571Y-54182619D01*
X171240476Y-54106428D01*
X171202380Y-53954047D01*
X171202380Y-53839761D01*
X171240476Y-53687380D01*
X171278571Y-53611190D01*
X171354761Y-53535000D01*
X171469047Y-53496904D01*
X171545238Y-53496904D01*
X171659523Y-53535000D01*
X171697619Y-53573095D01*
X172497619Y-54296904D02*
X172230952Y-53915952D01*
X172040476Y-54296904D02*
X172040476Y-53496904D01*
X172345238Y-53496904D01*
X172421428Y-53535000D01*
X172459523Y-53573095D01*
X172497619Y-53649285D01*
X172497619Y-53763571D01*
X172459523Y-53839761D01*
X172421428Y-53877857D01*
X172345238Y-53915952D01*
X172040476Y-53915952D01*
X170707142Y-55227857D02*
X170821428Y-55265952D01*
X170859523Y-55304047D01*
X170897619Y-55380238D01*
X170897619Y-55494523D01*
X170859523Y-55570714D01*
X170821428Y-55608809D01*
X170745238Y-55646904D01*
X170440476Y-55646904D01*
X170440476Y-54846904D01*
X170707142Y-54846904D01*
X170783333Y-54885000D01*
X170821428Y-54923095D01*
X170859523Y-54999285D01*
X170859523Y-55075476D01*
X170821428Y-55151666D01*
X170783333Y-55189761D01*
X170707142Y-55227857D01*
X170440476Y-55227857D01*
X171697619Y-55570714D02*
X171659523Y-55608809D01*
X171545238Y-55646904D01*
X171469047Y-55646904D01*
X171354761Y-55608809D01*
X171278571Y-55532619D01*
X171240476Y-55456428D01*
X171202380Y-55304047D01*
X171202380Y-55189761D01*
X171240476Y-55037380D01*
X171278571Y-54961190D01*
X171354761Y-54885000D01*
X171469047Y-54846904D01*
X171545238Y-54846904D01*
X171659523Y-54885000D01*
X171697619Y-54923095D01*
X172497619Y-55646904D02*
X172230952Y-55265952D01*
X172040476Y-55646904D02*
X172040476Y-54846904D01*
X172345238Y-54846904D01*
X172421428Y-54885000D01*
X172459523Y-54923095D01*
X172497619Y-54999285D01*
X172497619Y-55113571D01*
X172459523Y-55189761D01*
X172421428Y-55227857D01*
X172345238Y-55265952D01*
X172040476Y-55265952D01*
X168910000Y-54142142D02*
X168957619Y-54189761D01*
X168910000Y-54237380D01*
X168862380Y-54189761D01*
X168910000Y-54142142D01*
X168910000Y-54237380D01*
X168910000Y-55792142D02*
X168957619Y-55839761D01*
X168910000Y-55887380D01*
X168862380Y-55839761D01*
X168910000Y-55792142D01*
X168910000Y-55887380D01*
X166370000Y-54142142D02*
X166417619Y-54189761D01*
X166370000Y-54237380D01*
X166322380Y-54189761D01*
X166370000Y-54142142D01*
X166370000Y-54237380D01*
X166370000Y-55792142D02*
X166417619Y-55839761D01*
X166370000Y-55887380D01*
X166322380Y-55839761D01*
X166370000Y-55792142D01*
X166370000Y-55887380D01*
X162763333Y-54296904D02*
X162763333Y-53496904D01*
X163068095Y-53496904D01*
X163144285Y-53535000D01*
X163182380Y-53573095D01*
X163220476Y-53649285D01*
X163220476Y-53763571D01*
X163182380Y-53839761D01*
X163144285Y-53877857D01*
X163068095Y-53915952D01*
X162763333Y-53915952D01*
X164020476Y-54220714D02*
X163982380Y-54258809D01*
X163868095Y-54296904D01*
X163791904Y-54296904D01*
X163677619Y-54258809D01*
X163601428Y-54182619D01*
X163563333Y-54106428D01*
X163525238Y-53954047D01*
X163525238Y-53839761D01*
X163563333Y-53687380D01*
X163601428Y-53611190D01*
X163677619Y-53535000D01*
X163791904Y-53496904D01*
X163868095Y-53496904D01*
X163982380Y-53535000D01*
X164020476Y-53573095D01*
X164363333Y-54296904D02*
X164363333Y-53496904D01*
X164630000Y-54068333D01*
X164896666Y-53496904D01*
X164896666Y-54296904D01*
X162763333Y-55646904D02*
X162763333Y-54846904D01*
X163068095Y-54846904D01*
X163144285Y-54885000D01*
X163182380Y-54923095D01*
X163220476Y-54999285D01*
X163220476Y-55113571D01*
X163182380Y-55189761D01*
X163144285Y-55227857D01*
X163068095Y-55265952D01*
X162763333Y-55265952D01*
X164020476Y-55570714D02*
X163982380Y-55608809D01*
X163868095Y-55646904D01*
X163791904Y-55646904D01*
X163677619Y-55608809D01*
X163601428Y-55532619D01*
X163563333Y-55456428D01*
X163525238Y-55304047D01*
X163525238Y-55189761D01*
X163563333Y-55037380D01*
X163601428Y-54961190D01*
X163677619Y-54885000D01*
X163791904Y-54846904D01*
X163868095Y-54846904D01*
X163982380Y-54885000D01*
X164020476Y-54923095D01*
X164363333Y-55646904D02*
X164363333Y-54846904D01*
X164630000Y-55418333D01*
X164896666Y-54846904D01*
X164896666Y-55646904D01*
X161290000Y-54142142D02*
X161337619Y-54189761D01*
X161290000Y-54237380D01*
X161242380Y-54189761D01*
X161290000Y-54142142D01*
X161290000Y-54237380D01*
X161290000Y-55792142D02*
X161337619Y-55839761D01*
X161290000Y-55887380D01*
X161242380Y-55839761D01*
X161290000Y-55792142D01*
X161290000Y-55887380D01*
X159011904Y-53285000D02*
X158916666Y-53237380D01*
X158773809Y-53237380D01*
X158630952Y-53285000D01*
X158535714Y-53380238D01*
X158488095Y-53475476D01*
X158440476Y-53665952D01*
X158440476Y-53808809D01*
X158488095Y-53999285D01*
X158535714Y-54094523D01*
X158630952Y-54189761D01*
X158773809Y-54237380D01*
X158869047Y-54237380D01*
X159011904Y-54189761D01*
X159059523Y-54142142D01*
X159059523Y-53808809D01*
X158869047Y-53808809D01*
X158750000Y-55792142D02*
X158797619Y-55839761D01*
X158750000Y-55887380D01*
X158702380Y-55839761D01*
X158750000Y-55792142D01*
X158750000Y-55887380D01*
X156471904Y-53285000D02*
X156376666Y-53237380D01*
X156233809Y-53237380D01*
X156090952Y-53285000D01*
X155995714Y-53380238D01*
X155948095Y-53475476D01*
X155900476Y-53665952D01*
X155900476Y-53808809D01*
X155948095Y-53999285D01*
X155995714Y-54094523D01*
X156090952Y-54189761D01*
X156233809Y-54237380D01*
X156329047Y-54237380D01*
X156471904Y-54189761D01*
X156519523Y-54142142D01*
X156519523Y-53808809D01*
X156329047Y-53808809D01*
X156471904Y-54935000D02*
X156376666Y-54887380D01*
X156233809Y-54887380D01*
X156090952Y-54935000D01*
X155995714Y-55030238D01*
X155948095Y-55125476D01*
X155900476Y-55315952D01*
X155900476Y-55458809D01*
X155948095Y-55649285D01*
X155995714Y-55744523D01*
X156090952Y-55839761D01*
X156233809Y-55887380D01*
X156329047Y-55887380D01*
X156471904Y-55839761D01*
X156519523Y-55792142D01*
X156519523Y-55458809D01*
X156329047Y-55458809D01*
X152679523Y-53496904D02*
X153174761Y-53496904D01*
X152908095Y-53801666D01*
X153022380Y-53801666D01*
X153098571Y-53839761D01*
X153136666Y-53877857D01*
X153174761Y-53954047D01*
X153174761Y-54144523D01*
X153136666Y-54220714D01*
X153098571Y-54258809D01*
X153022380Y-54296904D01*
X152793809Y-54296904D01*
X152717619Y-54258809D01*
X152679523Y-54220714D01*
X153403333Y-53496904D02*
X153670000Y-54296904D01*
X153936666Y-53496904D01*
X154127142Y-53496904D02*
X154622380Y-53496904D01*
X154355714Y-53801666D01*
X154470000Y-53801666D01*
X154546190Y-53839761D01*
X154584285Y-53877857D01*
X154622380Y-53954047D01*
X154622380Y-54144523D01*
X154584285Y-54220714D01*
X154546190Y-54258809D01*
X154470000Y-54296904D01*
X154241428Y-54296904D01*
X154165238Y-54258809D01*
X154127142Y-54220714D01*
X152679523Y-54846904D02*
X153174761Y-54846904D01*
X152908095Y-55151666D01*
X153022380Y-55151666D01*
X153098571Y-55189761D01*
X153136666Y-55227857D01*
X153174761Y-55304047D01*
X153174761Y-55494523D01*
X153136666Y-55570714D01*
X153098571Y-55608809D01*
X153022380Y-55646904D01*
X152793809Y-55646904D01*
X152717619Y-55608809D01*
X152679523Y-55570714D01*
X153403333Y-54846904D02*
X153670000Y-55646904D01*
X153936666Y-54846904D01*
X154127142Y-54846904D02*
X154622380Y-54846904D01*
X154355714Y-55151666D01*
X154470000Y-55151666D01*
X154546190Y-55189761D01*
X154584285Y-55227857D01*
X154622380Y-55304047D01*
X154622380Y-55494523D01*
X154584285Y-55570714D01*
X154546190Y-55608809D01*
X154470000Y-55646904D01*
X154241428Y-55646904D01*
X154165238Y-55608809D01*
X154127142Y-55570714D01*
X150977619Y-53496904D02*
X150596666Y-53496904D01*
X150558571Y-53877857D01*
X150596666Y-53839761D01*
X150672857Y-53801666D01*
X150863333Y-53801666D01*
X150939523Y-53839761D01*
X150977619Y-53877857D01*
X151015714Y-53954047D01*
X151015714Y-54144523D01*
X150977619Y-54220714D01*
X150939523Y-54258809D01*
X150863333Y-54296904D01*
X150672857Y-54296904D01*
X150596666Y-54258809D01*
X150558571Y-54220714D01*
X151244285Y-53496904D02*
X151510952Y-54296904D01*
X151777619Y-53496904D01*
X150977619Y-54846904D02*
X150596666Y-54846904D01*
X150558571Y-55227857D01*
X150596666Y-55189761D01*
X150672857Y-55151666D01*
X150863333Y-55151666D01*
X150939523Y-55189761D01*
X150977619Y-55227857D01*
X151015714Y-55304047D01*
X151015714Y-55494523D01*
X150977619Y-55570714D01*
X150939523Y-55608809D01*
X150863333Y-55646904D01*
X150672857Y-55646904D01*
X150596666Y-55608809D01*
X150558571Y-55570714D01*
X151244285Y-54846904D02*
X151510952Y-55646904D01*
X151777619Y-54846904D01*
X148094761Y-54296904D02*
X147637619Y-54296904D01*
X147866190Y-54296904D02*
X147866190Y-53496904D01*
X147790000Y-53611190D01*
X147713809Y-53687380D01*
X147637619Y-53725476D01*
X148399523Y-53573095D02*
X148437619Y-53535000D01*
X148513809Y-53496904D01*
X148704285Y-53496904D01*
X148780476Y-53535000D01*
X148818571Y-53573095D01*
X148856666Y-53649285D01*
X148856666Y-53725476D01*
X148818571Y-53839761D01*
X148361428Y-54296904D01*
X148856666Y-54296904D01*
X149085238Y-53496904D02*
X149351904Y-54296904D01*
X149618571Y-53496904D01*
X148094761Y-55646904D02*
X147637619Y-55646904D01*
X147866190Y-55646904D02*
X147866190Y-54846904D01*
X147790000Y-54961190D01*
X147713809Y-55037380D01*
X147637619Y-55075476D01*
X148399523Y-54923095D02*
X148437619Y-54885000D01*
X148513809Y-54846904D01*
X148704285Y-54846904D01*
X148780476Y-54885000D01*
X148818571Y-54923095D01*
X148856666Y-54999285D01*
X148856666Y-55075476D01*
X148818571Y-55189761D01*
X148361428Y-55646904D01*
X148856666Y-55646904D01*
X149085238Y-54846904D02*
X149351904Y-55646904D01*
X149618571Y-54846904D01*
X146311904Y-53285000D02*
X146216666Y-53237380D01*
X146073809Y-53237380D01*
X145930952Y-53285000D01*
X145835714Y-53380238D01*
X145788095Y-53475476D01*
X145740476Y-53665952D01*
X145740476Y-53808809D01*
X145788095Y-53999285D01*
X145835714Y-54094523D01*
X145930952Y-54189761D01*
X146073809Y-54237380D01*
X146169047Y-54237380D01*
X146311904Y-54189761D01*
X146359523Y-54142142D01*
X146359523Y-53808809D01*
X146169047Y-53808809D01*
X146311904Y-54935000D02*
X146216666Y-54887380D01*
X146073809Y-54887380D01*
X145930952Y-54935000D01*
X145835714Y-55030238D01*
X145788095Y-55125476D01*
X145740476Y-55315952D01*
X145740476Y-55458809D01*
X145788095Y-55649285D01*
X145835714Y-55744523D01*
X145930952Y-55839761D01*
X146073809Y-55887380D01*
X146169047Y-55887380D01*
X146311904Y-55839761D01*
X146359523Y-55792142D01*
X146359523Y-55458809D01*
X146169047Y-55458809D01*
X143319523Y-54237380D02*
X142748095Y-54237380D01*
X143033809Y-54237380D02*
X143033809Y-53237380D01*
X142938571Y-53380238D01*
X142843333Y-53475476D01*
X142748095Y-53523095D01*
X143938571Y-53237380D02*
X144033809Y-53237380D01*
X144129047Y-53285000D01*
X144176666Y-53332619D01*
X144224285Y-53427857D01*
X144271904Y-53618333D01*
X144271904Y-53856428D01*
X144224285Y-54046904D01*
X144176666Y-54142142D01*
X144129047Y-54189761D01*
X144033809Y-54237380D01*
X143938571Y-54237380D01*
X143843333Y-54189761D01*
X143795714Y-54142142D01*
X143748095Y-54046904D01*
X143700476Y-53856428D01*
X143700476Y-53618333D01*
X143748095Y-53427857D01*
X143795714Y-53332619D01*
X143843333Y-53285000D01*
X143938571Y-53237380D01*
X143319523Y-55887380D02*
X143510000Y-55887380D01*
X143605238Y-55839761D01*
X143652857Y-55792142D01*
X143748095Y-55649285D01*
X143795714Y-55458809D01*
X143795714Y-55077857D01*
X143748095Y-54982619D01*
X143700476Y-54935000D01*
X143605238Y-54887380D01*
X143414761Y-54887380D01*
X143319523Y-54935000D01*
X143271904Y-54982619D01*
X143224285Y-55077857D01*
X143224285Y-55315952D01*
X143271904Y-55411190D01*
X143319523Y-55458809D01*
X143414761Y-55506428D01*
X143605238Y-55506428D01*
X143700476Y-55458809D01*
X143748095Y-55411190D01*
X143795714Y-55315952D01*
X140874761Y-53665952D02*
X140779523Y-53618333D01*
X140731904Y-53570714D01*
X140684285Y-53475476D01*
X140684285Y-53427857D01*
X140731904Y-53332619D01*
X140779523Y-53285000D01*
X140874761Y-53237380D01*
X141065238Y-53237380D01*
X141160476Y-53285000D01*
X141208095Y-53332619D01*
X141255714Y-53427857D01*
X141255714Y-53475476D01*
X141208095Y-53570714D01*
X141160476Y-53618333D01*
X141065238Y-53665952D01*
X140874761Y-53665952D01*
X140779523Y-53713571D01*
X140731904Y-53761190D01*
X140684285Y-53856428D01*
X140684285Y-54046904D01*
X140731904Y-54142142D01*
X140779523Y-54189761D01*
X140874761Y-54237380D01*
X141065238Y-54237380D01*
X141160476Y-54189761D01*
X141208095Y-54142142D01*
X141255714Y-54046904D01*
X141255714Y-53856428D01*
X141208095Y-53761190D01*
X141160476Y-53713571D01*
X141065238Y-53665952D01*
X141231904Y-54935000D02*
X141136666Y-54887380D01*
X140993809Y-54887380D01*
X140850952Y-54935000D01*
X140755714Y-55030238D01*
X140708095Y-55125476D01*
X140660476Y-55315952D01*
X140660476Y-55458809D01*
X140708095Y-55649285D01*
X140755714Y-55744523D01*
X140850952Y-55839761D01*
X140993809Y-55887380D01*
X141089047Y-55887380D01*
X141231904Y-55839761D01*
X141279523Y-55792142D01*
X141279523Y-55458809D01*
X141089047Y-55458809D01*
X138096666Y-53237380D02*
X138763333Y-53237380D01*
X138334761Y-54237380D01*
X138620476Y-54887380D02*
X138430000Y-54887380D01*
X138334761Y-54935000D01*
X138287142Y-54982619D01*
X138191904Y-55125476D01*
X138144285Y-55315952D01*
X138144285Y-55696904D01*
X138191904Y-55792142D01*
X138239523Y-55839761D01*
X138334761Y-55887380D01*
X138525238Y-55887380D01*
X138620476Y-55839761D01*
X138668095Y-55792142D01*
X138715714Y-55696904D01*
X138715714Y-55458809D01*
X138668095Y-55363571D01*
X138620476Y-55315952D01*
X138525238Y-55268333D01*
X138334761Y-55268333D01*
X138239523Y-55315952D01*
X138191904Y-55363571D01*
X138144285Y-55458809D01*
X130524285Y-53332619D02*
X130571904Y-53285000D01*
X130667142Y-53237380D01*
X130905238Y-53237380D01*
X131000476Y-53285000D01*
X131048095Y-53332619D01*
X131095714Y-53427857D01*
X131095714Y-53523095D01*
X131048095Y-53665952D01*
X130476666Y-54237380D01*
X131095714Y-54237380D01*
X131071904Y-54935000D02*
X130976666Y-54887380D01*
X130833809Y-54887380D01*
X130690952Y-54935000D01*
X130595714Y-55030238D01*
X130548095Y-55125476D01*
X130500476Y-55315952D01*
X130500476Y-55458809D01*
X130548095Y-55649285D01*
X130595714Y-55744523D01*
X130690952Y-55839761D01*
X130833809Y-55887380D01*
X130929047Y-55887380D01*
X131071904Y-55839761D01*
X131119523Y-55792142D01*
X131119523Y-55458809D01*
X130929047Y-55458809D01*
X136151904Y-53285000D02*
X136056666Y-53237380D01*
X135913809Y-53237380D01*
X135770952Y-53285000D01*
X135675714Y-53380238D01*
X135628095Y-53475476D01*
X135580476Y-53665952D01*
X135580476Y-53808809D01*
X135628095Y-53999285D01*
X135675714Y-54094523D01*
X135770952Y-54189761D01*
X135913809Y-54237380D01*
X136009047Y-54237380D01*
X136151904Y-54189761D01*
X136199523Y-54142142D01*
X136199523Y-53808809D01*
X136009047Y-53808809D01*
X136128095Y-54887380D02*
X135651904Y-54887380D01*
X135604285Y-55363571D01*
X135651904Y-55315952D01*
X135747142Y-55268333D01*
X135985238Y-55268333D01*
X136080476Y-55315952D01*
X136128095Y-55363571D01*
X136175714Y-55458809D01*
X136175714Y-55696904D01*
X136128095Y-55792142D01*
X136080476Y-55839761D01*
X135985238Y-55887380D01*
X135747142Y-55887380D01*
X135651904Y-55839761D01*
X135604285Y-55792142D01*
X133540476Y-53570714D02*
X133540476Y-54237380D01*
X133302380Y-53189761D02*
X133064285Y-53904047D01*
X133683333Y-53904047D01*
X133016666Y-54887380D02*
X133635714Y-54887380D01*
X133302380Y-55268333D01*
X133445238Y-55268333D01*
X133540476Y-55315952D01*
X133588095Y-55363571D01*
X133635714Y-55458809D01*
X133635714Y-55696904D01*
X133588095Y-55792142D01*
X133540476Y-55839761D01*
X133445238Y-55887380D01*
X133159523Y-55887380D01*
X133064285Y-55839761D01*
X133016666Y-55792142D01*
D12*
%TO.C,U1*%
X159385000Y-95885000D02*
X133985000Y-95885000D01*
X133985000Y-75565000D02*
X159385000Y-75565000D01*
X159385000Y-75565000D02*
X159385000Y-95885000D01*
X133985000Y-95885000D02*
X133985000Y-75565000D01*
%TO.C,U4*%
X135255000Y-104150000D02*
X133305000Y-104150000D01*
X135255000Y-104150000D02*
X137205000Y-104150000D01*
X135255000Y-113020000D02*
X133305000Y-113020000D01*
X135255000Y-113020000D02*
X138705000Y-113020000D01*
%TO.C,C10*%
X142213000Y-113403748D02*
X142213000Y-113926252D01*
X140743000Y-113403748D02*
X140743000Y-113926252D01*
%TO.C,C9*%
X128531252Y-113130000D02*
X128008748Y-113130000D01*
X128531252Y-111660000D02*
X128008748Y-111660000D01*
D13*
%TO.C,U2*%
X134460000Y-126760000D02*
G75*
G03*
X134460000Y-126760000I-125001J0D01*
G01*
D14*
X136859998Y-128080000D02*
G75*
G03*
X136859998Y-128080000I-299999J0D01*
G01*
D10*
X135559998Y-137080000D02*
X135559998Y-127080000D01*
X138759999Y-137080000D02*
X138759999Y-127080000D01*
X135559998Y-127080000D02*
X138759999Y-127080000D01*
X135559998Y-137080000D02*
X138759999Y-137080000D01*
D12*
%TO.C,R12*%
X157917936Y-72978000D02*
X158372064Y-72978000D01*
X157917936Y-74448000D02*
X158372064Y-74448000D01*
%TO.C,R11*%
X112495000Y-79482936D02*
X112495000Y-79937064D01*
X111025000Y-79482936D02*
X111025000Y-79937064D01*
%TO.C,R10*%
X129132064Y-74395000D02*
X128677936Y-74395000D01*
X129132064Y-72925000D02*
X128677936Y-72925000D01*
%TO.C,R9*%
X122147064Y-74395000D02*
X121692936Y-74395000D01*
X122147064Y-72925000D02*
X121692936Y-72925000D01*
%TO.C,D12*%
X159115000Y-69525000D02*
X156255000Y-69525000D01*
X156255000Y-69525000D02*
X156255000Y-71445000D01*
X156255000Y-71445000D02*
X159115000Y-71445000D01*
%TO.C,D11*%
X115895000Y-80665000D02*
X115895000Y-77805000D01*
X115895000Y-77805000D02*
X113975000Y-77805000D01*
X113975000Y-77805000D02*
X113975000Y-80665000D01*
%TO.C,D10*%
X127905000Y-71445000D02*
X130765000Y-71445000D01*
X130765000Y-71445000D02*
X130765000Y-69525000D01*
X130765000Y-69525000D02*
X127905000Y-69525000D01*
%TO.C,D9*%
X120920000Y-71445000D02*
X123780000Y-71445000D01*
X123780000Y-71445000D02*
X123780000Y-69525000D01*
X123780000Y-69525000D02*
X120920000Y-69525000D01*
%TO.C,TP5*%
X146996000Y-70612000D02*
G75*
G03*
X146996000Y-70612000I-1200000J0D01*
G01*
%TO.C,TP4*%
X180524000Y-70104000D02*
G75*
G03*
X180524000Y-70104000I-1200000J0D01*
G01*
%TO.C,TP3*%
X151060000Y-70612000D02*
G75*
G03*
X151060000Y-70612000I-1200000J0D01*
G01*
%TO.C,TP2*%
X155124000Y-70612000D02*
G75*
G03*
X155124000Y-70612000I-1200000J0D01*
G01*
%TO.C,TP1*%
X184080000Y-70104000D02*
G75*
G03*
X184080000Y-70104000I-1200000J0D01*
G01*
%TO.C,J8*%
X189691000Y-99254000D02*
X192351000Y-99254000D01*
X189691000Y-99254000D02*
X189691000Y-101854000D01*
X189691000Y-101854000D02*
X192351000Y-101854000D01*
X192351000Y-99254000D02*
X192351000Y-101854000D01*
X192351000Y-96654000D02*
X192351000Y-97984000D01*
X191021000Y-96654000D02*
X192351000Y-96654000D01*
%TO.C,R6*%
X131037064Y-115470000D02*
X130582936Y-115470000D01*
X131037064Y-116940000D02*
X130582936Y-116940000D01*
%TO.C,R5*%
X136752064Y-115470000D02*
X136297936Y-115470000D01*
X136752064Y-116940000D02*
X136297936Y-116940000D01*
%TO.C,R4*%
X134212064Y-72925000D02*
X133757936Y-72925000D01*
X134212064Y-74395000D02*
X133757936Y-74395000D01*
%TO.C,R3*%
X139292064Y-72925000D02*
X138837936Y-72925000D01*
X139292064Y-74395000D02*
X138837936Y-74395000D01*
%TO.C,R2*%
X151665000Y-114072936D02*
X151665000Y-114527064D01*
X153135000Y-114072936D02*
X153135000Y-114527064D01*
%TO.C,R1*%
X156745000Y-114072936D02*
X156745000Y-114527064D01*
X158215000Y-114072936D02*
X158215000Y-114527064D01*
%TO.C,JP4*%
X156065000Y-109585000D02*
X156065000Y-107585000D01*
X160165000Y-109585000D02*
X156065000Y-109585000D01*
X160165000Y-107585000D02*
X160165000Y-109585000D01*
X156065000Y-107585000D02*
X160165000Y-107585000D01*
%TO.C,JP3*%
X147175000Y-109585000D02*
X147175000Y-107585000D01*
X151275000Y-109585000D02*
X147175000Y-109585000D01*
X151275000Y-107585000D02*
X151275000Y-109585000D01*
X147175000Y-107585000D02*
X151275000Y-107585000D01*
%TO.C,JP2*%
X156065000Y-103320000D02*
X156065000Y-101320000D01*
X160165000Y-103320000D02*
X156065000Y-103320000D01*
X160165000Y-101320000D02*
X160165000Y-103320000D01*
X156065000Y-101320000D02*
X160165000Y-101320000D01*
%TO.C,JP1*%
X147175000Y-103235000D02*
X147175000Y-101235000D01*
X151275000Y-103235000D02*
X147175000Y-103235000D01*
X151275000Y-101235000D02*
X151275000Y-103235000D01*
X147175000Y-101235000D02*
X151275000Y-101235000D01*
D10*
%TO.C,U3*%
X150795000Y-126060000D02*
X149195000Y-126060000D01*
X150795000Y-136135000D02*
X156545000Y-136135000D01*
X150795000Y-125485000D02*
X156545000Y-125485000D01*
X150795000Y-136135000D02*
X150795000Y-135485000D01*
X156545000Y-136135000D02*
X156545000Y-135485000D01*
X156545000Y-125485000D02*
X156545000Y-126135000D01*
X150795000Y-125485000D02*
X150795000Y-126060000D01*
D12*
%TO.C,J6*%
X149770000Y-140395000D02*
X157570000Y-140395000D01*
X157570000Y-146275000D02*
X149770000Y-146275000D01*
%TO.C,D6*%
X132670000Y-118420000D02*
X129810000Y-118420000D01*
X132670000Y-120340000D02*
X132670000Y-118420000D01*
X129810000Y-120340000D02*
X132670000Y-120340000D01*
%TO.C,D5*%
X138385000Y-118420000D02*
X135525000Y-118420000D01*
X138385000Y-120340000D02*
X138385000Y-118420000D01*
X135525000Y-120340000D02*
X138385000Y-120340000D01*
%TO.C,D4*%
X135845000Y-69525000D02*
X132985000Y-69525000D01*
X135845000Y-71445000D02*
X135845000Y-69525000D01*
X132985000Y-71445000D02*
X135845000Y-71445000D01*
%TO.C,D3*%
X140925000Y-69525000D02*
X138065000Y-69525000D01*
X140925000Y-71445000D02*
X140925000Y-69525000D01*
X138065000Y-71445000D02*
X140925000Y-71445000D01*
%TO.C,D2*%
X148265000Y-112440000D02*
X148265000Y-115300000D01*
X150185000Y-112440000D02*
X148265000Y-112440000D01*
X150185000Y-115300000D02*
X150185000Y-112440000D01*
%TO.C,D1*%
X159695000Y-112440000D02*
X159695000Y-115300000D01*
X161615000Y-112440000D02*
X159695000Y-112440000D01*
X161615000Y-115300000D02*
X161615000Y-112440000D01*
%TO.C,C8*%
X162025000Y-132341252D02*
X162025000Y-131818748D01*
X160555000Y-132341252D02*
X160555000Y-131818748D01*
%TO.C,C7*%
X154678748Y-123290000D02*
X155201252Y-123290000D01*
X154678748Y-121820000D02*
X155201252Y-121820000D01*
%TO.C,C6*%
X154678748Y-120115000D02*
X155201252Y-120115000D01*
X154678748Y-118645000D02*
X155201252Y-118645000D01*
%TO.C,J7*%
X182178000Y-143764000D02*
X182178000Y-145094000D01*
X182178000Y-145094000D02*
X180848000Y-145094000D01*
X179578000Y-145094000D02*
X176978000Y-145094000D01*
X176978000Y-142434000D02*
X176978000Y-145094000D01*
X179578000Y-142434000D02*
X176978000Y-142434000D01*
X179578000Y-142434000D02*
X179578000Y-145094000D01*
%TO.C,C5*%
X142140000Y-128008748D02*
X142140000Y-128531252D01*
X143610000Y-128008748D02*
X143610000Y-128531252D01*
%TO.C,C4*%
X131545000Y-138056252D02*
X131545000Y-137533748D01*
X130075000Y-138056252D02*
X130075000Y-137533748D01*
%TO.C,C3*%
X135226248Y-125830000D02*
X135748752Y-125830000D01*
X135226248Y-124360000D02*
X135748752Y-124360000D01*
%TO.C,C2*%
X130075000Y-132453748D02*
X130075000Y-132976252D01*
X131545000Y-132453748D02*
X131545000Y-132976252D01*
%TO.C,C1*%
X131545000Y-127896252D02*
X131545000Y-127373748D01*
X130075000Y-127896252D02*
X130075000Y-127373748D01*
%TO.C,U1*%
D10*
X145923095Y-86947380D02*
X145923095Y-87756904D01*
X145970714Y-87852142D01*
X146018333Y-87899761D01*
X146113571Y-87947380D01*
X146304047Y-87947380D01*
X146399285Y-87899761D01*
X146446904Y-87852142D01*
X146494523Y-87756904D01*
X146494523Y-86947380D01*
X147494523Y-87947380D02*
X146923095Y-87947380D01*
X147208809Y-87947380D02*
X147208809Y-86947380D01*
X147113571Y-87090238D01*
X147018333Y-87185476D01*
X146923095Y-87233095D01*
%TO.C,U4*%
X134493095Y-113317380D02*
X134493095Y-114126904D01*
X134540714Y-114222142D01*
X134588333Y-114269761D01*
X134683571Y-114317380D01*
X134874047Y-114317380D01*
X134969285Y-114269761D01*
X135016904Y-114222142D01*
X135064523Y-114126904D01*
X135064523Y-113317380D01*
X135969285Y-113650714D02*
X135969285Y-114317380D01*
X135731190Y-113269761D02*
X135493095Y-113984047D01*
X136112142Y-113984047D01*
%TO.C,C10*%
X143515142Y-114307857D02*
X143562761Y-114355476D01*
X143610380Y-114498333D01*
X143610380Y-114593571D01*
X143562761Y-114736428D01*
X143467523Y-114831666D01*
X143372285Y-114879285D01*
X143181809Y-114926904D01*
X143038952Y-114926904D01*
X142848476Y-114879285D01*
X142753238Y-114831666D01*
X142658000Y-114736428D01*
X142610380Y-114593571D01*
X142610380Y-114498333D01*
X142658000Y-114355476D01*
X142705619Y-114307857D01*
X143610380Y-113355476D02*
X143610380Y-113926904D01*
X143610380Y-113641190D02*
X142610380Y-113641190D01*
X142753238Y-113736428D01*
X142848476Y-113831666D01*
X142896095Y-113926904D01*
X142610380Y-112736428D02*
X142610380Y-112641190D01*
X142658000Y-112545952D01*
X142705619Y-112498333D01*
X142800857Y-112450714D01*
X142991333Y-112403095D01*
X143229428Y-112403095D01*
X143419904Y-112450714D01*
X143515142Y-112498333D01*
X143562761Y-112545952D01*
X143610380Y-112641190D01*
X143610380Y-112736428D01*
X143562761Y-112831666D01*
X143515142Y-112879285D01*
X143419904Y-112926904D01*
X143229428Y-112974523D01*
X142991333Y-112974523D01*
X142800857Y-112926904D01*
X142705619Y-112879285D01*
X142658000Y-112831666D01*
X142610380Y-112736428D01*
%TO.C,C9*%
X128103333Y-114432142D02*
X128055714Y-114479761D01*
X127912857Y-114527380D01*
X127817619Y-114527380D01*
X127674761Y-114479761D01*
X127579523Y-114384523D01*
X127531904Y-114289285D01*
X127484285Y-114098809D01*
X127484285Y-113955952D01*
X127531904Y-113765476D01*
X127579523Y-113670238D01*
X127674761Y-113575000D01*
X127817619Y-113527380D01*
X127912857Y-113527380D01*
X128055714Y-113575000D01*
X128103333Y-113622619D01*
X128579523Y-114527380D02*
X128770000Y-114527380D01*
X128865238Y-114479761D01*
X128912857Y-114432142D01*
X129008095Y-114289285D01*
X129055714Y-114098809D01*
X129055714Y-113717857D01*
X129008095Y-113622619D01*
X128960476Y-113575000D01*
X128865238Y-113527380D01*
X128674761Y-113527380D01*
X128579523Y-113575000D01*
X128531904Y-113622619D01*
X128484285Y-113717857D01*
X128484285Y-113955952D01*
X128531904Y-114051190D01*
X128579523Y-114098809D01*
X128674761Y-114146428D01*
X128865238Y-114146428D01*
X128960476Y-114098809D01*
X129008095Y-114051190D01*
X129055714Y-113955952D01*
%TO.C,U2*%
X139987976Y-125291904D02*
X139987976Y-125939524D01*
X140026071Y-126015714D01*
X140064167Y-126053809D01*
X140140357Y-126091905D01*
X140292738Y-126091905D01*
X140368929Y-126053809D01*
X140407024Y-126015714D01*
X140445119Y-125939524D01*
X140445119Y-125291904D01*
X140787977Y-125368094D02*
X140826072Y-125329999D01*
X140902263Y-125291904D01*
X141092739Y-125291904D01*
X141168930Y-125329999D01*
X141207025Y-125368094D01*
X141245120Y-125444285D01*
X141245120Y-125520475D01*
X141207025Y-125634761D01*
X140749882Y-126091905D01*
X141245120Y-126091905D01*
X137734523Y-136071428D02*
X136464523Y-136071428D01*
X137371666Y-135648095D01*
X136464523Y-135224761D01*
X137734523Y-135224761D01*
X137371666Y-134680476D02*
X137371666Y-134075714D01*
X137734523Y-134801428D02*
X136464523Y-134378095D01*
X137734523Y-133954761D01*
X136464523Y-133652380D02*
X137734523Y-132805714D01*
X136464523Y-132805714D02*
X137734523Y-133652380D01*
X136464523Y-132442857D02*
X136464523Y-131656666D01*
X136948333Y-132080000D01*
X136948333Y-131898571D01*
X137008809Y-131777619D01*
X137069285Y-131717142D01*
X137190238Y-131656666D01*
X137492619Y-131656666D01*
X137613571Y-131717142D01*
X137674047Y-131777619D01*
X137734523Y-131898571D01*
X137734523Y-132261428D01*
X137674047Y-132382380D01*
X137613571Y-132442857D01*
X136585476Y-131172857D02*
X136525000Y-131112380D01*
X136464523Y-130991428D01*
X136464523Y-130689047D01*
X136525000Y-130568095D01*
X136585476Y-130507619D01*
X136706428Y-130447142D01*
X136827380Y-130447142D01*
X137008809Y-130507619D01*
X137734523Y-131233333D01*
X137734523Y-130447142D01*
X136464523Y-130023809D02*
X136464523Y-129237619D01*
X136948333Y-129660952D01*
X136948333Y-129479523D01*
X137008809Y-129358571D01*
X137069285Y-129298095D01*
X137190238Y-129237619D01*
X137492619Y-129237619D01*
X137613571Y-129298095D01*
X137674047Y-129358571D01*
X137734523Y-129479523D01*
X137734523Y-129842380D01*
X137674047Y-129963333D01*
X137613571Y-130023809D01*
X136585476Y-128753809D02*
X136525000Y-128693333D01*
X136464523Y-128572380D01*
X136464523Y-128270000D01*
X136525000Y-128149047D01*
X136585476Y-128088571D01*
X136706428Y-128028095D01*
X136827380Y-128028095D01*
X137008809Y-128088571D01*
X137734523Y-128814285D01*
X137734523Y-128028095D01*
%TO.C,R12*%
X157502142Y-75763380D02*
X157168809Y-75287190D01*
X156930714Y-75763380D02*
X156930714Y-74763380D01*
X157311666Y-74763380D01*
X157406904Y-74811000D01*
X157454523Y-74858619D01*
X157502142Y-74953857D01*
X157502142Y-75096714D01*
X157454523Y-75191952D01*
X157406904Y-75239571D01*
X157311666Y-75287190D01*
X156930714Y-75287190D01*
X158454523Y-75763380D02*
X157883095Y-75763380D01*
X158168809Y-75763380D02*
X158168809Y-74763380D01*
X158073571Y-74906238D01*
X157978333Y-75001476D01*
X157883095Y-75049095D01*
X158835476Y-74858619D02*
X158883095Y-74811000D01*
X158978333Y-74763380D01*
X159216428Y-74763380D01*
X159311666Y-74811000D01*
X159359285Y-74858619D01*
X159406904Y-74953857D01*
X159406904Y-75049095D01*
X159359285Y-75191952D01*
X158787857Y-75763380D01*
X159406904Y-75763380D01*
%TO.C,R11*%
X113862380Y-80352857D02*
X113386190Y-80686190D01*
X113862380Y-80924285D02*
X112862380Y-80924285D01*
X112862380Y-80543333D01*
X112910000Y-80448095D01*
X112957619Y-80400476D01*
X113052857Y-80352857D01*
X113195714Y-80352857D01*
X113290952Y-80400476D01*
X113338571Y-80448095D01*
X113386190Y-80543333D01*
X113386190Y-80924285D01*
X113862380Y-79400476D02*
X113862380Y-79971904D01*
X113862380Y-79686190D02*
X112862380Y-79686190D01*
X113005238Y-79781428D01*
X113100476Y-79876666D01*
X113148095Y-79971904D01*
X113862380Y-78448095D02*
X113862380Y-79019523D01*
X113862380Y-78733809D02*
X112862380Y-78733809D01*
X113005238Y-78829047D01*
X113100476Y-78924285D01*
X113148095Y-79019523D01*
%TO.C,R10*%
X127627142Y-75762380D02*
X127293809Y-75286190D01*
X127055714Y-75762380D02*
X127055714Y-74762380D01*
X127436666Y-74762380D01*
X127531904Y-74810000D01*
X127579523Y-74857619D01*
X127627142Y-74952857D01*
X127627142Y-75095714D01*
X127579523Y-75190952D01*
X127531904Y-75238571D01*
X127436666Y-75286190D01*
X127055714Y-75286190D01*
X128579523Y-75762380D02*
X128008095Y-75762380D01*
X128293809Y-75762380D02*
X128293809Y-74762380D01*
X128198571Y-74905238D01*
X128103333Y-75000476D01*
X128008095Y-75048095D01*
X129198571Y-74762380D02*
X129293809Y-74762380D01*
X129389047Y-74810000D01*
X129436666Y-74857619D01*
X129484285Y-74952857D01*
X129531904Y-75143333D01*
X129531904Y-75381428D01*
X129484285Y-75571904D01*
X129436666Y-75667142D01*
X129389047Y-75714761D01*
X129293809Y-75762380D01*
X129198571Y-75762380D01*
X129103333Y-75714761D01*
X129055714Y-75667142D01*
X129008095Y-75571904D01*
X128960476Y-75381428D01*
X128960476Y-75143333D01*
X129008095Y-74952857D01*
X129055714Y-74857619D01*
X129103333Y-74810000D01*
X129198571Y-74762380D01*
%TO.C,R9*%
X121753333Y-75762380D02*
X121420000Y-75286190D01*
X121181904Y-75762380D02*
X121181904Y-74762380D01*
X121562857Y-74762380D01*
X121658095Y-74810000D01*
X121705714Y-74857619D01*
X121753333Y-74952857D01*
X121753333Y-75095714D01*
X121705714Y-75190952D01*
X121658095Y-75238571D01*
X121562857Y-75286190D01*
X121181904Y-75286190D01*
X122229523Y-75762380D02*
X122420000Y-75762380D01*
X122515238Y-75714761D01*
X122562857Y-75667142D01*
X122658095Y-75524285D01*
X122705714Y-75333809D01*
X122705714Y-74952857D01*
X122658095Y-74857619D01*
X122610476Y-74810000D01*
X122515238Y-74762380D01*
X122324761Y-74762380D01*
X122229523Y-74810000D01*
X122181904Y-74857619D01*
X122134285Y-74952857D01*
X122134285Y-75190952D01*
X122181904Y-75286190D01*
X122229523Y-75333809D01*
X122324761Y-75381428D01*
X122515238Y-75381428D01*
X122610476Y-75333809D01*
X122658095Y-75286190D01*
X122705714Y-75190952D01*
%TO.C,D12*%
X156900714Y-72588380D02*
X156900714Y-71588380D01*
X157138809Y-71588380D01*
X157281666Y-71636000D01*
X157376904Y-71731238D01*
X157424523Y-71826476D01*
X157472142Y-72016952D01*
X157472142Y-72159809D01*
X157424523Y-72350285D01*
X157376904Y-72445523D01*
X157281666Y-72540761D01*
X157138809Y-72588380D01*
X156900714Y-72588380D01*
X158424523Y-72588380D02*
X157853095Y-72588380D01*
X158138809Y-72588380D02*
X158138809Y-71588380D01*
X158043571Y-71731238D01*
X157948333Y-71826476D01*
X157853095Y-71874095D01*
X158805476Y-71683619D02*
X158853095Y-71636000D01*
X158948333Y-71588380D01*
X159186428Y-71588380D01*
X159281666Y-71636000D01*
X159329285Y-71683619D01*
X159376904Y-71778857D01*
X159376904Y-71874095D01*
X159329285Y-72016952D01*
X158757857Y-72588380D01*
X159376904Y-72588380D01*
%TO.C,D11*%
X117037380Y-80879285D02*
X116037380Y-80879285D01*
X116037380Y-80641190D01*
X116085000Y-80498333D01*
X116180238Y-80403095D01*
X116275476Y-80355476D01*
X116465952Y-80307857D01*
X116608809Y-80307857D01*
X116799285Y-80355476D01*
X116894523Y-80403095D01*
X116989761Y-80498333D01*
X117037380Y-80641190D01*
X117037380Y-80879285D01*
X117037380Y-79355476D02*
X117037380Y-79926904D01*
X117037380Y-79641190D02*
X116037380Y-79641190D01*
X116180238Y-79736428D01*
X116275476Y-79831666D01*
X116323095Y-79926904D01*
X117037380Y-78403095D02*
X117037380Y-78974523D01*
X117037380Y-78688809D02*
X116037380Y-78688809D01*
X116180238Y-78784047D01*
X116275476Y-78879285D01*
X116323095Y-78974523D01*
%TO.C,D10*%
X127690714Y-72587380D02*
X127690714Y-71587380D01*
X127928809Y-71587380D01*
X128071666Y-71635000D01*
X128166904Y-71730238D01*
X128214523Y-71825476D01*
X128262142Y-72015952D01*
X128262142Y-72158809D01*
X128214523Y-72349285D01*
X128166904Y-72444523D01*
X128071666Y-72539761D01*
X127928809Y-72587380D01*
X127690714Y-72587380D01*
X129214523Y-72587380D02*
X128643095Y-72587380D01*
X128928809Y-72587380D02*
X128928809Y-71587380D01*
X128833571Y-71730238D01*
X128738333Y-71825476D01*
X128643095Y-71873095D01*
X129833571Y-71587380D02*
X129928809Y-71587380D01*
X130024047Y-71635000D01*
X130071666Y-71682619D01*
X130119285Y-71777857D01*
X130166904Y-71968333D01*
X130166904Y-72206428D01*
X130119285Y-72396904D01*
X130071666Y-72492142D01*
X130024047Y-72539761D01*
X129928809Y-72587380D01*
X129833571Y-72587380D01*
X129738333Y-72539761D01*
X129690714Y-72492142D01*
X129643095Y-72396904D01*
X129595476Y-72206428D01*
X129595476Y-71968333D01*
X129643095Y-71777857D01*
X129690714Y-71682619D01*
X129738333Y-71635000D01*
X129833571Y-71587380D01*
%TO.C,D9*%
X121181904Y-72587380D02*
X121181904Y-71587380D01*
X121420000Y-71587380D01*
X121562857Y-71635000D01*
X121658095Y-71730238D01*
X121705714Y-71825476D01*
X121753333Y-72015952D01*
X121753333Y-72158809D01*
X121705714Y-72349285D01*
X121658095Y-72444523D01*
X121562857Y-72539761D01*
X121420000Y-72587380D01*
X121181904Y-72587380D01*
X122229523Y-72587380D02*
X122420000Y-72587380D01*
X122515238Y-72539761D01*
X122562857Y-72492142D01*
X122658095Y-72349285D01*
X122705714Y-72158809D01*
X122705714Y-71777857D01*
X122658095Y-71682619D01*
X122610476Y-71635000D01*
X122515238Y-71587380D01*
X122324761Y-71587380D01*
X122229523Y-71635000D01*
X122181904Y-71682619D01*
X122134285Y-71777857D01*
X122134285Y-72015952D01*
X122181904Y-72111190D01*
X122229523Y-72158809D01*
X122324761Y-72206428D01*
X122515238Y-72206428D01*
X122610476Y-72158809D01*
X122658095Y-72111190D01*
X122705714Y-72015952D01*
%TO.C,TP5*%
X144534095Y-68066380D02*
X145105523Y-68066380D01*
X144819809Y-69066380D02*
X144819809Y-68066380D01*
X145438857Y-69066380D02*
X145438857Y-68066380D01*
X145819809Y-68066380D01*
X145915047Y-68114000D01*
X145962666Y-68161619D01*
X146010285Y-68256857D01*
X146010285Y-68399714D01*
X145962666Y-68494952D01*
X145915047Y-68542571D01*
X145819809Y-68590190D01*
X145438857Y-68590190D01*
X146915047Y-68066380D02*
X146438857Y-68066380D01*
X146391238Y-68542571D01*
X146438857Y-68494952D01*
X146534095Y-68447333D01*
X146772190Y-68447333D01*
X146867428Y-68494952D01*
X146915047Y-68542571D01*
X146962666Y-68637809D01*
X146962666Y-68875904D01*
X146915047Y-68971142D01*
X146867428Y-69018761D01*
X146772190Y-69066380D01*
X146534095Y-69066380D01*
X146438857Y-69018761D01*
X146391238Y-68971142D01*
%TO.C,TP4*%
X178062095Y-67558380D02*
X178633523Y-67558380D01*
X178347809Y-68558380D02*
X178347809Y-67558380D01*
X178966857Y-68558380D02*
X178966857Y-67558380D01*
X179347809Y-67558380D01*
X179443047Y-67606000D01*
X179490666Y-67653619D01*
X179538285Y-67748857D01*
X179538285Y-67891714D01*
X179490666Y-67986952D01*
X179443047Y-68034571D01*
X179347809Y-68082190D01*
X178966857Y-68082190D01*
X180395428Y-67891714D02*
X180395428Y-68558380D01*
X180157333Y-67510761D02*
X179919238Y-68225047D01*
X180538285Y-68225047D01*
%TO.C,TP3*%
X148598095Y-68066380D02*
X149169523Y-68066380D01*
X148883809Y-69066380D02*
X148883809Y-68066380D01*
X149502857Y-69066380D02*
X149502857Y-68066380D01*
X149883809Y-68066380D01*
X149979047Y-68114000D01*
X150026666Y-68161619D01*
X150074285Y-68256857D01*
X150074285Y-68399714D01*
X150026666Y-68494952D01*
X149979047Y-68542571D01*
X149883809Y-68590190D01*
X149502857Y-68590190D01*
X150407619Y-68066380D02*
X151026666Y-68066380D01*
X150693333Y-68447333D01*
X150836190Y-68447333D01*
X150931428Y-68494952D01*
X150979047Y-68542571D01*
X151026666Y-68637809D01*
X151026666Y-68875904D01*
X150979047Y-68971142D01*
X150931428Y-69018761D01*
X150836190Y-69066380D01*
X150550476Y-69066380D01*
X150455238Y-69018761D01*
X150407619Y-68971142D01*
%TO.C,TP2*%
X152662095Y-68066380D02*
X153233523Y-68066380D01*
X152947809Y-69066380D02*
X152947809Y-68066380D01*
X153566857Y-69066380D02*
X153566857Y-68066380D01*
X153947809Y-68066380D01*
X154043047Y-68114000D01*
X154090666Y-68161619D01*
X154138285Y-68256857D01*
X154138285Y-68399714D01*
X154090666Y-68494952D01*
X154043047Y-68542571D01*
X153947809Y-68590190D01*
X153566857Y-68590190D01*
X154519238Y-68161619D02*
X154566857Y-68114000D01*
X154662095Y-68066380D01*
X154900190Y-68066380D01*
X154995428Y-68114000D01*
X155043047Y-68161619D01*
X155090666Y-68256857D01*
X155090666Y-68352095D01*
X155043047Y-68494952D01*
X154471619Y-69066380D01*
X155090666Y-69066380D01*
%TO.C,TP1*%
X181618095Y-67558380D02*
X182189523Y-67558380D01*
X181903809Y-68558380D02*
X181903809Y-67558380D01*
X182522857Y-68558380D02*
X182522857Y-67558380D01*
X182903809Y-67558380D01*
X182999047Y-67606000D01*
X183046666Y-67653619D01*
X183094285Y-67748857D01*
X183094285Y-67891714D01*
X183046666Y-67986952D01*
X182999047Y-68034571D01*
X182903809Y-68082190D01*
X182522857Y-68082190D01*
X184046666Y-68558380D02*
X183475238Y-68558380D01*
X183760952Y-68558380D02*
X183760952Y-67558380D01*
X183665714Y-67701238D01*
X183570476Y-67796476D01*
X183475238Y-67844095D01*
%TO.C,M8*%
X192865476Y-136977380D02*
X192865476Y-135977380D01*
X193198809Y-136691666D01*
X193532142Y-135977380D01*
X193532142Y-136977380D01*
X194151190Y-136405952D02*
X194055952Y-136358333D01*
X194008333Y-136310714D01*
X193960714Y-136215476D01*
X193960714Y-136167857D01*
X194008333Y-136072619D01*
X194055952Y-136025000D01*
X194151190Y-135977380D01*
X194341666Y-135977380D01*
X194436904Y-136025000D01*
X194484523Y-136072619D01*
X194532142Y-136167857D01*
X194532142Y-136215476D01*
X194484523Y-136310714D01*
X194436904Y-136358333D01*
X194341666Y-136405952D01*
X194151190Y-136405952D01*
X194055952Y-136453571D01*
X194008333Y-136501190D01*
X193960714Y-136596428D01*
X193960714Y-136786904D01*
X194008333Y-136882142D01*
X194055952Y-136929761D01*
X194151190Y-136977380D01*
X194341666Y-136977380D01*
X194436904Y-136929761D01*
X194484523Y-136882142D01*
X194532142Y-136786904D01*
X194532142Y-136596428D01*
X194484523Y-136501190D01*
X194436904Y-136453571D01*
X194341666Y-136405952D01*
%TO.C,M7*%
X189891476Y-75361380D02*
X189891476Y-74361380D01*
X190224809Y-75075666D01*
X190558142Y-74361380D01*
X190558142Y-75361380D01*
X190939095Y-74361380D02*
X191605761Y-74361380D01*
X191177190Y-75361380D01*
%TO.C,M6*%
X166830476Y-140787380D02*
X166830476Y-139787380D01*
X167163809Y-140501666D01*
X167497142Y-139787380D01*
X167497142Y-140787380D01*
X168401904Y-139787380D02*
X168211428Y-139787380D01*
X168116190Y-139835000D01*
X168068571Y-139882619D01*
X167973333Y-140025476D01*
X167925714Y-140215952D01*
X167925714Y-140596904D01*
X167973333Y-140692142D01*
X168020952Y-140739761D01*
X168116190Y-140787380D01*
X168306666Y-140787380D01*
X168401904Y-140739761D01*
X168449523Y-140692142D01*
X168497142Y-140596904D01*
X168497142Y-140358809D01*
X168449523Y-140263571D01*
X168401904Y-140215952D01*
X168306666Y-140168333D01*
X168116190Y-140168333D01*
X168020952Y-140215952D01*
X167973333Y-140263571D01*
X167925714Y-140358809D01*
%TO.C,M5*%
X166574476Y-75996380D02*
X166574476Y-74996380D01*
X166907809Y-75710666D01*
X167241142Y-74996380D01*
X167241142Y-75996380D01*
X168193523Y-74996380D02*
X167717333Y-74996380D01*
X167669714Y-75472571D01*
X167717333Y-75424952D01*
X167812571Y-75377333D01*
X168050666Y-75377333D01*
X168145904Y-75424952D01*
X168193523Y-75472571D01*
X168241142Y-75567809D01*
X168241142Y-75805904D01*
X168193523Y-75901142D01*
X168145904Y-75948761D01*
X168050666Y-75996380D01*
X167812571Y-75996380D01*
X167717333Y-75948761D01*
X167669714Y-75901142D01*
%TO.C,J8*%
X190687666Y-94666380D02*
X190687666Y-95380666D01*
X190640047Y-95523523D01*
X190544809Y-95618761D01*
X190401952Y-95666380D01*
X190306714Y-95666380D01*
X191306714Y-95094952D02*
X191211476Y-95047333D01*
X191163857Y-94999714D01*
X191116238Y-94904476D01*
X191116238Y-94856857D01*
X191163857Y-94761619D01*
X191211476Y-94714000D01*
X191306714Y-94666380D01*
X191497190Y-94666380D01*
X191592428Y-94714000D01*
X191640047Y-94761619D01*
X191687666Y-94856857D01*
X191687666Y-94904476D01*
X191640047Y-94999714D01*
X191592428Y-95047333D01*
X191497190Y-95094952D01*
X191306714Y-95094952D01*
X191211476Y-95142571D01*
X191163857Y-95190190D01*
X191116238Y-95285428D01*
X191116238Y-95475904D01*
X191163857Y-95571142D01*
X191211476Y-95618761D01*
X191306714Y-95666380D01*
X191497190Y-95666380D01*
X191592428Y-95618761D01*
X191640047Y-95571142D01*
X191687666Y-95475904D01*
X191687666Y-95285428D01*
X191640047Y-95190190D01*
X191592428Y-95142571D01*
X191497190Y-95094952D01*
%TO.C,R6*%
X130643333Y-118307380D02*
X130310000Y-117831190D01*
X130071904Y-118307380D02*
X130071904Y-117307380D01*
X130452857Y-117307380D01*
X130548095Y-117355000D01*
X130595714Y-117402619D01*
X130643333Y-117497857D01*
X130643333Y-117640714D01*
X130595714Y-117735952D01*
X130548095Y-117783571D01*
X130452857Y-117831190D01*
X130071904Y-117831190D01*
X131500476Y-117307380D02*
X131310000Y-117307380D01*
X131214761Y-117355000D01*
X131167142Y-117402619D01*
X131071904Y-117545476D01*
X131024285Y-117735952D01*
X131024285Y-118116904D01*
X131071904Y-118212142D01*
X131119523Y-118259761D01*
X131214761Y-118307380D01*
X131405238Y-118307380D01*
X131500476Y-118259761D01*
X131548095Y-118212142D01*
X131595714Y-118116904D01*
X131595714Y-117878809D01*
X131548095Y-117783571D01*
X131500476Y-117735952D01*
X131405238Y-117688333D01*
X131214761Y-117688333D01*
X131119523Y-117735952D01*
X131071904Y-117783571D01*
X131024285Y-117878809D01*
%TO.C,R5*%
X136358333Y-118307380D02*
X136025000Y-117831190D01*
X135786904Y-118307380D02*
X135786904Y-117307380D01*
X136167857Y-117307380D01*
X136263095Y-117355000D01*
X136310714Y-117402619D01*
X136358333Y-117497857D01*
X136358333Y-117640714D01*
X136310714Y-117735952D01*
X136263095Y-117783571D01*
X136167857Y-117831190D01*
X135786904Y-117831190D01*
X137263095Y-117307380D02*
X136786904Y-117307380D01*
X136739285Y-117783571D01*
X136786904Y-117735952D01*
X136882142Y-117688333D01*
X137120238Y-117688333D01*
X137215476Y-117735952D01*
X137263095Y-117783571D01*
X137310714Y-117878809D01*
X137310714Y-118116904D01*
X137263095Y-118212142D01*
X137215476Y-118259761D01*
X137120238Y-118307380D01*
X136882142Y-118307380D01*
X136786904Y-118259761D01*
X136739285Y-118212142D01*
%TO.C,R4*%
X133818333Y-75762380D02*
X133485000Y-75286190D01*
X133246904Y-75762380D02*
X133246904Y-74762380D01*
X133627857Y-74762380D01*
X133723095Y-74810000D01*
X133770714Y-74857619D01*
X133818333Y-74952857D01*
X133818333Y-75095714D01*
X133770714Y-75190952D01*
X133723095Y-75238571D01*
X133627857Y-75286190D01*
X133246904Y-75286190D01*
X134675476Y-75095714D02*
X134675476Y-75762380D01*
X134437380Y-74714761D02*
X134199285Y-75429047D01*
X134818333Y-75429047D01*
%TO.C,R3*%
X138898333Y-75762380D02*
X138565000Y-75286190D01*
X138326904Y-75762380D02*
X138326904Y-74762380D01*
X138707857Y-74762380D01*
X138803095Y-74810000D01*
X138850714Y-74857619D01*
X138898333Y-74952857D01*
X138898333Y-75095714D01*
X138850714Y-75190952D01*
X138803095Y-75238571D01*
X138707857Y-75286190D01*
X138326904Y-75286190D01*
X139231666Y-74762380D02*
X139850714Y-74762380D01*
X139517380Y-75143333D01*
X139660238Y-75143333D01*
X139755476Y-75190952D01*
X139803095Y-75238571D01*
X139850714Y-75333809D01*
X139850714Y-75571904D01*
X139803095Y-75667142D01*
X139755476Y-75714761D01*
X139660238Y-75762380D01*
X139374523Y-75762380D01*
X139279285Y-75714761D01*
X139231666Y-75667142D01*
%TO.C,R2*%
X154502380Y-114466666D02*
X154026190Y-114800000D01*
X154502380Y-115038095D02*
X153502380Y-115038095D01*
X153502380Y-114657142D01*
X153550000Y-114561904D01*
X153597619Y-114514285D01*
X153692857Y-114466666D01*
X153835714Y-114466666D01*
X153930952Y-114514285D01*
X153978571Y-114561904D01*
X154026190Y-114657142D01*
X154026190Y-115038095D01*
X153597619Y-114085714D02*
X153550000Y-114038095D01*
X153502380Y-113942857D01*
X153502380Y-113704761D01*
X153550000Y-113609523D01*
X153597619Y-113561904D01*
X153692857Y-113514285D01*
X153788095Y-113514285D01*
X153930952Y-113561904D01*
X154502380Y-114133333D01*
X154502380Y-113514285D01*
%TO.C,R1*%
X159582380Y-114466666D02*
X159106190Y-114800000D01*
X159582380Y-115038095D02*
X158582380Y-115038095D01*
X158582380Y-114657142D01*
X158630000Y-114561904D01*
X158677619Y-114514285D01*
X158772857Y-114466666D01*
X158915714Y-114466666D01*
X159010952Y-114514285D01*
X159058571Y-114561904D01*
X159106190Y-114657142D01*
X159106190Y-115038095D01*
X159582380Y-113514285D02*
X159582380Y-114085714D01*
X159582380Y-113800000D02*
X158582380Y-113800000D01*
X158725238Y-113895238D01*
X158820476Y-113990476D01*
X158868095Y-114085714D01*
%TO.C,JP4*%
X157281666Y-106237380D02*
X157281666Y-106951666D01*
X157234047Y-107094523D01*
X157138809Y-107189761D01*
X156995952Y-107237380D01*
X156900714Y-107237380D01*
X157757857Y-107237380D02*
X157757857Y-106237380D01*
X158138809Y-106237380D01*
X158234047Y-106285000D01*
X158281666Y-106332619D01*
X158329285Y-106427857D01*
X158329285Y-106570714D01*
X158281666Y-106665952D01*
X158234047Y-106713571D01*
X158138809Y-106761190D01*
X157757857Y-106761190D01*
X159186428Y-106570714D02*
X159186428Y-107237380D01*
X158948333Y-106189761D02*
X158710238Y-106904047D01*
X159329285Y-106904047D01*
X155800714Y-109037380D02*
X155229285Y-109037380D01*
X155515000Y-109037380D02*
X155515000Y-108037380D01*
X155419761Y-108180238D01*
X155324523Y-108275476D01*
X155229285Y-108323095D01*
X160381666Y-108037380D02*
X161000714Y-108037380D01*
X160667380Y-108418333D01*
X160810238Y-108418333D01*
X160905476Y-108465952D01*
X160953095Y-108513571D01*
X161000714Y-108608809D01*
X161000714Y-108846904D01*
X160953095Y-108942142D01*
X160905476Y-108989761D01*
X160810238Y-109037380D01*
X160524523Y-109037380D01*
X160429285Y-108989761D01*
X160381666Y-108942142D01*
%TO.C,JP3*%
X148391666Y-106237380D02*
X148391666Y-106951666D01*
X148344047Y-107094523D01*
X148248809Y-107189761D01*
X148105952Y-107237380D01*
X148010714Y-107237380D01*
X148867857Y-107237380D02*
X148867857Y-106237380D01*
X149248809Y-106237380D01*
X149344047Y-106285000D01*
X149391666Y-106332619D01*
X149439285Y-106427857D01*
X149439285Y-106570714D01*
X149391666Y-106665952D01*
X149344047Y-106713571D01*
X149248809Y-106761190D01*
X148867857Y-106761190D01*
X149772619Y-106237380D02*
X150391666Y-106237380D01*
X150058333Y-106618333D01*
X150201190Y-106618333D01*
X150296428Y-106665952D01*
X150344047Y-106713571D01*
X150391666Y-106808809D01*
X150391666Y-107046904D01*
X150344047Y-107142142D01*
X150296428Y-107189761D01*
X150201190Y-107237380D01*
X149915476Y-107237380D01*
X149820238Y-107189761D01*
X149772619Y-107142142D01*
X146910714Y-109037380D02*
X146339285Y-109037380D01*
X146625000Y-109037380D02*
X146625000Y-108037380D01*
X146529761Y-108180238D01*
X146434523Y-108275476D01*
X146339285Y-108323095D01*
X151491666Y-108037380D02*
X152110714Y-108037380D01*
X151777380Y-108418333D01*
X151920238Y-108418333D01*
X152015476Y-108465952D01*
X152063095Y-108513571D01*
X152110714Y-108608809D01*
X152110714Y-108846904D01*
X152063095Y-108942142D01*
X152015476Y-108989761D01*
X151920238Y-109037380D01*
X151634523Y-109037380D01*
X151539285Y-108989761D01*
X151491666Y-108942142D01*
%TO.C,JP2*%
X157281666Y-99972380D02*
X157281666Y-100686666D01*
X157234047Y-100829523D01*
X157138809Y-100924761D01*
X156995952Y-100972380D01*
X156900714Y-100972380D01*
X157757857Y-100972380D02*
X157757857Y-99972380D01*
X158138809Y-99972380D01*
X158234047Y-100020000D01*
X158281666Y-100067619D01*
X158329285Y-100162857D01*
X158329285Y-100305714D01*
X158281666Y-100400952D01*
X158234047Y-100448571D01*
X158138809Y-100496190D01*
X157757857Y-100496190D01*
X158710238Y-100067619D02*
X158757857Y-100020000D01*
X158853095Y-99972380D01*
X159091190Y-99972380D01*
X159186428Y-100020000D01*
X159234047Y-100067619D01*
X159281666Y-100162857D01*
X159281666Y-100258095D01*
X159234047Y-100400952D01*
X158662619Y-100972380D01*
X159281666Y-100972380D01*
X155800714Y-102772380D02*
X155229285Y-102772380D01*
X155515000Y-102772380D02*
X155515000Y-101772380D01*
X155419761Y-101915238D01*
X155324523Y-102010476D01*
X155229285Y-102058095D01*
X160381666Y-101772380D02*
X161000714Y-101772380D01*
X160667380Y-102153333D01*
X160810238Y-102153333D01*
X160905476Y-102200952D01*
X160953095Y-102248571D01*
X161000714Y-102343809D01*
X161000714Y-102581904D01*
X160953095Y-102677142D01*
X160905476Y-102724761D01*
X160810238Y-102772380D01*
X160524523Y-102772380D01*
X160429285Y-102724761D01*
X160381666Y-102677142D01*
%TO.C,JP1*%
X148391666Y-99887380D02*
X148391666Y-100601666D01*
X148344047Y-100744523D01*
X148248809Y-100839761D01*
X148105952Y-100887380D01*
X148010714Y-100887380D01*
X148867857Y-100887380D02*
X148867857Y-99887380D01*
X149248809Y-99887380D01*
X149344047Y-99935000D01*
X149391666Y-99982619D01*
X149439285Y-100077857D01*
X149439285Y-100220714D01*
X149391666Y-100315952D01*
X149344047Y-100363571D01*
X149248809Y-100411190D01*
X148867857Y-100411190D01*
X150391666Y-100887380D02*
X149820238Y-100887380D01*
X150105952Y-100887380D02*
X150105952Y-99887380D01*
X150010714Y-100030238D01*
X149915476Y-100125476D01*
X149820238Y-100173095D01*
X146910714Y-102687380D02*
X146339285Y-102687380D01*
X146625000Y-102687380D02*
X146625000Y-101687380D01*
X146529761Y-101830238D01*
X146434523Y-101925476D01*
X146339285Y-101973095D01*
X151491666Y-101687380D02*
X152110714Y-101687380D01*
X151777380Y-102068333D01*
X151920238Y-102068333D01*
X152015476Y-102115952D01*
X152063095Y-102163571D01*
X152110714Y-102258809D01*
X152110714Y-102496904D01*
X152063095Y-102592142D01*
X152015476Y-102639761D01*
X151920238Y-102687380D01*
X151634523Y-102687380D01*
X151539285Y-102639761D01*
X151491666Y-102592142D01*
%TO.C,U3*%
X152908095Y-124012380D02*
X152908095Y-124821904D01*
X152955714Y-124917142D01*
X153003333Y-124964761D01*
X153098571Y-125012380D01*
X153289047Y-125012380D01*
X153384285Y-124964761D01*
X153431904Y-124917142D01*
X153479523Y-124821904D01*
X153479523Y-124012380D01*
X153860476Y-124012380D02*
X154479523Y-124012380D01*
X154146190Y-124393333D01*
X154289047Y-124393333D01*
X154384285Y-124440952D01*
X154431904Y-124488571D01*
X154479523Y-124583809D01*
X154479523Y-124821904D01*
X154431904Y-124917142D01*
X154384285Y-124964761D01*
X154289047Y-125012380D01*
X154003333Y-125012380D01*
X153908095Y-124964761D01*
X153860476Y-124917142D01*
%TO.C,J6*%
X159051666Y-144867380D02*
X159051666Y-145581666D01*
X159004047Y-145724523D01*
X158908809Y-145819761D01*
X158765952Y-145867380D01*
X158670714Y-145867380D01*
X159956428Y-144867380D02*
X159765952Y-144867380D01*
X159670714Y-144915000D01*
X159623095Y-144962619D01*
X159527857Y-145105476D01*
X159480238Y-145295952D01*
X159480238Y-145676904D01*
X159527857Y-145772142D01*
X159575476Y-145819761D01*
X159670714Y-145867380D01*
X159861190Y-145867380D01*
X159956428Y-145819761D01*
X160004047Y-145772142D01*
X160051666Y-145676904D01*
X160051666Y-145438809D01*
X160004047Y-145343571D01*
X159956428Y-145295952D01*
X159861190Y-145248333D01*
X159670714Y-145248333D01*
X159575476Y-145295952D01*
X159527857Y-145343571D01*
X159480238Y-145438809D01*
%TO.C,D6*%
X130071904Y-121482380D02*
X130071904Y-120482380D01*
X130310000Y-120482380D01*
X130452857Y-120530000D01*
X130548095Y-120625238D01*
X130595714Y-120720476D01*
X130643333Y-120910952D01*
X130643333Y-121053809D01*
X130595714Y-121244285D01*
X130548095Y-121339523D01*
X130452857Y-121434761D01*
X130310000Y-121482380D01*
X130071904Y-121482380D01*
X131500476Y-120482380D02*
X131310000Y-120482380D01*
X131214761Y-120530000D01*
X131167142Y-120577619D01*
X131071904Y-120720476D01*
X131024285Y-120910952D01*
X131024285Y-121291904D01*
X131071904Y-121387142D01*
X131119523Y-121434761D01*
X131214761Y-121482380D01*
X131405238Y-121482380D01*
X131500476Y-121434761D01*
X131548095Y-121387142D01*
X131595714Y-121291904D01*
X131595714Y-121053809D01*
X131548095Y-120958571D01*
X131500476Y-120910952D01*
X131405238Y-120863333D01*
X131214761Y-120863333D01*
X131119523Y-120910952D01*
X131071904Y-120958571D01*
X131024285Y-121053809D01*
%TO.C,D5*%
X135786904Y-121482380D02*
X135786904Y-120482380D01*
X136025000Y-120482380D01*
X136167857Y-120530000D01*
X136263095Y-120625238D01*
X136310714Y-120720476D01*
X136358333Y-120910952D01*
X136358333Y-121053809D01*
X136310714Y-121244285D01*
X136263095Y-121339523D01*
X136167857Y-121434761D01*
X136025000Y-121482380D01*
X135786904Y-121482380D01*
X137263095Y-120482380D02*
X136786904Y-120482380D01*
X136739285Y-120958571D01*
X136786904Y-120910952D01*
X136882142Y-120863333D01*
X137120238Y-120863333D01*
X137215476Y-120910952D01*
X137263095Y-120958571D01*
X137310714Y-121053809D01*
X137310714Y-121291904D01*
X137263095Y-121387142D01*
X137215476Y-121434761D01*
X137120238Y-121482380D01*
X136882142Y-121482380D01*
X136786904Y-121434761D01*
X136739285Y-121387142D01*
%TO.C,D4*%
X133246904Y-72587380D02*
X133246904Y-71587380D01*
X133485000Y-71587380D01*
X133627857Y-71635000D01*
X133723095Y-71730238D01*
X133770714Y-71825476D01*
X133818333Y-72015952D01*
X133818333Y-72158809D01*
X133770714Y-72349285D01*
X133723095Y-72444523D01*
X133627857Y-72539761D01*
X133485000Y-72587380D01*
X133246904Y-72587380D01*
X134675476Y-71920714D02*
X134675476Y-72587380D01*
X134437380Y-71539761D02*
X134199285Y-72254047D01*
X134818333Y-72254047D01*
%TO.C,D3*%
X138326904Y-72587380D02*
X138326904Y-71587380D01*
X138565000Y-71587380D01*
X138707857Y-71635000D01*
X138803095Y-71730238D01*
X138850714Y-71825476D01*
X138898333Y-72015952D01*
X138898333Y-72158809D01*
X138850714Y-72349285D01*
X138803095Y-72444523D01*
X138707857Y-72539761D01*
X138565000Y-72587380D01*
X138326904Y-72587380D01*
X139231666Y-71587380D02*
X139850714Y-71587380D01*
X139517380Y-71968333D01*
X139660238Y-71968333D01*
X139755476Y-72015952D01*
X139803095Y-72063571D01*
X139850714Y-72158809D01*
X139850714Y-72396904D01*
X139803095Y-72492142D01*
X139755476Y-72539761D01*
X139660238Y-72587380D01*
X139374523Y-72587380D01*
X139279285Y-72539761D01*
X139231666Y-72492142D01*
%TO.C,D2*%
X151327380Y-115038095D02*
X150327380Y-115038095D01*
X150327380Y-114800000D01*
X150375000Y-114657142D01*
X150470238Y-114561904D01*
X150565476Y-114514285D01*
X150755952Y-114466666D01*
X150898809Y-114466666D01*
X151089285Y-114514285D01*
X151184523Y-114561904D01*
X151279761Y-114657142D01*
X151327380Y-114800000D01*
X151327380Y-115038095D01*
X150422619Y-114085714D02*
X150375000Y-114038095D01*
X150327380Y-113942857D01*
X150327380Y-113704761D01*
X150375000Y-113609523D01*
X150422619Y-113561904D01*
X150517857Y-113514285D01*
X150613095Y-113514285D01*
X150755952Y-113561904D01*
X151327380Y-114133333D01*
X151327380Y-113514285D01*
%TO.C,D1*%
X162757380Y-115038095D02*
X161757380Y-115038095D01*
X161757380Y-114800000D01*
X161805000Y-114657142D01*
X161900238Y-114561904D01*
X161995476Y-114514285D01*
X162185952Y-114466666D01*
X162328809Y-114466666D01*
X162519285Y-114514285D01*
X162614523Y-114561904D01*
X162709761Y-114657142D01*
X162757380Y-114800000D01*
X162757380Y-115038095D01*
X162757380Y-113514285D02*
X162757380Y-114085714D01*
X162757380Y-113800000D02*
X161757380Y-113800000D01*
X161900238Y-113895238D01*
X161995476Y-113990476D01*
X162043095Y-114085714D01*
%TO.C,C8*%
X163319642Y-132246666D02*
X163367261Y-132294285D01*
X163414880Y-132437142D01*
X163414880Y-132532380D01*
X163367261Y-132675238D01*
X163272023Y-132770476D01*
X163176785Y-132818095D01*
X162986309Y-132865714D01*
X162843452Y-132865714D01*
X162652976Y-132818095D01*
X162557738Y-132770476D01*
X162462500Y-132675238D01*
X162414880Y-132532380D01*
X162414880Y-132437142D01*
X162462500Y-132294285D01*
X162510119Y-132246666D01*
X162843452Y-131675238D02*
X162795833Y-131770476D01*
X162748214Y-131818095D01*
X162652976Y-131865714D01*
X162605357Y-131865714D01*
X162510119Y-131818095D01*
X162462500Y-131770476D01*
X162414880Y-131675238D01*
X162414880Y-131484761D01*
X162462500Y-131389523D01*
X162510119Y-131341904D01*
X162605357Y-131294285D01*
X162652976Y-131294285D01*
X162748214Y-131341904D01*
X162795833Y-131389523D01*
X162843452Y-131484761D01*
X162843452Y-131675238D01*
X162891071Y-131770476D01*
X162938690Y-131818095D01*
X163033928Y-131865714D01*
X163224404Y-131865714D01*
X163319642Y-131818095D01*
X163367261Y-131770476D01*
X163414880Y-131675238D01*
X163414880Y-131484761D01*
X163367261Y-131389523D01*
X163319642Y-131341904D01*
X163224404Y-131294285D01*
X163033928Y-131294285D01*
X162938690Y-131341904D01*
X162891071Y-131389523D01*
X162843452Y-131484761D01*
%TO.C,C7*%
X154773333Y-121232142D02*
X154725714Y-121279761D01*
X154582857Y-121327380D01*
X154487619Y-121327380D01*
X154344761Y-121279761D01*
X154249523Y-121184523D01*
X154201904Y-121089285D01*
X154154285Y-120898809D01*
X154154285Y-120755952D01*
X154201904Y-120565476D01*
X154249523Y-120470238D01*
X154344761Y-120375000D01*
X154487619Y-120327380D01*
X154582857Y-120327380D01*
X154725714Y-120375000D01*
X154773333Y-120422619D01*
X155106666Y-120327380D02*
X155773333Y-120327380D01*
X155344761Y-121327380D01*
%TO.C,C6*%
X154773333Y-118057142D02*
X154725714Y-118104761D01*
X154582857Y-118152380D01*
X154487619Y-118152380D01*
X154344761Y-118104761D01*
X154249523Y-118009523D01*
X154201904Y-117914285D01*
X154154285Y-117723809D01*
X154154285Y-117580952D01*
X154201904Y-117390476D01*
X154249523Y-117295238D01*
X154344761Y-117200000D01*
X154487619Y-117152380D01*
X154582857Y-117152380D01*
X154725714Y-117200000D01*
X154773333Y-117247619D01*
X155630476Y-117152380D02*
X155440000Y-117152380D01*
X155344761Y-117200000D01*
X155297142Y-117247619D01*
X155201904Y-117390476D01*
X155154285Y-117580952D01*
X155154285Y-117961904D01*
X155201904Y-118057142D01*
X155249523Y-118104761D01*
X155344761Y-118152380D01*
X155535238Y-118152380D01*
X155630476Y-118104761D01*
X155678095Y-118057142D01*
X155725714Y-117961904D01*
X155725714Y-117723809D01*
X155678095Y-117628571D01*
X155630476Y-117580952D01*
X155535238Y-117533333D01*
X155344761Y-117533333D01*
X155249523Y-117580952D01*
X155201904Y-117628571D01*
X155154285Y-117723809D01*
%TO.C,M4*%
X186515476Y-143962380D02*
X186515476Y-142962380D01*
X186848809Y-143676666D01*
X187182142Y-142962380D01*
X187182142Y-143962380D01*
X188086904Y-143295714D02*
X188086904Y-143962380D01*
X187848809Y-142914761D02*
X187610714Y-143629047D01*
X188229761Y-143629047D01*
%TO.C,M3*%
X111106476Y-140316380D02*
X111106476Y-139316380D01*
X111439809Y-140030666D01*
X111773142Y-139316380D01*
X111773142Y-140316380D01*
X112154095Y-139316380D02*
X112773142Y-139316380D01*
X112439809Y-139697333D01*
X112582666Y-139697333D01*
X112677904Y-139744952D01*
X112725523Y-139792571D01*
X112773142Y-139887809D01*
X112773142Y-140125904D01*
X112725523Y-140221142D01*
X112677904Y-140268761D01*
X112582666Y-140316380D01*
X112296952Y-140316380D01*
X112201714Y-140268761D01*
X112154095Y-140221142D01*
%TO.C,M2*%
X188576476Y-54591380D02*
X188576476Y-53591380D01*
X188909809Y-54305666D01*
X189243142Y-53591380D01*
X189243142Y-54591380D01*
X189671714Y-53686619D02*
X189719333Y-53639000D01*
X189814571Y-53591380D01*
X190052666Y-53591380D01*
X190147904Y-53639000D01*
X190195523Y-53686619D01*
X190243142Y-53781857D01*
X190243142Y-53877095D01*
X190195523Y-54019952D01*
X189624095Y-54591380D01*
X190243142Y-54591380D01*
%TO.C,M1*%
X114916476Y-54591380D02*
X114916476Y-53591380D01*
X115249809Y-54305666D01*
X115583142Y-53591380D01*
X115583142Y-54591380D01*
X116583142Y-54591380D02*
X116011714Y-54591380D01*
X116297428Y-54591380D02*
X116297428Y-53591380D01*
X116202190Y-53734238D01*
X116106952Y-53829476D01*
X116011714Y-53877095D01*
%TO.C,J7*%
X183070380Y-144097333D02*
X183784666Y-144097333D01*
X183927523Y-144144952D01*
X184022761Y-144240190D01*
X184070380Y-144383047D01*
X184070380Y-144478285D01*
X183070380Y-143716380D02*
X183070380Y-143049714D01*
X184070380Y-143478285D01*
%TO.C,J4*%
X113672666Y-63051380D02*
X113672666Y-63765666D01*
X113625047Y-63908523D01*
X113529809Y-64003761D01*
X113386952Y-64051380D01*
X113291714Y-64051380D01*
X114577428Y-63384714D02*
X114577428Y-64051380D01*
X114339333Y-63003761D02*
X114101238Y-63718047D01*
X114720285Y-63718047D01*
%TO.C,J3*%
X121586666Y-81772380D02*
X121586666Y-82486666D01*
X121539047Y-82629523D01*
X121443809Y-82724761D01*
X121300952Y-82772380D01*
X121205714Y-82772380D01*
X121967619Y-81772380D02*
X122586666Y-81772380D01*
X122253333Y-82153333D01*
X122396190Y-82153333D01*
X122491428Y-82200952D01*
X122539047Y-82248571D01*
X122586666Y-82343809D01*
X122586666Y-82581904D01*
X122539047Y-82677142D01*
X122491428Y-82724761D01*
X122396190Y-82772380D01*
X122110476Y-82772380D01*
X122015238Y-82724761D01*
X121967619Y-82677142D01*
%TO.C,J2*%
X121586666Y-136842380D02*
X121586666Y-137556666D01*
X121539047Y-137699523D01*
X121443809Y-137794761D01*
X121300952Y-137842380D01*
X121205714Y-137842380D01*
X122015238Y-136937619D02*
X122062857Y-136890000D01*
X122158095Y-136842380D01*
X122396190Y-136842380D01*
X122491428Y-136890000D01*
X122539047Y-136937619D01*
X122586666Y-137032857D01*
X122586666Y-137128095D01*
X122539047Y-137270952D01*
X121967619Y-137842380D01*
X122586666Y-137842380D01*
%TO.C,H2*%
X119888095Y-55697380D02*
X119888095Y-54697380D01*
X119888095Y-55173571D02*
X120459523Y-55173571D01*
X120459523Y-55697380D02*
X120459523Y-54697380D01*
X120888095Y-54792619D02*
X120935714Y-54745000D01*
X121030952Y-54697380D01*
X121269047Y-54697380D01*
X121364285Y-54745000D01*
X121411904Y-54792619D01*
X121459523Y-54887857D01*
X121459523Y-54983095D01*
X121411904Y-55125952D01*
X120840476Y-55697380D01*
X121459523Y-55697380D01*
%TO.C,H1*%
X119888095Y-68397380D02*
X119888095Y-67397380D01*
X119888095Y-67873571D02*
X120459523Y-67873571D01*
X120459523Y-68397380D02*
X120459523Y-67397380D01*
X121459523Y-68397380D02*
X120888095Y-68397380D01*
X121173809Y-68397380D02*
X121173809Y-67397380D01*
X121078571Y-67540238D01*
X120983333Y-67635476D01*
X120888095Y-67683095D01*
%TO.C,C5*%
X144912142Y-128436666D02*
X144959761Y-128484285D01*
X145007380Y-128627142D01*
X145007380Y-128722380D01*
X144959761Y-128865238D01*
X144864523Y-128960476D01*
X144769285Y-129008095D01*
X144578809Y-129055714D01*
X144435952Y-129055714D01*
X144245476Y-129008095D01*
X144150238Y-128960476D01*
X144055000Y-128865238D01*
X144007380Y-128722380D01*
X144007380Y-128627142D01*
X144055000Y-128484285D01*
X144102619Y-128436666D01*
X144007380Y-127531904D02*
X144007380Y-128008095D01*
X144483571Y-128055714D01*
X144435952Y-128008095D01*
X144388333Y-127912857D01*
X144388333Y-127674761D01*
X144435952Y-127579523D01*
X144483571Y-127531904D01*
X144578809Y-127484285D01*
X144816904Y-127484285D01*
X144912142Y-127531904D01*
X144959761Y-127579523D01*
X145007380Y-127674761D01*
X145007380Y-127912857D01*
X144959761Y-128008095D01*
X144912142Y-128055714D01*
%TO.C,C4*%
X133072142Y-137961666D02*
X133119761Y-138009285D01*
X133167380Y-138152142D01*
X133167380Y-138247380D01*
X133119761Y-138390238D01*
X133024523Y-138485476D01*
X132929285Y-138533095D01*
X132738809Y-138580714D01*
X132595952Y-138580714D01*
X132405476Y-138533095D01*
X132310238Y-138485476D01*
X132215000Y-138390238D01*
X132167380Y-138247380D01*
X132167380Y-138152142D01*
X132215000Y-138009285D01*
X132262619Y-137961666D01*
X132500714Y-137104523D02*
X133167380Y-137104523D01*
X132119761Y-137342619D02*
X132834047Y-137580714D01*
X132834047Y-136961666D01*
%TO.C,C3*%
X135320833Y-123772142D02*
X135273214Y-123819761D01*
X135130357Y-123867380D01*
X135035119Y-123867380D01*
X134892261Y-123819761D01*
X134797023Y-123724523D01*
X134749404Y-123629285D01*
X134701785Y-123438809D01*
X134701785Y-123295952D01*
X134749404Y-123105476D01*
X134797023Y-123010238D01*
X134892261Y-122915000D01*
X135035119Y-122867380D01*
X135130357Y-122867380D01*
X135273214Y-122915000D01*
X135320833Y-122962619D01*
X135654166Y-122867380D02*
X136273214Y-122867380D01*
X135939880Y-123248333D01*
X136082738Y-123248333D01*
X136177976Y-123295952D01*
X136225595Y-123343571D01*
X136273214Y-123438809D01*
X136273214Y-123676904D01*
X136225595Y-123772142D01*
X136177976Y-123819761D01*
X136082738Y-123867380D01*
X135797023Y-123867380D01*
X135701785Y-123819761D01*
X135654166Y-123772142D01*
%TO.C,C2*%
X132847142Y-132881666D02*
X132894761Y-132929285D01*
X132942380Y-133072142D01*
X132942380Y-133167380D01*
X132894761Y-133310238D01*
X132799523Y-133405476D01*
X132704285Y-133453095D01*
X132513809Y-133500714D01*
X132370952Y-133500714D01*
X132180476Y-133453095D01*
X132085238Y-133405476D01*
X131990000Y-133310238D01*
X131942380Y-133167380D01*
X131942380Y-133072142D01*
X131990000Y-132929285D01*
X132037619Y-132881666D01*
X132037619Y-132500714D02*
X131990000Y-132453095D01*
X131942380Y-132357857D01*
X131942380Y-132119761D01*
X131990000Y-132024523D01*
X132037619Y-131976904D01*
X132132857Y-131929285D01*
X132228095Y-131929285D01*
X132370952Y-131976904D01*
X132942380Y-132548333D01*
X132942380Y-131929285D01*
%TO.C,C1*%
X129487142Y-127801666D02*
X129534761Y-127849285D01*
X129582380Y-127992142D01*
X129582380Y-128087380D01*
X129534761Y-128230238D01*
X129439523Y-128325476D01*
X129344285Y-128373095D01*
X129153809Y-128420714D01*
X129010952Y-128420714D01*
X128820476Y-128373095D01*
X128725238Y-128325476D01*
X128630000Y-128230238D01*
X128582380Y-128087380D01*
X128582380Y-127992142D01*
X128630000Y-127849285D01*
X128677619Y-127801666D01*
X129582380Y-126849285D02*
X129582380Y-127420714D01*
X129582380Y-127135000D02*
X128582380Y-127135000D01*
X128725238Y-127230238D01*
X128820476Y-127325476D01*
X128868095Y-127420714D01*
%TD*%
M02*
