M48
; DRILL file {KiCad (5.1.9)-1} date 10/11/21 12:09:33
; FORMAT={-:-/ absolute / inch / decimal}
; #@! TF.CreationDate,2021-10-11T12:09:33-04:00
; #@! TF.GenerationSoftware,Kicad,Pcbnew,(5.1.9)-1
; #@! TF.FileFunction,Plated,1,2,PTH
FMAT,2
INCH
T1C0.0157
T2C0.0197
T3C0.0300
T4C0.0315
T5C0.0394
T6C0.1260
%
G90
G05
T1
X4.7Y-2.925
X4.7455Y-2.9891
X4.89Y-2.685
X5.225Y-3.375
X5.25Y-3.8
X5.25Y-3.725
X5.285Y-2.685
X5.3Y-3.525
X5.485Y-2.69
X5.525Y-4.35
X5.55Y-4.525
X5.675Y-4.425
X5.6762Y-4.1488
X5.725Y-4.3
X5.725Y-4.625
X5.7488Y-4.1
X5.8Y-4.475
X5.9Y-5.65
X5.925Y-5.0856
X5.925Y-5.15
X5.9262Y-4.1012
X5.9438Y-5.0439
X5.95Y-4.475
X5.9876Y-5.6624
X6.0Y-5.225
X6.05Y-4.575
X6.075Y-5.075
X6.1Y-4.6896
X6.121Y-4.725
X6.165Y-2.695
X6.26Y-4.595
X6.2762Y-4.1488
X6.3189Y-5.0
X6.35Y-4.8
X6.4Y-2.86
X6.44Y-2.9
X6.45Y-4.525
X6.4888Y-2.7612
X6.5Y-5.625
X6.5324Y-2.8048
X6.7674Y-4.1076
X6.7674Y-4.2076
X6.7674Y-4.3076
X6.9Y-5.0
X6.95Y-4.875
X7.0Y-4.05
X7.0326Y-4.1076
X7.0326Y-4.2076
X7.0326Y-4.3076
T2
X4.4884Y-2.5842
X4.4884Y-2.6334
X4.4884Y-2.6826
X4.4884Y-2.7319
X4.4884Y-2.7811
X4.4884Y-2.8303
X4.4884Y-2.8795
X4.4884Y-2.9287
X4.4884Y-2.9779
X4.525Y-4.425
X4.7Y-4.425
X5.15Y-5.35
X5.225Y-4.725
X5.525Y-4.725
X5.6Y-4.975
X5.95Y-4.775
X5.975Y-5.5
X6.01Y-2.66
X6.05Y-4.075
X6.05Y-4.275
X6.35Y-5.5
X6.775Y-5.4
X6.975Y-5.575
T3
X5.325Y-3.65
X5.425Y-3.65
X5.525Y-3.05
X5.525Y-3.65
X5.625Y-3.05
X5.625Y-3.65
X5.725Y-3.05
X5.725Y-3.65
X5.825Y-3.05
X5.825Y-3.65
X5.925Y-3.05
X5.925Y-3.65
X6.025Y-3.65
X6.125Y-3.65
T4
X6.0579Y-5.375
X6.25Y-5.375
T5
X4.75Y-3.35
X4.75Y-3.45
X4.75Y-3.55
X4.75Y-3.65
X4.75Y-3.75
X4.75Y-3.85
X4.75Y-3.95
X4.75Y-4.05
X4.75Y-4.15
X4.75Y-4.25
X4.75Y-4.6
X4.75Y-4.7
X4.75Y-4.8
X4.75Y-4.9
X4.75Y-5.0
X4.75Y-5.1
X4.75Y-5.2
X4.75Y-5.3
X4.7561Y-2.2811
X4.7561Y-2.3811
X4.7561Y-2.4811
X4.7561Y-2.5811
X4.85Y-3.35
X4.85Y-3.45
X4.85Y-3.55
X4.85Y-3.65
X4.85Y-3.75
X4.85Y-3.85
X4.85Y-3.95
X4.85Y-4.05
X4.85Y-4.15
X4.85Y-4.25
X4.85Y-4.6
X4.85Y-4.7
X4.85Y-4.8
X4.85Y-4.9
X4.85Y-5.0
X4.85Y-5.1
X4.85Y-5.2
X4.85Y-5.3
X4.8561Y-2.2811
X4.8561Y-2.3811
X4.8561Y-2.4811
X4.8561Y-2.5811
X4.9561Y-2.2811
X4.9561Y-2.3811
X4.9561Y-2.4811
X4.9561Y-2.5811
X5.0561Y-2.2811
X5.0561Y-2.3811
X5.0561Y-2.4811
X5.0561Y-2.5811
X5.1561Y-2.2811
X5.1561Y-2.3811
X5.1561Y-2.4811
X5.1561Y-2.5811
X5.2561Y-2.2811
X5.2561Y-2.3811
X5.2561Y-2.4811
X5.2561Y-2.5811
X5.3561Y-2.2811
X5.3561Y-2.3811
X5.3561Y-2.4811
X5.3561Y-2.5811
X5.4561Y-2.2811
X5.4561Y-2.3811
X5.4561Y-2.4811
X5.4561Y-2.5811
X5.5561Y-2.2811
X5.5561Y-2.3811
X5.5561Y-2.4811
X5.5561Y-2.5811
X5.6561Y-2.2811
X5.6561Y-2.3811
X5.6561Y-2.4811
X5.6561Y-2.5811
X5.7561Y-2.2811
X5.7561Y-2.3811
X5.7561Y-2.4811
X5.7561Y-2.5811
X5.8561Y-2.2811
X5.8561Y-2.3811
X5.8561Y-2.4811
X5.8561Y-2.5811
X5.9561Y-2.2811
X5.9561Y-2.3811
X5.9561Y-2.4811
X5.9561Y-2.5811
X6.0561Y-2.2811
X6.0561Y-2.3811
X6.0561Y-2.4811
X6.0561Y-2.5811
X6.1561Y-2.2811
X6.1561Y-2.3811
X6.1561Y-2.4811
X6.1561Y-2.5811
X6.2561Y-2.2811
X6.2561Y-2.3811
X6.2561Y-2.4811
X6.2561Y-2.5811
X6.3561Y-2.2811
X6.3561Y-2.3811
X6.3561Y-2.4811
X6.3561Y-2.5811
X6.4561Y-2.2811
X6.4561Y-2.3811
X6.4561Y-2.4811
X6.4561Y-2.5811
X6.5455Y-3.3076
X6.5455Y-3.4076
X6.5455Y-3.5076
X6.5455Y-3.6076
X6.5455Y-3.7076
X6.5455Y-3.8076
X6.5455Y-3.9076
X6.5455Y-4.0076
X6.5455Y-4.1076
X6.5455Y-4.2076
X6.5455Y-4.3076
X6.5455Y-4.4076
X6.5455Y-4.5076
X6.5455Y-4.6076
X6.5455Y-4.7076
X6.5455Y-4.8076
X6.5455Y-4.9076
X6.5455Y-5.0076
X6.5455Y-5.1076
X6.5455Y-5.2076
X6.5561Y-2.2811
X6.5561Y-2.3811
X6.5561Y-2.4811
X6.5561Y-2.5811
X6.6455Y-3.3076
X6.6455Y-3.4076
X6.6455Y-3.5076
X6.6455Y-3.6076
X6.6455Y-3.7076
X6.6455Y-3.8076
X6.6455Y-3.9076
X6.6455Y-4.0076
X6.6455Y-4.1076
X6.6455Y-4.2076
X6.6455Y-4.3076
X6.6455Y-4.4076
X6.6455Y-4.5076
X6.6455Y-4.6076
X6.6455Y-4.7076
X6.6455Y-4.8076
X6.6455Y-4.9076
X6.6455Y-5.0076
X6.6455Y-5.1076
X6.6455Y-5.2076
X6.6561Y-2.2811
X6.6561Y-2.3811
X6.6561Y-2.4811
X6.6561Y-2.5811
X6.7561Y-2.2811
X6.7561Y-2.3811
X6.7561Y-2.4811
X6.7561Y-2.5811
X6.8561Y-2.2811
X6.8561Y-2.3811
X6.8561Y-2.4811
X6.8561Y-2.5811
X6.9561Y-2.2811
X6.9561Y-2.3811
X6.9561Y-2.4811
X6.9561Y-2.5811
X7.0561Y-2.2811
X7.0561Y-2.3811
X7.0561Y-2.4811
X7.0561Y-2.5811
X7.1561Y-2.2811
X7.1561Y-2.3811
X7.1561Y-2.4811
X7.1561Y-2.5811
X7.2561Y-2.2811
X7.2561Y-2.3811
X7.2561Y-2.4811
X7.2561Y-2.5811
T6
X4.4061Y-5.6561
X4.5561Y-2.2811
X7.4561Y-2.2811
X7.5561Y-5.6561
T0
M30
