%TF.GenerationSoftware,KiCad,Pcbnew,(5.1.9)-1*%
%TF.CreationDate,2021-10-14T23:09:40-04:00*%
%TF.ProjectId,REVERB Interface,52455645-5242-4204-996e-746572666163,rev?*%
%TF.SameCoordinates,Original*%
%TF.FileFunction,Paste,Top*%
%TF.FilePolarity,Positive*%
%FSLAX46Y46*%
G04 Gerber Fmt 4.6, Leading zero omitted, Abs format (unit mm)*
G04 Created by KiCad (PCBNEW (5.1.9)-1) date 2021-10-14 23:09:40*
%MOMM*%
%LPD*%
G01*
G04 APERTURE LIST*
G04 APERTURE END LIST*
%TO.C,R12*%
G36*
G01*
X158515000Y-74110001D02*
X158515000Y-73209999D01*
G75*
G02*
X158764999Y-72960000I249999J0D01*
G01*
X159465001Y-72960000D01*
G75*
G02*
X159715000Y-73209999I0J-249999D01*
G01*
X159715000Y-74110001D01*
G75*
G02*
X159465001Y-74360000I-249999J0D01*
G01*
X158764999Y-74360000D01*
G75*
G02*
X158515000Y-74110001I0J249999D01*
G01*
G37*
G36*
G01*
X156515000Y-74110001D02*
X156515000Y-73209999D01*
G75*
G02*
X156764999Y-72960000I249999J0D01*
G01*
X157465001Y-72960000D01*
G75*
G02*
X157715000Y-73209999I0J-249999D01*
G01*
X157715000Y-74110001D01*
G75*
G02*
X157465001Y-74360000I-249999J0D01*
G01*
X156764999Y-74360000D01*
G75*
G02*
X156515000Y-74110001I0J249999D01*
G01*
G37*
%TD*%
%TO.C,R11*%
G36*
G01*
X111079999Y-80583000D02*
X111980001Y-80583000D01*
G75*
G02*
X112230000Y-80832999I0J-249999D01*
G01*
X112230000Y-81533001D01*
G75*
G02*
X111980001Y-81783000I-249999J0D01*
G01*
X111079999Y-81783000D01*
G75*
G02*
X110830000Y-81533001I0J249999D01*
G01*
X110830000Y-80832999D01*
G75*
G02*
X111079999Y-80583000I249999J0D01*
G01*
G37*
G36*
G01*
X111079999Y-78583000D02*
X111980001Y-78583000D01*
G75*
G02*
X112230000Y-78832999I0J-249999D01*
G01*
X112230000Y-79533001D01*
G75*
G02*
X111980001Y-79783000I-249999J0D01*
G01*
X111079999Y-79783000D01*
G75*
G02*
X110830000Y-79533001I0J249999D01*
G01*
X110830000Y-78832999D01*
G75*
G02*
X111079999Y-78583000I249999J0D01*
G01*
G37*
%TD*%
%TO.C,R10*%
G36*
G01*
X129140000Y-73209999D02*
X129140000Y-74110001D01*
G75*
G02*
X128890001Y-74360000I-249999J0D01*
G01*
X128189999Y-74360000D01*
G75*
G02*
X127940000Y-74110001I0J249999D01*
G01*
X127940000Y-73209999D01*
G75*
G02*
X128189999Y-72960000I249999J0D01*
G01*
X128890001Y-72960000D01*
G75*
G02*
X129140000Y-73209999I0J-249999D01*
G01*
G37*
G36*
G01*
X131140000Y-73209999D02*
X131140000Y-74110001D01*
G75*
G02*
X130890001Y-74360000I-249999J0D01*
G01*
X130189999Y-74360000D01*
G75*
G02*
X129940000Y-74110001I0J249999D01*
G01*
X129940000Y-73209999D01*
G75*
G02*
X130189999Y-72960000I249999J0D01*
G01*
X130890001Y-72960000D01*
G75*
G02*
X131140000Y-73209999I0J-249999D01*
G01*
G37*
%TD*%
%TO.C,R9*%
G36*
G01*
X122790000Y-73209999D02*
X122790000Y-74110001D01*
G75*
G02*
X122540001Y-74360000I-249999J0D01*
G01*
X121839999Y-74360000D01*
G75*
G02*
X121590000Y-74110001I0J249999D01*
G01*
X121590000Y-73209999D01*
G75*
G02*
X121839999Y-72960000I249999J0D01*
G01*
X122540001Y-72960000D01*
G75*
G02*
X122790000Y-73209999I0J-249999D01*
G01*
G37*
G36*
G01*
X124790000Y-73209999D02*
X124790000Y-74110001D01*
G75*
G02*
X124540001Y-74360000I-249999J0D01*
G01*
X123839999Y-74360000D01*
G75*
G02*
X123590000Y-74110001I0J249999D01*
G01*
X123590000Y-73209999D01*
G75*
G02*
X123839999Y-72960000I249999J0D01*
G01*
X124540001Y-72960000D01*
G75*
G02*
X124790000Y-73209999I0J-249999D01*
G01*
G37*
%TD*%
%TO.C,D12*%
G36*
G01*
X158565000Y-70935001D02*
X158565000Y-70034999D01*
G75*
G02*
X158814999Y-69785000I249999J0D01*
G01*
X159465001Y-69785000D01*
G75*
G02*
X159715000Y-70034999I0J-249999D01*
G01*
X159715000Y-70935001D01*
G75*
G02*
X159465001Y-71185000I-249999J0D01*
G01*
X158814999Y-71185000D01*
G75*
G02*
X158565000Y-70935001I0J249999D01*
G01*
G37*
G36*
G01*
X156515000Y-70935001D02*
X156515000Y-70034999D01*
G75*
G02*
X156764999Y-69785000I249999J0D01*
G01*
X157415001Y-69785000D01*
G75*
G02*
X157665000Y-70034999I0J-249999D01*
G01*
X157665000Y-70935001D01*
G75*
G02*
X157415001Y-71185000I-249999J0D01*
G01*
X156764999Y-71185000D01*
G75*
G02*
X156515000Y-70935001I0J249999D01*
G01*
G37*
%TD*%
%TO.C,D11*%
G36*
G01*
X114738999Y-80587000D02*
X115639001Y-80587000D01*
G75*
G02*
X115889000Y-80836999I0J-249999D01*
G01*
X115889000Y-81487001D01*
G75*
G02*
X115639001Y-81737000I-249999J0D01*
G01*
X114738999Y-81737000D01*
G75*
G02*
X114489000Y-81487001I0J249999D01*
G01*
X114489000Y-80836999D01*
G75*
G02*
X114738999Y-80587000I249999J0D01*
G01*
G37*
G36*
G01*
X114738999Y-78537000D02*
X115639001Y-78537000D01*
G75*
G02*
X115889000Y-78786999I0J-249999D01*
G01*
X115889000Y-79437001D01*
G75*
G02*
X115639001Y-79687000I-249999J0D01*
G01*
X114738999Y-79687000D01*
G75*
G02*
X114489000Y-79437001I0J249999D01*
G01*
X114489000Y-78786999D01*
G75*
G02*
X114738999Y-78537000I249999J0D01*
G01*
G37*
%TD*%
%TO.C,D10*%
G36*
G01*
X129090000Y-70034999D02*
X129090000Y-70935001D01*
G75*
G02*
X128840001Y-71185000I-249999J0D01*
G01*
X128189999Y-71185000D01*
G75*
G02*
X127940000Y-70935001I0J249999D01*
G01*
X127940000Y-70034999D01*
G75*
G02*
X128189999Y-69785000I249999J0D01*
G01*
X128840001Y-69785000D01*
G75*
G02*
X129090000Y-70034999I0J-249999D01*
G01*
G37*
G36*
G01*
X131140000Y-70034999D02*
X131140000Y-70935001D01*
G75*
G02*
X130890001Y-71185000I-249999J0D01*
G01*
X130239999Y-71185000D01*
G75*
G02*
X129990000Y-70935001I0J249999D01*
G01*
X129990000Y-70034999D01*
G75*
G02*
X130239999Y-69785000I249999J0D01*
G01*
X130890001Y-69785000D01*
G75*
G02*
X131140000Y-70034999I0J-249999D01*
G01*
G37*
%TD*%
%TO.C,D9*%
G36*
G01*
X122740000Y-70034999D02*
X122740000Y-70935001D01*
G75*
G02*
X122490001Y-71185000I-249999J0D01*
G01*
X121839999Y-71185000D01*
G75*
G02*
X121590000Y-70935001I0J249999D01*
G01*
X121590000Y-70034999D01*
G75*
G02*
X121839999Y-69785000I249999J0D01*
G01*
X122490001Y-69785000D01*
G75*
G02*
X122740000Y-70034999I0J-249999D01*
G01*
G37*
G36*
G01*
X124790000Y-70034999D02*
X124790000Y-70935001D01*
G75*
G02*
X124540001Y-71185000I-249999J0D01*
G01*
X123889999Y-71185000D01*
G75*
G02*
X123640000Y-70935001I0J249999D01*
G01*
X123640000Y-70034999D01*
G75*
G02*
X123889999Y-69785000I249999J0D01*
G01*
X124540001Y-69785000D01*
G75*
G02*
X124790000Y-70034999I0J-249999D01*
G01*
G37*
%TD*%
%TO.C,C7*%
G36*
G01*
X148807500Y-119093000D02*
X148807500Y-118143000D01*
G75*
G02*
X149057500Y-117893000I250000J0D01*
G01*
X149732500Y-117893000D01*
G75*
G02*
X149982500Y-118143000I0J-250000D01*
G01*
X149982500Y-119093000D01*
G75*
G02*
X149732500Y-119343000I-250000J0D01*
G01*
X149057500Y-119343000D01*
G75*
G02*
X148807500Y-119093000I0J250000D01*
G01*
G37*
G36*
G01*
X146732500Y-119093000D02*
X146732500Y-118143000D01*
G75*
G02*
X146982500Y-117893000I250000J0D01*
G01*
X147657500Y-117893000D01*
G75*
G02*
X147907500Y-118143000I0J-250000D01*
G01*
X147907500Y-119093000D01*
G75*
G02*
X147657500Y-119343000I-250000J0D01*
G01*
X146982500Y-119343000D01*
G75*
G02*
X146732500Y-119093000I0J250000D01*
G01*
G37*
%TD*%
%TO.C,C6*%
G36*
G01*
X148807500Y-122268000D02*
X148807500Y-121318000D01*
G75*
G02*
X149057500Y-121068000I250000J0D01*
G01*
X149732500Y-121068000D01*
G75*
G02*
X149982500Y-121318000I0J-250000D01*
G01*
X149982500Y-122268000D01*
G75*
G02*
X149732500Y-122518000I-250000J0D01*
G01*
X149057500Y-122518000D01*
G75*
G02*
X148807500Y-122268000I0J250000D01*
G01*
G37*
G36*
G01*
X146732500Y-122268000D02*
X146732500Y-121318000D01*
G75*
G02*
X146982500Y-121068000I250000J0D01*
G01*
X147657500Y-121068000D01*
G75*
G02*
X147907500Y-121318000I0J-250000D01*
G01*
X147907500Y-122268000D01*
G75*
G02*
X147657500Y-122518000I-250000J0D01*
G01*
X146982500Y-122518000D01*
G75*
G02*
X146732500Y-122268000I0J250000D01*
G01*
G37*
%TD*%
%TO.C,U3*%
G36*
G01*
X157700000Y-122875000D02*
X157700000Y-122675000D01*
G75*
G02*
X157800000Y-122575000I100000J0D01*
G01*
X159075000Y-122575000D01*
G75*
G02*
X159175000Y-122675000I0J-100000D01*
G01*
X159175000Y-122875000D01*
G75*
G02*
X159075000Y-122975000I-100000J0D01*
G01*
X157800000Y-122975000D01*
G75*
G02*
X157700000Y-122875000I0J100000D01*
G01*
G37*
G36*
G01*
X157700000Y-123525000D02*
X157700000Y-123325000D01*
G75*
G02*
X157800000Y-123225000I100000J0D01*
G01*
X159075000Y-123225000D01*
G75*
G02*
X159175000Y-123325000I0J-100000D01*
G01*
X159175000Y-123525000D01*
G75*
G02*
X159075000Y-123625000I-100000J0D01*
G01*
X157800000Y-123625000D01*
G75*
G02*
X157700000Y-123525000I0J100000D01*
G01*
G37*
G36*
G01*
X157700000Y-124175000D02*
X157700000Y-123975000D01*
G75*
G02*
X157800000Y-123875000I100000J0D01*
G01*
X159075000Y-123875000D01*
G75*
G02*
X159175000Y-123975000I0J-100000D01*
G01*
X159175000Y-124175000D01*
G75*
G02*
X159075000Y-124275000I-100000J0D01*
G01*
X157800000Y-124275000D01*
G75*
G02*
X157700000Y-124175000I0J100000D01*
G01*
G37*
G36*
G01*
X157700000Y-124825000D02*
X157700000Y-124625000D01*
G75*
G02*
X157800000Y-124525000I100000J0D01*
G01*
X159075000Y-124525000D01*
G75*
G02*
X159175000Y-124625000I0J-100000D01*
G01*
X159175000Y-124825000D01*
G75*
G02*
X159075000Y-124925000I-100000J0D01*
G01*
X157800000Y-124925000D01*
G75*
G02*
X157700000Y-124825000I0J100000D01*
G01*
G37*
G36*
G01*
X157700000Y-125475000D02*
X157700000Y-125275000D01*
G75*
G02*
X157800000Y-125175000I100000J0D01*
G01*
X159075000Y-125175000D01*
G75*
G02*
X159175000Y-125275000I0J-100000D01*
G01*
X159175000Y-125475000D01*
G75*
G02*
X159075000Y-125575000I-100000J0D01*
G01*
X157800000Y-125575000D01*
G75*
G02*
X157700000Y-125475000I0J100000D01*
G01*
G37*
G36*
G01*
X157700000Y-126125000D02*
X157700000Y-125925000D01*
G75*
G02*
X157800000Y-125825000I100000J0D01*
G01*
X159075000Y-125825000D01*
G75*
G02*
X159175000Y-125925000I0J-100000D01*
G01*
X159175000Y-126125000D01*
G75*
G02*
X159075000Y-126225000I-100000J0D01*
G01*
X157800000Y-126225000D01*
G75*
G02*
X157700000Y-126125000I0J100000D01*
G01*
G37*
G36*
G01*
X157700000Y-126775000D02*
X157700000Y-126575000D01*
G75*
G02*
X157800000Y-126475000I100000J0D01*
G01*
X159075000Y-126475000D01*
G75*
G02*
X159175000Y-126575000I0J-100000D01*
G01*
X159175000Y-126775000D01*
G75*
G02*
X159075000Y-126875000I-100000J0D01*
G01*
X157800000Y-126875000D01*
G75*
G02*
X157700000Y-126775000I0J100000D01*
G01*
G37*
G36*
G01*
X157700000Y-127425000D02*
X157700000Y-127225000D01*
G75*
G02*
X157800000Y-127125000I100000J0D01*
G01*
X159075000Y-127125000D01*
G75*
G02*
X159175000Y-127225000I0J-100000D01*
G01*
X159175000Y-127425000D01*
G75*
G02*
X159075000Y-127525000I-100000J0D01*
G01*
X157800000Y-127525000D01*
G75*
G02*
X157700000Y-127425000I0J100000D01*
G01*
G37*
G36*
G01*
X157700000Y-128075000D02*
X157700000Y-127875000D01*
G75*
G02*
X157800000Y-127775000I100000J0D01*
G01*
X159075000Y-127775000D01*
G75*
G02*
X159175000Y-127875000I0J-100000D01*
G01*
X159175000Y-128075000D01*
G75*
G02*
X159075000Y-128175000I-100000J0D01*
G01*
X157800000Y-128175000D01*
G75*
G02*
X157700000Y-128075000I0J100000D01*
G01*
G37*
G36*
G01*
X157700000Y-128725000D02*
X157700000Y-128525000D01*
G75*
G02*
X157800000Y-128425000I100000J0D01*
G01*
X159075000Y-128425000D01*
G75*
G02*
X159175000Y-128525000I0J-100000D01*
G01*
X159175000Y-128725000D01*
G75*
G02*
X159075000Y-128825000I-100000J0D01*
G01*
X157800000Y-128825000D01*
G75*
G02*
X157700000Y-128725000I0J100000D01*
G01*
G37*
G36*
G01*
X157700000Y-129375000D02*
X157700000Y-129175000D01*
G75*
G02*
X157800000Y-129075000I100000J0D01*
G01*
X159075000Y-129075000D01*
G75*
G02*
X159175000Y-129175000I0J-100000D01*
G01*
X159175000Y-129375000D01*
G75*
G02*
X159075000Y-129475000I-100000J0D01*
G01*
X157800000Y-129475000D01*
G75*
G02*
X157700000Y-129375000I0J100000D01*
G01*
G37*
G36*
G01*
X157700000Y-130025000D02*
X157700000Y-129825000D01*
G75*
G02*
X157800000Y-129725000I100000J0D01*
G01*
X159075000Y-129725000D01*
G75*
G02*
X159175000Y-129825000I0J-100000D01*
G01*
X159175000Y-130025000D01*
G75*
G02*
X159075000Y-130125000I-100000J0D01*
G01*
X157800000Y-130125000D01*
G75*
G02*
X157700000Y-130025000I0J100000D01*
G01*
G37*
G36*
G01*
X157700000Y-130675000D02*
X157700000Y-130475000D01*
G75*
G02*
X157800000Y-130375000I100000J0D01*
G01*
X159075000Y-130375000D01*
G75*
G02*
X159175000Y-130475000I0J-100000D01*
G01*
X159175000Y-130675000D01*
G75*
G02*
X159075000Y-130775000I-100000J0D01*
G01*
X157800000Y-130775000D01*
G75*
G02*
X157700000Y-130675000I0J100000D01*
G01*
G37*
G36*
G01*
X157700000Y-131325000D02*
X157700000Y-131125000D01*
G75*
G02*
X157800000Y-131025000I100000J0D01*
G01*
X159075000Y-131025000D01*
G75*
G02*
X159175000Y-131125000I0J-100000D01*
G01*
X159175000Y-131325000D01*
G75*
G02*
X159075000Y-131425000I-100000J0D01*
G01*
X157800000Y-131425000D01*
G75*
G02*
X157700000Y-131325000I0J100000D01*
G01*
G37*
G36*
G01*
X151975000Y-131325000D02*
X151975000Y-131125000D01*
G75*
G02*
X152075000Y-131025000I100000J0D01*
G01*
X153350000Y-131025000D01*
G75*
G02*
X153450000Y-131125000I0J-100000D01*
G01*
X153450000Y-131325000D01*
G75*
G02*
X153350000Y-131425000I-100000J0D01*
G01*
X152075000Y-131425000D01*
G75*
G02*
X151975000Y-131325000I0J100000D01*
G01*
G37*
G36*
G01*
X151975000Y-130675000D02*
X151975000Y-130475000D01*
G75*
G02*
X152075000Y-130375000I100000J0D01*
G01*
X153350000Y-130375000D01*
G75*
G02*
X153450000Y-130475000I0J-100000D01*
G01*
X153450000Y-130675000D01*
G75*
G02*
X153350000Y-130775000I-100000J0D01*
G01*
X152075000Y-130775000D01*
G75*
G02*
X151975000Y-130675000I0J100000D01*
G01*
G37*
G36*
G01*
X151975000Y-130025000D02*
X151975000Y-129825000D01*
G75*
G02*
X152075000Y-129725000I100000J0D01*
G01*
X153350000Y-129725000D01*
G75*
G02*
X153450000Y-129825000I0J-100000D01*
G01*
X153450000Y-130025000D01*
G75*
G02*
X153350000Y-130125000I-100000J0D01*
G01*
X152075000Y-130125000D01*
G75*
G02*
X151975000Y-130025000I0J100000D01*
G01*
G37*
G36*
G01*
X151975000Y-129375000D02*
X151975000Y-129175000D01*
G75*
G02*
X152075000Y-129075000I100000J0D01*
G01*
X153350000Y-129075000D01*
G75*
G02*
X153450000Y-129175000I0J-100000D01*
G01*
X153450000Y-129375000D01*
G75*
G02*
X153350000Y-129475000I-100000J0D01*
G01*
X152075000Y-129475000D01*
G75*
G02*
X151975000Y-129375000I0J100000D01*
G01*
G37*
G36*
G01*
X151975000Y-128725000D02*
X151975000Y-128525000D01*
G75*
G02*
X152075000Y-128425000I100000J0D01*
G01*
X153350000Y-128425000D01*
G75*
G02*
X153450000Y-128525000I0J-100000D01*
G01*
X153450000Y-128725000D01*
G75*
G02*
X153350000Y-128825000I-100000J0D01*
G01*
X152075000Y-128825000D01*
G75*
G02*
X151975000Y-128725000I0J100000D01*
G01*
G37*
G36*
G01*
X151975000Y-128075000D02*
X151975000Y-127875000D01*
G75*
G02*
X152075000Y-127775000I100000J0D01*
G01*
X153350000Y-127775000D01*
G75*
G02*
X153450000Y-127875000I0J-100000D01*
G01*
X153450000Y-128075000D01*
G75*
G02*
X153350000Y-128175000I-100000J0D01*
G01*
X152075000Y-128175000D01*
G75*
G02*
X151975000Y-128075000I0J100000D01*
G01*
G37*
G36*
G01*
X151975000Y-127425000D02*
X151975000Y-127225000D01*
G75*
G02*
X152075000Y-127125000I100000J0D01*
G01*
X153350000Y-127125000D01*
G75*
G02*
X153450000Y-127225000I0J-100000D01*
G01*
X153450000Y-127425000D01*
G75*
G02*
X153350000Y-127525000I-100000J0D01*
G01*
X152075000Y-127525000D01*
G75*
G02*
X151975000Y-127425000I0J100000D01*
G01*
G37*
G36*
G01*
X151975000Y-126775000D02*
X151975000Y-126575000D01*
G75*
G02*
X152075000Y-126475000I100000J0D01*
G01*
X153350000Y-126475000D01*
G75*
G02*
X153450000Y-126575000I0J-100000D01*
G01*
X153450000Y-126775000D01*
G75*
G02*
X153350000Y-126875000I-100000J0D01*
G01*
X152075000Y-126875000D01*
G75*
G02*
X151975000Y-126775000I0J100000D01*
G01*
G37*
G36*
G01*
X151975000Y-126125000D02*
X151975000Y-125925000D01*
G75*
G02*
X152075000Y-125825000I100000J0D01*
G01*
X153350000Y-125825000D01*
G75*
G02*
X153450000Y-125925000I0J-100000D01*
G01*
X153450000Y-126125000D01*
G75*
G02*
X153350000Y-126225000I-100000J0D01*
G01*
X152075000Y-126225000D01*
G75*
G02*
X151975000Y-126125000I0J100000D01*
G01*
G37*
G36*
G01*
X151975000Y-125475000D02*
X151975000Y-125275000D01*
G75*
G02*
X152075000Y-125175000I100000J0D01*
G01*
X153350000Y-125175000D01*
G75*
G02*
X153450000Y-125275000I0J-100000D01*
G01*
X153450000Y-125475000D01*
G75*
G02*
X153350000Y-125575000I-100000J0D01*
G01*
X152075000Y-125575000D01*
G75*
G02*
X151975000Y-125475000I0J100000D01*
G01*
G37*
G36*
G01*
X151975000Y-124825000D02*
X151975000Y-124625000D01*
G75*
G02*
X152075000Y-124525000I100000J0D01*
G01*
X153350000Y-124525000D01*
G75*
G02*
X153450000Y-124625000I0J-100000D01*
G01*
X153450000Y-124825000D01*
G75*
G02*
X153350000Y-124925000I-100000J0D01*
G01*
X152075000Y-124925000D01*
G75*
G02*
X151975000Y-124825000I0J100000D01*
G01*
G37*
G36*
G01*
X151975000Y-124175000D02*
X151975000Y-123975000D01*
G75*
G02*
X152075000Y-123875000I100000J0D01*
G01*
X153350000Y-123875000D01*
G75*
G02*
X153450000Y-123975000I0J-100000D01*
G01*
X153450000Y-124175000D01*
G75*
G02*
X153350000Y-124275000I-100000J0D01*
G01*
X152075000Y-124275000D01*
G75*
G02*
X151975000Y-124175000I0J100000D01*
G01*
G37*
G36*
G01*
X151975000Y-123525000D02*
X151975000Y-123325000D01*
G75*
G02*
X152075000Y-123225000I100000J0D01*
G01*
X153350000Y-123225000D01*
G75*
G02*
X153450000Y-123325000I0J-100000D01*
G01*
X153450000Y-123525000D01*
G75*
G02*
X153350000Y-123625000I-100000J0D01*
G01*
X152075000Y-123625000D01*
G75*
G02*
X151975000Y-123525000I0J100000D01*
G01*
G37*
G36*
G01*
X151975000Y-122875000D02*
X151975000Y-122675000D01*
G75*
G02*
X152075000Y-122575000I100000J0D01*
G01*
X153350000Y-122575000D01*
G75*
G02*
X153450000Y-122675000I0J-100000D01*
G01*
X153450000Y-122875000D01*
G75*
G02*
X153350000Y-122975000I-100000J0D01*
G01*
X152075000Y-122975000D01*
G75*
G02*
X151975000Y-122875000I0J100000D01*
G01*
G37*
%TD*%
%TO.C,R8*%
G36*
G01*
X148736000Y-125926001D02*
X148736000Y-125025999D01*
G75*
G02*
X148985999Y-124776000I249999J0D01*
G01*
X149686001Y-124776000D01*
G75*
G02*
X149936000Y-125025999I0J-249999D01*
G01*
X149936000Y-125926001D01*
G75*
G02*
X149686001Y-126176000I-249999J0D01*
G01*
X148985999Y-126176000D01*
G75*
G02*
X148736000Y-125926001I0J249999D01*
G01*
G37*
G36*
G01*
X146736000Y-125926001D02*
X146736000Y-125025999D01*
G75*
G02*
X146985999Y-124776000I249999J0D01*
G01*
X147686001Y-124776000D01*
G75*
G02*
X147936000Y-125025999I0J-249999D01*
G01*
X147936000Y-125926001D01*
G75*
G02*
X147686001Y-126176000I-249999J0D01*
G01*
X146985999Y-126176000D01*
G75*
G02*
X146736000Y-125926001I0J249999D01*
G01*
G37*
%TD*%
%TO.C,R7*%
G36*
G01*
X161474999Y-130575000D02*
X162375001Y-130575000D01*
G75*
G02*
X162625000Y-130824999I0J-249999D01*
G01*
X162625000Y-131525001D01*
G75*
G02*
X162375001Y-131775000I-249999J0D01*
G01*
X161474999Y-131775000D01*
G75*
G02*
X161225000Y-131525001I0J249999D01*
G01*
X161225000Y-130824999D01*
G75*
G02*
X161474999Y-130575000I249999J0D01*
G01*
G37*
G36*
G01*
X161474999Y-128575000D02*
X162375001Y-128575000D01*
G75*
G02*
X162625000Y-128824999I0J-249999D01*
G01*
X162625000Y-129525001D01*
G75*
G02*
X162375001Y-129775000I-249999J0D01*
G01*
X161474999Y-129775000D01*
G75*
G02*
X161225000Y-129525001I0J249999D01*
G01*
X161225000Y-128824999D01*
G75*
G02*
X161474999Y-128575000I249999J0D01*
G01*
G37*
%TD*%
%TO.C,C9*%
G36*
G01*
X152182500Y-141130000D02*
X152182500Y-142080000D01*
G75*
G02*
X151932500Y-142330000I-250000J0D01*
G01*
X151257500Y-142330000D01*
G75*
G02*
X151007500Y-142080000I0J250000D01*
G01*
X151007500Y-141130000D01*
G75*
G02*
X151257500Y-140880000I250000J0D01*
G01*
X151932500Y-140880000D01*
G75*
G02*
X152182500Y-141130000I0J-250000D01*
G01*
G37*
G36*
G01*
X154257500Y-141130000D02*
X154257500Y-142080000D01*
G75*
G02*
X154007500Y-142330000I-250000J0D01*
G01*
X153332500Y-142330000D01*
G75*
G02*
X153082500Y-142080000I0J250000D01*
G01*
X153082500Y-141130000D01*
G75*
G02*
X153332500Y-140880000I250000J0D01*
G01*
X154007500Y-140880000D01*
G75*
G02*
X154257500Y-141130000I0J-250000D01*
G01*
G37*
%TD*%
%TO.C,C8*%
G36*
G01*
X160470000Y-142080000D02*
X160470000Y-141130000D01*
G75*
G02*
X160720000Y-140880000I250000J0D01*
G01*
X161395000Y-140880000D01*
G75*
G02*
X161645000Y-141130000I0J-250000D01*
G01*
X161645000Y-142080000D01*
G75*
G02*
X161395000Y-142330000I-250000J0D01*
G01*
X160720000Y-142330000D01*
G75*
G02*
X160470000Y-142080000I0J250000D01*
G01*
G37*
G36*
G01*
X158395000Y-142080000D02*
X158395000Y-141130000D01*
G75*
G02*
X158645000Y-140880000I250000J0D01*
G01*
X159320000Y-140880000D01*
G75*
G02*
X159570000Y-141130000I0J-250000D01*
G01*
X159570000Y-142080000D01*
G75*
G02*
X159320000Y-142330000I-250000J0D01*
G01*
X158645000Y-142330000D01*
G75*
G02*
X158395000Y-142080000I0J250000D01*
G01*
G37*
%TD*%
%TO.C,R6*%
G36*
G01*
X131680000Y-104959999D02*
X131680000Y-105860001D01*
G75*
G02*
X131430001Y-106110000I-249999J0D01*
G01*
X130729999Y-106110000D01*
G75*
G02*
X130480000Y-105860001I0J249999D01*
G01*
X130480000Y-104959999D01*
G75*
G02*
X130729999Y-104710000I249999J0D01*
G01*
X131430001Y-104710000D01*
G75*
G02*
X131680000Y-104959999I0J-249999D01*
G01*
G37*
G36*
G01*
X133680000Y-104959999D02*
X133680000Y-105860001D01*
G75*
G02*
X133430001Y-106110000I-249999J0D01*
G01*
X132729999Y-106110000D01*
G75*
G02*
X132480000Y-105860001I0J249999D01*
G01*
X132480000Y-104959999D01*
G75*
G02*
X132729999Y-104710000I249999J0D01*
G01*
X133430001Y-104710000D01*
G75*
G02*
X133680000Y-104959999I0J-249999D01*
G01*
G37*
%TD*%
%TO.C,R5*%
G36*
G01*
X131680000Y-111309999D02*
X131680000Y-112210001D01*
G75*
G02*
X131430001Y-112460000I-249999J0D01*
G01*
X130729999Y-112460000D01*
G75*
G02*
X130480000Y-112210001I0J249999D01*
G01*
X130480000Y-111309999D01*
G75*
G02*
X130729999Y-111060000I249999J0D01*
G01*
X131430001Y-111060000D01*
G75*
G02*
X131680000Y-111309999I0J-249999D01*
G01*
G37*
G36*
G01*
X133680000Y-111309999D02*
X133680000Y-112210001D01*
G75*
G02*
X133430001Y-112460000I-249999J0D01*
G01*
X132729999Y-112460000D01*
G75*
G02*
X132480000Y-112210001I0J249999D01*
G01*
X132480000Y-111309999D01*
G75*
G02*
X132729999Y-111060000I249999J0D01*
G01*
X133430001Y-111060000D01*
G75*
G02*
X133680000Y-111309999I0J-249999D01*
G01*
G37*
%TD*%
%TO.C,R4*%
G36*
G01*
X133950000Y-73209999D02*
X133950000Y-74110001D01*
G75*
G02*
X133700001Y-74360000I-249999J0D01*
G01*
X132999999Y-74360000D01*
G75*
G02*
X132750000Y-74110001I0J249999D01*
G01*
X132750000Y-73209999D01*
G75*
G02*
X132999999Y-72960000I249999J0D01*
G01*
X133700001Y-72960000D01*
G75*
G02*
X133950000Y-73209999I0J-249999D01*
G01*
G37*
G36*
G01*
X135950000Y-73209999D02*
X135950000Y-74110001D01*
G75*
G02*
X135700001Y-74360000I-249999J0D01*
G01*
X134999999Y-74360000D01*
G75*
G02*
X134750000Y-74110001I0J249999D01*
G01*
X134750000Y-73209999D01*
G75*
G02*
X134999999Y-72960000I249999J0D01*
G01*
X135700001Y-72960000D01*
G75*
G02*
X135950000Y-73209999I0J-249999D01*
G01*
G37*
%TD*%
%TO.C,R3*%
G36*
G01*
X138935000Y-73209999D02*
X138935000Y-74110001D01*
G75*
G02*
X138685001Y-74360000I-249999J0D01*
G01*
X137984999Y-74360000D01*
G75*
G02*
X137735000Y-74110001I0J249999D01*
G01*
X137735000Y-73209999D01*
G75*
G02*
X137984999Y-72960000I249999J0D01*
G01*
X138685001Y-72960000D01*
G75*
G02*
X138935000Y-73209999I0J-249999D01*
G01*
G37*
G36*
G01*
X140935000Y-73209999D02*
X140935000Y-74110001D01*
G75*
G02*
X140685001Y-74360000I-249999J0D01*
G01*
X139984999Y-74360000D01*
G75*
G02*
X139735000Y-74110001I0J249999D01*
G01*
X139735000Y-73209999D01*
G75*
G02*
X139984999Y-72960000I249999J0D01*
G01*
X140685001Y-72960000D01*
G75*
G02*
X140935000Y-73209999I0J-249999D01*
G01*
G37*
%TD*%
%TO.C,R2*%
G36*
G01*
X153473999Y-114573000D02*
X154374001Y-114573000D01*
G75*
G02*
X154624000Y-114822999I0J-249999D01*
G01*
X154624000Y-115523001D01*
G75*
G02*
X154374001Y-115773000I-249999J0D01*
G01*
X153473999Y-115773000D01*
G75*
G02*
X153224000Y-115523001I0J249999D01*
G01*
X153224000Y-114822999D01*
G75*
G02*
X153473999Y-114573000I249999J0D01*
G01*
G37*
G36*
G01*
X153473999Y-112573000D02*
X154374001Y-112573000D01*
G75*
G02*
X154624000Y-112822999I0J-249999D01*
G01*
X154624000Y-113523001D01*
G75*
G02*
X154374001Y-113773000I-249999J0D01*
G01*
X153473999Y-113773000D01*
G75*
G02*
X153224000Y-113523001I0J249999D01*
G01*
X153224000Y-112822999D01*
G75*
G02*
X153473999Y-112573000I249999J0D01*
G01*
G37*
%TD*%
%TO.C,R1*%
G36*
G01*
X157029999Y-114573000D02*
X157930001Y-114573000D01*
G75*
G02*
X158180000Y-114822999I0J-249999D01*
G01*
X158180000Y-115523001D01*
G75*
G02*
X157930001Y-115773000I-249999J0D01*
G01*
X157029999Y-115773000D01*
G75*
G02*
X156780000Y-115523001I0J249999D01*
G01*
X156780000Y-114822999D01*
G75*
G02*
X157029999Y-114573000I249999J0D01*
G01*
G37*
G36*
G01*
X157029999Y-112573000D02*
X157930001Y-112573000D01*
G75*
G02*
X158180000Y-112822999I0J-249999D01*
G01*
X158180000Y-113523001D01*
G75*
G02*
X157930001Y-113773000I-249999J0D01*
G01*
X157029999Y-113773000D01*
G75*
G02*
X156780000Y-113523001I0J249999D01*
G01*
X156780000Y-112822999D01*
G75*
G02*
X157029999Y-112573000I249999J0D01*
G01*
G37*
%TD*%
%TO.C,D6*%
G36*
G01*
X131630000Y-108134999D02*
X131630000Y-109035001D01*
G75*
G02*
X131380001Y-109285000I-249999J0D01*
G01*
X130729999Y-109285000D01*
G75*
G02*
X130480000Y-109035001I0J249999D01*
G01*
X130480000Y-108134999D01*
G75*
G02*
X130729999Y-107885000I249999J0D01*
G01*
X131380001Y-107885000D01*
G75*
G02*
X131630000Y-108134999I0J-249999D01*
G01*
G37*
G36*
G01*
X133680000Y-108134999D02*
X133680000Y-109035001D01*
G75*
G02*
X133430001Y-109285000I-249999J0D01*
G01*
X132779999Y-109285000D01*
G75*
G02*
X132530000Y-109035001I0J249999D01*
G01*
X132530000Y-108134999D01*
G75*
G02*
X132779999Y-107885000I249999J0D01*
G01*
X133430001Y-107885000D01*
G75*
G02*
X133680000Y-108134999I0J-249999D01*
G01*
G37*
%TD*%
%TO.C,D5*%
G36*
G01*
X131630000Y-114484999D02*
X131630000Y-115385001D01*
G75*
G02*
X131380001Y-115635000I-249999J0D01*
G01*
X130729999Y-115635000D01*
G75*
G02*
X130480000Y-115385001I0J249999D01*
G01*
X130480000Y-114484999D01*
G75*
G02*
X130729999Y-114235000I249999J0D01*
G01*
X131380001Y-114235000D01*
G75*
G02*
X131630000Y-114484999I0J-249999D01*
G01*
G37*
G36*
G01*
X133680000Y-114484999D02*
X133680000Y-115385001D01*
G75*
G02*
X133430001Y-115635000I-249999J0D01*
G01*
X132779999Y-115635000D01*
G75*
G02*
X132530000Y-115385001I0J249999D01*
G01*
X132530000Y-114484999D01*
G75*
G02*
X132779999Y-114235000I249999J0D01*
G01*
X133430001Y-114235000D01*
G75*
G02*
X133680000Y-114484999I0J-249999D01*
G01*
G37*
%TD*%
%TO.C,D4*%
G36*
G01*
X133916000Y-69907999D02*
X133916000Y-70808001D01*
G75*
G02*
X133666001Y-71058000I-249999J0D01*
G01*
X133015999Y-71058000D01*
G75*
G02*
X132766000Y-70808001I0J249999D01*
G01*
X132766000Y-69907999D01*
G75*
G02*
X133015999Y-69658000I249999J0D01*
G01*
X133666001Y-69658000D01*
G75*
G02*
X133916000Y-69907999I0J-249999D01*
G01*
G37*
G36*
G01*
X135966000Y-69907999D02*
X135966000Y-70808001D01*
G75*
G02*
X135716001Y-71058000I-249999J0D01*
G01*
X135065999Y-71058000D01*
G75*
G02*
X134816000Y-70808001I0J249999D01*
G01*
X134816000Y-69907999D01*
G75*
G02*
X135065999Y-69658000I249999J0D01*
G01*
X135716001Y-69658000D01*
G75*
G02*
X135966000Y-69907999I0J-249999D01*
G01*
G37*
%TD*%
%TO.C,D3*%
G36*
G01*
X138869000Y-69907999D02*
X138869000Y-70808001D01*
G75*
G02*
X138619001Y-71058000I-249999J0D01*
G01*
X137968999Y-71058000D01*
G75*
G02*
X137719000Y-70808001I0J249999D01*
G01*
X137719000Y-69907999D01*
G75*
G02*
X137968999Y-69658000I249999J0D01*
G01*
X138619001Y-69658000D01*
G75*
G02*
X138869000Y-69907999I0J-249999D01*
G01*
G37*
G36*
G01*
X140919000Y-69907999D02*
X140919000Y-70808001D01*
G75*
G02*
X140669001Y-71058000I-249999J0D01*
G01*
X140018999Y-71058000D01*
G75*
G02*
X139769000Y-70808001I0J249999D01*
G01*
X139769000Y-69907999D01*
G75*
G02*
X140018999Y-69658000I249999J0D01*
G01*
X140669001Y-69658000D01*
G75*
G02*
X140919000Y-69907999I0J-249999D01*
G01*
G37*
%TD*%
%TO.C,D2*%
G36*
G01*
X150298999Y-114623000D02*
X151199001Y-114623000D01*
G75*
G02*
X151449000Y-114872999I0J-249999D01*
G01*
X151449000Y-115523001D01*
G75*
G02*
X151199001Y-115773000I-249999J0D01*
G01*
X150298999Y-115773000D01*
G75*
G02*
X150049000Y-115523001I0J249999D01*
G01*
X150049000Y-114872999D01*
G75*
G02*
X150298999Y-114623000I249999J0D01*
G01*
G37*
G36*
G01*
X150298999Y-112573000D02*
X151199001Y-112573000D01*
G75*
G02*
X151449000Y-112822999I0J-249999D01*
G01*
X151449000Y-113473001D01*
G75*
G02*
X151199001Y-113723000I-249999J0D01*
G01*
X150298999Y-113723000D01*
G75*
G02*
X150049000Y-113473001I0J249999D01*
G01*
X150049000Y-112822999D01*
G75*
G02*
X150298999Y-112573000I249999J0D01*
G01*
G37*
%TD*%
%TO.C,D1*%
G36*
G01*
X160204999Y-114623000D02*
X161105001Y-114623000D01*
G75*
G02*
X161355000Y-114872999I0J-249999D01*
G01*
X161355000Y-115523001D01*
G75*
G02*
X161105001Y-115773000I-249999J0D01*
G01*
X160204999Y-115773000D01*
G75*
G02*
X159955000Y-115523001I0J249999D01*
G01*
X159955000Y-114872999D01*
G75*
G02*
X160204999Y-114623000I249999J0D01*
G01*
G37*
G36*
G01*
X160204999Y-112573000D02*
X161105001Y-112573000D01*
G75*
G02*
X161355000Y-112822999I0J-249999D01*
G01*
X161355000Y-113473001D01*
G75*
G02*
X161105001Y-113723000I-249999J0D01*
G01*
X160204999Y-113723000D01*
G75*
G02*
X159955000Y-113473001I0J249999D01*
G01*
X159955000Y-112822999D01*
G75*
G02*
X160204999Y-112573000I249999J0D01*
G01*
G37*
%TD*%
%TO.C,U2*%
G36*
G01*
X133913996Y-122255001D02*
X134956002Y-122255001D01*
G75*
G02*
X135159999Y-122458998I0J-203997D01*
G01*
X135159999Y-122651002D01*
G75*
G02*
X134956002Y-122854999I-203997J0D01*
G01*
X133913996Y-122854999D01*
G75*
G02*
X133709999Y-122651002I0J203997D01*
G01*
X133709999Y-122458998D01*
G75*
G02*
X133913996Y-122255001I203997J0D01*
G01*
G37*
G36*
G01*
X133913996Y-123525001D02*
X134956002Y-123525001D01*
G75*
G02*
X135159999Y-123728998I0J-203997D01*
G01*
X135159999Y-123921002D01*
G75*
G02*
X134956002Y-124124999I-203997J0D01*
G01*
X133913996Y-124124999D01*
G75*
G02*
X133709999Y-123921002I0J203997D01*
G01*
X133709999Y-123728998D01*
G75*
G02*
X133913996Y-123525001I203997J0D01*
G01*
G37*
G36*
G01*
X133913996Y-124795001D02*
X134956002Y-124795001D01*
G75*
G02*
X135159999Y-124998998I0J-203997D01*
G01*
X135159999Y-125191002D01*
G75*
G02*
X134956002Y-125394999I-203997J0D01*
G01*
X133913996Y-125394999D01*
G75*
G02*
X133709999Y-125191002I0J203997D01*
G01*
X133709999Y-124998998D01*
G75*
G02*
X133913996Y-124795001I203997J0D01*
G01*
G37*
G36*
G01*
X133913996Y-126065001D02*
X134956002Y-126065001D01*
G75*
G02*
X135159999Y-126268998I0J-203997D01*
G01*
X135159999Y-126461002D01*
G75*
G02*
X134956002Y-126664999I-203997J0D01*
G01*
X133913996Y-126664999D01*
G75*
G02*
X133709999Y-126461002I0J203997D01*
G01*
X133709999Y-126268998D01*
G75*
G02*
X133913996Y-126065001I203997J0D01*
G01*
G37*
G36*
G01*
X133913996Y-127335001D02*
X134956002Y-127335001D01*
G75*
G02*
X135159999Y-127538998I0J-203997D01*
G01*
X135159999Y-127731002D01*
G75*
G02*
X134956002Y-127934999I-203997J0D01*
G01*
X133913996Y-127934999D01*
G75*
G02*
X133709999Y-127731002I0J203997D01*
G01*
X133709999Y-127538998D01*
G75*
G02*
X133913996Y-127335001I203997J0D01*
G01*
G37*
G36*
G01*
X133913996Y-128605001D02*
X134956002Y-128605001D01*
G75*
G02*
X135159999Y-128808998I0J-203997D01*
G01*
X135159999Y-129001002D01*
G75*
G02*
X134956002Y-129204999I-203997J0D01*
G01*
X133913996Y-129204999D01*
G75*
G02*
X133709999Y-129001002I0J203997D01*
G01*
X133709999Y-128808998D01*
G75*
G02*
X133913996Y-128605001I203997J0D01*
G01*
G37*
G36*
G01*
X133913996Y-129875001D02*
X134956002Y-129875001D01*
G75*
G02*
X135159999Y-130078998I0J-203997D01*
G01*
X135159999Y-130271002D01*
G75*
G02*
X134956002Y-130474999I-203997J0D01*
G01*
X133913996Y-130474999D01*
G75*
G02*
X133709999Y-130271002I0J203997D01*
G01*
X133709999Y-130078998D01*
G75*
G02*
X133913996Y-129875001I203997J0D01*
G01*
G37*
G36*
G01*
X133913996Y-131145001D02*
X134956002Y-131145001D01*
G75*
G02*
X135159999Y-131348998I0J-203997D01*
G01*
X135159999Y-131541002D01*
G75*
G02*
X134956002Y-131744999I-203997J0D01*
G01*
X133913996Y-131744999D01*
G75*
G02*
X133709999Y-131541002I0J203997D01*
G01*
X133709999Y-131348998D01*
G75*
G02*
X133913996Y-131145001I203997J0D01*
G01*
G37*
G36*
G01*
X139363995Y-122255001D02*
X140406001Y-122255001D01*
G75*
G02*
X140609998Y-122458998I0J-203997D01*
G01*
X140609998Y-122651002D01*
G75*
G02*
X140406001Y-122854999I-203997J0D01*
G01*
X139363995Y-122854999D01*
G75*
G02*
X139159998Y-122651002I0J203997D01*
G01*
X139159998Y-122458998D01*
G75*
G02*
X139363995Y-122255001I203997J0D01*
G01*
G37*
G36*
G01*
X139363995Y-123525001D02*
X140406001Y-123525001D01*
G75*
G02*
X140609998Y-123728998I0J-203997D01*
G01*
X140609998Y-123921002D01*
G75*
G02*
X140406001Y-124124999I-203997J0D01*
G01*
X139363995Y-124124999D01*
G75*
G02*
X139159998Y-123921002I0J203997D01*
G01*
X139159998Y-123728998D01*
G75*
G02*
X139363995Y-123525001I203997J0D01*
G01*
G37*
G36*
G01*
X139363995Y-124795001D02*
X140406001Y-124795001D01*
G75*
G02*
X140609998Y-124998998I0J-203997D01*
G01*
X140609998Y-125191002D01*
G75*
G02*
X140406001Y-125394999I-203997J0D01*
G01*
X139363995Y-125394999D01*
G75*
G02*
X139159998Y-125191002I0J203997D01*
G01*
X139159998Y-124998998D01*
G75*
G02*
X139363995Y-124795001I203997J0D01*
G01*
G37*
G36*
G01*
X139363995Y-126065001D02*
X140406001Y-126065001D01*
G75*
G02*
X140609998Y-126268998I0J-203997D01*
G01*
X140609998Y-126461002D01*
G75*
G02*
X140406001Y-126664999I-203997J0D01*
G01*
X139363995Y-126664999D01*
G75*
G02*
X139159998Y-126461002I0J203997D01*
G01*
X139159998Y-126268998D01*
G75*
G02*
X139363995Y-126065001I203997J0D01*
G01*
G37*
G36*
G01*
X139363995Y-127335001D02*
X140406001Y-127335001D01*
G75*
G02*
X140609998Y-127538998I0J-203997D01*
G01*
X140609998Y-127731002D01*
G75*
G02*
X140406001Y-127934999I-203997J0D01*
G01*
X139363995Y-127934999D01*
G75*
G02*
X139159998Y-127731002I0J203997D01*
G01*
X139159998Y-127538998D01*
G75*
G02*
X139363995Y-127335001I203997J0D01*
G01*
G37*
G36*
G01*
X139363995Y-128605001D02*
X140406001Y-128605001D01*
G75*
G02*
X140609998Y-128808998I0J-203997D01*
G01*
X140609998Y-129001002D01*
G75*
G02*
X140406001Y-129204999I-203997J0D01*
G01*
X139363995Y-129204999D01*
G75*
G02*
X139159998Y-129001002I0J203997D01*
G01*
X139159998Y-128808998D01*
G75*
G02*
X139363995Y-128605001I203997J0D01*
G01*
G37*
G36*
G01*
X139363995Y-129875001D02*
X140406001Y-129875001D01*
G75*
G02*
X140609998Y-130078998I0J-203997D01*
G01*
X140609998Y-130271002D01*
G75*
G02*
X140406001Y-130474999I-203997J0D01*
G01*
X139363995Y-130474999D01*
G75*
G02*
X139159998Y-130271002I0J203997D01*
G01*
X139159998Y-130078998D01*
G75*
G02*
X139363995Y-129875001I203997J0D01*
G01*
G37*
G36*
G01*
X139363995Y-131145001D02*
X140406001Y-131145001D01*
G75*
G02*
X140609998Y-131348998I0J-203997D01*
G01*
X140609998Y-131541002D01*
G75*
G02*
X140406001Y-131744999I-203997J0D01*
G01*
X139363995Y-131744999D01*
G75*
G02*
X139159998Y-131541002I0J203997D01*
G01*
X139159998Y-131348998D01*
G75*
G02*
X139363995Y-131145001I203997J0D01*
G01*
G37*
%TD*%
%TO.C,C5*%
G36*
G01*
X142400000Y-123640000D02*
X143350000Y-123640000D01*
G75*
G02*
X143600000Y-123890000I0J-250000D01*
G01*
X143600000Y-124565000D01*
G75*
G02*
X143350000Y-124815000I-250000J0D01*
G01*
X142400000Y-124815000D01*
G75*
G02*
X142150000Y-124565000I0J250000D01*
G01*
X142150000Y-123890000D01*
G75*
G02*
X142400000Y-123640000I250000J0D01*
G01*
G37*
G36*
G01*
X142400000Y-121565000D02*
X143350000Y-121565000D01*
G75*
G02*
X143600000Y-121815000I0J-250000D01*
G01*
X143600000Y-122490000D01*
G75*
G02*
X143350000Y-122740000I-250000J0D01*
G01*
X142400000Y-122740000D01*
G75*
G02*
X142150000Y-122490000I0J250000D01*
G01*
X142150000Y-121815000D01*
G75*
G02*
X142400000Y-121565000I250000J0D01*
G01*
G37*
%TD*%
%TO.C,C4*%
G36*
G01*
X131285000Y-132265000D02*
X130335000Y-132265000D01*
G75*
G02*
X130085000Y-132015000I0J250000D01*
G01*
X130085000Y-131340000D01*
G75*
G02*
X130335000Y-131090000I250000J0D01*
G01*
X131285000Y-131090000D01*
G75*
G02*
X131535000Y-131340000I0J-250000D01*
G01*
X131535000Y-132015000D01*
G75*
G02*
X131285000Y-132265000I-250000J0D01*
G01*
G37*
G36*
G01*
X131285000Y-134340000D02*
X130335000Y-134340000D01*
G75*
G02*
X130085000Y-134090000I0J250000D01*
G01*
X130085000Y-133415000D01*
G75*
G02*
X130335000Y-133165000I250000J0D01*
G01*
X131285000Y-133165000D01*
G75*
G02*
X131535000Y-133415000I0J-250000D01*
G01*
X131535000Y-134090000D01*
G75*
G02*
X131285000Y-134340000I-250000J0D01*
G01*
G37*
%TD*%
%TO.C,C3*%
G36*
G01*
X135937500Y-120490000D02*
X135937500Y-119540000D01*
G75*
G02*
X136187500Y-119290000I250000J0D01*
G01*
X136862500Y-119290000D01*
G75*
G02*
X137112500Y-119540000I0J-250000D01*
G01*
X137112500Y-120490000D01*
G75*
G02*
X136862500Y-120740000I-250000J0D01*
G01*
X136187500Y-120740000D01*
G75*
G02*
X135937500Y-120490000I0J250000D01*
G01*
G37*
G36*
G01*
X133862500Y-120490000D02*
X133862500Y-119540000D01*
G75*
G02*
X134112500Y-119290000I250000J0D01*
G01*
X134787500Y-119290000D01*
G75*
G02*
X135037500Y-119540000I0J-250000D01*
G01*
X135037500Y-120490000D01*
G75*
G02*
X134787500Y-120740000I-250000J0D01*
G01*
X134112500Y-120740000D01*
G75*
G02*
X133862500Y-120490000I0J250000D01*
G01*
G37*
%TD*%
%TO.C,C2*%
G36*
G01*
X130335000Y-128085000D02*
X131285000Y-128085000D01*
G75*
G02*
X131535000Y-128335000I0J-250000D01*
G01*
X131535000Y-129010000D01*
G75*
G02*
X131285000Y-129260000I-250000J0D01*
G01*
X130335000Y-129260000D01*
G75*
G02*
X130085000Y-129010000I0J250000D01*
G01*
X130085000Y-128335000D01*
G75*
G02*
X130335000Y-128085000I250000J0D01*
G01*
G37*
G36*
G01*
X130335000Y-126010000D02*
X131285000Y-126010000D01*
G75*
G02*
X131535000Y-126260000I0J-250000D01*
G01*
X131535000Y-126935000D01*
G75*
G02*
X131285000Y-127185000I-250000J0D01*
G01*
X130335000Y-127185000D01*
G75*
G02*
X130085000Y-126935000I0J250000D01*
G01*
X130085000Y-126260000D01*
G75*
G02*
X130335000Y-126010000I250000J0D01*
G01*
G37*
%TD*%
%TO.C,C1*%
G36*
G01*
X131285000Y-122105000D02*
X130335000Y-122105000D01*
G75*
G02*
X130085000Y-121855000I0J250000D01*
G01*
X130085000Y-121180000D01*
G75*
G02*
X130335000Y-120930000I250000J0D01*
G01*
X131285000Y-120930000D01*
G75*
G02*
X131535000Y-121180000I0J-250000D01*
G01*
X131535000Y-121855000D01*
G75*
G02*
X131285000Y-122105000I-250000J0D01*
G01*
G37*
G36*
G01*
X131285000Y-124180000D02*
X130335000Y-124180000D01*
G75*
G02*
X130085000Y-123930000I0J250000D01*
G01*
X130085000Y-123255000D01*
G75*
G02*
X130335000Y-123005000I250000J0D01*
G01*
X131285000Y-123005000D01*
G75*
G02*
X131535000Y-123255000I0J-250000D01*
G01*
X131535000Y-123930000D01*
G75*
G02*
X131285000Y-124180000I-250000J0D01*
G01*
G37*
%TD*%
M02*
