%TF.GenerationSoftware,KiCad,Pcbnew,(5.1.9)-1*%
%TF.CreationDate,2021-10-15T18:16:09-04:00*%
%TF.ProjectId,REVERB Interface,52455645-5242-4204-996e-746572666163,rev?*%
%TF.SameCoordinates,Original*%
%TF.FileFunction,Legend,Bot*%
%TF.FilePolarity,Positive*%
%FSLAX46Y46*%
G04 Gerber Fmt 4.6, Leading zero omitted, Abs format (unit mm)*
G04 Created by KiCad (PCBNEW (5.1.9)-1) date 2021-10-15 18:16:09*
%MOMM*%
%LPD*%
G01*
G04 APERTURE LIST*
%ADD10C,0.150000*%
%ADD11C,0.120000*%
G04 APERTURE END LIST*
D10*
X111037619Y-109576428D02*
X111037619Y-109005000D01*
X110037619Y-109290714D02*
X111037619Y-109290714D01*
X110037619Y-108671666D02*
X111037619Y-108671666D01*
X110561428Y-108671666D02*
X110561428Y-108100238D01*
X110037619Y-108100238D02*
X111037619Y-108100238D01*
X110037619Y-107624047D02*
X111037619Y-107624047D01*
X110085238Y-107195476D02*
X110037619Y-107052619D01*
X110037619Y-106814523D01*
X110085238Y-106719285D01*
X110132857Y-106671666D01*
X110228095Y-106624047D01*
X110323333Y-106624047D01*
X110418571Y-106671666D01*
X110466190Y-106719285D01*
X110513809Y-106814523D01*
X110561428Y-107005000D01*
X110609047Y-107100238D01*
X110656666Y-107147857D01*
X110751904Y-107195476D01*
X110847142Y-107195476D01*
X110942380Y-107147857D01*
X110990000Y-107100238D01*
X111037619Y-107005000D01*
X111037619Y-106766904D01*
X110990000Y-106624047D01*
X110085238Y-105481190D02*
X110037619Y-105338333D01*
X110037619Y-105100238D01*
X110085238Y-105005000D01*
X110132857Y-104957380D01*
X110228095Y-104909761D01*
X110323333Y-104909761D01*
X110418571Y-104957380D01*
X110466190Y-105005000D01*
X110513809Y-105100238D01*
X110561428Y-105290714D01*
X110609047Y-105385952D01*
X110656666Y-105433571D01*
X110751904Y-105481190D01*
X110847142Y-105481190D01*
X110942380Y-105433571D01*
X110990000Y-105385952D01*
X111037619Y-105290714D01*
X111037619Y-105052619D01*
X110990000Y-104909761D01*
X110037619Y-104481190D02*
X111037619Y-104481190D01*
X110037619Y-104005000D02*
X111037619Y-104005000D01*
X111037619Y-103766904D01*
X110990000Y-103624047D01*
X110894761Y-103528809D01*
X110799523Y-103481190D01*
X110609047Y-103433571D01*
X110466190Y-103433571D01*
X110275714Y-103481190D01*
X110180476Y-103528809D01*
X110085238Y-103624047D01*
X110037619Y-103766904D01*
X110037619Y-104005000D01*
X110561428Y-103005000D02*
X110561428Y-102671666D01*
X110037619Y-102528809D02*
X110037619Y-103005000D01*
X111037619Y-103005000D01*
X111037619Y-102528809D01*
X110037619Y-101338333D02*
X111037619Y-101338333D01*
X111037619Y-101100238D01*
X110990000Y-100957380D01*
X110894761Y-100862142D01*
X110799523Y-100814523D01*
X110609047Y-100766904D01*
X110466190Y-100766904D01*
X110275714Y-100814523D01*
X110180476Y-100862142D01*
X110085238Y-100957380D01*
X110037619Y-101100238D01*
X110037619Y-101338333D01*
X111037619Y-100147857D02*
X111037619Y-99957380D01*
X110990000Y-99862142D01*
X110894761Y-99766904D01*
X110704285Y-99719285D01*
X110370952Y-99719285D01*
X110180476Y-99766904D01*
X110085238Y-99862142D01*
X110037619Y-99957380D01*
X110037619Y-100147857D01*
X110085238Y-100243095D01*
X110180476Y-100338333D01*
X110370952Y-100385952D01*
X110704285Y-100385952D01*
X110894761Y-100338333D01*
X110990000Y-100243095D01*
X111037619Y-100147857D01*
X111037619Y-99385952D02*
X110037619Y-99147857D01*
X110751904Y-98957380D01*
X110037619Y-98766904D01*
X111037619Y-98528809D01*
X110037619Y-98147857D02*
X111037619Y-98147857D01*
X110037619Y-97576428D01*
X111037619Y-97576428D01*
D11*
%TO.C,J3*%
X120650000Y-83760000D02*
X119320000Y-83760000D01*
X119320000Y-83760000D02*
X119320000Y-85090000D01*
X121920000Y-83760000D02*
X121920000Y-86360000D01*
X121920000Y-86360000D02*
X119320000Y-86360000D01*
X119320000Y-86360000D02*
X119320000Y-109280000D01*
X124520000Y-109280000D02*
X119320000Y-109280000D01*
X124520000Y-83760000D02*
X124520000Y-109280000D01*
X124520000Y-83760000D02*
X121920000Y-83760000D01*
%TO.C,J2*%
X123190000Y-135950000D02*
X124520000Y-135950000D01*
X124520000Y-135950000D02*
X124520000Y-134620000D01*
X121920000Y-135950000D02*
X121920000Y-133350000D01*
X121920000Y-133350000D02*
X124520000Y-133350000D01*
X124520000Y-133350000D02*
X124520000Y-115510000D01*
X119320000Y-115510000D02*
X124520000Y-115510000D01*
X119320000Y-135950000D02*
X119320000Y-115510000D01*
X119320000Y-135950000D02*
X121920000Y-135950000D01*
%TO.C,J1*%
X168796000Y-133604000D02*
X170126000Y-133604000D01*
X170126000Y-133604000D02*
X170126000Y-132274000D01*
X167526000Y-133604000D02*
X167526000Y-131004000D01*
X167526000Y-131004000D02*
X170126000Y-131004000D01*
X170126000Y-131004000D02*
X170126000Y-82684000D01*
X164926000Y-82684000D02*
X170126000Y-82684000D01*
X164926000Y-133604000D02*
X164926000Y-82684000D01*
X164926000Y-133604000D02*
X167526000Y-133604000D01*
%TO.C,H2*%
X119476000Y-56609000D02*
X119476000Y-59209000D01*
X119476000Y-56609000D02*
X185636000Y-56609000D01*
X185636000Y-56609000D02*
X185636000Y-61809000D01*
X122076000Y-61809000D02*
X185636000Y-61809000D01*
X122076000Y-59209000D02*
X122076000Y-61809000D01*
X119476000Y-59209000D02*
X122076000Y-59209000D01*
X119476000Y-61809000D02*
X120806000Y-61809000D01*
X119476000Y-60479000D02*
X119476000Y-61809000D01*
%TO.C,H1*%
X119476000Y-61689000D02*
X119476000Y-64289000D01*
X119476000Y-61689000D02*
X185636000Y-61689000D01*
X185636000Y-61689000D02*
X185636000Y-66889000D01*
X122076000Y-66889000D02*
X185636000Y-66889000D01*
X122076000Y-64289000D02*
X122076000Y-66889000D01*
X119476000Y-64289000D02*
X122076000Y-64289000D01*
X119476000Y-66889000D02*
X120806000Y-66889000D01*
X119476000Y-65559000D02*
X119476000Y-66889000D01*
%TD*%
M02*
