%TF.GenerationSoftware,KiCad,Pcbnew,(5.1.9)-1*%
%TF.CreationDate,2021-10-14T23:09:40-04:00*%
%TF.ProjectId,REVERB Interface,52455645-5242-4204-996e-746572666163,rev?*%
%TF.SameCoordinates,Original*%
%TF.FileFunction,Soldermask,Bot*%
%TF.FilePolarity,Negative*%
%FSLAX46Y46*%
G04 Gerber Fmt 4.6, Leading zero omitted, Abs format (unit mm)*
G04 Created by KiCad (PCBNEW (5.1.9)-1) date 2021-10-14 23:09:40*
%MOMM*%
%LPD*%
G01*
G04 APERTURE LIST*
%ADD10C,1.500000*%
%ADD11C,2.700000*%
%ADD12C,1.524000*%
%ADD13C,5.600000*%
%ADD14C,3.600000*%
%ADD15O,1.400000X0.700000*%
%ADD16O,1.700000X1.700000*%
%ADD17R,1.700000X1.700000*%
%ADD18O,1.500000X1.500000*%
%ADD19R,1.500000X1.500000*%
G04 APERTURE END LIST*
D10*
%TO.C,Y1*%
X153870000Y-136525000D03*
X158750000Y-136525000D03*
%TD*%
D11*
%TO.C,M8*%
X190701000Y-136609000D03*
%TD*%
%TO.C,M7*%
X190701000Y-78609000D03*
%TD*%
%TO.C,M6*%
X167574000Y-136609000D03*
%TD*%
%TO.C,M5*%
X167384000Y-79244000D03*
%TD*%
D12*
%TO.C,U1*%
X135255000Y-92710000D03*
X137795000Y-92710000D03*
X140335000Y-92710000D03*
X142875000Y-92710000D03*
X145415000Y-92710000D03*
X147955000Y-92710000D03*
X150495000Y-92710000D03*
X153035000Y-92710000D03*
X155575000Y-92710000D03*
X140335000Y-77470000D03*
X150495000Y-77470000D03*
X147955000Y-77470000D03*
X145415000Y-77470000D03*
X142875000Y-77470000D03*
%TD*%
D13*
%TO.C,M4*%
X191926000Y-143664000D03*
D14*
X191926000Y-143664000D03*
%TD*%
D13*
%TO.C,M3*%
X111916000Y-143664000D03*
D14*
X111916000Y-143664000D03*
%TD*%
D13*
%TO.C,M2*%
X189386000Y-57939000D03*
D14*
X189386000Y-57939000D03*
%TD*%
D13*
%TO.C,M1*%
X115726000Y-57939000D03*
D14*
X115726000Y-57939000D03*
%TD*%
D15*
%TO.C,J4*%
X114006000Y-75639000D03*
X114006000Y-74389000D03*
X114006000Y-73139000D03*
X114006000Y-71889000D03*
X114006000Y-70639000D03*
X114006000Y-69389000D03*
X114006000Y-68139000D03*
X114006000Y-66889000D03*
X114006000Y-65639000D03*
%TD*%
D16*
%TO.C,J3*%
X123190000Y-107950000D03*
X120650000Y-107950000D03*
X123190000Y-105410000D03*
X120650000Y-105410000D03*
X123190000Y-102870000D03*
X120650000Y-102870000D03*
X123190000Y-100330000D03*
X120650000Y-100330000D03*
X123190000Y-97790000D03*
X120650000Y-97790000D03*
X123190000Y-95250000D03*
X120650000Y-95250000D03*
X123190000Y-92710000D03*
X120650000Y-92710000D03*
X123190000Y-90170000D03*
X120650000Y-90170000D03*
X123190000Y-87630000D03*
X120650000Y-87630000D03*
X123190000Y-85090000D03*
D17*
X120650000Y-85090000D03*
%TD*%
D16*
%TO.C,J2*%
X120650000Y-116840000D03*
X123190000Y-116840000D03*
X120650000Y-119380000D03*
X123190000Y-119380000D03*
X120650000Y-121920000D03*
X123190000Y-121920000D03*
X120650000Y-124460000D03*
X123190000Y-124460000D03*
X120650000Y-127000000D03*
X123190000Y-127000000D03*
X120650000Y-129540000D03*
X123190000Y-129540000D03*
X120650000Y-132080000D03*
X123190000Y-132080000D03*
X120650000Y-134620000D03*
D17*
X123190000Y-134620000D03*
%TD*%
D16*
%TO.C,J1*%
X166256000Y-84014000D03*
X168796000Y-84014000D03*
X166256000Y-86554000D03*
X168796000Y-86554000D03*
X166256000Y-89094000D03*
X168796000Y-89094000D03*
X166256000Y-91634000D03*
X168796000Y-91634000D03*
X166256000Y-94174000D03*
X168796000Y-94174000D03*
X166256000Y-96714000D03*
X168796000Y-96714000D03*
X166256000Y-99254000D03*
X168796000Y-99254000D03*
X166256000Y-101794000D03*
X168796000Y-101794000D03*
X166256000Y-104334000D03*
X168796000Y-104334000D03*
X166256000Y-106874000D03*
X168796000Y-106874000D03*
X166256000Y-109414000D03*
X168796000Y-109414000D03*
X166256000Y-111954000D03*
X168796000Y-111954000D03*
X166256000Y-114494000D03*
X168796000Y-114494000D03*
X166256000Y-117034000D03*
X168796000Y-117034000D03*
X166256000Y-119574000D03*
X168796000Y-119574000D03*
X166256000Y-122114000D03*
X168796000Y-122114000D03*
X166256000Y-124654000D03*
X168796000Y-124654000D03*
X166256000Y-127194000D03*
X168796000Y-127194000D03*
X166256000Y-129734000D03*
X168796000Y-129734000D03*
X166256000Y-132274000D03*
D17*
X168796000Y-132274000D03*
%TD*%
D18*
%TO.C,H2*%
X184306000Y-57939000D03*
X184306000Y-60479000D03*
X181766000Y-57939000D03*
X181766000Y-60479000D03*
X179226000Y-57939000D03*
X179226000Y-60479000D03*
X176686000Y-57939000D03*
X176686000Y-60479000D03*
X174146000Y-57939000D03*
X174146000Y-60479000D03*
X171606000Y-57939000D03*
X171606000Y-60479000D03*
X169066000Y-57939000D03*
X169066000Y-60479000D03*
X166526000Y-57939000D03*
X166526000Y-60479000D03*
X163986000Y-57939000D03*
X163986000Y-60479000D03*
X161446000Y-57939000D03*
X161446000Y-60479000D03*
X158906000Y-57939000D03*
X158906000Y-60479000D03*
X156366000Y-57939000D03*
X156366000Y-60479000D03*
X153826000Y-57939000D03*
X153826000Y-60479000D03*
X151286000Y-57939000D03*
X151286000Y-60479000D03*
X148746000Y-57939000D03*
X148746000Y-60479000D03*
X146206000Y-57939000D03*
X146206000Y-60479000D03*
X143666000Y-57939000D03*
X143666000Y-60479000D03*
X141126000Y-57939000D03*
X141126000Y-60479000D03*
X138586000Y-57939000D03*
X138586000Y-60479000D03*
X136046000Y-57939000D03*
X136046000Y-60479000D03*
X133506000Y-57939000D03*
X133506000Y-60479000D03*
X130966000Y-57939000D03*
X130966000Y-60479000D03*
X128426000Y-57939000D03*
X128426000Y-60479000D03*
X125886000Y-57939000D03*
X125886000Y-60479000D03*
X123346000Y-57939000D03*
X123346000Y-60479000D03*
X120806000Y-57939000D03*
D19*
X120806000Y-60479000D03*
%TD*%
D18*
%TO.C,H1*%
X184306000Y-63019000D03*
X184306000Y-65559000D03*
X181766000Y-63019000D03*
X181766000Y-65559000D03*
X179226000Y-63019000D03*
X179226000Y-65559000D03*
X176686000Y-63019000D03*
X176686000Y-65559000D03*
X174146000Y-63019000D03*
X174146000Y-65559000D03*
X171606000Y-63019000D03*
X171606000Y-65559000D03*
X169066000Y-63019000D03*
X169066000Y-65559000D03*
X166526000Y-63019000D03*
X166526000Y-65559000D03*
X163986000Y-63019000D03*
X163986000Y-65559000D03*
X161446000Y-63019000D03*
X161446000Y-65559000D03*
X158906000Y-63019000D03*
X158906000Y-65559000D03*
X156366000Y-63019000D03*
X156366000Y-65559000D03*
X153826000Y-63019000D03*
X153826000Y-65559000D03*
X151286000Y-63019000D03*
X151286000Y-65559000D03*
X148746000Y-63019000D03*
X148746000Y-65559000D03*
X146206000Y-63019000D03*
X146206000Y-65559000D03*
X143666000Y-63019000D03*
X143666000Y-65559000D03*
X141126000Y-63019000D03*
X141126000Y-65559000D03*
X138586000Y-63019000D03*
X138586000Y-65559000D03*
X136046000Y-63019000D03*
X136046000Y-65559000D03*
X133506000Y-63019000D03*
X133506000Y-65559000D03*
X130966000Y-63019000D03*
X130966000Y-65559000D03*
X128426000Y-63019000D03*
X128426000Y-65559000D03*
X125886000Y-63019000D03*
X125886000Y-65559000D03*
X123346000Y-63019000D03*
X123346000Y-65559000D03*
X120806000Y-63019000D03*
D19*
X120806000Y-65559000D03*
%TD*%
M02*
