%TF.GenerationSoftware,KiCad,Pcbnew,(5.1.9)-1*%
%TF.CreationDate,2021-11-28T20:12:32-05:00*%
%TF.ProjectId,uUSB male BOB,75555342-206d-4616-9c65-20424f422e6b,rev?*%
%TF.SameCoordinates,Original*%
%TF.FileFunction,Copper,L1,Top*%
%TF.FilePolarity,Positive*%
%FSLAX46Y46*%
G04 Gerber Fmt 4.6, Leading zero omitted, Abs format (unit mm)*
G04 Created by KiCad (PCBNEW (5.1.9)-1) date 2021-11-28 20:12:32*
%MOMM*%
%LPD*%
G01*
G04 APERTURE LIST*
%TA.AperFunction,ComponentPad*%
%ADD10O,1.700000X1.700000*%
%TD*%
%TA.AperFunction,ComponentPad*%
%ADD11R,1.700000X1.700000*%
%TD*%
%TA.AperFunction,ComponentPad*%
%ADD12C,1.000000*%
%TD*%
%TA.AperFunction,ComponentPad*%
%ADD13C,1.200000*%
%TD*%
%TA.AperFunction,ComponentPad*%
%ADD14C,0.800000*%
%TD*%
%TA.AperFunction,ComponentPad*%
%ADD15C,0.700000*%
%TD*%
%TA.AperFunction,Conductor*%
%ADD16C,0.254000*%
%TD*%
%TA.AperFunction,Conductor*%
%ADD17C,0.381000*%
%TD*%
%TA.AperFunction,Conductor*%
%ADD18C,0.100000*%
%TD*%
G04 APERTURE END LIST*
D10*
%TO.P,J3,3*%
%TO.N,/D+*%
X165735000Y-66675000D03*
%TO.P,J3,2*%
%TO.N,/D-*%
X163195000Y-66675000D03*
D11*
%TO.P,J3,1*%
%TO.N,GND*%
X160655000Y-66675000D03*
%TD*%
D10*
%TO.P,J2,2*%
%TO.N,Net-(J1-Pad1)*%
X153035000Y-66675000D03*
D11*
%TO.P,J2,1*%
%TO.N,GND*%
X150495000Y-66675000D03*
%TD*%
D12*
%TO.P,J1,6*%
%TO.N,GND*%
X161670000Y-57755000D03*
D13*
X161145000Y-56715000D03*
D14*
X159845000Y-56215000D03*
X159845000Y-58715000D03*
X156845000Y-58715000D03*
X156845000Y-56215000D03*
D13*
X155545000Y-56715000D03*
D12*
X155020000Y-57755000D03*
D15*
%TO.P,J1,5*%
X159645000Y-57135000D03*
%TO.P,J1,4*%
%TO.N,N/C*%
X158995000Y-57785000D03*
%TO.P,J1,3*%
%TO.N,/D+*%
X158345000Y-57135000D03*
%TO.P,J1,2*%
%TO.N,/D-*%
X157695000Y-57785000D03*
%TO.P,J1,1*%
%TO.N,Net-(J1-Pad1)*%
X157045000Y-57135000D03*
%TD*%
D16*
%TO.N,/D+*%
X165695000Y-59893038D02*
X165695000Y-66675000D01*
X161289961Y-55487999D02*
X165695000Y-59893038D01*
X159496039Y-55487999D02*
X161289961Y-55487999D01*
X158345000Y-56639038D02*
X159496039Y-55487999D01*
X158345000Y-57135000D02*
X158345000Y-56639038D01*
%TO.N,/D-*%
X157695000Y-61175000D02*
X163195000Y-66675000D01*
X157695000Y-57785000D02*
X157695000Y-61175000D01*
D17*
%TO.N,Net-(J1-Pad1)*%
X152995000Y-61185000D02*
X152995000Y-66675000D01*
X157045000Y-57135000D02*
X152995000Y-61185000D01*
%TD*%
D16*
%TO.N,GND*%
X166980000Y-65865345D02*
X166888475Y-65728368D01*
X166681632Y-65521525D01*
X166457000Y-65371431D01*
X166457000Y-59930461D01*
X166460686Y-59893038D01*
X166457000Y-59855612D01*
X166445974Y-59743660D01*
X166402402Y-59600023D01*
X166347701Y-59497685D01*
X166331645Y-59467645D01*
X166260279Y-59380686D01*
X166236422Y-59351616D01*
X166207353Y-59327760D01*
X161855245Y-54975653D01*
X161831383Y-54946577D01*
X161715353Y-54851354D01*
X161582976Y-54780597D01*
X161439339Y-54737025D01*
X161327387Y-54725999D01*
X161327384Y-54725999D01*
X161289961Y-54722313D01*
X161252538Y-54725999D01*
X159533462Y-54725999D01*
X159496039Y-54722313D01*
X159458616Y-54725999D01*
X159458613Y-54725999D01*
X159346661Y-54737025D01*
X159203024Y-54780597D01*
X159141403Y-54813534D01*
X159070646Y-54851354D01*
X158987943Y-54919227D01*
X158954617Y-54946577D01*
X158930760Y-54975647D01*
X157832649Y-56073759D01*
X157803579Y-56097616D01*
X157708355Y-56213646D01*
X157637598Y-56346023D01*
X157637525Y-56346263D01*
X157617237Y-56332708D01*
X157627685Y-56272297D01*
X157623824Y-56118501D01*
X157590034Y-55968414D01*
X157546180Y-55862544D01*
X157414031Y-55825574D01*
X157089605Y-56150000D01*
X156947986Y-56150000D01*
X156757686Y-56187853D01*
X156653230Y-56231120D01*
X156651253Y-56229143D01*
X156665395Y-56215000D01*
X156275969Y-55825574D01*
X156143820Y-55862544D01*
X156097456Y-55982937D01*
X156078436Y-56001956D01*
X156016834Y-55849511D01*
X155838919Y-55774091D01*
X155649709Y-55734829D01*
X155456475Y-55733235D01*
X155266644Y-55769370D01*
X155087509Y-55841845D01*
X155073166Y-55849511D01*
X155011563Y-56001958D01*
X155545000Y-56535395D01*
X155559143Y-56521253D01*
X155738748Y-56700858D01*
X155724605Y-56715000D01*
X155738748Y-56729143D01*
X155559143Y-56908748D01*
X155545000Y-56894605D01*
X155441441Y-56998164D01*
X155432217Y-56971566D01*
X155271456Y-56906200D01*
X155189872Y-56890523D01*
X155365395Y-56715000D01*
X154831958Y-56181563D01*
X154679511Y-56243166D01*
X154604091Y-56421081D01*
X154564829Y-56610291D01*
X154563235Y-56803525D01*
X154599370Y-56993356D01*
X154599831Y-56994496D01*
X154558445Y-57113839D01*
X155020000Y-57575395D01*
X155034143Y-57561253D01*
X155213748Y-57740858D01*
X155199605Y-57755000D01*
X155213748Y-57769143D01*
X155034143Y-57948748D01*
X155020000Y-57934605D01*
X154558445Y-58396161D01*
X154573369Y-58439198D01*
X152439966Y-60572602D01*
X152408459Y-60598459D01*
X152339214Y-60682835D01*
X152305301Y-60724158D01*
X152291698Y-60749608D01*
X152228647Y-60867567D01*
X152181444Y-61023175D01*
X152169500Y-61144447D01*
X152165506Y-61185000D01*
X152169500Y-61225551D01*
X152169501Y-65467314D01*
X152088368Y-65521525D01*
X151881525Y-65728368D01*
X151727450Y-65958958D01*
X151727843Y-65825000D01*
X151720487Y-65750311D01*
X151698701Y-65678492D01*
X151663322Y-65612304D01*
X151615711Y-65554289D01*
X151557696Y-65506678D01*
X151491508Y-65471299D01*
X151419689Y-65449513D01*
X151345000Y-65442157D01*
X150717250Y-65444000D01*
X150622000Y-65539250D01*
X150622000Y-66548000D01*
X150642000Y-66548000D01*
X150642000Y-66802000D01*
X150622000Y-66802000D01*
X150622000Y-67810750D01*
X150717250Y-67906000D01*
X151345000Y-67907843D01*
X151419689Y-67900487D01*
X151491508Y-67878701D01*
X151557696Y-67843322D01*
X151615711Y-67795711D01*
X151663322Y-67737696D01*
X151698701Y-67671508D01*
X151720487Y-67599689D01*
X151727843Y-67525000D01*
X151727450Y-67391042D01*
X151881525Y-67621632D01*
X152088368Y-67828475D01*
X152225345Y-67920000D01*
X148996000Y-67920000D01*
X148996000Y-67525000D01*
X149262157Y-67525000D01*
X149269513Y-67599689D01*
X149291299Y-67671508D01*
X149326678Y-67737696D01*
X149374289Y-67795711D01*
X149432304Y-67843322D01*
X149498492Y-67878701D01*
X149570311Y-67900487D01*
X149645000Y-67907843D01*
X150272750Y-67906000D01*
X150368000Y-67810750D01*
X150368000Y-66802000D01*
X149359250Y-66802000D01*
X149264000Y-66897250D01*
X149262157Y-67525000D01*
X148996000Y-67525000D01*
X148996000Y-65825000D01*
X149262157Y-65825000D01*
X149264000Y-66452750D01*
X149359250Y-66548000D01*
X150368000Y-66548000D01*
X150368000Y-65539250D01*
X150272750Y-65444000D01*
X149645000Y-65442157D01*
X149570311Y-65449513D01*
X149498492Y-65471299D01*
X149432304Y-65506678D01*
X149374289Y-65554289D01*
X149326678Y-65612304D01*
X149291299Y-65678492D01*
X149269513Y-65750311D01*
X149262157Y-65825000D01*
X148996000Y-65825000D01*
X148996000Y-57673968D01*
X154138452Y-57673968D01*
X154139582Y-57847506D01*
X154174546Y-58017489D01*
X154236566Y-58167217D01*
X154378839Y-58216555D01*
X154840395Y-57755000D01*
X154378839Y-57293445D01*
X154236566Y-57342783D01*
X154171200Y-57503544D01*
X154138452Y-57673968D01*
X148996000Y-57673968D01*
X148996000Y-55645969D01*
X156455574Y-55645969D01*
X156845000Y-56035395D01*
X157234426Y-55645969D01*
X157197456Y-55513820D01*
X157053890Y-55458532D01*
X156902297Y-55432315D01*
X156748501Y-55436176D01*
X156598414Y-55469966D01*
X156492544Y-55513820D01*
X156455574Y-55645969D01*
X148996000Y-55645969D01*
X148996000Y-54508000D01*
X166980001Y-54508000D01*
X166980000Y-65865345D01*
%TA.AperFunction,Conductor*%
D18*
G36*
X166980000Y-65865345D02*
G01*
X166888475Y-65728368D01*
X166681632Y-65521525D01*
X166457000Y-65371431D01*
X166457000Y-59930461D01*
X166460686Y-59893038D01*
X166457000Y-59855612D01*
X166445974Y-59743660D01*
X166402402Y-59600023D01*
X166347701Y-59497685D01*
X166331645Y-59467645D01*
X166260279Y-59380686D01*
X166236422Y-59351616D01*
X166207353Y-59327760D01*
X161855245Y-54975653D01*
X161831383Y-54946577D01*
X161715353Y-54851354D01*
X161582976Y-54780597D01*
X161439339Y-54737025D01*
X161327387Y-54725999D01*
X161327384Y-54725999D01*
X161289961Y-54722313D01*
X161252538Y-54725999D01*
X159533462Y-54725999D01*
X159496039Y-54722313D01*
X159458616Y-54725999D01*
X159458613Y-54725999D01*
X159346661Y-54737025D01*
X159203024Y-54780597D01*
X159141403Y-54813534D01*
X159070646Y-54851354D01*
X158987943Y-54919227D01*
X158954617Y-54946577D01*
X158930760Y-54975647D01*
X157832649Y-56073759D01*
X157803579Y-56097616D01*
X157708355Y-56213646D01*
X157637598Y-56346023D01*
X157637525Y-56346263D01*
X157617237Y-56332708D01*
X157627685Y-56272297D01*
X157623824Y-56118501D01*
X157590034Y-55968414D01*
X157546180Y-55862544D01*
X157414031Y-55825574D01*
X157089605Y-56150000D01*
X156947986Y-56150000D01*
X156757686Y-56187853D01*
X156653230Y-56231120D01*
X156651253Y-56229143D01*
X156665395Y-56215000D01*
X156275969Y-55825574D01*
X156143820Y-55862544D01*
X156097456Y-55982937D01*
X156078436Y-56001956D01*
X156016834Y-55849511D01*
X155838919Y-55774091D01*
X155649709Y-55734829D01*
X155456475Y-55733235D01*
X155266644Y-55769370D01*
X155087509Y-55841845D01*
X155073166Y-55849511D01*
X155011563Y-56001958D01*
X155545000Y-56535395D01*
X155559143Y-56521253D01*
X155738748Y-56700858D01*
X155724605Y-56715000D01*
X155738748Y-56729143D01*
X155559143Y-56908748D01*
X155545000Y-56894605D01*
X155441441Y-56998164D01*
X155432217Y-56971566D01*
X155271456Y-56906200D01*
X155189872Y-56890523D01*
X155365395Y-56715000D01*
X154831958Y-56181563D01*
X154679511Y-56243166D01*
X154604091Y-56421081D01*
X154564829Y-56610291D01*
X154563235Y-56803525D01*
X154599370Y-56993356D01*
X154599831Y-56994496D01*
X154558445Y-57113839D01*
X155020000Y-57575395D01*
X155034143Y-57561253D01*
X155213748Y-57740858D01*
X155199605Y-57755000D01*
X155213748Y-57769143D01*
X155034143Y-57948748D01*
X155020000Y-57934605D01*
X154558445Y-58396161D01*
X154573369Y-58439198D01*
X152439966Y-60572602D01*
X152408459Y-60598459D01*
X152339214Y-60682835D01*
X152305301Y-60724158D01*
X152291698Y-60749608D01*
X152228647Y-60867567D01*
X152181444Y-61023175D01*
X152169500Y-61144447D01*
X152165506Y-61185000D01*
X152169500Y-61225551D01*
X152169501Y-65467314D01*
X152088368Y-65521525D01*
X151881525Y-65728368D01*
X151727450Y-65958958D01*
X151727843Y-65825000D01*
X151720487Y-65750311D01*
X151698701Y-65678492D01*
X151663322Y-65612304D01*
X151615711Y-65554289D01*
X151557696Y-65506678D01*
X151491508Y-65471299D01*
X151419689Y-65449513D01*
X151345000Y-65442157D01*
X150717250Y-65444000D01*
X150622000Y-65539250D01*
X150622000Y-66548000D01*
X150642000Y-66548000D01*
X150642000Y-66802000D01*
X150622000Y-66802000D01*
X150622000Y-67810750D01*
X150717250Y-67906000D01*
X151345000Y-67907843D01*
X151419689Y-67900487D01*
X151491508Y-67878701D01*
X151557696Y-67843322D01*
X151615711Y-67795711D01*
X151663322Y-67737696D01*
X151698701Y-67671508D01*
X151720487Y-67599689D01*
X151727843Y-67525000D01*
X151727450Y-67391042D01*
X151881525Y-67621632D01*
X152088368Y-67828475D01*
X152225345Y-67920000D01*
X148996000Y-67920000D01*
X148996000Y-67525000D01*
X149262157Y-67525000D01*
X149269513Y-67599689D01*
X149291299Y-67671508D01*
X149326678Y-67737696D01*
X149374289Y-67795711D01*
X149432304Y-67843322D01*
X149498492Y-67878701D01*
X149570311Y-67900487D01*
X149645000Y-67907843D01*
X150272750Y-67906000D01*
X150368000Y-67810750D01*
X150368000Y-66802000D01*
X149359250Y-66802000D01*
X149264000Y-66897250D01*
X149262157Y-67525000D01*
X148996000Y-67525000D01*
X148996000Y-65825000D01*
X149262157Y-65825000D01*
X149264000Y-66452750D01*
X149359250Y-66548000D01*
X150368000Y-66548000D01*
X150368000Y-65539250D01*
X150272750Y-65444000D01*
X149645000Y-65442157D01*
X149570311Y-65449513D01*
X149498492Y-65471299D01*
X149432304Y-65506678D01*
X149374289Y-65554289D01*
X149326678Y-65612304D01*
X149291299Y-65678492D01*
X149269513Y-65750311D01*
X149262157Y-65825000D01*
X148996000Y-65825000D01*
X148996000Y-57673968D01*
X154138452Y-57673968D01*
X154139582Y-57847506D01*
X154174546Y-58017489D01*
X154236566Y-58167217D01*
X154378839Y-58216555D01*
X154840395Y-57755000D01*
X154378839Y-57293445D01*
X154236566Y-57342783D01*
X154171200Y-57503544D01*
X154138452Y-57673968D01*
X148996000Y-57673968D01*
X148996000Y-55645969D01*
X156455574Y-55645969D01*
X156845000Y-56035395D01*
X157234426Y-55645969D01*
X157197456Y-55513820D01*
X157053890Y-55458532D01*
X156902297Y-55432315D01*
X156748501Y-55436176D01*
X156598414Y-55469966D01*
X156492544Y-55513820D01*
X156455574Y-55645969D01*
X148996000Y-55645969D01*
X148996000Y-54508000D01*
X166980001Y-54508000D01*
X166980000Y-65865345D01*
G37*
%TD.AperFunction*%
D16*
X156933000Y-58595110D02*
X156933000Y-58834890D01*
X156859143Y-58908748D01*
X156845000Y-58894605D01*
X156455574Y-59284031D01*
X156492544Y-59416180D01*
X156636110Y-59471468D01*
X156787703Y-59497685D01*
X156933001Y-59494037D01*
X156933001Y-61137567D01*
X156929314Y-61175000D01*
X156944027Y-61324378D01*
X156987599Y-61468015D01*
X157058355Y-61600392D01*
X157129721Y-61687351D01*
X157153579Y-61716422D01*
X157182649Y-61740279D01*
X160886343Y-65443973D01*
X160877250Y-65444000D01*
X160782000Y-65539250D01*
X160782000Y-66548000D01*
X160802000Y-66548000D01*
X160802000Y-66802000D01*
X160782000Y-66802000D01*
X160782000Y-67810750D01*
X160877250Y-67906000D01*
X161505000Y-67907843D01*
X161579689Y-67900487D01*
X161651508Y-67878701D01*
X161717696Y-67843322D01*
X161775711Y-67795711D01*
X161823322Y-67737696D01*
X161858701Y-67671508D01*
X161880487Y-67599689D01*
X161887843Y-67525000D01*
X161887450Y-67391042D01*
X162041525Y-67621632D01*
X162248368Y-67828475D01*
X162385345Y-67920000D01*
X153844655Y-67920000D01*
X153981632Y-67828475D01*
X154188475Y-67621632D01*
X154253042Y-67525000D01*
X159422157Y-67525000D01*
X159429513Y-67599689D01*
X159451299Y-67671508D01*
X159486678Y-67737696D01*
X159534289Y-67795711D01*
X159592304Y-67843322D01*
X159658492Y-67878701D01*
X159730311Y-67900487D01*
X159805000Y-67907843D01*
X160432750Y-67906000D01*
X160528000Y-67810750D01*
X160528000Y-66802000D01*
X159519250Y-66802000D01*
X159424000Y-66897250D01*
X159422157Y-67525000D01*
X154253042Y-67525000D01*
X154350990Y-67378411D01*
X154462932Y-67108158D01*
X154520000Y-66821260D01*
X154520000Y-66528740D01*
X154462932Y-66241842D01*
X154350990Y-65971589D01*
X154253043Y-65825000D01*
X159422157Y-65825000D01*
X159424000Y-66452750D01*
X159519250Y-66548000D01*
X160528000Y-66548000D01*
X160528000Y-65539250D01*
X160432750Y-65444000D01*
X159805000Y-65442157D01*
X159730311Y-65449513D01*
X159658492Y-65471299D01*
X159592304Y-65506678D01*
X159534289Y-65554289D01*
X159486678Y-65612304D01*
X159451299Y-65678492D01*
X159429513Y-65750311D01*
X159422157Y-65825000D01*
X154253043Y-65825000D01*
X154188475Y-65728368D01*
X153981632Y-65521525D01*
X153820500Y-65413860D01*
X153820500Y-61526932D01*
X156250213Y-59097220D01*
X156275969Y-59104426D01*
X156665395Y-58715000D01*
X156651253Y-58700858D01*
X156830858Y-58521253D01*
X156845000Y-58535395D01*
X156859143Y-58521253D01*
X156933000Y-58595110D01*
%TA.AperFunction,Conductor*%
D18*
G36*
X156933000Y-58595110D02*
G01*
X156933000Y-58834890D01*
X156859143Y-58908748D01*
X156845000Y-58894605D01*
X156455574Y-59284031D01*
X156492544Y-59416180D01*
X156636110Y-59471468D01*
X156787703Y-59497685D01*
X156933001Y-59494037D01*
X156933001Y-61137567D01*
X156929314Y-61175000D01*
X156944027Y-61324378D01*
X156987599Y-61468015D01*
X157058355Y-61600392D01*
X157129721Y-61687351D01*
X157153579Y-61716422D01*
X157182649Y-61740279D01*
X160886343Y-65443973D01*
X160877250Y-65444000D01*
X160782000Y-65539250D01*
X160782000Y-66548000D01*
X160802000Y-66548000D01*
X160802000Y-66802000D01*
X160782000Y-66802000D01*
X160782000Y-67810750D01*
X160877250Y-67906000D01*
X161505000Y-67907843D01*
X161579689Y-67900487D01*
X161651508Y-67878701D01*
X161717696Y-67843322D01*
X161775711Y-67795711D01*
X161823322Y-67737696D01*
X161858701Y-67671508D01*
X161880487Y-67599689D01*
X161887843Y-67525000D01*
X161887450Y-67391042D01*
X162041525Y-67621632D01*
X162248368Y-67828475D01*
X162385345Y-67920000D01*
X153844655Y-67920000D01*
X153981632Y-67828475D01*
X154188475Y-67621632D01*
X154253042Y-67525000D01*
X159422157Y-67525000D01*
X159429513Y-67599689D01*
X159451299Y-67671508D01*
X159486678Y-67737696D01*
X159534289Y-67795711D01*
X159592304Y-67843322D01*
X159658492Y-67878701D01*
X159730311Y-67900487D01*
X159805000Y-67907843D01*
X160432750Y-67906000D01*
X160528000Y-67810750D01*
X160528000Y-66802000D01*
X159519250Y-66802000D01*
X159424000Y-66897250D01*
X159422157Y-67525000D01*
X154253042Y-67525000D01*
X154350990Y-67378411D01*
X154462932Y-67108158D01*
X154520000Y-66821260D01*
X154520000Y-66528740D01*
X154462932Y-66241842D01*
X154350990Y-65971589D01*
X154253043Y-65825000D01*
X159422157Y-65825000D01*
X159424000Y-66452750D01*
X159519250Y-66548000D01*
X160528000Y-66548000D01*
X160528000Y-65539250D01*
X160432750Y-65444000D01*
X159805000Y-65442157D01*
X159730311Y-65449513D01*
X159658492Y-65471299D01*
X159592304Y-65506678D01*
X159534289Y-65554289D01*
X159486678Y-65612304D01*
X159451299Y-65678492D01*
X159429513Y-65750311D01*
X159422157Y-65825000D01*
X154253043Y-65825000D01*
X154188475Y-65728368D01*
X153981632Y-65521525D01*
X153820500Y-65413860D01*
X153820500Y-61526932D01*
X156250213Y-59097220D01*
X156275969Y-59104426D01*
X156665395Y-58715000D01*
X156651253Y-58700858D01*
X156830858Y-58521253D01*
X156845000Y-58535395D01*
X156859143Y-58521253D01*
X156933000Y-58595110D01*
G37*
%TD.AperFunction*%
D16*
X161338748Y-56700858D02*
X161324605Y-56715000D01*
X161500105Y-56890500D01*
X161407511Y-56909546D01*
X161257783Y-56971566D01*
X161248559Y-56998164D01*
X161145000Y-56894605D01*
X160611563Y-57428042D01*
X160673166Y-57580489D01*
X160796378Y-57632720D01*
X160788452Y-57673968D01*
X160789582Y-57847506D01*
X160824546Y-58017489D01*
X160886566Y-58167217D01*
X161028839Y-58216555D01*
X161490395Y-57755000D01*
X161476252Y-57740858D01*
X161655858Y-57561253D01*
X161670000Y-57575395D01*
X161684142Y-57561252D01*
X161863748Y-57740858D01*
X161849605Y-57755000D01*
X162311161Y-58216555D01*
X162453434Y-58167217D01*
X162518800Y-58006456D01*
X162551548Y-57836032D01*
X162551490Y-57827159D01*
X164933000Y-60208669D01*
X164933001Y-65424884D01*
X164788368Y-65521525D01*
X164581525Y-65728368D01*
X164465000Y-65902760D01*
X164348475Y-65728368D01*
X164141632Y-65521525D01*
X163898411Y-65359010D01*
X163628158Y-65247068D01*
X163341260Y-65190000D01*
X163048740Y-65190000D01*
X162830951Y-65233321D01*
X158457000Y-60859370D01*
X158457000Y-59284031D01*
X159455574Y-59284031D01*
X159492544Y-59416180D01*
X159636110Y-59471468D01*
X159787703Y-59497685D01*
X159941499Y-59493824D01*
X160091586Y-59460034D01*
X160197456Y-59416180D01*
X160234426Y-59284031D01*
X159845000Y-58894605D01*
X159455574Y-59284031D01*
X158457000Y-59284031D01*
X158457000Y-58610169D01*
X158528428Y-58657896D01*
X158707686Y-58732147D01*
X158897986Y-58770000D01*
X159065134Y-58770000D01*
X159066176Y-58811499D01*
X159099966Y-58961586D01*
X159143820Y-59067456D01*
X159275969Y-59104426D01*
X159665395Y-58715000D01*
X160024605Y-58715000D01*
X160414031Y-59104426D01*
X160546180Y-59067456D01*
X160601468Y-58923890D01*
X160627685Y-58772297D01*
X160623824Y-58618501D01*
X160590034Y-58468414D01*
X160560106Y-58396161D01*
X161208445Y-58396161D01*
X161257783Y-58538434D01*
X161418544Y-58603800D01*
X161588968Y-58636548D01*
X161762506Y-58635418D01*
X161932489Y-58600454D01*
X162082217Y-58538434D01*
X162131555Y-58396161D01*
X161670000Y-57934605D01*
X161208445Y-58396161D01*
X160560106Y-58396161D01*
X160546180Y-58362544D01*
X160414031Y-58325574D01*
X160024605Y-58715000D01*
X159665395Y-58715000D01*
X159651253Y-58700858D01*
X159830858Y-58521253D01*
X159845000Y-58535395D01*
X160234426Y-58145969D01*
X160197456Y-58013820D01*
X160053890Y-57958532D01*
X159967743Y-57943633D01*
X159980000Y-57882014D01*
X159980000Y-57743257D01*
X159998232Y-57667837D01*
X159970470Y-57640075D01*
X159942147Y-57497686D01*
X159867896Y-57318428D01*
X159760099Y-57157099D01*
X159622901Y-57019901D01*
X159580524Y-56991586D01*
X159610503Y-56961607D01*
X159636110Y-56971468D01*
X159787703Y-56997685D01*
X159941499Y-56993824D01*
X159972836Y-56986769D01*
X159824605Y-57135000D01*
X160177837Y-57488232D01*
X160304953Y-57457503D01*
X160355189Y-57322555D01*
X160371120Y-57223853D01*
X160431958Y-57248437D01*
X160965395Y-56715000D01*
X160951253Y-56700858D01*
X161130858Y-56521253D01*
X161145000Y-56535395D01*
X161159143Y-56521253D01*
X161338748Y-56700858D01*
%TA.AperFunction,Conductor*%
D18*
G36*
X161338748Y-56700858D02*
G01*
X161324605Y-56715000D01*
X161500105Y-56890500D01*
X161407511Y-56909546D01*
X161257783Y-56971566D01*
X161248559Y-56998164D01*
X161145000Y-56894605D01*
X160611563Y-57428042D01*
X160673166Y-57580489D01*
X160796378Y-57632720D01*
X160788452Y-57673968D01*
X160789582Y-57847506D01*
X160824546Y-58017489D01*
X160886566Y-58167217D01*
X161028839Y-58216555D01*
X161490395Y-57755000D01*
X161476252Y-57740858D01*
X161655858Y-57561253D01*
X161670000Y-57575395D01*
X161684142Y-57561252D01*
X161863748Y-57740858D01*
X161849605Y-57755000D01*
X162311161Y-58216555D01*
X162453434Y-58167217D01*
X162518800Y-58006456D01*
X162551548Y-57836032D01*
X162551490Y-57827159D01*
X164933000Y-60208669D01*
X164933001Y-65424884D01*
X164788368Y-65521525D01*
X164581525Y-65728368D01*
X164465000Y-65902760D01*
X164348475Y-65728368D01*
X164141632Y-65521525D01*
X163898411Y-65359010D01*
X163628158Y-65247068D01*
X163341260Y-65190000D01*
X163048740Y-65190000D01*
X162830951Y-65233321D01*
X158457000Y-60859370D01*
X158457000Y-59284031D01*
X159455574Y-59284031D01*
X159492544Y-59416180D01*
X159636110Y-59471468D01*
X159787703Y-59497685D01*
X159941499Y-59493824D01*
X160091586Y-59460034D01*
X160197456Y-59416180D01*
X160234426Y-59284031D01*
X159845000Y-58894605D01*
X159455574Y-59284031D01*
X158457000Y-59284031D01*
X158457000Y-58610169D01*
X158528428Y-58657896D01*
X158707686Y-58732147D01*
X158897986Y-58770000D01*
X159065134Y-58770000D01*
X159066176Y-58811499D01*
X159099966Y-58961586D01*
X159143820Y-59067456D01*
X159275969Y-59104426D01*
X159665395Y-58715000D01*
X160024605Y-58715000D01*
X160414031Y-59104426D01*
X160546180Y-59067456D01*
X160601468Y-58923890D01*
X160627685Y-58772297D01*
X160623824Y-58618501D01*
X160590034Y-58468414D01*
X160560106Y-58396161D01*
X161208445Y-58396161D01*
X161257783Y-58538434D01*
X161418544Y-58603800D01*
X161588968Y-58636548D01*
X161762506Y-58635418D01*
X161932489Y-58600454D01*
X162082217Y-58538434D01*
X162131555Y-58396161D01*
X161670000Y-57934605D01*
X161208445Y-58396161D01*
X160560106Y-58396161D01*
X160546180Y-58362544D01*
X160414031Y-58325574D01*
X160024605Y-58715000D01*
X159665395Y-58715000D01*
X159651253Y-58700858D01*
X159830858Y-58521253D01*
X159845000Y-58535395D01*
X160234426Y-58145969D01*
X160197456Y-58013820D01*
X160053890Y-57958532D01*
X159967743Y-57943633D01*
X159980000Y-57882014D01*
X159980000Y-57743257D01*
X159998232Y-57667837D01*
X159970470Y-57640075D01*
X159942147Y-57497686D01*
X159867896Y-57318428D01*
X159760099Y-57157099D01*
X159622901Y-57019901D01*
X159580524Y-56991586D01*
X159610503Y-56961607D01*
X159636110Y-56971468D01*
X159787703Y-56997685D01*
X159941499Y-56993824D01*
X159972836Y-56986769D01*
X159824605Y-57135000D01*
X160177837Y-57488232D01*
X160304953Y-57457503D01*
X160355189Y-57322555D01*
X160371120Y-57223853D01*
X160431958Y-57248437D01*
X160965395Y-56715000D01*
X160951253Y-56700858D01*
X161130858Y-56521253D01*
X161145000Y-56535395D01*
X161159143Y-56521253D01*
X161338748Y-56700858D01*
G37*
%TD.AperFunction*%
D16*
X159859143Y-56408748D02*
X159845000Y-56394605D01*
X159830858Y-56408748D01*
X159741890Y-56319780D01*
X159811670Y-56249999D01*
X160017891Y-56249999D01*
X159859143Y-56408748D01*
%TA.AperFunction,Conductor*%
D18*
G36*
X159859143Y-56408748D02*
G01*
X159845000Y-56394605D01*
X159830858Y-56408748D01*
X159741890Y-56319780D01*
X159811670Y-56249999D01*
X160017891Y-56249999D01*
X159859143Y-56408748D01*
G37*
%TD.AperFunction*%
%TD*%
M02*
