%TF.GenerationSoftware,KiCad,Pcbnew,(5.1.9)-1*%
%TF.CreationDate,2021-11-28T20:12:32-05:00*%
%TF.ProjectId,uUSB male BOB,75555342-206d-4616-9c65-20424f422e6b,rev?*%
%TF.SameCoordinates,Original*%
%TF.FileFunction,Legend,Top*%
%TF.FilePolarity,Positive*%
%FSLAX46Y46*%
G04 Gerber Fmt 4.6, Leading zero omitted, Abs format (unit mm)*
G04 Created by KiCad (PCBNEW (5.1.9)-1) date 2021-11-28 20:12:32*
%MOMM*%
%LPD*%
G01*
G04 APERTURE LIST*
%ADD10C,0.150000*%
%ADD11C,0.120000*%
G04 APERTURE END LIST*
D10*
X152360380Y-64825333D02*
X153360380Y-64492000D01*
X152360380Y-64158666D01*
X152836571Y-63492000D02*
X152884190Y-63349142D01*
X152931809Y-63301523D01*
X153027047Y-63253904D01*
X153169904Y-63253904D01*
X153265142Y-63301523D01*
X153312761Y-63349142D01*
X153360380Y-63444380D01*
X153360380Y-63825333D01*
X152360380Y-63825333D01*
X152360380Y-63492000D01*
X152408000Y-63396761D01*
X152455619Y-63349142D01*
X152550857Y-63301523D01*
X152646095Y-63301523D01*
X152741333Y-63349142D01*
X152788952Y-63396761D01*
X152836571Y-63492000D01*
X152836571Y-63825333D01*
X152360380Y-62825333D02*
X153169904Y-62825333D01*
X153265142Y-62777714D01*
X153312761Y-62730095D01*
X153360380Y-62634857D01*
X153360380Y-62444380D01*
X153312761Y-62349142D01*
X153265142Y-62301523D01*
X153169904Y-62253904D01*
X152360380Y-62253904D01*
X153312761Y-61825333D02*
X153360380Y-61682476D01*
X153360380Y-61444380D01*
X153312761Y-61349142D01*
X153265142Y-61301523D01*
X153169904Y-61253904D01*
X153074666Y-61253904D01*
X152979428Y-61301523D01*
X152931809Y-61349142D01*
X152884190Y-61444380D01*
X152836571Y-61634857D01*
X152788952Y-61730095D01*
X152741333Y-61777714D01*
X152646095Y-61825333D01*
X152550857Y-61825333D01*
X152455619Y-61777714D01*
X152408000Y-61730095D01*
X152360380Y-61634857D01*
X152360380Y-61396761D01*
X152408000Y-61253904D01*
X149868000Y-63753904D02*
X149820380Y-63849142D01*
X149820380Y-63992000D01*
X149868000Y-64134857D01*
X149963238Y-64230095D01*
X150058476Y-64277714D01*
X150248952Y-64325333D01*
X150391809Y-64325333D01*
X150582285Y-64277714D01*
X150677523Y-64230095D01*
X150772761Y-64134857D01*
X150820380Y-63992000D01*
X150820380Y-63896761D01*
X150772761Y-63753904D01*
X150725142Y-63706285D01*
X150391809Y-63706285D01*
X150391809Y-63896761D01*
X150820380Y-63277714D02*
X149820380Y-63277714D01*
X150820380Y-62706285D01*
X149820380Y-62706285D01*
X150820380Y-62230095D02*
X149820380Y-62230095D01*
X149820380Y-61992000D01*
X149868000Y-61849142D01*
X149963238Y-61753904D01*
X150058476Y-61706285D01*
X150248952Y-61658666D01*
X150391809Y-61658666D01*
X150582285Y-61706285D01*
X150677523Y-61753904D01*
X150772761Y-61849142D01*
X150820380Y-61992000D01*
X150820380Y-62230095D01*
X160028000Y-64261904D02*
X159980380Y-64357142D01*
X159980380Y-64500000D01*
X160028000Y-64642857D01*
X160123238Y-64738095D01*
X160218476Y-64785714D01*
X160408952Y-64833333D01*
X160551809Y-64833333D01*
X160742285Y-64785714D01*
X160837523Y-64738095D01*
X160932761Y-64642857D01*
X160980380Y-64500000D01*
X160980380Y-64404761D01*
X160932761Y-64261904D01*
X160885142Y-64214285D01*
X160551809Y-64214285D01*
X160551809Y-64404761D01*
X160980380Y-63785714D02*
X159980380Y-63785714D01*
X160980380Y-63214285D01*
X159980380Y-63214285D01*
X160980380Y-62738095D02*
X159980380Y-62738095D01*
X159980380Y-62500000D01*
X160028000Y-62357142D01*
X160123238Y-62261904D01*
X160218476Y-62214285D01*
X160408952Y-62166666D01*
X160551809Y-62166666D01*
X160742285Y-62214285D01*
X160837523Y-62261904D01*
X160932761Y-62357142D01*
X160980380Y-62500000D01*
X160980380Y-62738095D01*
X166060380Y-64380952D02*
X165060380Y-64380952D01*
X165060380Y-64142857D01*
X165108000Y-64000000D01*
X165203238Y-63904761D01*
X165298476Y-63857142D01*
X165488952Y-63809523D01*
X165631809Y-63809523D01*
X165822285Y-63857142D01*
X165917523Y-63904761D01*
X166012761Y-64000000D01*
X166060380Y-64142857D01*
X166060380Y-64380952D01*
X165679428Y-63380952D02*
X165679428Y-62619047D01*
X166060380Y-63000000D02*
X165298476Y-63000000D01*
X163520380Y-64380952D02*
X162520380Y-64380952D01*
X162520380Y-64142857D01*
X162568000Y-64000000D01*
X162663238Y-63904761D01*
X162758476Y-63857142D01*
X162948952Y-63809523D01*
X163091809Y-63809523D01*
X163282285Y-63857142D01*
X163377523Y-63904761D01*
X163472761Y-64000000D01*
X163520380Y-64142857D01*
X163520380Y-64380952D01*
X163139428Y-63380952D02*
X163139428Y-62619047D01*
D11*
%TO.C,J3*%
X167065000Y-68005000D02*
X167065000Y-65345000D01*
X161925000Y-68005000D02*
X167065000Y-68005000D01*
X161925000Y-65345000D02*
X167065000Y-65345000D01*
X161925000Y-68005000D02*
X161925000Y-65345000D01*
X160655000Y-68005000D02*
X159325000Y-68005000D01*
X159325000Y-68005000D02*
X159325000Y-66675000D01*
%TO.C,J2*%
X154365000Y-68005000D02*
X154365000Y-65345000D01*
X151765000Y-68005000D02*
X154365000Y-68005000D01*
X151765000Y-65345000D02*
X154365000Y-65345000D01*
X151765000Y-68005000D02*
X151765000Y-65345000D01*
X150495000Y-68005000D02*
X149165000Y-68005000D01*
X149165000Y-68005000D02*
X149165000Y-66675000D01*
%TO.C,J3*%
D10*
X157777380Y-67008333D02*
X158491666Y-67008333D01*
X158634523Y-67055952D01*
X158729761Y-67151190D01*
X158777380Y-67294047D01*
X158777380Y-67389285D01*
X157777380Y-66627380D02*
X157777380Y-66008333D01*
X158158333Y-66341666D01*
X158158333Y-66198809D01*
X158205952Y-66103571D01*
X158253571Y-66055952D01*
X158348809Y-66008333D01*
X158586904Y-66008333D01*
X158682142Y-66055952D01*
X158729761Y-66103571D01*
X158777380Y-66198809D01*
X158777380Y-66484523D01*
X158729761Y-66579761D01*
X158682142Y-66627380D01*
%TO.C,J2*%
X154900380Y-67008333D02*
X155614666Y-67008333D01*
X155757523Y-67055952D01*
X155852761Y-67151190D01*
X155900380Y-67294047D01*
X155900380Y-67389285D01*
X154995619Y-66579761D02*
X154948000Y-66532142D01*
X154900380Y-66436904D01*
X154900380Y-66198809D01*
X154948000Y-66103571D01*
X154995619Y-66055952D01*
X155090857Y-66008333D01*
X155186095Y-66008333D01*
X155328952Y-66055952D01*
X155900380Y-66627380D01*
X155900380Y-66008333D01*
%TO.C,J1*%
X158011666Y-60920380D02*
X158011666Y-61634666D01*
X157964047Y-61777523D01*
X157868809Y-61872761D01*
X157725952Y-61920380D01*
X157630714Y-61920380D01*
X159011666Y-61920380D02*
X158440238Y-61920380D01*
X158725952Y-61920380D02*
X158725952Y-60920380D01*
X158630714Y-61063238D01*
X158535476Y-61158476D01*
X158440238Y-61206095D01*
%TD*%
M02*
