%TF.GenerationSoftware,KiCad,Pcbnew,(5.1.9)-1*%
%TF.CreationDate,2021-11-18T21:52:08-05:00*%
%TF.ProjectId,REVERB Interface,52455645-5242-4204-996e-746572666163,rev?*%
%TF.SameCoordinates,Original*%
%TF.FileFunction,Paste,Bot*%
%TF.FilePolarity,Positive*%
%FSLAX46Y46*%
G04 Gerber Fmt 4.6, Leading zero omitted, Abs format (unit mm)*
G04 Created by KiCad (PCBNEW (5.1.9)-1) date 2021-11-18 21:52:08*
%MOMM*%
%LPD*%
G01*
G04 APERTURE LIST*
%ADD10C,0.150000*%
%ADD11C,17.500000*%
G04 APERTURE END LIST*
%TO.C,J1*%
D10*
X172386666Y-131532380D02*
X172386666Y-132246666D01*
X172339047Y-132389523D01*
X172243809Y-132484761D01*
X172100952Y-132532380D01*
X172005714Y-132532380D01*
X173386666Y-132532380D02*
X172815238Y-132532380D01*
X173100952Y-132532380D02*
X173100952Y-131532380D01*
X173005714Y-131675238D01*
X172910476Y-131770476D01*
X172815238Y-131818095D01*
%TD*%
D11*
%TO.C,BT1*%
X184150000Y-92710000D03*
%TD*%
%TO.C,C19*%
G36*
G01*
X160364999Y-122075000D02*
X162215001Y-122075000D01*
G75*
G02*
X162465000Y-122324999I0J-249999D01*
G01*
X162465000Y-124075001D01*
G75*
G02*
X162215001Y-124325000I-249999J0D01*
G01*
X160364999Y-124325000D01*
G75*
G02*
X160115000Y-124075001I0J249999D01*
G01*
X160115000Y-122324999D01*
G75*
G02*
X160364999Y-122075000I249999J0D01*
G01*
G37*
G36*
G01*
X160364999Y-116975000D02*
X162215001Y-116975000D01*
G75*
G02*
X162465000Y-117224999I0J-249999D01*
G01*
X162465000Y-118975001D01*
G75*
G02*
X162215001Y-119225000I-249999J0D01*
G01*
X160364999Y-119225000D01*
G75*
G02*
X160115000Y-118975001I0J249999D01*
G01*
X160115000Y-117224999D01*
G75*
G02*
X160364999Y-116975000I249999J0D01*
G01*
G37*
%TD*%
%TO.C,C17*%
G36*
G01*
X136751000Y-122518999D02*
X136751000Y-124369001D01*
G75*
G02*
X136501001Y-124619000I-249999J0D01*
G01*
X134750999Y-124619000D01*
G75*
G02*
X134501000Y-124369001I0J249999D01*
G01*
X134501000Y-122518999D01*
G75*
G02*
X134750999Y-122269000I249999J0D01*
G01*
X136501001Y-122269000D01*
G75*
G02*
X136751000Y-122518999I0J-249999D01*
G01*
G37*
G36*
G01*
X141851000Y-122518999D02*
X141851000Y-124369001D01*
G75*
G02*
X141601001Y-124619000I-249999J0D01*
G01*
X139850999Y-124619000D01*
G75*
G02*
X139601000Y-124369001I0J249999D01*
G01*
X139601000Y-122518999D01*
G75*
G02*
X139850999Y-122269000I249999J0D01*
G01*
X141601001Y-122269000D01*
G75*
G02*
X141851000Y-122518999I0J-249999D01*
G01*
G37*
%TD*%
%TO.C,C15*%
G36*
G01*
X112225000Y-105400999D02*
X112225000Y-107451001D01*
G75*
G02*
X111975001Y-107701000I-249999J0D01*
G01*
X110224999Y-107701000D01*
G75*
G02*
X109975000Y-107451001I0J249999D01*
G01*
X109975000Y-105400999D01*
G75*
G02*
X110224999Y-105151000I249999J0D01*
G01*
X111975001Y-105151000D01*
G75*
G02*
X112225000Y-105400999I0J-249999D01*
G01*
G37*
G36*
G01*
X118625000Y-105400999D02*
X118625000Y-107451001D01*
G75*
G02*
X118375001Y-107701000I-249999J0D01*
G01*
X116624999Y-107701000D01*
G75*
G02*
X116375000Y-107451001I0J249999D01*
G01*
X116375000Y-105400999D01*
G75*
G02*
X116624999Y-105151000I249999J0D01*
G01*
X118375001Y-105151000D01*
G75*
G02*
X118625000Y-105400999I0J-249999D01*
G01*
G37*
%TD*%
%TO.C,C12*%
G36*
G01*
X166311000Y-72907001D02*
X166311000Y-70856999D01*
G75*
G02*
X166560999Y-70607000I249999J0D01*
G01*
X168311001Y-70607000D01*
G75*
G02*
X168561000Y-70856999I0J-249999D01*
G01*
X168561000Y-72907001D01*
G75*
G02*
X168311001Y-73157000I-249999J0D01*
G01*
X166560999Y-73157000D01*
G75*
G02*
X166311000Y-72907001I0J249999D01*
G01*
G37*
G36*
G01*
X159911000Y-72907001D02*
X159911000Y-70856999D01*
G75*
G02*
X160160999Y-70607000I249999J0D01*
G01*
X161911001Y-70607000D01*
G75*
G02*
X162161000Y-70856999I0J-249999D01*
G01*
X162161000Y-72907001D01*
G75*
G02*
X161911001Y-73157000I-249999J0D01*
G01*
X160160999Y-73157000D01*
G75*
G02*
X159911000Y-72907001I0J249999D01*
G01*
G37*
%TD*%
%TO.C,C18*%
G36*
G01*
X144300000Y-88809001D02*
X144300000Y-86958999D01*
G75*
G02*
X144549999Y-86709000I249999J0D01*
G01*
X146300001Y-86709000D01*
G75*
G02*
X146550000Y-86958999I0J-249999D01*
G01*
X146550000Y-88809001D01*
G75*
G02*
X146300001Y-89059000I-249999J0D01*
G01*
X144549999Y-89059000D01*
G75*
G02*
X144300000Y-88809001I0J249999D01*
G01*
G37*
G36*
G01*
X139200000Y-88809001D02*
X139200000Y-86958999D01*
G75*
G02*
X139449999Y-86709000I249999J0D01*
G01*
X141200001Y-86709000D01*
G75*
G02*
X141450000Y-86958999I0J-249999D01*
G01*
X141450000Y-88809001D01*
G75*
G02*
X141200001Y-89059000I-249999J0D01*
G01*
X139449999Y-89059000D01*
G75*
G02*
X139200000Y-88809001I0J249999D01*
G01*
G37*
%TD*%
%TO.C,C16*%
G36*
G01*
X115090000Y-86650001D02*
X115090000Y-84799999D01*
G75*
G02*
X115339999Y-84550000I249999J0D01*
G01*
X117090001Y-84550000D01*
G75*
G02*
X117340000Y-84799999I0J-249999D01*
G01*
X117340000Y-86650001D01*
G75*
G02*
X117090001Y-86900000I-249999J0D01*
G01*
X115339999Y-86900000D01*
G75*
G02*
X115090000Y-86650001I0J249999D01*
G01*
G37*
G36*
G01*
X109990000Y-86650001D02*
X109990000Y-84799999D01*
G75*
G02*
X110239999Y-84550000I249999J0D01*
G01*
X111990001Y-84550000D01*
G75*
G02*
X112240000Y-84799999I0J-249999D01*
G01*
X112240000Y-86650001D01*
G75*
G02*
X111990001Y-86900000I-249999J0D01*
G01*
X110239999Y-86900000D01*
G75*
G02*
X109990000Y-86650001I0J249999D01*
G01*
G37*
%TD*%
%TO.C,C14*%
G36*
G01*
X110955000Y-130038999D02*
X110955000Y-132089001D01*
G75*
G02*
X110705001Y-132339000I-249999J0D01*
G01*
X108954999Y-132339000D01*
G75*
G02*
X108705000Y-132089001I0J249999D01*
G01*
X108705000Y-130038999D01*
G75*
G02*
X108954999Y-129789000I249999J0D01*
G01*
X110705001Y-129789000D01*
G75*
G02*
X110955000Y-130038999I0J-249999D01*
G01*
G37*
G36*
G01*
X117355000Y-130038999D02*
X117355000Y-132089001D01*
G75*
G02*
X117105001Y-132339000I-249999J0D01*
G01*
X115354999Y-132339000D01*
G75*
G02*
X115105000Y-132089001I0J249999D01*
G01*
X115105000Y-130038999D01*
G75*
G02*
X115354999Y-129789000I249999J0D01*
G01*
X117105001Y-129789000D01*
G75*
G02*
X117355000Y-130038999I0J-249999D01*
G01*
G37*
%TD*%
%TO.C,C13*%
G36*
G01*
X180505000Y-130719001D02*
X180505000Y-128868999D01*
G75*
G02*
X180754999Y-128619000I249999J0D01*
G01*
X182505001Y-128619000D01*
G75*
G02*
X182755000Y-128868999I0J-249999D01*
G01*
X182755000Y-130719001D01*
G75*
G02*
X182505001Y-130969000I-249999J0D01*
G01*
X180754999Y-130969000D01*
G75*
G02*
X180505000Y-130719001I0J249999D01*
G01*
G37*
G36*
G01*
X175405000Y-130719001D02*
X175405000Y-128868999D01*
G75*
G02*
X175654999Y-128619000I249999J0D01*
G01*
X177405001Y-128619000D01*
G75*
G02*
X177655000Y-128868999I0J-249999D01*
G01*
X177655000Y-130719001D01*
G75*
G02*
X177405001Y-130969000I-249999J0D01*
G01*
X175654999Y-130969000D01*
G75*
G02*
X175405000Y-130719001I0J249999D01*
G01*
G37*
%TD*%
%TO.C,C11*%
G36*
G01*
X181907000Y-125231001D02*
X181907000Y-123180999D01*
G75*
G02*
X182156999Y-122931000I249999J0D01*
G01*
X183907001Y-122931000D01*
G75*
G02*
X184157000Y-123180999I0J-249999D01*
G01*
X184157000Y-125231001D01*
G75*
G02*
X183907001Y-125481000I-249999J0D01*
G01*
X182156999Y-125481000D01*
G75*
G02*
X181907000Y-125231001I0J249999D01*
G01*
G37*
G36*
G01*
X175507000Y-125231001D02*
X175507000Y-123180999D01*
G75*
G02*
X175756999Y-122931000I249999J0D01*
G01*
X177507001Y-122931000D01*
G75*
G02*
X177757000Y-123180999I0J-249999D01*
G01*
X177757000Y-125231001D01*
G75*
G02*
X177507001Y-125481000I-249999J0D01*
G01*
X175756999Y-125481000D01*
G75*
G02*
X175507000Y-125231001I0J249999D01*
G01*
G37*
%TD*%
M02*
