%TF.GenerationSoftware,KiCad,Pcbnew,(5.1.9)-1*%
%TF.CreationDate,2021-11-27T21:21:46-05:00*%
%TF.ProjectId,REVERB Interface,52455645-5242-4204-996e-746572666163,rev?*%
%TF.SameCoordinates,Original*%
%TF.FileFunction,Legend,Top*%
%TF.FilePolarity,Positive*%
%FSLAX46Y46*%
G04 Gerber Fmt 4.6, Leading zero omitted, Abs format (unit mm)*
G04 Created by KiCad (PCBNEW (5.1.9)-1) date 2021-11-27 21:21:46*
%MOMM*%
%LPD*%
G01*
G04 APERTURE LIST*
%ADD10C,0.150000*%
%ADD11C,0.100000*%
%ADD12C,0.120000*%
%ADD13C,0.249999*%
%ADD14C,0.599999*%
G04 APERTURE END LIST*
D10*
X179284571Y-113990380D02*
X179284571Y-112990380D01*
X179713142Y-113085619D02*
X179760761Y-113038000D01*
X179856000Y-112990380D01*
X180094095Y-112990380D01*
X180189333Y-113038000D01*
X180236952Y-113085619D01*
X180284571Y-113180857D01*
X180284571Y-113276095D01*
X180236952Y-113418952D01*
X179665523Y-113990380D01*
X180284571Y-113990380D01*
X181284571Y-113895142D02*
X181236952Y-113942761D01*
X181094095Y-113990380D01*
X180998857Y-113990380D01*
X180856000Y-113942761D01*
X180760761Y-113847523D01*
X180713142Y-113752285D01*
X180665523Y-113561809D01*
X180665523Y-113418952D01*
X180713142Y-113228476D01*
X180760761Y-113133238D01*
X180856000Y-113038000D01*
X180998857Y-112990380D01*
X181094095Y-112990380D01*
X181236952Y-113038000D01*
X181284571Y-113085619D01*
X181713142Y-113609428D02*
X182475047Y-113609428D01*
X183141714Y-112990380D02*
X183236952Y-112990380D01*
X183332190Y-113038000D01*
X183379809Y-113085619D01*
X183427428Y-113180857D01*
X183475047Y-113371333D01*
X183475047Y-113609428D01*
X183427428Y-113799904D01*
X183379809Y-113895142D01*
X183332190Y-113942761D01*
X183236952Y-113990380D01*
X183141714Y-113990380D01*
X183046476Y-113942761D01*
X182998857Y-113895142D01*
X182951238Y-113799904D01*
X182903619Y-113609428D01*
X182903619Y-113371333D01*
X182951238Y-113180857D01*
X182998857Y-113085619D01*
X183046476Y-113038000D01*
X183141714Y-112990380D01*
X179284571Y-121610380D02*
X179284571Y-120610380D01*
X179713142Y-120705619D02*
X179760761Y-120658000D01*
X179856000Y-120610380D01*
X180094095Y-120610380D01*
X180189333Y-120658000D01*
X180236952Y-120705619D01*
X180284571Y-120800857D01*
X180284571Y-120896095D01*
X180236952Y-121038952D01*
X179665523Y-121610380D01*
X180284571Y-121610380D01*
X181284571Y-121515142D02*
X181236952Y-121562761D01*
X181094095Y-121610380D01*
X180998857Y-121610380D01*
X180856000Y-121562761D01*
X180760761Y-121467523D01*
X180713142Y-121372285D01*
X180665523Y-121181809D01*
X180665523Y-121038952D01*
X180713142Y-120848476D01*
X180760761Y-120753238D01*
X180856000Y-120658000D01*
X180998857Y-120610380D01*
X181094095Y-120610380D01*
X181236952Y-120658000D01*
X181284571Y-120705619D01*
X181713142Y-121229428D02*
X182475047Y-121229428D01*
X183475047Y-121610380D02*
X182903619Y-121610380D01*
X183189333Y-121610380D02*
X183189333Y-120610380D01*
X183094095Y-120753238D01*
X182998857Y-120848476D01*
X182903619Y-120896095D01*
X157392666Y-106616285D02*
X157392666Y-106140095D01*
X157678380Y-106711523D02*
X156678380Y-106378190D01*
X157678380Y-106044857D01*
X157678380Y-105711523D02*
X156678380Y-105711523D01*
X156678380Y-105330571D01*
X156726000Y-105235333D01*
X156773619Y-105187714D01*
X156868857Y-105140095D01*
X157011714Y-105140095D01*
X157106952Y-105187714D01*
X157154571Y-105235333D01*
X157202190Y-105330571D01*
X157202190Y-105711523D01*
X157678380Y-104140095D02*
X157202190Y-104473428D01*
X157678380Y-104711523D02*
X156678380Y-104711523D01*
X156678380Y-104330571D01*
X156726000Y-104235333D01*
X156773619Y-104187714D01*
X156868857Y-104140095D01*
X157011714Y-104140095D01*
X157106952Y-104187714D01*
X157154571Y-104235333D01*
X157202190Y-104330571D01*
X157202190Y-104711523D01*
X157630761Y-103759142D02*
X157678380Y-103616285D01*
X157678380Y-103378190D01*
X157630761Y-103282952D01*
X157583142Y-103235333D01*
X157487904Y-103187714D01*
X157392666Y-103187714D01*
X157297428Y-103235333D01*
X157249809Y-103282952D01*
X157202190Y-103378190D01*
X157154571Y-103568666D01*
X157106952Y-103663904D01*
X157059333Y-103711523D01*
X156964095Y-103759142D01*
X156868857Y-103759142D01*
X156773619Y-103711523D01*
X156726000Y-103663904D01*
X156678380Y-103568666D01*
X156678380Y-103330571D01*
X156726000Y-103187714D01*
X151582380Y-107259142D02*
X150582380Y-107259142D01*
X151582380Y-106782952D02*
X150915714Y-106782952D01*
X151106190Y-106782952D02*
X151010952Y-106735333D01*
X150963333Y-106687714D01*
X150915714Y-106592476D01*
X150915714Y-106497238D01*
X151582380Y-106163904D02*
X150915714Y-106163904D01*
X150582380Y-106163904D02*
X150630000Y-106211523D01*
X150677619Y-106163904D01*
X150630000Y-106116285D01*
X150582380Y-106163904D01*
X150677619Y-106163904D01*
X151582380Y-105259142D02*
X150582380Y-105259142D01*
X151534761Y-105259142D02*
X151582380Y-105354380D01*
X151582380Y-105544857D01*
X151534761Y-105640095D01*
X151487142Y-105687714D01*
X151391904Y-105735333D01*
X151106190Y-105735333D01*
X151010952Y-105687714D01*
X150963333Y-105640095D01*
X150915714Y-105544857D01*
X150915714Y-105354380D01*
X150963333Y-105259142D01*
X151582380Y-104782952D02*
X150915714Y-104782952D01*
X150582380Y-104782952D02*
X150630000Y-104830571D01*
X150677619Y-104782952D01*
X150630000Y-104735333D01*
X150582380Y-104782952D01*
X150677619Y-104782952D01*
X150915714Y-103878190D02*
X151582380Y-103878190D01*
X150915714Y-104306761D02*
X151439523Y-104306761D01*
X151534761Y-104259142D01*
X151582380Y-104163904D01*
X151582380Y-104021047D01*
X151534761Y-103925809D01*
X151487142Y-103878190D01*
X151582380Y-103402000D02*
X150915714Y-103402000D01*
X151010952Y-103402000D02*
X150963333Y-103354380D01*
X150915714Y-103259142D01*
X150915714Y-103116285D01*
X150963333Y-103021047D01*
X151058571Y-102973428D01*
X151582380Y-102973428D01*
X151058571Y-102973428D02*
X150963333Y-102925809D01*
X150915714Y-102830571D01*
X150915714Y-102687714D01*
X150963333Y-102592476D01*
X151058571Y-102544857D01*
X151582380Y-102544857D01*
X148756666Y-106616285D02*
X148756666Y-106140095D01*
X149042380Y-106711523D02*
X148042380Y-106378190D01*
X149042380Y-106044857D01*
X149042380Y-105711523D02*
X148042380Y-105711523D01*
X148042380Y-105330571D01*
X148090000Y-105235333D01*
X148137619Y-105187714D01*
X148232857Y-105140095D01*
X148375714Y-105140095D01*
X148470952Y-105187714D01*
X148518571Y-105235333D01*
X148566190Y-105330571D01*
X148566190Y-105711523D01*
X149042380Y-104140095D02*
X148566190Y-104473428D01*
X149042380Y-104711523D02*
X148042380Y-104711523D01*
X148042380Y-104330571D01*
X148090000Y-104235333D01*
X148137619Y-104187714D01*
X148232857Y-104140095D01*
X148375714Y-104140095D01*
X148470952Y-104187714D01*
X148518571Y-104235333D01*
X148566190Y-104330571D01*
X148566190Y-104711523D01*
X148994761Y-103759142D02*
X149042380Y-103616285D01*
X149042380Y-103378190D01*
X148994761Y-103282952D01*
X148947142Y-103235333D01*
X148851904Y-103187714D01*
X148756666Y-103187714D01*
X148661428Y-103235333D01*
X148613809Y-103282952D01*
X148566190Y-103378190D01*
X148518571Y-103568666D01*
X148470952Y-103663904D01*
X148423333Y-103711523D01*
X148328095Y-103759142D01*
X148232857Y-103759142D01*
X148137619Y-103711523D01*
X148090000Y-103663904D01*
X148042380Y-103568666D01*
X148042380Y-103330571D01*
X148090000Y-103187714D01*
X142184380Y-107259142D02*
X141184380Y-107259142D01*
X142184380Y-106782952D02*
X141517714Y-106782952D01*
X141708190Y-106782952D02*
X141612952Y-106735333D01*
X141565333Y-106687714D01*
X141517714Y-106592476D01*
X141517714Y-106497238D01*
X142184380Y-106163904D02*
X141517714Y-106163904D01*
X141184380Y-106163904D02*
X141232000Y-106211523D01*
X141279619Y-106163904D01*
X141232000Y-106116285D01*
X141184380Y-106163904D01*
X141279619Y-106163904D01*
X142184380Y-105259142D02*
X141184380Y-105259142D01*
X142136761Y-105259142D02*
X142184380Y-105354380D01*
X142184380Y-105544857D01*
X142136761Y-105640095D01*
X142089142Y-105687714D01*
X141993904Y-105735333D01*
X141708190Y-105735333D01*
X141612952Y-105687714D01*
X141565333Y-105640095D01*
X141517714Y-105544857D01*
X141517714Y-105354380D01*
X141565333Y-105259142D01*
X142184380Y-104782952D02*
X141517714Y-104782952D01*
X141184380Y-104782952D02*
X141232000Y-104830571D01*
X141279619Y-104782952D01*
X141232000Y-104735333D01*
X141184380Y-104782952D01*
X141279619Y-104782952D01*
X141517714Y-103878190D02*
X142184380Y-103878190D01*
X141517714Y-104306761D02*
X142041523Y-104306761D01*
X142136761Y-104259142D01*
X142184380Y-104163904D01*
X142184380Y-104021047D01*
X142136761Y-103925809D01*
X142089142Y-103878190D01*
X142184380Y-103402000D02*
X141517714Y-103402000D01*
X141612952Y-103402000D02*
X141565333Y-103354380D01*
X141517714Y-103259142D01*
X141517714Y-103116285D01*
X141565333Y-103021047D01*
X141660571Y-102973428D01*
X142184380Y-102973428D01*
X141660571Y-102973428D02*
X141565333Y-102925809D01*
X141517714Y-102830571D01*
X141517714Y-102687714D01*
X141565333Y-102592476D01*
X141660571Y-102544857D01*
X142184380Y-102544857D01*
X146788571Y-111148761D02*
X146931428Y-111196380D01*
X147169523Y-111196380D01*
X147264761Y-111148761D01*
X147312380Y-111101142D01*
X147360000Y-111005904D01*
X147360000Y-110910666D01*
X147312380Y-110815428D01*
X147264761Y-110767809D01*
X147169523Y-110720190D01*
X146979047Y-110672571D01*
X146883809Y-110624952D01*
X146836190Y-110577333D01*
X146788571Y-110482095D01*
X146788571Y-110386857D01*
X146836190Y-110291619D01*
X146883809Y-110244000D01*
X146979047Y-110196380D01*
X147217142Y-110196380D01*
X147360000Y-110244000D01*
X147788571Y-110672571D02*
X148121904Y-110672571D01*
X148264761Y-111196380D02*
X147788571Y-111196380D01*
X147788571Y-110196380D01*
X148264761Y-110196380D01*
X149264761Y-111196380D02*
X148931428Y-110720190D01*
X148693333Y-111196380D02*
X148693333Y-110196380D01*
X149074285Y-110196380D01*
X149169523Y-110244000D01*
X149217142Y-110291619D01*
X149264761Y-110386857D01*
X149264761Y-110529714D01*
X149217142Y-110624952D01*
X149169523Y-110672571D01*
X149074285Y-110720190D01*
X148693333Y-110720190D01*
X149693333Y-110196380D02*
X149693333Y-111005904D01*
X149740952Y-111101142D01*
X149788571Y-111148761D01*
X149883809Y-111196380D01*
X150074285Y-111196380D01*
X150169523Y-111148761D01*
X150217142Y-111101142D01*
X150264761Y-111005904D01*
X150264761Y-110196380D01*
X150693333Y-110910666D02*
X151169523Y-110910666D01*
X150598095Y-111196380D02*
X150931428Y-110196380D01*
X151264761Y-111196380D01*
X152169523Y-111196380D02*
X151836190Y-110720190D01*
X151598095Y-111196380D02*
X151598095Y-110196380D01*
X151979047Y-110196380D01*
X152074285Y-110244000D01*
X152121904Y-110291619D01*
X152169523Y-110386857D01*
X152169523Y-110529714D01*
X152121904Y-110624952D01*
X152074285Y-110672571D01*
X151979047Y-110720190D01*
X151598095Y-110720190D01*
X152455238Y-110196380D02*
X153026666Y-110196380D01*
X152740952Y-111196380D02*
X152740952Y-110196380D01*
X147169523Y-98242380D02*
X147169523Y-97242380D01*
X147169523Y-97718571D02*
X147740952Y-97718571D01*
X147740952Y-98242380D02*
X147740952Y-97242380D01*
X148121904Y-97242380D02*
X148360000Y-98242380D01*
X148550476Y-97528095D01*
X148740952Y-98242380D01*
X148979047Y-97242380D01*
X149360000Y-97242380D02*
X149360000Y-98051904D01*
X149407619Y-98147142D01*
X149455238Y-98194761D01*
X149550476Y-98242380D01*
X149740952Y-98242380D01*
X149836190Y-98194761D01*
X149883809Y-98147142D01*
X149931428Y-98051904D01*
X149931428Y-97242380D01*
X150360000Y-97956666D02*
X150836190Y-97956666D01*
X150264761Y-98242380D02*
X150598095Y-97242380D01*
X150931428Y-98242380D01*
X151836190Y-98242380D02*
X151502857Y-97766190D01*
X151264761Y-98242380D02*
X151264761Y-97242380D01*
X151645714Y-97242380D01*
X151740952Y-97290000D01*
X151788571Y-97337619D01*
X151836190Y-97432857D01*
X151836190Y-97575714D01*
X151788571Y-97670952D01*
X151740952Y-97718571D01*
X151645714Y-97766190D01*
X151264761Y-97766190D01*
X152121904Y-97242380D02*
X152693333Y-97242380D01*
X152407619Y-98242380D02*
X152407619Y-97242380D01*
X189745904Y-68588000D02*
X189650666Y-68540380D01*
X189507809Y-68540380D01*
X189364952Y-68588000D01*
X189269714Y-68683238D01*
X189222095Y-68778476D01*
X189174476Y-68968952D01*
X189174476Y-69111809D01*
X189222095Y-69302285D01*
X189269714Y-69397523D01*
X189364952Y-69492761D01*
X189507809Y-69540380D01*
X189603047Y-69540380D01*
X189745904Y-69492761D01*
X189793523Y-69445142D01*
X189793523Y-69111809D01*
X189603047Y-69111809D01*
X189293523Y-66000380D02*
X188817333Y-66000380D01*
X188769714Y-66476571D01*
X188817333Y-66428952D01*
X188912571Y-66381333D01*
X189150666Y-66381333D01*
X189245904Y-66428952D01*
X189293523Y-66476571D01*
X189341142Y-66571809D01*
X189341142Y-66809904D01*
X189293523Y-66905142D01*
X189245904Y-66952761D01*
X189150666Y-67000380D01*
X188912571Y-67000380D01*
X188817333Y-66952761D01*
X188769714Y-66905142D01*
X189626857Y-66000380D02*
X189960190Y-67000380D01*
X190293523Y-66000380D01*
X155662380Y-145755809D02*
X156471904Y-145755809D01*
X156567142Y-145708190D01*
X156614761Y-145660571D01*
X156662380Y-145565333D01*
X156662380Y-145374857D01*
X156614761Y-145279619D01*
X156567142Y-145232000D01*
X156471904Y-145184380D01*
X155662380Y-145184380D01*
X156662380Y-144708190D02*
X155662380Y-144708190D01*
X155662380Y-144327238D01*
X155710000Y-144232000D01*
X155757619Y-144184380D01*
X155852857Y-144136761D01*
X155995714Y-144136761D01*
X156090952Y-144184380D01*
X156138571Y-144232000D01*
X156186190Y-144327238D01*
X156186190Y-144708190D01*
X156662380Y-143708190D02*
X155662380Y-143708190D01*
X155662380Y-143470095D01*
X155710000Y-143327238D01*
X155805238Y-143232000D01*
X155900476Y-143184380D01*
X156090952Y-143136761D01*
X156233809Y-143136761D01*
X156424285Y-143184380D01*
X156519523Y-143232000D01*
X156614761Y-143327238D01*
X156662380Y-143470095D01*
X156662380Y-143708190D01*
X156662380Y-142708190D02*
X155662380Y-142708190D01*
X157043333Y-141184380D02*
X156995714Y-141232000D01*
X156852857Y-141327238D01*
X156757619Y-141374857D01*
X156614761Y-141422476D01*
X156376666Y-141470095D01*
X156186190Y-141470095D01*
X155948095Y-141422476D01*
X155805238Y-141374857D01*
X155710000Y-141327238D01*
X155567142Y-141232000D01*
X155519523Y-141184380D01*
X155995714Y-140374857D02*
X156662380Y-140374857D01*
X155614761Y-140612952D02*
X156329047Y-140851047D01*
X156329047Y-140232000D01*
X156662380Y-139851047D02*
X155662380Y-139851047D01*
X156662380Y-139279619D02*
X156090952Y-139708190D01*
X155662380Y-139279619D02*
X156233809Y-139851047D01*
X155662380Y-138946285D02*
X155662380Y-138279619D01*
X156662380Y-138708190D01*
X157043333Y-137993904D02*
X156995714Y-137946285D01*
X156852857Y-137851047D01*
X156757619Y-137803428D01*
X156614761Y-137755809D01*
X156376666Y-137708190D01*
X156186190Y-137708190D01*
X155948095Y-137755809D01*
X155805238Y-137803428D01*
X155710000Y-137851047D01*
X155567142Y-137946285D01*
X155519523Y-137993904D01*
D11*
X153295000Y-145605428D02*
X153259285Y-145676857D01*
X153259285Y-145784000D01*
X153295000Y-145891142D01*
X153366428Y-145962571D01*
X153437857Y-145998285D01*
X153580714Y-146034000D01*
X153687857Y-146034000D01*
X153830714Y-145998285D01*
X153902142Y-145962571D01*
X153973571Y-145891142D01*
X154009285Y-145784000D01*
X154009285Y-145712571D01*
X153973571Y-145605428D01*
X153937857Y-145569714D01*
X153687857Y-145569714D01*
X153687857Y-145712571D01*
X154009285Y-145248285D02*
X153259285Y-145248285D01*
X154009285Y-144819714D01*
X153259285Y-144819714D01*
X154009285Y-144462571D02*
X153259285Y-144462571D01*
X153259285Y-144284000D01*
X153295000Y-144176857D01*
X153366428Y-144105428D01*
X153437857Y-144069714D01*
X153580714Y-144034000D01*
X153687857Y-144034000D01*
X153830714Y-144069714D01*
X153902142Y-144105428D01*
X153973571Y-144176857D01*
X154009285Y-144284000D01*
X154009285Y-144462571D01*
X150719285Y-146034000D02*
X151469285Y-145784000D01*
X150719285Y-145534000D01*
X151397857Y-144855428D02*
X151433571Y-144891142D01*
X151469285Y-144998285D01*
X151469285Y-145069714D01*
X151433571Y-145176857D01*
X151362142Y-145248285D01*
X151290714Y-145284000D01*
X151147857Y-145319714D01*
X151040714Y-145319714D01*
X150897857Y-145284000D01*
X150826428Y-145248285D01*
X150755000Y-145176857D01*
X150719285Y-145069714D01*
X150719285Y-144998285D01*
X150755000Y-144891142D01*
X150790714Y-144855428D01*
X151397857Y-144105428D02*
X151433571Y-144141142D01*
X151469285Y-144248285D01*
X151469285Y-144319714D01*
X151433571Y-144426857D01*
X151362142Y-144498285D01*
X151290714Y-144534000D01*
X151147857Y-144569714D01*
X151040714Y-144569714D01*
X150897857Y-144534000D01*
X150826428Y-144498285D01*
X150755000Y-144426857D01*
X150719285Y-144319714D01*
X150719285Y-144248285D01*
X150755000Y-144141142D01*
X150790714Y-144105428D01*
X148929285Y-145444714D02*
X148572142Y-145694714D01*
X148929285Y-145873285D02*
X148179285Y-145873285D01*
X148179285Y-145587571D01*
X148215000Y-145516142D01*
X148250714Y-145480428D01*
X148322142Y-145444714D01*
X148429285Y-145444714D01*
X148500714Y-145480428D01*
X148536428Y-145516142D01*
X148572142Y-145587571D01*
X148572142Y-145873285D01*
X148893571Y-145159000D02*
X148929285Y-145051857D01*
X148929285Y-144873285D01*
X148893571Y-144801857D01*
X148857857Y-144766142D01*
X148786428Y-144730428D01*
X148715000Y-144730428D01*
X148643571Y-144766142D01*
X148607857Y-144801857D01*
X148572142Y-144873285D01*
X148536428Y-145016142D01*
X148500714Y-145087571D01*
X148465000Y-145123285D01*
X148393571Y-145159000D01*
X148322142Y-145159000D01*
X148250714Y-145123285D01*
X148215000Y-145087571D01*
X148179285Y-145016142D01*
X148179285Y-144837571D01*
X148215000Y-144730428D01*
X148179285Y-144516142D02*
X148179285Y-144087571D01*
X148929285Y-144301857D02*
X148179285Y-144301857D01*
D10*
X107886666Y-77874761D02*
X108029523Y-77922380D01*
X108267619Y-77922380D01*
X108362857Y-77874761D01*
X108410476Y-77827142D01*
X108458095Y-77731904D01*
X108458095Y-77636666D01*
X108410476Y-77541428D01*
X108362857Y-77493809D01*
X108267619Y-77446190D01*
X108077142Y-77398571D01*
X107981904Y-77350952D01*
X107934285Y-77303333D01*
X107886666Y-77208095D01*
X107886666Y-77112857D01*
X107934285Y-77017619D01*
X107981904Y-76970000D01*
X108077142Y-76922380D01*
X108315238Y-76922380D01*
X108458095Y-76970000D01*
X108791428Y-76922380D02*
X109029523Y-77922380D01*
X109220000Y-77208095D01*
X109410476Y-77922380D01*
X109648571Y-76922380D01*
X110458095Y-76922380D02*
X110267619Y-76922380D01*
X110172380Y-76970000D01*
X110124761Y-77017619D01*
X110029523Y-77160476D01*
X109981904Y-77350952D01*
X109981904Y-77731904D01*
X110029523Y-77827142D01*
X110077142Y-77874761D01*
X110172380Y-77922380D01*
X110362857Y-77922380D01*
X110458095Y-77874761D01*
X110505714Y-77827142D01*
X110553333Y-77731904D01*
X110553333Y-77493809D01*
X110505714Y-77398571D01*
X110458095Y-77350952D01*
X110362857Y-77303333D01*
X110172380Y-77303333D01*
X110077142Y-77350952D01*
X110029523Y-77398571D01*
X109981904Y-77493809D01*
X161186761Y-73469333D02*
X161234380Y-73326476D01*
X161234380Y-73088380D01*
X161186761Y-72993142D01*
X161139142Y-72945523D01*
X161043904Y-72897904D01*
X160948666Y-72897904D01*
X160853428Y-72945523D01*
X160805809Y-72993142D01*
X160758190Y-73088380D01*
X160710571Y-73278857D01*
X160662952Y-73374095D01*
X160615333Y-73421714D01*
X160520095Y-73469333D01*
X160424857Y-73469333D01*
X160329619Y-73421714D01*
X160282000Y-73374095D01*
X160234380Y-73278857D01*
X160234380Y-73040761D01*
X160282000Y-72897904D01*
X160234380Y-72564571D02*
X161234380Y-72326476D01*
X160520095Y-72136000D01*
X161234380Y-71945523D01*
X160234380Y-71707428D01*
X161234380Y-71278857D02*
X161234380Y-71088380D01*
X161186761Y-70993142D01*
X161139142Y-70945523D01*
X160996285Y-70850285D01*
X160805809Y-70802666D01*
X160424857Y-70802666D01*
X160329619Y-70850285D01*
X160282000Y-70897904D01*
X160234380Y-70993142D01*
X160234380Y-71183619D01*
X160282000Y-71278857D01*
X160329619Y-71326476D01*
X160424857Y-71374095D01*
X160662952Y-71374095D01*
X160758190Y-71326476D01*
X160805809Y-71278857D01*
X160853428Y-71183619D01*
X160853428Y-70993142D01*
X160805809Y-70897904D01*
X160758190Y-70850285D01*
X160662952Y-70802666D01*
X137310761Y-73691523D02*
X137358380Y-73548666D01*
X137358380Y-73310571D01*
X137310761Y-73215333D01*
X137263142Y-73167714D01*
X137167904Y-73120095D01*
X137072666Y-73120095D01*
X136977428Y-73167714D01*
X136929809Y-73215333D01*
X136882190Y-73310571D01*
X136834571Y-73501047D01*
X136786952Y-73596285D01*
X136739333Y-73643904D01*
X136644095Y-73691523D01*
X136548857Y-73691523D01*
X136453619Y-73643904D01*
X136406000Y-73596285D01*
X136358380Y-73501047D01*
X136358380Y-73262952D01*
X136406000Y-73120095D01*
X136358380Y-72786761D02*
X137358380Y-72548666D01*
X136644095Y-72358190D01*
X137358380Y-72167714D01*
X136358380Y-71929619D01*
X137358380Y-71024857D02*
X137358380Y-71596285D01*
X137358380Y-71310571D02*
X136358380Y-71310571D01*
X136501238Y-71405809D01*
X136596476Y-71501047D01*
X136644095Y-71596285D01*
X136358380Y-70405809D02*
X136358380Y-70310571D01*
X136406000Y-70215333D01*
X136453619Y-70167714D01*
X136548857Y-70120095D01*
X136739333Y-70072476D01*
X136977428Y-70072476D01*
X137167904Y-70120095D01*
X137263142Y-70167714D01*
X137310761Y-70215333D01*
X137358380Y-70310571D01*
X137358380Y-70405809D01*
X137310761Y-70501047D01*
X137263142Y-70548666D01*
X137167904Y-70596285D01*
X136977428Y-70643904D01*
X136739333Y-70643904D01*
X136548857Y-70596285D01*
X136453619Y-70548666D01*
X136406000Y-70501047D01*
X136358380Y-70405809D01*
X132484761Y-73215333D02*
X132532380Y-73072476D01*
X132532380Y-72834380D01*
X132484761Y-72739142D01*
X132437142Y-72691523D01*
X132341904Y-72643904D01*
X132246666Y-72643904D01*
X132151428Y-72691523D01*
X132103809Y-72739142D01*
X132056190Y-72834380D01*
X132008571Y-73024857D01*
X131960952Y-73120095D01*
X131913333Y-73167714D01*
X131818095Y-73215333D01*
X131722857Y-73215333D01*
X131627619Y-73167714D01*
X131580000Y-73120095D01*
X131532380Y-73024857D01*
X131532380Y-72786761D01*
X131580000Y-72643904D01*
X131532380Y-72310571D02*
X132532380Y-72072476D01*
X131818095Y-71882000D01*
X132532380Y-71691523D01*
X131532380Y-71453428D01*
X131960952Y-70929619D02*
X131913333Y-71024857D01*
X131865714Y-71072476D01*
X131770476Y-71120095D01*
X131722857Y-71120095D01*
X131627619Y-71072476D01*
X131580000Y-71024857D01*
X131532380Y-70929619D01*
X131532380Y-70739142D01*
X131580000Y-70643904D01*
X131627619Y-70596285D01*
X131722857Y-70548666D01*
X131770476Y-70548666D01*
X131865714Y-70596285D01*
X131913333Y-70643904D01*
X131960952Y-70739142D01*
X131960952Y-70929619D01*
X132008571Y-71024857D01*
X132056190Y-71072476D01*
X132151428Y-71120095D01*
X132341904Y-71120095D01*
X132437142Y-71072476D01*
X132484761Y-71024857D01*
X132532380Y-70929619D01*
X132532380Y-70739142D01*
X132484761Y-70643904D01*
X132437142Y-70596285D01*
X132341904Y-70548666D01*
X132151428Y-70548666D01*
X132056190Y-70596285D01*
X132008571Y-70643904D01*
X131960952Y-70739142D01*
X127404761Y-73469333D02*
X127452380Y-73326476D01*
X127452380Y-73088380D01*
X127404761Y-72993142D01*
X127357142Y-72945523D01*
X127261904Y-72897904D01*
X127166666Y-72897904D01*
X127071428Y-72945523D01*
X127023809Y-72993142D01*
X126976190Y-73088380D01*
X126928571Y-73278857D01*
X126880952Y-73374095D01*
X126833333Y-73421714D01*
X126738095Y-73469333D01*
X126642857Y-73469333D01*
X126547619Y-73421714D01*
X126500000Y-73374095D01*
X126452380Y-73278857D01*
X126452380Y-73040761D01*
X126500000Y-72897904D01*
X126452380Y-72564571D02*
X127452380Y-72326476D01*
X126738095Y-72136000D01*
X127452380Y-71945523D01*
X126452380Y-71707428D01*
X126785714Y-70897904D02*
X127452380Y-70897904D01*
X126404761Y-71136000D02*
X127119047Y-71374095D01*
X127119047Y-70755047D01*
X121054761Y-73215333D02*
X121102380Y-73072476D01*
X121102380Y-72834380D01*
X121054761Y-72739142D01*
X121007142Y-72691523D01*
X120911904Y-72643904D01*
X120816666Y-72643904D01*
X120721428Y-72691523D01*
X120673809Y-72739142D01*
X120626190Y-72834380D01*
X120578571Y-73024857D01*
X120530952Y-73120095D01*
X120483333Y-73167714D01*
X120388095Y-73215333D01*
X120292857Y-73215333D01*
X120197619Y-73167714D01*
X120150000Y-73120095D01*
X120102380Y-73024857D01*
X120102380Y-72786761D01*
X120150000Y-72643904D01*
X120102380Y-72310571D02*
X121102380Y-72072476D01*
X120388095Y-71882000D01*
X121102380Y-71691523D01*
X120102380Y-71453428D01*
X120102380Y-71167714D02*
X120102380Y-70548666D01*
X120483333Y-70882000D01*
X120483333Y-70739142D01*
X120530952Y-70643904D01*
X120578571Y-70596285D01*
X120673809Y-70548666D01*
X120911904Y-70548666D01*
X121007142Y-70596285D01*
X121054761Y-70643904D01*
X121102380Y-70739142D01*
X121102380Y-71024857D01*
X121054761Y-71120095D01*
X121007142Y-71167714D01*
X124928333Y-88082380D02*
X124595000Y-87606190D01*
X124356904Y-88082380D02*
X124356904Y-87082380D01*
X124737857Y-87082380D01*
X124833095Y-87130000D01*
X124880714Y-87177619D01*
X124928333Y-87272857D01*
X124928333Y-87415714D01*
X124880714Y-87510952D01*
X124833095Y-87558571D01*
X124737857Y-87606190D01*
X124356904Y-87606190D01*
X125261666Y-87082380D02*
X125928333Y-88082380D01*
X125928333Y-87082380D02*
X125261666Y-88082380D01*
X195365714Y-134270571D02*
X196032380Y-134032476D01*
X195365714Y-133794380D01*
X196032380Y-132889619D02*
X196032380Y-133461047D01*
X196032380Y-133175333D02*
X195032380Y-133175333D01*
X195175238Y-133270571D01*
X195270476Y-133365809D01*
X195318095Y-133461047D01*
X195937142Y-132461047D02*
X195984761Y-132413428D01*
X196032380Y-132461047D01*
X195984761Y-132508666D01*
X195937142Y-132461047D01*
X196032380Y-132461047D01*
X195032380Y-131556285D02*
X195032380Y-131746761D01*
X195080000Y-131842000D01*
X195127619Y-131889619D01*
X195270476Y-131984857D01*
X195460952Y-132032476D01*
X195841904Y-132032476D01*
X195937142Y-131984857D01*
X195984761Y-131937238D01*
X196032380Y-131842000D01*
X196032380Y-131651523D01*
X195984761Y-131556285D01*
X195937142Y-131508666D01*
X195841904Y-131461047D01*
X195603809Y-131461047D01*
X195508571Y-131508666D01*
X195460952Y-131556285D01*
X195413333Y-131651523D01*
X195413333Y-131842000D01*
X195460952Y-131937238D01*
X195508571Y-131984857D01*
X195603809Y-132032476D01*
X185674095Y-71636000D02*
X185578857Y-71588380D01*
X185436000Y-71588380D01*
X185293142Y-71636000D01*
X185197904Y-71731238D01*
X185150285Y-71826476D01*
X185102666Y-72016952D01*
X185102666Y-72159809D01*
X185150285Y-72350285D01*
X185197904Y-72445523D01*
X185293142Y-72540761D01*
X185436000Y-72588380D01*
X185531238Y-72588380D01*
X185674095Y-72540761D01*
X185721714Y-72493142D01*
X185721714Y-72159809D01*
X185531238Y-72159809D01*
X186150285Y-72588380D02*
X186150285Y-71588380D01*
X186721714Y-72588380D01*
X186721714Y-71588380D01*
X187197904Y-72588380D02*
X187197904Y-71588380D01*
X187436000Y-71588380D01*
X187578857Y-71636000D01*
X187674095Y-71731238D01*
X187721714Y-71826476D01*
X187769333Y-72016952D01*
X187769333Y-72159809D01*
X187721714Y-72350285D01*
X187674095Y-72445523D01*
X187578857Y-72540761D01*
X187436000Y-72588380D01*
X187197904Y-72588380D01*
X181887904Y-72064571D02*
X182030761Y-72112190D01*
X182078380Y-72159809D01*
X182126000Y-72255047D01*
X182126000Y-72397904D01*
X182078380Y-72493142D01*
X182030761Y-72540761D01*
X181935523Y-72588380D01*
X181554571Y-72588380D01*
X181554571Y-71588380D01*
X181887904Y-71588380D01*
X181983142Y-71636000D01*
X182030761Y-71683619D01*
X182078380Y-71778857D01*
X182078380Y-71874095D01*
X182030761Y-71969333D01*
X181983142Y-72016952D01*
X181887904Y-72064571D01*
X181554571Y-72064571D01*
X182506952Y-72302666D02*
X182983142Y-72302666D01*
X182411714Y-72588380D02*
X182745047Y-71588380D01*
X183078380Y-72588380D01*
X183268857Y-71588380D02*
X183840285Y-71588380D01*
X183554571Y-72588380D02*
X183554571Y-71588380D01*
X152685904Y-72096380D02*
X153304952Y-72096380D01*
X152971619Y-72477333D01*
X153114476Y-72477333D01*
X153209714Y-72524952D01*
X153257333Y-72572571D01*
X153304952Y-72667809D01*
X153304952Y-72905904D01*
X153257333Y-73001142D01*
X153209714Y-73048761D01*
X153114476Y-73096380D01*
X152828761Y-73096380D01*
X152733523Y-73048761D01*
X152685904Y-73001142D01*
X153590666Y-72096380D02*
X153924000Y-73096380D01*
X154257333Y-72096380D01*
X154495428Y-72096380D02*
X155114476Y-72096380D01*
X154781142Y-72477333D01*
X154924000Y-72477333D01*
X155019238Y-72524952D01*
X155066857Y-72572571D01*
X155114476Y-72667809D01*
X155114476Y-72905904D01*
X155066857Y-73001142D01*
X155019238Y-73048761D01*
X154924000Y-73096380D01*
X154638285Y-73096380D01*
X154543047Y-73048761D01*
X154495428Y-73001142D01*
X149669523Y-72096380D02*
X149193333Y-72096380D01*
X149145714Y-72572571D01*
X149193333Y-72524952D01*
X149288571Y-72477333D01*
X149526666Y-72477333D01*
X149621904Y-72524952D01*
X149669523Y-72572571D01*
X149717142Y-72667809D01*
X149717142Y-72905904D01*
X149669523Y-73001142D01*
X149621904Y-73048761D01*
X149526666Y-73096380D01*
X149288571Y-73096380D01*
X149193333Y-73048761D01*
X149145714Y-73001142D01*
X150002857Y-72096380D02*
X150336190Y-73096380D01*
X150669523Y-72096380D01*
X145176952Y-73096380D02*
X144605523Y-73096380D01*
X144891238Y-73096380D02*
X144891238Y-72096380D01*
X144796000Y-72239238D01*
X144700761Y-72334476D01*
X144605523Y-72382095D01*
X145557904Y-72191619D02*
X145605523Y-72144000D01*
X145700761Y-72096380D01*
X145938857Y-72096380D01*
X146034095Y-72144000D01*
X146081714Y-72191619D01*
X146129333Y-72286857D01*
X146129333Y-72382095D01*
X146081714Y-72524952D01*
X145510285Y-73096380D01*
X146129333Y-73096380D01*
X146415047Y-72096380D02*
X146748380Y-73096380D01*
X147081714Y-72096380D01*
X170251380Y-108378571D02*
X169775190Y-108711904D01*
X170251380Y-108950000D02*
X169251380Y-108950000D01*
X169251380Y-108569047D01*
X169299000Y-108473809D01*
X169346619Y-108426190D01*
X169441857Y-108378571D01*
X169584714Y-108378571D01*
X169679952Y-108426190D01*
X169727571Y-108473809D01*
X169775190Y-108569047D01*
X169775190Y-108950000D01*
X170251380Y-107950000D02*
X169251380Y-107950000D01*
X169251380Y-107569047D01*
X169299000Y-107473809D01*
X169346619Y-107426190D01*
X169441857Y-107378571D01*
X169584714Y-107378571D01*
X169679952Y-107426190D01*
X169727571Y-107473809D01*
X169775190Y-107569047D01*
X169775190Y-107950000D01*
X170251380Y-106950000D02*
X169251380Y-106950000D01*
X116927333Y-64127857D02*
X116927333Y-64604047D01*
X116641619Y-64032619D02*
X117641619Y-64365952D01*
X116641619Y-64699285D01*
X117308285Y-65032619D02*
X116641619Y-65032619D01*
X117213047Y-65032619D02*
X117260666Y-65080238D01*
X117308285Y-65175476D01*
X117308285Y-65318333D01*
X117260666Y-65413571D01*
X117165428Y-65461190D01*
X116641619Y-65461190D01*
X117308285Y-65794523D02*
X117308285Y-66175476D01*
X117641619Y-65937380D02*
X116784476Y-65937380D01*
X116689238Y-65985000D01*
X116641619Y-66080238D01*
X116641619Y-66175476D01*
X116689238Y-66889761D02*
X116641619Y-66794523D01*
X116641619Y-66604047D01*
X116689238Y-66508809D01*
X116784476Y-66461190D01*
X117165428Y-66461190D01*
X117260666Y-66508809D01*
X117308285Y-66604047D01*
X117308285Y-66794523D01*
X117260666Y-66889761D01*
X117165428Y-66937380D01*
X117070190Y-66937380D01*
X116974952Y-66461190D01*
X117308285Y-67365952D02*
X116641619Y-67365952D01*
X117213047Y-67365952D02*
X117260666Y-67413571D01*
X117308285Y-67508809D01*
X117308285Y-67651666D01*
X117260666Y-67746904D01*
X117165428Y-67794523D01*
X116641619Y-67794523D01*
X117308285Y-68270714D02*
X116641619Y-68270714D01*
X117213047Y-68270714D02*
X117260666Y-68318333D01*
X117308285Y-68413571D01*
X117308285Y-68556428D01*
X117260666Y-68651666D01*
X117165428Y-68699285D01*
X116641619Y-68699285D01*
X116641619Y-69604047D02*
X117165428Y-69604047D01*
X117260666Y-69556428D01*
X117308285Y-69461190D01*
X117308285Y-69270714D01*
X117260666Y-69175476D01*
X116689238Y-69604047D02*
X116641619Y-69508809D01*
X116641619Y-69270714D01*
X116689238Y-69175476D01*
X116784476Y-69127857D01*
X116879714Y-69127857D01*
X116974952Y-69175476D01*
X117022571Y-69270714D01*
X117022571Y-69508809D01*
X117070190Y-69604047D01*
X116641619Y-70842142D02*
X117641619Y-70842142D01*
X117641619Y-71080238D01*
X117594000Y-71223095D01*
X117498761Y-71318333D01*
X117403523Y-71365952D01*
X117213047Y-71413571D01*
X117070190Y-71413571D01*
X116879714Y-71365952D01*
X116784476Y-71318333D01*
X116689238Y-71223095D01*
X116641619Y-71080238D01*
X116641619Y-70842142D01*
X116689238Y-72223095D02*
X116641619Y-72127857D01*
X116641619Y-71937380D01*
X116689238Y-71842142D01*
X116784476Y-71794523D01*
X117165428Y-71794523D01*
X117260666Y-71842142D01*
X117308285Y-71937380D01*
X117308285Y-72127857D01*
X117260666Y-72223095D01*
X117165428Y-72270714D01*
X117070190Y-72270714D01*
X116974952Y-71794523D01*
X117308285Y-72699285D02*
X116308285Y-72699285D01*
X117260666Y-72699285D02*
X117308285Y-72794523D01*
X117308285Y-72985000D01*
X117260666Y-73080238D01*
X117213047Y-73127857D01*
X117117809Y-73175476D01*
X116832095Y-73175476D01*
X116736857Y-73127857D01*
X116689238Y-73080238D01*
X116641619Y-72985000D01*
X116641619Y-72794523D01*
X116689238Y-72699285D01*
X116641619Y-73746904D02*
X116689238Y-73651666D01*
X116784476Y-73604047D01*
X117641619Y-73604047D01*
X116641619Y-74270714D02*
X116689238Y-74175476D01*
X116736857Y-74127857D01*
X116832095Y-74080238D01*
X117117809Y-74080238D01*
X117213047Y-74127857D01*
X117260666Y-74175476D01*
X117308285Y-74270714D01*
X117308285Y-74413571D01*
X117260666Y-74508809D01*
X117213047Y-74556428D01*
X117117809Y-74604047D01*
X116832095Y-74604047D01*
X116736857Y-74556428D01*
X116689238Y-74508809D01*
X116641619Y-74413571D01*
X116641619Y-74270714D01*
X117308285Y-74937380D02*
X116641619Y-75175476D01*
X117308285Y-75413571D02*
X116641619Y-75175476D01*
X116403523Y-75080238D01*
X116355904Y-75032619D01*
X116308285Y-74937380D01*
X116689238Y-76175476D02*
X116641619Y-76080238D01*
X116641619Y-75889761D01*
X116689238Y-75794523D01*
X116784476Y-75746904D01*
X117165428Y-75746904D01*
X117260666Y-75794523D01*
X117308285Y-75889761D01*
X117308285Y-76080238D01*
X117260666Y-76175476D01*
X117165428Y-76223095D01*
X117070190Y-76223095D01*
X116974952Y-75746904D01*
X116641619Y-76651666D02*
X117308285Y-76651666D01*
X117117809Y-76651666D02*
X117213047Y-76699285D01*
X117260666Y-76746904D01*
X117308285Y-76842142D01*
X117308285Y-76937380D01*
X109688333Y-90662857D02*
X109688333Y-91139047D01*
X109402619Y-90567619D02*
X110402619Y-90900952D01*
X109402619Y-91234285D01*
X109402619Y-91567619D02*
X110402619Y-91567619D01*
X110402619Y-91948571D01*
X110355000Y-92043809D01*
X110307380Y-92091428D01*
X110212142Y-92139047D01*
X110069285Y-92139047D01*
X109974047Y-92091428D01*
X109926428Y-92043809D01*
X109878809Y-91948571D01*
X109878809Y-91567619D01*
X109402619Y-93139047D02*
X109878809Y-92805714D01*
X109402619Y-92567619D02*
X110402619Y-92567619D01*
X110402619Y-92948571D01*
X110355000Y-93043809D01*
X110307380Y-93091428D01*
X110212142Y-93139047D01*
X110069285Y-93139047D01*
X109974047Y-93091428D01*
X109926428Y-93043809D01*
X109878809Y-92948571D01*
X109878809Y-92567619D01*
X109450238Y-93520000D02*
X109402619Y-93662857D01*
X109402619Y-93900952D01*
X109450238Y-93996190D01*
X109497857Y-94043809D01*
X109593095Y-94091428D01*
X109688333Y-94091428D01*
X109783571Y-94043809D01*
X109831190Y-93996190D01*
X109878809Y-93900952D01*
X109926428Y-93710476D01*
X109974047Y-93615238D01*
X110021666Y-93567619D01*
X110116904Y-93520000D01*
X110212142Y-93520000D01*
X110307380Y-93567619D01*
X110355000Y-93615238D01*
X110402619Y-93710476D01*
X110402619Y-93948571D01*
X110355000Y-94091428D01*
X109497857Y-95853333D02*
X109450238Y-95805714D01*
X109402619Y-95662857D01*
X109402619Y-95567619D01*
X109450238Y-95424761D01*
X109545476Y-95329523D01*
X109640714Y-95281904D01*
X109831190Y-95234285D01*
X109974047Y-95234285D01*
X110164523Y-95281904D01*
X110259761Y-95329523D01*
X110355000Y-95424761D01*
X110402619Y-95567619D01*
X110402619Y-95662857D01*
X110355000Y-95805714D01*
X110307380Y-95853333D01*
X109402619Y-96424761D02*
X109450238Y-96329523D01*
X109497857Y-96281904D01*
X109593095Y-96234285D01*
X109878809Y-96234285D01*
X109974047Y-96281904D01*
X110021666Y-96329523D01*
X110069285Y-96424761D01*
X110069285Y-96567619D01*
X110021666Y-96662857D01*
X109974047Y-96710476D01*
X109878809Y-96758095D01*
X109593095Y-96758095D01*
X109497857Y-96710476D01*
X109450238Y-96662857D01*
X109402619Y-96567619D01*
X109402619Y-96424761D01*
X110069285Y-97186666D02*
X109402619Y-97186666D01*
X109974047Y-97186666D02*
X110021666Y-97234285D01*
X110069285Y-97329523D01*
X110069285Y-97472380D01*
X110021666Y-97567619D01*
X109926428Y-97615238D01*
X109402619Y-97615238D01*
X110069285Y-98091428D02*
X109402619Y-98091428D01*
X109974047Y-98091428D02*
X110021666Y-98139047D01*
X110069285Y-98234285D01*
X110069285Y-98377142D01*
X110021666Y-98472380D01*
X109926428Y-98520000D01*
X109402619Y-98520000D01*
X109450238Y-99377142D02*
X109402619Y-99281904D01*
X109402619Y-99091428D01*
X109450238Y-98996190D01*
X109545476Y-98948571D01*
X109926428Y-98948571D01*
X110021666Y-98996190D01*
X110069285Y-99091428D01*
X110069285Y-99281904D01*
X110021666Y-99377142D01*
X109926428Y-99424761D01*
X109831190Y-99424761D01*
X109735952Y-98948571D01*
X109450238Y-100281904D02*
X109402619Y-100186666D01*
X109402619Y-99996190D01*
X109450238Y-99900952D01*
X109497857Y-99853333D01*
X109593095Y-99805714D01*
X109878809Y-99805714D01*
X109974047Y-99853333D01*
X110021666Y-99900952D01*
X110069285Y-99996190D01*
X110069285Y-100186666D01*
X110021666Y-100281904D01*
X110069285Y-100567619D02*
X110069285Y-100948571D01*
X110402619Y-100710476D02*
X109545476Y-100710476D01*
X109450238Y-100758095D01*
X109402619Y-100853333D01*
X109402619Y-100948571D01*
X109402619Y-101424761D02*
X109450238Y-101329523D01*
X109497857Y-101281904D01*
X109593095Y-101234285D01*
X109878809Y-101234285D01*
X109974047Y-101281904D01*
X110021666Y-101329523D01*
X110069285Y-101424761D01*
X110069285Y-101567619D01*
X110021666Y-101662857D01*
X109974047Y-101710476D01*
X109878809Y-101758095D01*
X109593095Y-101758095D01*
X109497857Y-101710476D01*
X109450238Y-101662857D01*
X109402619Y-101567619D01*
X109402619Y-101424761D01*
X109402619Y-102186666D02*
X110069285Y-102186666D01*
X109878809Y-102186666D02*
X109974047Y-102234285D01*
X110021666Y-102281904D01*
X110069285Y-102377142D01*
X110069285Y-102472380D01*
X109402619Y-119865000D02*
X110402619Y-119865000D01*
X109402619Y-120341190D02*
X110069285Y-120341190D01*
X109878809Y-120341190D02*
X109974047Y-120388809D01*
X110021666Y-120436428D01*
X110069285Y-120531666D01*
X110069285Y-120626904D01*
X109402619Y-120960238D02*
X110069285Y-120960238D01*
X110402619Y-120960238D02*
X110355000Y-120912619D01*
X110307380Y-120960238D01*
X110355000Y-121007857D01*
X110402619Y-120960238D01*
X110307380Y-120960238D01*
X109402619Y-121865000D02*
X110402619Y-121865000D01*
X109450238Y-121865000D02*
X109402619Y-121769761D01*
X109402619Y-121579285D01*
X109450238Y-121484047D01*
X109497857Y-121436428D01*
X109593095Y-121388809D01*
X109878809Y-121388809D01*
X109974047Y-121436428D01*
X110021666Y-121484047D01*
X110069285Y-121579285D01*
X110069285Y-121769761D01*
X110021666Y-121865000D01*
X109402619Y-122341190D02*
X110069285Y-122341190D01*
X110402619Y-122341190D02*
X110355000Y-122293571D01*
X110307380Y-122341190D01*
X110355000Y-122388809D01*
X110402619Y-122341190D01*
X110307380Y-122341190D01*
X110069285Y-123245952D02*
X109402619Y-123245952D01*
X110069285Y-122817380D02*
X109545476Y-122817380D01*
X109450238Y-122865000D01*
X109402619Y-122960238D01*
X109402619Y-123103095D01*
X109450238Y-123198333D01*
X109497857Y-123245952D01*
X109402619Y-123722142D02*
X110069285Y-123722142D01*
X109974047Y-123722142D02*
X110021666Y-123769761D01*
X110069285Y-123865000D01*
X110069285Y-124007857D01*
X110021666Y-124103095D01*
X109926428Y-124150714D01*
X109402619Y-124150714D01*
X109926428Y-124150714D02*
X110021666Y-124198333D01*
X110069285Y-124293571D01*
X110069285Y-124436428D01*
X110021666Y-124531666D01*
X109926428Y-124579285D01*
X109402619Y-124579285D01*
X109497857Y-126388809D02*
X109450238Y-126341190D01*
X109402619Y-126198333D01*
X109402619Y-126103095D01*
X109450238Y-125960238D01*
X109545476Y-125865000D01*
X109640714Y-125817380D01*
X109831190Y-125769761D01*
X109974047Y-125769761D01*
X110164523Y-125817380D01*
X110259761Y-125865000D01*
X110355000Y-125960238D01*
X110402619Y-126103095D01*
X110402619Y-126198333D01*
X110355000Y-126341190D01*
X110307380Y-126388809D01*
X109402619Y-126960238D02*
X109450238Y-126865000D01*
X109497857Y-126817380D01*
X109593095Y-126769761D01*
X109878809Y-126769761D01*
X109974047Y-126817380D01*
X110021666Y-126865000D01*
X110069285Y-126960238D01*
X110069285Y-127103095D01*
X110021666Y-127198333D01*
X109974047Y-127245952D01*
X109878809Y-127293571D01*
X109593095Y-127293571D01*
X109497857Y-127245952D01*
X109450238Y-127198333D01*
X109402619Y-127103095D01*
X109402619Y-126960238D01*
X110069285Y-127722142D02*
X109402619Y-127722142D01*
X109974047Y-127722142D02*
X110021666Y-127769761D01*
X110069285Y-127865000D01*
X110069285Y-128007857D01*
X110021666Y-128103095D01*
X109926428Y-128150714D01*
X109402619Y-128150714D01*
X110069285Y-128626904D02*
X109402619Y-128626904D01*
X109974047Y-128626904D02*
X110021666Y-128674523D01*
X110069285Y-128769761D01*
X110069285Y-128912619D01*
X110021666Y-129007857D01*
X109926428Y-129055476D01*
X109402619Y-129055476D01*
X109450238Y-129912619D02*
X109402619Y-129817380D01*
X109402619Y-129626904D01*
X109450238Y-129531666D01*
X109545476Y-129484047D01*
X109926428Y-129484047D01*
X110021666Y-129531666D01*
X110069285Y-129626904D01*
X110069285Y-129817380D01*
X110021666Y-129912619D01*
X109926428Y-129960238D01*
X109831190Y-129960238D01*
X109735952Y-129484047D01*
X109450238Y-130817380D02*
X109402619Y-130722142D01*
X109402619Y-130531666D01*
X109450238Y-130436428D01*
X109497857Y-130388809D01*
X109593095Y-130341190D01*
X109878809Y-130341190D01*
X109974047Y-130388809D01*
X110021666Y-130436428D01*
X110069285Y-130531666D01*
X110069285Y-130722142D01*
X110021666Y-130817380D01*
X110069285Y-131103095D02*
X110069285Y-131484047D01*
X110402619Y-131245952D02*
X109545476Y-131245952D01*
X109450238Y-131293571D01*
X109402619Y-131388809D01*
X109402619Y-131484047D01*
X109402619Y-131960238D02*
X109450238Y-131865000D01*
X109497857Y-131817380D01*
X109593095Y-131769761D01*
X109878809Y-131769761D01*
X109974047Y-131817380D01*
X110021666Y-131865000D01*
X110069285Y-131960238D01*
X110069285Y-132103095D01*
X110021666Y-132198333D01*
X109974047Y-132245952D01*
X109878809Y-132293571D01*
X109593095Y-132293571D01*
X109497857Y-132245952D01*
X109450238Y-132198333D01*
X109402619Y-132103095D01*
X109402619Y-131960238D01*
X109402619Y-132722142D02*
X110069285Y-132722142D01*
X109878809Y-132722142D02*
X109974047Y-132769761D01*
X110021666Y-132817380D01*
X110069285Y-132912619D01*
X110069285Y-133007857D01*
X161107380Y-86820238D02*
X160107380Y-86820238D01*
X161107380Y-86344047D02*
X160107380Y-86344047D01*
X160821666Y-86010714D01*
X160107380Y-85677380D01*
X161107380Y-85677380D01*
X160107380Y-85201190D02*
X160916904Y-85201190D01*
X161012142Y-85153571D01*
X161059761Y-85105952D01*
X161107380Y-85010714D01*
X161107380Y-84820238D01*
X161059761Y-84725000D01*
X161012142Y-84677380D01*
X160916904Y-84629761D01*
X160107380Y-84629761D01*
X110402619Y-106148809D02*
X110402619Y-106720238D01*
X109402619Y-106434523D02*
X110402619Y-106434523D01*
X109402619Y-107053571D02*
X110402619Y-107053571D01*
X109926428Y-107053571D02*
X109926428Y-107625000D01*
X109402619Y-107625000D02*
X110402619Y-107625000D01*
X109402619Y-108101190D02*
X110402619Y-108101190D01*
X109450238Y-108529761D02*
X109402619Y-108672619D01*
X109402619Y-108910714D01*
X109450238Y-109005952D01*
X109497857Y-109053571D01*
X109593095Y-109101190D01*
X109688333Y-109101190D01*
X109783571Y-109053571D01*
X109831190Y-109005952D01*
X109878809Y-108910714D01*
X109926428Y-108720238D01*
X109974047Y-108625000D01*
X110021666Y-108577380D01*
X110116904Y-108529761D01*
X110212142Y-108529761D01*
X110307380Y-108577380D01*
X110355000Y-108625000D01*
X110402619Y-108720238D01*
X110402619Y-108958333D01*
X110355000Y-109101190D01*
X109450238Y-110244047D02*
X109402619Y-110386904D01*
X109402619Y-110625000D01*
X109450238Y-110720238D01*
X109497857Y-110767857D01*
X109593095Y-110815476D01*
X109688333Y-110815476D01*
X109783571Y-110767857D01*
X109831190Y-110720238D01*
X109878809Y-110625000D01*
X109926428Y-110434523D01*
X109974047Y-110339285D01*
X110021666Y-110291666D01*
X110116904Y-110244047D01*
X110212142Y-110244047D01*
X110307380Y-110291666D01*
X110355000Y-110339285D01*
X110402619Y-110434523D01*
X110402619Y-110672619D01*
X110355000Y-110815476D01*
X109402619Y-111244047D02*
X110402619Y-111244047D01*
X109402619Y-111720238D02*
X110402619Y-111720238D01*
X110402619Y-111958333D01*
X110355000Y-112101190D01*
X110259761Y-112196428D01*
X110164523Y-112244047D01*
X109974047Y-112291666D01*
X109831190Y-112291666D01*
X109640714Y-112244047D01*
X109545476Y-112196428D01*
X109450238Y-112101190D01*
X109402619Y-111958333D01*
X109402619Y-111720238D01*
X109926428Y-112720238D02*
X109926428Y-113053571D01*
X109402619Y-113196428D02*
X109402619Y-112720238D01*
X110402619Y-112720238D01*
X110402619Y-113196428D01*
X110402619Y-114386904D02*
X109593095Y-114386904D01*
X109497857Y-114434523D01*
X109450238Y-114482142D01*
X109402619Y-114577380D01*
X109402619Y-114767857D01*
X109450238Y-114863095D01*
X109497857Y-114910714D01*
X109593095Y-114958333D01*
X110402619Y-114958333D01*
X109402619Y-115434523D02*
X110402619Y-115434523D01*
X110402619Y-115815476D01*
X110355000Y-115910714D01*
X110307380Y-115958333D01*
X110212142Y-116005952D01*
X110069285Y-116005952D01*
X109974047Y-115958333D01*
X109926428Y-115910714D01*
X109878809Y-115815476D01*
X109878809Y-115434523D01*
X187786571Y-134633642D02*
X187786571Y-133776500D01*
X189286571Y-134205071D02*
X187786571Y-134205071D01*
X187786571Y-132847928D02*
X188858000Y-132847928D01*
X189072285Y-132919357D01*
X189215142Y-133062214D01*
X189286571Y-133276500D01*
X189286571Y-133419357D01*
X189286571Y-130133642D02*
X188572285Y-130633642D01*
X189286571Y-130990785D02*
X187786571Y-130990785D01*
X187786571Y-130419357D01*
X187858000Y-130276500D01*
X187929428Y-130205071D01*
X188072285Y-130133642D01*
X188286571Y-130133642D01*
X188429428Y-130205071D01*
X188500857Y-130276500D01*
X188572285Y-130419357D01*
X188572285Y-130990785D01*
X188500857Y-129490785D02*
X188500857Y-128990785D01*
X189286571Y-128776500D02*
X189286571Y-129490785D01*
X187786571Y-129490785D01*
X187786571Y-128776500D01*
X187786571Y-128347928D02*
X189286571Y-127847928D01*
X187786571Y-127347928D01*
X188500857Y-126847928D02*
X188500857Y-126347928D01*
X189286571Y-126133642D02*
X189286571Y-126847928D01*
X187786571Y-126847928D01*
X187786571Y-126133642D01*
X189286571Y-124633642D02*
X188572285Y-125133642D01*
X189286571Y-125490785D02*
X187786571Y-125490785D01*
X187786571Y-124919357D01*
X187858000Y-124776500D01*
X187929428Y-124705071D01*
X188072285Y-124633642D01*
X188286571Y-124633642D01*
X188429428Y-124705071D01*
X188500857Y-124776500D01*
X188572285Y-124919357D01*
X188572285Y-125490785D01*
X188500857Y-123490785D02*
X188572285Y-123276500D01*
X188643714Y-123205071D01*
X188786571Y-123133642D01*
X189000857Y-123133642D01*
X189143714Y-123205071D01*
X189215142Y-123276500D01*
X189286571Y-123419357D01*
X189286571Y-123990785D01*
X187786571Y-123990785D01*
X187786571Y-123490785D01*
X187858000Y-123347928D01*
X187929428Y-123276500D01*
X188072285Y-123205071D01*
X188215142Y-123205071D01*
X188358000Y-123276500D01*
X188429428Y-123347928D01*
X188500857Y-123490785D01*
X188500857Y-123990785D01*
X189286571Y-121347928D02*
X187786571Y-121347928D01*
X189286571Y-120633642D02*
X187786571Y-120633642D01*
X189286571Y-119776500D01*
X187786571Y-119776500D01*
X187786571Y-119276500D02*
X187786571Y-118419357D01*
X189286571Y-118847928D02*
X187786571Y-118847928D01*
X188500857Y-117919357D02*
X188500857Y-117419357D01*
X189286571Y-117205071D02*
X189286571Y-117919357D01*
X187786571Y-117919357D01*
X187786571Y-117205071D01*
X189286571Y-115705071D02*
X188572285Y-116205071D01*
X189286571Y-116562214D02*
X187786571Y-116562214D01*
X187786571Y-115990785D01*
X187858000Y-115847928D01*
X187929428Y-115776500D01*
X188072285Y-115705071D01*
X188286571Y-115705071D01*
X188429428Y-115776500D01*
X188500857Y-115847928D01*
X188572285Y-115990785D01*
X188572285Y-116562214D01*
X188500857Y-114562214D02*
X188500857Y-115062214D01*
X189286571Y-115062214D02*
X187786571Y-115062214D01*
X187786571Y-114347928D01*
X188858000Y-113847928D02*
X188858000Y-113133642D01*
X189286571Y-113990785D02*
X187786571Y-113490785D01*
X189286571Y-112990785D01*
X189143714Y-111633642D02*
X189215142Y-111705071D01*
X189286571Y-111919357D01*
X189286571Y-112062214D01*
X189215142Y-112276500D01*
X189072285Y-112419357D01*
X188929428Y-112490785D01*
X188643714Y-112562214D01*
X188429428Y-112562214D01*
X188143714Y-112490785D01*
X188000857Y-112419357D01*
X187858000Y-112276500D01*
X187786571Y-112062214D01*
X187786571Y-111919357D01*
X187858000Y-111705071D01*
X187929428Y-111633642D01*
X188500857Y-110990785D02*
X188500857Y-110490785D01*
X189286571Y-110276500D02*
X189286571Y-110990785D01*
X187786571Y-110990785D01*
X187786571Y-110276500D01*
X188500857Y-107990785D02*
X188572285Y-107776500D01*
X188643714Y-107705071D01*
X188786571Y-107633642D01*
X189000857Y-107633642D01*
X189143714Y-107705071D01*
X189215142Y-107776500D01*
X189286571Y-107919357D01*
X189286571Y-108490785D01*
X187786571Y-108490785D01*
X187786571Y-107990785D01*
X187858000Y-107847928D01*
X187929428Y-107776500D01*
X188072285Y-107705071D01*
X188215142Y-107705071D01*
X188358000Y-107776500D01*
X188429428Y-107847928D01*
X188500857Y-107990785D01*
X188500857Y-108490785D01*
X187786571Y-106705071D02*
X187786571Y-106419357D01*
X187858000Y-106276500D01*
X188000857Y-106133642D01*
X188286571Y-106062214D01*
X188786571Y-106062214D01*
X189072285Y-106133642D01*
X189215142Y-106276500D01*
X189286571Y-106419357D01*
X189286571Y-106705071D01*
X189215142Y-106847928D01*
X189072285Y-106990785D01*
X188786571Y-107062214D01*
X188286571Y-107062214D01*
X188000857Y-106990785D01*
X187858000Y-106847928D01*
X187786571Y-106705071D01*
X188858000Y-105490785D02*
X188858000Y-104776500D01*
X189286571Y-105633642D02*
X187786571Y-105133642D01*
X189286571Y-104633642D01*
X189286571Y-103276500D02*
X188572285Y-103776500D01*
X189286571Y-104133642D02*
X187786571Y-104133642D01*
X187786571Y-103562214D01*
X187858000Y-103419357D01*
X187929428Y-103347928D01*
X188072285Y-103276500D01*
X188286571Y-103276500D01*
X188429428Y-103347928D01*
X188500857Y-103419357D01*
X188572285Y-103562214D01*
X188572285Y-104133642D01*
X189286571Y-102633642D02*
X187786571Y-102633642D01*
X187786571Y-102276500D01*
X187858000Y-102062214D01*
X188000857Y-101919357D01*
X188143714Y-101847928D01*
X188429428Y-101776500D01*
X188643714Y-101776500D01*
X188929428Y-101847928D01*
X189072285Y-101919357D01*
X189215142Y-102062214D01*
X189286571Y-102276500D01*
X189286571Y-102633642D01*
X191686571Y-133562214D02*
X190972285Y-134062214D01*
X191686571Y-134419357D02*
X190186571Y-134419357D01*
X190186571Y-133847928D01*
X190258000Y-133705071D01*
X190329428Y-133633642D01*
X190472285Y-133562214D01*
X190686571Y-133562214D01*
X190829428Y-133633642D01*
X190900857Y-133705071D01*
X190972285Y-133847928D01*
X190972285Y-134419357D01*
X191615142Y-132347928D02*
X191686571Y-132490785D01*
X191686571Y-132776500D01*
X191615142Y-132919357D01*
X191472285Y-132990785D01*
X190900857Y-132990785D01*
X190758000Y-132919357D01*
X190686571Y-132776500D01*
X190686571Y-132490785D01*
X190758000Y-132347928D01*
X190900857Y-132276500D01*
X191043714Y-132276500D01*
X191186571Y-132990785D01*
X191686571Y-130990785D02*
X190186571Y-130990785D01*
X191615142Y-130990785D02*
X191686571Y-131133642D01*
X191686571Y-131419357D01*
X191615142Y-131562214D01*
X191543714Y-131633642D01*
X191400857Y-131705071D01*
X190972285Y-131705071D01*
X190829428Y-131633642D01*
X190758000Y-131562214D01*
X190686571Y-131419357D01*
X190686571Y-131133642D01*
X190758000Y-130990785D01*
X191615142Y-129705071D02*
X191686571Y-129847928D01*
X191686571Y-130133642D01*
X191615142Y-130276500D01*
X191472285Y-130347928D01*
X190900857Y-130347928D01*
X190758000Y-130276500D01*
X190686571Y-130133642D01*
X190686571Y-129847928D01*
X190758000Y-129705071D01*
X190900857Y-129633642D01*
X191043714Y-129633642D01*
X191186571Y-130347928D01*
X191615142Y-129062214D02*
X191686571Y-128919357D01*
X191686571Y-128633642D01*
X191615142Y-128490785D01*
X191472285Y-128419357D01*
X191400857Y-128419357D01*
X191258000Y-128490785D01*
X191186571Y-128633642D01*
X191186571Y-128847928D01*
X191115142Y-128990785D01*
X190972285Y-129062214D01*
X190900857Y-129062214D01*
X190758000Y-128990785D01*
X190686571Y-128847928D01*
X190686571Y-128633642D01*
X190758000Y-128490785D01*
X191686571Y-127776500D02*
X190686571Y-127776500D01*
X190186571Y-127776500D02*
X190258000Y-127847928D01*
X190329428Y-127776500D01*
X190258000Y-127705071D01*
X190186571Y-127776500D01*
X190329428Y-127776500D01*
X190686571Y-126419357D02*
X191900857Y-126419357D01*
X192043714Y-126490785D01*
X192115142Y-126562214D01*
X192186571Y-126705071D01*
X192186571Y-126919357D01*
X192115142Y-127062214D01*
X191615142Y-126419357D02*
X191686571Y-126562214D01*
X191686571Y-126847928D01*
X191615142Y-126990785D01*
X191543714Y-127062214D01*
X191400857Y-127133642D01*
X190972285Y-127133642D01*
X190829428Y-127062214D01*
X190758000Y-126990785D01*
X190686571Y-126847928D01*
X190686571Y-126562214D01*
X190758000Y-126419357D01*
X190686571Y-125705071D02*
X191686571Y-125705071D01*
X190829428Y-125705071D02*
X190758000Y-125633642D01*
X190686571Y-125490785D01*
X190686571Y-125276500D01*
X190758000Y-125133642D01*
X190900857Y-125062214D01*
X191686571Y-125062214D01*
X191686571Y-123205071D02*
X190186571Y-123205071D01*
X191258000Y-122705071D01*
X190186571Y-122205071D01*
X191686571Y-122205071D01*
X190686571Y-120847928D02*
X191686571Y-120847928D01*
X190686571Y-121490785D02*
X191472285Y-121490785D01*
X191615142Y-121419357D01*
X191686571Y-121276500D01*
X191686571Y-121062214D01*
X191615142Y-120919357D01*
X191543714Y-120847928D01*
X191686571Y-119919357D02*
X191615142Y-120062214D01*
X191472285Y-120133642D01*
X190186571Y-120133642D01*
X190686571Y-119562214D02*
X190686571Y-118990785D01*
X190186571Y-119347928D02*
X191472285Y-119347928D01*
X191615142Y-119276500D01*
X191686571Y-119133642D01*
X191686571Y-118990785D01*
X191686571Y-118490785D02*
X190686571Y-118490785D01*
X190186571Y-118490785D02*
X190258000Y-118562214D01*
X190329428Y-118490785D01*
X190258000Y-118419357D01*
X190186571Y-118490785D01*
X190329428Y-118490785D01*
X191615142Y-117133642D02*
X191686571Y-117276500D01*
X191686571Y-117562214D01*
X191615142Y-117705071D01*
X191543714Y-117776500D01*
X191400857Y-117847928D01*
X190972285Y-117847928D01*
X190829428Y-117776500D01*
X190758000Y-117705071D01*
X190686571Y-117562214D01*
X190686571Y-117276500D01*
X190758000Y-117133642D01*
X191686571Y-116276500D02*
X191615142Y-116419357D01*
X191543714Y-116490785D01*
X191400857Y-116562214D01*
X190972285Y-116562214D01*
X190829428Y-116490785D01*
X190758000Y-116419357D01*
X190686571Y-116276500D01*
X190686571Y-116062214D01*
X190758000Y-115919357D01*
X190829428Y-115847928D01*
X190972285Y-115776500D01*
X191400857Y-115776500D01*
X191543714Y-115847928D01*
X191615142Y-115919357D01*
X191686571Y-116062214D01*
X191686571Y-116276500D01*
X191686571Y-115133642D02*
X190686571Y-115133642D01*
X190972285Y-115133642D02*
X190829428Y-115062214D01*
X190758000Y-114990785D01*
X190686571Y-114847928D01*
X190686571Y-114705071D01*
X191615142Y-113633642D02*
X191686571Y-113776500D01*
X191686571Y-114062214D01*
X191615142Y-114205071D01*
X191472285Y-114276500D01*
X190900857Y-114276500D01*
X190758000Y-114205071D01*
X190686571Y-114062214D01*
X190686571Y-113776500D01*
X190758000Y-113633642D01*
X190900857Y-113562214D01*
X191043714Y-113562214D01*
X191186571Y-114276500D01*
X190900857Y-111276500D02*
X190972285Y-111062214D01*
X191043714Y-110990785D01*
X191186571Y-110919357D01*
X191400857Y-110919357D01*
X191543714Y-110990785D01*
X191615142Y-111062214D01*
X191686571Y-111205071D01*
X191686571Y-111776500D01*
X190186571Y-111776500D01*
X190186571Y-111276500D01*
X190258000Y-111133642D01*
X190329428Y-111062214D01*
X190472285Y-110990785D01*
X190615142Y-110990785D01*
X190758000Y-111062214D01*
X190829428Y-111133642D01*
X190900857Y-111276500D01*
X190900857Y-111776500D01*
X191686571Y-110276500D02*
X190686571Y-110276500D01*
X190972285Y-110276500D02*
X190829428Y-110205071D01*
X190758000Y-110133642D01*
X190686571Y-109990785D01*
X190686571Y-109847928D01*
X191686571Y-108705071D02*
X190900857Y-108705071D01*
X190758000Y-108776500D01*
X190686571Y-108919357D01*
X190686571Y-109205071D01*
X190758000Y-109347928D01*
X191615142Y-108705071D02*
X191686571Y-108847928D01*
X191686571Y-109205071D01*
X191615142Y-109347928D01*
X191472285Y-109419357D01*
X191329428Y-109419357D01*
X191186571Y-109347928D01*
X191115142Y-109205071D01*
X191115142Y-108847928D01*
X191043714Y-108705071D01*
X190686571Y-107990785D02*
X191686571Y-107990785D01*
X190829428Y-107990785D02*
X190758000Y-107919357D01*
X190686571Y-107776500D01*
X190686571Y-107562214D01*
X190758000Y-107419357D01*
X190900857Y-107347928D01*
X191686571Y-107347928D01*
X191615142Y-105990785D02*
X191686571Y-106133642D01*
X191686571Y-106419357D01*
X191615142Y-106562214D01*
X191543714Y-106633642D01*
X191400857Y-106705071D01*
X190972285Y-106705071D01*
X190829428Y-106633642D01*
X190758000Y-106562214D01*
X190686571Y-106419357D01*
X190686571Y-106133642D01*
X190758000Y-105990785D01*
X191686571Y-105347928D02*
X190186571Y-105347928D01*
X191686571Y-104705071D02*
X190900857Y-104705071D01*
X190758000Y-104776500D01*
X190686571Y-104919357D01*
X190686571Y-105133642D01*
X190758000Y-105276500D01*
X190829428Y-105347928D01*
X194086571Y-134419357D02*
X192586571Y-134419357D01*
X192586571Y-134062214D01*
X192658000Y-133847928D01*
X192800857Y-133705071D01*
X192943714Y-133633642D01*
X193229428Y-133562214D01*
X193443714Y-133562214D01*
X193729428Y-133633642D01*
X193872285Y-133705071D01*
X194015142Y-133847928D01*
X194086571Y-134062214D01*
X194086571Y-134419357D01*
X194015142Y-132347928D02*
X194086571Y-132490785D01*
X194086571Y-132776500D01*
X194015142Y-132919357D01*
X193872285Y-132990785D01*
X193300857Y-132990785D01*
X193158000Y-132919357D01*
X193086571Y-132776500D01*
X193086571Y-132490785D01*
X193158000Y-132347928D01*
X193300857Y-132276500D01*
X193443714Y-132276500D01*
X193586571Y-132990785D01*
X194015142Y-131705071D02*
X194086571Y-131562214D01*
X194086571Y-131276500D01*
X194015142Y-131133642D01*
X193872285Y-131062214D01*
X193800857Y-131062214D01*
X193658000Y-131133642D01*
X193586571Y-131276500D01*
X193586571Y-131490785D01*
X193515142Y-131633642D01*
X193372285Y-131705071D01*
X193300857Y-131705071D01*
X193158000Y-131633642D01*
X193086571Y-131490785D01*
X193086571Y-131276500D01*
X193158000Y-131133642D01*
X194086571Y-130419357D02*
X193086571Y-130419357D01*
X192586571Y-130419357D02*
X192658000Y-130490785D01*
X192729428Y-130419357D01*
X192658000Y-130347928D01*
X192586571Y-130419357D01*
X192729428Y-130419357D01*
X193086571Y-129062214D02*
X194300857Y-129062214D01*
X194443714Y-129133642D01*
X194515142Y-129205071D01*
X194586571Y-129347928D01*
X194586571Y-129562214D01*
X194515142Y-129705071D01*
X194015142Y-129062214D02*
X194086571Y-129205071D01*
X194086571Y-129490785D01*
X194015142Y-129633642D01*
X193943714Y-129705071D01*
X193800857Y-129776500D01*
X193372285Y-129776500D01*
X193229428Y-129705071D01*
X193158000Y-129633642D01*
X193086571Y-129490785D01*
X193086571Y-129205071D01*
X193158000Y-129062214D01*
X193086571Y-128347928D02*
X194086571Y-128347928D01*
X193229428Y-128347928D02*
X193158000Y-128276500D01*
X193086571Y-128133642D01*
X193086571Y-127919357D01*
X193158000Y-127776500D01*
X193300857Y-127705071D01*
X194086571Y-127705071D01*
X194015142Y-126419357D02*
X194086571Y-126562214D01*
X194086571Y-126847928D01*
X194015142Y-126990785D01*
X193872285Y-127062214D01*
X193300857Y-127062214D01*
X193158000Y-126990785D01*
X193086571Y-126847928D01*
X193086571Y-126562214D01*
X193158000Y-126419357D01*
X193300857Y-126347928D01*
X193443714Y-126347928D01*
X193586571Y-127062214D01*
X194086571Y-125062214D02*
X192586571Y-125062214D01*
X194015142Y-125062214D02*
X194086571Y-125205071D01*
X194086571Y-125490785D01*
X194015142Y-125633642D01*
X193943714Y-125705071D01*
X193800857Y-125776500D01*
X193372285Y-125776500D01*
X193229428Y-125705071D01*
X193158000Y-125633642D01*
X193086571Y-125490785D01*
X193086571Y-125205071D01*
X193158000Y-125062214D01*
X194086571Y-123205071D02*
X192586571Y-123205071D01*
X193158000Y-123205071D02*
X193086571Y-123062214D01*
X193086571Y-122776500D01*
X193158000Y-122633642D01*
X193229428Y-122562214D01*
X193372285Y-122490785D01*
X193800857Y-122490785D01*
X193943714Y-122562214D01*
X194015142Y-122633642D01*
X194086571Y-122776500D01*
X194086571Y-123062214D01*
X194015142Y-123205071D01*
X193086571Y-121990785D02*
X194086571Y-121633642D01*
X193086571Y-121276500D02*
X194086571Y-121633642D01*
X194443714Y-121776500D01*
X194515142Y-121847928D01*
X194586571Y-121990785D01*
X193658000Y-119633642D02*
X193658000Y-118919357D01*
X194086571Y-119776500D02*
X192586571Y-119276500D01*
X194086571Y-118776500D01*
X194086571Y-118062214D02*
X194015142Y-118205071D01*
X193872285Y-118276500D01*
X192586571Y-118276500D01*
X194086571Y-116847928D02*
X193300857Y-116847928D01*
X193158000Y-116919357D01*
X193086571Y-117062214D01*
X193086571Y-117347928D01*
X193158000Y-117490785D01*
X194015142Y-116847928D02*
X194086571Y-116990785D01*
X194086571Y-117347928D01*
X194015142Y-117490785D01*
X193872285Y-117562214D01*
X193729428Y-117562214D01*
X193586571Y-117490785D01*
X193515142Y-117347928D01*
X193515142Y-116990785D01*
X193443714Y-116847928D01*
X193086571Y-116133642D02*
X194086571Y-116133642D01*
X193229428Y-116133642D02*
X193158000Y-116062214D01*
X193086571Y-115919357D01*
X193086571Y-115705071D01*
X193158000Y-115562214D01*
X193300857Y-115490785D01*
X194086571Y-115490785D01*
X194086571Y-113633642D02*
X192586571Y-113633642D01*
X193300857Y-113633642D02*
X193300857Y-112776500D01*
X194086571Y-112776500D02*
X192586571Y-112776500D01*
X194015142Y-112133642D02*
X194086571Y-111990785D01*
X194086571Y-111705071D01*
X194015142Y-111562214D01*
X193872285Y-111490785D01*
X193800857Y-111490785D01*
X193658000Y-111562214D01*
X193586571Y-111705071D01*
X193586571Y-111919357D01*
X193515142Y-112062214D01*
X193372285Y-112133642D01*
X193300857Y-112133642D01*
X193158000Y-112062214D01*
X193086571Y-111919357D01*
X193086571Y-111705071D01*
X193158000Y-111562214D01*
X193086571Y-110205071D02*
X194086571Y-110205071D01*
X193086571Y-110847928D02*
X193872285Y-110847928D01*
X194015142Y-110776500D01*
X194086571Y-110633642D01*
X194086571Y-110419357D01*
X194015142Y-110276500D01*
X193943714Y-110205071D01*
X194015142Y-109419357D02*
X194086571Y-109419357D01*
X194229428Y-109490785D01*
X194300857Y-109562214D01*
X193943714Y-106776500D02*
X194015142Y-106847928D01*
X194086571Y-107062214D01*
X194086571Y-107205071D01*
X194015142Y-107419357D01*
X193872285Y-107562214D01*
X193729428Y-107633642D01*
X193443714Y-107705071D01*
X193229428Y-107705071D01*
X192943714Y-107633642D01*
X192800857Y-107562214D01*
X192658000Y-107419357D01*
X192586571Y-107205071D01*
X192586571Y-107062214D01*
X192658000Y-106847928D01*
X192729428Y-106776500D01*
X194086571Y-105919357D02*
X194015142Y-106062214D01*
X193872285Y-106133642D01*
X192586571Y-106133642D01*
X194086571Y-104705071D02*
X193300857Y-104705071D01*
X193158000Y-104776500D01*
X193086571Y-104919357D01*
X193086571Y-105205071D01*
X193158000Y-105347928D01*
X194015142Y-104705071D02*
X194086571Y-104847928D01*
X194086571Y-105205071D01*
X194015142Y-105347928D01*
X193872285Y-105419357D01*
X193729428Y-105419357D01*
X193586571Y-105347928D01*
X193515142Y-105205071D01*
X193515142Y-104847928D01*
X193443714Y-104705071D01*
X194015142Y-104062214D02*
X194086571Y-103919357D01*
X194086571Y-103633642D01*
X194015142Y-103490785D01*
X193872285Y-103419357D01*
X193800857Y-103419357D01*
X193658000Y-103490785D01*
X193586571Y-103633642D01*
X193586571Y-103847928D01*
X193515142Y-103990785D01*
X193372285Y-104062214D01*
X193300857Y-104062214D01*
X193158000Y-103990785D01*
X193086571Y-103847928D01*
X193086571Y-103633642D01*
X193158000Y-103490785D01*
X194015142Y-102847928D02*
X194086571Y-102705071D01*
X194086571Y-102419357D01*
X194015142Y-102276500D01*
X193872285Y-102205071D01*
X193800857Y-102205071D01*
X193658000Y-102276500D01*
X193586571Y-102419357D01*
X193586571Y-102633642D01*
X193515142Y-102776500D01*
X193372285Y-102847928D01*
X193300857Y-102847928D01*
X193158000Y-102776500D01*
X193086571Y-102633642D01*
X193086571Y-102419357D01*
X193158000Y-102276500D01*
X194086571Y-100205071D02*
X194015142Y-100347928D01*
X193943714Y-100419357D01*
X193800857Y-100490785D01*
X193372285Y-100490785D01*
X193229428Y-100419357D01*
X193158000Y-100347928D01*
X193086571Y-100205071D01*
X193086571Y-99990785D01*
X193158000Y-99847928D01*
X193229428Y-99776500D01*
X193372285Y-99705071D01*
X193800857Y-99705071D01*
X193943714Y-99776500D01*
X194015142Y-99847928D01*
X194086571Y-99990785D01*
X194086571Y-100205071D01*
X193086571Y-99276500D02*
X193086571Y-98705071D01*
X194086571Y-99062214D02*
X192800857Y-99062214D01*
X192658000Y-98990785D01*
X192586571Y-98847928D01*
X192586571Y-98705071D01*
X192586571Y-96990785D02*
X192872285Y-97133642D01*
X192729428Y-96419357D02*
X192658000Y-96347928D01*
X192586571Y-96205071D01*
X192586571Y-95847928D01*
X192658000Y-95705071D01*
X192729428Y-95633642D01*
X192872285Y-95562214D01*
X193015142Y-95562214D01*
X193229428Y-95633642D01*
X194086571Y-96490785D01*
X194086571Y-95562214D01*
X192586571Y-95062214D02*
X192586571Y-94133642D01*
X193158000Y-94633642D01*
X193158000Y-94419357D01*
X193229428Y-94276500D01*
X193300857Y-94205071D01*
X193443714Y-94133642D01*
X193800857Y-94133642D01*
X193943714Y-94205071D01*
X194015142Y-94276500D01*
X194086571Y-94419357D01*
X194086571Y-94847928D01*
X194015142Y-94990785D01*
X193943714Y-95062214D01*
X124563333Y-132008571D02*
X124706190Y-132056190D01*
X124753809Y-132103809D01*
X124801428Y-132199047D01*
X124801428Y-132341904D01*
X124753809Y-132437142D01*
X124706190Y-132484761D01*
X124610952Y-132532380D01*
X124230000Y-132532380D01*
X124230000Y-131532380D01*
X124563333Y-131532380D01*
X124658571Y-131580000D01*
X124706190Y-131627619D01*
X124753809Y-131722857D01*
X124753809Y-131818095D01*
X124706190Y-131913333D01*
X124658571Y-131960952D01*
X124563333Y-132008571D01*
X124230000Y-132008571D01*
X125182380Y-132246666D02*
X125658571Y-132246666D01*
X125087142Y-132532380D02*
X125420476Y-131532380D01*
X125753809Y-132532380D01*
X125944285Y-131532380D02*
X126515714Y-131532380D01*
X126230000Y-132532380D02*
X126230000Y-131532380D01*
X126706190Y-131532380D02*
X127039523Y-132532380D01*
X127372857Y-131532380D01*
X124968095Y-129040000D02*
X124872857Y-128992380D01*
X124730000Y-128992380D01*
X124587142Y-129040000D01*
X124491904Y-129135238D01*
X124444285Y-129230476D01*
X124396666Y-129420952D01*
X124396666Y-129563809D01*
X124444285Y-129754285D01*
X124491904Y-129849523D01*
X124587142Y-129944761D01*
X124730000Y-129992380D01*
X124825238Y-129992380D01*
X124968095Y-129944761D01*
X125015714Y-129897142D01*
X125015714Y-129563809D01*
X124825238Y-129563809D01*
X125444285Y-129992380D02*
X125444285Y-128992380D01*
X126015714Y-129992380D01*
X126015714Y-128992380D01*
X126491904Y-129992380D02*
X126491904Y-128992380D01*
X126730000Y-128992380D01*
X126872857Y-129040000D01*
X126968095Y-129135238D01*
X127015714Y-129230476D01*
X127063333Y-129420952D01*
X127063333Y-129563809D01*
X127015714Y-129754285D01*
X126968095Y-129849523D01*
X126872857Y-129944761D01*
X126730000Y-129992380D01*
X126491904Y-129992380D01*
X124333095Y-121372380D02*
X124904523Y-121372380D01*
X124618809Y-122372380D02*
X124618809Y-121372380D01*
X125142619Y-121372380D02*
X125809285Y-122372380D01*
X125809285Y-121372380D02*
X125142619Y-122372380D01*
X124928333Y-119832380D02*
X124595000Y-119356190D01*
X124356904Y-119832380D02*
X124356904Y-118832380D01*
X124737857Y-118832380D01*
X124833095Y-118880000D01*
X124880714Y-118927619D01*
X124928333Y-119022857D01*
X124928333Y-119165714D01*
X124880714Y-119260952D01*
X124833095Y-119308571D01*
X124737857Y-119356190D01*
X124356904Y-119356190D01*
X125261666Y-118832380D02*
X125928333Y-119832380D01*
X125928333Y-118832380D02*
X125261666Y-119832380D01*
X124563333Y-105338571D02*
X124706190Y-105386190D01*
X124753809Y-105433809D01*
X124801428Y-105529047D01*
X124801428Y-105671904D01*
X124753809Y-105767142D01*
X124706190Y-105814761D01*
X124610952Y-105862380D01*
X124230000Y-105862380D01*
X124230000Y-104862380D01*
X124563333Y-104862380D01*
X124658571Y-104910000D01*
X124706190Y-104957619D01*
X124753809Y-105052857D01*
X124753809Y-105148095D01*
X124706190Y-105243333D01*
X124658571Y-105290952D01*
X124563333Y-105338571D01*
X124230000Y-105338571D01*
X125182380Y-105576666D02*
X125658571Y-105576666D01*
X125087142Y-105862380D02*
X125420476Y-104862380D01*
X125753809Y-105862380D01*
X125944285Y-104862380D02*
X126515714Y-104862380D01*
X126230000Y-105862380D02*
X126230000Y-104862380D01*
X126706190Y-104862380D02*
X127039523Y-105862380D01*
X127372857Y-104862380D01*
X124968095Y-102370000D02*
X124872857Y-102322380D01*
X124730000Y-102322380D01*
X124587142Y-102370000D01*
X124491904Y-102465238D01*
X124444285Y-102560476D01*
X124396666Y-102750952D01*
X124396666Y-102893809D01*
X124444285Y-103084285D01*
X124491904Y-103179523D01*
X124587142Y-103274761D01*
X124730000Y-103322380D01*
X124825238Y-103322380D01*
X124968095Y-103274761D01*
X125015714Y-103227142D01*
X125015714Y-102893809D01*
X124825238Y-102893809D01*
X125444285Y-103322380D02*
X125444285Y-102322380D01*
X126015714Y-103322380D01*
X126015714Y-102322380D01*
X126491904Y-103322380D02*
X126491904Y-102322380D01*
X126730000Y-102322380D01*
X126872857Y-102370000D01*
X126968095Y-102465238D01*
X127015714Y-102560476D01*
X127063333Y-102750952D01*
X127063333Y-102893809D01*
X127015714Y-103084285D01*
X126968095Y-103179523D01*
X126872857Y-103274761D01*
X126730000Y-103322380D01*
X126491904Y-103322380D01*
X124333095Y-89622380D02*
X124904523Y-89622380D01*
X124618809Y-90622380D02*
X124618809Y-89622380D01*
X125142619Y-89622380D02*
X125809285Y-90622380D01*
X125809285Y-89622380D02*
X125142619Y-90622380D01*
X170478571Y-68268809D02*
X170592857Y-68306904D01*
X170783333Y-68306904D01*
X170859523Y-68268809D01*
X170897619Y-68230714D01*
X170935714Y-68154523D01*
X170935714Y-68078333D01*
X170897619Y-68002142D01*
X170859523Y-67964047D01*
X170783333Y-67925952D01*
X170630952Y-67887857D01*
X170554761Y-67849761D01*
X170516666Y-67811666D01*
X170478571Y-67735476D01*
X170478571Y-67659285D01*
X170516666Y-67583095D01*
X170554761Y-67545000D01*
X170630952Y-67506904D01*
X170821428Y-67506904D01*
X170935714Y-67545000D01*
X171278571Y-68306904D02*
X171278571Y-67506904D01*
X171469047Y-67506904D01*
X171583333Y-67545000D01*
X171659523Y-67621190D01*
X171697619Y-67697380D01*
X171735714Y-67849761D01*
X171735714Y-67964047D01*
X171697619Y-68116428D01*
X171659523Y-68192619D01*
X171583333Y-68268809D01*
X171469047Y-68306904D01*
X171278571Y-68306904D01*
X172040476Y-68078333D02*
X172421428Y-68078333D01*
X171964285Y-68306904D02*
X172230952Y-67506904D01*
X172497619Y-68306904D01*
X173037619Y-68268809D02*
X173151904Y-68306904D01*
X173342380Y-68306904D01*
X173418571Y-68268809D01*
X173456666Y-68230714D01*
X173494761Y-68154523D01*
X173494761Y-68078333D01*
X173456666Y-68002142D01*
X173418571Y-67964047D01*
X173342380Y-67925952D01*
X173190000Y-67887857D01*
X173113809Y-67849761D01*
X173075714Y-67811666D01*
X173037619Y-67735476D01*
X173037619Y-67659285D01*
X173075714Y-67583095D01*
X173113809Y-67545000D01*
X173190000Y-67506904D01*
X173380476Y-67506904D01*
X173494761Y-67545000D01*
X174294761Y-68230714D02*
X174256666Y-68268809D01*
X174142380Y-68306904D01*
X174066190Y-68306904D01*
X173951904Y-68268809D01*
X173875714Y-68192619D01*
X173837619Y-68116428D01*
X173799523Y-67964047D01*
X173799523Y-67849761D01*
X173837619Y-67697380D01*
X173875714Y-67621190D01*
X173951904Y-67545000D01*
X174066190Y-67506904D01*
X174142380Y-67506904D01*
X174256666Y-67545000D01*
X174294761Y-67583095D01*
X175018571Y-68306904D02*
X174637619Y-68306904D01*
X174637619Y-67506904D01*
X128555714Y-54237380D02*
X127984285Y-54237380D01*
X128270000Y-54237380D02*
X128270000Y-53237380D01*
X128174761Y-53380238D01*
X128079523Y-53475476D01*
X127984285Y-53523095D01*
X128270000Y-55792142D02*
X128317619Y-55839761D01*
X128270000Y-55887380D01*
X128222380Y-55839761D01*
X128270000Y-55792142D01*
X128270000Y-55887380D01*
X179331904Y-53285000D02*
X179236666Y-53237380D01*
X179093809Y-53237380D01*
X178950952Y-53285000D01*
X178855714Y-53380238D01*
X178808095Y-53475476D01*
X178760476Y-53665952D01*
X178760476Y-53808809D01*
X178808095Y-53999285D01*
X178855714Y-54094523D01*
X178950952Y-54189761D01*
X179093809Y-54237380D01*
X179189047Y-54237380D01*
X179331904Y-54189761D01*
X179379523Y-54142142D01*
X179379523Y-53808809D01*
X179189047Y-53808809D01*
X179331904Y-54935000D02*
X179236666Y-54887380D01*
X179093809Y-54887380D01*
X178950952Y-54935000D01*
X178855714Y-55030238D01*
X178808095Y-55125476D01*
X178760476Y-55315952D01*
X178760476Y-55458809D01*
X178808095Y-55649285D01*
X178855714Y-55744523D01*
X178950952Y-55839761D01*
X179093809Y-55887380D01*
X179189047Y-55887380D01*
X179331904Y-55839761D01*
X179379523Y-55792142D01*
X179379523Y-55458809D01*
X179189047Y-55458809D01*
X175596666Y-53877857D02*
X175710952Y-53915952D01*
X175749047Y-53954047D01*
X175787142Y-54030238D01*
X175787142Y-54144523D01*
X175749047Y-54220714D01*
X175710952Y-54258809D01*
X175634761Y-54296904D01*
X175330000Y-54296904D01*
X175330000Y-53496904D01*
X175596666Y-53496904D01*
X175672857Y-53535000D01*
X175710952Y-53573095D01*
X175749047Y-53649285D01*
X175749047Y-53725476D01*
X175710952Y-53801666D01*
X175672857Y-53839761D01*
X175596666Y-53877857D01*
X175330000Y-53877857D01*
X176091904Y-54068333D02*
X176472857Y-54068333D01*
X176015714Y-54296904D02*
X176282380Y-53496904D01*
X176549047Y-54296904D01*
X176701428Y-53496904D02*
X177158571Y-53496904D01*
X176930000Y-54296904D02*
X176930000Y-53496904D01*
X177310952Y-53496904D02*
X177577619Y-54296904D01*
X177844285Y-53496904D01*
X175596666Y-55227857D02*
X175710952Y-55265952D01*
X175749047Y-55304047D01*
X175787142Y-55380238D01*
X175787142Y-55494523D01*
X175749047Y-55570714D01*
X175710952Y-55608809D01*
X175634761Y-55646904D01*
X175330000Y-55646904D01*
X175330000Y-54846904D01*
X175596666Y-54846904D01*
X175672857Y-54885000D01*
X175710952Y-54923095D01*
X175749047Y-54999285D01*
X175749047Y-55075476D01*
X175710952Y-55151666D01*
X175672857Y-55189761D01*
X175596666Y-55227857D01*
X175330000Y-55227857D01*
X176091904Y-55418333D02*
X176472857Y-55418333D01*
X176015714Y-55646904D02*
X176282380Y-54846904D01*
X176549047Y-55646904D01*
X176701428Y-54846904D02*
X177158571Y-54846904D01*
X176930000Y-55646904D02*
X176930000Y-54846904D01*
X177310952Y-54846904D02*
X177577619Y-55646904D01*
X177844285Y-54846904D01*
X173247142Y-53877857D02*
X173361428Y-53915952D01*
X173399523Y-53954047D01*
X173437619Y-54030238D01*
X173437619Y-54144523D01*
X173399523Y-54220714D01*
X173361428Y-54258809D01*
X173285238Y-54296904D01*
X172980476Y-54296904D01*
X172980476Y-53496904D01*
X173247142Y-53496904D01*
X173323333Y-53535000D01*
X173361428Y-53573095D01*
X173399523Y-53649285D01*
X173399523Y-53725476D01*
X173361428Y-53801666D01*
X173323333Y-53839761D01*
X173247142Y-53877857D01*
X172980476Y-53877857D01*
X174237619Y-54220714D02*
X174199523Y-54258809D01*
X174085238Y-54296904D01*
X174009047Y-54296904D01*
X173894761Y-54258809D01*
X173818571Y-54182619D01*
X173780476Y-54106428D01*
X173742380Y-53954047D01*
X173742380Y-53839761D01*
X173780476Y-53687380D01*
X173818571Y-53611190D01*
X173894761Y-53535000D01*
X174009047Y-53496904D01*
X174085238Y-53496904D01*
X174199523Y-53535000D01*
X174237619Y-53573095D01*
X175037619Y-54296904D02*
X174770952Y-53915952D01*
X174580476Y-54296904D02*
X174580476Y-53496904D01*
X174885238Y-53496904D01*
X174961428Y-53535000D01*
X174999523Y-53573095D01*
X175037619Y-53649285D01*
X175037619Y-53763571D01*
X174999523Y-53839761D01*
X174961428Y-53877857D01*
X174885238Y-53915952D01*
X174580476Y-53915952D01*
X173247142Y-55227857D02*
X173361428Y-55265952D01*
X173399523Y-55304047D01*
X173437619Y-55380238D01*
X173437619Y-55494523D01*
X173399523Y-55570714D01*
X173361428Y-55608809D01*
X173285238Y-55646904D01*
X172980476Y-55646904D01*
X172980476Y-54846904D01*
X173247142Y-54846904D01*
X173323333Y-54885000D01*
X173361428Y-54923095D01*
X173399523Y-54999285D01*
X173399523Y-55075476D01*
X173361428Y-55151666D01*
X173323333Y-55189761D01*
X173247142Y-55227857D01*
X172980476Y-55227857D01*
X174237619Y-55570714D02*
X174199523Y-55608809D01*
X174085238Y-55646904D01*
X174009047Y-55646904D01*
X173894761Y-55608809D01*
X173818571Y-55532619D01*
X173780476Y-55456428D01*
X173742380Y-55304047D01*
X173742380Y-55189761D01*
X173780476Y-55037380D01*
X173818571Y-54961190D01*
X173894761Y-54885000D01*
X174009047Y-54846904D01*
X174085238Y-54846904D01*
X174199523Y-54885000D01*
X174237619Y-54923095D01*
X175037619Y-55646904D02*
X174770952Y-55265952D01*
X174580476Y-55646904D02*
X174580476Y-54846904D01*
X174885238Y-54846904D01*
X174961428Y-54885000D01*
X174999523Y-54923095D01*
X175037619Y-54999285D01*
X175037619Y-55113571D01*
X174999523Y-55189761D01*
X174961428Y-55227857D01*
X174885238Y-55265952D01*
X174580476Y-55265952D01*
X170707142Y-53877857D02*
X170821428Y-53915952D01*
X170859523Y-53954047D01*
X170897619Y-54030238D01*
X170897619Y-54144523D01*
X170859523Y-54220714D01*
X170821428Y-54258809D01*
X170745238Y-54296904D01*
X170440476Y-54296904D01*
X170440476Y-53496904D01*
X170707142Y-53496904D01*
X170783333Y-53535000D01*
X170821428Y-53573095D01*
X170859523Y-53649285D01*
X170859523Y-53725476D01*
X170821428Y-53801666D01*
X170783333Y-53839761D01*
X170707142Y-53877857D01*
X170440476Y-53877857D01*
X171697619Y-54220714D02*
X171659523Y-54258809D01*
X171545238Y-54296904D01*
X171469047Y-54296904D01*
X171354761Y-54258809D01*
X171278571Y-54182619D01*
X171240476Y-54106428D01*
X171202380Y-53954047D01*
X171202380Y-53839761D01*
X171240476Y-53687380D01*
X171278571Y-53611190D01*
X171354761Y-53535000D01*
X171469047Y-53496904D01*
X171545238Y-53496904D01*
X171659523Y-53535000D01*
X171697619Y-53573095D01*
X172497619Y-54296904D02*
X172230952Y-53915952D01*
X172040476Y-54296904D02*
X172040476Y-53496904D01*
X172345238Y-53496904D01*
X172421428Y-53535000D01*
X172459523Y-53573095D01*
X172497619Y-53649285D01*
X172497619Y-53763571D01*
X172459523Y-53839761D01*
X172421428Y-53877857D01*
X172345238Y-53915952D01*
X172040476Y-53915952D01*
X170707142Y-55227857D02*
X170821428Y-55265952D01*
X170859523Y-55304047D01*
X170897619Y-55380238D01*
X170897619Y-55494523D01*
X170859523Y-55570714D01*
X170821428Y-55608809D01*
X170745238Y-55646904D01*
X170440476Y-55646904D01*
X170440476Y-54846904D01*
X170707142Y-54846904D01*
X170783333Y-54885000D01*
X170821428Y-54923095D01*
X170859523Y-54999285D01*
X170859523Y-55075476D01*
X170821428Y-55151666D01*
X170783333Y-55189761D01*
X170707142Y-55227857D01*
X170440476Y-55227857D01*
X171697619Y-55570714D02*
X171659523Y-55608809D01*
X171545238Y-55646904D01*
X171469047Y-55646904D01*
X171354761Y-55608809D01*
X171278571Y-55532619D01*
X171240476Y-55456428D01*
X171202380Y-55304047D01*
X171202380Y-55189761D01*
X171240476Y-55037380D01*
X171278571Y-54961190D01*
X171354761Y-54885000D01*
X171469047Y-54846904D01*
X171545238Y-54846904D01*
X171659523Y-54885000D01*
X171697619Y-54923095D01*
X172497619Y-55646904D02*
X172230952Y-55265952D01*
X172040476Y-55646904D02*
X172040476Y-54846904D01*
X172345238Y-54846904D01*
X172421428Y-54885000D01*
X172459523Y-54923095D01*
X172497619Y-54999285D01*
X172497619Y-55113571D01*
X172459523Y-55189761D01*
X172421428Y-55227857D01*
X172345238Y-55265952D01*
X172040476Y-55265952D01*
X168910000Y-54142142D02*
X168957619Y-54189761D01*
X168910000Y-54237380D01*
X168862380Y-54189761D01*
X168910000Y-54142142D01*
X168910000Y-54237380D01*
X168910000Y-55792142D02*
X168957619Y-55839761D01*
X168910000Y-55887380D01*
X168862380Y-55839761D01*
X168910000Y-55792142D01*
X168910000Y-55887380D01*
X166370000Y-54142142D02*
X166417619Y-54189761D01*
X166370000Y-54237380D01*
X166322380Y-54189761D01*
X166370000Y-54142142D01*
X166370000Y-54237380D01*
X166370000Y-55792142D02*
X166417619Y-55839761D01*
X166370000Y-55887380D01*
X166322380Y-55839761D01*
X166370000Y-55792142D01*
X166370000Y-55887380D01*
X162763333Y-54296904D02*
X162763333Y-53496904D01*
X163068095Y-53496904D01*
X163144285Y-53535000D01*
X163182380Y-53573095D01*
X163220476Y-53649285D01*
X163220476Y-53763571D01*
X163182380Y-53839761D01*
X163144285Y-53877857D01*
X163068095Y-53915952D01*
X162763333Y-53915952D01*
X164020476Y-54220714D02*
X163982380Y-54258809D01*
X163868095Y-54296904D01*
X163791904Y-54296904D01*
X163677619Y-54258809D01*
X163601428Y-54182619D01*
X163563333Y-54106428D01*
X163525238Y-53954047D01*
X163525238Y-53839761D01*
X163563333Y-53687380D01*
X163601428Y-53611190D01*
X163677619Y-53535000D01*
X163791904Y-53496904D01*
X163868095Y-53496904D01*
X163982380Y-53535000D01*
X164020476Y-53573095D01*
X164363333Y-54296904D02*
X164363333Y-53496904D01*
X164630000Y-54068333D01*
X164896666Y-53496904D01*
X164896666Y-54296904D01*
X162763333Y-55646904D02*
X162763333Y-54846904D01*
X163068095Y-54846904D01*
X163144285Y-54885000D01*
X163182380Y-54923095D01*
X163220476Y-54999285D01*
X163220476Y-55113571D01*
X163182380Y-55189761D01*
X163144285Y-55227857D01*
X163068095Y-55265952D01*
X162763333Y-55265952D01*
X164020476Y-55570714D02*
X163982380Y-55608809D01*
X163868095Y-55646904D01*
X163791904Y-55646904D01*
X163677619Y-55608809D01*
X163601428Y-55532619D01*
X163563333Y-55456428D01*
X163525238Y-55304047D01*
X163525238Y-55189761D01*
X163563333Y-55037380D01*
X163601428Y-54961190D01*
X163677619Y-54885000D01*
X163791904Y-54846904D01*
X163868095Y-54846904D01*
X163982380Y-54885000D01*
X164020476Y-54923095D01*
X164363333Y-55646904D02*
X164363333Y-54846904D01*
X164630000Y-55418333D01*
X164896666Y-54846904D01*
X164896666Y-55646904D01*
X161290000Y-54142142D02*
X161337619Y-54189761D01*
X161290000Y-54237380D01*
X161242380Y-54189761D01*
X161290000Y-54142142D01*
X161290000Y-54237380D01*
X161290000Y-55792142D02*
X161337619Y-55839761D01*
X161290000Y-55887380D01*
X161242380Y-55839761D01*
X161290000Y-55792142D01*
X161290000Y-55887380D01*
X159011904Y-53285000D02*
X158916666Y-53237380D01*
X158773809Y-53237380D01*
X158630952Y-53285000D01*
X158535714Y-53380238D01*
X158488095Y-53475476D01*
X158440476Y-53665952D01*
X158440476Y-53808809D01*
X158488095Y-53999285D01*
X158535714Y-54094523D01*
X158630952Y-54189761D01*
X158773809Y-54237380D01*
X158869047Y-54237380D01*
X159011904Y-54189761D01*
X159059523Y-54142142D01*
X159059523Y-53808809D01*
X158869047Y-53808809D01*
X158750000Y-55792142D02*
X158797619Y-55839761D01*
X158750000Y-55887380D01*
X158702380Y-55839761D01*
X158750000Y-55792142D01*
X158750000Y-55887380D01*
X156471904Y-53285000D02*
X156376666Y-53237380D01*
X156233809Y-53237380D01*
X156090952Y-53285000D01*
X155995714Y-53380238D01*
X155948095Y-53475476D01*
X155900476Y-53665952D01*
X155900476Y-53808809D01*
X155948095Y-53999285D01*
X155995714Y-54094523D01*
X156090952Y-54189761D01*
X156233809Y-54237380D01*
X156329047Y-54237380D01*
X156471904Y-54189761D01*
X156519523Y-54142142D01*
X156519523Y-53808809D01*
X156329047Y-53808809D01*
X156471904Y-54935000D02*
X156376666Y-54887380D01*
X156233809Y-54887380D01*
X156090952Y-54935000D01*
X155995714Y-55030238D01*
X155948095Y-55125476D01*
X155900476Y-55315952D01*
X155900476Y-55458809D01*
X155948095Y-55649285D01*
X155995714Y-55744523D01*
X156090952Y-55839761D01*
X156233809Y-55887380D01*
X156329047Y-55887380D01*
X156471904Y-55839761D01*
X156519523Y-55792142D01*
X156519523Y-55458809D01*
X156329047Y-55458809D01*
X152679523Y-53496904D02*
X153174761Y-53496904D01*
X152908095Y-53801666D01*
X153022380Y-53801666D01*
X153098571Y-53839761D01*
X153136666Y-53877857D01*
X153174761Y-53954047D01*
X153174761Y-54144523D01*
X153136666Y-54220714D01*
X153098571Y-54258809D01*
X153022380Y-54296904D01*
X152793809Y-54296904D01*
X152717619Y-54258809D01*
X152679523Y-54220714D01*
X153403333Y-53496904D02*
X153670000Y-54296904D01*
X153936666Y-53496904D01*
X154127142Y-53496904D02*
X154622380Y-53496904D01*
X154355714Y-53801666D01*
X154470000Y-53801666D01*
X154546190Y-53839761D01*
X154584285Y-53877857D01*
X154622380Y-53954047D01*
X154622380Y-54144523D01*
X154584285Y-54220714D01*
X154546190Y-54258809D01*
X154470000Y-54296904D01*
X154241428Y-54296904D01*
X154165238Y-54258809D01*
X154127142Y-54220714D01*
X152679523Y-54846904D02*
X153174761Y-54846904D01*
X152908095Y-55151666D01*
X153022380Y-55151666D01*
X153098571Y-55189761D01*
X153136666Y-55227857D01*
X153174761Y-55304047D01*
X153174761Y-55494523D01*
X153136666Y-55570714D01*
X153098571Y-55608809D01*
X153022380Y-55646904D01*
X152793809Y-55646904D01*
X152717619Y-55608809D01*
X152679523Y-55570714D01*
X153403333Y-54846904D02*
X153670000Y-55646904D01*
X153936666Y-54846904D01*
X154127142Y-54846904D02*
X154622380Y-54846904D01*
X154355714Y-55151666D01*
X154470000Y-55151666D01*
X154546190Y-55189761D01*
X154584285Y-55227857D01*
X154622380Y-55304047D01*
X154622380Y-55494523D01*
X154584285Y-55570714D01*
X154546190Y-55608809D01*
X154470000Y-55646904D01*
X154241428Y-55646904D01*
X154165238Y-55608809D01*
X154127142Y-55570714D01*
X150977619Y-53496904D02*
X150596666Y-53496904D01*
X150558571Y-53877857D01*
X150596666Y-53839761D01*
X150672857Y-53801666D01*
X150863333Y-53801666D01*
X150939523Y-53839761D01*
X150977619Y-53877857D01*
X151015714Y-53954047D01*
X151015714Y-54144523D01*
X150977619Y-54220714D01*
X150939523Y-54258809D01*
X150863333Y-54296904D01*
X150672857Y-54296904D01*
X150596666Y-54258809D01*
X150558571Y-54220714D01*
X151244285Y-53496904D02*
X151510952Y-54296904D01*
X151777619Y-53496904D01*
X150977619Y-54846904D02*
X150596666Y-54846904D01*
X150558571Y-55227857D01*
X150596666Y-55189761D01*
X150672857Y-55151666D01*
X150863333Y-55151666D01*
X150939523Y-55189761D01*
X150977619Y-55227857D01*
X151015714Y-55304047D01*
X151015714Y-55494523D01*
X150977619Y-55570714D01*
X150939523Y-55608809D01*
X150863333Y-55646904D01*
X150672857Y-55646904D01*
X150596666Y-55608809D01*
X150558571Y-55570714D01*
X151244285Y-54846904D02*
X151510952Y-55646904D01*
X151777619Y-54846904D01*
X148094761Y-54296904D02*
X147637619Y-54296904D01*
X147866190Y-54296904D02*
X147866190Y-53496904D01*
X147790000Y-53611190D01*
X147713809Y-53687380D01*
X147637619Y-53725476D01*
X148399523Y-53573095D02*
X148437619Y-53535000D01*
X148513809Y-53496904D01*
X148704285Y-53496904D01*
X148780476Y-53535000D01*
X148818571Y-53573095D01*
X148856666Y-53649285D01*
X148856666Y-53725476D01*
X148818571Y-53839761D01*
X148361428Y-54296904D01*
X148856666Y-54296904D01*
X149085238Y-53496904D02*
X149351904Y-54296904D01*
X149618571Y-53496904D01*
X148094761Y-55646904D02*
X147637619Y-55646904D01*
X147866190Y-55646904D02*
X147866190Y-54846904D01*
X147790000Y-54961190D01*
X147713809Y-55037380D01*
X147637619Y-55075476D01*
X148399523Y-54923095D02*
X148437619Y-54885000D01*
X148513809Y-54846904D01*
X148704285Y-54846904D01*
X148780476Y-54885000D01*
X148818571Y-54923095D01*
X148856666Y-54999285D01*
X148856666Y-55075476D01*
X148818571Y-55189761D01*
X148361428Y-55646904D01*
X148856666Y-55646904D01*
X149085238Y-54846904D02*
X149351904Y-55646904D01*
X149618571Y-54846904D01*
X146311904Y-53285000D02*
X146216666Y-53237380D01*
X146073809Y-53237380D01*
X145930952Y-53285000D01*
X145835714Y-53380238D01*
X145788095Y-53475476D01*
X145740476Y-53665952D01*
X145740476Y-53808809D01*
X145788095Y-53999285D01*
X145835714Y-54094523D01*
X145930952Y-54189761D01*
X146073809Y-54237380D01*
X146169047Y-54237380D01*
X146311904Y-54189761D01*
X146359523Y-54142142D01*
X146359523Y-53808809D01*
X146169047Y-53808809D01*
X146311904Y-54935000D02*
X146216666Y-54887380D01*
X146073809Y-54887380D01*
X145930952Y-54935000D01*
X145835714Y-55030238D01*
X145788095Y-55125476D01*
X145740476Y-55315952D01*
X145740476Y-55458809D01*
X145788095Y-55649285D01*
X145835714Y-55744523D01*
X145930952Y-55839761D01*
X146073809Y-55887380D01*
X146169047Y-55887380D01*
X146311904Y-55839761D01*
X146359523Y-55792142D01*
X146359523Y-55458809D01*
X146169047Y-55458809D01*
X143319523Y-54237380D02*
X142748095Y-54237380D01*
X143033809Y-54237380D02*
X143033809Y-53237380D01*
X142938571Y-53380238D01*
X142843333Y-53475476D01*
X142748095Y-53523095D01*
X143938571Y-53237380D02*
X144033809Y-53237380D01*
X144129047Y-53285000D01*
X144176666Y-53332619D01*
X144224285Y-53427857D01*
X144271904Y-53618333D01*
X144271904Y-53856428D01*
X144224285Y-54046904D01*
X144176666Y-54142142D01*
X144129047Y-54189761D01*
X144033809Y-54237380D01*
X143938571Y-54237380D01*
X143843333Y-54189761D01*
X143795714Y-54142142D01*
X143748095Y-54046904D01*
X143700476Y-53856428D01*
X143700476Y-53618333D01*
X143748095Y-53427857D01*
X143795714Y-53332619D01*
X143843333Y-53285000D01*
X143938571Y-53237380D01*
X143319523Y-55887380D02*
X143510000Y-55887380D01*
X143605238Y-55839761D01*
X143652857Y-55792142D01*
X143748095Y-55649285D01*
X143795714Y-55458809D01*
X143795714Y-55077857D01*
X143748095Y-54982619D01*
X143700476Y-54935000D01*
X143605238Y-54887380D01*
X143414761Y-54887380D01*
X143319523Y-54935000D01*
X143271904Y-54982619D01*
X143224285Y-55077857D01*
X143224285Y-55315952D01*
X143271904Y-55411190D01*
X143319523Y-55458809D01*
X143414761Y-55506428D01*
X143605238Y-55506428D01*
X143700476Y-55458809D01*
X143748095Y-55411190D01*
X143795714Y-55315952D01*
X140874761Y-53665952D02*
X140779523Y-53618333D01*
X140731904Y-53570714D01*
X140684285Y-53475476D01*
X140684285Y-53427857D01*
X140731904Y-53332619D01*
X140779523Y-53285000D01*
X140874761Y-53237380D01*
X141065238Y-53237380D01*
X141160476Y-53285000D01*
X141208095Y-53332619D01*
X141255714Y-53427857D01*
X141255714Y-53475476D01*
X141208095Y-53570714D01*
X141160476Y-53618333D01*
X141065238Y-53665952D01*
X140874761Y-53665952D01*
X140779523Y-53713571D01*
X140731904Y-53761190D01*
X140684285Y-53856428D01*
X140684285Y-54046904D01*
X140731904Y-54142142D01*
X140779523Y-54189761D01*
X140874761Y-54237380D01*
X141065238Y-54237380D01*
X141160476Y-54189761D01*
X141208095Y-54142142D01*
X141255714Y-54046904D01*
X141255714Y-53856428D01*
X141208095Y-53761190D01*
X141160476Y-53713571D01*
X141065238Y-53665952D01*
X141231904Y-54935000D02*
X141136666Y-54887380D01*
X140993809Y-54887380D01*
X140850952Y-54935000D01*
X140755714Y-55030238D01*
X140708095Y-55125476D01*
X140660476Y-55315952D01*
X140660476Y-55458809D01*
X140708095Y-55649285D01*
X140755714Y-55744523D01*
X140850952Y-55839761D01*
X140993809Y-55887380D01*
X141089047Y-55887380D01*
X141231904Y-55839761D01*
X141279523Y-55792142D01*
X141279523Y-55458809D01*
X141089047Y-55458809D01*
X138096666Y-53237380D02*
X138763333Y-53237380D01*
X138334761Y-54237380D01*
X138620476Y-54887380D02*
X138430000Y-54887380D01*
X138334761Y-54935000D01*
X138287142Y-54982619D01*
X138191904Y-55125476D01*
X138144285Y-55315952D01*
X138144285Y-55696904D01*
X138191904Y-55792142D01*
X138239523Y-55839761D01*
X138334761Y-55887380D01*
X138525238Y-55887380D01*
X138620476Y-55839761D01*
X138668095Y-55792142D01*
X138715714Y-55696904D01*
X138715714Y-55458809D01*
X138668095Y-55363571D01*
X138620476Y-55315952D01*
X138525238Y-55268333D01*
X138334761Y-55268333D01*
X138239523Y-55315952D01*
X138191904Y-55363571D01*
X138144285Y-55458809D01*
X130524285Y-53332619D02*
X130571904Y-53285000D01*
X130667142Y-53237380D01*
X130905238Y-53237380D01*
X131000476Y-53285000D01*
X131048095Y-53332619D01*
X131095714Y-53427857D01*
X131095714Y-53523095D01*
X131048095Y-53665952D01*
X130476666Y-54237380D01*
X131095714Y-54237380D01*
X131071904Y-54935000D02*
X130976666Y-54887380D01*
X130833809Y-54887380D01*
X130690952Y-54935000D01*
X130595714Y-55030238D01*
X130548095Y-55125476D01*
X130500476Y-55315952D01*
X130500476Y-55458809D01*
X130548095Y-55649285D01*
X130595714Y-55744523D01*
X130690952Y-55839761D01*
X130833809Y-55887380D01*
X130929047Y-55887380D01*
X131071904Y-55839761D01*
X131119523Y-55792142D01*
X131119523Y-55458809D01*
X130929047Y-55458809D01*
X136151904Y-53285000D02*
X136056666Y-53237380D01*
X135913809Y-53237380D01*
X135770952Y-53285000D01*
X135675714Y-53380238D01*
X135628095Y-53475476D01*
X135580476Y-53665952D01*
X135580476Y-53808809D01*
X135628095Y-53999285D01*
X135675714Y-54094523D01*
X135770952Y-54189761D01*
X135913809Y-54237380D01*
X136009047Y-54237380D01*
X136151904Y-54189761D01*
X136199523Y-54142142D01*
X136199523Y-53808809D01*
X136009047Y-53808809D01*
X136128095Y-54887380D02*
X135651904Y-54887380D01*
X135604285Y-55363571D01*
X135651904Y-55315952D01*
X135747142Y-55268333D01*
X135985238Y-55268333D01*
X136080476Y-55315952D01*
X136128095Y-55363571D01*
X136175714Y-55458809D01*
X136175714Y-55696904D01*
X136128095Y-55792142D01*
X136080476Y-55839761D01*
X135985238Y-55887380D01*
X135747142Y-55887380D01*
X135651904Y-55839761D01*
X135604285Y-55792142D01*
X133540476Y-53570714D02*
X133540476Y-54237380D01*
X133302380Y-53189761D02*
X133064285Y-53904047D01*
X133683333Y-53904047D01*
X133016666Y-54887380D02*
X133635714Y-54887380D01*
X133302380Y-55268333D01*
X133445238Y-55268333D01*
X133540476Y-55315952D01*
X133588095Y-55363571D01*
X133635714Y-55458809D01*
X133635714Y-55696904D01*
X133588095Y-55792142D01*
X133540476Y-55839761D01*
X133445238Y-55887380D01*
X133159523Y-55887380D01*
X133064285Y-55839761D01*
X133016666Y-55792142D01*
D12*
%TO.C,R2*%
X180234000Y-109762936D02*
X180234000Y-111217064D01*
X178414000Y-109762936D02*
X178414000Y-111217064D01*
%TO.C,R1*%
X184298000Y-109762936D02*
X184298000Y-111217064D01*
X182478000Y-109762936D02*
X182478000Y-111217064D01*
%TO.C,JP6*%
X182394000Y-115044000D02*
X184394000Y-115044000D01*
X182394000Y-119144000D02*
X182394000Y-115044000D01*
X184394000Y-119144000D02*
X182394000Y-119144000D01*
X184394000Y-115044000D02*
X184394000Y-119144000D01*
%TO.C,JP5*%
X178324000Y-115044000D02*
X180324000Y-115044000D01*
X178324000Y-119144000D02*
X178324000Y-115044000D01*
X180324000Y-119144000D02*
X178324000Y-119144000D01*
X180324000Y-115044000D02*
X180324000Y-119144000D01*
%TO.C,J6*%
X196770000Y-64115000D02*
X190800000Y-64115000D01*
X190800000Y-64115000D02*
X190800000Y-71735000D01*
X190800000Y-71735000D02*
X196770000Y-71735000D01*
X196770000Y-71735000D02*
X196770000Y-64115000D01*
X196760000Y-67425000D02*
X196010000Y-67425000D01*
X196010000Y-67425000D02*
X196010000Y-68425000D01*
X196010000Y-68425000D02*
X196760000Y-68425000D01*
X196760000Y-68425000D02*
X196760000Y-67425000D01*
X196760000Y-64125000D02*
X196010000Y-64125000D01*
X196010000Y-64125000D02*
X196010000Y-65925000D01*
X196010000Y-65925000D02*
X196760000Y-65925000D01*
X196760000Y-65925000D02*
X196760000Y-64125000D01*
X196760000Y-69925000D02*
X196010000Y-69925000D01*
X196010000Y-69925000D02*
X196010000Y-71725000D01*
X196010000Y-71725000D02*
X196760000Y-71725000D01*
X196760000Y-71725000D02*
X196760000Y-69925000D01*
X194510000Y-64125000D02*
X194510000Y-64875000D01*
X194510000Y-64875000D02*
X191560000Y-64875000D01*
X191560000Y-64875000D02*
X191560000Y-67925000D01*
X194510000Y-71725000D02*
X194510000Y-70975000D01*
X194510000Y-70975000D02*
X191560000Y-70975000D01*
X191560000Y-70975000D02*
X191560000Y-67925000D01*
X197060000Y-65075000D02*
X197060000Y-63825000D01*
X197060000Y-63825000D02*
X195810000Y-63825000D01*
%TO.C,U5*%
X183769000Y-95270000D02*
X187219000Y-95270000D01*
X183769000Y-95270000D02*
X181819000Y-95270000D01*
X183769000Y-90150000D02*
X185719000Y-90150000D01*
X183769000Y-90150000D02*
X181819000Y-90150000D01*
%TO.C,TP6*%
X192589000Y-86995000D02*
G75*
G03*
X192589000Y-86995000I-1200000J0D01*
G01*
%TO.C,C21*%
X177519000Y-91066252D02*
X177519000Y-90543748D01*
X176049000Y-91066252D02*
X176049000Y-90543748D01*
%TO.C,C20*%
X183395252Y-86895000D02*
X182872748Y-86895000D01*
X183395252Y-88365000D02*
X182872748Y-88365000D01*
%TO.C,U1*%
X159385000Y-95885000D02*
X133985000Y-95885000D01*
X133985000Y-75565000D02*
X159385000Y-75565000D01*
X159385000Y-75565000D02*
X159385000Y-95885000D01*
X133985000Y-95885000D02*
X133985000Y-75565000D01*
%TO.C,U3*%
X154432000Y-134483000D02*
X156382000Y-134483000D01*
X154432000Y-134483000D02*
X152482000Y-134483000D01*
X154432000Y-125613000D02*
X156382000Y-125613000D01*
X154432000Y-125613000D02*
X150982000Y-125613000D01*
%TO.C,R7*%
X149500000Y-137220936D02*
X149500000Y-138675064D01*
X147680000Y-137220936D02*
X147680000Y-138675064D01*
%TO.C,J5*%
X155000000Y-143570000D02*
X155000000Y-140910000D01*
X149860000Y-143570000D02*
X155000000Y-143570000D01*
X149860000Y-140910000D02*
X155000000Y-140910000D01*
X149860000Y-143570000D02*
X149860000Y-140910000D01*
X148590000Y-143570000D02*
X147260000Y-143570000D01*
X147260000Y-143570000D02*
X147260000Y-142240000D01*
%TO.C,C7*%
X154170748Y-122201000D02*
X154693252Y-122201000D01*
X154170748Y-123671000D02*
X154693252Y-123671000D01*
%TO.C,C6*%
X154170748Y-118899000D02*
X154693252Y-118899000D01*
X154170748Y-120369000D02*
X154693252Y-120369000D01*
%TO.C,U4*%
X133477000Y-107706000D02*
X131527000Y-107706000D01*
X133477000Y-107706000D02*
X135427000Y-107706000D01*
X133477000Y-116576000D02*
X131527000Y-116576000D01*
X133477000Y-116576000D02*
X136927000Y-116576000D01*
%TO.C,C10*%
X140435000Y-116959748D02*
X140435000Y-117482252D01*
X138965000Y-116959748D02*
X138965000Y-117482252D01*
%TO.C,C9*%
X131818748Y-118391000D02*
X132341252Y-118391000D01*
X131818748Y-119861000D02*
X132341252Y-119861000D01*
D13*
%TO.C,U2*%
X134460000Y-126760000D02*
G75*
G03*
X134460000Y-126760000I-125001J0D01*
G01*
D14*
X136859998Y-128080000D02*
G75*
G03*
X136859998Y-128080000I-299999J0D01*
G01*
D10*
X135559998Y-137080000D02*
X135559998Y-127080000D01*
X138759999Y-137080000D02*
X138759999Y-127080000D01*
X135559998Y-127080000D02*
X138759999Y-127080000D01*
X135559998Y-137080000D02*
X138759999Y-137080000D01*
D12*
%TO.C,R12*%
X157887936Y-72925000D02*
X158342064Y-72925000D01*
X157887936Y-74395000D02*
X158342064Y-74395000D01*
%TO.C,R11*%
X109447064Y-71625000D02*
X108992936Y-71625000D01*
X109447064Y-70155000D02*
X108992936Y-70155000D01*
%TO.C,R10*%
X129767064Y-74395000D02*
X129312936Y-74395000D01*
X129767064Y-72925000D02*
X129312936Y-72925000D01*
%TO.C,R9*%
X123417064Y-74395000D02*
X122962936Y-74395000D01*
X123417064Y-72925000D02*
X122962936Y-72925000D01*
%TO.C,D12*%
X159115000Y-69525000D02*
X156255000Y-69525000D01*
X156255000Y-69525000D02*
X156255000Y-71445000D01*
X156255000Y-71445000D02*
X159115000Y-71445000D01*
%TO.C,D11*%
X108220000Y-75509000D02*
X111080000Y-75509000D01*
X111080000Y-75509000D02*
X111080000Y-73589000D01*
X111080000Y-73589000D02*
X108220000Y-73589000D01*
%TO.C,D10*%
X128540000Y-71445000D02*
X131400000Y-71445000D01*
X131400000Y-71445000D02*
X131400000Y-69525000D01*
X131400000Y-69525000D02*
X128540000Y-69525000D01*
%TO.C,D9*%
X122190000Y-71445000D02*
X125050000Y-71445000D01*
X125050000Y-71445000D02*
X125050000Y-69525000D01*
X125050000Y-69525000D02*
X122190000Y-69525000D01*
%TO.C,TP5*%
X146996000Y-70612000D02*
G75*
G03*
X146996000Y-70612000I-1200000J0D01*
G01*
%TO.C,TP4*%
X183826000Y-70104000D02*
G75*
G03*
X183826000Y-70104000I-1200000J0D01*
G01*
%TO.C,TP3*%
X151060000Y-70612000D02*
G75*
G03*
X151060000Y-70612000I-1200000J0D01*
G01*
%TO.C,TP2*%
X155124000Y-70612000D02*
G75*
G03*
X155124000Y-70612000I-1200000J0D01*
G01*
%TO.C,TP1*%
X187636000Y-70104000D02*
G75*
G03*
X187636000Y-70104000I-1200000J0D01*
G01*
%TO.C,R4*%
X134577064Y-74395000D02*
X134122936Y-74395000D01*
X134577064Y-72925000D02*
X134122936Y-72925000D01*
%TO.C,R3*%
X139562064Y-74395000D02*
X139107936Y-74395000D01*
X139562064Y-72925000D02*
X139107936Y-72925000D01*
%TO.C,JP4*%
X152255000Y-108950000D02*
X152255000Y-106950000D01*
X156355000Y-108950000D02*
X152255000Y-108950000D01*
X156355000Y-106950000D02*
X156355000Y-108950000D01*
X152255000Y-106950000D02*
X156355000Y-106950000D01*
%TO.C,JP3*%
X143365000Y-108950000D02*
X143365000Y-106950000D01*
X147465000Y-108950000D02*
X143365000Y-108950000D01*
X147465000Y-106950000D02*
X147465000Y-108950000D01*
X143365000Y-106950000D02*
X147465000Y-106950000D01*
%TO.C,JP2*%
X152255000Y-102685000D02*
X152255000Y-100685000D01*
X156355000Y-102685000D02*
X152255000Y-102685000D01*
X156355000Y-100685000D02*
X156355000Y-102685000D01*
X152255000Y-100685000D02*
X156355000Y-100685000D01*
%TO.C,JP1*%
X143365000Y-102600000D02*
X143365000Y-100600000D01*
X147465000Y-102600000D02*
X143365000Y-102600000D01*
X147465000Y-100600000D02*
X147465000Y-102600000D01*
X143365000Y-100600000D02*
X147465000Y-100600000D01*
%TO.C,D4*%
X133366000Y-71318000D02*
X136226000Y-71318000D01*
X136226000Y-71318000D02*
X136226000Y-69398000D01*
X136226000Y-69398000D02*
X133366000Y-69398000D01*
%TO.C,D3*%
X138319000Y-71318000D02*
X141179000Y-71318000D01*
X141179000Y-71318000D02*
X141179000Y-69398000D01*
X141179000Y-69398000D02*
X138319000Y-69398000D01*
%TO.C,C5*%
X143610000Y-128008748D02*
X143610000Y-128531252D01*
X142140000Y-128008748D02*
X142140000Y-128531252D01*
%TO.C,C4*%
X130075000Y-138056252D02*
X130075000Y-137533748D01*
X131545000Y-138056252D02*
X131545000Y-137533748D01*
%TO.C,C3*%
X135226248Y-124360000D02*
X135748752Y-124360000D01*
X135226248Y-125830000D02*
X135748752Y-125830000D01*
%TO.C,C2*%
X131545000Y-132453748D02*
X131545000Y-132976252D01*
X130075000Y-132453748D02*
X130075000Y-132976252D01*
%TO.C,C1*%
X130075000Y-127896252D02*
X130075000Y-127373748D01*
X131545000Y-127896252D02*
X131545000Y-127373748D01*
%TO.C,R2*%
D10*
X181596380Y-110656666D02*
X181120190Y-110990000D01*
X181596380Y-111228095D02*
X180596380Y-111228095D01*
X180596380Y-110847142D01*
X180644000Y-110751904D01*
X180691619Y-110704285D01*
X180786857Y-110656666D01*
X180929714Y-110656666D01*
X181024952Y-110704285D01*
X181072571Y-110751904D01*
X181120190Y-110847142D01*
X181120190Y-111228095D01*
X180691619Y-110275714D02*
X180644000Y-110228095D01*
X180596380Y-110132857D01*
X180596380Y-109894761D01*
X180644000Y-109799523D01*
X180691619Y-109751904D01*
X180786857Y-109704285D01*
X180882095Y-109704285D01*
X181024952Y-109751904D01*
X181596380Y-110323333D01*
X181596380Y-109704285D01*
%TO.C,R1*%
X185660380Y-110656666D02*
X185184190Y-110990000D01*
X185660380Y-111228095D02*
X184660380Y-111228095D01*
X184660380Y-110847142D01*
X184708000Y-110751904D01*
X184755619Y-110704285D01*
X184850857Y-110656666D01*
X184993714Y-110656666D01*
X185088952Y-110704285D01*
X185136571Y-110751904D01*
X185184190Y-110847142D01*
X185184190Y-111228095D01*
X185660380Y-109704285D02*
X185660380Y-110275714D01*
X185660380Y-109990000D02*
X184660380Y-109990000D01*
X184803238Y-110085238D01*
X184898476Y-110180476D01*
X184946095Y-110275714D01*
%TO.C,JP6*%
X184646380Y-117927333D02*
X185360666Y-117927333D01*
X185503523Y-117974952D01*
X185598761Y-118070190D01*
X185646380Y-118213047D01*
X185646380Y-118308285D01*
X185646380Y-117451142D02*
X184646380Y-117451142D01*
X184646380Y-117070190D01*
X184694000Y-116974952D01*
X184741619Y-116927333D01*
X184836857Y-116879714D01*
X184979714Y-116879714D01*
X185074952Y-116927333D01*
X185122571Y-116974952D01*
X185170190Y-117070190D01*
X185170190Y-117451142D01*
X184646380Y-116022571D02*
X184646380Y-116213047D01*
X184694000Y-116308285D01*
X184741619Y-116355904D01*
X184884476Y-116451142D01*
X185074952Y-116498761D01*
X185455904Y-116498761D01*
X185551142Y-116451142D01*
X185598761Y-116403523D01*
X185646380Y-116308285D01*
X185646380Y-116117809D01*
X185598761Y-116022571D01*
X185551142Y-115974952D01*
X185455904Y-115927333D01*
X185217809Y-115927333D01*
X185122571Y-115974952D01*
X185074952Y-116022571D01*
X185027333Y-116117809D01*
X185027333Y-116308285D01*
X185074952Y-116403523D01*
X185122571Y-116451142D01*
X185217809Y-116498761D01*
X183846380Y-114208285D02*
X183846380Y-114779714D01*
X183846380Y-114494000D02*
X182846380Y-114494000D01*
X182989238Y-114589238D01*
X183084476Y-114684476D01*
X183132095Y-114779714D01*
X182846380Y-120027333D02*
X182846380Y-119408285D01*
X183227333Y-119741619D01*
X183227333Y-119598761D01*
X183274952Y-119503523D01*
X183322571Y-119455904D01*
X183417809Y-119408285D01*
X183655904Y-119408285D01*
X183751142Y-119455904D01*
X183798761Y-119503523D01*
X183846380Y-119598761D01*
X183846380Y-119884476D01*
X183798761Y-119979714D01*
X183751142Y-120027333D01*
%TO.C,JP5*%
X180576380Y-117927333D02*
X181290666Y-117927333D01*
X181433523Y-117974952D01*
X181528761Y-118070190D01*
X181576380Y-118213047D01*
X181576380Y-118308285D01*
X181576380Y-117451142D02*
X180576380Y-117451142D01*
X180576380Y-117070190D01*
X180624000Y-116974952D01*
X180671619Y-116927333D01*
X180766857Y-116879714D01*
X180909714Y-116879714D01*
X181004952Y-116927333D01*
X181052571Y-116974952D01*
X181100190Y-117070190D01*
X181100190Y-117451142D01*
X180576380Y-115974952D02*
X180576380Y-116451142D01*
X181052571Y-116498761D01*
X181004952Y-116451142D01*
X180957333Y-116355904D01*
X180957333Y-116117809D01*
X181004952Y-116022571D01*
X181052571Y-115974952D01*
X181147809Y-115927333D01*
X181385904Y-115927333D01*
X181481142Y-115974952D01*
X181528761Y-116022571D01*
X181576380Y-116117809D01*
X181576380Y-116355904D01*
X181528761Y-116451142D01*
X181481142Y-116498761D01*
X179776380Y-114208285D02*
X179776380Y-114779714D01*
X179776380Y-114494000D02*
X178776380Y-114494000D01*
X178919238Y-114589238D01*
X179014476Y-114684476D01*
X179062095Y-114779714D01*
X178776380Y-120027333D02*
X178776380Y-119408285D01*
X179157333Y-119741619D01*
X179157333Y-119598761D01*
X179204952Y-119503523D01*
X179252571Y-119455904D01*
X179347809Y-119408285D01*
X179585904Y-119408285D01*
X179681142Y-119455904D01*
X179728761Y-119503523D01*
X179776380Y-119598761D01*
X179776380Y-119884476D01*
X179728761Y-119979714D01*
X179681142Y-120027333D01*
%TO.C,J6*%
X195032380Y-73993333D02*
X195746666Y-73993333D01*
X195889523Y-74040952D01*
X195984761Y-74136190D01*
X196032380Y-74279047D01*
X196032380Y-74374285D01*
X195032380Y-73088571D02*
X195032380Y-73279047D01*
X195080000Y-73374285D01*
X195127619Y-73421904D01*
X195270476Y-73517142D01*
X195460952Y-73564761D01*
X195841904Y-73564761D01*
X195937142Y-73517142D01*
X195984761Y-73469523D01*
X196032380Y-73374285D01*
X196032380Y-73183809D01*
X195984761Y-73088571D01*
X195937142Y-73040952D01*
X195841904Y-72993333D01*
X195603809Y-72993333D01*
X195508571Y-73040952D01*
X195460952Y-73088571D01*
X195413333Y-73183809D01*
X195413333Y-73374285D01*
X195460952Y-73469523D01*
X195508571Y-73517142D01*
X195603809Y-73564761D01*
%TO.C,U5*%
X183007095Y-95562380D02*
X183007095Y-96371904D01*
X183054714Y-96467142D01*
X183102333Y-96514761D01*
X183197571Y-96562380D01*
X183388047Y-96562380D01*
X183483285Y-96514761D01*
X183530904Y-96467142D01*
X183578523Y-96371904D01*
X183578523Y-95562380D01*
X184530904Y-95562380D02*
X184054714Y-95562380D01*
X184007095Y-96038571D01*
X184054714Y-95990952D01*
X184149952Y-95943333D01*
X184388047Y-95943333D01*
X184483285Y-95990952D01*
X184530904Y-96038571D01*
X184578523Y-96133809D01*
X184578523Y-96371904D01*
X184530904Y-96467142D01*
X184483285Y-96514761D01*
X184388047Y-96562380D01*
X184149952Y-96562380D01*
X184054714Y-96514761D01*
X184007095Y-96467142D01*
%TO.C,TP6*%
X190127095Y-84449380D02*
X190698523Y-84449380D01*
X190412809Y-85449380D02*
X190412809Y-84449380D01*
X191031857Y-85449380D02*
X191031857Y-84449380D01*
X191412809Y-84449380D01*
X191508047Y-84497000D01*
X191555666Y-84544619D01*
X191603285Y-84639857D01*
X191603285Y-84782714D01*
X191555666Y-84877952D01*
X191508047Y-84925571D01*
X191412809Y-84973190D01*
X191031857Y-84973190D01*
X192460428Y-84449380D02*
X192269952Y-84449380D01*
X192174714Y-84497000D01*
X192127095Y-84544619D01*
X192031857Y-84687476D01*
X191984238Y-84877952D01*
X191984238Y-85258904D01*
X192031857Y-85354142D01*
X192079476Y-85401761D01*
X192174714Y-85449380D01*
X192365190Y-85449380D01*
X192460428Y-85401761D01*
X192508047Y-85354142D01*
X192555666Y-85258904D01*
X192555666Y-85020809D01*
X192508047Y-84925571D01*
X192460428Y-84877952D01*
X192365190Y-84830333D01*
X192174714Y-84830333D01*
X192079476Y-84877952D01*
X192031857Y-84925571D01*
X191984238Y-85020809D01*
%TO.C,C21*%
X178919142Y-91447857D02*
X178966761Y-91495476D01*
X179014380Y-91638333D01*
X179014380Y-91733571D01*
X178966761Y-91876428D01*
X178871523Y-91971666D01*
X178776285Y-92019285D01*
X178585809Y-92066904D01*
X178442952Y-92066904D01*
X178252476Y-92019285D01*
X178157238Y-91971666D01*
X178062000Y-91876428D01*
X178014380Y-91733571D01*
X178014380Y-91638333D01*
X178062000Y-91495476D01*
X178109619Y-91447857D01*
X178109619Y-91066904D02*
X178062000Y-91019285D01*
X178014380Y-90924047D01*
X178014380Y-90685952D01*
X178062000Y-90590714D01*
X178109619Y-90543095D01*
X178204857Y-90495476D01*
X178300095Y-90495476D01*
X178442952Y-90543095D01*
X179014380Y-91114523D01*
X179014380Y-90495476D01*
X179014380Y-89543095D02*
X179014380Y-90114523D01*
X179014380Y-89828809D02*
X178014380Y-89828809D01*
X178157238Y-89924047D01*
X178252476Y-90019285D01*
X178300095Y-90114523D01*
%TO.C,C20*%
X182491142Y-86082142D02*
X182443523Y-86129761D01*
X182300666Y-86177380D01*
X182205428Y-86177380D01*
X182062571Y-86129761D01*
X181967333Y-86034523D01*
X181919714Y-85939285D01*
X181872095Y-85748809D01*
X181872095Y-85605952D01*
X181919714Y-85415476D01*
X181967333Y-85320238D01*
X182062571Y-85225000D01*
X182205428Y-85177380D01*
X182300666Y-85177380D01*
X182443523Y-85225000D01*
X182491142Y-85272619D01*
X182872095Y-85272619D02*
X182919714Y-85225000D01*
X183014952Y-85177380D01*
X183253047Y-85177380D01*
X183348285Y-85225000D01*
X183395904Y-85272619D01*
X183443523Y-85367857D01*
X183443523Y-85463095D01*
X183395904Y-85605952D01*
X182824476Y-86177380D01*
X183443523Y-86177380D01*
X184062571Y-85177380D02*
X184157809Y-85177380D01*
X184253047Y-85225000D01*
X184300666Y-85272619D01*
X184348285Y-85367857D01*
X184395904Y-85558333D01*
X184395904Y-85796428D01*
X184348285Y-85986904D01*
X184300666Y-86082142D01*
X184253047Y-86129761D01*
X184157809Y-86177380D01*
X184062571Y-86177380D01*
X183967333Y-86129761D01*
X183919714Y-86082142D01*
X183872095Y-85986904D01*
X183824476Y-85796428D01*
X183824476Y-85558333D01*
X183872095Y-85367857D01*
X183919714Y-85272619D01*
X183967333Y-85225000D01*
X184062571Y-85177380D01*
%TO.C,U1*%
X145923095Y-85677380D02*
X145923095Y-86486904D01*
X145970714Y-86582142D01*
X146018333Y-86629761D01*
X146113571Y-86677380D01*
X146304047Y-86677380D01*
X146399285Y-86629761D01*
X146446904Y-86582142D01*
X146494523Y-86486904D01*
X146494523Y-85677380D01*
X147494523Y-86677380D02*
X146923095Y-86677380D01*
X147208809Y-86677380D02*
X147208809Y-85677380D01*
X147113571Y-85820238D01*
X147018333Y-85915476D01*
X146923095Y-85963095D01*
%TO.C,U3*%
X153670095Y-124220380D02*
X153670095Y-125029904D01*
X153717714Y-125125142D01*
X153765333Y-125172761D01*
X153860571Y-125220380D01*
X154051047Y-125220380D01*
X154146285Y-125172761D01*
X154193904Y-125125142D01*
X154241523Y-125029904D01*
X154241523Y-124220380D01*
X154622476Y-124220380D02*
X155241523Y-124220380D01*
X154908190Y-124601333D01*
X155051047Y-124601333D01*
X155146285Y-124648952D01*
X155193904Y-124696571D01*
X155241523Y-124791809D01*
X155241523Y-125029904D01*
X155193904Y-125125142D01*
X155146285Y-125172761D01*
X155051047Y-125220380D01*
X154765333Y-125220380D01*
X154670095Y-125172761D01*
X154622476Y-125125142D01*
%TO.C,R7*%
X150862380Y-138114666D02*
X150386190Y-138448000D01*
X150862380Y-138686095D02*
X149862380Y-138686095D01*
X149862380Y-138305142D01*
X149910000Y-138209904D01*
X149957619Y-138162285D01*
X150052857Y-138114666D01*
X150195714Y-138114666D01*
X150290952Y-138162285D01*
X150338571Y-138209904D01*
X150386190Y-138305142D01*
X150386190Y-138686095D01*
X149862380Y-137781333D02*
X149862380Y-137114666D01*
X150862380Y-137543238D01*
%TO.C,J5*%
X145712380Y-142573333D02*
X146426666Y-142573333D01*
X146569523Y-142620952D01*
X146664761Y-142716190D01*
X146712380Y-142859047D01*
X146712380Y-142954285D01*
X145712380Y-141620952D02*
X145712380Y-142097142D01*
X146188571Y-142144761D01*
X146140952Y-142097142D01*
X146093333Y-142001904D01*
X146093333Y-141763809D01*
X146140952Y-141668571D01*
X146188571Y-141620952D01*
X146283809Y-141573333D01*
X146521904Y-141573333D01*
X146617142Y-141620952D01*
X146664761Y-141668571D01*
X146712380Y-141763809D01*
X146712380Y-142001904D01*
X146664761Y-142097142D01*
X146617142Y-142144761D01*
%TO.C,C7*%
X154265333Y-121613142D02*
X154217714Y-121660761D01*
X154074857Y-121708380D01*
X153979619Y-121708380D01*
X153836761Y-121660761D01*
X153741523Y-121565523D01*
X153693904Y-121470285D01*
X153646285Y-121279809D01*
X153646285Y-121136952D01*
X153693904Y-120946476D01*
X153741523Y-120851238D01*
X153836761Y-120756000D01*
X153979619Y-120708380D01*
X154074857Y-120708380D01*
X154217714Y-120756000D01*
X154265333Y-120803619D01*
X154598666Y-120708380D02*
X155265333Y-120708380D01*
X154836761Y-121708380D01*
%TO.C,C6*%
X154265333Y-118311142D02*
X154217714Y-118358761D01*
X154074857Y-118406380D01*
X153979619Y-118406380D01*
X153836761Y-118358761D01*
X153741523Y-118263523D01*
X153693904Y-118168285D01*
X153646285Y-117977809D01*
X153646285Y-117834952D01*
X153693904Y-117644476D01*
X153741523Y-117549238D01*
X153836761Y-117454000D01*
X153979619Y-117406380D01*
X154074857Y-117406380D01*
X154217714Y-117454000D01*
X154265333Y-117501619D01*
X155122476Y-117406380D02*
X154932000Y-117406380D01*
X154836761Y-117454000D01*
X154789142Y-117501619D01*
X154693904Y-117644476D01*
X154646285Y-117834952D01*
X154646285Y-118215904D01*
X154693904Y-118311142D01*
X154741523Y-118358761D01*
X154836761Y-118406380D01*
X155027238Y-118406380D01*
X155122476Y-118358761D01*
X155170095Y-118311142D01*
X155217714Y-118215904D01*
X155217714Y-117977809D01*
X155170095Y-117882571D01*
X155122476Y-117834952D01*
X155027238Y-117787333D01*
X154836761Y-117787333D01*
X154741523Y-117834952D01*
X154693904Y-117882571D01*
X154646285Y-117977809D01*
%TO.C,U4*%
X132715095Y-116873380D02*
X132715095Y-117682904D01*
X132762714Y-117778142D01*
X132810333Y-117825761D01*
X132905571Y-117873380D01*
X133096047Y-117873380D01*
X133191285Y-117825761D01*
X133238904Y-117778142D01*
X133286523Y-117682904D01*
X133286523Y-116873380D01*
X134191285Y-117206714D02*
X134191285Y-117873380D01*
X133953190Y-116825761D02*
X133715095Y-117540047D01*
X134334142Y-117540047D01*
%TO.C,C10*%
X141737142Y-117863857D02*
X141784761Y-117911476D01*
X141832380Y-118054333D01*
X141832380Y-118149571D01*
X141784761Y-118292428D01*
X141689523Y-118387666D01*
X141594285Y-118435285D01*
X141403809Y-118482904D01*
X141260952Y-118482904D01*
X141070476Y-118435285D01*
X140975238Y-118387666D01*
X140880000Y-118292428D01*
X140832380Y-118149571D01*
X140832380Y-118054333D01*
X140880000Y-117911476D01*
X140927619Y-117863857D01*
X141832380Y-116911476D02*
X141832380Y-117482904D01*
X141832380Y-117197190D02*
X140832380Y-117197190D01*
X140975238Y-117292428D01*
X141070476Y-117387666D01*
X141118095Y-117482904D01*
X140832380Y-116292428D02*
X140832380Y-116197190D01*
X140880000Y-116101952D01*
X140927619Y-116054333D01*
X141022857Y-116006714D01*
X141213333Y-115959095D01*
X141451428Y-115959095D01*
X141641904Y-116006714D01*
X141737142Y-116054333D01*
X141784761Y-116101952D01*
X141832380Y-116197190D01*
X141832380Y-116292428D01*
X141784761Y-116387666D01*
X141737142Y-116435285D01*
X141641904Y-116482904D01*
X141451428Y-116530523D01*
X141213333Y-116530523D01*
X141022857Y-116482904D01*
X140927619Y-116435285D01*
X140880000Y-116387666D01*
X140832380Y-116292428D01*
%TO.C,C9*%
X131913333Y-121261142D02*
X131865714Y-121308761D01*
X131722857Y-121356380D01*
X131627619Y-121356380D01*
X131484761Y-121308761D01*
X131389523Y-121213523D01*
X131341904Y-121118285D01*
X131294285Y-120927809D01*
X131294285Y-120784952D01*
X131341904Y-120594476D01*
X131389523Y-120499238D01*
X131484761Y-120404000D01*
X131627619Y-120356380D01*
X131722857Y-120356380D01*
X131865714Y-120404000D01*
X131913333Y-120451619D01*
X132389523Y-121356380D02*
X132580000Y-121356380D01*
X132675238Y-121308761D01*
X132722857Y-121261142D01*
X132818095Y-121118285D01*
X132865714Y-120927809D01*
X132865714Y-120546857D01*
X132818095Y-120451619D01*
X132770476Y-120404000D01*
X132675238Y-120356380D01*
X132484761Y-120356380D01*
X132389523Y-120404000D01*
X132341904Y-120451619D01*
X132294285Y-120546857D01*
X132294285Y-120784952D01*
X132341904Y-120880190D01*
X132389523Y-120927809D01*
X132484761Y-120975428D01*
X132675238Y-120975428D01*
X132770476Y-120927809D01*
X132818095Y-120880190D01*
X132865714Y-120784952D01*
%TO.C,U2*%
X139987976Y-125926904D02*
X139987976Y-126574524D01*
X140026071Y-126650714D01*
X140064167Y-126688809D01*
X140140357Y-126726905D01*
X140292738Y-126726905D01*
X140368929Y-126688809D01*
X140407024Y-126650714D01*
X140445119Y-126574524D01*
X140445119Y-125926904D01*
X140787977Y-126003094D02*
X140826072Y-125964999D01*
X140902263Y-125926904D01*
X141092739Y-125926904D01*
X141168930Y-125964999D01*
X141207025Y-126003094D01*
X141245120Y-126079285D01*
X141245120Y-126155475D01*
X141207025Y-126269761D01*
X140749882Y-126726905D01*
X141245120Y-126726905D01*
X137734523Y-136071428D02*
X136464523Y-136071428D01*
X137371666Y-135648095D01*
X136464523Y-135224761D01*
X137734523Y-135224761D01*
X137371666Y-134680476D02*
X137371666Y-134075714D01*
X137734523Y-134801428D02*
X136464523Y-134378095D01*
X137734523Y-133954761D01*
X136464523Y-133652380D02*
X137734523Y-132805714D01*
X136464523Y-132805714D02*
X137734523Y-133652380D01*
X136464523Y-132442857D02*
X136464523Y-131656666D01*
X136948333Y-132080000D01*
X136948333Y-131898571D01*
X137008809Y-131777619D01*
X137069285Y-131717142D01*
X137190238Y-131656666D01*
X137492619Y-131656666D01*
X137613571Y-131717142D01*
X137674047Y-131777619D01*
X137734523Y-131898571D01*
X137734523Y-132261428D01*
X137674047Y-132382380D01*
X137613571Y-132442857D01*
X136585476Y-131172857D02*
X136525000Y-131112380D01*
X136464523Y-130991428D01*
X136464523Y-130689047D01*
X136525000Y-130568095D01*
X136585476Y-130507619D01*
X136706428Y-130447142D01*
X136827380Y-130447142D01*
X137008809Y-130507619D01*
X137734523Y-131233333D01*
X137734523Y-130447142D01*
X136464523Y-130023809D02*
X136464523Y-129237619D01*
X136948333Y-129660952D01*
X136948333Y-129479523D01*
X137008809Y-129358571D01*
X137069285Y-129298095D01*
X137190238Y-129237619D01*
X137492619Y-129237619D01*
X137613571Y-129298095D01*
X137674047Y-129358571D01*
X137734523Y-129479523D01*
X137734523Y-129842380D01*
X137674047Y-129963333D01*
X137613571Y-130023809D01*
X136585476Y-128753809D02*
X136525000Y-128693333D01*
X136464523Y-128572380D01*
X136464523Y-128270000D01*
X136525000Y-128149047D01*
X136585476Y-128088571D01*
X136706428Y-128028095D01*
X136827380Y-128028095D01*
X137008809Y-128088571D01*
X137734523Y-128814285D01*
X137734523Y-128028095D01*
%TO.C,R12*%
X157472142Y-75763380D02*
X157138809Y-75287190D01*
X156900714Y-75763380D02*
X156900714Y-74763380D01*
X157281666Y-74763380D01*
X157376904Y-74811000D01*
X157424523Y-74858619D01*
X157472142Y-74953857D01*
X157472142Y-75096714D01*
X157424523Y-75191952D01*
X157376904Y-75239571D01*
X157281666Y-75287190D01*
X156900714Y-75287190D01*
X158424523Y-75763380D02*
X157853095Y-75763380D01*
X158138809Y-75763380D02*
X158138809Y-74763380D01*
X158043571Y-74906238D01*
X157948333Y-75001476D01*
X157853095Y-75049095D01*
X158805476Y-74858619D02*
X158853095Y-74811000D01*
X158948333Y-74763380D01*
X159186428Y-74763380D01*
X159281666Y-74811000D01*
X159329285Y-74858619D01*
X159376904Y-74953857D01*
X159376904Y-75049095D01*
X159329285Y-75191952D01*
X158757857Y-75763380D01*
X159376904Y-75763380D01*
%TO.C,R11*%
X108577142Y-72992380D02*
X108243809Y-72516190D01*
X108005714Y-72992380D02*
X108005714Y-71992380D01*
X108386666Y-71992380D01*
X108481904Y-72040000D01*
X108529523Y-72087619D01*
X108577142Y-72182857D01*
X108577142Y-72325714D01*
X108529523Y-72420952D01*
X108481904Y-72468571D01*
X108386666Y-72516190D01*
X108005714Y-72516190D01*
X109529523Y-72992380D02*
X108958095Y-72992380D01*
X109243809Y-72992380D02*
X109243809Y-71992380D01*
X109148571Y-72135238D01*
X109053333Y-72230476D01*
X108958095Y-72278095D01*
X110481904Y-72992380D02*
X109910476Y-72992380D01*
X110196190Y-72992380D02*
X110196190Y-71992380D01*
X110100952Y-72135238D01*
X110005714Y-72230476D01*
X109910476Y-72278095D01*
%TO.C,R10*%
X128897142Y-75762380D02*
X128563809Y-75286190D01*
X128325714Y-75762380D02*
X128325714Y-74762380D01*
X128706666Y-74762380D01*
X128801904Y-74810000D01*
X128849523Y-74857619D01*
X128897142Y-74952857D01*
X128897142Y-75095714D01*
X128849523Y-75190952D01*
X128801904Y-75238571D01*
X128706666Y-75286190D01*
X128325714Y-75286190D01*
X129849523Y-75762380D02*
X129278095Y-75762380D01*
X129563809Y-75762380D02*
X129563809Y-74762380D01*
X129468571Y-74905238D01*
X129373333Y-75000476D01*
X129278095Y-75048095D01*
X130468571Y-74762380D02*
X130563809Y-74762380D01*
X130659047Y-74810000D01*
X130706666Y-74857619D01*
X130754285Y-74952857D01*
X130801904Y-75143333D01*
X130801904Y-75381428D01*
X130754285Y-75571904D01*
X130706666Y-75667142D01*
X130659047Y-75714761D01*
X130563809Y-75762380D01*
X130468571Y-75762380D01*
X130373333Y-75714761D01*
X130325714Y-75667142D01*
X130278095Y-75571904D01*
X130230476Y-75381428D01*
X130230476Y-75143333D01*
X130278095Y-74952857D01*
X130325714Y-74857619D01*
X130373333Y-74810000D01*
X130468571Y-74762380D01*
%TO.C,R9*%
X123023333Y-75762380D02*
X122690000Y-75286190D01*
X122451904Y-75762380D02*
X122451904Y-74762380D01*
X122832857Y-74762380D01*
X122928095Y-74810000D01*
X122975714Y-74857619D01*
X123023333Y-74952857D01*
X123023333Y-75095714D01*
X122975714Y-75190952D01*
X122928095Y-75238571D01*
X122832857Y-75286190D01*
X122451904Y-75286190D01*
X123499523Y-75762380D02*
X123690000Y-75762380D01*
X123785238Y-75714761D01*
X123832857Y-75667142D01*
X123928095Y-75524285D01*
X123975714Y-75333809D01*
X123975714Y-74952857D01*
X123928095Y-74857619D01*
X123880476Y-74810000D01*
X123785238Y-74762380D01*
X123594761Y-74762380D01*
X123499523Y-74810000D01*
X123451904Y-74857619D01*
X123404285Y-74952857D01*
X123404285Y-75190952D01*
X123451904Y-75286190D01*
X123499523Y-75333809D01*
X123594761Y-75381428D01*
X123785238Y-75381428D01*
X123880476Y-75333809D01*
X123928095Y-75286190D01*
X123975714Y-75190952D01*
%TO.C,D12*%
X156900714Y-72588380D02*
X156900714Y-71588380D01*
X157138809Y-71588380D01*
X157281666Y-71636000D01*
X157376904Y-71731238D01*
X157424523Y-71826476D01*
X157472142Y-72016952D01*
X157472142Y-72159809D01*
X157424523Y-72350285D01*
X157376904Y-72445523D01*
X157281666Y-72540761D01*
X157138809Y-72588380D01*
X156900714Y-72588380D01*
X158424523Y-72588380D02*
X157853095Y-72588380D01*
X158138809Y-72588380D02*
X158138809Y-71588380D01*
X158043571Y-71731238D01*
X157948333Y-71826476D01*
X157853095Y-71874095D01*
X158805476Y-71683619D02*
X158853095Y-71636000D01*
X158948333Y-71588380D01*
X159186428Y-71588380D01*
X159281666Y-71636000D01*
X159329285Y-71683619D01*
X159376904Y-71778857D01*
X159376904Y-71874095D01*
X159329285Y-72016952D01*
X158757857Y-72588380D01*
X159376904Y-72588380D01*
%TO.C,D11*%
X108005714Y-76651380D02*
X108005714Y-75651380D01*
X108243809Y-75651380D01*
X108386666Y-75699000D01*
X108481904Y-75794238D01*
X108529523Y-75889476D01*
X108577142Y-76079952D01*
X108577142Y-76222809D01*
X108529523Y-76413285D01*
X108481904Y-76508523D01*
X108386666Y-76603761D01*
X108243809Y-76651380D01*
X108005714Y-76651380D01*
X109529523Y-76651380D02*
X108958095Y-76651380D01*
X109243809Y-76651380D02*
X109243809Y-75651380D01*
X109148571Y-75794238D01*
X109053333Y-75889476D01*
X108958095Y-75937095D01*
X110481904Y-76651380D02*
X109910476Y-76651380D01*
X110196190Y-76651380D02*
X110196190Y-75651380D01*
X110100952Y-75794238D01*
X110005714Y-75889476D01*
X109910476Y-75937095D01*
%TO.C,D10*%
X128325714Y-72587380D02*
X128325714Y-71587380D01*
X128563809Y-71587380D01*
X128706666Y-71635000D01*
X128801904Y-71730238D01*
X128849523Y-71825476D01*
X128897142Y-72015952D01*
X128897142Y-72158809D01*
X128849523Y-72349285D01*
X128801904Y-72444523D01*
X128706666Y-72539761D01*
X128563809Y-72587380D01*
X128325714Y-72587380D01*
X129849523Y-72587380D02*
X129278095Y-72587380D01*
X129563809Y-72587380D02*
X129563809Y-71587380D01*
X129468571Y-71730238D01*
X129373333Y-71825476D01*
X129278095Y-71873095D01*
X130468571Y-71587380D02*
X130563809Y-71587380D01*
X130659047Y-71635000D01*
X130706666Y-71682619D01*
X130754285Y-71777857D01*
X130801904Y-71968333D01*
X130801904Y-72206428D01*
X130754285Y-72396904D01*
X130706666Y-72492142D01*
X130659047Y-72539761D01*
X130563809Y-72587380D01*
X130468571Y-72587380D01*
X130373333Y-72539761D01*
X130325714Y-72492142D01*
X130278095Y-72396904D01*
X130230476Y-72206428D01*
X130230476Y-71968333D01*
X130278095Y-71777857D01*
X130325714Y-71682619D01*
X130373333Y-71635000D01*
X130468571Y-71587380D01*
%TO.C,D9*%
X122451904Y-72587380D02*
X122451904Y-71587380D01*
X122690000Y-71587380D01*
X122832857Y-71635000D01*
X122928095Y-71730238D01*
X122975714Y-71825476D01*
X123023333Y-72015952D01*
X123023333Y-72158809D01*
X122975714Y-72349285D01*
X122928095Y-72444523D01*
X122832857Y-72539761D01*
X122690000Y-72587380D01*
X122451904Y-72587380D01*
X123499523Y-72587380D02*
X123690000Y-72587380D01*
X123785238Y-72539761D01*
X123832857Y-72492142D01*
X123928095Y-72349285D01*
X123975714Y-72158809D01*
X123975714Y-71777857D01*
X123928095Y-71682619D01*
X123880476Y-71635000D01*
X123785238Y-71587380D01*
X123594761Y-71587380D01*
X123499523Y-71635000D01*
X123451904Y-71682619D01*
X123404285Y-71777857D01*
X123404285Y-72015952D01*
X123451904Y-72111190D01*
X123499523Y-72158809D01*
X123594761Y-72206428D01*
X123785238Y-72206428D01*
X123880476Y-72158809D01*
X123928095Y-72111190D01*
X123975714Y-72015952D01*
%TO.C,TP5*%
X144534095Y-68066380D02*
X145105523Y-68066380D01*
X144819809Y-69066380D02*
X144819809Y-68066380D01*
X145438857Y-69066380D02*
X145438857Y-68066380D01*
X145819809Y-68066380D01*
X145915047Y-68114000D01*
X145962666Y-68161619D01*
X146010285Y-68256857D01*
X146010285Y-68399714D01*
X145962666Y-68494952D01*
X145915047Y-68542571D01*
X145819809Y-68590190D01*
X145438857Y-68590190D01*
X146915047Y-68066380D02*
X146438857Y-68066380D01*
X146391238Y-68542571D01*
X146438857Y-68494952D01*
X146534095Y-68447333D01*
X146772190Y-68447333D01*
X146867428Y-68494952D01*
X146915047Y-68542571D01*
X146962666Y-68637809D01*
X146962666Y-68875904D01*
X146915047Y-68971142D01*
X146867428Y-69018761D01*
X146772190Y-69066380D01*
X146534095Y-69066380D01*
X146438857Y-69018761D01*
X146391238Y-68971142D01*
%TO.C,TP4*%
X181364095Y-67558380D02*
X181935523Y-67558380D01*
X181649809Y-68558380D02*
X181649809Y-67558380D01*
X182268857Y-68558380D02*
X182268857Y-67558380D01*
X182649809Y-67558380D01*
X182745047Y-67606000D01*
X182792666Y-67653619D01*
X182840285Y-67748857D01*
X182840285Y-67891714D01*
X182792666Y-67986952D01*
X182745047Y-68034571D01*
X182649809Y-68082190D01*
X182268857Y-68082190D01*
X183697428Y-67891714D02*
X183697428Y-68558380D01*
X183459333Y-67510761D02*
X183221238Y-68225047D01*
X183840285Y-68225047D01*
%TO.C,TP3*%
X148598095Y-68066380D02*
X149169523Y-68066380D01*
X148883809Y-69066380D02*
X148883809Y-68066380D01*
X149502857Y-69066380D02*
X149502857Y-68066380D01*
X149883809Y-68066380D01*
X149979047Y-68114000D01*
X150026666Y-68161619D01*
X150074285Y-68256857D01*
X150074285Y-68399714D01*
X150026666Y-68494952D01*
X149979047Y-68542571D01*
X149883809Y-68590190D01*
X149502857Y-68590190D01*
X150407619Y-68066380D02*
X151026666Y-68066380D01*
X150693333Y-68447333D01*
X150836190Y-68447333D01*
X150931428Y-68494952D01*
X150979047Y-68542571D01*
X151026666Y-68637809D01*
X151026666Y-68875904D01*
X150979047Y-68971142D01*
X150931428Y-69018761D01*
X150836190Y-69066380D01*
X150550476Y-69066380D01*
X150455238Y-69018761D01*
X150407619Y-68971142D01*
%TO.C,TP2*%
X152662095Y-68066380D02*
X153233523Y-68066380D01*
X152947809Y-69066380D02*
X152947809Y-68066380D01*
X153566857Y-69066380D02*
X153566857Y-68066380D01*
X153947809Y-68066380D01*
X154043047Y-68114000D01*
X154090666Y-68161619D01*
X154138285Y-68256857D01*
X154138285Y-68399714D01*
X154090666Y-68494952D01*
X154043047Y-68542571D01*
X153947809Y-68590190D01*
X153566857Y-68590190D01*
X154519238Y-68161619D02*
X154566857Y-68114000D01*
X154662095Y-68066380D01*
X154900190Y-68066380D01*
X154995428Y-68114000D01*
X155043047Y-68161619D01*
X155090666Y-68256857D01*
X155090666Y-68352095D01*
X155043047Y-68494952D01*
X154471619Y-69066380D01*
X155090666Y-69066380D01*
%TO.C,TP1*%
X185174095Y-67558380D02*
X185745523Y-67558380D01*
X185459809Y-68558380D02*
X185459809Y-67558380D01*
X186078857Y-68558380D02*
X186078857Y-67558380D01*
X186459809Y-67558380D01*
X186555047Y-67606000D01*
X186602666Y-67653619D01*
X186650285Y-67748857D01*
X186650285Y-67891714D01*
X186602666Y-67986952D01*
X186555047Y-68034571D01*
X186459809Y-68082190D01*
X186078857Y-68082190D01*
X187602666Y-68558380D02*
X187031238Y-68558380D01*
X187316952Y-68558380D02*
X187316952Y-67558380D01*
X187221714Y-67701238D01*
X187126476Y-67796476D01*
X187031238Y-67844095D01*
%TO.C,M8*%
X191057476Y-137512380D02*
X191057476Y-136512380D01*
X191390809Y-137226666D01*
X191724142Y-136512380D01*
X191724142Y-137512380D01*
X192343190Y-136940952D02*
X192247952Y-136893333D01*
X192200333Y-136845714D01*
X192152714Y-136750476D01*
X192152714Y-136702857D01*
X192200333Y-136607619D01*
X192247952Y-136560000D01*
X192343190Y-136512380D01*
X192533666Y-136512380D01*
X192628904Y-136560000D01*
X192676523Y-136607619D01*
X192724142Y-136702857D01*
X192724142Y-136750476D01*
X192676523Y-136845714D01*
X192628904Y-136893333D01*
X192533666Y-136940952D01*
X192343190Y-136940952D01*
X192247952Y-136988571D01*
X192200333Y-137036190D01*
X192152714Y-137131428D01*
X192152714Y-137321904D01*
X192200333Y-137417142D01*
X192247952Y-137464761D01*
X192343190Y-137512380D01*
X192533666Y-137512380D01*
X192628904Y-137464761D01*
X192676523Y-137417142D01*
X192724142Y-137321904D01*
X192724142Y-137131428D01*
X192676523Y-137036190D01*
X192628904Y-136988571D01*
X192533666Y-136940952D01*
%TO.C,M7*%
X187448476Y-75896380D02*
X187448476Y-74896380D01*
X187781809Y-75610666D01*
X188115142Y-74896380D01*
X188115142Y-75896380D01*
X188496095Y-74896380D02*
X189162761Y-74896380D01*
X188734190Y-75896380D01*
%TO.C,M6*%
X164514476Y-141322380D02*
X164514476Y-140322380D01*
X164847809Y-141036666D01*
X165181142Y-140322380D01*
X165181142Y-141322380D01*
X166085904Y-140322380D02*
X165895428Y-140322380D01*
X165800190Y-140370000D01*
X165752571Y-140417619D01*
X165657333Y-140560476D01*
X165609714Y-140750952D01*
X165609714Y-141131904D01*
X165657333Y-141227142D01*
X165704952Y-141274761D01*
X165800190Y-141322380D01*
X165990666Y-141322380D01*
X166085904Y-141274761D01*
X166133523Y-141227142D01*
X166181142Y-141131904D01*
X166181142Y-140893809D01*
X166133523Y-140798571D01*
X166085904Y-140750952D01*
X165990666Y-140703333D01*
X165800190Y-140703333D01*
X165704952Y-140750952D01*
X165657333Y-140798571D01*
X165609714Y-140893809D01*
%TO.C,M5*%
X164448476Y-75896380D02*
X164448476Y-74896380D01*
X164781809Y-75610666D01*
X165115142Y-74896380D01*
X165115142Y-75896380D01*
X166067523Y-74896380D02*
X165591333Y-74896380D01*
X165543714Y-75372571D01*
X165591333Y-75324952D01*
X165686571Y-75277333D01*
X165924666Y-75277333D01*
X166019904Y-75324952D01*
X166067523Y-75372571D01*
X166115142Y-75467809D01*
X166115142Y-75705904D01*
X166067523Y-75801142D01*
X166019904Y-75848761D01*
X165924666Y-75896380D01*
X165686571Y-75896380D01*
X165591333Y-75848761D01*
X165543714Y-75801142D01*
%TO.C,R4*%
X134183333Y-75762380D02*
X133850000Y-75286190D01*
X133611904Y-75762380D02*
X133611904Y-74762380D01*
X133992857Y-74762380D01*
X134088095Y-74810000D01*
X134135714Y-74857619D01*
X134183333Y-74952857D01*
X134183333Y-75095714D01*
X134135714Y-75190952D01*
X134088095Y-75238571D01*
X133992857Y-75286190D01*
X133611904Y-75286190D01*
X135040476Y-75095714D02*
X135040476Y-75762380D01*
X134802380Y-74714761D02*
X134564285Y-75429047D01*
X135183333Y-75429047D01*
%TO.C,R3*%
X139168333Y-75762380D02*
X138835000Y-75286190D01*
X138596904Y-75762380D02*
X138596904Y-74762380D01*
X138977857Y-74762380D01*
X139073095Y-74810000D01*
X139120714Y-74857619D01*
X139168333Y-74952857D01*
X139168333Y-75095714D01*
X139120714Y-75190952D01*
X139073095Y-75238571D01*
X138977857Y-75286190D01*
X138596904Y-75286190D01*
X139501666Y-74762380D02*
X140120714Y-74762380D01*
X139787380Y-75143333D01*
X139930238Y-75143333D01*
X140025476Y-75190952D01*
X140073095Y-75238571D01*
X140120714Y-75333809D01*
X140120714Y-75571904D01*
X140073095Y-75667142D01*
X140025476Y-75714761D01*
X139930238Y-75762380D01*
X139644523Y-75762380D01*
X139549285Y-75714761D01*
X139501666Y-75667142D01*
%TO.C,JP4*%
X153471666Y-105602380D02*
X153471666Y-106316666D01*
X153424047Y-106459523D01*
X153328809Y-106554761D01*
X153185952Y-106602380D01*
X153090714Y-106602380D01*
X153947857Y-106602380D02*
X153947857Y-105602380D01*
X154328809Y-105602380D01*
X154424047Y-105650000D01*
X154471666Y-105697619D01*
X154519285Y-105792857D01*
X154519285Y-105935714D01*
X154471666Y-106030952D01*
X154424047Y-106078571D01*
X154328809Y-106126190D01*
X153947857Y-106126190D01*
X155376428Y-105935714D02*
X155376428Y-106602380D01*
X155138333Y-105554761D02*
X154900238Y-106269047D01*
X155519285Y-106269047D01*
X151990714Y-108402380D02*
X151419285Y-108402380D01*
X151705000Y-108402380D02*
X151705000Y-107402380D01*
X151609761Y-107545238D01*
X151514523Y-107640476D01*
X151419285Y-107688095D01*
X156571666Y-107402380D02*
X157190714Y-107402380D01*
X156857380Y-107783333D01*
X157000238Y-107783333D01*
X157095476Y-107830952D01*
X157143095Y-107878571D01*
X157190714Y-107973809D01*
X157190714Y-108211904D01*
X157143095Y-108307142D01*
X157095476Y-108354761D01*
X157000238Y-108402380D01*
X156714523Y-108402380D01*
X156619285Y-108354761D01*
X156571666Y-108307142D01*
%TO.C,JP3*%
X144581666Y-105602380D02*
X144581666Y-106316666D01*
X144534047Y-106459523D01*
X144438809Y-106554761D01*
X144295952Y-106602380D01*
X144200714Y-106602380D01*
X145057857Y-106602380D02*
X145057857Y-105602380D01*
X145438809Y-105602380D01*
X145534047Y-105650000D01*
X145581666Y-105697619D01*
X145629285Y-105792857D01*
X145629285Y-105935714D01*
X145581666Y-106030952D01*
X145534047Y-106078571D01*
X145438809Y-106126190D01*
X145057857Y-106126190D01*
X145962619Y-105602380D02*
X146581666Y-105602380D01*
X146248333Y-105983333D01*
X146391190Y-105983333D01*
X146486428Y-106030952D01*
X146534047Y-106078571D01*
X146581666Y-106173809D01*
X146581666Y-106411904D01*
X146534047Y-106507142D01*
X146486428Y-106554761D01*
X146391190Y-106602380D01*
X146105476Y-106602380D01*
X146010238Y-106554761D01*
X145962619Y-106507142D01*
X143100714Y-108402380D02*
X142529285Y-108402380D01*
X142815000Y-108402380D02*
X142815000Y-107402380D01*
X142719761Y-107545238D01*
X142624523Y-107640476D01*
X142529285Y-107688095D01*
X147681666Y-107402380D02*
X148300714Y-107402380D01*
X147967380Y-107783333D01*
X148110238Y-107783333D01*
X148205476Y-107830952D01*
X148253095Y-107878571D01*
X148300714Y-107973809D01*
X148300714Y-108211904D01*
X148253095Y-108307142D01*
X148205476Y-108354761D01*
X148110238Y-108402380D01*
X147824523Y-108402380D01*
X147729285Y-108354761D01*
X147681666Y-108307142D01*
%TO.C,JP2*%
X153471666Y-99337380D02*
X153471666Y-100051666D01*
X153424047Y-100194523D01*
X153328809Y-100289761D01*
X153185952Y-100337380D01*
X153090714Y-100337380D01*
X153947857Y-100337380D02*
X153947857Y-99337380D01*
X154328809Y-99337380D01*
X154424047Y-99385000D01*
X154471666Y-99432619D01*
X154519285Y-99527857D01*
X154519285Y-99670714D01*
X154471666Y-99765952D01*
X154424047Y-99813571D01*
X154328809Y-99861190D01*
X153947857Y-99861190D01*
X154900238Y-99432619D02*
X154947857Y-99385000D01*
X155043095Y-99337380D01*
X155281190Y-99337380D01*
X155376428Y-99385000D01*
X155424047Y-99432619D01*
X155471666Y-99527857D01*
X155471666Y-99623095D01*
X155424047Y-99765952D01*
X154852619Y-100337380D01*
X155471666Y-100337380D01*
X151990714Y-102137380D02*
X151419285Y-102137380D01*
X151705000Y-102137380D02*
X151705000Y-101137380D01*
X151609761Y-101280238D01*
X151514523Y-101375476D01*
X151419285Y-101423095D01*
X156571666Y-101137380D02*
X157190714Y-101137380D01*
X156857380Y-101518333D01*
X157000238Y-101518333D01*
X157095476Y-101565952D01*
X157143095Y-101613571D01*
X157190714Y-101708809D01*
X157190714Y-101946904D01*
X157143095Y-102042142D01*
X157095476Y-102089761D01*
X157000238Y-102137380D01*
X156714523Y-102137380D01*
X156619285Y-102089761D01*
X156571666Y-102042142D01*
%TO.C,JP1*%
X144581666Y-99252380D02*
X144581666Y-99966666D01*
X144534047Y-100109523D01*
X144438809Y-100204761D01*
X144295952Y-100252380D01*
X144200714Y-100252380D01*
X145057857Y-100252380D02*
X145057857Y-99252380D01*
X145438809Y-99252380D01*
X145534047Y-99300000D01*
X145581666Y-99347619D01*
X145629285Y-99442857D01*
X145629285Y-99585714D01*
X145581666Y-99680952D01*
X145534047Y-99728571D01*
X145438809Y-99776190D01*
X145057857Y-99776190D01*
X146581666Y-100252380D02*
X146010238Y-100252380D01*
X146295952Y-100252380D02*
X146295952Y-99252380D01*
X146200714Y-99395238D01*
X146105476Y-99490476D01*
X146010238Y-99538095D01*
X143100714Y-102052380D02*
X142529285Y-102052380D01*
X142815000Y-102052380D02*
X142815000Y-101052380D01*
X142719761Y-101195238D01*
X142624523Y-101290476D01*
X142529285Y-101338095D01*
X147681666Y-101052380D02*
X148300714Y-101052380D01*
X147967380Y-101433333D01*
X148110238Y-101433333D01*
X148205476Y-101480952D01*
X148253095Y-101528571D01*
X148300714Y-101623809D01*
X148300714Y-101861904D01*
X148253095Y-101957142D01*
X148205476Y-102004761D01*
X148110238Y-102052380D01*
X147824523Y-102052380D01*
X147729285Y-102004761D01*
X147681666Y-101957142D01*
%TO.C,D4*%
X133627904Y-72460380D02*
X133627904Y-71460380D01*
X133866000Y-71460380D01*
X134008857Y-71508000D01*
X134104095Y-71603238D01*
X134151714Y-71698476D01*
X134199333Y-71888952D01*
X134199333Y-72031809D01*
X134151714Y-72222285D01*
X134104095Y-72317523D01*
X134008857Y-72412761D01*
X133866000Y-72460380D01*
X133627904Y-72460380D01*
X135056476Y-71793714D02*
X135056476Y-72460380D01*
X134818380Y-71412761D02*
X134580285Y-72127047D01*
X135199333Y-72127047D01*
%TO.C,D3*%
X138580904Y-72460380D02*
X138580904Y-71460380D01*
X138819000Y-71460380D01*
X138961857Y-71508000D01*
X139057095Y-71603238D01*
X139104714Y-71698476D01*
X139152333Y-71888952D01*
X139152333Y-72031809D01*
X139104714Y-72222285D01*
X139057095Y-72317523D01*
X138961857Y-72412761D01*
X138819000Y-72460380D01*
X138580904Y-72460380D01*
X139485666Y-71460380D02*
X140104714Y-71460380D01*
X139771380Y-71841333D01*
X139914238Y-71841333D01*
X140009476Y-71888952D01*
X140057095Y-71936571D01*
X140104714Y-72031809D01*
X140104714Y-72269904D01*
X140057095Y-72365142D01*
X140009476Y-72412761D01*
X139914238Y-72460380D01*
X139628523Y-72460380D01*
X139533285Y-72412761D01*
X139485666Y-72365142D01*
%TO.C,M4*%
X186515476Y-143962380D02*
X186515476Y-142962380D01*
X186848809Y-143676666D01*
X187182142Y-142962380D01*
X187182142Y-143962380D01*
X188086904Y-143295714D02*
X188086904Y-143962380D01*
X187848809Y-142914761D02*
X187610714Y-143629047D01*
X188229761Y-143629047D01*
%TO.C,M3*%
X111106476Y-140316380D02*
X111106476Y-139316380D01*
X111439809Y-140030666D01*
X111773142Y-139316380D01*
X111773142Y-140316380D01*
X112154095Y-139316380D02*
X112773142Y-139316380D01*
X112439809Y-139697333D01*
X112582666Y-139697333D01*
X112677904Y-139744952D01*
X112725523Y-139792571D01*
X112773142Y-139887809D01*
X112773142Y-140125904D01*
X112725523Y-140221142D01*
X112677904Y-140268761D01*
X112582666Y-140316380D01*
X112296952Y-140316380D01*
X112201714Y-140268761D01*
X112154095Y-140221142D01*
%TO.C,M2*%
X188576476Y-54591380D02*
X188576476Y-53591380D01*
X188909809Y-54305666D01*
X189243142Y-53591380D01*
X189243142Y-54591380D01*
X189671714Y-53686619D02*
X189719333Y-53639000D01*
X189814571Y-53591380D01*
X190052666Y-53591380D01*
X190147904Y-53639000D01*
X190195523Y-53686619D01*
X190243142Y-53781857D01*
X190243142Y-53877095D01*
X190195523Y-54019952D01*
X189624095Y-54591380D01*
X190243142Y-54591380D01*
%TO.C,M1*%
X114916476Y-54591380D02*
X114916476Y-53591380D01*
X115249809Y-54305666D01*
X115583142Y-53591380D01*
X115583142Y-54591380D01*
X116583142Y-54591380D02*
X116011714Y-54591380D01*
X116297428Y-54591380D02*
X116297428Y-53591380D01*
X116202190Y-53734238D01*
X116106952Y-53829476D01*
X116011714Y-53877095D01*
%TO.C,J4*%
X113672666Y-63051380D02*
X113672666Y-63765666D01*
X113625047Y-63908523D01*
X113529809Y-64003761D01*
X113386952Y-64051380D01*
X113291714Y-64051380D01*
X114577428Y-63384714D02*
X114577428Y-64051380D01*
X114339333Y-63003761D02*
X114101238Y-63718047D01*
X114720285Y-63718047D01*
%TO.C,J3*%
X118411666Y-79772380D02*
X118411666Y-80486666D01*
X118364047Y-80629523D01*
X118268809Y-80724761D01*
X118125952Y-80772380D01*
X118030714Y-80772380D01*
X118792619Y-79772380D02*
X119411666Y-79772380D01*
X119078333Y-80153333D01*
X119221190Y-80153333D01*
X119316428Y-80200952D01*
X119364047Y-80248571D01*
X119411666Y-80343809D01*
X119411666Y-80581904D01*
X119364047Y-80677142D01*
X119316428Y-80724761D01*
X119221190Y-80772380D01*
X118935476Y-80772380D01*
X118840238Y-80724761D01*
X118792619Y-80677142D01*
%TO.C,J2*%
X118411666Y-139842380D02*
X118411666Y-140556666D01*
X118364047Y-140699523D01*
X118268809Y-140794761D01*
X118125952Y-140842380D01*
X118030714Y-140842380D01*
X118840238Y-139937619D02*
X118887857Y-139890000D01*
X118983095Y-139842380D01*
X119221190Y-139842380D01*
X119316428Y-139890000D01*
X119364047Y-139937619D01*
X119411666Y-140032857D01*
X119411666Y-140128095D01*
X119364047Y-140270952D01*
X118792619Y-140842380D01*
X119411666Y-140842380D01*
%TO.C,H2*%
X119888095Y-55697380D02*
X119888095Y-54697380D01*
X119888095Y-55173571D02*
X120459523Y-55173571D01*
X120459523Y-55697380D02*
X120459523Y-54697380D01*
X120888095Y-54792619D02*
X120935714Y-54745000D01*
X121030952Y-54697380D01*
X121269047Y-54697380D01*
X121364285Y-54745000D01*
X121411904Y-54792619D01*
X121459523Y-54887857D01*
X121459523Y-54983095D01*
X121411904Y-55125952D01*
X120840476Y-55697380D01*
X121459523Y-55697380D01*
%TO.C,H1*%
X119888095Y-68397380D02*
X119888095Y-67397380D01*
X119888095Y-67873571D02*
X120459523Y-67873571D01*
X120459523Y-68397380D02*
X120459523Y-67397380D01*
X121459523Y-68397380D02*
X120888095Y-68397380D01*
X121173809Y-68397380D02*
X121173809Y-67397380D01*
X121078571Y-67540238D01*
X120983333Y-67635476D01*
X120888095Y-67683095D01*
%TO.C,C5*%
X144912142Y-128436666D02*
X144959761Y-128484285D01*
X145007380Y-128627142D01*
X145007380Y-128722380D01*
X144959761Y-128865238D01*
X144864523Y-128960476D01*
X144769285Y-129008095D01*
X144578809Y-129055714D01*
X144435952Y-129055714D01*
X144245476Y-129008095D01*
X144150238Y-128960476D01*
X144055000Y-128865238D01*
X144007380Y-128722380D01*
X144007380Y-128627142D01*
X144055000Y-128484285D01*
X144102619Y-128436666D01*
X144007380Y-127531904D02*
X144007380Y-128008095D01*
X144483571Y-128055714D01*
X144435952Y-128008095D01*
X144388333Y-127912857D01*
X144388333Y-127674761D01*
X144435952Y-127579523D01*
X144483571Y-127531904D01*
X144578809Y-127484285D01*
X144816904Y-127484285D01*
X144912142Y-127531904D01*
X144959761Y-127579523D01*
X145007380Y-127674761D01*
X145007380Y-127912857D01*
X144959761Y-128008095D01*
X144912142Y-128055714D01*
%TO.C,C4*%
X133072142Y-137961666D02*
X133119761Y-138009285D01*
X133167380Y-138152142D01*
X133167380Y-138247380D01*
X133119761Y-138390238D01*
X133024523Y-138485476D01*
X132929285Y-138533095D01*
X132738809Y-138580714D01*
X132595952Y-138580714D01*
X132405476Y-138533095D01*
X132310238Y-138485476D01*
X132215000Y-138390238D01*
X132167380Y-138247380D01*
X132167380Y-138152142D01*
X132215000Y-138009285D01*
X132262619Y-137961666D01*
X132500714Y-137104523D02*
X133167380Y-137104523D01*
X132119761Y-137342619D02*
X132834047Y-137580714D01*
X132834047Y-136961666D01*
%TO.C,C3*%
X135320833Y-123772142D02*
X135273214Y-123819761D01*
X135130357Y-123867380D01*
X135035119Y-123867380D01*
X134892261Y-123819761D01*
X134797023Y-123724523D01*
X134749404Y-123629285D01*
X134701785Y-123438809D01*
X134701785Y-123295952D01*
X134749404Y-123105476D01*
X134797023Y-123010238D01*
X134892261Y-122915000D01*
X135035119Y-122867380D01*
X135130357Y-122867380D01*
X135273214Y-122915000D01*
X135320833Y-122962619D01*
X135654166Y-122867380D02*
X136273214Y-122867380D01*
X135939880Y-123248333D01*
X136082738Y-123248333D01*
X136177976Y-123295952D01*
X136225595Y-123343571D01*
X136273214Y-123438809D01*
X136273214Y-123676904D01*
X136225595Y-123772142D01*
X136177976Y-123819761D01*
X136082738Y-123867380D01*
X135797023Y-123867380D01*
X135701785Y-123819761D01*
X135654166Y-123772142D01*
%TO.C,C2*%
X132847142Y-132881666D02*
X132894761Y-132929285D01*
X132942380Y-133072142D01*
X132942380Y-133167380D01*
X132894761Y-133310238D01*
X132799523Y-133405476D01*
X132704285Y-133453095D01*
X132513809Y-133500714D01*
X132370952Y-133500714D01*
X132180476Y-133453095D01*
X132085238Y-133405476D01*
X131990000Y-133310238D01*
X131942380Y-133167380D01*
X131942380Y-133072142D01*
X131990000Y-132929285D01*
X132037619Y-132881666D01*
X132037619Y-132500714D02*
X131990000Y-132453095D01*
X131942380Y-132357857D01*
X131942380Y-132119761D01*
X131990000Y-132024523D01*
X132037619Y-131976904D01*
X132132857Y-131929285D01*
X132228095Y-131929285D01*
X132370952Y-131976904D01*
X132942380Y-132548333D01*
X132942380Y-131929285D01*
%TO.C,C1*%
X129487142Y-127801666D02*
X129534761Y-127849285D01*
X129582380Y-127992142D01*
X129582380Y-128087380D01*
X129534761Y-128230238D01*
X129439523Y-128325476D01*
X129344285Y-128373095D01*
X129153809Y-128420714D01*
X129010952Y-128420714D01*
X128820476Y-128373095D01*
X128725238Y-128325476D01*
X128630000Y-128230238D01*
X128582380Y-128087380D01*
X128582380Y-127992142D01*
X128630000Y-127849285D01*
X128677619Y-127801666D01*
X129582380Y-126849285D02*
X129582380Y-127420714D01*
X129582380Y-127135000D02*
X128582380Y-127135000D01*
X128725238Y-127230238D01*
X128820476Y-127325476D01*
X128868095Y-127420714D01*
%TD*%
M02*
