%TF.GenerationSoftware,KiCad,Pcbnew,(5.1.9)-1*%
%TF.CreationDate,2021-11-26T18:07:58-05:00*%
%TF.ProjectId,REVERB Interface,52455645-5242-4204-996e-746572666163,rev?*%
%TF.SameCoordinates,Original*%
%TF.FileFunction,Legend,Bot*%
%TF.FilePolarity,Positive*%
%FSLAX46Y46*%
G04 Gerber Fmt 4.6, Leading zero omitted, Abs format (unit mm)*
G04 Created by KiCad (PCBNEW (5.1.9)-1) date 2021-11-26 18:07:58*
%MOMM*%
%LPD*%
G01*
G04 APERTURE LIST*
%ADD10C,0.150000*%
%ADD11C,0.120000*%
G04 APERTURE END LIST*
D10*
X110402619Y-117196428D02*
X110402619Y-116625000D01*
X109402619Y-116910714D02*
X110402619Y-116910714D01*
X109402619Y-116291666D02*
X110402619Y-116291666D01*
X109926428Y-116291666D02*
X109926428Y-115720238D01*
X109402619Y-115720238D02*
X110402619Y-115720238D01*
X109402619Y-115244047D02*
X110402619Y-115244047D01*
X109450238Y-114815476D02*
X109402619Y-114672619D01*
X109402619Y-114434523D01*
X109450238Y-114339285D01*
X109497857Y-114291666D01*
X109593095Y-114244047D01*
X109688333Y-114244047D01*
X109783571Y-114291666D01*
X109831190Y-114339285D01*
X109878809Y-114434523D01*
X109926428Y-114625000D01*
X109974047Y-114720238D01*
X110021666Y-114767857D01*
X110116904Y-114815476D01*
X110212142Y-114815476D01*
X110307380Y-114767857D01*
X110355000Y-114720238D01*
X110402619Y-114625000D01*
X110402619Y-114386904D01*
X110355000Y-114244047D01*
X109450238Y-113101190D02*
X109402619Y-112958333D01*
X109402619Y-112720238D01*
X109450238Y-112625000D01*
X109497857Y-112577380D01*
X109593095Y-112529761D01*
X109688333Y-112529761D01*
X109783571Y-112577380D01*
X109831190Y-112625000D01*
X109878809Y-112720238D01*
X109926428Y-112910714D01*
X109974047Y-113005952D01*
X110021666Y-113053571D01*
X110116904Y-113101190D01*
X110212142Y-113101190D01*
X110307380Y-113053571D01*
X110355000Y-113005952D01*
X110402619Y-112910714D01*
X110402619Y-112672619D01*
X110355000Y-112529761D01*
X109402619Y-112101190D02*
X110402619Y-112101190D01*
X109402619Y-111625000D02*
X110402619Y-111625000D01*
X110402619Y-111386904D01*
X110355000Y-111244047D01*
X110259761Y-111148809D01*
X110164523Y-111101190D01*
X109974047Y-111053571D01*
X109831190Y-111053571D01*
X109640714Y-111101190D01*
X109545476Y-111148809D01*
X109450238Y-111244047D01*
X109402619Y-111386904D01*
X109402619Y-111625000D01*
X109926428Y-110625000D02*
X109926428Y-110291666D01*
X109402619Y-110148809D02*
X109402619Y-110625000D01*
X110402619Y-110625000D01*
X110402619Y-110148809D01*
X109402619Y-108958333D02*
X110402619Y-108958333D01*
X110402619Y-108720238D01*
X110355000Y-108577380D01*
X110259761Y-108482142D01*
X110164523Y-108434523D01*
X109974047Y-108386904D01*
X109831190Y-108386904D01*
X109640714Y-108434523D01*
X109545476Y-108482142D01*
X109450238Y-108577380D01*
X109402619Y-108720238D01*
X109402619Y-108958333D01*
X110402619Y-107767857D02*
X110402619Y-107577380D01*
X110355000Y-107482142D01*
X110259761Y-107386904D01*
X110069285Y-107339285D01*
X109735952Y-107339285D01*
X109545476Y-107386904D01*
X109450238Y-107482142D01*
X109402619Y-107577380D01*
X109402619Y-107767857D01*
X109450238Y-107863095D01*
X109545476Y-107958333D01*
X109735952Y-108005952D01*
X110069285Y-108005952D01*
X110259761Y-107958333D01*
X110355000Y-107863095D01*
X110402619Y-107767857D01*
X110402619Y-107005952D02*
X109402619Y-106767857D01*
X110116904Y-106577380D01*
X109402619Y-106386904D01*
X110402619Y-106148809D01*
X109402619Y-105767857D02*
X110402619Y-105767857D01*
X109402619Y-105196428D01*
X110402619Y-105196428D01*
D11*
%TO.C,C19*%
X158310000Y-123650000D02*
X158310000Y-116715000D01*
X158310000Y-116715000D02*
X161730000Y-116715000D01*
X161730000Y-116715000D02*
X161730000Y-123650000D01*
%TO.C,C17*%
X135176000Y-121734000D02*
X142111000Y-121734000D01*
X142111000Y-121734000D02*
X142111000Y-125154000D01*
X142111000Y-125154000D02*
X135176000Y-125154000D01*
%TO.C,C15*%
X115290000Y-99830000D02*
X115290000Y-108065000D01*
X115290000Y-108065000D02*
X110770000Y-108065000D01*
X110770000Y-108065000D02*
X110770000Y-99830000D01*
%TO.C,C12*%
X167480000Y-74142000D02*
X159245000Y-74142000D01*
X159245000Y-74142000D02*
X159245000Y-69622000D01*
X159245000Y-69622000D02*
X167480000Y-69622000D01*
%TO.C,C18*%
X145875000Y-89594000D02*
X138940000Y-89594000D01*
X138940000Y-89594000D02*
X138940000Y-86174000D01*
X138940000Y-86174000D02*
X145875000Y-86174000D01*
%TO.C,C16*%
X110304000Y-85296000D02*
X110304000Y-78361000D01*
X110304000Y-78361000D02*
X113724000Y-78361000D01*
X113724000Y-78361000D02*
X113724000Y-85296000D01*
%TO.C,C14*%
X115315000Y-125865000D02*
X115315000Y-134100000D01*
X115315000Y-134100000D02*
X110795000Y-134100000D01*
X110795000Y-134100000D02*
X110795000Y-125865000D01*
%TO.C,C13*%
X179794000Y-131504000D02*
X172859000Y-131504000D01*
X172859000Y-131504000D02*
X172859000Y-128084000D01*
X172859000Y-128084000D02*
X179794000Y-128084000D01*
%TO.C,C11*%
X181196000Y-126466000D02*
X172961000Y-126466000D01*
X172961000Y-126466000D02*
X172961000Y-121946000D01*
X172961000Y-121946000D02*
X181196000Y-121946000D01*
%TO.C,J1*%
X162640000Y-133604000D02*
X165240000Y-133604000D01*
X162640000Y-133604000D02*
X162640000Y-82684000D01*
X162640000Y-82684000D02*
X167840000Y-82684000D01*
X167840000Y-131004000D02*
X167840000Y-82684000D01*
X165240000Y-131004000D02*
X167840000Y-131004000D01*
X165240000Y-133604000D02*
X165240000Y-131004000D01*
X167840000Y-133604000D02*
X167840000Y-132274000D01*
X166510000Y-133604000D02*
X167840000Y-133604000D01*
%TO.C,J3*%
X121345000Y-83760000D02*
X118745000Y-83760000D01*
X121345000Y-83760000D02*
X121345000Y-109280000D01*
X121345000Y-109280000D02*
X116145000Y-109280000D01*
X116145000Y-86360000D02*
X116145000Y-109280000D01*
X118745000Y-86360000D02*
X116145000Y-86360000D01*
X118745000Y-83760000D02*
X118745000Y-86360000D01*
X116145000Y-83760000D02*
X116145000Y-85090000D01*
X117475000Y-83760000D02*
X116145000Y-83760000D01*
%TO.C,J2*%
X116145000Y-135950000D02*
X118745000Y-135950000D01*
X116145000Y-135950000D02*
X116145000Y-115510000D01*
X116145000Y-115510000D02*
X121345000Y-115510000D01*
X121345000Y-133350000D02*
X121345000Y-115510000D01*
X118745000Y-133350000D02*
X121345000Y-133350000D01*
X118745000Y-135950000D02*
X118745000Y-133350000D01*
X121345000Y-135950000D02*
X121345000Y-134620000D01*
X120015000Y-135950000D02*
X121345000Y-135950000D01*
%TO.C,H2*%
X119476000Y-60479000D02*
X119476000Y-61809000D01*
X119476000Y-61809000D02*
X120806000Y-61809000D01*
X119476000Y-59209000D02*
X122076000Y-59209000D01*
X122076000Y-59209000D02*
X122076000Y-61809000D01*
X122076000Y-61809000D02*
X185636000Y-61809000D01*
X185636000Y-56609000D02*
X185636000Y-61809000D01*
X119476000Y-56609000D02*
X185636000Y-56609000D01*
X119476000Y-56609000D02*
X119476000Y-59209000D01*
%TO.C,H1*%
X119476000Y-65559000D02*
X119476000Y-66889000D01*
X119476000Y-66889000D02*
X120806000Y-66889000D01*
X119476000Y-64289000D02*
X122076000Y-64289000D01*
X122076000Y-64289000D02*
X122076000Y-66889000D01*
X122076000Y-66889000D02*
X185636000Y-66889000D01*
X185636000Y-61689000D02*
X185636000Y-66889000D01*
X119476000Y-61689000D02*
X185636000Y-61689000D01*
X119476000Y-61689000D02*
X119476000Y-64289000D01*
%TO.C,BT1*%
D10*
X182292571Y-91924285D02*
X182340190Y-92067142D01*
X182387809Y-92114761D01*
X182483047Y-92162380D01*
X182625904Y-92162380D01*
X182721142Y-92114761D01*
X182768761Y-92067142D01*
X182816380Y-91971904D01*
X182816380Y-91590952D01*
X181816380Y-91590952D01*
X181816380Y-91924285D01*
X181864000Y-92019523D01*
X181911619Y-92067142D01*
X182006857Y-92114761D01*
X182102095Y-92114761D01*
X182197333Y-92067142D01*
X182244952Y-92019523D01*
X182292571Y-91924285D01*
X182292571Y-91590952D01*
X181816380Y-92448095D02*
X181816380Y-93019523D01*
X182816380Y-92733809D02*
X181816380Y-92733809D01*
X182816380Y-93876666D02*
X182816380Y-93305238D01*
X182816380Y-93590952D02*
X181816380Y-93590952D01*
X181959238Y-93495714D01*
X182054476Y-93400476D01*
X182102095Y-93305238D01*
%TO.C,C19*%
X157827142Y-120007142D02*
X157874761Y-119959523D01*
X157922380Y-119816666D01*
X157922380Y-119721428D01*
X157874761Y-119578571D01*
X157779523Y-119483333D01*
X157684285Y-119435714D01*
X157493809Y-119388095D01*
X157350952Y-119388095D01*
X157160476Y-119435714D01*
X157065238Y-119483333D01*
X156970000Y-119578571D01*
X156922380Y-119721428D01*
X156922380Y-119816666D01*
X156970000Y-119959523D01*
X157017619Y-120007142D01*
X157922380Y-120959523D02*
X157922380Y-120388095D01*
X157922380Y-120673809D02*
X156922380Y-120673809D01*
X157065238Y-120578571D01*
X157160476Y-120483333D01*
X157208095Y-120388095D01*
X157922380Y-121435714D02*
X157922380Y-121626190D01*
X157874761Y-121721428D01*
X157827142Y-121769047D01*
X157684285Y-121864285D01*
X157493809Y-121911904D01*
X157112857Y-121911904D01*
X157017619Y-121864285D01*
X156970000Y-121816666D01*
X156922380Y-121721428D01*
X156922380Y-121530952D01*
X156970000Y-121435714D01*
X157017619Y-121388095D01*
X157112857Y-121340476D01*
X157350952Y-121340476D01*
X157446190Y-121388095D01*
X157493809Y-121435714D01*
X157541428Y-121530952D01*
X157541428Y-121721428D01*
X157493809Y-121816666D01*
X157446190Y-121864285D01*
X157350952Y-121911904D01*
%TO.C,C17*%
X138818857Y-121251142D02*
X138866476Y-121298761D01*
X139009333Y-121346380D01*
X139104571Y-121346380D01*
X139247428Y-121298761D01*
X139342666Y-121203523D01*
X139390285Y-121108285D01*
X139437904Y-120917809D01*
X139437904Y-120774952D01*
X139390285Y-120584476D01*
X139342666Y-120489238D01*
X139247428Y-120394000D01*
X139104571Y-120346380D01*
X139009333Y-120346380D01*
X138866476Y-120394000D01*
X138818857Y-120441619D01*
X137866476Y-121346380D02*
X138437904Y-121346380D01*
X138152190Y-121346380D02*
X138152190Y-120346380D01*
X138247428Y-120489238D01*
X138342666Y-120584476D01*
X138437904Y-120632095D01*
X137533142Y-120346380D02*
X136866476Y-120346380D01*
X137295047Y-121346380D01*
%TO.C,C15*%
X113387142Y-96131142D02*
X113434761Y-96083523D01*
X113482380Y-95940666D01*
X113482380Y-95845428D01*
X113434761Y-95702571D01*
X113339523Y-95607333D01*
X113244285Y-95559714D01*
X113053809Y-95512095D01*
X112910952Y-95512095D01*
X112720476Y-95559714D01*
X112625238Y-95607333D01*
X112530000Y-95702571D01*
X112482380Y-95845428D01*
X112482380Y-95940666D01*
X112530000Y-96083523D01*
X112577619Y-96131142D01*
X113482380Y-97083523D02*
X113482380Y-96512095D01*
X113482380Y-96797809D02*
X112482380Y-96797809D01*
X112625238Y-96702571D01*
X112720476Y-96607333D01*
X112768095Y-96512095D01*
X112482380Y-97988285D02*
X112482380Y-97512095D01*
X112958571Y-97464476D01*
X112910952Y-97512095D01*
X112863333Y-97607333D01*
X112863333Y-97845428D01*
X112910952Y-97940666D01*
X112958571Y-97988285D01*
X113053809Y-98035904D01*
X113291904Y-98035904D01*
X113387142Y-97988285D01*
X113434761Y-97940666D01*
X113482380Y-97845428D01*
X113482380Y-97607333D01*
X113434761Y-97512095D01*
X113387142Y-97464476D01*
%TO.C,C12*%
X164472857Y-75339142D02*
X164520476Y-75386761D01*
X164663333Y-75434380D01*
X164758571Y-75434380D01*
X164901428Y-75386761D01*
X164996666Y-75291523D01*
X165044285Y-75196285D01*
X165091904Y-75005809D01*
X165091904Y-74862952D01*
X165044285Y-74672476D01*
X164996666Y-74577238D01*
X164901428Y-74482000D01*
X164758571Y-74434380D01*
X164663333Y-74434380D01*
X164520476Y-74482000D01*
X164472857Y-74529619D01*
X163520476Y-75434380D02*
X164091904Y-75434380D01*
X163806190Y-75434380D02*
X163806190Y-74434380D01*
X163901428Y-74577238D01*
X163996666Y-74672476D01*
X164091904Y-74720095D01*
X163139523Y-74529619D02*
X163091904Y-74482000D01*
X162996666Y-74434380D01*
X162758571Y-74434380D01*
X162663333Y-74482000D01*
X162615714Y-74529619D01*
X162568095Y-74624857D01*
X162568095Y-74720095D01*
X162615714Y-74862952D01*
X163187142Y-75434380D01*
X162568095Y-75434380D01*
%TO.C,C18*%
X143517857Y-90791142D02*
X143565476Y-90838761D01*
X143708333Y-90886380D01*
X143803571Y-90886380D01*
X143946428Y-90838761D01*
X144041666Y-90743523D01*
X144089285Y-90648285D01*
X144136904Y-90457809D01*
X144136904Y-90314952D01*
X144089285Y-90124476D01*
X144041666Y-90029238D01*
X143946428Y-89934000D01*
X143803571Y-89886380D01*
X143708333Y-89886380D01*
X143565476Y-89934000D01*
X143517857Y-89981619D01*
X142565476Y-90886380D02*
X143136904Y-90886380D01*
X142851190Y-90886380D02*
X142851190Y-89886380D01*
X142946428Y-90029238D01*
X143041666Y-90124476D01*
X143136904Y-90172095D01*
X141994047Y-90314952D02*
X142089285Y-90267333D01*
X142136904Y-90219714D01*
X142184523Y-90124476D01*
X142184523Y-90076857D01*
X142136904Y-89981619D01*
X142089285Y-89934000D01*
X141994047Y-89886380D01*
X141803571Y-89886380D01*
X141708333Y-89934000D01*
X141660714Y-89981619D01*
X141613095Y-90076857D01*
X141613095Y-90124476D01*
X141660714Y-90219714D01*
X141708333Y-90267333D01*
X141803571Y-90314952D01*
X141994047Y-90314952D01*
X142089285Y-90362571D01*
X142136904Y-90410190D01*
X142184523Y-90505428D01*
X142184523Y-90695904D01*
X142136904Y-90791142D01*
X142089285Y-90838761D01*
X141994047Y-90886380D01*
X141803571Y-90886380D01*
X141708333Y-90838761D01*
X141660714Y-90791142D01*
X141613095Y-90695904D01*
X141613095Y-90505428D01*
X141660714Y-90410190D01*
X141708333Y-90362571D01*
X141803571Y-90314952D01*
%TO.C,C16*%
X109821142Y-81653142D02*
X109868761Y-81605523D01*
X109916380Y-81462666D01*
X109916380Y-81367428D01*
X109868761Y-81224571D01*
X109773523Y-81129333D01*
X109678285Y-81081714D01*
X109487809Y-81034095D01*
X109344952Y-81034095D01*
X109154476Y-81081714D01*
X109059238Y-81129333D01*
X108964000Y-81224571D01*
X108916380Y-81367428D01*
X108916380Y-81462666D01*
X108964000Y-81605523D01*
X109011619Y-81653142D01*
X109916380Y-82605523D02*
X109916380Y-82034095D01*
X109916380Y-82319809D02*
X108916380Y-82319809D01*
X109059238Y-82224571D01*
X109154476Y-82129333D01*
X109202095Y-82034095D01*
X108916380Y-83462666D02*
X108916380Y-83272190D01*
X108964000Y-83176952D01*
X109011619Y-83129333D01*
X109154476Y-83034095D01*
X109344952Y-82986476D01*
X109725904Y-82986476D01*
X109821142Y-83034095D01*
X109868761Y-83081714D01*
X109916380Y-83176952D01*
X109916380Y-83367428D01*
X109868761Y-83462666D01*
X109821142Y-83510285D01*
X109725904Y-83557904D01*
X109487809Y-83557904D01*
X109392571Y-83510285D01*
X109344952Y-83462666D01*
X109297333Y-83367428D01*
X109297333Y-83176952D01*
X109344952Y-83081714D01*
X109392571Y-83034095D01*
X109487809Y-82986476D01*
%TO.C,C14*%
X110212142Y-128897142D02*
X110259761Y-128849523D01*
X110307380Y-128706666D01*
X110307380Y-128611428D01*
X110259761Y-128468571D01*
X110164523Y-128373333D01*
X110069285Y-128325714D01*
X109878809Y-128278095D01*
X109735952Y-128278095D01*
X109545476Y-128325714D01*
X109450238Y-128373333D01*
X109355000Y-128468571D01*
X109307380Y-128611428D01*
X109307380Y-128706666D01*
X109355000Y-128849523D01*
X109402619Y-128897142D01*
X110307380Y-129849523D02*
X110307380Y-129278095D01*
X110307380Y-129563809D02*
X109307380Y-129563809D01*
X109450238Y-129468571D01*
X109545476Y-129373333D01*
X109593095Y-129278095D01*
X109640714Y-130706666D02*
X110307380Y-130706666D01*
X109259761Y-130468571D02*
X109974047Y-130230476D01*
X109974047Y-130849523D01*
%TO.C,C13*%
X177436857Y-132701142D02*
X177484476Y-132748761D01*
X177627333Y-132796380D01*
X177722571Y-132796380D01*
X177865428Y-132748761D01*
X177960666Y-132653523D01*
X178008285Y-132558285D01*
X178055904Y-132367809D01*
X178055904Y-132224952D01*
X178008285Y-132034476D01*
X177960666Y-131939238D01*
X177865428Y-131844000D01*
X177722571Y-131796380D01*
X177627333Y-131796380D01*
X177484476Y-131844000D01*
X177436857Y-131891619D01*
X176484476Y-132796380D02*
X177055904Y-132796380D01*
X176770190Y-132796380D02*
X176770190Y-131796380D01*
X176865428Y-131939238D01*
X176960666Y-132034476D01*
X177055904Y-132082095D01*
X176151142Y-131796380D02*
X175532095Y-131796380D01*
X175865428Y-132177333D01*
X175722571Y-132177333D01*
X175627333Y-132224952D01*
X175579714Y-132272571D01*
X175532095Y-132367809D01*
X175532095Y-132605904D01*
X175579714Y-132701142D01*
X175627333Y-132748761D01*
X175722571Y-132796380D01*
X176008285Y-132796380D01*
X176103523Y-132748761D01*
X176151142Y-132701142D01*
%TO.C,C11*%
X178188857Y-127663142D02*
X178236476Y-127710761D01*
X178379333Y-127758380D01*
X178474571Y-127758380D01*
X178617428Y-127710761D01*
X178712666Y-127615523D01*
X178760285Y-127520285D01*
X178807904Y-127329809D01*
X178807904Y-127186952D01*
X178760285Y-126996476D01*
X178712666Y-126901238D01*
X178617428Y-126806000D01*
X178474571Y-126758380D01*
X178379333Y-126758380D01*
X178236476Y-126806000D01*
X178188857Y-126853619D01*
X177236476Y-127758380D02*
X177807904Y-127758380D01*
X177522190Y-127758380D02*
X177522190Y-126758380D01*
X177617428Y-126901238D01*
X177712666Y-126996476D01*
X177807904Y-127044095D01*
X176284095Y-127758380D02*
X176855523Y-127758380D01*
X176569809Y-127758380D02*
X176569809Y-126758380D01*
X176665047Y-126901238D01*
X176760285Y-126996476D01*
X176855523Y-127044095D01*
%TD*%
M02*
