%TF.GenerationSoftware,KiCad,Pcbnew,(5.1.9)-1*%
%TF.CreationDate,2021-11-26T10:54:51-05:00*%
%TF.ProjectId,REVERB Interface,52455645-5242-4204-996e-746572666163,rev?*%
%TF.SameCoordinates,Original*%
%TF.FileFunction,Soldermask,Top*%
%TF.FilePolarity,Negative*%
%FSLAX46Y46*%
G04 Gerber Fmt 4.6, Leading zero omitted, Abs format (unit mm)*
G04 Created by KiCad (PCBNEW (5.1.9)-1) date 2021-11-26 10:54:51*
%MOMM*%
%LPD*%
G01*
G04 APERTURE LIST*
%ADD10R,1.500000X1.000000*%
%ADD11O,2.000000X1.700000*%
%ADD12C,2.000000*%
%ADD13C,2.300000*%
%ADD14C,2.500000*%
%ADD15C,1.524000*%
%ADD16O,1.700000X1.700000*%
%ADD17R,1.700000X1.700000*%
%ADD18C,2.700000*%
%ADD19R,1.000000X1.500000*%
%ADD20C,5.600000*%
%ADD21C,3.600000*%
%ADD22O,1.400000X0.700000*%
%ADD23O,1.500000X1.500000*%
%ADD24R,1.500000X1.500000*%
G04 APERTURE END LIST*
%TO.C,R2*%
G36*
G01*
X178699000Y-111390000D02*
X179949000Y-111390000D01*
G75*
G02*
X180199000Y-111640000I0J-250000D01*
G01*
X180199000Y-112440000D01*
G75*
G02*
X179949000Y-112690000I-250000J0D01*
G01*
X178699000Y-112690000D01*
G75*
G02*
X178449000Y-112440000I0J250000D01*
G01*
X178449000Y-111640000D01*
G75*
G02*
X178699000Y-111390000I250000J0D01*
G01*
G37*
G36*
G01*
X178699000Y-108290000D02*
X179949000Y-108290000D01*
G75*
G02*
X180199000Y-108540000I0J-250000D01*
G01*
X180199000Y-109340000D01*
G75*
G02*
X179949000Y-109590000I-250000J0D01*
G01*
X178699000Y-109590000D01*
G75*
G02*
X178449000Y-109340000I0J250000D01*
G01*
X178449000Y-108540000D01*
G75*
G02*
X178699000Y-108290000I250000J0D01*
G01*
G37*
%TD*%
%TO.C,R1*%
G36*
G01*
X182763000Y-111390000D02*
X184013000Y-111390000D01*
G75*
G02*
X184263000Y-111640000I0J-250000D01*
G01*
X184263000Y-112440000D01*
G75*
G02*
X184013000Y-112690000I-250000J0D01*
G01*
X182763000Y-112690000D01*
G75*
G02*
X182513000Y-112440000I0J250000D01*
G01*
X182513000Y-111640000D01*
G75*
G02*
X182763000Y-111390000I250000J0D01*
G01*
G37*
G36*
G01*
X182763000Y-108290000D02*
X184013000Y-108290000D01*
G75*
G02*
X184263000Y-108540000I0J-250000D01*
G01*
X184263000Y-109340000D01*
G75*
G02*
X184013000Y-109590000I-250000J0D01*
G01*
X182763000Y-109590000D01*
G75*
G02*
X182513000Y-109340000I0J250000D01*
G01*
X182513000Y-108540000D01*
G75*
G02*
X182763000Y-108290000I250000J0D01*
G01*
G37*
%TD*%
D10*
%TO.C,JP6*%
X183394000Y-115794000D03*
X183394000Y-117094000D03*
X183394000Y-118394000D03*
%TD*%
%TO.C,JP5*%
X179324000Y-115794000D03*
X179324000Y-117094000D03*
X179324000Y-118394000D03*
%TD*%
D11*
%TO.C,J6*%
X194310000Y-69175000D03*
G36*
G01*
X193560000Y-65825000D02*
X195060000Y-65825000D01*
G75*
G02*
X195310000Y-66075000I0J-250000D01*
G01*
X195310000Y-67275000D01*
G75*
G02*
X195060000Y-67525000I-250000J0D01*
G01*
X193560000Y-67525000D01*
G75*
G02*
X193310000Y-67275000I0J250000D01*
G01*
X193310000Y-66075000D01*
G75*
G02*
X193560000Y-65825000I250000J0D01*
G01*
G37*
%TD*%
%TO.C,U5*%
G36*
G01*
X182269000Y-94465000D02*
X182269000Y-94765000D01*
G75*
G02*
X182119000Y-94915000I-150000J0D01*
G01*
X180469000Y-94915000D01*
G75*
G02*
X180319000Y-94765000I0J150000D01*
G01*
X180319000Y-94465000D01*
G75*
G02*
X180469000Y-94315000I150000J0D01*
G01*
X182119000Y-94315000D01*
G75*
G02*
X182269000Y-94465000I0J-150000D01*
G01*
G37*
G36*
G01*
X182269000Y-93195000D02*
X182269000Y-93495000D01*
G75*
G02*
X182119000Y-93645000I-150000J0D01*
G01*
X180469000Y-93645000D01*
G75*
G02*
X180319000Y-93495000I0J150000D01*
G01*
X180319000Y-93195000D01*
G75*
G02*
X180469000Y-93045000I150000J0D01*
G01*
X182119000Y-93045000D01*
G75*
G02*
X182269000Y-93195000I0J-150000D01*
G01*
G37*
G36*
G01*
X182269000Y-91925000D02*
X182269000Y-92225000D01*
G75*
G02*
X182119000Y-92375000I-150000J0D01*
G01*
X180469000Y-92375000D01*
G75*
G02*
X180319000Y-92225000I0J150000D01*
G01*
X180319000Y-91925000D01*
G75*
G02*
X180469000Y-91775000I150000J0D01*
G01*
X182119000Y-91775000D01*
G75*
G02*
X182269000Y-91925000I0J-150000D01*
G01*
G37*
G36*
G01*
X182269000Y-90655000D02*
X182269000Y-90955000D01*
G75*
G02*
X182119000Y-91105000I-150000J0D01*
G01*
X180469000Y-91105000D01*
G75*
G02*
X180319000Y-90955000I0J150000D01*
G01*
X180319000Y-90655000D01*
G75*
G02*
X180469000Y-90505000I150000J0D01*
G01*
X182119000Y-90505000D01*
G75*
G02*
X182269000Y-90655000I0J-150000D01*
G01*
G37*
G36*
G01*
X187219000Y-90655000D02*
X187219000Y-90955000D01*
G75*
G02*
X187069000Y-91105000I-150000J0D01*
G01*
X185419000Y-91105000D01*
G75*
G02*
X185269000Y-90955000I0J150000D01*
G01*
X185269000Y-90655000D01*
G75*
G02*
X185419000Y-90505000I150000J0D01*
G01*
X187069000Y-90505000D01*
G75*
G02*
X187219000Y-90655000I0J-150000D01*
G01*
G37*
G36*
G01*
X187219000Y-91925000D02*
X187219000Y-92225000D01*
G75*
G02*
X187069000Y-92375000I-150000J0D01*
G01*
X185419000Y-92375000D01*
G75*
G02*
X185269000Y-92225000I0J150000D01*
G01*
X185269000Y-91925000D01*
G75*
G02*
X185419000Y-91775000I150000J0D01*
G01*
X187069000Y-91775000D01*
G75*
G02*
X187219000Y-91925000I0J-150000D01*
G01*
G37*
G36*
G01*
X187219000Y-93195000D02*
X187219000Y-93495000D01*
G75*
G02*
X187069000Y-93645000I-150000J0D01*
G01*
X185419000Y-93645000D01*
G75*
G02*
X185269000Y-93495000I0J150000D01*
G01*
X185269000Y-93195000D01*
G75*
G02*
X185419000Y-93045000I150000J0D01*
G01*
X187069000Y-93045000D01*
G75*
G02*
X187219000Y-93195000I0J-150000D01*
G01*
G37*
G36*
G01*
X187219000Y-94465000D02*
X187219000Y-94765000D01*
G75*
G02*
X187069000Y-94915000I-150000J0D01*
G01*
X185419000Y-94915000D01*
G75*
G02*
X185269000Y-94765000I0J150000D01*
G01*
X185269000Y-94465000D01*
G75*
G02*
X185419000Y-94315000I150000J0D01*
G01*
X187069000Y-94315000D01*
G75*
G02*
X187219000Y-94465000I0J-150000D01*
G01*
G37*
%TD*%
D12*
%TO.C,TP6*%
X191389000Y-86995000D03*
%TD*%
D13*
%TO.C,BT1*%
X180364000Y-103110000D03*
X183464000Y-103110000D03*
X183464000Y-82310000D03*
X180364000Y-82310000D03*
%TD*%
%TO.C,C21*%
G36*
G01*
X177259000Y-90355000D02*
X176309000Y-90355000D01*
G75*
G02*
X176059000Y-90105000I0J250000D01*
G01*
X176059000Y-89430000D01*
G75*
G02*
X176309000Y-89180000I250000J0D01*
G01*
X177259000Y-89180000D01*
G75*
G02*
X177509000Y-89430000I0J-250000D01*
G01*
X177509000Y-90105000D01*
G75*
G02*
X177259000Y-90355000I-250000J0D01*
G01*
G37*
G36*
G01*
X177259000Y-92430000D02*
X176309000Y-92430000D01*
G75*
G02*
X176059000Y-92180000I0J250000D01*
G01*
X176059000Y-91505000D01*
G75*
G02*
X176309000Y-91255000I250000J0D01*
G01*
X177259000Y-91255000D01*
G75*
G02*
X177509000Y-91505000I0J-250000D01*
G01*
X177509000Y-92180000D01*
G75*
G02*
X177259000Y-92430000I-250000J0D01*
G01*
G37*
%TD*%
%TO.C,C20*%
G36*
G01*
X182684000Y-87155000D02*
X182684000Y-88105000D01*
G75*
G02*
X182434000Y-88355000I-250000J0D01*
G01*
X181759000Y-88355000D01*
G75*
G02*
X181509000Y-88105000I0J250000D01*
G01*
X181509000Y-87155000D01*
G75*
G02*
X181759000Y-86905000I250000J0D01*
G01*
X182434000Y-86905000D01*
G75*
G02*
X182684000Y-87155000I0J-250000D01*
G01*
G37*
G36*
G01*
X184759000Y-87155000D02*
X184759000Y-88105000D01*
G75*
G02*
X184509000Y-88355000I-250000J0D01*
G01*
X183834000Y-88355000D01*
G75*
G02*
X183584000Y-88105000I0J250000D01*
G01*
X183584000Y-87155000D01*
G75*
G02*
X183834000Y-86905000I250000J0D01*
G01*
X184509000Y-86905000D01*
G75*
G02*
X184759000Y-87155000I0J-250000D01*
G01*
G37*
%TD*%
D14*
%TO.C,U1*%
X157480000Y-78105000D03*
X135890000Y-78105000D03*
X157480000Y-93345000D03*
X135890000Y-93345000D03*
D15*
X140335000Y-94615000D03*
X142875000Y-94615000D03*
X145415000Y-94615000D03*
X147955000Y-94615000D03*
X150495000Y-94615000D03*
X153035000Y-94615000D03*
%TD*%
D16*
%TO.C,J1*%
X163970000Y-84014000D03*
X166510000Y-84014000D03*
X163970000Y-86554000D03*
X166510000Y-86554000D03*
X163970000Y-89094000D03*
X166510000Y-89094000D03*
X163970000Y-91634000D03*
X166510000Y-91634000D03*
X163970000Y-94174000D03*
X166510000Y-94174000D03*
X163970000Y-96714000D03*
X166510000Y-96714000D03*
X163970000Y-99254000D03*
X166510000Y-99254000D03*
X163970000Y-101794000D03*
X166510000Y-101794000D03*
X163970000Y-104334000D03*
X166510000Y-104334000D03*
X163970000Y-106874000D03*
X166510000Y-106874000D03*
X163970000Y-109414000D03*
X166510000Y-109414000D03*
X163970000Y-111954000D03*
X166510000Y-111954000D03*
X163970000Y-114494000D03*
X166510000Y-114494000D03*
X163970000Y-117034000D03*
X166510000Y-117034000D03*
X163970000Y-119574000D03*
X166510000Y-119574000D03*
X163970000Y-122114000D03*
X166510000Y-122114000D03*
X163970000Y-124654000D03*
X166510000Y-124654000D03*
X163970000Y-127194000D03*
X166510000Y-127194000D03*
X163970000Y-129734000D03*
X166510000Y-129734000D03*
X163970000Y-132274000D03*
D17*
X166510000Y-132274000D03*
%TD*%
%TO.C,U3*%
G36*
G01*
X155932000Y-126388000D02*
X155932000Y-126088000D01*
G75*
G02*
X156082000Y-125938000I150000J0D01*
G01*
X157732000Y-125938000D01*
G75*
G02*
X157882000Y-126088000I0J-150000D01*
G01*
X157882000Y-126388000D01*
G75*
G02*
X157732000Y-126538000I-150000J0D01*
G01*
X156082000Y-126538000D01*
G75*
G02*
X155932000Y-126388000I0J150000D01*
G01*
G37*
G36*
G01*
X155932000Y-127658000D02*
X155932000Y-127358000D01*
G75*
G02*
X156082000Y-127208000I150000J0D01*
G01*
X157732000Y-127208000D01*
G75*
G02*
X157882000Y-127358000I0J-150000D01*
G01*
X157882000Y-127658000D01*
G75*
G02*
X157732000Y-127808000I-150000J0D01*
G01*
X156082000Y-127808000D01*
G75*
G02*
X155932000Y-127658000I0J150000D01*
G01*
G37*
G36*
G01*
X155932000Y-128928000D02*
X155932000Y-128628000D01*
G75*
G02*
X156082000Y-128478000I150000J0D01*
G01*
X157732000Y-128478000D01*
G75*
G02*
X157882000Y-128628000I0J-150000D01*
G01*
X157882000Y-128928000D01*
G75*
G02*
X157732000Y-129078000I-150000J0D01*
G01*
X156082000Y-129078000D01*
G75*
G02*
X155932000Y-128928000I0J150000D01*
G01*
G37*
G36*
G01*
X155932000Y-130198000D02*
X155932000Y-129898000D01*
G75*
G02*
X156082000Y-129748000I150000J0D01*
G01*
X157732000Y-129748000D01*
G75*
G02*
X157882000Y-129898000I0J-150000D01*
G01*
X157882000Y-130198000D01*
G75*
G02*
X157732000Y-130348000I-150000J0D01*
G01*
X156082000Y-130348000D01*
G75*
G02*
X155932000Y-130198000I0J150000D01*
G01*
G37*
G36*
G01*
X155932000Y-131468000D02*
X155932000Y-131168000D01*
G75*
G02*
X156082000Y-131018000I150000J0D01*
G01*
X157732000Y-131018000D01*
G75*
G02*
X157882000Y-131168000I0J-150000D01*
G01*
X157882000Y-131468000D01*
G75*
G02*
X157732000Y-131618000I-150000J0D01*
G01*
X156082000Y-131618000D01*
G75*
G02*
X155932000Y-131468000I0J150000D01*
G01*
G37*
G36*
G01*
X155932000Y-132738000D02*
X155932000Y-132438000D01*
G75*
G02*
X156082000Y-132288000I150000J0D01*
G01*
X157732000Y-132288000D01*
G75*
G02*
X157882000Y-132438000I0J-150000D01*
G01*
X157882000Y-132738000D01*
G75*
G02*
X157732000Y-132888000I-150000J0D01*
G01*
X156082000Y-132888000D01*
G75*
G02*
X155932000Y-132738000I0J150000D01*
G01*
G37*
G36*
G01*
X155932000Y-134008000D02*
X155932000Y-133708000D01*
G75*
G02*
X156082000Y-133558000I150000J0D01*
G01*
X157732000Y-133558000D01*
G75*
G02*
X157882000Y-133708000I0J-150000D01*
G01*
X157882000Y-134008000D01*
G75*
G02*
X157732000Y-134158000I-150000J0D01*
G01*
X156082000Y-134158000D01*
G75*
G02*
X155932000Y-134008000I0J150000D01*
G01*
G37*
G36*
G01*
X150982000Y-134008000D02*
X150982000Y-133708000D01*
G75*
G02*
X151132000Y-133558000I150000J0D01*
G01*
X152782000Y-133558000D01*
G75*
G02*
X152932000Y-133708000I0J-150000D01*
G01*
X152932000Y-134008000D01*
G75*
G02*
X152782000Y-134158000I-150000J0D01*
G01*
X151132000Y-134158000D01*
G75*
G02*
X150982000Y-134008000I0J150000D01*
G01*
G37*
G36*
G01*
X150982000Y-132738000D02*
X150982000Y-132438000D01*
G75*
G02*
X151132000Y-132288000I150000J0D01*
G01*
X152782000Y-132288000D01*
G75*
G02*
X152932000Y-132438000I0J-150000D01*
G01*
X152932000Y-132738000D01*
G75*
G02*
X152782000Y-132888000I-150000J0D01*
G01*
X151132000Y-132888000D01*
G75*
G02*
X150982000Y-132738000I0J150000D01*
G01*
G37*
G36*
G01*
X150982000Y-131468000D02*
X150982000Y-131168000D01*
G75*
G02*
X151132000Y-131018000I150000J0D01*
G01*
X152782000Y-131018000D01*
G75*
G02*
X152932000Y-131168000I0J-150000D01*
G01*
X152932000Y-131468000D01*
G75*
G02*
X152782000Y-131618000I-150000J0D01*
G01*
X151132000Y-131618000D01*
G75*
G02*
X150982000Y-131468000I0J150000D01*
G01*
G37*
G36*
G01*
X150982000Y-130198000D02*
X150982000Y-129898000D01*
G75*
G02*
X151132000Y-129748000I150000J0D01*
G01*
X152782000Y-129748000D01*
G75*
G02*
X152932000Y-129898000I0J-150000D01*
G01*
X152932000Y-130198000D01*
G75*
G02*
X152782000Y-130348000I-150000J0D01*
G01*
X151132000Y-130348000D01*
G75*
G02*
X150982000Y-130198000I0J150000D01*
G01*
G37*
G36*
G01*
X150982000Y-128928000D02*
X150982000Y-128628000D01*
G75*
G02*
X151132000Y-128478000I150000J0D01*
G01*
X152782000Y-128478000D01*
G75*
G02*
X152932000Y-128628000I0J-150000D01*
G01*
X152932000Y-128928000D01*
G75*
G02*
X152782000Y-129078000I-150000J0D01*
G01*
X151132000Y-129078000D01*
G75*
G02*
X150982000Y-128928000I0J150000D01*
G01*
G37*
G36*
G01*
X150982000Y-127658000D02*
X150982000Y-127358000D01*
G75*
G02*
X151132000Y-127208000I150000J0D01*
G01*
X152782000Y-127208000D01*
G75*
G02*
X152932000Y-127358000I0J-150000D01*
G01*
X152932000Y-127658000D01*
G75*
G02*
X152782000Y-127808000I-150000J0D01*
G01*
X151132000Y-127808000D01*
G75*
G02*
X150982000Y-127658000I0J150000D01*
G01*
G37*
G36*
G01*
X150982000Y-126388000D02*
X150982000Y-126088000D01*
G75*
G02*
X151132000Y-125938000I150000J0D01*
G01*
X152782000Y-125938000D01*
G75*
G02*
X152932000Y-126088000I0J-150000D01*
G01*
X152932000Y-126388000D01*
G75*
G02*
X152782000Y-126538000I-150000J0D01*
G01*
X151132000Y-126538000D01*
G75*
G02*
X150982000Y-126388000I0J150000D01*
G01*
G37*
%TD*%
%TO.C,R7*%
G36*
G01*
X147964999Y-138848000D02*
X149215001Y-138848000D01*
G75*
G02*
X149465000Y-139097999I0J-249999D01*
G01*
X149465000Y-139898001D01*
G75*
G02*
X149215001Y-140148000I-249999J0D01*
G01*
X147964999Y-140148000D01*
G75*
G02*
X147715000Y-139898001I0J249999D01*
G01*
X147715000Y-139097999D01*
G75*
G02*
X147964999Y-138848000I249999J0D01*
G01*
G37*
G36*
G01*
X147964999Y-135748000D02*
X149215001Y-135748000D01*
G75*
G02*
X149465000Y-135997999I0J-249999D01*
G01*
X149465000Y-136798001D01*
G75*
G02*
X149215001Y-137048000I-249999J0D01*
G01*
X147964999Y-137048000D01*
G75*
G02*
X147715000Y-136798001I0J249999D01*
G01*
X147715000Y-135997999D01*
G75*
G02*
X147964999Y-135748000I249999J0D01*
G01*
G37*
%TD*%
D16*
%TO.C,J5*%
X153670000Y-142240000D03*
X151130000Y-142240000D03*
D17*
X148590000Y-142240000D03*
%TD*%
%TO.C,C7*%
G36*
G01*
X154882000Y-123411000D02*
X154882000Y-122461000D01*
G75*
G02*
X155132000Y-122211000I250000J0D01*
G01*
X155807000Y-122211000D01*
G75*
G02*
X156057000Y-122461000I0J-250000D01*
G01*
X156057000Y-123411000D01*
G75*
G02*
X155807000Y-123661000I-250000J0D01*
G01*
X155132000Y-123661000D01*
G75*
G02*
X154882000Y-123411000I0J250000D01*
G01*
G37*
G36*
G01*
X152807000Y-123411000D02*
X152807000Y-122461000D01*
G75*
G02*
X153057000Y-122211000I250000J0D01*
G01*
X153732000Y-122211000D01*
G75*
G02*
X153982000Y-122461000I0J-250000D01*
G01*
X153982000Y-123411000D01*
G75*
G02*
X153732000Y-123661000I-250000J0D01*
G01*
X153057000Y-123661000D01*
G75*
G02*
X152807000Y-123411000I0J250000D01*
G01*
G37*
%TD*%
%TO.C,C6*%
G36*
G01*
X154882000Y-120109000D02*
X154882000Y-119159000D01*
G75*
G02*
X155132000Y-118909000I250000J0D01*
G01*
X155807000Y-118909000D01*
G75*
G02*
X156057000Y-119159000I0J-250000D01*
G01*
X156057000Y-120109000D01*
G75*
G02*
X155807000Y-120359000I-250000J0D01*
G01*
X155132000Y-120359000D01*
G75*
G02*
X154882000Y-120109000I0J250000D01*
G01*
G37*
G36*
G01*
X152807000Y-120109000D02*
X152807000Y-119159000D01*
G75*
G02*
X153057000Y-118909000I250000J0D01*
G01*
X153732000Y-118909000D01*
G75*
G02*
X153982000Y-119159000I0J-250000D01*
G01*
X153982000Y-120109000D01*
G75*
G02*
X153732000Y-120359000I-250000J0D01*
G01*
X153057000Y-120359000D01*
G75*
G02*
X152807000Y-120109000I0J250000D01*
G01*
G37*
%TD*%
%TO.C,U4*%
G36*
G01*
X131977000Y-115801000D02*
X131977000Y-116101000D01*
G75*
G02*
X131827000Y-116251000I-150000J0D01*
G01*
X130177000Y-116251000D01*
G75*
G02*
X130027000Y-116101000I0J150000D01*
G01*
X130027000Y-115801000D01*
G75*
G02*
X130177000Y-115651000I150000J0D01*
G01*
X131827000Y-115651000D01*
G75*
G02*
X131977000Y-115801000I0J-150000D01*
G01*
G37*
G36*
G01*
X131977000Y-114531000D02*
X131977000Y-114831000D01*
G75*
G02*
X131827000Y-114981000I-150000J0D01*
G01*
X130177000Y-114981000D01*
G75*
G02*
X130027000Y-114831000I0J150000D01*
G01*
X130027000Y-114531000D01*
G75*
G02*
X130177000Y-114381000I150000J0D01*
G01*
X131827000Y-114381000D01*
G75*
G02*
X131977000Y-114531000I0J-150000D01*
G01*
G37*
G36*
G01*
X131977000Y-113261000D02*
X131977000Y-113561000D01*
G75*
G02*
X131827000Y-113711000I-150000J0D01*
G01*
X130177000Y-113711000D01*
G75*
G02*
X130027000Y-113561000I0J150000D01*
G01*
X130027000Y-113261000D01*
G75*
G02*
X130177000Y-113111000I150000J0D01*
G01*
X131827000Y-113111000D01*
G75*
G02*
X131977000Y-113261000I0J-150000D01*
G01*
G37*
G36*
G01*
X131977000Y-111991000D02*
X131977000Y-112291000D01*
G75*
G02*
X131827000Y-112441000I-150000J0D01*
G01*
X130177000Y-112441000D01*
G75*
G02*
X130027000Y-112291000I0J150000D01*
G01*
X130027000Y-111991000D01*
G75*
G02*
X130177000Y-111841000I150000J0D01*
G01*
X131827000Y-111841000D01*
G75*
G02*
X131977000Y-111991000I0J-150000D01*
G01*
G37*
G36*
G01*
X131977000Y-110721000D02*
X131977000Y-111021000D01*
G75*
G02*
X131827000Y-111171000I-150000J0D01*
G01*
X130177000Y-111171000D01*
G75*
G02*
X130027000Y-111021000I0J150000D01*
G01*
X130027000Y-110721000D01*
G75*
G02*
X130177000Y-110571000I150000J0D01*
G01*
X131827000Y-110571000D01*
G75*
G02*
X131977000Y-110721000I0J-150000D01*
G01*
G37*
G36*
G01*
X131977000Y-109451000D02*
X131977000Y-109751000D01*
G75*
G02*
X131827000Y-109901000I-150000J0D01*
G01*
X130177000Y-109901000D01*
G75*
G02*
X130027000Y-109751000I0J150000D01*
G01*
X130027000Y-109451000D01*
G75*
G02*
X130177000Y-109301000I150000J0D01*
G01*
X131827000Y-109301000D01*
G75*
G02*
X131977000Y-109451000I0J-150000D01*
G01*
G37*
G36*
G01*
X131977000Y-108181000D02*
X131977000Y-108481000D01*
G75*
G02*
X131827000Y-108631000I-150000J0D01*
G01*
X130177000Y-108631000D01*
G75*
G02*
X130027000Y-108481000I0J150000D01*
G01*
X130027000Y-108181000D01*
G75*
G02*
X130177000Y-108031000I150000J0D01*
G01*
X131827000Y-108031000D01*
G75*
G02*
X131977000Y-108181000I0J-150000D01*
G01*
G37*
G36*
G01*
X136927000Y-108181000D02*
X136927000Y-108481000D01*
G75*
G02*
X136777000Y-108631000I-150000J0D01*
G01*
X135127000Y-108631000D01*
G75*
G02*
X134977000Y-108481000I0J150000D01*
G01*
X134977000Y-108181000D01*
G75*
G02*
X135127000Y-108031000I150000J0D01*
G01*
X136777000Y-108031000D01*
G75*
G02*
X136927000Y-108181000I0J-150000D01*
G01*
G37*
G36*
G01*
X136927000Y-109451000D02*
X136927000Y-109751000D01*
G75*
G02*
X136777000Y-109901000I-150000J0D01*
G01*
X135127000Y-109901000D01*
G75*
G02*
X134977000Y-109751000I0J150000D01*
G01*
X134977000Y-109451000D01*
G75*
G02*
X135127000Y-109301000I150000J0D01*
G01*
X136777000Y-109301000D01*
G75*
G02*
X136927000Y-109451000I0J-150000D01*
G01*
G37*
G36*
G01*
X136927000Y-110721000D02*
X136927000Y-111021000D01*
G75*
G02*
X136777000Y-111171000I-150000J0D01*
G01*
X135127000Y-111171000D01*
G75*
G02*
X134977000Y-111021000I0J150000D01*
G01*
X134977000Y-110721000D01*
G75*
G02*
X135127000Y-110571000I150000J0D01*
G01*
X136777000Y-110571000D01*
G75*
G02*
X136927000Y-110721000I0J-150000D01*
G01*
G37*
G36*
G01*
X136927000Y-111991000D02*
X136927000Y-112291000D01*
G75*
G02*
X136777000Y-112441000I-150000J0D01*
G01*
X135127000Y-112441000D01*
G75*
G02*
X134977000Y-112291000I0J150000D01*
G01*
X134977000Y-111991000D01*
G75*
G02*
X135127000Y-111841000I150000J0D01*
G01*
X136777000Y-111841000D01*
G75*
G02*
X136927000Y-111991000I0J-150000D01*
G01*
G37*
G36*
G01*
X136927000Y-113261000D02*
X136927000Y-113561000D01*
G75*
G02*
X136777000Y-113711000I-150000J0D01*
G01*
X135127000Y-113711000D01*
G75*
G02*
X134977000Y-113561000I0J150000D01*
G01*
X134977000Y-113261000D01*
G75*
G02*
X135127000Y-113111000I150000J0D01*
G01*
X136777000Y-113111000D01*
G75*
G02*
X136927000Y-113261000I0J-150000D01*
G01*
G37*
G36*
G01*
X136927000Y-114531000D02*
X136927000Y-114831000D01*
G75*
G02*
X136777000Y-114981000I-150000J0D01*
G01*
X135127000Y-114981000D01*
G75*
G02*
X134977000Y-114831000I0J150000D01*
G01*
X134977000Y-114531000D01*
G75*
G02*
X135127000Y-114381000I150000J0D01*
G01*
X136777000Y-114381000D01*
G75*
G02*
X136927000Y-114531000I0J-150000D01*
G01*
G37*
G36*
G01*
X136927000Y-115801000D02*
X136927000Y-116101000D01*
G75*
G02*
X136777000Y-116251000I-150000J0D01*
G01*
X135127000Y-116251000D01*
G75*
G02*
X134977000Y-116101000I0J150000D01*
G01*
X134977000Y-115801000D01*
G75*
G02*
X135127000Y-115651000I150000J0D01*
G01*
X136777000Y-115651000D01*
G75*
G02*
X136927000Y-115801000I0J-150000D01*
G01*
G37*
%TD*%
%TO.C,C10*%
G36*
G01*
X139225000Y-117671000D02*
X140175000Y-117671000D01*
G75*
G02*
X140425000Y-117921000I0J-250000D01*
G01*
X140425000Y-118596000D01*
G75*
G02*
X140175000Y-118846000I-250000J0D01*
G01*
X139225000Y-118846000D01*
G75*
G02*
X138975000Y-118596000I0J250000D01*
G01*
X138975000Y-117921000D01*
G75*
G02*
X139225000Y-117671000I250000J0D01*
G01*
G37*
G36*
G01*
X139225000Y-115596000D02*
X140175000Y-115596000D01*
G75*
G02*
X140425000Y-115846000I0J-250000D01*
G01*
X140425000Y-116521000D01*
G75*
G02*
X140175000Y-116771000I-250000J0D01*
G01*
X139225000Y-116771000D01*
G75*
G02*
X138975000Y-116521000I0J250000D01*
G01*
X138975000Y-115846000D01*
G75*
G02*
X139225000Y-115596000I250000J0D01*
G01*
G37*
%TD*%
%TO.C,C9*%
G36*
G01*
X132530000Y-119601000D02*
X132530000Y-118651000D01*
G75*
G02*
X132780000Y-118401000I250000J0D01*
G01*
X133455000Y-118401000D01*
G75*
G02*
X133705000Y-118651000I0J-250000D01*
G01*
X133705000Y-119601000D01*
G75*
G02*
X133455000Y-119851000I-250000J0D01*
G01*
X132780000Y-119851000D01*
G75*
G02*
X132530000Y-119601000I0J250000D01*
G01*
G37*
G36*
G01*
X130455000Y-119601000D02*
X130455000Y-118651000D01*
G75*
G02*
X130705000Y-118401000I250000J0D01*
G01*
X131380000Y-118401000D01*
G75*
G02*
X131630000Y-118651000I0J-250000D01*
G01*
X131630000Y-119601000D01*
G75*
G02*
X131380000Y-119851000I-250000J0D01*
G01*
X130705000Y-119851000D01*
G75*
G02*
X130455000Y-119601000I0J250000D01*
G01*
G37*
%TD*%
%TO.C,U2*%
G36*
G01*
X139354999Y-136200000D02*
X140614997Y-136200000D01*
G75*
G02*
X140809997Y-136395000I0J-195000D01*
G01*
X140809997Y-136655000D01*
G75*
G02*
X140614997Y-136850000I-195000J0D01*
G01*
X139354999Y-136850000D01*
G75*
G02*
X139159999Y-136655000I0J195000D01*
G01*
X139159999Y-136395000D01*
G75*
G02*
X139354999Y-136200000I195000J0D01*
G01*
G37*
G36*
G01*
X139354999Y-134930000D02*
X140614997Y-134930000D01*
G75*
G02*
X140809997Y-135125000I0J-195000D01*
G01*
X140809997Y-135385000D01*
G75*
G02*
X140614997Y-135580000I-195000J0D01*
G01*
X139354999Y-135580000D01*
G75*
G02*
X139159999Y-135385000I0J195000D01*
G01*
X139159999Y-135125000D01*
G75*
G02*
X139354999Y-134930000I195000J0D01*
G01*
G37*
G36*
G01*
X139354999Y-133660000D02*
X140614997Y-133660000D01*
G75*
G02*
X140809997Y-133855000I0J-195000D01*
G01*
X140809997Y-134115000D01*
G75*
G02*
X140614997Y-134310000I-195000J0D01*
G01*
X139354999Y-134310000D01*
G75*
G02*
X139159999Y-134115000I0J195000D01*
G01*
X139159999Y-133855000D01*
G75*
G02*
X139354999Y-133660000I195000J0D01*
G01*
G37*
G36*
G01*
X139354999Y-132390000D02*
X140614997Y-132390000D01*
G75*
G02*
X140809997Y-132585000I0J-195000D01*
G01*
X140809997Y-132845000D01*
G75*
G02*
X140614997Y-133040000I-195000J0D01*
G01*
X139354999Y-133040000D01*
G75*
G02*
X139159999Y-132845000I0J195000D01*
G01*
X139159999Y-132585000D01*
G75*
G02*
X139354999Y-132390000I195000J0D01*
G01*
G37*
G36*
G01*
X139354999Y-131120000D02*
X140614997Y-131120000D01*
G75*
G02*
X140809997Y-131315000I0J-195000D01*
G01*
X140809997Y-131575000D01*
G75*
G02*
X140614997Y-131770000I-195000J0D01*
G01*
X139354999Y-131770000D01*
G75*
G02*
X139159999Y-131575000I0J195000D01*
G01*
X139159999Y-131315000D01*
G75*
G02*
X139354999Y-131120000I195000J0D01*
G01*
G37*
G36*
G01*
X139354999Y-129850000D02*
X140614997Y-129850000D01*
G75*
G02*
X140809997Y-130045000I0J-195000D01*
G01*
X140809997Y-130305000D01*
G75*
G02*
X140614997Y-130500000I-195000J0D01*
G01*
X139354999Y-130500000D01*
G75*
G02*
X139159999Y-130305000I0J195000D01*
G01*
X139159999Y-130045000D01*
G75*
G02*
X139354999Y-129850000I195000J0D01*
G01*
G37*
G36*
G01*
X139354999Y-128580000D02*
X140614997Y-128580000D01*
G75*
G02*
X140809997Y-128775000I0J-195000D01*
G01*
X140809997Y-129035000D01*
G75*
G02*
X140614997Y-129230000I-195000J0D01*
G01*
X139354999Y-129230000D01*
G75*
G02*
X139159999Y-129035000I0J195000D01*
G01*
X139159999Y-128775000D01*
G75*
G02*
X139354999Y-128580000I195000J0D01*
G01*
G37*
G36*
G01*
X139354999Y-127310000D02*
X140614997Y-127310000D01*
G75*
G02*
X140809997Y-127505000I0J-195000D01*
G01*
X140809997Y-127765000D01*
G75*
G02*
X140614997Y-127960000I-195000J0D01*
G01*
X139354999Y-127960000D01*
G75*
G02*
X139159999Y-127765000I0J195000D01*
G01*
X139159999Y-127505000D01*
G75*
G02*
X139354999Y-127310000I195000J0D01*
G01*
G37*
G36*
G01*
X133705000Y-136200000D02*
X134964998Y-136200000D01*
G75*
G02*
X135159998Y-136395000I0J-195000D01*
G01*
X135159998Y-136655000D01*
G75*
G02*
X134964998Y-136850000I-195000J0D01*
G01*
X133705000Y-136850000D01*
G75*
G02*
X133510000Y-136655000I0J195000D01*
G01*
X133510000Y-136395000D01*
G75*
G02*
X133705000Y-136200000I195000J0D01*
G01*
G37*
G36*
G01*
X133705000Y-134930000D02*
X134964998Y-134930000D01*
G75*
G02*
X135159998Y-135125000I0J-195000D01*
G01*
X135159998Y-135385000D01*
G75*
G02*
X134964998Y-135580000I-195000J0D01*
G01*
X133705000Y-135580000D01*
G75*
G02*
X133510000Y-135385000I0J195000D01*
G01*
X133510000Y-135125000D01*
G75*
G02*
X133705000Y-134930000I195000J0D01*
G01*
G37*
G36*
G01*
X133705000Y-133660000D02*
X134964998Y-133660000D01*
G75*
G02*
X135159998Y-133855000I0J-195000D01*
G01*
X135159998Y-134115000D01*
G75*
G02*
X134964998Y-134310000I-195000J0D01*
G01*
X133705000Y-134310000D01*
G75*
G02*
X133510000Y-134115000I0J195000D01*
G01*
X133510000Y-133855000D01*
G75*
G02*
X133705000Y-133660000I195000J0D01*
G01*
G37*
G36*
G01*
X133705000Y-132390000D02*
X134964998Y-132390000D01*
G75*
G02*
X135159998Y-132585000I0J-195000D01*
G01*
X135159998Y-132845000D01*
G75*
G02*
X134964998Y-133040000I-195000J0D01*
G01*
X133705000Y-133040000D01*
G75*
G02*
X133510000Y-132845000I0J195000D01*
G01*
X133510000Y-132585000D01*
G75*
G02*
X133705000Y-132390000I195000J0D01*
G01*
G37*
G36*
G01*
X133705000Y-131120000D02*
X134964998Y-131120000D01*
G75*
G02*
X135159998Y-131315000I0J-195000D01*
G01*
X135159998Y-131575000D01*
G75*
G02*
X134964998Y-131770000I-195000J0D01*
G01*
X133705000Y-131770000D01*
G75*
G02*
X133510000Y-131575000I0J195000D01*
G01*
X133510000Y-131315000D01*
G75*
G02*
X133705000Y-131120000I195000J0D01*
G01*
G37*
G36*
G01*
X133705000Y-129850000D02*
X134964998Y-129850000D01*
G75*
G02*
X135159998Y-130045000I0J-195000D01*
G01*
X135159998Y-130305000D01*
G75*
G02*
X134964998Y-130500000I-195000J0D01*
G01*
X133705000Y-130500000D01*
G75*
G02*
X133510000Y-130305000I0J195000D01*
G01*
X133510000Y-130045000D01*
G75*
G02*
X133705000Y-129850000I195000J0D01*
G01*
G37*
G36*
G01*
X133705000Y-128580000D02*
X134964998Y-128580000D01*
G75*
G02*
X135159998Y-128775000I0J-195000D01*
G01*
X135159998Y-129035000D01*
G75*
G02*
X134964998Y-129230000I-195000J0D01*
G01*
X133705000Y-129230000D01*
G75*
G02*
X133510000Y-129035000I0J195000D01*
G01*
X133510000Y-128775000D01*
G75*
G02*
X133705000Y-128580000I195000J0D01*
G01*
G37*
G36*
G01*
X133705000Y-127310000D02*
X134964998Y-127310000D01*
G75*
G02*
X135159998Y-127505000I0J-195000D01*
G01*
X135159998Y-127765000D01*
G75*
G02*
X134964998Y-127960000I-195000J0D01*
G01*
X133705000Y-127960000D01*
G75*
G02*
X133510000Y-127765000I0J195000D01*
G01*
X133510000Y-127505000D01*
G75*
G02*
X133705000Y-127310000I195000J0D01*
G01*
G37*
%TD*%
%TO.C,R12*%
G36*
G01*
X158515000Y-74110001D02*
X158515000Y-73209999D01*
G75*
G02*
X158764999Y-72960000I249999J0D01*
G01*
X159465001Y-72960000D01*
G75*
G02*
X159715000Y-73209999I0J-249999D01*
G01*
X159715000Y-74110001D01*
G75*
G02*
X159465001Y-74360000I-249999J0D01*
G01*
X158764999Y-74360000D01*
G75*
G02*
X158515000Y-74110001I0J249999D01*
G01*
G37*
G36*
G01*
X156515000Y-74110001D02*
X156515000Y-73209999D01*
G75*
G02*
X156764999Y-72960000I249999J0D01*
G01*
X157465001Y-72960000D01*
G75*
G02*
X157715000Y-73209999I0J-249999D01*
G01*
X157715000Y-74110001D01*
G75*
G02*
X157465001Y-74360000I-249999J0D01*
G01*
X156764999Y-74360000D01*
G75*
G02*
X156515000Y-74110001I0J249999D01*
G01*
G37*
%TD*%
%TO.C,R11*%
G36*
G01*
X108820000Y-70439999D02*
X108820000Y-71340001D01*
G75*
G02*
X108570001Y-71590000I-249999J0D01*
G01*
X107869999Y-71590000D01*
G75*
G02*
X107620000Y-71340001I0J249999D01*
G01*
X107620000Y-70439999D01*
G75*
G02*
X107869999Y-70190000I249999J0D01*
G01*
X108570001Y-70190000D01*
G75*
G02*
X108820000Y-70439999I0J-249999D01*
G01*
G37*
G36*
G01*
X110820000Y-70439999D02*
X110820000Y-71340001D01*
G75*
G02*
X110570001Y-71590000I-249999J0D01*
G01*
X109869999Y-71590000D01*
G75*
G02*
X109620000Y-71340001I0J249999D01*
G01*
X109620000Y-70439999D01*
G75*
G02*
X109869999Y-70190000I249999J0D01*
G01*
X110570001Y-70190000D01*
G75*
G02*
X110820000Y-70439999I0J-249999D01*
G01*
G37*
%TD*%
%TO.C,R10*%
G36*
G01*
X129140000Y-73209999D02*
X129140000Y-74110001D01*
G75*
G02*
X128890001Y-74360000I-249999J0D01*
G01*
X128189999Y-74360000D01*
G75*
G02*
X127940000Y-74110001I0J249999D01*
G01*
X127940000Y-73209999D01*
G75*
G02*
X128189999Y-72960000I249999J0D01*
G01*
X128890001Y-72960000D01*
G75*
G02*
X129140000Y-73209999I0J-249999D01*
G01*
G37*
G36*
G01*
X131140000Y-73209999D02*
X131140000Y-74110001D01*
G75*
G02*
X130890001Y-74360000I-249999J0D01*
G01*
X130189999Y-74360000D01*
G75*
G02*
X129940000Y-74110001I0J249999D01*
G01*
X129940000Y-73209999D01*
G75*
G02*
X130189999Y-72960000I249999J0D01*
G01*
X130890001Y-72960000D01*
G75*
G02*
X131140000Y-73209999I0J-249999D01*
G01*
G37*
%TD*%
%TO.C,R9*%
G36*
G01*
X122790000Y-73209999D02*
X122790000Y-74110001D01*
G75*
G02*
X122540001Y-74360000I-249999J0D01*
G01*
X121839999Y-74360000D01*
G75*
G02*
X121590000Y-74110001I0J249999D01*
G01*
X121590000Y-73209999D01*
G75*
G02*
X121839999Y-72960000I249999J0D01*
G01*
X122540001Y-72960000D01*
G75*
G02*
X122790000Y-73209999I0J-249999D01*
G01*
G37*
G36*
G01*
X124790000Y-73209999D02*
X124790000Y-74110001D01*
G75*
G02*
X124540001Y-74360000I-249999J0D01*
G01*
X123839999Y-74360000D01*
G75*
G02*
X123590000Y-74110001I0J249999D01*
G01*
X123590000Y-73209999D01*
G75*
G02*
X123839999Y-72960000I249999J0D01*
G01*
X124540001Y-72960000D01*
G75*
G02*
X124790000Y-73209999I0J-249999D01*
G01*
G37*
%TD*%
%TO.C,D12*%
G36*
G01*
X158565000Y-70935001D02*
X158565000Y-70034999D01*
G75*
G02*
X158814999Y-69785000I249999J0D01*
G01*
X159465001Y-69785000D01*
G75*
G02*
X159715000Y-70034999I0J-249999D01*
G01*
X159715000Y-70935001D01*
G75*
G02*
X159465001Y-71185000I-249999J0D01*
G01*
X158814999Y-71185000D01*
G75*
G02*
X158565000Y-70935001I0J249999D01*
G01*
G37*
G36*
G01*
X156515000Y-70935001D02*
X156515000Y-70034999D01*
G75*
G02*
X156764999Y-69785000I249999J0D01*
G01*
X157415001Y-69785000D01*
G75*
G02*
X157665000Y-70034999I0J-249999D01*
G01*
X157665000Y-70935001D01*
G75*
G02*
X157415001Y-71185000I-249999J0D01*
G01*
X156764999Y-71185000D01*
G75*
G02*
X156515000Y-70935001I0J249999D01*
G01*
G37*
%TD*%
%TO.C,D11*%
G36*
G01*
X108770000Y-74098999D02*
X108770000Y-74999001D01*
G75*
G02*
X108520001Y-75249000I-249999J0D01*
G01*
X107869999Y-75249000D01*
G75*
G02*
X107620000Y-74999001I0J249999D01*
G01*
X107620000Y-74098999D01*
G75*
G02*
X107869999Y-73849000I249999J0D01*
G01*
X108520001Y-73849000D01*
G75*
G02*
X108770000Y-74098999I0J-249999D01*
G01*
G37*
G36*
G01*
X110820000Y-74098999D02*
X110820000Y-74999001D01*
G75*
G02*
X110570001Y-75249000I-249999J0D01*
G01*
X109919999Y-75249000D01*
G75*
G02*
X109670000Y-74999001I0J249999D01*
G01*
X109670000Y-74098999D01*
G75*
G02*
X109919999Y-73849000I249999J0D01*
G01*
X110570001Y-73849000D01*
G75*
G02*
X110820000Y-74098999I0J-249999D01*
G01*
G37*
%TD*%
%TO.C,D10*%
G36*
G01*
X129090000Y-70034999D02*
X129090000Y-70935001D01*
G75*
G02*
X128840001Y-71185000I-249999J0D01*
G01*
X128189999Y-71185000D01*
G75*
G02*
X127940000Y-70935001I0J249999D01*
G01*
X127940000Y-70034999D01*
G75*
G02*
X128189999Y-69785000I249999J0D01*
G01*
X128840001Y-69785000D01*
G75*
G02*
X129090000Y-70034999I0J-249999D01*
G01*
G37*
G36*
G01*
X131140000Y-70034999D02*
X131140000Y-70935001D01*
G75*
G02*
X130890001Y-71185000I-249999J0D01*
G01*
X130239999Y-71185000D01*
G75*
G02*
X129990000Y-70935001I0J249999D01*
G01*
X129990000Y-70034999D01*
G75*
G02*
X130239999Y-69785000I249999J0D01*
G01*
X130890001Y-69785000D01*
G75*
G02*
X131140000Y-70034999I0J-249999D01*
G01*
G37*
%TD*%
%TO.C,D9*%
G36*
G01*
X122740000Y-70034999D02*
X122740000Y-70935001D01*
G75*
G02*
X122490001Y-71185000I-249999J0D01*
G01*
X121839999Y-71185000D01*
G75*
G02*
X121590000Y-70935001I0J249999D01*
G01*
X121590000Y-70034999D01*
G75*
G02*
X121839999Y-69785000I249999J0D01*
G01*
X122490001Y-69785000D01*
G75*
G02*
X122740000Y-70034999I0J-249999D01*
G01*
G37*
G36*
G01*
X124790000Y-70034999D02*
X124790000Y-70935001D01*
G75*
G02*
X124540001Y-71185000I-249999J0D01*
G01*
X123889999Y-71185000D01*
G75*
G02*
X123640000Y-70935001I0J249999D01*
G01*
X123640000Y-70034999D01*
G75*
G02*
X123889999Y-69785000I249999J0D01*
G01*
X124540001Y-69785000D01*
G75*
G02*
X124790000Y-70034999I0J-249999D01*
G01*
G37*
%TD*%
D12*
%TO.C,TP5*%
X145796000Y-70612000D03*
%TD*%
%TO.C,TP4*%
X182626000Y-70104000D03*
%TD*%
%TO.C,TP3*%
X149860000Y-70612000D03*
%TD*%
%TO.C,TP2*%
X153924000Y-70612000D03*
%TD*%
%TO.C,TP1*%
X186436000Y-70104000D03*
%TD*%
D18*
%TO.C,M8*%
X188415000Y-136609000D03*
%TD*%
%TO.C,M7*%
X188415000Y-78609000D03*
%TD*%
%TO.C,M6*%
X165288000Y-136609000D03*
%TD*%
%TO.C,M5*%
X165098000Y-79244000D03*
%TD*%
%TO.C,R4*%
G36*
G01*
X133950000Y-73209999D02*
X133950000Y-74110001D01*
G75*
G02*
X133700001Y-74360000I-249999J0D01*
G01*
X132999999Y-74360000D01*
G75*
G02*
X132750000Y-74110001I0J249999D01*
G01*
X132750000Y-73209999D01*
G75*
G02*
X132999999Y-72960000I249999J0D01*
G01*
X133700001Y-72960000D01*
G75*
G02*
X133950000Y-73209999I0J-249999D01*
G01*
G37*
G36*
G01*
X135950000Y-73209999D02*
X135950000Y-74110001D01*
G75*
G02*
X135700001Y-74360000I-249999J0D01*
G01*
X134999999Y-74360000D01*
G75*
G02*
X134750000Y-74110001I0J249999D01*
G01*
X134750000Y-73209999D01*
G75*
G02*
X134999999Y-72960000I249999J0D01*
G01*
X135700001Y-72960000D01*
G75*
G02*
X135950000Y-73209999I0J-249999D01*
G01*
G37*
%TD*%
%TO.C,R3*%
G36*
G01*
X138935000Y-73209999D02*
X138935000Y-74110001D01*
G75*
G02*
X138685001Y-74360000I-249999J0D01*
G01*
X137984999Y-74360000D01*
G75*
G02*
X137735000Y-74110001I0J249999D01*
G01*
X137735000Y-73209999D01*
G75*
G02*
X137984999Y-72960000I249999J0D01*
G01*
X138685001Y-72960000D01*
G75*
G02*
X138935000Y-73209999I0J-249999D01*
G01*
G37*
G36*
G01*
X140935000Y-73209999D02*
X140935000Y-74110001D01*
G75*
G02*
X140685001Y-74360000I-249999J0D01*
G01*
X139984999Y-74360000D01*
G75*
G02*
X139735000Y-74110001I0J249999D01*
G01*
X139735000Y-73209999D01*
G75*
G02*
X139984999Y-72960000I249999J0D01*
G01*
X140685001Y-72960000D01*
G75*
G02*
X140935000Y-73209999I0J-249999D01*
G01*
G37*
%TD*%
D19*
%TO.C,JP4*%
X153005000Y-107950000D03*
X154305000Y-107950000D03*
X155605000Y-107950000D03*
%TD*%
%TO.C,JP3*%
X144115000Y-107950000D03*
X145415000Y-107950000D03*
X146715000Y-107950000D03*
%TD*%
%TO.C,JP2*%
X153005000Y-101685000D03*
X154305000Y-101685000D03*
X155605000Y-101685000D03*
%TD*%
%TO.C,JP1*%
X144115000Y-101600000D03*
X145415000Y-101600000D03*
X146715000Y-101600000D03*
%TD*%
%TO.C,D4*%
G36*
G01*
X133916000Y-69907999D02*
X133916000Y-70808001D01*
G75*
G02*
X133666001Y-71058000I-249999J0D01*
G01*
X133015999Y-71058000D01*
G75*
G02*
X132766000Y-70808001I0J249999D01*
G01*
X132766000Y-69907999D01*
G75*
G02*
X133015999Y-69658000I249999J0D01*
G01*
X133666001Y-69658000D01*
G75*
G02*
X133916000Y-69907999I0J-249999D01*
G01*
G37*
G36*
G01*
X135966000Y-69907999D02*
X135966000Y-70808001D01*
G75*
G02*
X135716001Y-71058000I-249999J0D01*
G01*
X135065999Y-71058000D01*
G75*
G02*
X134816000Y-70808001I0J249999D01*
G01*
X134816000Y-69907999D01*
G75*
G02*
X135065999Y-69658000I249999J0D01*
G01*
X135716001Y-69658000D01*
G75*
G02*
X135966000Y-69907999I0J-249999D01*
G01*
G37*
%TD*%
%TO.C,D3*%
G36*
G01*
X138869000Y-69907999D02*
X138869000Y-70808001D01*
G75*
G02*
X138619001Y-71058000I-249999J0D01*
G01*
X137968999Y-71058000D01*
G75*
G02*
X137719000Y-70808001I0J249999D01*
G01*
X137719000Y-69907999D01*
G75*
G02*
X137968999Y-69658000I249999J0D01*
G01*
X138619001Y-69658000D01*
G75*
G02*
X138869000Y-69907999I0J-249999D01*
G01*
G37*
G36*
G01*
X140919000Y-69907999D02*
X140919000Y-70808001D01*
G75*
G02*
X140669001Y-71058000I-249999J0D01*
G01*
X140018999Y-71058000D01*
G75*
G02*
X139769000Y-70808001I0J249999D01*
G01*
X139769000Y-69907999D01*
G75*
G02*
X140018999Y-69658000I249999J0D01*
G01*
X140669001Y-69658000D01*
G75*
G02*
X140919000Y-69907999I0J-249999D01*
G01*
G37*
%TD*%
D20*
%TO.C,M4*%
X191926000Y-143664000D03*
D21*
X191926000Y-143664000D03*
%TD*%
D20*
%TO.C,M3*%
X111916000Y-143664000D03*
D21*
X111916000Y-143664000D03*
%TD*%
D20*
%TO.C,M2*%
X189386000Y-57939000D03*
D21*
X189386000Y-57939000D03*
%TD*%
D20*
%TO.C,M1*%
X115726000Y-57939000D03*
D21*
X115726000Y-57939000D03*
%TD*%
D22*
%TO.C,J4*%
X114006000Y-75639000D03*
X114006000Y-74389000D03*
X114006000Y-73139000D03*
X114006000Y-71889000D03*
X114006000Y-70639000D03*
X114006000Y-69389000D03*
X114006000Y-68139000D03*
X114006000Y-66889000D03*
X114006000Y-65639000D03*
%TD*%
D16*
%TO.C,J3*%
X120015000Y-107950000D03*
X117475000Y-107950000D03*
X120015000Y-105410000D03*
X117475000Y-105410000D03*
X120015000Y-102870000D03*
X117475000Y-102870000D03*
X120015000Y-100330000D03*
X117475000Y-100330000D03*
X120015000Y-97790000D03*
X117475000Y-97790000D03*
X120015000Y-95250000D03*
X117475000Y-95250000D03*
X120015000Y-92710000D03*
X117475000Y-92710000D03*
X120015000Y-90170000D03*
X117475000Y-90170000D03*
X120015000Y-87630000D03*
X117475000Y-87630000D03*
X120015000Y-85090000D03*
D17*
X117475000Y-85090000D03*
%TD*%
D16*
%TO.C,J2*%
X117475000Y-116840000D03*
X120015000Y-116840000D03*
X117475000Y-119380000D03*
X120015000Y-119380000D03*
X117475000Y-121920000D03*
X120015000Y-121920000D03*
X117475000Y-124460000D03*
X120015000Y-124460000D03*
X117475000Y-127000000D03*
X120015000Y-127000000D03*
X117475000Y-129540000D03*
X120015000Y-129540000D03*
X117475000Y-132080000D03*
X120015000Y-132080000D03*
X117475000Y-134620000D03*
D17*
X120015000Y-134620000D03*
%TD*%
D23*
%TO.C,H2*%
X184306000Y-57939000D03*
X184306000Y-60479000D03*
X181766000Y-57939000D03*
X181766000Y-60479000D03*
X179226000Y-57939000D03*
X179226000Y-60479000D03*
X176686000Y-57939000D03*
X176686000Y-60479000D03*
X174146000Y-57939000D03*
X174146000Y-60479000D03*
X171606000Y-57939000D03*
X171606000Y-60479000D03*
X169066000Y-57939000D03*
X169066000Y-60479000D03*
X166526000Y-57939000D03*
X166526000Y-60479000D03*
X163986000Y-57939000D03*
X163986000Y-60479000D03*
X161446000Y-57939000D03*
X161446000Y-60479000D03*
X158906000Y-57939000D03*
X158906000Y-60479000D03*
X156366000Y-57939000D03*
X156366000Y-60479000D03*
X153826000Y-57939000D03*
X153826000Y-60479000D03*
X151286000Y-57939000D03*
X151286000Y-60479000D03*
X148746000Y-57939000D03*
X148746000Y-60479000D03*
X146206000Y-57939000D03*
X146206000Y-60479000D03*
X143666000Y-57939000D03*
X143666000Y-60479000D03*
X141126000Y-57939000D03*
X141126000Y-60479000D03*
X138586000Y-57939000D03*
X138586000Y-60479000D03*
X136046000Y-57939000D03*
X136046000Y-60479000D03*
X133506000Y-57939000D03*
X133506000Y-60479000D03*
X130966000Y-57939000D03*
X130966000Y-60479000D03*
X128426000Y-57939000D03*
X128426000Y-60479000D03*
X125886000Y-57939000D03*
X125886000Y-60479000D03*
X123346000Y-57939000D03*
X123346000Y-60479000D03*
X120806000Y-57939000D03*
D24*
X120806000Y-60479000D03*
%TD*%
D23*
%TO.C,H1*%
X184306000Y-63019000D03*
X184306000Y-65559000D03*
X181766000Y-63019000D03*
X181766000Y-65559000D03*
X179226000Y-63019000D03*
X179226000Y-65559000D03*
X176686000Y-63019000D03*
X176686000Y-65559000D03*
X174146000Y-63019000D03*
X174146000Y-65559000D03*
X171606000Y-63019000D03*
X171606000Y-65559000D03*
X169066000Y-63019000D03*
X169066000Y-65559000D03*
X166526000Y-63019000D03*
X166526000Y-65559000D03*
X163986000Y-63019000D03*
X163986000Y-65559000D03*
X161446000Y-63019000D03*
X161446000Y-65559000D03*
X158906000Y-63019000D03*
X158906000Y-65559000D03*
X156366000Y-63019000D03*
X156366000Y-65559000D03*
X153826000Y-63019000D03*
X153826000Y-65559000D03*
X151286000Y-63019000D03*
X151286000Y-65559000D03*
X148746000Y-63019000D03*
X148746000Y-65559000D03*
X146206000Y-63019000D03*
X146206000Y-65559000D03*
X143666000Y-63019000D03*
X143666000Y-65559000D03*
X141126000Y-63019000D03*
X141126000Y-65559000D03*
X138586000Y-63019000D03*
X138586000Y-65559000D03*
X136046000Y-63019000D03*
X136046000Y-65559000D03*
X133506000Y-63019000D03*
X133506000Y-65559000D03*
X130966000Y-63019000D03*
X130966000Y-65559000D03*
X128426000Y-63019000D03*
X128426000Y-65559000D03*
X125886000Y-63019000D03*
X125886000Y-65559000D03*
X123346000Y-63019000D03*
X123346000Y-65559000D03*
X120806000Y-63019000D03*
D24*
X120806000Y-65559000D03*
%TD*%
%TO.C,C5*%
G36*
G01*
X142400000Y-128720000D02*
X143350000Y-128720000D01*
G75*
G02*
X143600000Y-128970000I0J-250000D01*
G01*
X143600000Y-129645000D01*
G75*
G02*
X143350000Y-129895000I-250000J0D01*
G01*
X142400000Y-129895000D01*
G75*
G02*
X142150000Y-129645000I0J250000D01*
G01*
X142150000Y-128970000D01*
G75*
G02*
X142400000Y-128720000I250000J0D01*
G01*
G37*
G36*
G01*
X142400000Y-126645000D02*
X143350000Y-126645000D01*
G75*
G02*
X143600000Y-126895000I0J-250000D01*
G01*
X143600000Y-127570000D01*
G75*
G02*
X143350000Y-127820000I-250000J0D01*
G01*
X142400000Y-127820000D01*
G75*
G02*
X142150000Y-127570000I0J250000D01*
G01*
X142150000Y-126895000D01*
G75*
G02*
X142400000Y-126645000I250000J0D01*
G01*
G37*
%TD*%
%TO.C,C4*%
G36*
G01*
X131285000Y-137345000D02*
X130335000Y-137345000D01*
G75*
G02*
X130085000Y-137095000I0J250000D01*
G01*
X130085000Y-136420000D01*
G75*
G02*
X130335000Y-136170000I250000J0D01*
G01*
X131285000Y-136170000D01*
G75*
G02*
X131535000Y-136420000I0J-250000D01*
G01*
X131535000Y-137095000D01*
G75*
G02*
X131285000Y-137345000I-250000J0D01*
G01*
G37*
G36*
G01*
X131285000Y-139420000D02*
X130335000Y-139420000D01*
G75*
G02*
X130085000Y-139170000I0J250000D01*
G01*
X130085000Y-138495000D01*
G75*
G02*
X130335000Y-138245000I250000J0D01*
G01*
X131285000Y-138245000D01*
G75*
G02*
X131535000Y-138495000I0J-250000D01*
G01*
X131535000Y-139170000D01*
G75*
G02*
X131285000Y-139420000I-250000J0D01*
G01*
G37*
%TD*%
%TO.C,C3*%
G36*
G01*
X135937500Y-125570000D02*
X135937500Y-124620000D01*
G75*
G02*
X136187500Y-124370000I250000J0D01*
G01*
X136862500Y-124370000D01*
G75*
G02*
X137112500Y-124620000I0J-250000D01*
G01*
X137112500Y-125570000D01*
G75*
G02*
X136862500Y-125820000I-250000J0D01*
G01*
X136187500Y-125820000D01*
G75*
G02*
X135937500Y-125570000I0J250000D01*
G01*
G37*
G36*
G01*
X133862500Y-125570000D02*
X133862500Y-124620000D01*
G75*
G02*
X134112500Y-124370000I250000J0D01*
G01*
X134787500Y-124370000D01*
G75*
G02*
X135037500Y-124620000I0J-250000D01*
G01*
X135037500Y-125570000D01*
G75*
G02*
X134787500Y-125820000I-250000J0D01*
G01*
X134112500Y-125820000D01*
G75*
G02*
X133862500Y-125570000I0J250000D01*
G01*
G37*
%TD*%
%TO.C,C2*%
G36*
G01*
X130335000Y-133165000D02*
X131285000Y-133165000D01*
G75*
G02*
X131535000Y-133415000I0J-250000D01*
G01*
X131535000Y-134090000D01*
G75*
G02*
X131285000Y-134340000I-250000J0D01*
G01*
X130335000Y-134340000D01*
G75*
G02*
X130085000Y-134090000I0J250000D01*
G01*
X130085000Y-133415000D01*
G75*
G02*
X130335000Y-133165000I250000J0D01*
G01*
G37*
G36*
G01*
X130335000Y-131090000D02*
X131285000Y-131090000D01*
G75*
G02*
X131535000Y-131340000I0J-250000D01*
G01*
X131535000Y-132015000D01*
G75*
G02*
X131285000Y-132265000I-250000J0D01*
G01*
X130335000Y-132265000D01*
G75*
G02*
X130085000Y-132015000I0J250000D01*
G01*
X130085000Y-131340000D01*
G75*
G02*
X130335000Y-131090000I250000J0D01*
G01*
G37*
%TD*%
%TO.C,C1*%
G36*
G01*
X131285000Y-127185000D02*
X130335000Y-127185000D01*
G75*
G02*
X130085000Y-126935000I0J250000D01*
G01*
X130085000Y-126260000D01*
G75*
G02*
X130335000Y-126010000I250000J0D01*
G01*
X131285000Y-126010000D01*
G75*
G02*
X131535000Y-126260000I0J-250000D01*
G01*
X131535000Y-126935000D01*
G75*
G02*
X131285000Y-127185000I-250000J0D01*
G01*
G37*
G36*
G01*
X131285000Y-129260000D02*
X130335000Y-129260000D01*
G75*
G02*
X130085000Y-129010000I0J250000D01*
G01*
X130085000Y-128335000D01*
G75*
G02*
X130335000Y-128085000I250000J0D01*
G01*
X131285000Y-128085000D01*
G75*
G02*
X131535000Y-128335000I0J-250000D01*
G01*
X131535000Y-129010000D01*
G75*
G02*
X131285000Y-129260000I-250000J0D01*
G01*
G37*
%TD*%
M02*
