%TF.GenerationSoftware,KiCad,Pcbnew,(5.1.9)-1*%
%TF.CreationDate,2021-11-11T22:19:01-05:00*%
%TF.ProjectId,REVERB Interface,52455645-5242-4204-996e-746572666163,rev?*%
%TF.SameCoordinates,Original*%
%TF.FileFunction,Paste,Bot*%
%TF.FilePolarity,Positive*%
%FSLAX46Y46*%
G04 Gerber Fmt 4.6, Leading zero omitted, Abs format (unit mm)*
G04 Created by KiCad (PCBNEW (5.1.9)-1) date 2021-11-11 22:19:01*
%MOMM*%
%LPD*%
G01*
G04 APERTURE LIST*
%ADD10C,0.150000*%
G04 APERTURE END LIST*
%TO.C,J1*%
D10*
X172386666Y-131532380D02*
X172386666Y-132246666D01*
X172339047Y-132389523D01*
X172243809Y-132484761D01*
X172100952Y-132532380D01*
X172005714Y-132532380D01*
X173386666Y-132532380D02*
X172815238Y-132532380D01*
X173100952Y-132532380D02*
X173100952Y-131532380D01*
X173005714Y-131675238D01*
X172910476Y-131770476D01*
X172815238Y-131818095D01*
%TD*%
%TO.C,C23*%
G36*
G01*
X160364999Y-122075000D02*
X162215001Y-122075000D01*
G75*
G02*
X162465000Y-122324999I0J-249999D01*
G01*
X162465000Y-124075001D01*
G75*
G02*
X162215001Y-124325000I-249999J0D01*
G01*
X160364999Y-124325000D01*
G75*
G02*
X160115000Y-124075001I0J249999D01*
G01*
X160115000Y-122324999D01*
G75*
G02*
X160364999Y-122075000I249999J0D01*
G01*
G37*
G36*
G01*
X160364999Y-116975000D02*
X162215001Y-116975000D01*
G75*
G02*
X162465000Y-117224999I0J-249999D01*
G01*
X162465000Y-118975001D01*
G75*
G02*
X162215001Y-119225000I-249999J0D01*
G01*
X160364999Y-119225000D01*
G75*
G02*
X160115000Y-118975001I0J249999D01*
G01*
X160115000Y-117224999D01*
G75*
G02*
X160364999Y-116975000I249999J0D01*
G01*
G37*
%TD*%
%TO.C,C22*%
G36*
G01*
X136751000Y-122518999D02*
X136751000Y-124369001D01*
G75*
G02*
X136501001Y-124619000I-249999J0D01*
G01*
X134750999Y-124619000D01*
G75*
G02*
X134501000Y-124369001I0J249999D01*
G01*
X134501000Y-122518999D01*
G75*
G02*
X134750999Y-122269000I249999J0D01*
G01*
X136501001Y-122269000D01*
G75*
G02*
X136751000Y-122518999I0J-249999D01*
G01*
G37*
G36*
G01*
X141851000Y-122518999D02*
X141851000Y-124369001D01*
G75*
G02*
X141601001Y-124619000I-249999J0D01*
G01*
X139850999Y-124619000D01*
G75*
G02*
X139601000Y-124369001I0J249999D01*
G01*
X139601000Y-122518999D01*
G75*
G02*
X139850999Y-122269000I249999J0D01*
G01*
X141601001Y-122269000D01*
G75*
G02*
X141851000Y-122518999I0J-249999D01*
G01*
G37*
%TD*%
%TO.C,C21*%
G36*
G01*
X112250000Y-104484999D02*
X112250000Y-106335001D01*
G75*
G02*
X112000001Y-106585000I-249999J0D01*
G01*
X110249999Y-106585000D01*
G75*
G02*
X110000000Y-106335001I0J249999D01*
G01*
X110000000Y-104484999D01*
G75*
G02*
X110249999Y-104235000I249999J0D01*
G01*
X112000001Y-104235000D01*
G75*
G02*
X112250000Y-104484999I0J-249999D01*
G01*
G37*
G36*
G01*
X117350000Y-104484999D02*
X117350000Y-106335001D01*
G75*
G02*
X117100001Y-106585000I-249999J0D01*
G01*
X115349999Y-106585000D01*
G75*
G02*
X115100000Y-106335001I0J249999D01*
G01*
X115100000Y-104484999D01*
G75*
G02*
X115349999Y-104235000I249999J0D01*
G01*
X117100001Y-104235000D01*
G75*
G02*
X117350000Y-104484999I0J-249999D01*
G01*
G37*
%TD*%
%TO.C,C20*%
G36*
G01*
X111590000Y-98669999D02*
X111590000Y-100720001D01*
G75*
G02*
X111340001Y-100970000I-249999J0D01*
G01*
X109589999Y-100970000D01*
G75*
G02*
X109340000Y-100720001I0J249999D01*
G01*
X109340000Y-98669999D01*
G75*
G02*
X109589999Y-98420000I249999J0D01*
G01*
X111340001Y-98420000D01*
G75*
G02*
X111590000Y-98669999I0J-249999D01*
G01*
G37*
G36*
G01*
X117990000Y-98669999D02*
X117990000Y-100720001D01*
G75*
G02*
X117740001Y-100970000I-249999J0D01*
G01*
X115989999Y-100970000D01*
G75*
G02*
X115740000Y-100720001I0J249999D01*
G01*
X115740000Y-98669999D01*
G75*
G02*
X115989999Y-98420000I249999J0D01*
G01*
X117740001Y-98420000D01*
G75*
G02*
X117990000Y-98669999I0J-249999D01*
G01*
G37*
%TD*%
%TO.C,C19*%
G36*
G01*
X173699999Y-73815000D02*
X175550001Y-73815000D01*
G75*
G02*
X175800000Y-74064999I0J-249999D01*
G01*
X175800000Y-75815001D01*
G75*
G02*
X175550001Y-76065000I-249999J0D01*
G01*
X173699999Y-76065000D01*
G75*
G02*
X173450000Y-75815001I0J249999D01*
G01*
X173450000Y-74064999D01*
G75*
G02*
X173699999Y-73815000I249999J0D01*
G01*
G37*
G36*
G01*
X173699999Y-68715000D02*
X175550001Y-68715000D01*
G75*
G02*
X175800000Y-68964999I0J-249999D01*
G01*
X175800000Y-70715001D01*
G75*
G02*
X175550001Y-70965000I-249999J0D01*
G01*
X173699999Y-70965000D01*
G75*
G02*
X173450000Y-70715001I0J249999D01*
G01*
X173450000Y-68964999D01*
G75*
G02*
X173699999Y-68715000I249999J0D01*
G01*
G37*
%TD*%
%TO.C,C18*%
G36*
G01*
X167884999Y-74465000D02*
X169935001Y-74465000D01*
G75*
G02*
X170185000Y-74714999I0J-249999D01*
G01*
X170185000Y-76465001D01*
G75*
G02*
X169935001Y-76715000I-249999J0D01*
G01*
X167884999Y-76715000D01*
G75*
G02*
X167635000Y-76465001I0J249999D01*
G01*
X167635000Y-74714999D01*
G75*
G02*
X167884999Y-74465000I249999J0D01*
G01*
G37*
G36*
G01*
X167884999Y-68065000D02*
X169935001Y-68065000D01*
G75*
G02*
X170185000Y-68314999I0J-249999D01*
G01*
X170185000Y-70065001D01*
G75*
G02*
X169935001Y-70315000I-249999J0D01*
G01*
X167884999Y-70315000D01*
G75*
G02*
X167635000Y-70065001I0J249999D01*
G01*
X167635000Y-68314999D01*
G75*
G02*
X167884999Y-68065000I249999J0D01*
G01*
G37*
%TD*%
%TO.C,C17*%
G36*
G01*
X161534999Y-74465000D02*
X163585001Y-74465000D01*
G75*
G02*
X163835000Y-74714999I0J-249999D01*
G01*
X163835000Y-76465001D01*
G75*
G02*
X163585001Y-76715000I-249999J0D01*
G01*
X161534999Y-76715000D01*
G75*
G02*
X161285000Y-76465001I0J249999D01*
G01*
X161285000Y-74714999D01*
G75*
G02*
X161534999Y-74465000I249999J0D01*
G01*
G37*
G36*
G01*
X161534999Y-68065000D02*
X163585001Y-68065000D01*
G75*
G02*
X163835000Y-68314999I0J-249999D01*
G01*
X163835000Y-70065001D01*
G75*
G02*
X163585001Y-70315000I-249999J0D01*
G01*
X161534999Y-70315000D01*
G75*
G02*
X161285000Y-70065001I0J249999D01*
G01*
X161285000Y-68314999D01*
G75*
G02*
X161534999Y-68065000I249999J0D01*
G01*
G37*
%TD*%
%TO.C,C16*%
G36*
G01*
X144300000Y-88809001D02*
X144300000Y-86958999D01*
G75*
G02*
X144549999Y-86709000I249999J0D01*
G01*
X146300001Y-86709000D01*
G75*
G02*
X146550000Y-86958999I0J-249999D01*
G01*
X146550000Y-88809001D01*
G75*
G02*
X146300001Y-89059000I-249999J0D01*
G01*
X144549999Y-89059000D01*
G75*
G02*
X144300000Y-88809001I0J249999D01*
G01*
G37*
G36*
G01*
X139200000Y-88809001D02*
X139200000Y-86958999D01*
G75*
G02*
X139449999Y-86709000I249999J0D01*
G01*
X141200001Y-86709000D01*
G75*
G02*
X141450000Y-86958999I0J-249999D01*
G01*
X141450000Y-88809001D01*
G75*
G02*
X141200001Y-89059000I-249999J0D01*
G01*
X139449999Y-89059000D01*
G75*
G02*
X139200000Y-88809001I0J249999D01*
G01*
G37*
%TD*%
%TO.C,C15*%
G36*
G01*
X115090000Y-86650001D02*
X115090000Y-84799999D01*
G75*
G02*
X115339999Y-84550000I249999J0D01*
G01*
X117090001Y-84550000D01*
G75*
G02*
X117340000Y-84799999I0J-249999D01*
G01*
X117340000Y-86650001D01*
G75*
G02*
X117090001Y-86900000I-249999J0D01*
G01*
X115339999Y-86900000D01*
G75*
G02*
X115090000Y-86650001I0J249999D01*
G01*
G37*
G36*
G01*
X109990000Y-86650001D02*
X109990000Y-84799999D01*
G75*
G02*
X110239999Y-84550000I249999J0D01*
G01*
X111990001Y-84550000D01*
G75*
G02*
X112240000Y-84799999I0J-249999D01*
G01*
X112240000Y-86650001D01*
G75*
G02*
X111990001Y-86900000I-249999J0D01*
G01*
X110239999Y-86900000D01*
G75*
G02*
X109990000Y-86650001I0J249999D01*
G01*
G37*
%TD*%
%TO.C,C14*%
G36*
G01*
X112240000Y-131154999D02*
X112240000Y-133005001D01*
G75*
G02*
X111990001Y-133255000I-249999J0D01*
G01*
X110239999Y-133255000D01*
G75*
G02*
X109990000Y-133005001I0J249999D01*
G01*
X109990000Y-131154999D01*
G75*
G02*
X110239999Y-130905000I249999J0D01*
G01*
X111990001Y-130905000D01*
G75*
G02*
X112240000Y-131154999I0J-249999D01*
G01*
G37*
G36*
G01*
X117340000Y-131154999D02*
X117340000Y-133005001D01*
G75*
G02*
X117090001Y-133255000I-249999J0D01*
G01*
X115339999Y-133255000D01*
G75*
G02*
X115090000Y-133005001I0J249999D01*
G01*
X115090000Y-131154999D01*
G75*
G02*
X115339999Y-130905000I249999J0D01*
G01*
X117090001Y-130905000D01*
G75*
G02*
X117340000Y-131154999I0J-249999D01*
G01*
G37*
%TD*%
%TO.C,C13*%
G36*
G01*
X111590000Y-125339999D02*
X111590000Y-127390001D01*
G75*
G02*
X111340001Y-127640000I-249999J0D01*
G01*
X109589999Y-127640000D01*
G75*
G02*
X109340000Y-127390001I0J249999D01*
G01*
X109340000Y-125339999D01*
G75*
G02*
X109589999Y-125090000I249999J0D01*
G01*
X111340001Y-125090000D01*
G75*
G02*
X111590000Y-125339999I0J-249999D01*
G01*
G37*
G36*
G01*
X117990000Y-125339999D02*
X117990000Y-127390001D01*
G75*
G02*
X117740001Y-127640000I-249999J0D01*
G01*
X115989999Y-127640000D01*
G75*
G02*
X115740000Y-127390001I0J249999D01*
G01*
X115740000Y-125339999D01*
G75*
G02*
X115989999Y-125090000I249999J0D01*
G01*
X117740001Y-125090000D01*
G75*
G02*
X117990000Y-125339999I0J-249999D01*
G01*
G37*
%TD*%
%TO.C,C12*%
G36*
G01*
X183035000Y-131100001D02*
X183035000Y-129249999D01*
G75*
G02*
X183284999Y-129000000I249999J0D01*
G01*
X185035001Y-129000000D01*
G75*
G02*
X185285000Y-129249999I0J-249999D01*
G01*
X185285000Y-131100001D01*
G75*
G02*
X185035001Y-131350000I-249999J0D01*
G01*
X183284999Y-131350000D01*
G75*
G02*
X183035000Y-131100001I0J249999D01*
G01*
G37*
G36*
G01*
X177935000Y-131100001D02*
X177935000Y-129249999D01*
G75*
G02*
X178184999Y-129000000I249999J0D01*
G01*
X179935001Y-129000000D01*
G75*
G02*
X180185000Y-129249999I0J-249999D01*
G01*
X180185000Y-131100001D01*
G75*
G02*
X179935001Y-131350000I-249999J0D01*
G01*
X178184999Y-131350000D01*
G75*
G02*
X177935000Y-131100001I0J249999D01*
G01*
G37*
%TD*%
%TO.C,C9*%
G36*
G01*
X183035000Y-126020001D02*
X183035000Y-124169999D01*
G75*
G02*
X183284999Y-123920000I249999J0D01*
G01*
X185035001Y-123920000D01*
G75*
G02*
X185285000Y-124169999I0J-249999D01*
G01*
X185285000Y-126020001D01*
G75*
G02*
X185035001Y-126270000I-249999J0D01*
G01*
X183284999Y-126270000D01*
G75*
G02*
X183035000Y-126020001I0J249999D01*
G01*
G37*
G36*
G01*
X177935000Y-126020001D02*
X177935000Y-124169999D01*
G75*
G02*
X178184999Y-123920000I249999J0D01*
G01*
X179935001Y-123920000D01*
G75*
G02*
X180185000Y-124169999I0J-249999D01*
G01*
X180185000Y-126020001D01*
G75*
G02*
X179935001Y-126270000I-249999J0D01*
G01*
X178184999Y-126270000D01*
G75*
G02*
X177935000Y-126020001I0J249999D01*
G01*
G37*
%TD*%
%TO.C,C8*%
G36*
G01*
X183685000Y-120405001D02*
X183685000Y-118354999D01*
G75*
G02*
X183934999Y-118105000I249999J0D01*
G01*
X185685001Y-118105000D01*
G75*
G02*
X185935000Y-118354999I0J-249999D01*
G01*
X185935000Y-120405001D01*
G75*
G02*
X185685001Y-120655000I-249999J0D01*
G01*
X183934999Y-120655000D01*
G75*
G02*
X183685000Y-120405001I0J249999D01*
G01*
G37*
G36*
G01*
X177285000Y-120405001D02*
X177285000Y-118354999D01*
G75*
G02*
X177534999Y-118105000I249999J0D01*
G01*
X179285001Y-118105000D01*
G75*
G02*
X179535000Y-118354999I0J-249999D01*
G01*
X179535000Y-120405001D01*
G75*
G02*
X179285001Y-120655000I-249999J0D01*
G01*
X177534999Y-120655000D01*
G75*
G02*
X177285000Y-120405001I0J249999D01*
G01*
G37*
%TD*%
M02*
