M48
; DRILL file {KiCad (5.1.9)-1} date 11/26/21 18:08:00
; FORMAT={-:-/ absolute / inch / decimal}
; #@! TF.CreationDate,2021-11-26T18:08:00-05:00
; #@! TF.GenerationSoftware,Kicad,Pcbnew,(5.1.9)-1
; #@! TF.FileFunction,Plated,1,2,PTH
FMAT,2
INCH
T1C0.0157
T2C0.0197
T3C0.0300
T4C0.0394
T5C0.1260
%
G90
G05
T1
X4.33Y-3.01
X4.8Y-3.05
X4.85Y-3.0
X4.89Y-2.685
X4.91Y-3.52
X4.9411Y-3.63
X5.0724Y-3.022
X5.1Y-3.075
X5.12Y-3.28
X5.17Y-3.51
X5.23Y-3.38
X5.285Y-2.685
X5.34Y-3.48
X5.45Y-4.3
X5.46Y-4.37
X5.485Y-2.69
X5.54Y-4.05
X5.62Y-4.19
X5.65Y-2.85
X5.675Y-2.9
X5.675Y-4.4
X5.675Y-4.55
X5.725Y-4.575
X5.75Y-4.4
X5.7762Y-4.0762
X5.92Y-4.76
X5.925Y-3.575
X5.97Y-4.56
X5.97Y-4.66
X6.02Y-5.33
X6.03Y-4.57
X6.105Y-5.205
X6.1262Y-4.1238
X6.165Y-2.695
X6.26Y-5.27
X6.26Y-5.22
X6.37Y-5.2
X6.37Y-5.11
X6.4087Y-2.8513
X6.4487Y-2.8913
X6.46Y-2.8
X6.5Y-2.84
X6.71Y-5.025
X6.7489Y-4.88
X6.79Y-3.91
X6.8Y-3.86
X6.8Y-4.1278
X6.84Y-4.1
X6.84Y-4.225
X6.88Y-4.32
X6.96Y-3.45
X6.96Y-4.7
X6.99Y-4.42
X7.06Y-4.72
X7.07Y-2.94
X7.09Y-4.25
X7.11Y-3.5
X7.1698Y-4.4802
X7.17Y-4.25
X7.27Y-2.88
T2
X4.3909Y-3.0391
X4.425Y-4.425
X4.4884Y-2.5842
X4.4884Y-2.6334
X4.4884Y-2.6826
X4.4884Y-2.7319
X4.4884Y-2.7811
X4.4884Y-2.8303
X4.4884Y-2.8795
X4.4884Y-2.9287
X4.4884Y-2.9779
X4.5Y-5.325
X4.575Y-4.425
X5.15Y-5.55
X5.225Y-4.925
X5.31Y-4.69
X5.35Y-4.19
X5.43Y-4.655
X5.6Y-5.175
X5.625Y-4.865
X5.7Y-5.27
X5.825Y-4.675
X5.825Y-4.87
X5.825Y-5.27
X5.9Y-4.055
X5.9Y-4.185
X6.01Y-2.66
X6.18Y-4.71
X6.18Y-4.84
X6.19Y-4.61
X6.37Y-4.4
X6.37Y-4.55
X6.66Y-5.18
X6.685Y-5.4
X6.85Y-5.54
T3
X5.525Y-3.725
X5.625Y-3.725
X5.725Y-3.725
X5.825Y-3.725
X5.925Y-3.725
X6.025Y-3.725
T4
X4.625Y-3.35
X4.625Y-3.45
X4.625Y-3.55
X4.625Y-3.65
X4.625Y-3.75
X4.625Y-3.85
X4.625Y-3.95
X4.625Y-4.05
X4.625Y-4.15
X4.625Y-4.25
X4.625Y-4.6
X4.625Y-4.7
X4.625Y-4.8
X4.625Y-4.9
X4.625Y-5.0
X4.625Y-5.1
X4.625Y-5.2
X4.625Y-5.3
X4.725Y-3.35
X4.725Y-3.45
X4.725Y-3.55
X4.725Y-3.65
X4.725Y-3.75
X4.725Y-3.85
X4.725Y-3.95
X4.725Y-4.05
X4.725Y-4.15
X4.725Y-4.25
X4.725Y-4.6
X4.725Y-4.7
X4.725Y-4.8
X4.725Y-4.9
X4.725Y-5.0
X4.725Y-5.1
X4.725Y-5.2
X4.725Y-5.3
X4.7561Y-2.2811
X4.7561Y-2.3811
X4.7561Y-2.4811
X4.7561Y-2.5811
X4.8561Y-2.2811
X4.8561Y-2.3811
X4.8561Y-2.4811
X4.8561Y-2.5811
X4.9561Y-2.2811
X4.9561Y-2.3811
X4.9561Y-2.4811
X4.9561Y-2.5811
X5.0561Y-2.2811
X5.0561Y-2.3811
X5.0561Y-2.4811
X5.0561Y-2.5811
X5.1561Y-2.2811
X5.1561Y-2.3811
X5.1561Y-2.4811
X5.1561Y-2.5811
X5.2561Y-2.2811
X5.2561Y-2.3811
X5.2561Y-2.4811
X5.2561Y-2.5811
X5.3561Y-2.2811
X5.3561Y-2.3811
X5.3561Y-2.4811
X5.3561Y-2.5811
X5.4561Y-2.2811
X5.4561Y-2.3811
X5.4561Y-2.4811
X5.4561Y-2.5811
X5.5561Y-2.2811
X5.5561Y-2.3811
X5.5561Y-2.4811
X5.5561Y-2.5811
X5.6561Y-2.2811
X5.6561Y-2.3811
X5.6561Y-2.4811
X5.6561Y-2.5811
X5.7561Y-2.2811
X5.7561Y-2.3811
X5.7561Y-2.4811
X5.7561Y-2.5811
X5.85Y-5.6
X5.8561Y-2.2811
X5.8561Y-2.3811
X5.8561Y-2.4811
X5.8561Y-2.5811
X5.95Y-5.6
X5.9561Y-2.2811
X5.9561Y-2.3811
X5.9561Y-2.4811
X5.9561Y-2.5811
X6.05Y-5.6
X6.0561Y-2.2811
X6.0561Y-2.3811
X6.0561Y-2.4811
X6.0561Y-2.5811
X6.1561Y-2.2811
X6.1561Y-2.3811
X6.1561Y-2.4811
X6.1561Y-2.5811
X6.2561Y-2.2811
X6.2561Y-2.3811
X6.2561Y-2.4811
X6.2561Y-2.5811
X6.3561Y-2.2811
X6.3561Y-2.3811
X6.3561Y-2.4811
X6.3561Y-2.5811
X6.4555Y-3.3076
X6.4555Y-3.4076
X6.4555Y-3.5076
X6.4555Y-3.6076
X6.4555Y-3.7076
X6.4555Y-3.8076
X6.4555Y-3.9076
X6.4555Y-4.0076
X6.4555Y-4.1076
X6.4555Y-4.2076
X6.4555Y-4.3076
X6.4555Y-4.4076
X6.4555Y-4.5076
X6.4555Y-4.6076
X6.4555Y-4.7076
X6.4555Y-4.8076
X6.4555Y-4.9076
X6.4555Y-5.0076
X6.4555Y-5.1076
X6.4555Y-5.2076
X6.4561Y-2.2811
X6.4561Y-2.3811
X6.4561Y-2.4811
X6.4561Y-2.5811
X6.5555Y-3.3076
X6.5555Y-3.4076
X6.5555Y-3.5076
X6.5555Y-3.6076
X6.5555Y-3.7076
X6.5555Y-3.8076
X6.5555Y-3.9076
X6.5555Y-4.0076
X6.5555Y-4.1076
X6.5555Y-4.2076
X6.5555Y-4.3076
X6.5555Y-4.4076
X6.5555Y-4.5076
X6.5555Y-4.6076
X6.5555Y-4.7076
X6.5555Y-4.8076
X6.5555Y-4.9076
X6.5555Y-5.0076
X6.5555Y-5.1076
X6.5555Y-5.2076
X6.5561Y-2.2811
X6.5561Y-2.3811
X6.5561Y-2.4811
X6.5561Y-2.5811
X6.6561Y-2.2811
X6.6561Y-2.3811
X6.6561Y-2.4811
X6.6561Y-2.5811
X6.7561Y-2.2811
X6.7561Y-2.3811
X6.7561Y-2.4811
X6.7561Y-2.5811
X6.8561Y-2.2811
X6.8561Y-2.3811
X6.8561Y-2.4811
X6.8561Y-2.5811
X6.9561Y-2.2811
X6.9561Y-2.3811
X6.9561Y-2.4811
X6.9561Y-2.5811
X7.0561Y-2.2811
X7.0561Y-2.3811
X7.0561Y-2.4811
X7.0561Y-2.5811
X7.1009Y-3.2406
X7.1009Y-4.0594
X7.1561Y-2.2811
X7.1561Y-2.3811
X7.1561Y-2.4811
X7.1561Y-2.5811
X7.223Y-3.2406
X7.223Y-4.0594
X7.2561Y-2.2811
X7.2561Y-2.3811
X7.2561Y-2.4811
X7.2561Y-2.5811
X7.65Y-2.625
X7.65Y-2.7234
T5
X4.4061Y-5.6561
X4.5561Y-2.2811
X7.4561Y-2.2811
X7.5561Y-5.6561
T0
M30
