%TF.GenerationSoftware,KiCad,Pcbnew,(5.1.9)-1*%
%TF.CreationDate,2021-11-17T20:28:51-05:00*%
%TF.ProjectId,REVERB Interface,52455645-5242-4204-996e-746572666163,rev?*%
%TF.SameCoordinates,Original*%
%TF.FileFunction,Soldermask,Bot*%
%TF.FilePolarity,Negative*%
%FSLAX46Y46*%
G04 Gerber Fmt 4.6, Leading zero omitted, Abs format (unit mm)*
G04 Created by KiCad (PCBNEW (5.1.9)-1) date 2021-11-17 20:28:51*
%MOMM*%
%LPD*%
G01*
G04 APERTURE LIST*
%ADD10C,17.500000*%
%ADD11C,2.300000*%
%ADD12C,2.500000*%
%ADD13C,1.524000*%
%ADD14O,1.700000X1.700000*%
%ADD15R,1.700000X1.700000*%
%ADD16C,2.700000*%
%ADD17C,5.600000*%
%ADD18C,3.600000*%
%ADD19O,1.400000X0.700000*%
%ADD20O,1.500000X1.500000*%
%ADD21R,1.500000X1.500000*%
G04 APERTURE END LIST*
D10*
%TO.C,BT1*%
X184150000Y-92710000D03*
D11*
X182650000Y-103110000D03*
X185750000Y-103110000D03*
X185750000Y-82310000D03*
X182650000Y-82310000D03*
%TD*%
D12*
%TO.C,U1*%
X157480000Y-78105000D03*
X135890000Y-78105000D03*
X157480000Y-93345000D03*
X135890000Y-93345000D03*
D13*
X140335000Y-94615000D03*
X142875000Y-94615000D03*
X145415000Y-94615000D03*
X147955000Y-94615000D03*
X150495000Y-94615000D03*
X153035000Y-94615000D03*
%TD*%
%TO.C,C19*%
G36*
G01*
X160364999Y-122075000D02*
X162215001Y-122075000D01*
G75*
G02*
X162465000Y-122324999I0J-249999D01*
G01*
X162465000Y-124075001D01*
G75*
G02*
X162215001Y-124325000I-249999J0D01*
G01*
X160364999Y-124325000D01*
G75*
G02*
X160115000Y-124075001I0J249999D01*
G01*
X160115000Y-122324999D01*
G75*
G02*
X160364999Y-122075000I249999J0D01*
G01*
G37*
G36*
G01*
X160364999Y-116975000D02*
X162215001Y-116975000D01*
G75*
G02*
X162465000Y-117224999I0J-249999D01*
G01*
X162465000Y-118975001D01*
G75*
G02*
X162215001Y-119225000I-249999J0D01*
G01*
X160364999Y-119225000D01*
G75*
G02*
X160115000Y-118975001I0J249999D01*
G01*
X160115000Y-117224999D01*
G75*
G02*
X160364999Y-116975000I249999J0D01*
G01*
G37*
%TD*%
%TO.C,C17*%
G36*
G01*
X136751000Y-122518999D02*
X136751000Y-124369001D01*
G75*
G02*
X136501001Y-124619000I-249999J0D01*
G01*
X134750999Y-124619000D01*
G75*
G02*
X134501000Y-124369001I0J249999D01*
G01*
X134501000Y-122518999D01*
G75*
G02*
X134750999Y-122269000I249999J0D01*
G01*
X136501001Y-122269000D01*
G75*
G02*
X136751000Y-122518999I0J-249999D01*
G01*
G37*
G36*
G01*
X141851000Y-122518999D02*
X141851000Y-124369001D01*
G75*
G02*
X141601001Y-124619000I-249999J0D01*
G01*
X139850999Y-124619000D01*
G75*
G02*
X139601000Y-124369001I0J249999D01*
G01*
X139601000Y-122518999D01*
G75*
G02*
X139850999Y-122269000I249999J0D01*
G01*
X141601001Y-122269000D01*
G75*
G02*
X141851000Y-122518999I0J-249999D01*
G01*
G37*
%TD*%
%TO.C,C15*%
G36*
G01*
X112225000Y-105400999D02*
X112225000Y-107451001D01*
G75*
G02*
X111975001Y-107701000I-249999J0D01*
G01*
X110224999Y-107701000D01*
G75*
G02*
X109975000Y-107451001I0J249999D01*
G01*
X109975000Y-105400999D01*
G75*
G02*
X110224999Y-105151000I249999J0D01*
G01*
X111975001Y-105151000D01*
G75*
G02*
X112225000Y-105400999I0J-249999D01*
G01*
G37*
G36*
G01*
X118625000Y-105400999D02*
X118625000Y-107451001D01*
G75*
G02*
X118375001Y-107701000I-249999J0D01*
G01*
X116624999Y-107701000D01*
G75*
G02*
X116375000Y-107451001I0J249999D01*
G01*
X116375000Y-105400999D01*
G75*
G02*
X116624999Y-105151000I249999J0D01*
G01*
X118375001Y-105151000D01*
G75*
G02*
X118625000Y-105400999I0J-249999D01*
G01*
G37*
%TD*%
%TO.C,C12*%
G36*
G01*
X166311000Y-72907001D02*
X166311000Y-70856999D01*
G75*
G02*
X166560999Y-70607000I249999J0D01*
G01*
X168311001Y-70607000D01*
G75*
G02*
X168561000Y-70856999I0J-249999D01*
G01*
X168561000Y-72907001D01*
G75*
G02*
X168311001Y-73157000I-249999J0D01*
G01*
X166560999Y-73157000D01*
G75*
G02*
X166311000Y-72907001I0J249999D01*
G01*
G37*
G36*
G01*
X159911000Y-72907001D02*
X159911000Y-70856999D01*
G75*
G02*
X160160999Y-70607000I249999J0D01*
G01*
X161911001Y-70607000D01*
G75*
G02*
X162161000Y-70856999I0J-249999D01*
G01*
X162161000Y-72907001D01*
G75*
G02*
X161911001Y-73157000I-249999J0D01*
G01*
X160160999Y-73157000D01*
G75*
G02*
X159911000Y-72907001I0J249999D01*
G01*
G37*
%TD*%
%TO.C,C18*%
G36*
G01*
X144300000Y-88809001D02*
X144300000Y-86958999D01*
G75*
G02*
X144549999Y-86709000I249999J0D01*
G01*
X146300001Y-86709000D01*
G75*
G02*
X146550000Y-86958999I0J-249999D01*
G01*
X146550000Y-88809001D01*
G75*
G02*
X146300001Y-89059000I-249999J0D01*
G01*
X144549999Y-89059000D01*
G75*
G02*
X144300000Y-88809001I0J249999D01*
G01*
G37*
G36*
G01*
X139200000Y-88809001D02*
X139200000Y-86958999D01*
G75*
G02*
X139449999Y-86709000I249999J0D01*
G01*
X141200001Y-86709000D01*
G75*
G02*
X141450000Y-86958999I0J-249999D01*
G01*
X141450000Y-88809001D01*
G75*
G02*
X141200001Y-89059000I-249999J0D01*
G01*
X139449999Y-89059000D01*
G75*
G02*
X139200000Y-88809001I0J249999D01*
G01*
G37*
%TD*%
%TO.C,C16*%
G36*
G01*
X115090000Y-86650001D02*
X115090000Y-84799999D01*
G75*
G02*
X115339999Y-84550000I249999J0D01*
G01*
X117090001Y-84550000D01*
G75*
G02*
X117340000Y-84799999I0J-249999D01*
G01*
X117340000Y-86650001D01*
G75*
G02*
X117090001Y-86900000I-249999J0D01*
G01*
X115339999Y-86900000D01*
G75*
G02*
X115090000Y-86650001I0J249999D01*
G01*
G37*
G36*
G01*
X109990000Y-86650001D02*
X109990000Y-84799999D01*
G75*
G02*
X110239999Y-84550000I249999J0D01*
G01*
X111990001Y-84550000D01*
G75*
G02*
X112240000Y-84799999I0J-249999D01*
G01*
X112240000Y-86650001D01*
G75*
G02*
X111990001Y-86900000I-249999J0D01*
G01*
X110239999Y-86900000D01*
G75*
G02*
X109990000Y-86650001I0J249999D01*
G01*
G37*
%TD*%
%TO.C,C14*%
G36*
G01*
X110955000Y-130038999D02*
X110955000Y-132089001D01*
G75*
G02*
X110705001Y-132339000I-249999J0D01*
G01*
X108954999Y-132339000D01*
G75*
G02*
X108705000Y-132089001I0J249999D01*
G01*
X108705000Y-130038999D01*
G75*
G02*
X108954999Y-129789000I249999J0D01*
G01*
X110705001Y-129789000D01*
G75*
G02*
X110955000Y-130038999I0J-249999D01*
G01*
G37*
G36*
G01*
X117355000Y-130038999D02*
X117355000Y-132089001D01*
G75*
G02*
X117105001Y-132339000I-249999J0D01*
G01*
X115354999Y-132339000D01*
G75*
G02*
X115105000Y-132089001I0J249999D01*
G01*
X115105000Y-130038999D01*
G75*
G02*
X115354999Y-129789000I249999J0D01*
G01*
X117105001Y-129789000D01*
G75*
G02*
X117355000Y-130038999I0J-249999D01*
G01*
G37*
%TD*%
%TO.C,C13*%
G36*
G01*
X180505000Y-130719001D02*
X180505000Y-128868999D01*
G75*
G02*
X180754999Y-128619000I249999J0D01*
G01*
X182505001Y-128619000D01*
G75*
G02*
X182755000Y-128868999I0J-249999D01*
G01*
X182755000Y-130719001D01*
G75*
G02*
X182505001Y-130969000I-249999J0D01*
G01*
X180754999Y-130969000D01*
G75*
G02*
X180505000Y-130719001I0J249999D01*
G01*
G37*
G36*
G01*
X175405000Y-130719001D02*
X175405000Y-128868999D01*
G75*
G02*
X175654999Y-128619000I249999J0D01*
G01*
X177405001Y-128619000D01*
G75*
G02*
X177655000Y-128868999I0J-249999D01*
G01*
X177655000Y-130719001D01*
G75*
G02*
X177405001Y-130969000I-249999J0D01*
G01*
X175654999Y-130969000D01*
G75*
G02*
X175405000Y-130719001I0J249999D01*
G01*
G37*
%TD*%
%TO.C,C11*%
G36*
G01*
X181907000Y-125231001D02*
X181907000Y-123180999D01*
G75*
G02*
X182156999Y-122931000I249999J0D01*
G01*
X183907001Y-122931000D01*
G75*
G02*
X184157000Y-123180999I0J-249999D01*
G01*
X184157000Y-125231001D01*
G75*
G02*
X183907001Y-125481000I-249999J0D01*
G01*
X182156999Y-125481000D01*
G75*
G02*
X181907000Y-125231001I0J249999D01*
G01*
G37*
G36*
G01*
X175507000Y-125231001D02*
X175507000Y-123180999D01*
G75*
G02*
X175756999Y-122931000I249999J0D01*
G01*
X177507001Y-122931000D01*
G75*
G02*
X177757000Y-123180999I0J-249999D01*
G01*
X177757000Y-125231001D01*
G75*
G02*
X177507001Y-125481000I-249999J0D01*
G01*
X175756999Y-125481000D01*
G75*
G02*
X175507000Y-125231001I0J249999D01*
G01*
G37*
%TD*%
D14*
%TO.C,J1*%
X166256000Y-84014000D03*
X168796000Y-84014000D03*
X166256000Y-86554000D03*
X168796000Y-86554000D03*
X166256000Y-89094000D03*
X168796000Y-89094000D03*
X166256000Y-91634000D03*
X168796000Y-91634000D03*
X166256000Y-94174000D03*
X168796000Y-94174000D03*
X166256000Y-96714000D03*
X168796000Y-96714000D03*
X166256000Y-99254000D03*
X168796000Y-99254000D03*
X166256000Y-101794000D03*
X168796000Y-101794000D03*
X166256000Y-104334000D03*
X168796000Y-104334000D03*
X166256000Y-106874000D03*
X168796000Y-106874000D03*
X166256000Y-109414000D03*
X168796000Y-109414000D03*
X166256000Y-111954000D03*
X168796000Y-111954000D03*
X166256000Y-114494000D03*
X168796000Y-114494000D03*
X166256000Y-117034000D03*
X168796000Y-117034000D03*
X166256000Y-119574000D03*
X168796000Y-119574000D03*
X166256000Y-122114000D03*
X168796000Y-122114000D03*
X166256000Y-124654000D03*
X168796000Y-124654000D03*
X166256000Y-127194000D03*
X168796000Y-127194000D03*
X166256000Y-129734000D03*
X168796000Y-129734000D03*
X166256000Y-132274000D03*
D15*
X168796000Y-132274000D03*
%TD*%
D14*
%TO.C,J5*%
X153670000Y-142240000D03*
X151130000Y-142240000D03*
D15*
X148590000Y-142240000D03*
%TD*%
D16*
%TO.C,M8*%
X190701000Y-136609000D03*
%TD*%
%TO.C,M7*%
X190701000Y-78609000D03*
%TD*%
%TO.C,M6*%
X167574000Y-136609000D03*
%TD*%
%TO.C,M5*%
X167384000Y-79244000D03*
%TD*%
D17*
%TO.C,M4*%
X191926000Y-143664000D03*
D18*
X191926000Y-143664000D03*
%TD*%
D17*
%TO.C,M3*%
X111916000Y-143664000D03*
D18*
X111916000Y-143664000D03*
%TD*%
D17*
%TO.C,M2*%
X189386000Y-57939000D03*
D18*
X189386000Y-57939000D03*
%TD*%
D17*
%TO.C,M1*%
X115726000Y-57939000D03*
D18*
X115726000Y-57939000D03*
%TD*%
D19*
%TO.C,J4*%
X114006000Y-75639000D03*
X114006000Y-74389000D03*
X114006000Y-73139000D03*
X114006000Y-71889000D03*
X114006000Y-70639000D03*
X114006000Y-69389000D03*
X114006000Y-68139000D03*
X114006000Y-66889000D03*
X114006000Y-65639000D03*
%TD*%
D14*
%TO.C,J3*%
X123190000Y-107950000D03*
X120650000Y-107950000D03*
X123190000Y-105410000D03*
X120650000Y-105410000D03*
X123190000Y-102870000D03*
X120650000Y-102870000D03*
X123190000Y-100330000D03*
X120650000Y-100330000D03*
X123190000Y-97790000D03*
X120650000Y-97790000D03*
X123190000Y-95250000D03*
X120650000Y-95250000D03*
X123190000Y-92710000D03*
X120650000Y-92710000D03*
X123190000Y-90170000D03*
X120650000Y-90170000D03*
X123190000Y-87630000D03*
X120650000Y-87630000D03*
X123190000Y-85090000D03*
D15*
X120650000Y-85090000D03*
%TD*%
D14*
%TO.C,J2*%
X120650000Y-116840000D03*
X123190000Y-116840000D03*
X120650000Y-119380000D03*
X123190000Y-119380000D03*
X120650000Y-121920000D03*
X123190000Y-121920000D03*
X120650000Y-124460000D03*
X123190000Y-124460000D03*
X120650000Y-127000000D03*
X123190000Y-127000000D03*
X120650000Y-129540000D03*
X123190000Y-129540000D03*
X120650000Y-132080000D03*
X123190000Y-132080000D03*
X120650000Y-134620000D03*
D15*
X123190000Y-134620000D03*
%TD*%
D20*
%TO.C,H2*%
X184306000Y-57939000D03*
X184306000Y-60479000D03*
X181766000Y-57939000D03*
X181766000Y-60479000D03*
X179226000Y-57939000D03*
X179226000Y-60479000D03*
X176686000Y-57939000D03*
X176686000Y-60479000D03*
X174146000Y-57939000D03*
X174146000Y-60479000D03*
X171606000Y-57939000D03*
X171606000Y-60479000D03*
X169066000Y-57939000D03*
X169066000Y-60479000D03*
X166526000Y-57939000D03*
X166526000Y-60479000D03*
X163986000Y-57939000D03*
X163986000Y-60479000D03*
X161446000Y-57939000D03*
X161446000Y-60479000D03*
X158906000Y-57939000D03*
X158906000Y-60479000D03*
X156366000Y-57939000D03*
X156366000Y-60479000D03*
X153826000Y-57939000D03*
X153826000Y-60479000D03*
X151286000Y-57939000D03*
X151286000Y-60479000D03*
X148746000Y-57939000D03*
X148746000Y-60479000D03*
X146206000Y-57939000D03*
X146206000Y-60479000D03*
X143666000Y-57939000D03*
X143666000Y-60479000D03*
X141126000Y-57939000D03*
X141126000Y-60479000D03*
X138586000Y-57939000D03*
X138586000Y-60479000D03*
X136046000Y-57939000D03*
X136046000Y-60479000D03*
X133506000Y-57939000D03*
X133506000Y-60479000D03*
X130966000Y-57939000D03*
X130966000Y-60479000D03*
X128426000Y-57939000D03*
X128426000Y-60479000D03*
X125886000Y-57939000D03*
X125886000Y-60479000D03*
X123346000Y-57939000D03*
X123346000Y-60479000D03*
X120806000Y-57939000D03*
D21*
X120806000Y-60479000D03*
%TD*%
D20*
%TO.C,H1*%
X184306000Y-63019000D03*
X184306000Y-65559000D03*
X181766000Y-63019000D03*
X181766000Y-65559000D03*
X179226000Y-63019000D03*
X179226000Y-65559000D03*
X176686000Y-63019000D03*
X176686000Y-65559000D03*
X174146000Y-63019000D03*
X174146000Y-65559000D03*
X171606000Y-63019000D03*
X171606000Y-65559000D03*
X169066000Y-63019000D03*
X169066000Y-65559000D03*
X166526000Y-63019000D03*
X166526000Y-65559000D03*
X163986000Y-63019000D03*
X163986000Y-65559000D03*
X161446000Y-63019000D03*
X161446000Y-65559000D03*
X158906000Y-63019000D03*
X158906000Y-65559000D03*
X156366000Y-63019000D03*
X156366000Y-65559000D03*
X153826000Y-63019000D03*
X153826000Y-65559000D03*
X151286000Y-63019000D03*
X151286000Y-65559000D03*
X148746000Y-63019000D03*
X148746000Y-65559000D03*
X146206000Y-63019000D03*
X146206000Y-65559000D03*
X143666000Y-63019000D03*
X143666000Y-65559000D03*
X141126000Y-63019000D03*
X141126000Y-65559000D03*
X138586000Y-63019000D03*
X138586000Y-65559000D03*
X136046000Y-63019000D03*
X136046000Y-65559000D03*
X133506000Y-63019000D03*
X133506000Y-65559000D03*
X130966000Y-63019000D03*
X130966000Y-65559000D03*
X128426000Y-63019000D03*
X128426000Y-65559000D03*
X125886000Y-63019000D03*
X125886000Y-65559000D03*
X123346000Y-63019000D03*
X123346000Y-65559000D03*
X120806000Y-63019000D03*
D21*
X120806000Y-65559000D03*
%TD*%
M02*
