%TF.GenerationSoftware,KiCad,Pcbnew,(5.1.9)-1*%
%TF.CreationDate,2021-11-05T20:33:19-04:00*%
%TF.ProjectId,REVERB Interface,52455645-5242-4204-996e-746572666163,rev?*%
%TF.SameCoordinates,Original*%
%TF.FileFunction,Legend,Bot*%
%TF.FilePolarity,Positive*%
%FSLAX46Y46*%
G04 Gerber Fmt 4.6, Leading zero omitted, Abs format (unit mm)*
G04 Created by KiCad (PCBNEW (5.1.9)-1) date 2021-11-05 20:33:19*
%MOMM*%
%LPD*%
G01*
G04 APERTURE LIST*
%ADD10C,0.150000*%
%ADD11C,0.120000*%
G04 APERTURE END LIST*
D10*
X111037619Y-122276428D02*
X111037619Y-121705000D01*
X110037619Y-121990714D02*
X111037619Y-121990714D01*
X110037619Y-121371666D02*
X111037619Y-121371666D01*
X110561428Y-121371666D02*
X110561428Y-120800238D01*
X110037619Y-120800238D02*
X111037619Y-120800238D01*
X110037619Y-120324047D02*
X111037619Y-120324047D01*
X110085238Y-119895476D02*
X110037619Y-119752619D01*
X110037619Y-119514523D01*
X110085238Y-119419285D01*
X110132857Y-119371666D01*
X110228095Y-119324047D01*
X110323333Y-119324047D01*
X110418571Y-119371666D01*
X110466190Y-119419285D01*
X110513809Y-119514523D01*
X110561428Y-119705000D01*
X110609047Y-119800238D01*
X110656666Y-119847857D01*
X110751904Y-119895476D01*
X110847142Y-119895476D01*
X110942380Y-119847857D01*
X110990000Y-119800238D01*
X111037619Y-119705000D01*
X111037619Y-119466904D01*
X110990000Y-119324047D01*
X110085238Y-118181190D02*
X110037619Y-118038333D01*
X110037619Y-117800238D01*
X110085238Y-117705000D01*
X110132857Y-117657380D01*
X110228095Y-117609761D01*
X110323333Y-117609761D01*
X110418571Y-117657380D01*
X110466190Y-117705000D01*
X110513809Y-117800238D01*
X110561428Y-117990714D01*
X110609047Y-118085952D01*
X110656666Y-118133571D01*
X110751904Y-118181190D01*
X110847142Y-118181190D01*
X110942380Y-118133571D01*
X110990000Y-118085952D01*
X111037619Y-117990714D01*
X111037619Y-117752619D01*
X110990000Y-117609761D01*
X110037619Y-117181190D02*
X111037619Y-117181190D01*
X110037619Y-116705000D02*
X111037619Y-116705000D01*
X111037619Y-116466904D01*
X110990000Y-116324047D01*
X110894761Y-116228809D01*
X110799523Y-116181190D01*
X110609047Y-116133571D01*
X110466190Y-116133571D01*
X110275714Y-116181190D01*
X110180476Y-116228809D01*
X110085238Y-116324047D01*
X110037619Y-116466904D01*
X110037619Y-116705000D01*
X110561428Y-115705000D02*
X110561428Y-115371666D01*
X110037619Y-115228809D02*
X110037619Y-115705000D01*
X111037619Y-115705000D01*
X111037619Y-115228809D01*
X110037619Y-114038333D02*
X111037619Y-114038333D01*
X111037619Y-113800238D01*
X110990000Y-113657380D01*
X110894761Y-113562142D01*
X110799523Y-113514523D01*
X110609047Y-113466904D01*
X110466190Y-113466904D01*
X110275714Y-113514523D01*
X110180476Y-113562142D01*
X110085238Y-113657380D01*
X110037619Y-113800238D01*
X110037619Y-114038333D01*
X111037619Y-112847857D02*
X111037619Y-112657380D01*
X110990000Y-112562142D01*
X110894761Y-112466904D01*
X110704285Y-112419285D01*
X110370952Y-112419285D01*
X110180476Y-112466904D01*
X110085238Y-112562142D01*
X110037619Y-112657380D01*
X110037619Y-112847857D01*
X110085238Y-112943095D01*
X110180476Y-113038333D01*
X110370952Y-113085952D01*
X110704285Y-113085952D01*
X110894761Y-113038333D01*
X110990000Y-112943095D01*
X111037619Y-112847857D01*
X111037619Y-112085952D02*
X110037619Y-111847857D01*
X110751904Y-111657380D01*
X110037619Y-111466904D01*
X111037619Y-111228809D01*
X110037619Y-110847857D02*
X111037619Y-110847857D01*
X110037619Y-110276428D01*
X111037619Y-110276428D01*
D11*
%TO.C,C23*%
X163000000Y-116715000D02*
X163000000Y-123650000D01*
X159580000Y-116715000D02*
X163000000Y-116715000D01*
X159580000Y-123650000D02*
X159580000Y-116715000D01*
%TO.C,C22*%
X142111000Y-125154000D02*
X135176000Y-125154000D01*
X142111000Y-121734000D02*
X142111000Y-125154000D01*
X135176000Y-121734000D02*
X142111000Y-121734000D01*
%TO.C,C21*%
X117610000Y-107120000D02*
X110675000Y-107120000D01*
X117610000Y-103700000D02*
X117610000Y-107120000D01*
X110675000Y-103700000D02*
X117610000Y-103700000D01*
%TO.C,C20*%
X118250000Y-101955000D02*
X110015000Y-101955000D01*
X118250000Y-97435000D02*
X118250000Y-101955000D01*
X110015000Y-97435000D02*
X118250000Y-97435000D01*
%TO.C,C19*%
X176335000Y-68455000D02*
X176335000Y-75390000D01*
X172915000Y-68455000D02*
X176335000Y-68455000D01*
X172915000Y-75390000D02*
X172915000Y-68455000D01*
%TO.C,C18*%
X171170000Y-67805000D02*
X171170000Y-76040000D01*
X166650000Y-67805000D02*
X171170000Y-67805000D01*
X166650000Y-76040000D02*
X166650000Y-67805000D01*
%TO.C,C17*%
X164820000Y-67805000D02*
X164820000Y-76040000D01*
X160300000Y-67805000D02*
X164820000Y-67805000D01*
X160300000Y-76040000D02*
X160300000Y-67805000D01*
%TO.C,C16*%
X136400000Y-85285000D02*
X143335000Y-85285000D01*
X136400000Y-88705000D02*
X136400000Y-85285000D01*
X143335000Y-88705000D02*
X136400000Y-88705000D01*
%TO.C,C15*%
X109730000Y-84015000D02*
X116665000Y-84015000D01*
X109730000Y-87435000D02*
X109730000Y-84015000D01*
X116665000Y-87435000D02*
X109730000Y-87435000D01*
%TO.C,C14*%
X117600000Y-133790000D02*
X110665000Y-133790000D01*
X117600000Y-130370000D02*
X117600000Y-133790000D01*
X110665000Y-130370000D02*
X117600000Y-130370000D01*
%TO.C,C13*%
X118250000Y-128625000D02*
X110015000Y-128625000D01*
X118250000Y-124105000D02*
X118250000Y-128625000D01*
X110015000Y-124105000D02*
X118250000Y-124105000D01*
%TO.C,C12*%
X177675000Y-128465000D02*
X184610000Y-128465000D01*
X177675000Y-131885000D02*
X177675000Y-128465000D01*
X184610000Y-131885000D02*
X177675000Y-131885000D01*
%TO.C,C9*%
X177675000Y-123385000D02*
X184610000Y-123385000D01*
X177675000Y-126805000D02*
X177675000Y-123385000D01*
X184610000Y-126805000D02*
X177675000Y-126805000D01*
%TO.C,C8*%
X177025000Y-117120000D02*
X185260000Y-117120000D01*
X177025000Y-121640000D02*
X177025000Y-117120000D01*
X185260000Y-121640000D02*
X177025000Y-121640000D01*
%TO.C,J1*%
X168796000Y-133604000D02*
X170126000Y-133604000D01*
X170126000Y-133604000D02*
X170126000Y-132274000D01*
X167526000Y-133604000D02*
X167526000Y-131004000D01*
X167526000Y-131004000D02*
X170126000Y-131004000D01*
X170126000Y-131004000D02*
X170126000Y-82684000D01*
X164926000Y-82684000D02*
X170126000Y-82684000D01*
X164926000Y-133604000D02*
X164926000Y-82684000D01*
X164926000Y-133604000D02*
X167526000Y-133604000D01*
%TO.C,J3*%
X120650000Y-83760000D02*
X119320000Y-83760000D01*
X119320000Y-83760000D02*
X119320000Y-85090000D01*
X121920000Y-83760000D02*
X121920000Y-86360000D01*
X121920000Y-86360000D02*
X119320000Y-86360000D01*
X119320000Y-86360000D02*
X119320000Y-109280000D01*
X124520000Y-109280000D02*
X119320000Y-109280000D01*
X124520000Y-83760000D02*
X124520000Y-109280000D01*
X124520000Y-83760000D02*
X121920000Y-83760000D01*
%TO.C,J2*%
X123190000Y-135950000D02*
X124520000Y-135950000D01*
X124520000Y-135950000D02*
X124520000Y-134620000D01*
X121920000Y-135950000D02*
X121920000Y-133350000D01*
X121920000Y-133350000D02*
X124520000Y-133350000D01*
X124520000Y-133350000D02*
X124520000Y-115510000D01*
X119320000Y-115510000D02*
X124520000Y-115510000D01*
X119320000Y-135950000D02*
X119320000Y-115510000D01*
X119320000Y-135950000D02*
X121920000Y-135950000D01*
%TO.C,H2*%
X119476000Y-56609000D02*
X119476000Y-59209000D01*
X119476000Y-56609000D02*
X185636000Y-56609000D01*
X185636000Y-56609000D02*
X185636000Y-61809000D01*
X122076000Y-61809000D02*
X185636000Y-61809000D01*
X122076000Y-59209000D02*
X122076000Y-61809000D01*
X119476000Y-59209000D02*
X122076000Y-59209000D01*
X119476000Y-61809000D02*
X120806000Y-61809000D01*
X119476000Y-60479000D02*
X119476000Y-61809000D01*
%TO.C,H1*%
X119476000Y-61689000D02*
X119476000Y-64289000D01*
X119476000Y-61689000D02*
X185636000Y-61689000D01*
X185636000Y-61689000D02*
X185636000Y-66889000D01*
X122076000Y-66889000D02*
X185636000Y-66889000D01*
X122076000Y-64289000D02*
X122076000Y-66889000D01*
X119476000Y-64289000D02*
X122076000Y-64289000D01*
X119476000Y-66889000D02*
X120806000Y-66889000D01*
X119476000Y-65559000D02*
X119476000Y-66889000D01*
%TO.C,C23*%
D10*
X159097142Y-120007142D02*
X159144761Y-119959523D01*
X159192380Y-119816666D01*
X159192380Y-119721428D01*
X159144761Y-119578571D01*
X159049523Y-119483333D01*
X158954285Y-119435714D01*
X158763809Y-119388095D01*
X158620952Y-119388095D01*
X158430476Y-119435714D01*
X158335238Y-119483333D01*
X158240000Y-119578571D01*
X158192380Y-119721428D01*
X158192380Y-119816666D01*
X158240000Y-119959523D01*
X158287619Y-120007142D01*
X158287619Y-120388095D02*
X158240000Y-120435714D01*
X158192380Y-120530952D01*
X158192380Y-120769047D01*
X158240000Y-120864285D01*
X158287619Y-120911904D01*
X158382857Y-120959523D01*
X158478095Y-120959523D01*
X158620952Y-120911904D01*
X159192380Y-120340476D01*
X159192380Y-120959523D01*
X158192380Y-121292857D02*
X158192380Y-121911904D01*
X158573333Y-121578571D01*
X158573333Y-121721428D01*
X158620952Y-121816666D01*
X158668571Y-121864285D01*
X158763809Y-121911904D01*
X159001904Y-121911904D01*
X159097142Y-121864285D01*
X159144761Y-121816666D01*
X159192380Y-121721428D01*
X159192380Y-121435714D01*
X159144761Y-121340476D01*
X159097142Y-121292857D01*
%TO.C,C22*%
X138818857Y-121251142D02*
X138866476Y-121298761D01*
X139009333Y-121346380D01*
X139104571Y-121346380D01*
X139247428Y-121298761D01*
X139342666Y-121203523D01*
X139390285Y-121108285D01*
X139437904Y-120917809D01*
X139437904Y-120774952D01*
X139390285Y-120584476D01*
X139342666Y-120489238D01*
X139247428Y-120394000D01*
X139104571Y-120346380D01*
X139009333Y-120346380D01*
X138866476Y-120394000D01*
X138818857Y-120441619D01*
X138437904Y-120441619D02*
X138390285Y-120394000D01*
X138295047Y-120346380D01*
X138056952Y-120346380D01*
X137961714Y-120394000D01*
X137914095Y-120441619D01*
X137866476Y-120536857D01*
X137866476Y-120632095D01*
X137914095Y-120774952D01*
X138485523Y-121346380D01*
X137866476Y-121346380D01*
X137485523Y-120441619D02*
X137437904Y-120394000D01*
X137342666Y-120346380D01*
X137104571Y-120346380D01*
X137009333Y-120394000D01*
X136961714Y-120441619D01*
X136914095Y-120536857D01*
X136914095Y-120632095D01*
X136961714Y-120774952D01*
X137533142Y-121346380D01*
X136914095Y-121346380D01*
%TO.C,C21*%
X114317857Y-103217142D02*
X114365476Y-103264761D01*
X114508333Y-103312380D01*
X114603571Y-103312380D01*
X114746428Y-103264761D01*
X114841666Y-103169523D01*
X114889285Y-103074285D01*
X114936904Y-102883809D01*
X114936904Y-102740952D01*
X114889285Y-102550476D01*
X114841666Y-102455238D01*
X114746428Y-102360000D01*
X114603571Y-102312380D01*
X114508333Y-102312380D01*
X114365476Y-102360000D01*
X114317857Y-102407619D01*
X113936904Y-102407619D02*
X113889285Y-102360000D01*
X113794047Y-102312380D01*
X113555952Y-102312380D01*
X113460714Y-102360000D01*
X113413095Y-102407619D01*
X113365476Y-102502857D01*
X113365476Y-102598095D01*
X113413095Y-102740952D01*
X113984523Y-103312380D01*
X113365476Y-103312380D01*
X112413095Y-103312380D02*
X112984523Y-103312380D01*
X112698809Y-103312380D02*
X112698809Y-102312380D01*
X112794047Y-102455238D01*
X112889285Y-102550476D01*
X112984523Y-102598095D01*
%TO.C,C20*%
X114307857Y-96952142D02*
X114355476Y-96999761D01*
X114498333Y-97047380D01*
X114593571Y-97047380D01*
X114736428Y-96999761D01*
X114831666Y-96904523D01*
X114879285Y-96809285D01*
X114926904Y-96618809D01*
X114926904Y-96475952D01*
X114879285Y-96285476D01*
X114831666Y-96190238D01*
X114736428Y-96095000D01*
X114593571Y-96047380D01*
X114498333Y-96047380D01*
X114355476Y-96095000D01*
X114307857Y-96142619D01*
X113926904Y-96142619D02*
X113879285Y-96095000D01*
X113784047Y-96047380D01*
X113545952Y-96047380D01*
X113450714Y-96095000D01*
X113403095Y-96142619D01*
X113355476Y-96237857D01*
X113355476Y-96333095D01*
X113403095Y-96475952D01*
X113974523Y-97047380D01*
X113355476Y-97047380D01*
X112736428Y-96047380D02*
X112641190Y-96047380D01*
X112545952Y-96095000D01*
X112498333Y-96142619D01*
X112450714Y-96237857D01*
X112403095Y-96428333D01*
X112403095Y-96666428D01*
X112450714Y-96856904D01*
X112498333Y-96952142D01*
X112545952Y-96999761D01*
X112641190Y-97047380D01*
X112736428Y-97047380D01*
X112831666Y-96999761D01*
X112879285Y-96952142D01*
X112926904Y-96856904D01*
X112974523Y-96666428D01*
X112974523Y-96428333D01*
X112926904Y-96237857D01*
X112879285Y-96142619D01*
X112831666Y-96095000D01*
X112736428Y-96047380D01*
%TO.C,C19*%
X172432142Y-71747142D02*
X172479761Y-71699523D01*
X172527380Y-71556666D01*
X172527380Y-71461428D01*
X172479761Y-71318571D01*
X172384523Y-71223333D01*
X172289285Y-71175714D01*
X172098809Y-71128095D01*
X171955952Y-71128095D01*
X171765476Y-71175714D01*
X171670238Y-71223333D01*
X171575000Y-71318571D01*
X171527380Y-71461428D01*
X171527380Y-71556666D01*
X171575000Y-71699523D01*
X171622619Y-71747142D01*
X172527380Y-72699523D02*
X172527380Y-72128095D01*
X172527380Y-72413809D02*
X171527380Y-72413809D01*
X171670238Y-72318571D01*
X171765476Y-72223333D01*
X171813095Y-72128095D01*
X172527380Y-73175714D02*
X172527380Y-73366190D01*
X172479761Y-73461428D01*
X172432142Y-73509047D01*
X172289285Y-73604285D01*
X172098809Y-73651904D01*
X171717857Y-73651904D01*
X171622619Y-73604285D01*
X171575000Y-73556666D01*
X171527380Y-73461428D01*
X171527380Y-73270952D01*
X171575000Y-73175714D01*
X171622619Y-73128095D01*
X171717857Y-73080476D01*
X171955952Y-73080476D01*
X172051190Y-73128095D01*
X172098809Y-73175714D01*
X172146428Y-73270952D01*
X172146428Y-73461428D01*
X172098809Y-73556666D01*
X172051190Y-73604285D01*
X171955952Y-73651904D01*
%TO.C,C18*%
X166167142Y-71747142D02*
X166214761Y-71699523D01*
X166262380Y-71556666D01*
X166262380Y-71461428D01*
X166214761Y-71318571D01*
X166119523Y-71223333D01*
X166024285Y-71175714D01*
X165833809Y-71128095D01*
X165690952Y-71128095D01*
X165500476Y-71175714D01*
X165405238Y-71223333D01*
X165310000Y-71318571D01*
X165262380Y-71461428D01*
X165262380Y-71556666D01*
X165310000Y-71699523D01*
X165357619Y-71747142D01*
X166262380Y-72699523D02*
X166262380Y-72128095D01*
X166262380Y-72413809D02*
X165262380Y-72413809D01*
X165405238Y-72318571D01*
X165500476Y-72223333D01*
X165548095Y-72128095D01*
X165690952Y-73270952D02*
X165643333Y-73175714D01*
X165595714Y-73128095D01*
X165500476Y-73080476D01*
X165452857Y-73080476D01*
X165357619Y-73128095D01*
X165310000Y-73175714D01*
X165262380Y-73270952D01*
X165262380Y-73461428D01*
X165310000Y-73556666D01*
X165357619Y-73604285D01*
X165452857Y-73651904D01*
X165500476Y-73651904D01*
X165595714Y-73604285D01*
X165643333Y-73556666D01*
X165690952Y-73461428D01*
X165690952Y-73270952D01*
X165738571Y-73175714D01*
X165786190Y-73128095D01*
X165881428Y-73080476D01*
X166071904Y-73080476D01*
X166167142Y-73128095D01*
X166214761Y-73175714D01*
X166262380Y-73270952D01*
X166262380Y-73461428D01*
X166214761Y-73556666D01*
X166167142Y-73604285D01*
X166071904Y-73651904D01*
X165881428Y-73651904D01*
X165786190Y-73604285D01*
X165738571Y-73556666D01*
X165690952Y-73461428D01*
%TO.C,C17*%
X159817142Y-71747142D02*
X159864761Y-71699523D01*
X159912380Y-71556666D01*
X159912380Y-71461428D01*
X159864761Y-71318571D01*
X159769523Y-71223333D01*
X159674285Y-71175714D01*
X159483809Y-71128095D01*
X159340952Y-71128095D01*
X159150476Y-71175714D01*
X159055238Y-71223333D01*
X158960000Y-71318571D01*
X158912380Y-71461428D01*
X158912380Y-71556666D01*
X158960000Y-71699523D01*
X159007619Y-71747142D01*
X159912380Y-72699523D02*
X159912380Y-72128095D01*
X159912380Y-72413809D02*
X158912380Y-72413809D01*
X159055238Y-72318571D01*
X159150476Y-72223333D01*
X159198095Y-72128095D01*
X158912380Y-73032857D02*
X158912380Y-73699523D01*
X159912380Y-73270952D01*
%TO.C,C16*%
X140977857Y-89902142D02*
X141025476Y-89949761D01*
X141168333Y-89997380D01*
X141263571Y-89997380D01*
X141406428Y-89949761D01*
X141501666Y-89854523D01*
X141549285Y-89759285D01*
X141596904Y-89568809D01*
X141596904Y-89425952D01*
X141549285Y-89235476D01*
X141501666Y-89140238D01*
X141406428Y-89045000D01*
X141263571Y-88997380D01*
X141168333Y-88997380D01*
X141025476Y-89045000D01*
X140977857Y-89092619D01*
X140025476Y-89997380D02*
X140596904Y-89997380D01*
X140311190Y-89997380D02*
X140311190Y-88997380D01*
X140406428Y-89140238D01*
X140501666Y-89235476D01*
X140596904Y-89283095D01*
X139168333Y-88997380D02*
X139358809Y-88997380D01*
X139454047Y-89045000D01*
X139501666Y-89092619D01*
X139596904Y-89235476D01*
X139644523Y-89425952D01*
X139644523Y-89806904D01*
X139596904Y-89902142D01*
X139549285Y-89949761D01*
X139454047Y-89997380D01*
X139263571Y-89997380D01*
X139168333Y-89949761D01*
X139120714Y-89902142D01*
X139073095Y-89806904D01*
X139073095Y-89568809D01*
X139120714Y-89473571D01*
X139168333Y-89425952D01*
X139263571Y-89378333D01*
X139454047Y-89378333D01*
X139549285Y-89425952D01*
X139596904Y-89473571D01*
X139644523Y-89568809D01*
%TO.C,C15*%
X114307857Y-88632142D02*
X114355476Y-88679761D01*
X114498333Y-88727380D01*
X114593571Y-88727380D01*
X114736428Y-88679761D01*
X114831666Y-88584523D01*
X114879285Y-88489285D01*
X114926904Y-88298809D01*
X114926904Y-88155952D01*
X114879285Y-87965476D01*
X114831666Y-87870238D01*
X114736428Y-87775000D01*
X114593571Y-87727380D01*
X114498333Y-87727380D01*
X114355476Y-87775000D01*
X114307857Y-87822619D01*
X113355476Y-88727380D02*
X113926904Y-88727380D01*
X113641190Y-88727380D02*
X113641190Y-87727380D01*
X113736428Y-87870238D01*
X113831666Y-87965476D01*
X113926904Y-88013095D01*
X112450714Y-87727380D02*
X112926904Y-87727380D01*
X112974523Y-88203571D01*
X112926904Y-88155952D01*
X112831666Y-88108333D01*
X112593571Y-88108333D01*
X112498333Y-88155952D01*
X112450714Y-88203571D01*
X112403095Y-88298809D01*
X112403095Y-88536904D01*
X112450714Y-88632142D01*
X112498333Y-88679761D01*
X112593571Y-88727380D01*
X112831666Y-88727380D01*
X112926904Y-88679761D01*
X112974523Y-88632142D01*
%TO.C,C14*%
X114307857Y-129887142D02*
X114355476Y-129934761D01*
X114498333Y-129982380D01*
X114593571Y-129982380D01*
X114736428Y-129934761D01*
X114831666Y-129839523D01*
X114879285Y-129744285D01*
X114926904Y-129553809D01*
X114926904Y-129410952D01*
X114879285Y-129220476D01*
X114831666Y-129125238D01*
X114736428Y-129030000D01*
X114593571Y-128982380D01*
X114498333Y-128982380D01*
X114355476Y-129030000D01*
X114307857Y-129077619D01*
X113355476Y-129982380D02*
X113926904Y-129982380D01*
X113641190Y-129982380D02*
X113641190Y-128982380D01*
X113736428Y-129125238D01*
X113831666Y-129220476D01*
X113926904Y-129268095D01*
X112498333Y-129315714D02*
X112498333Y-129982380D01*
X112736428Y-128934761D02*
X112974523Y-129649047D01*
X112355476Y-129649047D01*
%TO.C,C13*%
X114307857Y-123622142D02*
X114355476Y-123669761D01*
X114498333Y-123717380D01*
X114593571Y-123717380D01*
X114736428Y-123669761D01*
X114831666Y-123574523D01*
X114879285Y-123479285D01*
X114926904Y-123288809D01*
X114926904Y-123145952D01*
X114879285Y-122955476D01*
X114831666Y-122860238D01*
X114736428Y-122765000D01*
X114593571Y-122717380D01*
X114498333Y-122717380D01*
X114355476Y-122765000D01*
X114307857Y-122812619D01*
X113355476Y-123717380D02*
X113926904Y-123717380D01*
X113641190Y-123717380D02*
X113641190Y-122717380D01*
X113736428Y-122860238D01*
X113831666Y-122955476D01*
X113926904Y-123003095D01*
X113022142Y-122717380D02*
X112403095Y-122717380D01*
X112736428Y-123098333D01*
X112593571Y-123098333D01*
X112498333Y-123145952D01*
X112450714Y-123193571D01*
X112403095Y-123288809D01*
X112403095Y-123526904D01*
X112450714Y-123622142D01*
X112498333Y-123669761D01*
X112593571Y-123717380D01*
X112879285Y-123717380D01*
X112974523Y-123669761D01*
X113022142Y-123622142D01*
%TO.C,C12*%
X182252857Y-133082142D02*
X182300476Y-133129761D01*
X182443333Y-133177380D01*
X182538571Y-133177380D01*
X182681428Y-133129761D01*
X182776666Y-133034523D01*
X182824285Y-132939285D01*
X182871904Y-132748809D01*
X182871904Y-132605952D01*
X182824285Y-132415476D01*
X182776666Y-132320238D01*
X182681428Y-132225000D01*
X182538571Y-132177380D01*
X182443333Y-132177380D01*
X182300476Y-132225000D01*
X182252857Y-132272619D01*
X181300476Y-133177380D02*
X181871904Y-133177380D01*
X181586190Y-133177380D02*
X181586190Y-132177380D01*
X181681428Y-132320238D01*
X181776666Y-132415476D01*
X181871904Y-132463095D01*
X180919523Y-132272619D02*
X180871904Y-132225000D01*
X180776666Y-132177380D01*
X180538571Y-132177380D01*
X180443333Y-132225000D01*
X180395714Y-132272619D01*
X180348095Y-132367857D01*
X180348095Y-132463095D01*
X180395714Y-132605952D01*
X180967142Y-133177380D01*
X180348095Y-133177380D01*
%TO.C,C9*%
X181776666Y-128002142D02*
X181824285Y-128049761D01*
X181967142Y-128097380D01*
X182062380Y-128097380D01*
X182205238Y-128049761D01*
X182300476Y-127954523D01*
X182348095Y-127859285D01*
X182395714Y-127668809D01*
X182395714Y-127525952D01*
X182348095Y-127335476D01*
X182300476Y-127240238D01*
X182205238Y-127145000D01*
X182062380Y-127097380D01*
X181967142Y-127097380D01*
X181824285Y-127145000D01*
X181776666Y-127192619D01*
X181300476Y-128097380D02*
X181110000Y-128097380D01*
X181014761Y-128049761D01*
X180967142Y-128002142D01*
X180871904Y-127859285D01*
X180824285Y-127668809D01*
X180824285Y-127287857D01*
X180871904Y-127192619D01*
X180919523Y-127145000D01*
X181014761Y-127097380D01*
X181205238Y-127097380D01*
X181300476Y-127145000D01*
X181348095Y-127192619D01*
X181395714Y-127287857D01*
X181395714Y-127525952D01*
X181348095Y-127621190D01*
X181300476Y-127668809D01*
X181205238Y-127716428D01*
X181014761Y-127716428D01*
X180919523Y-127668809D01*
X180871904Y-127621190D01*
X180824285Y-127525952D01*
%TO.C,C8*%
X181776666Y-122837142D02*
X181824285Y-122884761D01*
X181967142Y-122932380D01*
X182062380Y-122932380D01*
X182205238Y-122884761D01*
X182300476Y-122789523D01*
X182348095Y-122694285D01*
X182395714Y-122503809D01*
X182395714Y-122360952D01*
X182348095Y-122170476D01*
X182300476Y-122075238D01*
X182205238Y-121980000D01*
X182062380Y-121932380D01*
X181967142Y-121932380D01*
X181824285Y-121980000D01*
X181776666Y-122027619D01*
X181205238Y-122360952D02*
X181300476Y-122313333D01*
X181348095Y-122265714D01*
X181395714Y-122170476D01*
X181395714Y-122122857D01*
X181348095Y-122027619D01*
X181300476Y-121980000D01*
X181205238Y-121932380D01*
X181014761Y-121932380D01*
X180919523Y-121980000D01*
X180871904Y-122027619D01*
X180824285Y-122122857D01*
X180824285Y-122170476D01*
X180871904Y-122265714D01*
X180919523Y-122313333D01*
X181014761Y-122360952D01*
X181205238Y-122360952D01*
X181300476Y-122408571D01*
X181348095Y-122456190D01*
X181395714Y-122551428D01*
X181395714Y-122741904D01*
X181348095Y-122837142D01*
X181300476Y-122884761D01*
X181205238Y-122932380D01*
X181014761Y-122932380D01*
X180919523Y-122884761D01*
X180871904Y-122837142D01*
X180824285Y-122741904D01*
X180824285Y-122551428D01*
X180871904Y-122456190D01*
X180919523Y-122408571D01*
X181014761Y-122360952D01*
%TD*%
M02*
