M48
; DRILL file {KiCad (5.1.10)-1} date 11/15/21 13:08:27
; FORMAT={-:-/ absolute / inch / decimal}
; #@! TF.CreationDate,2021-11-15T13:08:27-05:00
; #@! TF.GenerationSoftware,Kicad,Pcbnew,(5.1.10)-1
; #@! TF.FileFunction,Plated,1,2,PTH
FMAT,2
INCH
T1C0.0157
T2C0.0197
T3C0.0300
T4C0.0394
T5C0.1260
%
G90
G05
T1
X4.7Y-5.52
X4.8Y-3.05
X4.85Y-3.0
X4.89Y-2.685
X5.0364Y-3.65
X5.0724Y-3.022
X5.075Y-3.8
X5.1Y-3.075
X5.2Y-3.35
X5.285Y-2.685
X5.325Y-3.45
X5.485Y-2.69
X5.5281Y-4.3031
X5.5541Y-4.2317
X5.59Y-4.62
X5.59Y-4.68
X5.65Y-2.85
X5.675Y-2.9
X5.6836Y-4.5
X5.725Y-4.52
X5.825Y-4.35
X5.91Y-4.78
X5.92Y-4.375
X5.925Y-3.575
X5.9262Y-4.1012
X5.97Y-4.66
X5.9954Y-4.4546
X6.1Y-5.32
X6.13Y-5.22
X6.165Y-2.695
X6.26Y-4.5
X6.27Y-5.51
X6.2762Y-4.1488
X6.32Y-5.22
X6.32Y-5.27
X6.4Y-2.86
X6.44Y-2.9
X6.46Y-5.18
X6.4604Y-5.1204
X6.4888Y-2.7612
X6.5324Y-2.8048
X6.7674Y-4.1076
X6.7674Y-4.2076
X6.7674Y-4.3076
X6.9Y-5.0
X6.95Y-4.875
X6.995Y-4.055
X7.04Y-4.155
X7.08Y-4.245
X7.12Y-4.345
T2
X4.3909Y-3.0391
X4.4884Y-2.5842
X4.4884Y-2.6334
X4.4884Y-2.6826
X4.4884Y-2.7319
X4.4884Y-2.7811
X4.4884Y-2.8303
X4.4884Y-2.8795
X4.4884Y-2.9287
X4.4884Y-2.9779
X4.525Y-4.425
X4.625Y-5.335
X4.7Y-4.425
X5.01Y-4.495
X5.15Y-5.55
X5.18Y-3.88
X5.225Y-4.925
X5.36Y-4.06
X5.5Y-4.515
X5.6Y-5.175
X5.625Y-4.865
X5.73Y-5.27
X5.87Y-4.68
X5.87Y-4.87
X5.87Y-5.27
X6.01Y-2.66
X6.05Y-4.075
X6.05Y-4.275
X6.23Y-4.71
X6.23Y-4.84
X6.24Y-4.61
X6.4Y-4.4
X6.4Y-4.55
X6.775Y-5.4
X6.825Y-5.15
X6.93Y-5.55
T3
X5.525Y-3.725
X5.625Y-3.725
X5.725Y-3.725
X5.825Y-3.725
X5.925Y-3.725
X6.025Y-3.725
T4
X4.75Y-3.35
X4.75Y-3.45
X4.75Y-3.55
X4.75Y-3.65
X4.75Y-3.75
X4.75Y-3.85
X4.75Y-3.95
X4.75Y-4.05
X4.75Y-4.15
X4.75Y-4.25
X4.75Y-4.6
X4.75Y-4.7
X4.75Y-4.8
X4.75Y-4.9
X4.75Y-5.0
X4.75Y-5.1
X4.75Y-5.2
X4.75Y-5.3
X4.7561Y-2.2811
X4.7561Y-2.3811
X4.7561Y-2.4811
X4.7561Y-2.5811
X4.85Y-3.35
X4.85Y-3.45
X4.85Y-3.55
X4.85Y-3.65
X4.85Y-3.75
X4.85Y-3.85
X4.85Y-3.95
X4.85Y-4.05
X4.85Y-4.15
X4.85Y-4.25
X4.85Y-4.6
X4.85Y-4.7
X4.85Y-4.8
X4.85Y-4.9
X4.85Y-5.0
X4.85Y-5.1
X4.85Y-5.2
X4.85Y-5.3
X4.8561Y-2.2811
X4.8561Y-2.3811
X4.8561Y-2.4811
X4.8561Y-2.5811
X4.9561Y-2.2811
X4.9561Y-2.3811
X4.9561Y-2.4811
X4.9561Y-2.5811
X5.0561Y-2.2811
X5.0561Y-2.3811
X5.0561Y-2.4811
X5.0561Y-2.5811
X5.1561Y-2.2811
X5.1561Y-2.3811
X5.1561Y-2.4811
X5.1561Y-2.5811
X5.2561Y-2.2811
X5.2561Y-2.3811
X5.2561Y-2.4811
X5.2561Y-2.5811
X5.3561Y-2.2811
X5.3561Y-2.3811
X5.3561Y-2.4811
X5.3561Y-2.5811
X5.4561Y-2.2811
X5.4561Y-2.3811
X5.4561Y-2.4811
X5.4561Y-2.5811
X5.5561Y-2.2811
X5.5561Y-2.3811
X5.5561Y-2.4811
X5.5561Y-2.5811
X5.6561Y-2.2811
X5.6561Y-2.3811
X5.6561Y-2.4811
X5.6561Y-2.5811
X5.7561Y-2.2811
X5.7561Y-2.3811
X5.7561Y-2.4811
X5.7561Y-2.5811
X5.85Y-5.6
X5.8561Y-2.2811
X5.8561Y-2.3811
X5.8561Y-2.4811
X5.8561Y-2.5811
X5.95Y-5.6
X5.9561Y-2.2811
X5.9561Y-2.3811
X5.9561Y-2.4811
X5.9561Y-2.5811
X6.05Y-5.6
X6.0561Y-2.2811
X6.0561Y-2.3811
X6.0561Y-2.4811
X6.0561Y-2.5811
X6.1561Y-2.2811
X6.1561Y-2.3811
X6.1561Y-2.4811
X6.1561Y-2.5811
X6.2561Y-2.2811
X6.2561Y-2.3811
X6.2561Y-2.4811
X6.2561Y-2.5811
X6.3561Y-2.2811
X6.3561Y-2.3811
X6.3561Y-2.4811
X6.3561Y-2.5811
X6.4561Y-2.2811
X6.4561Y-2.3811
X6.4561Y-2.4811
X6.4561Y-2.5811
X6.5455Y-3.3076
X6.5455Y-3.4076
X6.5455Y-3.5076
X6.5455Y-3.6076
X6.5455Y-3.7076
X6.5455Y-3.8076
X6.5455Y-3.9076
X6.5455Y-4.0076
X6.5455Y-4.1076
X6.5455Y-4.2076
X6.5455Y-4.3076
X6.5455Y-4.4076
X6.5455Y-4.5076
X6.5455Y-4.6076
X6.5455Y-4.7076
X6.5455Y-4.8076
X6.5455Y-4.9076
X6.5455Y-5.0076
X6.5455Y-5.1076
X6.5455Y-5.2076
X6.5561Y-2.2811
X6.5561Y-2.3811
X6.5561Y-2.4811
X6.5561Y-2.5811
X6.6455Y-3.3076
X6.6455Y-3.4076
X6.6455Y-3.5076
X6.6455Y-3.6076
X6.6455Y-3.7076
X6.6455Y-3.8076
X6.6455Y-3.9076
X6.6455Y-4.0076
X6.6455Y-4.1076
X6.6455Y-4.2076
X6.6455Y-4.3076
X6.6455Y-4.4076
X6.6455Y-4.5076
X6.6455Y-4.6076
X6.6455Y-4.7076
X6.6455Y-4.8076
X6.6455Y-4.9076
X6.6455Y-5.0076
X6.6455Y-5.1076
X6.6455Y-5.2076
X6.6561Y-2.2811
X6.6561Y-2.3811
X6.6561Y-2.4811
X6.6561Y-2.5811
X6.7561Y-2.2811
X6.7561Y-2.3811
X6.7561Y-2.4811
X6.7561Y-2.5811
X6.8561Y-2.2811
X6.8561Y-2.3811
X6.8561Y-2.4811
X6.8561Y-2.5811
X6.9561Y-2.2811
X6.9561Y-2.3811
X6.9561Y-2.4811
X6.9561Y-2.5811
X7.0561Y-2.2811
X7.0561Y-2.3811
X7.0561Y-2.4811
X7.0561Y-2.5811
X7.1561Y-2.2811
X7.1561Y-2.3811
X7.1561Y-2.4811
X7.1561Y-2.5811
X7.2561Y-2.2811
X7.2561Y-2.3811
X7.2561Y-2.4811
X7.2561Y-2.5811
T5
X4.4061Y-5.6561
X4.5561Y-2.2811
X7.4561Y-2.2811
X7.5561Y-5.6561
T0
M30
