%TF.GenerationSoftware,KiCad,Pcbnew,(5.1.9)-1*%
%TF.CreationDate,2021-11-26T18:07:58-05:00*%
%TF.ProjectId,REVERB Interface,52455645-5242-4204-996e-746572666163,rev?*%
%TF.SameCoordinates,Original*%
%TF.FileFunction,Soldermask,Bot*%
%TF.FilePolarity,Negative*%
%FSLAX46Y46*%
G04 Gerber Fmt 4.6, Leading zero omitted, Abs format (unit mm)*
G04 Created by KiCad (PCBNEW (5.1.9)-1) date 2021-11-26 18:07:58*
%MOMM*%
%LPD*%
G01*
G04 APERTURE LIST*
%ADD10O,2.000000X1.700000*%
%ADD11C,17.500000*%
%ADD12C,2.300000*%
%ADD13C,2.500000*%
%ADD14C,1.524000*%
%ADD15O,1.700000X1.700000*%
%ADD16R,1.700000X1.700000*%
%ADD17C,2.700000*%
%ADD18C,5.600000*%
%ADD19C,3.600000*%
%ADD20O,1.400000X0.700000*%
%ADD21O,1.500000X1.500000*%
%ADD22R,1.500000X1.500000*%
G04 APERTURE END LIST*
D10*
%TO.C,J6*%
X194310000Y-69175000D03*
G36*
G01*
X193560000Y-65825000D02*
X195060000Y-65825000D01*
G75*
G02*
X195310000Y-66075000I0J-250000D01*
G01*
X195310000Y-67275000D01*
G75*
G02*
X195060000Y-67525000I-250000J0D01*
G01*
X193560000Y-67525000D01*
G75*
G02*
X193310000Y-67275000I0J250000D01*
G01*
X193310000Y-66075000D01*
G75*
G02*
X193560000Y-65825000I250000J0D01*
G01*
G37*
%TD*%
D11*
%TO.C,BT1*%
X181864000Y-92710000D03*
D12*
X180364000Y-103110000D03*
X183464000Y-103110000D03*
X183464000Y-82310000D03*
X180364000Y-82310000D03*
%TD*%
D13*
%TO.C,U1*%
X157480000Y-78105000D03*
X135890000Y-78105000D03*
X157480000Y-93345000D03*
X135890000Y-93345000D03*
D14*
X140335000Y-94615000D03*
X142875000Y-94615000D03*
X145415000Y-94615000D03*
X147955000Y-94615000D03*
X150495000Y-94615000D03*
X153035000Y-94615000D03*
%TD*%
%TO.C,C19*%
G36*
G01*
X159094999Y-122075000D02*
X160945001Y-122075000D01*
G75*
G02*
X161195000Y-122324999I0J-249999D01*
G01*
X161195000Y-124075001D01*
G75*
G02*
X160945001Y-124325000I-249999J0D01*
G01*
X159094999Y-124325000D01*
G75*
G02*
X158845000Y-124075001I0J249999D01*
G01*
X158845000Y-122324999D01*
G75*
G02*
X159094999Y-122075000I249999J0D01*
G01*
G37*
G36*
G01*
X159094999Y-116975000D02*
X160945001Y-116975000D01*
G75*
G02*
X161195000Y-117224999I0J-249999D01*
G01*
X161195000Y-118975001D01*
G75*
G02*
X160945001Y-119225000I-249999J0D01*
G01*
X159094999Y-119225000D01*
G75*
G02*
X158845000Y-118975001I0J249999D01*
G01*
X158845000Y-117224999D01*
G75*
G02*
X159094999Y-116975000I249999J0D01*
G01*
G37*
%TD*%
%TO.C,C17*%
G36*
G01*
X136751000Y-122518999D02*
X136751000Y-124369001D01*
G75*
G02*
X136501001Y-124619000I-249999J0D01*
G01*
X134750999Y-124619000D01*
G75*
G02*
X134501000Y-124369001I0J249999D01*
G01*
X134501000Y-122518999D01*
G75*
G02*
X134750999Y-122269000I249999J0D01*
G01*
X136501001Y-122269000D01*
G75*
G02*
X136751000Y-122518999I0J-249999D01*
G01*
G37*
G36*
G01*
X141851000Y-122518999D02*
X141851000Y-124369001D01*
G75*
G02*
X141601001Y-124619000I-249999J0D01*
G01*
X139850999Y-124619000D01*
G75*
G02*
X139601000Y-124369001I0J249999D01*
G01*
X139601000Y-122518999D01*
G75*
G02*
X139850999Y-122269000I249999J0D01*
G01*
X141601001Y-122269000D01*
G75*
G02*
X141851000Y-122518999I0J-249999D01*
G01*
G37*
%TD*%
%TO.C,C15*%
G36*
G01*
X114055001Y-101405000D02*
X112004999Y-101405000D01*
G75*
G02*
X111755000Y-101155001I0J249999D01*
G01*
X111755000Y-99404999D01*
G75*
G02*
X112004999Y-99155000I249999J0D01*
G01*
X114055001Y-99155000D01*
G75*
G02*
X114305000Y-99404999I0J-249999D01*
G01*
X114305000Y-101155001D01*
G75*
G02*
X114055001Y-101405000I-249999J0D01*
G01*
G37*
G36*
G01*
X114055001Y-107805000D02*
X112004999Y-107805000D01*
G75*
G02*
X111755000Y-107555001I0J249999D01*
G01*
X111755000Y-105804999D01*
G75*
G02*
X112004999Y-105555000I249999J0D01*
G01*
X114055001Y-105555000D01*
G75*
G02*
X114305000Y-105804999I0J-249999D01*
G01*
X114305000Y-107555001D01*
G75*
G02*
X114055001Y-107805000I-249999J0D01*
G01*
G37*
%TD*%
%TO.C,C12*%
G36*
G01*
X165905000Y-72907001D02*
X165905000Y-70856999D01*
G75*
G02*
X166154999Y-70607000I249999J0D01*
G01*
X167905001Y-70607000D01*
G75*
G02*
X168155000Y-70856999I0J-249999D01*
G01*
X168155000Y-72907001D01*
G75*
G02*
X167905001Y-73157000I-249999J0D01*
G01*
X166154999Y-73157000D01*
G75*
G02*
X165905000Y-72907001I0J249999D01*
G01*
G37*
G36*
G01*
X159505000Y-72907001D02*
X159505000Y-70856999D01*
G75*
G02*
X159754999Y-70607000I249999J0D01*
G01*
X161505001Y-70607000D01*
G75*
G02*
X161755000Y-70856999I0J-249999D01*
G01*
X161755000Y-72907001D01*
G75*
G02*
X161505001Y-73157000I-249999J0D01*
G01*
X159754999Y-73157000D01*
G75*
G02*
X159505000Y-72907001I0J249999D01*
G01*
G37*
%TD*%
%TO.C,C18*%
G36*
G01*
X144300000Y-88809001D02*
X144300000Y-86958999D01*
G75*
G02*
X144549999Y-86709000I249999J0D01*
G01*
X146300001Y-86709000D01*
G75*
G02*
X146550000Y-86958999I0J-249999D01*
G01*
X146550000Y-88809001D01*
G75*
G02*
X146300001Y-89059000I-249999J0D01*
G01*
X144549999Y-89059000D01*
G75*
G02*
X144300000Y-88809001I0J249999D01*
G01*
G37*
G36*
G01*
X139200000Y-88809001D02*
X139200000Y-86958999D01*
G75*
G02*
X139449999Y-86709000I249999J0D01*
G01*
X141200001Y-86709000D01*
G75*
G02*
X141450000Y-86958999I0J-249999D01*
G01*
X141450000Y-88809001D01*
G75*
G02*
X141200001Y-89059000I-249999J0D01*
G01*
X139449999Y-89059000D01*
G75*
G02*
X139200000Y-88809001I0J249999D01*
G01*
G37*
%TD*%
%TO.C,C16*%
G36*
G01*
X111088999Y-83721000D02*
X112939001Y-83721000D01*
G75*
G02*
X113189000Y-83970999I0J-249999D01*
G01*
X113189000Y-85721001D01*
G75*
G02*
X112939001Y-85971000I-249999J0D01*
G01*
X111088999Y-85971000D01*
G75*
G02*
X110839000Y-85721001I0J249999D01*
G01*
X110839000Y-83970999D01*
G75*
G02*
X111088999Y-83721000I249999J0D01*
G01*
G37*
G36*
G01*
X111088999Y-78621000D02*
X112939001Y-78621000D01*
G75*
G02*
X113189000Y-78870999I0J-249999D01*
G01*
X113189000Y-80621001D01*
G75*
G02*
X112939001Y-80871000I-249999J0D01*
G01*
X111088999Y-80871000D01*
G75*
G02*
X110839000Y-80621001I0J249999D01*
G01*
X110839000Y-78870999D01*
G75*
G02*
X111088999Y-78621000I249999J0D01*
G01*
G37*
%TD*%
%TO.C,C14*%
G36*
G01*
X114080001Y-127440000D02*
X112029999Y-127440000D01*
G75*
G02*
X111780000Y-127190001I0J249999D01*
G01*
X111780000Y-125439999D01*
G75*
G02*
X112029999Y-125190000I249999J0D01*
G01*
X114080001Y-125190000D01*
G75*
G02*
X114330000Y-125439999I0J-249999D01*
G01*
X114330000Y-127190001D01*
G75*
G02*
X114080001Y-127440000I-249999J0D01*
G01*
G37*
G36*
G01*
X114080001Y-133840000D02*
X112029999Y-133840000D01*
G75*
G02*
X111780000Y-133590001I0J249999D01*
G01*
X111780000Y-131839999D01*
G75*
G02*
X112029999Y-131590000I249999J0D01*
G01*
X114080001Y-131590000D01*
G75*
G02*
X114330000Y-131839999I0J-249999D01*
G01*
X114330000Y-133590001D01*
G75*
G02*
X114080001Y-133840000I-249999J0D01*
G01*
G37*
%TD*%
%TO.C,C13*%
G36*
G01*
X178219000Y-130719001D02*
X178219000Y-128868999D01*
G75*
G02*
X178468999Y-128619000I249999J0D01*
G01*
X180219001Y-128619000D01*
G75*
G02*
X180469000Y-128868999I0J-249999D01*
G01*
X180469000Y-130719001D01*
G75*
G02*
X180219001Y-130969000I-249999J0D01*
G01*
X178468999Y-130969000D01*
G75*
G02*
X178219000Y-130719001I0J249999D01*
G01*
G37*
G36*
G01*
X173119000Y-130719001D02*
X173119000Y-128868999D01*
G75*
G02*
X173368999Y-128619000I249999J0D01*
G01*
X175119001Y-128619000D01*
G75*
G02*
X175369000Y-128868999I0J-249999D01*
G01*
X175369000Y-130719001D01*
G75*
G02*
X175119001Y-130969000I-249999J0D01*
G01*
X173368999Y-130969000D01*
G75*
G02*
X173119000Y-130719001I0J249999D01*
G01*
G37*
%TD*%
%TO.C,C11*%
G36*
G01*
X179621000Y-125231001D02*
X179621000Y-123180999D01*
G75*
G02*
X179870999Y-122931000I249999J0D01*
G01*
X181621001Y-122931000D01*
G75*
G02*
X181871000Y-123180999I0J-249999D01*
G01*
X181871000Y-125231001D01*
G75*
G02*
X181621001Y-125481000I-249999J0D01*
G01*
X179870999Y-125481000D01*
G75*
G02*
X179621000Y-125231001I0J249999D01*
G01*
G37*
G36*
G01*
X173221000Y-125231001D02*
X173221000Y-123180999D01*
G75*
G02*
X173470999Y-122931000I249999J0D01*
G01*
X175221001Y-122931000D01*
G75*
G02*
X175471000Y-123180999I0J-249999D01*
G01*
X175471000Y-125231001D01*
G75*
G02*
X175221001Y-125481000I-249999J0D01*
G01*
X173470999Y-125481000D01*
G75*
G02*
X173221000Y-125231001I0J249999D01*
G01*
G37*
%TD*%
D15*
%TO.C,J1*%
X163970000Y-84014000D03*
X166510000Y-84014000D03*
X163970000Y-86554000D03*
X166510000Y-86554000D03*
X163970000Y-89094000D03*
X166510000Y-89094000D03*
X163970000Y-91634000D03*
X166510000Y-91634000D03*
X163970000Y-94174000D03*
X166510000Y-94174000D03*
X163970000Y-96714000D03*
X166510000Y-96714000D03*
X163970000Y-99254000D03*
X166510000Y-99254000D03*
X163970000Y-101794000D03*
X166510000Y-101794000D03*
X163970000Y-104334000D03*
X166510000Y-104334000D03*
X163970000Y-106874000D03*
X166510000Y-106874000D03*
X163970000Y-109414000D03*
X166510000Y-109414000D03*
X163970000Y-111954000D03*
X166510000Y-111954000D03*
X163970000Y-114494000D03*
X166510000Y-114494000D03*
X163970000Y-117034000D03*
X166510000Y-117034000D03*
X163970000Y-119574000D03*
X166510000Y-119574000D03*
X163970000Y-122114000D03*
X166510000Y-122114000D03*
X163970000Y-124654000D03*
X166510000Y-124654000D03*
X163970000Y-127194000D03*
X166510000Y-127194000D03*
X163970000Y-129734000D03*
X166510000Y-129734000D03*
X163970000Y-132274000D03*
D16*
X166510000Y-132274000D03*
%TD*%
D15*
%TO.C,J5*%
X153670000Y-142240000D03*
X151130000Y-142240000D03*
D16*
X148590000Y-142240000D03*
%TD*%
D17*
%TO.C,M8*%
X188415000Y-136609000D03*
%TD*%
%TO.C,M7*%
X188415000Y-78609000D03*
%TD*%
%TO.C,M6*%
X165288000Y-136609000D03*
%TD*%
%TO.C,M5*%
X165098000Y-79244000D03*
%TD*%
D18*
%TO.C,M4*%
X191926000Y-143664000D03*
D19*
X191926000Y-143664000D03*
%TD*%
D18*
%TO.C,M3*%
X111916000Y-143664000D03*
D19*
X111916000Y-143664000D03*
%TD*%
D18*
%TO.C,M2*%
X189386000Y-57939000D03*
D19*
X189386000Y-57939000D03*
%TD*%
D18*
%TO.C,M1*%
X115726000Y-57939000D03*
D19*
X115726000Y-57939000D03*
%TD*%
D20*
%TO.C,J4*%
X114006000Y-75639000D03*
X114006000Y-74389000D03*
X114006000Y-73139000D03*
X114006000Y-71889000D03*
X114006000Y-70639000D03*
X114006000Y-69389000D03*
X114006000Y-68139000D03*
X114006000Y-66889000D03*
X114006000Y-65639000D03*
%TD*%
D15*
%TO.C,J3*%
X120015000Y-107950000D03*
X117475000Y-107950000D03*
X120015000Y-105410000D03*
X117475000Y-105410000D03*
X120015000Y-102870000D03*
X117475000Y-102870000D03*
X120015000Y-100330000D03*
X117475000Y-100330000D03*
X120015000Y-97790000D03*
X117475000Y-97790000D03*
X120015000Y-95250000D03*
X117475000Y-95250000D03*
X120015000Y-92710000D03*
X117475000Y-92710000D03*
X120015000Y-90170000D03*
X117475000Y-90170000D03*
X120015000Y-87630000D03*
X117475000Y-87630000D03*
X120015000Y-85090000D03*
D16*
X117475000Y-85090000D03*
%TD*%
D15*
%TO.C,J2*%
X117475000Y-116840000D03*
X120015000Y-116840000D03*
X117475000Y-119380000D03*
X120015000Y-119380000D03*
X117475000Y-121920000D03*
X120015000Y-121920000D03*
X117475000Y-124460000D03*
X120015000Y-124460000D03*
X117475000Y-127000000D03*
X120015000Y-127000000D03*
X117475000Y-129540000D03*
X120015000Y-129540000D03*
X117475000Y-132080000D03*
X120015000Y-132080000D03*
X117475000Y-134620000D03*
D16*
X120015000Y-134620000D03*
%TD*%
D21*
%TO.C,H2*%
X184306000Y-57939000D03*
X184306000Y-60479000D03*
X181766000Y-57939000D03*
X181766000Y-60479000D03*
X179226000Y-57939000D03*
X179226000Y-60479000D03*
X176686000Y-57939000D03*
X176686000Y-60479000D03*
X174146000Y-57939000D03*
X174146000Y-60479000D03*
X171606000Y-57939000D03*
X171606000Y-60479000D03*
X169066000Y-57939000D03*
X169066000Y-60479000D03*
X166526000Y-57939000D03*
X166526000Y-60479000D03*
X163986000Y-57939000D03*
X163986000Y-60479000D03*
X161446000Y-57939000D03*
X161446000Y-60479000D03*
X158906000Y-57939000D03*
X158906000Y-60479000D03*
X156366000Y-57939000D03*
X156366000Y-60479000D03*
X153826000Y-57939000D03*
X153826000Y-60479000D03*
X151286000Y-57939000D03*
X151286000Y-60479000D03*
X148746000Y-57939000D03*
X148746000Y-60479000D03*
X146206000Y-57939000D03*
X146206000Y-60479000D03*
X143666000Y-57939000D03*
X143666000Y-60479000D03*
X141126000Y-57939000D03*
X141126000Y-60479000D03*
X138586000Y-57939000D03*
X138586000Y-60479000D03*
X136046000Y-57939000D03*
X136046000Y-60479000D03*
X133506000Y-57939000D03*
X133506000Y-60479000D03*
X130966000Y-57939000D03*
X130966000Y-60479000D03*
X128426000Y-57939000D03*
X128426000Y-60479000D03*
X125886000Y-57939000D03*
X125886000Y-60479000D03*
X123346000Y-57939000D03*
X123346000Y-60479000D03*
X120806000Y-57939000D03*
D22*
X120806000Y-60479000D03*
%TD*%
D21*
%TO.C,H1*%
X184306000Y-63019000D03*
X184306000Y-65559000D03*
X181766000Y-63019000D03*
X181766000Y-65559000D03*
X179226000Y-63019000D03*
X179226000Y-65559000D03*
X176686000Y-63019000D03*
X176686000Y-65559000D03*
X174146000Y-63019000D03*
X174146000Y-65559000D03*
X171606000Y-63019000D03*
X171606000Y-65559000D03*
X169066000Y-63019000D03*
X169066000Y-65559000D03*
X166526000Y-63019000D03*
X166526000Y-65559000D03*
X163986000Y-63019000D03*
X163986000Y-65559000D03*
X161446000Y-63019000D03*
X161446000Y-65559000D03*
X158906000Y-63019000D03*
X158906000Y-65559000D03*
X156366000Y-63019000D03*
X156366000Y-65559000D03*
X153826000Y-63019000D03*
X153826000Y-65559000D03*
X151286000Y-63019000D03*
X151286000Y-65559000D03*
X148746000Y-63019000D03*
X148746000Y-65559000D03*
X146206000Y-63019000D03*
X146206000Y-65559000D03*
X143666000Y-63019000D03*
X143666000Y-65559000D03*
X141126000Y-63019000D03*
X141126000Y-65559000D03*
X138586000Y-63019000D03*
X138586000Y-65559000D03*
X136046000Y-63019000D03*
X136046000Y-65559000D03*
X133506000Y-63019000D03*
X133506000Y-65559000D03*
X130966000Y-63019000D03*
X130966000Y-65559000D03*
X128426000Y-63019000D03*
X128426000Y-65559000D03*
X125886000Y-63019000D03*
X125886000Y-65559000D03*
X123346000Y-63019000D03*
X123346000Y-65559000D03*
X120806000Y-63019000D03*
D22*
X120806000Y-65559000D03*
%TD*%
M02*
