%TF.GenerationSoftware,KiCad,Pcbnew,(5.1.9)-1*%
%TF.CreationDate,2021-10-15T18:08:56-04:00*%
%TF.ProjectId,Combined boards for stencil,436f6d62-696e-4656-9420-626f61726473,rev?*%
%TF.SameCoordinates,Original*%
%TF.FileFunction,Profile,NP*%
%FSLAX46Y46*%
G04 Gerber Fmt 4.6, Leading zero omitted, Abs format (unit mm)*
G04 Created by KiCad (PCBNEW (5.1.9)-1) date 2021-10-15 18:08:56*
%MOMM*%
%LPD*%
G01*
G04 APERTURE LIST*
%TA.AperFunction,Profile*%
%ADD10C,0.050000*%
%TD*%
G04 APERTURE END LIST*
D10*
X149127000Y-62511000D02*
X58957000Y-62511000D01*
X149127000Y-97436000D02*
X149127000Y-62511000D01*
X147222000Y-100611000D02*
X149127000Y-97436000D01*
X147222000Y-118391000D02*
X147222000Y-100611000D01*
X149127000Y-120296000D02*
X147222000Y-118391000D01*
X149127000Y-158396000D02*
X149127000Y-120296000D01*
X121822000Y-158396000D02*
X149127000Y-158396000D01*
X119282000Y-155856000D02*
X121822000Y-158396000D01*
X86262000Y-155856000D02*
X119282000Y-155856000D01*
X83722000Y-158396000D02*
X86262000Y-155856000D01*
X58957000Y-158396000D02*
X83722000Y-158396000D01*
X58957000Y-139346000D02*
X58957000Y-158396000D01*
X60862000Y-134901000D02*
X58957000Y-139346000D01*
X60862000Y-92356000D02*
X60862000Y-134901000D01*
X58957000Y-90451000D02*
X60862000Y-92356000D01*
X58957000Y-62511000D02*
X58957000Y-90451000D01*
X240440000Y-62511000D02*
X150270000Y-62511000D01*
X240440000Y-97436000D02*
X240440000Y-62511000D01*
X238535000Y-100611000D02*
X240440000Y-97436000D01*
X238535000Y-118391000D02*
X238535000Y-100611000D01*
X240440000Y-120296000D02*
X238535000Y-118391000D01*
X240440000Y-158396000D02*
X240440000Y-120296000D01*
X213135000Y-158396000D02*
X240440000Y-158396000D01*
X210595000Y-155856000D02*
X213135000Y-158396000D01*
X177575000Y-155856000D02*
X210595000Y-155856000D01*
X175035000Y-158396000D02*
X177575000Y-155856000D01*
X150270000Y-158396000D02*
X175035000Y-158396000D01*
X150270000Y-139346000D02*
X150270000Y-158396000D01*
X152175000Y-134901000D02*
X150270000Y-139346000D01*
X152175000Y-92356000D02*
X152175000Y-134901000D01*
X150270000Y-90451000D02*
X152175000Y-92356000D01*
X150270000Y-62511000D02*
X150270000Y-90451000D01*
M02*
