%TF.GenerationSoftware,KiCad,Pcbnew,(5.1.9)-1*%
%TF.CreationDate,2021-10-15T17:24:20-04:00*%
%TF.ProjectId,Combined boards for stencil,436f6d62-696e-4656-9420-626f61726473,rev?*%
%TF.SameCoordinates,Original*%
%TF.FileFunction,Profile,NP*%
%FSLAX46Y46*%
G04 Gerber Fmt 4.6, Leading zero omitted, Abs format (unit mm)*
G04 Created by KiCad (PCBNEW (5.1.9)-1) date 2021-10-15 17:24:20*
%MOMM*%
%LPD*%
G01*
G04 APERTURE LIST*
%TA.AperFunction,Profile*%
%ADD10C,0.050000*%
%TD*%
G04 APERTURE END LIST*
D10*
X157636000Y-55780000D02*
X67466000Y-55780000D01*
X157636000Y-90705000D02*
X157636000Y-55780000D01*
X155731000Y-93880000D02*
X157636000Y-90705000D01*
X155731000Y-111660000D02*
X155731000Y-93880000D01*
X157636000Y-113565000D02*
X155731000Y-111660000D01*
X157636000Y-151665000D02*
X157636000Y-113565000D01*
X130331000Y-151665000D02*
X157636000Y-151665000D01*
X127791000Y-149125000D02*
X130331000Y-151665000D01*
X94771000Y-149125000D02*
X127791000Y-149125000D01*
X92231000Y-151665000D02*
X94771000Y-149125000D01*
X67466000Y-151665000D02*
X92231000Y-151665000D01*
X67466000Y-132615000D02*
X67466000Y-151665000D01*
X69371000Y-128170000D02*
X67466000Y-132615000D01*
X69371000Y-85625000D02*
X69371000Y-128170000D01*
X67466000Y-83720000D02*
X69371000Y-85625000D01*
X67466000Y-55780000D02*
X67466000Y-83720000D01*
X248314000Y-55780000D02*
X158144000Y-55780000D01*
X248314000Y-90705000D02*
X248314000Y-55780000D01*
X246409000Y-93880000D02*
X248314000Y-90705000D01*
X246409000Y-111660000D02*
X246409000Y-93880000D01*
X248314000Y-113565000D02*
X246409000Y-111660000D01*
X248314000Y-151665000D02*
X248314000Y-113565000D01*
X221009000Y-151665000D02*
X248314000Y-151665000D01*
X218469000Y-149125000D02*
X221009000Y-151665000D01*
X185449000Y-149125000D02*
X218469000Y-149125000D01*
X182909000Y-151665000D02*
X185449000Y-149125000D01*
X158144000Y-151665000D02*
X182909000Y-151665000D01*
X158144000Y-132615000D02*
X158144000Y-151665000D01*
X160049000Y-128170000D02*
X158144000Y-132615000D01*
X160049000Y-85625000D02*
X160049000Y-128170000D01*
X158144000Y-83720000D02*
X160049000Y-85625000D01*
X158144000Y-55780000D02*
X158144000Y-83720000D01*
M02*
