M48
; DRILL file {KiCad (5.1.9)-1} date 10/15/21 18:08:57
; FORMAT={-:-/ absolute / inch / decimal}
; #@! TF.CreationDate,2021-10-15T18:08:57-04:00
; #@! TF.GenerationSoftware,Kicad,Pcbnew,(5.1.9)-1
; #@! TF.FileFunction,Plated,1,2,PTH
FMAT,2
INCH
T1C0.0157
T2C0.0197
T3C0.0276
T4C0.0300
T5C0.0315
T6C0.0394
T7C0.1260
%
G90
G05
T1
X2.89Y-3.43
X2.94Y-3.38
X2.965Y-3.08
X3.365Y-4.18
X3.365Y-4.105
X3.365Y-3.805
X3.415Y-3.93
X3.44Y-3.08
X3.59Y-3.08
X3.64Y-4.73
X3.69Y-4.905
X3.79Y-4.805
X3.7912Y-4.5288
X3.84Y-4.68
X3.84Y-5.005
X3.8638Y-4.48
X3.94Y-5.105
X3.94Y-5.005
X4.015Y-5.105
X4.0412Y-4.4812
X4.065Y-4.78
X4.115Y-5.005
X4.29Y-3.08
X4.3912Y-4.5288
X4.515Y-3.24
X4.555Y-3.28
X4.6038Y-3.1412
X4.6474Y-3.1848
X5.015Y-5.38
X5.065Y-5.255
X6.51Y-3.43
X6.56Y-3.38
X6.6Y-3.065
X6.96Y-4.18
X6.96Y-4.105
X6.96Y-3.78
X6.995Y-3.065
X7.01Y-3.905
X7.195Y-3.07
X7.235Y-4.73
X7.29Y-4.9
X7.385Y-4.805
X7.3862Y-4.5288
X7.41Y-4.7
X7.435Y-4.9
X7.4588Y-4.48
X7.63Y-4.755
X7.6362Y-4.4812
X7.7054Y-4.8346
X7.71Y-5.605
X7.76Y-4.98
X7.76Y-5.0297
X7.785Y-5.455
X7.7878Y-5.0828
X7.835Y-5.105
X7.875Y-3.075
X7.9862Y-4.5288
X8.0289Y-5.38
X8.06Y-4.98
X8.11Y-3.24
X8.15Y-3.28
X8.1911Y-4.8989
X8.1988Y-3.1412
X8.2424Y-3.1848
X8.4774Y-4.4876
X8.4774Y-4.5876
X8.4774Y-4.6876
X8.61Y-5.38
X8.66Y-5.255
X8.705Y-4.435
X8.75Y-4.535
X8.79Y-4.625
X8.83Y-4.725
T2
X2.6034Y-2.9642
X2.6034Y-3.0134
X2.6034Y-3.0626
X2.6034Y-3.1119
X2.6034Y-3.1611
X2.6034Y-3.2103
X2.6034Y-3.2595
X2.6034Y-3.3087
X2.6034Y-3.3579
X2.665Y-4.805
X2.815Y-4.805
X3.265Y-5.73
X3.34Y-5.105
X3.64Y-5.105
X3.715Y-5.355
X3.94Y-5.53
X4.125Y-3.04
X4.165Y-4.455
X4.165Y-4.655
X4.215Y-5.605
X4.34Y-5.205
X4.39Y-5.48
X4.465Y-4.655
X5.365Y-5.53
X5.475Y-5.78
X6.1984Y-2.9642
X6.1984Y-3.0134
X6.1984Y-3.0626
X6.1984Y-3.1119
X6.1984Y-3.1611
X6.1984Y-3.2103
X6.1984Y-3.2595
X6.1984Y-3.3087
X6.1984Y-3.3579
X6.235Y-4.805
X6.41Y-4.805
X6.86Y-5.73
X6.935Y-5.105
X7.235Y-5.105
X7.31Y-5.355
X7.66Y-5.055
X7.685Y-5.88
X7.72Y-3.04
X7.76Y-4.455
X7.76Y-4.655
X8.06Y-5.88
X8.485Y-5.78
X8.685Y-5.955
T4
X3.44Y-4.03
X3.54Y-4.03
X3.64Y-3.43
X3.64Y-4.03
X3.74Y-3.43
X3.74Y-4.03
X3.84Y-3.43
X3.84Y-4.03
X3.94Y-3.43
X3.94Y-4.03
X4.04Y-3.43
X4.04Y-4.03
X4.14Y-4.03
X4.24Y-4.03
X7.035Y-4.03
X7.135Y-4.03
X7.235Y-3.43
X7.235Y-4.03
X7.335Y-3.43
X7.335Y-4.03
X7.435Y-3.43
X7.435Y-4.03
X7.535Y-3.43
X7.535Y-4.03
X7.635Y-3.43
X7.635Y-4.03
X7.735Y-4.03
X7.835Y-4.03
T5
X7.7679Y-5.755
X7.96Y-5.755
T6
X2.865Y-3.73
X2.865Y-3.83
X2.865Y-3.93
X2.865Y-4.03
X2.865Y-4.13
X2.865Y-4.23
X2.865Y-4.33
X2.865Y-4.43
X2.865Y-4.53
X2.865Y-4.63
X2.865Y-4.98
X2.865Y-5.08
X2.865Y-5.18
X2.865Y-5.28
X2.865Y-5.38
X2.865Y-5.48
X2.865Y-5.58
X2.865Y-5.68
X2.8711Y-2.6611
X2.8711Y-2.7611
X2.8711Y-2.8611
X2.8711Y-2.9611
X2.965Y-3.73
X2.965Y-3.83
X2.965Y-3.93
X2.965Y-4.03
X2.965Y-4.13
X2.965Y-4.23
X2.965Y-4.33
X2.965Y-4.43
X2.965Y-4.53
X2.965Y-4.63
X2.965Y-4.98
X2.965Y-5.08
X2.965Y-5.18
X2.965Y-5.28
X2.965Y-5.38
X2.965Y-5.48
X2.965Y-5.58
X2.965Y-5.68
X2.9711Y-2.6611
X2.9711Y-2.7611
X2.9711Y-2.8611
X2.9711Y-2.9611
X3.0711Y-2.6611
X3.0711Y-2.7611
X3.0711Y-2.8611
X3.0711Y-2.9611
X3.1711Y-2.6611
X3.1711Y-2.7611
X3.1711Y-2.8611
X3.1711Y-2.9611
X3.2711Y-2.6611
X3.2711Y-2.7611
X3.2711Y-2.8611
X3.2711Y-2.9611
X3.3711Y-2.6611
X3.3711Y-2.7611
X3.3711Y-2.8611
X3.3711Y-2.9611
X3.4711Y-2.6611
X3.4711Y-2.7611
X3.4711Y-2.8611
X3.4711Y-2.9611
X3.5711Y-2.6611
X3.5711Y-2.7611
X3.5711Y-2.8611
X3.5711Y-2.9611
X3.6711Y-2.6611
X3.6711Y-2.7611
X3.6711Y-2.8611
X3.6711Y-2.9611
X3.7711Y-2.6611
X3.7711Y-2.7611
X3.7711Y-2.8611
X3.7711Y-2.9611
X3.8711Y-2.6611
X3.8711Y-2.7611
X3.8711Y-2.8611
X3.8711Y-2.9611
X3.9711Y-2.6611
X3.9711Y-2.7611
X3.9711Y-2.8611
X3.9711Y-2.9611
X4.0711Y-2.6611
X4.0711Y-2.7611
X4.0711Y-2.8611
X4.0711Y-2.9611
X4.1711Y-2.6611
X4.1711Y-2.7611
X4.1711Y-2.8611
X4.1711Y-2.9611
X4.2711Y-2.6611
X4.2711Y-2.7611
X4.2711Y-2.8611
X4.2711Y-2.9611
X4.3711Y-2.6611
X4.3711Y-2.7611
X4.3711Y-2.8611
X4.3711Y-2.9611
X4.4711Y-2.6611
X4.4711Y-2.7611
X4.4711Y-2.8611
X4.4711Y-2.9611
X4.5711Y-2.6611
X4.5711Y-2.7611
X4.5711Y-2.8611
X4.5711Y-2.9611
X4.6605Y-3.6876
X4.6605Y-3.7876
X4.6605Y-3.8876
X4.6605Y-3.9876
X4.6605Y-4.0876
X4.6605Y-4.1876
X4.6605Y-4.2876
X4.6605Y-4.3876
X4.6605Y-4.4876
X4.6605Y-4.5876
X4.6605Y-4.6876
X4.6605Y-4.7876
X4.6605Y-4.8876
X4.6605Y-4.9876
X4.6605Y-5.0876
X4.6605Y-5.1876
X4.6605Y-5.2876
X4.6605Y-5.3876
X4.6605Y-5.4876
X4.6605Y-5.5876
X4.6711Y-2.6611
X4.6711Y-2.7611
X4.6711Y-2.8611
X4.6711Y-2.9611
X4.7605Y-3.6876
X4.7605Y-3.7876
X4.7605Y-3.8876
X4.7605Y-3.9876
X4.7605Y-4.0876
X4.7605Y-4.1876
X4.7605Y-4.2876
X4.7605Y-4.3876
X4.7605Y-4.4876
X4.7605Y-4.5876
X4.7605Y-4.6876
X4.7605Y-4.7876
X4.7605Y-4.8876
X4.7605Y-4.9876
X4.7605Y-5.0876
X4.7605Y-5.1876
X4.7605Y-5.2876
X4.7605Y-5.3876
X4.7605Y-5.4876
X4.7605Y-5.5876
X4.7711Y-2.6611
X4.7711Y-2.7611
X4.7711Y-2.8611
X4.7711Y-2.9611
X4.8711Y-2.6611
X4.8711Y-2.7611
X4.8711Y-2.8611
X4.8711Y-2.9611
X4.9711Y-2.6611
X4.9711Y-2.7611
X4.9711Y-2.8611
X4.9711Y-2.9611
X5.0711Y-2.6611
X5.0711Y-2.7611
X5.0711Y-2.8611
X5.0711Y-2.9611
X5.1711Y-2.6611
X5.1711Y-2.7611
X5.1711Y-2.8611
X5.1711Y-2.9611
X5.19Y-5.83
X5.19Y-5.93
X5.2711Y-2.6611
X5.2711Y-2.7611
X5.2711Y-2.8611
X5.2711Y-2.9611
X5.3711Y-2.6611
X5.3711Y-2.7611
X5.3711Y-2.8611
X5.3711Y-2.9611
X5.6355Y-4.2376
X5.6355Y-4.3376
X6.46Y-3.73
X6.46Y-3.83
X6.46Y-3.93
X6.46Y-4.03
X6.46Y-4.13
X6.46Y-4.23
X6.46Y-4.33
X6.46Y-4.43
X6.46Y-4.53
X6.46Y-4.63
X6.46Y-4.98
X6.46Y-5.08
X6.46Y-5.18
X6.46Y-5.28
X6.46Y-5.38
X6.46Y-5.48
X6.46Y-5.58
X6.46Y-5.68
X6.4661Y-2.6611
X6.4661Y-2.7611
X6.4661Y-2.8611
X6.4661Y-2.9611
X6.56Y-3.73
X6.56Y-3.83
X6.56Y-3.93
X6.56Y-4.03
X6.56Y-4.13
X6.56Y-4.23
X6.56Y-4.33
X6.56Y-4.43
X6.56Y-4.53
X6.56Y-4.63
X6.56Y-4.98
X6.56Y-5.08
X6.56Y-5.18
X6.56Y-5.28
X6.56Y-5.38
X6.56Y-5.48
X6.56Y-5.58
X6.56Y-5.68
X6.5661Y-2.6611
X6.5661Y-2.7611
X6.5661Y-2.8611
X6.5661Y-2.9611
X6.6661Y-2.6611
X6.6661Y-2.7611
X6.6661Y-2.8611
X6.6661Y-2.9611
X6.7661Y-2.6611
X6.7661Y-2.7611
X6.7661Y-2.8611
X6.7661Y-2.9611
X6.8661Y-2.6611
X6.8661Y-2.7611
X6.8661Y-2.8611
X6.8661Y-2.9611
X6.9661Y-2.6611
X6.9661Y-2.7611
X6.9661Y-2.8611
X6.9661Y-2.9611
X7.0661Y-2.6611
X7.0661Y-2.7611
X7.0661Y-2.8611
X7.0661Y-2.9611
X7.1661Y-2.6611
X7.1661Y-2.7611
X7.1661Y-2.8611
X7.1661Y-2.9611
X7.2661Y-2.6611
X7.2661Y-2.7611
X7.2661Y-2.8611
X7.2661Y-2.9611
X7.3661Y-2.6611
X7.3661Y-2.7611
X7.3661Y-2.8611
X7.3661Y-2.9611
X7.4661Y-2.6611
X7.4661Y-2.7611
X7.4661Y-2.8611
X7.4661Y-2.9611
X7.5661Y-2.6611
X7.5661Y-2.7611
X7.5661Y-2.8611
X7.5661Y-2.9611
X7.6661Y-2.6611
X7.6661Y-2.7611
X7.6661Y-2.8611
X7.6661Y-2.9611
X7.7661Y-2.6611
X7.7661Y-2.7611
X7.7661Y-2.8611
X7.7661Y-2.9611
X7.8661Y-2.6611
X7.8661Y-2.7611
X7.8661Y-2.8611
X7.8661Y-2.9611
X7.9661Y-2.6611
X7.9661Y-2.7611
X7.9661Y-2.8611
X7.9661Y-2.9611
X8.0661Y-2.6611
X8.0661Y-2.7611
X8.0661Y-2.8611
X8.0661Y-2.9611
X8.1661Y-2.6611
X8.1661Y-2.7611
X8.1661Y-2.8611
X8.1661Y-2.9611
X8.2555Y-3.6876
X8.2555Y-3.7876
X8.2555Y-3.8876
X8.2555Y-3.9876
X8.2555Y-4.0876
X8.2555Y-4.1876
X8.2555Y-4.2876
X8.2555Y-4.3876
X8.2555Y-4.4876
X8.2555Y-4.5876
X8.2555Y-4.6876
X8.2555Y-4.7876
X8.2555Y-4.8876
X8.2555Y-4.9876
X8.2555Y-5.0876
X8.2555Y-5.1876
X8.2555Y-5.2876
X8.2555Y-5.3876
X8.2555Y-5.4876
X8.2555Y-5.5876
X8.2661Y-2.6611
X8.2661Y-2.7611
X8.2661Y-2.8611
X8.2661Y-2.9611
X8.3555Y-3.6876
X8.3555Y-3.7876
X8.3555Y-3.8876
X8.3555Y-3.9876
X8.3555Y-4.0876
X8.3555Y-4.1876
X8.3555Y-4.2876
X8.3555Y-4.3876
X8.3555Y-4.4876
X8.3555Y-4.5876
X8.3555Y-4.6876
X8.3555Y-4.7876
X8.3555Y-4.8876
X8.3555Y-4.9876
X8.3555Y-5.0876
X8.3555Y-5.1876
X8.3555Y-5.2876
X8.3555Y-5.3876
X8.3555Y-5.4876
X8.3555Y-5.5876
X8.3661Y-2.6611
X8.3661Y-2.7611
X8.3661Y-2.8611
X8.3661Y-2.9611
X8.4661Y-2.6611
X8.4661Y-2.7611
X8.4661Y-2.8611
X8.4661Y-2.9611
X8.5661Y-2.6611
X8.5661Y-2.7611
X8.5661Y-2.8611
X8.5661Y-2.9611
X8.6661Y-2.6611
X8.6661Y-2.7611
X8.6661Y-2.8611
X8.6661Y-2.9611
X8.7661Y-2.6611
X8.7661Y-2.7611
X8.7661Y-2.8611
X8.7661Y-2.9611
X8.8661Y-2.6611
X8.8661Y-2.7611
X8.8661Y-2.8611
X8.8661Y-2.9611
X8.9661Y-2.6611
X8.9661Y-2.7611
X8.9661Y-2.8611
X8.9661Y-2.9611
T7
X2.5211Y-6.0361
X2.6711Y-2.6611
X5.5711Y-2.6611
X5.6711Y-6.0361
X6.1161Y-6.0361
X6.2661Y-2.6611
X9.1661Y-2.6611
X9.2661Y-6.0361
T3
G00X4.039Y-5.9448
M15
G01X4.0311Y-5.9448
M16
G05
G00X4.2989Y-5.9448
M15
G01X4.291Y-5.9448
M16
G05
T5
G00X4.0233Y-6.0648
M15
G01X4.0233Y-6.0452
M16
G05
G00X4.3067Y-6.0648
M15
G01X4.3067Y-6.0452
M16
G05
T0
M30
