%TF.GenerationSoftware,KiCad,Pcbnew,(5.1.9)-1*%
%TF.CreationDate,2021-10-15T18:08:56-04:00*%
%TF.ProjectId,Combined boards for stencil,436f6d62-696e-4656-9420-626f61726473,rev?*%
%TF.SameCoordinates,Original*%
%TF.FileFunction,Soldermask,Bot*%
%TF.FilePolarity,Negative*%
%FSLAX46Y46*%
G04 Gerber Fmt 4.6, Leading zero omitted, Abs format (unit mm)*
G04 Created by KiCad (PCBNEW (5.1.9)-1) date 2021-10-15 18:08:56*
%MOMM*%
%LPD*%
G01*
G04 APERTURE LIST*
%ADD10C,2.700000*%
%ADD11O,1.700000X1.700000*%
%ADD12R,1.700000X1.700000*%
%ADD13C,1.524000*%
%ADD14C,0.800000*%
%ADD15C,5.600000*%
%ADD16C,3.600000*%
%ADD17O,1.400000X0.700000*%
%ADD18O,1.500000X1.500000*%
%ADD19R,1.500000X1.500000*%
%ADD20C,1.500000*%
G04 APERTURE END LIST*
D10*
%TO.C,M8*%
X142822000Y-146261000D03*
%TD*%
%TO.C,M7*%
X142822000Y-88261000D03*
%TD*%
%TO.C,M6*%
X119695000Y-146261000D03*
%TD*%
%TO.C,M5*%
X119505000Y-88896000D03*
%TD*%
D11*
%TO.C,J8*%
X143142000Y-110176000D03*
D12*
X143142000Y-107636000D03*
%TD*%
D13*
%TO.C,U1*%
X87376000Y-102362000D03*
X89916000Y-102362000D03*
X92456000Y-102362000D03*
X94996000Y-102362000D03*
X97536000Y-102362000D03*
X100076000Y-102362000D03*
X102616000Y-102362000D03*
X105156000Y-102362000D03*
X107696000Y-102362000D03*
X92456000Y-87122000D03*
X102616000Y-87122000D03*
X100076000Y-87122000D03*
X97536000Y-87122000D03*
X94996000Y-87122000D03*
%TD*%
D14*
%TO.C,J6*%
X107741000Y-151967000D03*
X103841000Y-151967000D03*
G36*
G01*
X102941000Y-153072000D02*
X102941000Y-154522000D01*
G75*
G02*
X102566000Y-154897000I-375000J0D01*
G01*
X101816000Y-154897000D01*
G75*
G02*
X101441000Y-154522000I0J375000D01*
G01*
X101441000Y-153072000D01*
G75*
G02*
X101816000Y-152697000I375000J0D01*
G01*
X102566000Y-152697000D01*
G75*
G02*
X102941000Y-153072000I0J-375000D01*
G01*
G37*
G36*
G01*
X110141000Y-153072000D02*
X110141000Y-154522000D01*
G75*
G02*
X109766000Y-154897000I-375000J0D01*
G01*
X109016000Y-154897000D01*
G75*
G02*
X108641000Y-154522000I0J375000D01*
G01*
X108641000Y-153072000D01*
G75*
G02*
X109016000Y-152697000I375000J0D01*
G01*
X109766000Y-152697000D01*
G75*
G02*
X110141000Y-153072000I0J-375000D01*
G01*
G37*
G36*
G01*
X109941000Y-150622000D02*
X109941000Y-151372000D01*
G75*
G02*
X109566000Y-151747000I-375000J0D01*
G01*
X108616000Y-151747000D01*
G75*
G02*
X108241000Y-151372000I0J375000D01*
G01*
X108241000Y-150622000D01*
G75*
G02*
X108616000Y-150247000I375000J0D01*
G01*
X109566000Y-150247000D01*
G75*
G02*
X109941000Y-150622000I0J-375000D01*
G01*
G37*
G36*
G01*
X103341000Y-150622000D02*
X103341000Y-151372000D01*
G75*
G02*
X102966000Y-151747000I-375000J0D01*
G01*
X102016000Y-151747000D01*
G75*
G02*
X101641000Y-151372000I0J375000D01*
G01*
X101641000Y-150622000D01*
G75*
G02*
X102016000Y-150247000I375000J0D01*
G01*
X102966000Y-150247000D01*
G75*
G02*
X103341000Y-150622000I0J-375000D01*
G01*
G37*
%TD*%
D15*
%TO.C,M4*%
X144047000Y-153316000D03*
D16*
X144047000Y-153316000D03*
%TD*%
D15*
%TO.C,M3*%
X64037000Y-153316000D03*
D16*
X64037000Y-153316000D03*
%TD*%
D15*
%TO.C,M2*%
X141507000Y-67591000D03*
D16*
X141507000Y-67591000D03*
%TD*%
D15*
%TO.C,M1*%
X67847000Y-67591000D03*
D16*
X67847000Y-67591000D03*
%TD*%
D11*
%TO.C,J7*%
X131826000Y-148082000D03*
D12*
X131826000Y-150622000D03*
%TD*%
D17*
%TO.C,J4*%
X66127000Y-85291000D03*
X66127000Y-84041000D03*
X66127000Y-82791000D03*
X66127000Y-81541000D03*
X66127000Y-80291000D03*
X66127000Y-79041000D03*
X66127000Y-77791000D03*
X66127000Y-76541000D03*
X66127000Y-75291000D03*
%TD*%
D11*
%TO.C,J3*%
X75311000Y-117602000D03*
X72771000Y-117602000D03*
X75311000Y-115062000D03*
X72771000Y-115062000D03*
X75311000Y-112522000D03*
X72771000Y-112522000D03*
X75311000Y-109982000D03*
X72771000Y-109982000D03*
X75311000Y-107442000D03*
X72771000Y-107442000D03*
X75311000Y-104902000D03*
X72771000Y-104902000D03*
X75311000Y-102362000D03*
X72771000Y-102362000D03*
X75311000Y-99822000D03*
X72771000Y-99822000D03*
X75311000Y-97282000D03*
X72771000Y-97282000D03*
X75311000Y-94742000D03*
D12*
X72771000Y-94742000D03*
%TD*%
D11*
%TO.C,J2*%
X72771000Y-126492000D03*
X75311000Y-126492000D03*
X72771000Y-129032000D03*
X75311000Y-129032000D03*
X72771000Y-131572000D03*
X75311000Y-131572000D03*
X72771000Y-134112000D03*
X75311000Y-134112000D03*
X72771000Y-136652000D03*
X75311000Y-136652000D03*
X72771000Y-139192000D03*
X75311000Y-139192000D03*
X72771000Y-141732000D03*
X75311000Y-141732000D03*
X72771000Y-144272000D03*
D12*
X75311000Y-144272000D03*
%TD*%
D11*
%TO.C,J1*%
X118377000Y-93666000D03*
X120917000Y-93666000D03*
X118377000Y-96206000D03*
X120917000Y-96206000D03*
X118377000Y-98746000D03*
X120917000Y-98746000D03*
X118377000Y-101286000D03*
X120917000Y-101286000D03*
X118377000Y-103826000D03*
X120917000Y-103826000D03*
X118377000Y-106366000D03*
X120917000Y-106366000D03*
X118377000Y-108906000D03*
X120917000Y-108906000D03*
X118377000Y-111446000D03*
X120917000Y-111446000D03*
X118377000Y-113986000D03*
X120917000Y-113986000D03*
X118377000Y-116526000D03*
X120917000Y-116526000D03*
X118377000Y-119066000D03*
X120917000Y-119066000D03*
X118377000Y-121606000D03*
X120917000Y-121606000D03*
X118377000Y-124146000D03*
X120917000Y-124146000D03*
X118377000Y-126686000D03*
X120917000Y-126686000D03*
X118377000Y-129226000D03*
X120917000Y-129226000D03*
X118377000Y-131766000D03*
X120917000Y-131766000D03*
X118377000Y-134306000D03*
X120917000Y-134306000D03*
X118377000Y-136846000D03*
X120917000Y-136846000D03*
X118377000Y-139386000D03*
X120917000Y-139386000D03*
X118377000Y-141926000D03*
D12*
X120917000Y-141926000D03*
%TD*%
D18*
%TO.C,H2*%
X136427000Y-67591000D03*
X136427000Y-70131000D03*
X133887000Y-67591000D03*
X133887000Y-70131000D03*
X131347000Y-67591000D03*
X131347000Y-70131000D03*
X128807000Y-67591000D03*
X128807000Y-70131000D03*
X126267000Y-67591000D03*
X126267000Y-70131000D03*
X123727000Y-67591000D03*
X123727000Y-70131000D03*
X121187000Y-67591000D03*
X121187000Y-70131000D03*
X118647000Y-67591000D03*
X118647000Y-70131000D03*
X116107000Y-67591000D03*
X116107000Y-70131000D03*
X113567000Y-67591000D03*
X113567000Y-70131000D03*
X111027000Y-67591000D03*
X111027000Y-70131000D03*
X108487000Y-67591000D03*
X108487000Y-70131000D03*
X105947000Y-67591000D03*
X105947000Y-70131000D03*
X103407000Y-67591000D03*
X103407000Y-70131000D03*
X100867000Y-67591000D03*
X100867000Y-70131000D03*
X98327000Y-67591000D03*
X98327000Y-70131000D03*
X95787000Y-67591000D03*
X95787000Y-70131000D03*
X93247000Y-67591000D03*
X93247000Y-70131000D03*
X90707000Y-67591000D03*
X90707000Y-70131000D03*
X88167000Y-67591000D03*
X88167000Y-70131000D03*
X85627000Y-67591000D03*
X85627000Y-70131000D03*
X83087000Y-67591000D03*
X83087000Y-70131000D03*
X80547000Y-67591000D03*
X80547000Y-70131000D03*
X78007000Y-67591000D03*
X78007000Y-70131000D03*
X75467000Y-67591000D03*
X75467000Y-70131000D03*
X72927000Y-67591000D03*
D19*
X72927000Y-70131000D03*
%TD*%
D18*
%TO.C,H1*%
X136427000Y-72671000D03*
X136427000Y-75211000D03*
X133887000Y-72671000D03*
X133887000Y-75211000D03*
X131347000Y-72671000D03*
X131347000Y-75211000D03*
X128807000Y-72671000D03*
X128807000Y-75211000D03*
X126267000Y-72671000D03*
X126267000Y-75211000D03*
X123727000Y-72671000D03*
X123727000Y-75211000D03*
X121187000Y-72671000D03*
X121187000Y-75211000D03*
X118647000Y-72671000D03*
X118647000Y-75211000D03*
X116107000Y-72671000D03*
X116107000Y-75211000D03*
X113567000Y-72671000D03*
X113567000Y-75211000D03*
X111027000Y-72671000D03*
X111027000Y-75211000D03*
X108487000Y-72671000D03*
X108487000Y-75211000D03*
X105947000Y-72671000D03*
X105947000Y-75211000D03*
X103407000Y-72671000D03*
X103407000Y-75211000D03*
X100867000Y-72671000D03*
X100867000Y-75211000D03*
X98327000Y-72671000D03*
X98327000Y-75211000D03*
X95787000Y-72671000D03*
X95787000Y-75211000D03*
X93247000Y-72671000D03*
X93247000Y-75211000D03*
X90707000Y-72671000D03*
X90707000Y-75211000D03*
X88167000Y-72671000D03*
X88167000Y-75211000D03*
X85627000Y-72671000D03*
X85627000Y-75211000D03*
X83087000Y-72671000D03*
X83087000Y-75211000D03*
X80547000Y-72671000D03*
X80547000Y-75211000D03*
X78007000Y-72671000D03*
X78007000Y-75211000D03*
X75467000Y-72671000D03*
X75467000Y-75211000D03*
X72927000Y-72671000D03*
D19*
X72927000Y-75211000D03*
%TD*%
D20*
%TO.C,Y1*%
X197304000Y-146177000D03*
X202184000Y-146177000D03*
%TD*%
D10*
%TO.C,M8*%
X234135000Y-146261000D03*
%TD*%
%TO.C,M7*%
X234135000Y-88261000D03*
%TD*%
%TO.C,M6*%
X211008000Y-146261000D03*
%TD*%
%TO.C,M5*%
X210818000Y-88896000D03*
%TD*%
D13*
%TO.C,U1*%
X178689000Y-102362000D03*
X181229000Y-102362000D03*
X183769000Y-102362000D03*
X186309000Y-102362000D03*
X188849000Y-102362000D03*
X191389000Y-102362000D03*
X193929000Y-102362000D03*
X196469000Y-102362000D03*
X199009000Y-102362000D03*
X183769000Y-87122000D03*
X193929000Y-87122000D03*
X191389000Y-87122000D03*
X188849000Y-87122000D03*
X186309000Y-87122000D03*
%TD*%
D15*
%TO.C,M4*%
X235360000Y-153316000D03*
D16*
X235360000Y-153316000D03*
%TD*%
D15*
%TO.C,M3*%
X155350000Y-153316000D03*
D16*
X155350000Y-153316000D03*
%TD*%
D15*
%TO.C,M2*%
X232820000Y-67591000D03*
D16*
X232820000Y-67591000D03*
%TD*%
D15*
%TO.C,M1*%
X159160000Y-67591000D03*
D16*
X159160000Y-67591000D03*
%TD*%
D17*
%TO.C,J4*%
X157440000Y-85291000D03*
X157440000Y-84041000D03*
X157440000Y-82791000D03*
X157440000Y-81541000D03*
X157440000Y-80291000D03*
X157440000Y-79041000D03*
X157440000Y-77791000D03*
X157440000Y-76541000D03*
X157440000Y-75291000D03*
%TD*%
D11*
%TO.C,J3*%
X166624000Y-117602000D03*
X164084000Y-117602000D03*
X166624000Y-115062000D03*
X164084000Y-115062000D03*
X166624000Y-112522000D03*
X164084000Y-112522000D03*
X166624000Y-109982000D03*
X164084000Y-109982000D03*
X166624000Y-107442000D03*
X164084000Y-107442000D03*
X166624000Y-104902000D03*
X164084000Y-104902000D03*
X166624000Y-102362000D03*
X164084000Y-102362000D03*
X166624000Y-99822000D03*
X164084000Y-99822000D03*
X166624000Y-97282000D03*
X164084000Y-97282000D03*
X166624000Y-94742000D03*
D12*
X164084000Y-94742000D03*
%TD*%
D11*
%TO.C,J2*%
X164084000Y-126492000D03*
X166624000Y-126492000D03*
X164084000Y-129032000D03*
X166624000Y-129032000D03*
X164084000Y-131572000D03*
X166624000Y-131572000D03*
X164084000Y-134112000D03*
X166624000Y-134112000D03*
X164084000Y-136652000D03*
X166624000Y-136652000D03*
X164084000Y-139192000D03*
X166624000Y-139192000D03*
X164084000Y-141732000D03*
X166624000Y-141732000D03*
X164084000Y-144272000D03*
D12*
X166624000Y-144272000D03*
%TD*%
D11*
%TO.C,J1*%
X209690000Y-93666000D03*
X212230000Y-93666000D03*
X209690000Y-96206000D03*
X212230000Y-96206000D03*
X209690000Y-98746000D03*
X212230000Y-98746000D03*
X209690000Y-101286000D03*
X212230000Y-101286000D03*
X209690000Y-103826000D03*
X212230000Y-103826000D03*
X209690000Y-106366000D03*
X212230000Y-106366000D03*
X209690000Y-108906000D03*
X212230000Y-108906000D03*
X209690000Y-111446000D03*
X212230000Y-111446000D03*
X209690000Y-113986000D03*
X212230000Y-113986000D03*
X209690000Y-116526000D03*
X212230000Y-116526000D03*
X209690000Y-119066000D03*
X212230000Y-119066000D03*
X209690000Y-121606000D03*
X212230000Y-121606000D03*
X209690000Y-124146000D03*
X212230000Y-124146000D03*
X209690000Y-126686000D03*
X212230000Y-126686000D03*
X209690000Y-129226000D03*
X212230000Y-129226000D03*
X209690000Y-131766000D03*
X212230000Y-131766000D03*
X209690000Y-134306000D03*
X212230000Y-134306000D03*
X209690000Y-136846000D03*
X212230000Y-136846000D03*
X209690000Y-139386000D03*
X212230000Y-139386000D03*
X209690000Y-141926000D03*
D12*
X212230000Y-141926000D03*
%TD*%
D18*
%TO.C,H2*%
X227740000Y-67591000D03*
X227740000Y-70131000D03*
X225200000Y-67591000D03*
X225200000Y-70131000D03*
X222660000Y-67591000D03*
X222660000Y-70131000D03*
X220120000Y-67591000D03*
X220120000Y-70131000D03*
X217580000Y-67591000D03*
X217580000Y-70131000D03*
X215040000Y-67591000D03*
X215040000Y-70131000D03*
X212500000Y-67591000D03*
X212500000Y-70131000D03*
X209960000Y-67591000D03*
X209960000Y-70131000D03*
X207420000Y-67591000D03*
X207420000Y-70131000D03*
X204880000Y-67591000D03*
X204880000Y-70131000D03*
X202340000Y-67591000D03*
X202340000Y-70131000D03*
X199800000Y-67591000D03*
X199800000Y-70131000D03*
X197260000Y-67591000D03*
X197260000Y-70131000D03*
X194720000Y-67591000D03*
X194720000Y-70131000D03*
X192180000Y-67591000D03*
X192180000Y-70131000D03*
X189640000Y-67591000D03*
X189640000Y-70131000D03*
X187100000Y-67591000D03*
X187100000Y-70131000D03*
X184560000Y-67591000D03*
X184560000Y-70131000D03*
X182020000Y-67591000D03*
X182020000Y-70131000D03*
X179480000Y-67591000D03*
X179480000Y-70131000D03*
X176940000Y-67591000D03*
X176940000Y-70131000D03*
X174400000Y-67591000D03*
X174400000Y-70131000D03*
X171860000Y-67591000D03*
X171860000Y-70131000D03*
X169320000Y-67591000D03*
X169320000Y-70131000D03*
X166780000Y-67591000D03*
X166780000Y-70131000D03*
X164240000Y-67591000D03*
D19*
X164240000Y-70131000D03*
%TD*%
D18*
%TO.C,H1*%
X227740000Y-72671000D03*
X227740000Y-75211000D03*
X225200000Y-72671000D03*
X225200000Y-75211000D03*
X222660000Y-72671000D03*
X222660000Y-75211000D03*
X220120000Y-72671000D03*
X220120000Y-75211000D03*
X217580000Y-72671000D03*
X217580000Y-75211000D03*
X215040000Y-72671000D03*
X215040000Y-75211000D03*
X212500000Y-72671000D03*
X212500000Y-75211000D03*
X209960000Y-72671000D03*
X209960000Y-75211000D03*
X207420000Y-72671000D03*
X207420000Y-75211000D03*
X204880000Y-72671000D03*
X204880000Y-75211000D03*
X202340000Y-72671000D03*
X202340000Y-75211000D03*
X199800000Y-72671000D03*
X199800000Y-75211000D03*
X197260000Y-72671000D03*
X197260000Y-75211000D03*
X194720000Y-72671000D03*
X194720000Y-75211000D03*
X192180000Y-72671000D03*
X192180000Y-75211000D03*
X189640000Y-72671000D03*
X189640000Y-75211000D03*
X187100000Y-72671000D03*
X187100000Y-75211000D03*
X184560000Y-72671000D03*
X184560000Y-75211000D03*
X182020000Y-72671000D03*
X182020000Y-75211000D03*
X179480000Y-72671000D03*
X179480000Y-75211000D03*
X176940000Y-72671000D03*
X176940000Y-75211000D03*
X174400000Y-72671000D03*
X174400000Y-75211000D03*
X171860000Y-72671000D03*
X171860000Y-75211000D03*
X169320000Y-72671000D03*
X169320000Y-75211000D03*
X166780000Y-72671000D03*
X166780000Y-75211000D03*
X164240000Y-72671000D03*
D19*
X164240000Y-75211000D03*
%TD*%
M02*
