M48
; DRILL file {KiCad (5.1.9)-1} date 10/15/21 17:24:21
; FORMAT={-:-/ absolute / inch / decimal}
; #@! TF.CreationDate,2021-10-15T17:24:21-04:00
; #@! TF.GenerationSoftware,Kicad,Pcbnew,(5.1.9)-1
; #@! TF.FileFunction,Plated,1,2,PTH
FMAT,2
INCH
T1C0.0157
T2C0.0197
T3C0.0276
T4C0.0300
T5C0.0315
T6C0.0394
T7C0.1260
%
G90
G05
T1
X3.25Y-3.165
X3.3Y-3.115
X3.34Y-2.8
X3.7Y-3.915
X3.7Y-3.84
X3.7Y-3.515
X3.735Y-2.8
X3.75Y-3.64
X3.935Y-2.805
X3.975Y-4.465
X4.03Y-4.635
X4.125Y-4.54
X4.1262Y-4.2638
X4.15Y-4.435
X4.175Y-4.635
X4.1988Y-4.215
X4.37Y-4.49
X4.3762Y-4.2162
X4.4454Y-4.5696
X4.45Y-5.34
X4.5Y-4.715
X4.5Y-4.7647
X4.525Y-5.19
X4.5278Y-4.8178
X4.575Y-4.84
X4.615Y-2.81
X4.7262Y-4.2638
X4.7689Y-5.115
X4.8Y-4.715
X4.85Y-2.975
X4.89Y-3.015
X4.9311Y-4.6339
X4.9388Y-2.8762
X4.9824Y-2.9198
X5.2174Y-4.2226
X5.2174Y-4.3226
X5.2174Y-4.4226
X5.35Y-5.115
X5.4Y-4.99
X5.445Y-4.17
X5.49Y-4.27
X5.53Y-4.36
X5.57Y-4.46
X6.795Y-3.165
X6.845Y-3.115
X6.87Y-2.815
X7.27Y-3.915
X7.27Y-3.84
X7.27Y-3.54
X7.32Y-3.665
X7.345Y-2.815
X7.495Y-2.815
X7.545Y-4.465
X7.595Y-4.64
X7.695Y-4.54
X7.6962Y-4.2638
X7.745Y-4.415
X7.745Y-4.74
X7.7688Y-4.215
X7.845Y-4.84
X7.845Y-4.74
X7.92Y-4.84
X7.9462Y-4.2162
X7.97Y-4.515
X8.02Y-4.74
X8.195Y-2.815
X8.2962Y-4.2638
X8.42Y-2.975
X8.46Y-3.015
X8.5088Y-2.8762
X8.5524Y-2.9198
X8.92Y-5.115
X8.97Y-4.99
T2
X2.9384Y-2.6992
X2.9384Y-2.7484
X2.9384Y-2.7976
X2.9384Y-2.8469
X2.9384Y-2.8961
X2.9384Y-2.9453
X2.9384Y-2.9945
X2.9384Y-3.0437
X2.9384Y-3.0929
X2.975Y-4.54
X3.15Y-4.54
X3.6Y-5.465
X3.675Y-4.84
X3.975Y-4.84
X4.05Y-5.09
X4.4Y-4.79
X4.425Y-5.615
X4.46Y-2.775
X4.5Y-4.19
X4.5Y-4.39
X4.8Y-5.615
X5.225Y-5.515
X5.425Y-5.69
X6.5084Y-2.6992
X6.5084Y-2.7484
X6.5084Y-2.7976
X6.5084Y-2.8469
X6.5084Y-2.8961
X6.5084Y-2.9453
X6.5084Y-2.9945
X6.5084Y-3.0437
X6.5084Y-3.0929
X6.57Y-4.54
X6.72Y-4.54
X7.17Y-5.465
X7.245Y-4.84
X7.545Y-4.84
X7.62Y-5.09
X7.845Y-5.265
X8.03Y-2.775
X8.07Y-4.19
X8.07Y-4.39
X8.12Y-5.34
X8.245Y-4.94
X8.295Y-5.215
X8.37Y-4.39
X9.27Y-5.265
X9.38Y-5.515
T4
X3.775Y-3.765
X3.875Y-3.765
X3.975Y-3.165
X3.975Y-3.765
X4.075Y-3.165
X4.075Y-3.765
X4.175Y-3.165
X4.175Y-3.765
X4.275Y-3.165
X4.275Y-3.765
X4.375Y-3.165
X4.375Y-3.765
X4.475Y-3.765
X4.575Y-3.765
X7.345Y-3.765
X7.445Y-3.765
X7.545Y-3.165
X7.545Y-3.765
X7.645Y-3.165
X7.645Y-3.765
X7.745Y-3.165
X7.745Y-3.765
X7.845Y-3.165
X7.845Y-3.765
X7.945Y-3.165
X7.945Y-3.765
X8.045Y-3.765
X8.145Y-3.765
T5
X4.5079Y-5.49
X4.7Y-5.49
T6
X3.2Y-3.465
X3.2Y-3.565
X3.2Y-3.665
X3.2Y-3.765
X3.2Y-3.865
X3.2Y-3.965
X3.2Y-4.065
X3.2Y-4.165
X3.2Y-4.265
X3.2Y-4.365
X3.2Y-4.715
X3.2Y-4.815
X3.2Y-4.915
X3.2Y-5.015
X3.2Y-5.115
X3.2Y-5.215
X3.2Y-5.315
X3.2Y-5.415
X3.2061Y-2.3961
X3.2061Y-2.4961
X3.2061Y-2.5961
X3.2061Y-2.6961
X3.3Y-3.465
X3.3Y-3.565
X3.3Y-3.665
X3.3Y-3.765
X3.3Y-3.865
X3.3Y-3.965
X3.3Y-4.065
X3.3Y-4.165
X3.3Y-4.265
X3.3Y-4.365
X3.3Y-4.715
X3.3Y-4.815
X3.3Y-4.915
X3.3Y-5.015
X3.3Y-5.115
X3.3Y-5.215
X3.3Y-5.315
X3.3Y-5.415
X3.3061Y-2.3961
X3.3061Y-2.4961
X3.3061Y-2.5961
X3.3061Y-2.6961
X3.4061Y-2.3961
X3.4061Y-2.4961
X3.4061Y-2.5961
X3.4061Y-2.6961
X3.5061Y-2.3961
X3.5061Y-2.4961
X3.5061Y-2.5961
X3.5061Y-2.6961
X3.6061Y-2.3961
X3.6061Y-2.4961
X3.6061Y-2.5961
X3.6061Y-2.6961
X3.7061Y-2.3961
X3.7061Y-2.4961
X3.7061Y-2.5961
X3.7061Y-2.6961
X3.8061Y-2.3961
X3.8061Y-2.4961
X3.8061Y-2.5961
X3.8061Y-2.6961
X3.9061Y-2.3961
X3.9061Y-2.4961
X3.9061Y-2.5961
X3.9061Y-2.6961
X4.0061Y-2.3961
X4.0061Y-2.4961
X4.0061Y-2.5961
X4.0061Y-2.6961
X4.1061Y-2.3961
X4.1061Y-2.4961
X4.1061Y-2.5961
X4.1061Y-2.6961
X4.2061Y-2.3961
X4.2061Y-2.4961
X4.2061Y-2.5961
X4.2061Y-2.6961
X4.3061Y-2.3961
X4.3061Y-2.4961
X4.3061Y-2.5961
X4.3061Y-2.6961
X4.4061Y-2.3961
X4.4061Y-2.4961
X4.4061Y-2.5961
X4.4061Y-2.6961
X4.5061Y-2.3961
X4.5061Y-2.4961
X4.5061Y-2.5961
X4.5061Y-2.6961
X4.6061Y-2.3961
X4.6061Y-2.4961
X4.6061Y-2.5961
X4.6061Y-2.6961
X4.7061Y-2.3961
X4.7061Y-2.4961
X4.7061Y-2.5961
X4.7061Y-2.6961
X4.8061Y-2.3961
X4.8061Y-2.4961
X4.8061Y-2.5961
X4.8061Y-2.6961
X4.9061Y-2.3961
X4.9061Y-2.4961
X4.9061Y-2.5961
X4.9061Y-2.6961
X4.9955Y-3.4226
X4.9955Y-3.5226
X4.9955Y-3.6226
X4.9955Y-3.7226
X4.9955Y-3.8226
X4.9955Y-3.9226
X4.9955Y-4.0226
X4.9955Y-4.1226
X4.9955Y-4.2226
X4.9955Y-4.3226
X4.9955Y-4.4226
X4.9955Y-4.5226
X4.9955Y-4.6226
X4.9955Y-4.7226
X4.9955Y-4.8226
X4.9955Y-4.9226
X4.9955Y-5.0226
X4.9955Y-5.1226
X4.9955Y-5.2226
X4.9955Y-5.3226
X5.0061Y-2.3961
X5.0061Y-2.4961
X5.0061Y-2.5961
X5.0061Y-2.6961
X5.0955Y-3.4226
X5.0955Y-3.5226
X5.0955Y-3.6226
X5.0955Y-3.7226
X5.0955Y-3.8226
X5.0955Y-3.9226
X5.0955Y-4.0226
X5.0955Y-4.1226
X5.0955Y-4.2226
X5.0955Y-4.3226
X5.0955Y-4.4226
X5.0955Y-4.5226
X5.0955Y-4.6226
X5.0955Y-4.7226
X5.0955Y-4.8226
X5.0955Y-4.9226
X5.0955Y-5.0226
X5.0955Y-5.1226
X5.0955Y-5.2226
X5.0955Y-5.3226
X5.1061Y-2.3961
X5.1061Y-2.4961
X5.1061Y-2.5961
X5.1061Y-2.6961
X5.2061Y-2.3961
X5.2061Y-2.4961
X5.2061Y-2.5961
X5.2061Y-2.6961
X5.3061Y-2.3961
X5.3061Y-2.4961
X5.3061Y-2.5961
X5.3061Y-2.6961
X5.4061Y-2.3961
X5.4061Y-2.4961
X5.4061Y-2.5961
X5.4061Y-2.6961
X5.5061Y-2.3961
X5.5061Y-2.4961
X5.5061Y-2.5961
X5.5061Y-2.6961
X5.6061Y-2.3961
X5.6061Y-2.4961
X5.6061Y-2.5961
X5.6061Y-2.6961
X5.7061Y-2.3961
X5.7061Y-2.4961
X5.7061Y-2.5961
X5.7061Y-2.6961
X6.77Y-3.465
X6.77Y-3.565
X6.77Y-3.665
X6.77Y-3.765
X6.77Y-3.865
X6.77Y-3.965
X6.77Y-4.065
X6.77Y-4.165
X6.77Y-4.265
X6.77Y-4.365
X6.77Y-4.715
X6.77Y-4.815
X6.77Y-4.915
X6.77Y-5.015
X6.77Y-5.115
X6.77Y-5.215
X6.77Y-5.315
X6.77Y-5.415
X6.7761Y-2.3961
X6.7761Y-2.4961
X6.7761Y-2.5961
X6.7761Y-2.6961
X6.87Y-3.465
X6.87Y-3.565
X6.87Y-3.665
X6.87Y-3.765
X6.87Y-3.865
X6.87Y-3.965
X6.87Y-4.065
X6.87Y-4.165
X6.87Y-4.265
X6.87Y-4.365
X6.87Y-4.715
X6.87Y-4.815
X6.87Y-4.915
X6.87Y-5.015
X6.87Y-5.115
X6.87Y-5.215
X6.87Y-5.315
X6.87Y-5.415
X6.8761Y-2.3961
X6.8761Y-2.4961
X6.8761Y-2.5961
X6.8761Y-2.6961
X6.9761Y-2.3961
X6.9761Y-2.4961
X6.9761Y-2.5961
X6.9761Y-2.6961
X7.0761Y-2.3961
X7.0761Y-2.4961
X7.0761Y-2.5961
X7.0761Y-2.6961
X7.1761Y-2.3961
X7.1761Y-2.4961
X7.1761Y-2.5961
X7.1761Y-2.6961
X7.2761Y-2.3961
X7.2761Y-2.4961
X7.2761Y-2.5961
X7.2761Y-2.6961
X7.3761Y-2.3961
X7.3761Y-2.4961
X7.3761Y-2.5961
X7.3761Y-2.6961
X7.4761Y-2.3961
X7.4761Y-2.4961
X7.4761Y-2.5961
X7.4761Y-2.6961
X7.5761Y-2.3961
X7.5761Y-2.4961
X7.5761Y-2.5961
X7.5761Y-2.6961
X7.6761Y-2.3961
X7.6761Y-2.4961
X7.6761Y-2.5961
X7.6761Y-2.6961
X7.7761Y-2.3961
X7.7761Y-2.4961
X7.7761Y-2.5961
X7.7761Y-2.6961
X7.8761Y-2.3961
X7.8761Y-2.4961
X7.8761Y-2.5961
X7.8761Y-2.6961
X7.9761Y-2.3961
X7.9761Y-2.4961
X7.9761Y-2.5961
X7.9761Y-2.6961
X8.0761Y-2.3961
X8.0761Y-2.4961
X8.0761Y-2.5961
X8.0761Y-2.6961
X8.1761Y-2.3961
X8.1761Y-2.4961
X8.1761Y-2.5961
X8.1761Y-2.6961
X8.2761Y-2.3961
X8.2761Y-2.4961
X8.2761Y-2.5961
X8.2761Y-2.6961
X8.3761Y-2.3961
X8.3761Y-2.4961
X8.3761Y-2.5961
X8.3761Y-2.6961
X8.4761Y-2.3961
X8.4761Y-2.4961
X8.4761Y-2.5961
X8.4761Y-2.6961
X8.5655Y-3.4226
X8.5655Y-3.5226
X8.5655Y-3.6226
X8.5655Y-3.7226
X8.5655Y-3.8226
X8.5655Y-3.9226
X8.5655Y-4.0226
X8.5655Y-4.1226
X8.5655Y-4.2226
X8.5655Y-4.3226
X8.5655Y-4.4226
X8.5655Y-4.5226
X8.5655Y-4.6226
X8.5655Y-4.7226
X8.5655Y-4.8226
X8.5655Y-4.9226
X8.5655Y-5.0226
X8.5655Y-5.1226
X8.5655Y-5.2226
X8.5655Y-5.3226
X8.5761Y-2.3961
X8.5761Y-2.4961
X8.5761Y-2.5961
X8.5761Y-2.6961
X8.6655Y-3.4226
X8.6655Y-3.5226
X8.6655Y-3.6226
X8.6655Y-3.7226
X8.6655Y-3.8226
X8.6655Y-3.9226
X8.6655Y-4.0226
X8.6655Y-4.1226
X8.6655Y-4.2226
X8.6655Y-4.3226
X8.6655Y-4.4226
X8.6655Y-4.5226
X8.6655Y-4.6226
X8.6655Y-4.7226
X8.6655Y-4.8226
X8.6655Y-4.9226
X8.6655Y-5.0226
X8.6655Y-5.1226
X8.6655Y-5.2226
X8.6655Y-5.3226
X8.6761Y-2.3961
X8.6761Y-2.4961
X8.6761Y-2.5961
X8.6761Y-2.6961
X8.7761Y-2.3961
X8.7761Y-2.4961
X8.7761Y-2.5961
X8.7761Y-2.6961
X8.8761Y-2.3961
X8.8761Y-2.4961
X8.8761Y-2.5961
X8.8761Y-2.6961
X8.9761Y-2.3961
X8.9761Y-2.4961
X8.9761Y-2.5961
X8.9761Y-2.6961
X9.0761Y-2.3961
X9.0761Y-2.4961
X9.0761Y-2.5961
X9.0761Y-2.6961
X9.095Y-5.565
X9.095Y-5.665
X9.1761Y-2.3961
X9.1761Y-2.4961
X9.1761Y-2.5961
X9.1761Y-2.6961
X9.2761Y-2.3961
X9.2761Y-2.4961
X9.2761Y-2.5961
X9.2761Y-2.6961
X9.5405Y-3.9726
X9.5405Y-4.0726
T7
X2.8561Y-5.7711
X3.0061Y-2.3961
X5.9061Y-2.3961
X6.0061Y-5.7711
X6.4261Y-5.7711
X6.5761Y-2.3961
X9.4761Y-2.3961
X9.5761Y-5.7711
T3
G00X7.944Y-5.6798
M15
G01X7.9361Y-5.6798
M16
G05
G00X8.2039Y-5.6798
M15
G01X8.196Y-5.6798
M16
G05
T5
G00X7.9283Y-5.7998
M15
G01X7.9283Y-5.7802
M16
G05
G00X8.2117Y-5.7998
M15
G01X8.2117Y-5.7802
M16
G05
T0
M30
