%TF.GenerationSoftware,KiCad,Pcbnew,(5.1.9)-1*%
%TF.CreationDate,2021-11-28T20:19:45-05:00*%
%TF.ProjectId,Combined branches,436f6d62-696e-4656-9420-6272616e6368,rev?*%
%TF.SameCoordinates,Original*%
%TF.FileFunction,Profile,NP*%
%FSLAX46Y46*%
G04 Gerber Fmt 4.6, Leading zero omitted, Abs format (unit mm)*
G04 Created by KiCad (PCBNEW (5.1.9)-1) date 2021-11-28 20:19:45*
%MOMM*%
%LPD*%
G01*
G04 APERTURE LIST*
%TA.AperFunction,Profile*%
%ADD10C,0.050000*%
%TD*%
G04 APERTURE END LIST*
D10*
X183798000Y-53875000D02*
X93628000Y-53875000D01*
X183798000Y-88800000D02*
X183798000Y-53875000D01*
X181893000Y-91975000D02*
X183798000Y-88800000D01*
X181893000Y-109755000D02*
X181893000Y-91975000D01*
X183798000Y-111660000D02*
X181893000Y-109755000D01*
X183798000Y-149760000D02*
X183798000Y-111660000D01*
X156493000Y-149760000D02*
X183798000Y-149760000D01*
X153953000Y-147220000D02*
X156493000Y-149760000D01*
X120933000Y-147220000D02*
X153953000Y-147220000D01*
X118393000Y-149760000D02*
X120933000Y-147220000D01*
X93628000Y-149760000D02*
X118393000Y-149760000D01*
X93628000Y-130710000D02*
X93628000Y-149760000D01*
X95533000Y-126265000D02*
X93628000Y-130710000D01*
X95533000Y-83720000D02*
X95533000Y-126265000D01*
X93628000Y-81815000D02*
X95533000Y-83720000D01*
X93628000Y-53875000D02*
X93628000Y-81815000D01*
X274730000Y-53875000D02*
X184560000Y-53875000D01*
X274730000Y-88800000D02*
X274730000Y-53875000D01*
X272825000Y-91975000D02*
X274730000Y-88800000D01*
X272825000Y-109755000D02*
X272825000Y-91975000D01*
X274730000Y-111660000D02*
X272825000Y-109755000D01*
X274730000Y-149760000D02*
X274730000Y-111660000D01*
X247425000Y-149760000D02*
X274730000Y-149760000D01*
X244885000Y-147220000D02*
X247425000Y-149760000D01*
X211865000Y-147220000D02*
X244885000Y-147220000D01*
X209325000Y-149760000D02*
X211865000Y-147220000D01*
X184560000Y-149760000D02*
X209325000Y-149760000D01*
X184560000Y-130710000D02*
X184560000Y-149760000D01*
X186465000Y-126265000D02*
X184560000Y-130710000D01*
X186465000Y-83720000D02*
X186465000Y-126265000D01*
X184560000Y-81815000D02*
X186465000Y-83720000D01*
X184560000Y-53875000D02*
X184560000Y-81815000D01*
M02*
