M48
; DRILL file {KiCad (5.1.9)-1} date 11/28/21 20:19:46
; FORMAT={-:-/ absolute / inch / decimal}
; #@! TF.CreationDate,2021-11-28T20:19:46-05:00
; #@! TF.GenerationSoftware,Kicad,Pcbnew,(5.1.9)-1
; #@! TF.FileFunction,Plated,1,2,PTH
FMAT,2
INCH
T1C0.0157
T2C0.0197
T3C0.0276
T4C0.0300
T5C0.0315
T6C0.0394
T7C0.1260
%
G90
G05
T1
X3.81Y-3.05
X4.28Y-3.09
X4.33Y-3.04
X4.37Y-2.725
X4.39Y-3.56
X4.4211Y-3.67
X4.5524Y-3.062
X4.58Y-3.115
X4.6Y-3.32
X4.65Y-3.55
X4.71Y-3.42
X4.765Y-2.725
X4.82Y-3.52
X4.93Y-4.34
X4.94Y-4.41
X4.965Y-2.73
X5.02Y-4.09
X5.1Y-4.23
X5.13Y-2.89
X5.155Y-2.94
X5.155Y-4.44
X5.155Y-4.59
X5.205Y-4.615
X5.23Y-4.44
X5.2562Y-4.1162
X5.4Y-4.8
X5.405Y-3.615
X5.45Y-4.6
X5.45Y-4.7
X5.5Y-5.37
X5.51Y-4.61
X5.585Y-5.245
X5.6062Y-4.1638
X5.645Y-2.735
X5.74Y-5.31
X5.74Y-5.26
X5.85Y-5.24
X5.85Y-5.15
X5.8887Y-2.8913
X5.9287Y-2.9313
X5.94Y-2.84
X5.98Y-2.88
X6.19Y-5.065
X6.2289Y-4.92
X6.27Y-3.95
X6.28Y-3.9
X6.28Y-4.1678
X6.32Y-4.14
X6.32Y-4.265
X6.36Y-4.36
X6.44Y-3.49
X6.44Y-4.74
X6.47Y-4.46
X6.54Y-4.76
X6.55Y-2.98
X6.57Y-4.29
X6.59Y-3.54
X6.6498Y-4.5202
X6.65Y-4.29
X6.75Y-2.92
X7.55Y-5.37
X7.7772Y-3.0518
X7.82Y-3.02
X7.91Y-2.74
X7.982Y-3.618
X8.02Y-3.74
X8.2Y-3.1
X8.22Y-3.02
X8.26Y-3.44
X8.385Y-2.74
X8.385Y-3.59
X8.52Y-4.318
X8.521Y-4.401
X8.535Y-2.74
X8.585Y-3.89
X8.64Y-4.025
X8.7243Y-4.4643
X8.7428Y-4.52
X8.7638Y-4.38
X8.835Y-2.9314
X8.845Y-4.765
X8.845Y-4.64
X8.8662Y-4.1012
X8.88Y-4.44
X8.91Y-2.9314
X8.92Y-4.765
X8.985Y-3.59
X9.16Y-4.66
X9.2162Y-4.1488
X9.235Y-2.74
X9.34Y-3.85
X9.46Y-2.9
X9.5Y-2.94
X9.53Y-2.83
X9.57Y-2.87
X9.77Y-4.99
X9.7711Y-4.44
X9.82Y-4.84
X9.88Y-4.44
X9.88Y-4.7
X9.92Y-3.54
X10.045Y-5.54
X10.1Y-3.58
X10.1Y-4.3
X10.14Y-4.5511
T2
X3.8709Y-3.0791
X3.905Y-4.465
X3.9684Y-2.6242
X3.9684Y-2.6734
X3.9684Y-2.7226
X3.9684Y-2.7719
X3.9684Y-2.8211
X3.9684Y-2.8703
X3.9684Y-2.9195
X3.9684Y-2.9687
X3.9684Y-3.0179
X3.98Y-5.365
X4.055Y-4.465
X4.63Y-5.59
X4.705Y-4.965
X4.79Y-4.73
X4.83Y-4.23
X4.91Y-4.695
X5.08Y-5.215
X5.105Y-4.905
X5.18Y-5.31
X5.305Y-4.715
X5.305Y-4.91
X5.305Y-5.31
X5.38Y-4.095
X5.38Y-4.225
X5.49Y-2.7
X5.66Y-4.75
X5.66Y-4.88
X5.67Y-4.65
X5.85Y-4.44
X5.85Y-4.59
X6.14Y-5.22
X6.165Y-5.44
X6.33Y-5.58
X7.47Y-2.99
X7.49Y-4.465
X7.5484Y-2.6242
X7.5484Y-2.6734
X7.5484Y-2.7226
X7.5484Y-2.7719
X7.5484Y-2.8211
X7.5484Y-2.8703
X7.5484Y-2.9195
X7.5484Y-2.9687
X7.5484Y-3.0179
X7.61Y-4.465
X8.21Y-5.59
X8.285Y-4.965
X8.36Y-4.74
X8.42Y-4.24
X8.5Y-4.7
X8.56Y-4.99
X8.66Y-5.215
X8.685Y-4.895
X8.845Y-5.19
X8.99Y-4.075
X8.99Y-4.275
X9.01Y-4.78
X9.07Y-2.7
X9.1259Y-5.2709
X9.24Y-4.74
X9.24Y-4.865
X9.26Y-4.46
X9.29Y-4.275
X9.3Y-5.15
X9.72Y-5.24
X10.23Y-5.26
X10.2524Y-5.8
X10.3016Y-5.8
X10.33Y-5.44
X10.3508Y-5.8
X10.4Y-5.8
T4
X5.005Y-3.765
X5.105Y-3.765
X5.205Y-3.765
X5.305Y-3.765
X5.405Y-3.765
X5.505Y-3.765
X8.585Y-3.765
X8.685Y-3.765
X8.785Y-3.765
X8.885Y-3.765
X8.985Y-3.765
X9.085Y-3.765
T6
X4.105Y-3.3113
X4.105Y-3.4113
X4.105Y-3.5113
X4.105Y-3.6113
X4.105Y-3.7113
X4.105Y-3.8113
X4.105Y-3.9113
X4.105Y-4.0113
X4.105Y-4.1113
X4.105Y-4.2113
X4.105Y-4.7581
X4.105Y-4.8581
X4.105Y-4.9581
X4.105Y-5.0581
X4.105Y-5.1581
X4.105Y-5.2581
X4.105Y-5.3581
X4.105Y-5.4581
X4.205Y-3.3113
X4.205Y-3.4113
X4.205Y-3.5113
X4.205Y-3.6113
X4.205Y-3.7113
X4.205Y-3.8113
X4.205Y-3.9113
X4.205Y-4.0113
X4.205Y-4.1113
X4.205Y-4.2113
X4.205Y-4.7581
X4.205Y-4.8581
X4.205Y-4.9581
X4.205Y-5.0581
X4.205Y-5.1581
X4.205Y-5.2581
X4.205Y-5.3581
X4.205Y-5.4581
X4.2361Y-2.3211
X4.2361Y-2.4211
X4.2361Y-2.5211
X4.2361Y-2.6211
X4.3361Y-2.3211
X4.3361Y-2.4211
X4.3361Y-2.5211
X4.3361Y-2.6211
X4.4361Y-2.3211
X4.4361Y-2.4211
X4.4361Y-2.5211
X4.4361Y-2.6211
X4.5361Y-2.3211
X4.5361Y-2.4211
X4.5361Y-2.5211
X4.5361Y-2.6211
X4.6361Y-2.3211
X4.6361Y-2.4211
X4.6361Y-2.5211
X4.6361Y-2.6211
X4.7361Y-2.3211
X4.7361Y-2.4211
X4.7361Y-2.5211
X4.7361Y-2.6211
X4.8361Y-2.3211
X4.8361Y-2.4211
X4.8361Y-2.5211
X4.8361Y-2.6211
X4.9361Y-2.3211
X4.9361Y-2.4211
X4.9361Y-2.5211
X4.9361Y-2.6211
X5.0361Y-2.3211
X5.0361Y-2.4211
X5.0361Y-2.5211
X5.0361Y-2.6211
X5.1361Y-2.3211
X5.1361Y-2.4211
X5.1361Y-2.5211
X5.1361Y-2.6211
X5.2361Y-2.3211
X5.2361Y-2.4211
X5.2361Y-2.5211
X5.2361Y-2.6211
X5.33Y-5.64
X5.3361Y-2.3211
X5.3361Y-2.4211
X5.3361Y-2.5211
X5.3361Y-2.6211
X5.43Y-5.64
X5.4361Y-2.3211
X5.4361Y-2.4211
X5.4361Y-2.5211
X5.4361Y-2.6211
X5.53Y-5.64
X5.5361Y-2.3211
X5.5361Y-2.4211
X5.5361Y-2.5211
X5.5361Y-2.6211
X5.6361Y-2.3211
X5.6361Y-2.4211
X5.6361Y-2.5211
X5.6361Y-2.6211
X5.7361Y-2.3211
X5.7361Y-2.4211
X5.7361Y-2.5211
X5.7361Y-2.6211
X5.8361Y-2.3211
X5.8361Y-2.4211
X5.8361Y-2.5211
X5.8361Y-2.6211
X5.9355Y-3.3476
X5.9355Y-3.4476
X5.9355Y-3.5476
X5.9355Y-3.6476
X5.9355Y-3.7476
X5.9355Y-3.8476
X5.9355Y-3.9476
X5.9355Y-4.0476
X5.9355Y-4.1476
X5.9355Y-4.2476
X5.9355Y-4.3476
X5.9355Y-4.4476
X5.9355Y-4.5476
X5.9355Y-4.6476
X5.9355Y-4.7476
X5.9355Y-4.8476
X5.9355Y-4.9476
X5.9355Y-5.0476
X5.9355Y-5.1476
X5.9355Y-5.2476
X5.9361Y-2.3211
X5.9361Y-2.4211
X5.9361Y-2.5211
X5.9361Y-2.6211
X6.0355Y-3.3476
X6.0355Y-3.4476
X6.0355Y-3.5476
X6.0355Y-3.6476
X6.0355Y-3.7476
X6.0355Y-3.8476
X6.0355Y-3.9476
X6.0355Y-4.0476
X6.0355Y-4.1476
X6.0355Y-4.2476
X6.0355Y-4.3476
X6.0355Y-4.4476
X6.0355Y-4.5476
X6.0355Y-4.6476
X6.0355Y-4.7476
X6.0355Y-4.8476
X6.0355Y-4.9476
X6.0355Y-5.0476
X6.0355Y-5.1476
X6.0355Y-5.2476
X6.0361Y-2.3211
X6.0361Y-2.4211
X6.0361Y-2.5211
X6.0361Y-2.6211
X6.1361Y-2.3211
X6.1361Y-2.4211
X6.1361Y-2.5211
X6.1361Y-2.6211
X6.2361Y-2.3211
X6.2361Y-2.4211
X6.2361Y-2.5211
X6.2361Y-2.6211
X6.3361Y-2.3211
X6.3361Y-2.4211
X6.3361Y-2.5211
X6.3361Y-2.6211
X6.4361Y-2.3211
X6.4361Y-2.4211
X6.4361Y-2.5211
X6.4361Y-2.6211
X6.5361Y-2.3211
X6.5361Y-2.4211
X6.5361Y-2.5211
X6.5361Y-2.6211
X6.5809Y-3.2806
X6.5809Y-4.0994
X6.6361Y-2.3211
X6.6361Y-2.4211
X6.6361Y-2.5211
X6.6361Y-2.6211
X6.703Y-3.2806
X6.703Y-4.0994
X6.7361Y-2.3211
X6.7361Y-2.4211
X6.7361Y-2.5211
X6.7361Y-2.6211
X7.13Y-2.665
X7.13Y-2.7634
X7.685Y-3.3113
X7.685Y-3.4113
X7.685Y-3.5113
X7.685Y-3.6113
X7.685Y-3.7113
X7.685Y-3.8113
X7.685Y-3.9113
X7.685Y-4.0113
X7.685Y-4.1113
X7.685Y-4.2113
X7.685Y-4.7581
X7.685Y-4.8581
X7.685Y-4.9581
X7.685Y-5.0581
X7.685Y-5.1581
X7.685Y-5.2581
X7.685Y-5.3581
X7.685Y-5.4581
X7.785Y-3.3113
X7.785Y-3.4113
X7.785Y-3.5113
X7.785Y-3.6113
X7.785Y-3.7113
X7.785Y-3.8113
X7.785Y-3.9113
X7.785Y-4.0113
X7.785Y-4.1113
X7.785Y-4.2113
X7.785Y-4.7581
X7.785Y-4.8581
X7.785Y-4.9581
X7.785Y-5.0581
X7.785Y-5.1581
X7.785Y-5.2581
X7.785Y-5.3581
X7.785Y-5.4581
X7.8161Y-2.3211
X7.8161Y-2.4211
X7.8161Y-2.5211
X7.8161Y-2.6211
X7.9161Y-2.3211
X7.9161Y-2.4211
X7.9161Y-2.5211
X7.9161Y-2.6211
X8.0161Y-2.3211
X8.0161Y-2.4211
X8.0161Y-2.5211
X8.0161Y-2.6211
X8.1161Y-2.3211
X8.1161Y-2.4211
X8.1161Y-2.5211
X8.1161Y-2.6211
X8.2161Y-2.3211
X8.2161Y-2.4211
X8.2161Y-2.5211
X8.2161Y-2.6211
X8.3161Y-2.3211
X8.3161Y-2.4211
X8.3161Y-2.5211
X8.3161Y-2.6211
X8.4161Y-2.3211
X8.4161Y-2.4211
X8.4161Y-2.5211
X8.4161Y-2.6211
X8.5161Y-2.3211
X8.5161Y-2.4211
X8.5161Y-2.5211
X8.5161Y-2.6211
X8.6161Y-2.3211
X8.6161Y-2.4211
X8.6161Y-2.5211
X8.6161Y-2.6211
X8.7161Y-2.3211
X8.7161Y-2.4211
X8.7161Y-2.5211
X8.7161Y-2.6211
X8.8161Y-2.3211
X8.8161Y-2.4211
X8.8161Y-2.5211
X8.8161Y-2.6211
X8.9161Y-2.3211
X8.9161Y-2.4211
X8.9161Y-2.5211
X8.9161Y-2.6211
X9.0161Y-2.3211
X9.0161Y-2.4211
X9.0161Y-2.5211
X9.0161Y-2.6211
X9.1161Y-2.3211
X9.1161Y-2.4211
X9.1161Y-2.5211
X9.1161Y-2.6211
X9.2161Y-2.3211
X9.2161Y-2.4211
X9.2161Y-2.5211
X9.2161Y-2.6211
X9.3161Y-2.3211
X9.3161Y-2.4211
X9.3161Y-2.5211
X9.3161Y-2.6211
X9.4161Y-2.3211
X9.4161Y-2.4211
X9.4161Y-2.5211
X9.4161Y-2.6211
X9.461Y-5.7
X9.5155Y-3.3476
X9.5155Y-3.4476
X9.5155Y-3.5476
X9.5155Y-3.6476
X9.5155Y-3.7476
X9.5155Y-3.8476
X9.5155Y-3.9476
X9.5155Y-4.0476
X9.5155Y-4.1476
X9.5155Y-4.2476
X9.5155Y-4.3476
X9.5155Y-4.4476
X9.5155Y-4.5476
X9.5155Y-4.6476
X9.5155Y-4.7476
X9.5155Y-4.8476
X9.5155Y-4.9476
X9.5155Y-5.0476
X9.5155Y-5.1476
X9.5155Y-5.2476
X9.5161Y-2.3211
X9.5161Y-2.4211
X9.5161Y-2.5211
X9.5161Y-2.6211
X9.561Y-5.7
X9.6155Y-3.3476
X9.6155Y-3.4476
X9.6155Y-3.5476
X9.6155Y-3.6476
X9.6155Y-3.7476
X9.6155Y-3.8476
X9.6155Y-3.9476
X9.6155Y-4.0476
X9.6155Y-4.1476
X9.6155Y-4.2476
X9.6155Y-4.3476
X9.6155Y-4.4476
X9.6155Y-4.5476
X9.6155Y-4.6476
X9.6155Y-4.7476
X9.6155Y-4.8476
X9.6155Y-4.9476
X9.6155Y-5.0476
X9.6155Y-5.1476
X9.6155Y-5.2476
X9.6161Y-2.3211
X9.6161Y-2.4211
X9.6161Y-2.5211
X9.6161Y-2.6211
X9.7161Y-2.3211
X9.7161Y-2.4211
X9.7161Y-2.5211
X9.7161Y-2.6211
X9.8161Y-2.3211
X9.8161Y-2.4211
X9.8161Y-2.5211
X9.8161Y-2.6211
X9.9161Y-2.3211
X9.9161Y-2.4211
X9.9161Y-2.5211
X9.9161Y-2.6211
X10.0161Y-2.3211
X10.0161Y-2.4211
X10.0161Y-2.5211
X10.0161Y-2.6211
X10.0859Y-3.3206
X10.0859Y-4.1394
X10.1161Y-2.3211
X10.1161Y-2.4211
X10.1161Y-2.5211
X10.1161Y-2.6211
X10.208Y-3.3206
X10.208Y-4.1394
X10.2161Y-2.3211
X10.2161Y-2.4211
X10.2161Y-2.5211
X10.2161Y-2.6211
X10.3161Y-2.3211
X10.3161Y-2.4211
X10.3161Y-2.5211
X10.3161Y-2.6211
X10.685Y-2.69
X10.685Y-2.7884
T7
X3.8861Y-5.6961
X4.0361Y-2.3211
X6.9361Y-2.3211
X7.0361Y-5.6961
X7.4661Y-5.6961
X7.6161Y-2.3211
X10.5161Y-2.3211
X10.6161Y-5.6961
T3
G00X8.944Y-5.6048
M15
G01X8.9361Y-5.6048
M16
G05
G00X9.2039Y-5.6048
M15
G01X9.196Y-5.6048
M16
G05
T5
G00X8.9283Y-5.7248
M15
G01X8.9283Y-5.7052
M16
G05
G00X9.2117Y-5.7248
M15
G01X9.2117Y-5.7052
M16
G05
T0
M30
