%TF.GenerationSoftware,KiCad,Pcbnew,(5.1.9)-1*%
%TF.CreationDate,2021-11-28T20:19:45-05:00*%
%TF.ProjectId,Combined branches,436f6d62-696e-4656-9420-6272616e6368,rev?*%
%TF.SameCoordinates,Original*%
%TF.FileFunction,Legend,Bot*%
%TF.FilePolarity,Positive*%
%FSLAX46Y46*%
G04 Gerber Fmt 4.6, Leading zero omitted, Abs format (unit mm)*
G04 Created by KiCad (PCBNEW (5.1.9)-1) date 2021-11-28 20:19:45*
%MOMM*%
%LPD*%
G01*
G04 APERTURE LIST*
%ADD10C,0.150000*%
%ADD11C,0.120000*%
G04 APERTURE END LIST*
D10*
X97194619Y-118212428D02*
X97194619Y-117641000D01*
X96194619Y-117926714D02*
X97194619Y-117926714D01*
X96194619Y-117307666D02*
X97194619Y-117307666D01*
X96718428Y-117307666D02*
X96718428Y-116736238D01*
X96194619Y-116736238D02*
X97194619Y-116736238D01*
X96194619Y-116260047D02*
X97194619Y-116260047D01*
X96242238Y-115831476D02*
X96194619Y-115688619D01*
X96194619Y-115450523D01*
X96242238Y-115355285D01*
X96289857Y-115307666D01*
X96385095Y-115260047D01*
X96480333Y-115260047D01*
X96575571Y-115307666D01*
X96623190Y-115355285D01*
X96670809Y-115450523D01*
X96718428Y-115641000D01*
X96766047Y-115736238D01*
X96813666Y-115783857D01*
X96908904Y-115831476D01*
X97004142Y-115831476D01*
X97099380Y-115783857D01*
X97147000Y-115736238D01*
X97194619Y-115641000D01*
X97194619Y-115402904D01*
X97147000Y-115260047D01*
X96242238Y-114117190D02*
X96194619Y-113974333D01*
X96194619Y-113736238D01*
X96242238Y-113641000D01*
X96289857Y-113593380D01*
X96385095Y-113545761D01*
X96480333Y-113545761D01*
X96575571Y-113593380D01*
X96623190Y-113641000D01*
X96670809Y-113736238D01*
X96718428Y-113926714D01*
X96766047Y-114021952D01*
X96813666Y-114069571D01*
X96908904Y-114117190D01*
X97004142Y-114117190D01*
X97099380Y-114069571D01*
X97147000Y-114021952D01*
X97194619Y-113926714D01*
X97194619Y-113688619D01*
X97147000Y-113545761D01*
X96194619Y-113117190D02*
X97194619Y-113117190D01*
X96194619Y-112641000D02*
X97194619Y-112641000D01*
X97194619Y-112402904D01*
X97147000Y-112260047D01*
X97051761Y-112164809D01*
X96956523Y-112117190D01*
X96766047Y-112069571D01*
X96623190Y-112069571D01*
X96432714Y-112117190D01*
X96337476Y-112164809D01*
X96242238Y-112260047D01*
X96194619Y-112402904D01*
X96194619Y-112641000D01*
X96718428Y-111641000D02*
X96718428Y-111307666D01*
X96194619Y-111164809D02*
X96194619Y-111641000D01*
X97194619Y-111641000D01*
X97194619Y-111164809D01*
X96194619Y-109974333D02*
X97194619Y-109974333D01*
X97194619Y-109736238D01*
X97147000Y-109593380D01*
X97051761Y-109498142D01*
X96956523Y-109450523D01*
X96766047Y-109402904D01*
X96623190Y-109402904D01*
X96432714Y-109450523D01*
X96337476Y-109498142D01*
X96242238Y-109593380D01*
X96194619Y-109736238D01*
X96194619Y-109974333D01*
X97194619Y-108783857D02*
X97194619Y-108593380D01*
X97147000Y-108498142D01*
X97051761Y-108402904D01*
X96861285Y-108355285D01*
X96527952Y-108355285D01*
X96337476Y-108402904D01*
X96242238Y-108498142D01*
X96194619Y-108593380D01*
X96194619Y-108783857D01*
X96242238Y-108879095D01*
X96337476Y-108974333D01*
X96527952Y-109021952D01*
X96861285Y-109021952D01*
X97051761Y-108974333D01*
X97147000Y-108879095D01*
X97194619Y-108783857D01*
X97194619Y-108021952D02*
X96194619Y-107783857D01*
X96908904Y-107593380D01*
X96194619Y-107402904D01*
X97194619Y-107164809D01*
X96194619Y-106783857D02*
X97194619Y-106783857D01*
X96194619Y-106212428D01*
X97194619Y-106212428D01*
X187999619Y-118339428D02*
X187999619Y-117768000D01*
X186999619Y-118053714D02*
X187999619Y-118053714D01*
X186999619Y-117434666D02*
X187999619Y-117434666D01*
X187523428Y-117434666D02*
X187523428Y-116863238D01*
X186999619Y-116863238D02*
X187999619Y-116863238D01*
X186999619Y-116387047D02*
X187999619Y-116387047D01*
X187047238Y-115958476D02*
X186999619Y-115815619D01*
X186999619Y-115577523D01*
X187047238Y-115482285D01*
X187094857Y-115434666D01*
X187190095Y-115387047D01*
X187285333Y-115387047D01*
X187380571Y-115434666D01*
X187428190Y-115482285D01*
X187475809Y-115577523D01*
X187523428Y-115768000D01*
X187571047Y-115863238D01*
X187618666Y-115910857D01*
X187713904Y-115958476D01*
X187809142Y-115958476D01*
X187904380Y-115910857D01*
X187952000Y-115863238D01*
X187999619Y-115768000D01*
X187999619Y-115529904D01*
X187952000Y-115387047D01*
X187047238Y-114244190D02*
X186999619Y-114101333D01*
X186999619Y-113863238D01*
X187047238Y-113768000D01*
X187094857Y-113720380D01*
X187190095Y-113672761D01*
X187285333Y-113672761D01*
X187380571Y-113720380D01*
X187428190Y-113768000D01*
X187475809Y-113863238D01*
X187523428Y-114053714D01*
X187571047Y-114148952D01*
X187618666Y-114196571D01*
X187713904Y-114244190D01*
X187809142Y-114244190D01*
X187904380Y-114196571D01*
X187952000Y-114148952D01*
X187999619Y-114053714D01*
X187999619Y-113815619D01*
X187952000Y-113672761D01*
X186999619Y-113244190D02*
X187999619Y-113244190D01*
X186999619Y-112768000D02*
X187999619Y-112768000D01*
X187999619Y-112529904D01*
X187952000Y-112387047D01*
X187856761Y-112291809D01*
X187761523Y-112244190D01*
X187571047Y-112196571D01*
X187428190Y-112196571D01*
X187237714Y-112244190D01*
X187142476Y-112291809D01*
X187047238Y-112387047D01*
X186999619Y-112529904D01*
X186999619Y-112768000D01*
X187523428Y-111768000D02*
X187523428Y-111434666D01*
X186999619Y-111291809D02*
X186999619Y-111768000D01*
X187999619Y-111768000D01*
X187999619Y-111291809D01*
X186999619Y-110101333D02*
X187999619Y-110101333D01*
X187999619Y-109863238D01*
X187952000Y-109720380D01*
X187856761Y-109625142D01*
X187761523Y-109577523D01*
X187571047Y-109529904D01*
X187428190Y-109529904D01*
X187237714Y-109577523D01*
X187142476Y-109625142D01*
X187047238Y-109720380D01*
X186999619Y-109863238D01*
X186999619Y-110101333D01*
X187999619Y-108910857D02*
X187999619Y-108720380D01*
X187952000Y-108625142D01*
X187856761Y-108529904D01*
X187666285Y-108482285D01*
X187332952Y-108482285D01*
X187142476Y-108529904D01*
X187047238Y-108625142D01*
X186999619Y-108720380D01*
X186999619Y-108910857D01*
X187047238Y-109006095D01*
X187142476Y-109101333D01*
X187332952Y-109148952D01*
X187666285Y-109148952D01*
X187856761Y-109101333D01*
X187952000Y-109006095D01*
X187999619Y-108910857D01*
X187999619Y-108148952D02*
X186999619Y-107910857D01*
X187713904Y-107720380D01*
X186999619Y-107529904D01*
X187999619Y-107291809D01*
X186999619Y-106910857D02*
X187999619Y-106910857D01*
X186999619Y-106339428D01*
X187999619Y-106339428D01*
D11*
%TO.C,C19*%
X148522000Y-117731000D02*
X148522000Y-124666000D01*
X145102000Y-117731000D02*
X148522000Y-117731000D01*
X145102000Y-124666000D02*
X145102000Y-117731000D01*
%TO.C,C17*%
X128903000Y-126170000D02*
X121968000Y-126170000D01*
X128903000Y-122750000D02*
X128903000Y-126170000D01*
X121968000Y-122750000D02*
X128903000Y-122750000D01*
%TO.C,C15*%
X97562000Y-109081000D02*
X97562000Y-100846000D01*
X102082000Y-109081000D02*
X97562000Y-109081000D01*
X102082000Y-100846000D02*
X102082000Y-109081000D01*
%TO.C,C12*%
X146037000Y-70638000D02*
X154272000Y-70638000D01*
X146037000Y-75158000D02*
X146037000Y-70638000D01*
X154272000Y-75158000D02*
X146037000Y-75158000D01*
%TO.C,C18*%
X125732000Y-87190000D02*
X132667000Y-87190000D01*
X125732000Y-90610000D02*
X125732000Y-87190000D01*
X132667000Y-90610000D02*
X125732000Y-90610000D01*
%TO.C,C16*%
X100516000Y-79377000D02*
X100516000Y-86312000D01*
X97096000Y-79377000D02*
X100516000Y-79377000D01*
X97096000Y-86312000D02*
X97096000Y-79377000D01*
%TO.C,C14*%
X97587000Y-135116000D02*
X97587000Y-126881000D01*
X102107000Y-135116000D02*
X97587000Y-135116000D01*
X102107000Y-126881000D02*
X102107000Y-135116000D01*
%TO.C,C13*%
X159651000Y-129100000D02*
X166586000Y-129100000D01*
X159651000Y-132520000D02*
X159651000Y-129100000D01*
X166586000Y-132520000D02*
X159651000Y-132520000D01*
%TO.C,C11*%
X159753000Y-122962000D02*
X167988000Y-122962000D01*
X159753000Y-127482000D02*
X159753000Y-122962000D01*
X167988000Y-127482000D02*
X159753000Y-127482000D01*
%TO.C,J1*%
X153302000Y-134620000D02*
X154632000Y-134620000D01*
X154632000Y-134620000D02*
X154632000Y-133290000D01*
X152032000Y-134620000D02*
X152032000Y-132020000D01*
X152032000Y-132020000D02*
X154632000Y-132020000D01*
X154632000Y-132020000D02*
X154632000Y-83700000D01*
X149432000Y-83700000D02*
X154632000Y-83700000D01*
X149432000Y-134620000D02*
X149432000Y-83700000D01*
X149432000Y-134620000D02*
X152032000Y-134620000D01*
%TO.C,J3*%
X104267000Y-82776000D02*
X102937000Y-82776000D01*
X102937000Y-82776000D02*
X102937000Y-84106000D01*
X105537000Y-82776000D02*
X105537000Y-85376000D01*
X105537000Y-85376000D02*
X102937000Y-85376000D01*
X102937000Y-85376000D02*
X102937000Y-108296000D01*
X108137000Y-108296000D02*
X102937000Y-108296000D01*
X108137000Y-82776000D02*
X108137000Y-108296000D01*
X108137000Y-82776000D02*
X105537000Y-82776000D01*
%TO.C,J2*%
X106807000Y-139966000D02*
X108137000Y-139966000D01*
X108137000Y-139966000D02*
X108137000Y-138636000D01*
X105537000Y-139966000D02*
X105537000Y-137366000D01*
X105537000Y-137366000D02*
X108137000Y-137366000D01*
X108137000Y-137366000D02*
X108137000Y-119526000D01*
X102937000Y-119526000D02*
X108137000Y-119526000D01*
X102937000Y-139966000D02*
X102937000Y-119526000D01*
X102937000Y-139966000D02*
X105537000Y-139966000D01*
%TO.C,H2*%
X106268000Y-57625000D02*
X106268000Y-60225000D01*
X106268000Y-57625000D02*
X172428000Y-57625000D01*
X172428000Y-57625000D02*
X172428000Y-62825000D01*
X108868000Y-62825000D02*
X172428000Y-62825000D01*
X108868000Y-60225000D02*
X108868000Y-62825000D01*
X106268000Y-60225000D02*
X108868000Y-60225000D01*
X106268000Y-62825000D02*
X107598000Y-62825000D01*
X106268000Y-61495000D02*
X106268000Y-62825000D01*
%TO.C,H1*%
X106268000Y-62705000D02*
X106268000Y-65305000D01*
X106268000Y-62705000D02*
X172428000Y-62705000D01*
X172428000Y-62705000D02*
X172428000Y-67905000D01*
X108868000Y-67905000D02*
X172428000Y-67905000D01*
X108868000Y-65305000D02*
X108868000Y-67905000D01*
X106268000Y-65305000D02*
X108868000Y-65305000D01*
X106268000Y-67905000D02*
X107598000Y-67905000D01*
X106268000Y-66575000D02*
X106268000Y-67905000D01*
%TO.C,C19*%
X225437000Y-121734000D02*
X232372000Y-121734000D01*
X225437000Y-125154000D02*
X225437000Y-121734000D01*
X232372000Y-125154000D02*
X225437000Y-125154000D01*
%TO.C,C18*%
X216674000Y-88333000D02*
X223609000Y-88333000D01*
X216674000Y-91753000D02*
X216674000Y-88333000D01*
X223609000Y-91753000D02*
X216674000Y-91753000D01*
%TO.C,C17*%
X220079000Y-125916000D02*
X213144000Y-125916000D01*
X220079000Y-122496000D02*
X220079000Y-125916000D01*
X213144000Y-122496000D02*
X220079000Y-122496000D01*
%TO.C,C16*%
X191448000Y-78377000D02*
X191448000Y-85312000D01*
X188028000Y-78377000D02*
X191448000Y-78377000D01*
X188028000Y-85312000D02*
X188028000Y-78377000D01*
%TO.C,C15*%
X188494000Y-109081000D02*
X188494000Y-100846000D01*
X193014000Y-109081000D02*
X188494000Y-109081000D01*
X193014000Y-100846000D02*
X193014000Y-109081000D01*
%TO.C,C14*%
X188519000Y-135116000D02*
X188519000Y-126881000D01*
X193039000Y-135116000D02*
X188519000Y-135116000D01*
X193039000Y-126881000D02*
X193039000Y-135116000D01*
%TO.C,C13*%
X250573000Y-129354000D02*
X257508000Y-129354000D01*
X250573000Y-132774000D02*
X250573000Y-129354000D01*
X257508000Y-132774000D02*
X250573000Y-132774000D01*
%TO.C,C12*%
X237477000Y-69114000D02*
X245712000Y-69114000D01*
X237477000Y-73634000D02*
X237477000Y-69114000D01*
X245712000Y-73634000D02*
X237477000Y-73634000D01*
%TO.C,C11*%
X250685000Y-122962000D02*
X258920000Y-122962000D01*
X250685000Y-127482000D02*
X250685000Y-122962000D01*
X258920000Y-127482000D02*
X250685000Y-127482000D01*
%TO.C,J3*%
X195199000Y-82776000D02*
X193869000Y-82776000D01*
X193869000Y-82776000D02*
X193869000Y-84106000D01*
X196469000Y-82776000D02*
X196469000Y-85376000D01*
X196469000Y-85376000D02*
X193869000Y-85376000D01*
X193869000Y-85376000D02*
X193869000Y-108296000D01*
X199069000Y-108296000D02*
X193869000Y-108296000D01*
X199069000Y-82776000D02*
X199069000Y-108296000D01*
X199069000Y-82776000D02*
X196469000Y-82776000D01*
%TO.C,J2*%
X197739000Y-139966000D02*
X199069000Y-139966000D01*
X199069000Y-139966000D02*
X199069000Y-138636000D01*
X196469000Y-139966000D02*
X196469000Y-137366000D01*
X196469000Y-137366000D02*
X199069000Y-137366000D01*
X199069000Y-137366000D02*
X199069000Y-119526000D01*
X193869000Y-119526000D02*
X199069000Y-119526000D01*
X193869000Y-139966000D02*
X193869000Y-119526000D01*
X193869000Y-139966000D02*
X196469000Y-139966000D01*
%TO.C,J1*%
X244234000Y-134620000D02*
X245564000Y-134620000D01*
X245564000Y-134620000D02*
X245564000Y-133290000D01*
X242964000Y-134620000D02*
X242964000Y-132020000D01*
X242964000Y-132020000D02*
X245564000Y-132020000D01*
X245564000Y-132020000D02*
X245564000Y-83700000D01*
X240364000Y-83700000D02*
X245564000Y-83700000D01*
X240364000Y-134620000D02*
X240364000Y-83700000D01*
X240364000Y-134620000D02*
X242964000Y-134620000D01*
%TO.C,H2*%
X197200000Y-57625000D02*
X197200000Y-60225000D01*
X197200000Y-57625000D02*
X263360000Y-57625000D01*
X263360000Y-57625000D02*
X263360000Y-62825000D01*
X199800000Y-62825000D02*
X263360000Y-62825000D01*
X199800000Y-60225000D02*
X199800000Y-62825000D01*
X197200000Y-60225000D02*
X199800000Y-60225000D01*
X197200000Y-62825000D02*
X198530000Y-62825000D01*
X197200000Y-61495000D02*
X197200000Y-62825000D01*
%TO.C,H1*%
X197200000Y-62705000D02*
X197200000Y-65305000D01*
X197200000Y-62705000D02*
X263360000Y-62705000D01*
X263360000Y-62705000D02*
X263360000Y-67905000D01*
X199800000Y-67905000D02*
X263360000Y-67905000D01*
X199800000Y-65305000D02*
X199800000Y-67905000D01*
X197200000Y-65305000D02*
X199800000Y-65305000D01*
X197200000Y-67905000D02*
X198530000Y-67905000D01*
X197200000Y-66575000D02*
X197200000Y-67905000D01*
%TO.C,BT1*%
D10*
X169084571Y-92940285D02*
X169132190Y-93083142D01*
X169179809Y-93130761D01*
X169275047Y-93178380D01*
X169417904Y-93178380D01*
X169513142Y-93130761D01*
X169560761Y-93083142D01*
X169608380Y-92987904D01*
X169608380Y-92606952D01*
X168608380Y-92606952D01*
X168608380Y-92940285D01*
X168656000Y-93035523D01*
X168703619Y-93083142D01*
X168798857Y-93130761D01*
X168894095Y-93130761D01*
X168989333Y-93083142D01*
X169036952Y-93035523D01*
X169084571Y-92940285D01*
X169084571Y-92606952D01*
X168608380Y-93464095D02*
X168608380Y-94035523D01*
X169608380Y-93749809D02*
X168608380Y-93749809D01*
X169608380Y-94892666D02*
X169608380Y-94321238D01*
X169608380Y-94606952D02*
X168608380Y-94606952D01*
X168751238Y-94511714D01*
X168846476Y-94416476D01*
X168894095Y-94321238D01*
%TO.C,C19*%
X144619142Y-121023142D02*
X144666761Y-120975523D01*
X144714380Y-120832666D01*
X144714380Y-120737428D01*
X144666761Y-120594571D01*
X144571523Y-120499333D01*
X144476285Y-120451714D01*
X144285809Y-120404095D01*
X144142952Y-120404095D01*
X143952476Y-120451714D01*
X143857238Y-120499333D01*
X143762000Y-120594571D01*
X143714380Y-120737428D01*
X143714380Y-120832666D01*
X143762000Y-120975523D01*
X143809619Y-121023142D01*
X144714380Y-121975523D02*
X144714380Y-121404095D01*
X144714380Y-121689809D02*
X143714380Y-121689809D01*
X143857238Y-121594571D01*
X143952476Y-121499333D01*
X144000095Y-121404095D01*
X144714380Y-122451714D02*
X144714380Y-122642190D01*
X144666761Y-122737428D01*
X144619142Y-122785047D01*
X144476285Y-122880285D01*
X144285809Y-122927904D01*
X143904857Y-122927904D01*
X143809619Y-122880285D01*
X143762000Y-122832666D01*
X143714380Y-122737428D01*
X143714380Y-122546952D01*
X143762000Y-122451714D01*
X143809619Y-122404095D01*
X143904857Y-122356476D01*
X144142952Y-122356476D01*
X144238190Y-122404095D01*
X144285809Y-122451714D01*
X144333428Y-122546952D01*
X144333428Y-122737428D01*
X144285809Y-122832666D01*
X144238190Y-122880285D01*
X144142952Y-122927904D01*
%TO.C,C17*%
X125610857Y-122267142D02*
X125658476Y-122314761D01*
X125801333Y-122362380D01*
X125896571Y-122362380D01*
X126039428Y-122314761D01*
X126134666Y-122219523D01*
X126182285Y-122124285D01*
X126229904Y-121933809D01*
X126229904Y-121790952D01*
X126182285Y-121600476D01*
X126134666Y-121505238D01*
X126039428Y-121410000D01*
X125896571Y-121362380D01*
X125801333Y-121362380D01*
X125658476Y-121410000D01*
X125610857Y-121457619D01*
X124658476Y-122362380D02*
X125229904Y-122362380D01*
X124944190Y-122362380D02*
X124944190Y-121362380D01*
X125039428Y-121505238D01*
X125134666Y-121600476D01*
X125229904Y-121648095D01*
X124325142Y-121362380D02*
X123658476Y-121362380D01*
X124087047Y-122362380D01*
%TO.C,C15*%
X100179142Y-97147142D02*
X100226761Y-97099523D01*
X100274380Y-96956666D01*
X100274380Y-96861428D01*
X100226761Y-96718571D01*
X100131523Y-96623333D01*
X100036285Y-96575714D01*
X99845809Y-96528095D01*
X99702952Y-96528095D01*
X99512476Y-96575714D01*
X99417238Y-96623333D01*
X99322000Y-96718571D01*
X99274380Y-96861428D01*
X99274380Y-96956666D01*
X99322000Y-97099523D01*
X99369619Y-97147142D01*
X100274380Y-98099523D02*
X100274380Y-97528095D01*
X100274380Y-97813809D02*
X99274380Y-97813809D01*
X99417238Y-97718571D01*
X99512476Y-97623333D01*
X99560095Y-97528095D01*
X99274380Y-99004285D02*
X99274380Y-98528095D01*
X99750571Y-98480476D01*
X99702952Y-98528095D01*
X99655333Y-98623333D01*
X99655333Y-98861428D01*
X99702952Y-98956666D01*
X99750571Y-99004285D01*
X99845809Y-99051904D01*
X100083904Y-99051904D01*
X100179142Y-99004285D01*
X100226761Y-98956666D01*
X100274380Y-98861428D01*
X100274380Y-98623333D01*
X100226761Y-98528095D01*
X100179142Y-98480476D01*
%TO.C,C12*%
X151264857Y-76355142D02*
X151312476Y-76402761D01*
X151455333Y-76450380D01*
X151550571Y-76450380D01*
X151693428Y-76402761D01*
X151788666Y-76307523D01*
X151836285Y-76212285D01*
X151883904Y-76021809D01*
X151883904Y-75878952D01*
X151836285Y-75688476D01*
X151788666Y-75593238D01*
X151693428Y-75498000D01*
X151550571Y-75450380D01*
X151455333Y-75450380D01*
X151312476Y-75498000D01*
X151264857Y-75545619D01*
X150312476Y-76450380D02*
X150883904Y-76450380D01*
X150598190Y-76450380D02*
X150598190Y-75450380D01*
X150693428Y-75593238D01*
X150788666Y-75688476D01*
X150883904Y-75736095D01*
X149931523Y-75545619D02*
X149883904Y-75498000D01*
X149788666Y-75450380D01*
X149550571Y-75450380D01*
X149455333Y-75498000D01*
X149407714Y-75545619D01*
X149360095Y-75640857D01*
X149360095Y-75736095D01*
X149407714Y-75878952D01*
X149979142Y-76450380D01*
X149360095Y-76450380D01*
%TO.C,C18*%
X130309857Y-91807142D02*
X130357476Y-91854761D01*
X130500333Y-91902380D01*
X130595571Y-91902380D01*
X130738428Y-91854761D01*
X130833666Y-91759523D01*
X130881285Y-91664285D01*
X130928904Y-91473809D01*
X130928904Y-91330952D01*
X130881285Y-91140476D01*
X130833666Y-91045238D01*
X130738428Y-90950000D01*
X130595571Y-90902380D01*
X130500333Y-90902380D01*
X130357476Y-90950000D01*
X130309857Y-90997619D01*
X129357476Y-91902380D02*
X129928904Y-91902380D01*
X129643190Y-91902380D02*
X129643190Y-90902380D01*
X129738428Y-91045238D01*
X129833666Y-91140476D01*
X129928904Y-91188095D01*
X128786047Y-91330952D02*
X128881285Y-91283333D01*
X128928904Y-91235714D01*
X128976523Y-91140476D01*
X128976523Y-91092857D01*
X128928904Y-90997619D01*
X128881285Y-90950000D01*
X128786047Y-90902380D01*
X128595571Y-90902380D01*
X128500333Y-90950000D01*
X128452714Y-90997619D01*
X128405095Y-91092857D01*
X128405095Y-91140476D01*
X128452714Y-91235714D01*
X128500333Y-91283333D01*
X128595571Y-91330952D01*
X128786047Y-91330952D01*
X128881285Y-91378571D01*
X128928904Y-91426190D01*
X128976523Y-91521428D01*
X128976523Y-91711904D01*
X128928904Y-91807142D01*
X128881285Y-91854761D01*
X128786047Y-91902380D01*
X128595571Y-91902380D01*
X128500333Y-91854761D01*
X128452714Y-91807142D01*
X128405095Y-91711904D01*
X128405095Y-91521428D01*
X128452714Y-91426190D01*
X128500333Y-91378571D01*
X128595571Y-91330952D01*
%TO.C,C16*%
X96613142Y-82669142D02*
X96660761Y-82621523D01*
X96708380Y-82478666D01*
X96708380Y-82383428D01*
X96660761Y-82240571D01*
X96565523Y-82145333D01*
X96470285Y-82097714D01*
X96279809Y-82050095D01*
X96136952Y-82050095D01*
X95946476Y-82097714D01*
X95851238Y-82145333D01*
X95756000Y-82240571D01*
X95708380Y-82383428D01*
X95708380Y-82478666D01*
X95756000Y-82621523D01*
X95803619Y-82669142D01*
X96708380Y-83621523D02*
X96708380Y-83050095D01*
X96708380Y-83335809D02*
X95708380Y-83335809D01*
X95851238Y-83240571D01*
X95946476Y-83145333D01*
X95994095Y-83050095D01*
X95708380Y-84478666D02*
X95708380Y-84288190D01*
X95756000Y-84192952D01*
X95803619Y-84145333D01*
X95946476Y-84050095D01*
X96136952Y-84002476D01*
X96517904Y-84002476D01*
X96613142Y-84050095D01*
X96660761Y-84097714D01*
X96708380Y-84192952D01*
X96708380Y-84383428D01*
X96660761Y-84478666D01*
X96613142Y-84526285D01*
X96517904Y-84573904D01*
X96279809Y-84573904D01*
X96184571Y-84526285D01*
X96136952Y-84478666D01*
X96089333Y-84383428D01*
X96089333Y-84192952D01*
X96136952Y-84097714D01*
X96184571Y-84050095D01*
X96279809Y-84002476D01*
%TO.C,C14*%
X97004142Y-129913142D02*
X97051761Y-129865523D01*
X97099380Y-129722666D01*
X97099380Y-129627428D01*
X97051761Y-129484571D01*
X96956523Y-129389333D01*
X96861285Y-129341714D01*
X96670809Y-129294095D01*
X96527952Y-129294095D01*
X96337476Y-129341714D01*
X96242238Y-129389333D01*
X96147000Y-129484571D01*
X96099380Y-129627428D01*
X96099380Y-129722666D01*
X96147000Y-129865523D01*
X96194619Y-129913142D01*
X97099380Y-130865523D02*
X97099380Y-130294095D01*
X97099380Y-130579809D02*
X96099380Y-130579809D01*
X96242238Y-130484571D01*
X96337476Y-130389333D01*
X96385095Y-130294095D01*
X96432714Y-131722666D02*
X97099380Y-131722666D01*
X96051761Y-131484571D02*
X96766047Y-131246476D01*
X96766047Y-131865523D01*
%TO.C,C13*%
X164228857Y-133717142D02*
X164276476Y-133764761D01*
X164419333Y-133812380D01*
X164514571Y-133812380D01*
X164657428Y-133764761D01*
X164752666Y-133669523D01*
X164800285Y-133574285D01*
X164847904Y-133383809D01*
X164847904Y-133240952D01*
X164800285Y-133050476D01*
X164752666Y-132955238D01*
X164657428Y-132860000D01*
X164514571Y-132812380D01*
X164419333Y-132812380D01*
X164276476Y-132860000D01*
X164228857Y-132907619D01*
X163276476Y-133812380D02*
X163847904Y-133812380D01*
X163562190Y-133812380D02*
X163562190Y-132812380D01*
X163657428Y-132955238D01*
X163752666Y-133050476D01*
X163847904Y-133098095D01*
X162943142Y-132812380D02*
X162324095Y-132812380D01*
X162657428Y-133193333D01*
X162514571Y-133193333D01*
X162419333Y-133240952D01*
X162371714Y-133288571D01*
X162324095Y-133383809D01*
X162324095Y-133621904D01*
X162371714Y-133717142D01*
X162419333Y-133764761D01*
X162514571Y-133812380D01*
X162800285Y-133812380D01*
X162895523Y-133764761D01*
X162943142Y-133717142D01*
%TO.C,C11*%
X164980857Y-128679142D02*
X165028476Y-128726761D01*
X165171333Y-128774380D01*
X165266571Y-128774380D01*
X165409428Y-128726761D01*
X165504666Y-128631523D01*
X165552285Y-128536285D01*
X165599904Y-128345809D01*
X165599904Y-128202952D01*
X165552285Y-128012476D01*
X165504666Y-127917238D01*
X165409428Y-127822000D01*
X165266571Y-127774380D01*
X165171333Y-127774380D01*
X165028476Y-127822000D01*
X164980857Y-127869619D01*
X164028476Y-128774380D02*
X164599904Y-128774380D01*
X164314190Y-128774380D02*
X164314190Y-127774380D01*
X164409428Y-127917238D01*
X164504666Y-128012476D01*
X164599904Y-128060095D01*
X163076095Y-128774380D02*
X163647523Y-128774380D01*
X163361809Y-128774380D02*
X163361809Y-127774380D01*
X163457047Y-127917238D01*
X163552285Y-128012476D01*
X163647523Y-128060095D01*
%TO.C,BT1*%
X258111571Y-93956285D02*
X258159190Y-94099142D01*
X258206809Y-94146761D01*
X258302047Y-94194380D01*
X258444904Y-94194380D01*
X258540142Y-94146761D01*
X258587761Y-94099142D01*
X258635380Y-94003904D01*
X258635380Y-93622952D01*
X257635380Y-93622952D01*
X257635380Y-93956285D01*
X257683000Y-94051523D01*
X257730619Y-94099142D01*
X257825857Y-94146761D01*
X257921095Y-94146761D01*
X258016333Y-94099142D01*
X258063952Y-94051523D01*
X258111571Y-93956285D01*
X258111571Y-93622952D01*
X257635380Y-94480095D02*
X257635380Y-95051523D01*
X258635380Y-94765809D02*
X257635380Y-94765809D01*
X258635380Y-95908666D02*
X258635380Y-95337238D01*
X258635380Y-95622952D02*
X257635380Y-95622952D01*
X257778238Y-95527714D01*
X257873476Y-95432476D01*
X257921095Y-95337238D01*
%TO.C,C19*%
X230014857Y-126351142D02*
X230062476Y-126398761D01*
X230205333Y-126446380D01*
X230300571Y-126446380D01*
X230443428Y-126398761D01*
X230538666Y-126303523D01*
X230586285Y-126208285D01*
X230633904Y-126017809D01*
X230633904Y-125874952D01*
X230586285Y-125684476D01*
X230538666Y-125589238D01*
X230443428Y-125494000D01*
X230300571Y-125446380D01*
X230205333Y-125446380D01*
X230062476Y-125494000D01*
X230014857Y-125541619D01*
X229062476Y-126446380D02*
X229633904Y-126446380D01*
X229348190Y-126446380D02*
X229348190Y-125446380D01*
X229443428Y-125589238D01*
X229538666Y-125684476D01*
X229633904Y-125732095D01*
X228586285Y-126446380D02*
X228395809Y-126446380D01*
X228300571Y-126398761D01*
X228252952Y-126351142D01*
X228157714Y-126208285D01*
X228110095Y-126017809D01*
X228110095Y-125636857D01*
X228157714Y-125541619D01*
X228205333Y-125494000D01*
X228300571Y-125446380D01*
X228491047Y-125446380D01*
X228586285Y-125494000D01*
X228633904Y-125541619D01*
X228681523Y-125636857D01*
X228681523Y-125874952D01*
X228633904Y-125970190D01*
X228586285Y-126017809D01*
X228491047Y-126065428D01*
X228300571Y-126065428D01*
X228205333Y-126017809D01*
X228157714Y-125970190D01*
X228110095Y-125874952D01*
%TO.C,C18*%
X221251857Y-92950142D02*
X221299476Y-92997761D01*
X221442333Y-93045380D01*
X221537571Y-93045380D01*
X221680428Y-92997761D01*
X221775666Y-92902523D01*
X221823285Y-92807285D01*
X221870904Y-92616809D01*
X221870904Y-92473952D01*
X221823285Y-92283476D01*
X221775666Y-92188238D01*
X221680428Y-92093000D01*
X221537571Y-92045380D01*
X221442333Y-92045380D01*
X221299476Y-92093000D01*
X221251857Y-92140619D01*
X220299476Y-93045380D02*
X220870904Y-93045380D01*
X220585190Y-93045380D02*
X220585190Y-92045380D01*
X220680428Y-92188238D01*
X220775666Y-92283476D01*
X220870904Y-92331095D01*
X219728047Y-92473952D02*
X219823285Y-92426333D01*
X219870904Y-92378714D01*
X219918523Y-92283476D01*
X219918523Y-92235857D01*
X219870904Y-92140619D01*
X219823285Y-92093000D01*
X219728047Y-92045380D01*
X219537571Y-92045380D01*
X219442333Y-92093000D01*
X219394714Y-92140619D01*
X219347095Y-92235857D01*
X219347095Y-92283476D01*
X219394714Y-92378714D01*
X219442333Y-92426333D01*
X219537571Y-92473952D01*
X219728047Y-92473952D01*
X219823285Y-92521571D01*
X219870904Y-92569190D01*
X219918523Y-92664428D01*
X219918523Y-92854904D01*
X219870904Y-92950142D01*
X219823285Y-92997761D01*
X219728047Y-93045380D01*
X219537571Y-93045380D01*
X219442333Y-92997761D01*
X219394714Y-92950142D01*
X219347095Y-92854904D01*
X219347095Y-92664428D01*
X219394714Y-92569190D01*
X219442333Y-92521571D01*
X219537571Y-92473952D01*
%TO.C,C17*%
X216786857Y-122013142D02*
X216834476Y-122060761D01*
X216977333Y-122108380D01*
X217072571Y-122108380D01*
X217215428Y-122060761D01*
X217310666Y-121965523D01*
X217358285Y-121870285D01*
X217405904Y-121679809D01*
X217405904Y-121536952D01*
X217358285Y-121346476D01*
X217310666Y-121251238D01*
X217215428Y-121156000D01*
X217072571Y-121108380D01*
X216977333Y-121108380D01*
X216834476Y-121156000D01*
X216786857Y-121203619D01*
X215834476Y-122108380D02*
X216405904Y-122108380D01*
X216120190Y-122108380D02*
X216120190Y-121108380D01*
X216215428Y-121251238D01*
X216310666Y-121346476D01*
X216405904Y-121394095D01*
X215501142Y-121108380D02*
X214834476Y-121108380D01*
X215263047Y-122108380D01*
%TO.C,C16*%
X187545142Y-81669142D02*
X187592761Y-81621523D01*
X187640380Y-81478666D01*
X187640380Y-81383428D01*
X187592761Y-81240571D01*
X187497523Y-81145333D01*
X187402285Y-81097714D01*
X187211809Y-81050095D01*
X187068952Y-81050095D01*
X186878476Y-81097714D01*
X186783238Y-81145333D01*
X186688000Y-81240571D01*
X186640380Y-81383428D01*
X186640380Y-81478666D01*
X186688000Y-81621523D01*
X186735619Y-81669142D01*
X187640380Y-82621523D02*
X187640380Y-82050095D01*
X187640380Y-82335809D02*
X186640380Y-82335809D01*
X186783238Y-82240571D01*
X186878476Y-82145333D01*
X186926095Y-82050095D01*
X186640380Y-83478666D02*
X186640380Y-83288190D01*
X186688000Y-83192952D01*
X186735619Y-83145333D01*
X186878476Y-83050095D01*
X187068952Y-83002476D01*
X187449904Y-83002476D01*
X187545142Y-83050095D01*
X187592761Y-83097714D01*
X187640380Y-83192952D01*
X187640380Y-83383428D01*
X187592761Y-83478666D01*
X187545142Y-83526285D01*
X187449904Y-83573904D01*
X187211809Y-83573904D01*
X187116571Y-83526285D01*
X187068952Y-83478666D01*
X187021333Y-83383428D01*
X187021333Y-83192952D01*
X187068952Y-83097714D01*
X187116571Y-83050095D01*
X187211809Y-83002476D01*
%TO.C,C15*%
X191111142Y-97655142D02*
X191158761Y-97607523D01*
X191206380Y-97464666D01*
X191206380Y-97369428D01*
X191158761Y-97226571D01*
X191063523Y-97131333D01*
X190968285Y-97083714D01*
X190777809Y-97036095D01*
X190634952Y-97036095D01*
X190444476Y-97083714D01*
X190349238Y-97131333D01*
X190254000Y-97226571D01*
X190206380Y-97369428D01*
X190206380Y-97464666D01*
X190254000Y-97607523D01*
X190301619Y-97655142D01*
X191206380Y-98607523D02*
X191206380Y-98036095D01*
X191206380Y-98321809D02*
X190206380Y-98321809D01*
X190349238Y-98226571D01*
X190444476Y-98131333D01*
X190492095Y-98036095D01*
X190206380Y-99512285D02*
X190206380Y-99036095D01*
X190682571Y-98988476D01*
X190634952Y-99036095D01*
X190587333Y-99131333D01*
X190587333Y-99369428D01*
X190634952Y-99464666D01*
X190682571Y-99512285D01*
X190777809Y-99559904D01*
X191015904Y-99559904D01*
X191111142Y-99512285D01*
X191158761Y-99464666D01*
X191206380Y-99369428D01*
X191206380Y-99131333D01*
X191158761Y-99036095D01*
X191111142Y-98988476D01*
%TO.C,C14*%
X188063142Y-129888142D02*
X188110761Y-129840523D01*
X188158380Y-129697666D01*
X188158380Y-129602428D01*
X188110761Y-129459571D01*
X188015523Y-129364333D01*
X187920285Y-129316714D01*
X187729809Y-129269095D01*
X187586952Y-129269095D01*
X187396476Y-129316714D01*
X187301238Y-129364333D01*
X187206000Y-129459571D01*
X187158380Y-129602428D01*
X187158380Y-129697666D01*
X187206000Y-129840523D01*
X187253619Y-129888142D01*
X188158380Y-130840523D02*
X188158380Y-130269095D01*
X188158380Y-130554809D02*
X187158380Y-130554809D01*
X187301238Y-130459571D01*
X187396476Y-130364333D01*
X187444095Y-130269095D01*
X187491714Y-131697666D02*
X188158380Y-131697666D01*
X187110761Y-131459571D02*
X187825047Y-131221476D01*
X187825047Y-131840523D01*
%TO.C,C13*%
X255150857Y-133971142D02*
X255198476Y-134018761D01*
X255341333Y-134066380D01*
X255436571Y-134066380D01*
X255579428Y-134018761D01*
X255674666Y-133923523D01*
X255722285Y-133828285D01*
X255769904Y-133637809D01*
X255769904Y-133494952D01*
X255722285Y-133304476D01*
X255674666Y-133209238D01*
X255579428Y-133114000D01*
X255436571Y-133066380D01*
X255341333Y-133066380D01*
X255198476Y-133114000D01*
X255150857Y-133161619D01*
X254198476Y-134066380D02*
X254769904Y-134066380D01*
X254484190Y-134066380D02*
X254484190Y-133066380D01*
X254579428Y-133209238D01*
X254674666Y-133304476D01*
X254769904Y-133352095D01*
X253865142Y-133066380D02*
X253246095Y-133066380D01*
X253579428Y-133447333D01*
X253436571Y-133447333D01*
X253341333Y-133494952D01*
X253293714Y-133542571D01*
X253246095Y-133637809D01*
X253246095Y-133875904D01*
X253293714Y-133971142D01*
X253341333Y-134018761D01*
X253436571Y-134066380D01*
X253722285Y-134066380D01*
X253817523Y-134018761D01*
X253865142Y-133971142D01*
%TO.C,C12*%
X242704857Y-74831142D02*
X242752476Y-74878761D01*
X242895333Y-74926380D01*
X242990571Y-74926380D01*
X243133428Y-74878761D01*
X243228666Y-74783523D01*
X243276285Y-74688285D01*
X243323904Y-74497809D01*
X243323904Y-74354952D01*
X243276285Y-74164476D01*
X243228666Y-74069238D01*
X243133428Y-73974000D01*
X242990571Y-73926380D01*
X242895333Y-73926380D01*
X242752476Y-73974000D01*
X242704857Y-74021619D01*
X241752476Y-74926380D02*
X242323904Y-74926380D01*
X242038190Y-74926380D02*
X242038190Y-73926380D01*
X242133428Y-74069238D01*
X242228666Y-74164476D01*
X242323904Y-74212095D01*
X241371523Y-74021619D02*
X241323904Y-73974000D01*
X241228666Y-73926380D01*
X240990571Y-73926380D01*
X240895333Y-73974000D01*
X240847714Y-74021619D01*
X240800095Y-74116857D01*
X240800095Y-74212095D01*
X240847714Y-74354952D01*
X241419142Y-74926380D01*
X240800095Y-74926380D01*
%TO.C,C11*%
X255912857Y-122277142D02*
X255960476Y-122324761D01*
X256103333Y-122372380D01*
X256198571Y-122372380D01*
X256341428Y-122324761D01*
X256436666Y-122229523D01*
X256484285Y-122134285D01*
X256531904Y-121943809D01*
X256531904Y-121800952D01*
X256484285Y-121610476D01*
X256436666Y-121515238D01*
X256341428Y-121420000D01*
X256198571Y-121372380D01*
X256103333Y-121372380D01*
X255960476Y-121420000D01*
X255912857Y-121467619D01*
X254960476Y-122372380D02*
X255531904Y-122372380D01*
X255246190Y-122372380D02*
X255246190Y-121372380D01*
X255341428Y-121515238D01*
X255436666Y-121610476D01*
X255531904Y-121658095D01*
X254008095Y-122372380D02*
X254579523Y-122372380D01*
X254293809Y-122372380D02*
X254293809Y-121372380D01*
X254389047Y-121515238D01*
X254484285Y-121610476D01*
X254579523Y-121658095D01*
%TD*%
M02*
