%TF.GenerationSoftware,KiCad,Pcbnew,(5.1.9)-1*%
%TF.CreationDate,2021-11-28T20:19:45-05:00*%
%TF.ProjectId,Combined branches,436f6d62-696e-4656-9420-6272616e6368,rev?*%
%TF.SameCoordinates,Original*%
%TF.FileFunction,Soldermask,Bot*%
%TF.FilePolarity,Negative*%
%FSLAX46Y46*%
G04 Gerber Fmt 4.6, Leading zero omitted, Abs format (unit mm)*
G04 Created by KiCad (PCBNEW (5.1.9)-1) date 2021-11-28 20:19:45*
%MOMM*%
%LPD*%
G01*
G04 APERTURE LIST*
%ADD10O,2.000000X1.700000*%
%ADD11C,17.500000*%
%ADD12C,2.300000*%
%ADD13C,2.500000*%
%ADD14C,1.524000*%
%ADD15O,1.700000X1.700000*%
%ADD16R,1.700000X1.700000*%
%ADD17C,2.700000*%
%ADD18C,5.600000*%
%ADD19C,3.600000*%
%ADD20O,1.400000X0.700000*%
%ADD21O,1.500000X1.500000*%
%ADD22R,1.500000X1.500000*%
%ADD23O,0.800000X1.300000*%
%ADD24C,0.800000*%
G04 APERTURE END LIST*
D10*
%TO.C,J6*%
X181102000Y-70191000D03*
G36*
G01*
X180352000Y-66841000D02*
X181852000Y-66841000D01*
G75*
G02*
X182102000Y-67091000I0J-250000D01*
G01*
X182102000Y-68291000D01*
G75*
G02*
X181852000Y-68541000I-250000J0D01*
G01*
X180352000Y-68541000D01*
G75*
G02*
X180102000Y-68291000I0J250000D01*
G01*
X180102000Y-67091000D01*
G75*
G02*
X180352000Y-66841000I250000J0D01*
G01*
G37*
%TD*%
D11*
%TO.C,BT1*%
X168656000Y-93726000D03*
D12*
X167156000Y-104126000D03*
X170256000Y-104126000D03*
X170256000Y-83326000D03*
X167156000Y-83326000D03*
%TD*%
D13*
%TO.C,U1*%
X144272000Y-79121000D03*
X122682000Y-79121000D03*
X144272000Y-94361000D03*
X122682000Y-94361000D03*
D14*
X127127000Y-95631000D03*
X129667000Y-95631000D03*
X132207000Y-95631000D03*
X134747000Y-95631000D03*
X137287000Y-95631000D03*
X139827000Y-95631000D03*
%TD*%
%TO.C,C19*%
G36*
G01*
X145886999Y-123091000D02*
X147737001Y-123091000D01*
G75*
G02*
X147987000Y-123340999I0J-249999D01*
G01*
X147987000Y-125091001D01*
G75*
G02*
X147737001Y-125341000I-249999J0D01*
G01*
X145886999Y-125341000D01*
G75*
G02*
X145637000Y-125091001I0J249999D01*
G01*
X145637000Y-123340999D01*
G75*
G02*
X145886999Y-123091000I249999J0D01*
G01*
G37*
G36*
G01*
X145886999Y-117991000D02*
X147737001Y-117991000D01*
G75*
G02*
X147987000Y-118240999I0J-249999D01*
G01*
X147987000Y-119991001D01*
G75*
G02*
X147737001Y-120241000I-249999J0D01*
G01*
X145886999Y-120241000D01*
G75*
G02*
X145637000Y-119991001I0J249999D01*
G01*
X145637000Y-118240999D01*
G75*
G02*
X145886999Y-117991000I249999J0D01*
G01*
G37*
%TD*%
%TO.C,C17*%
G36*
G01*
X123543000Y-123534999D02*
X123543000Y-125385001D01*
G75*
G02*
X123293001Y-125635000I-249999J0D01*
G01*
X121542999Y-125635000D01*
G75*
G02*
X121293000Y-125385001I0J249999D01*
G01*
X121293000Y-123534999D01*
G75*
G02*
X121542999Y-123285000I249999J0D01*
G01*
X123293001Y-123285000D01*
G75*
G02*
X123543000Y-123534999I0J-249999D01*
G01*
G37*
G36*
G01*
X128643000Y-123534999D02*
X128643000Y-125385001D01*
G75*
G02*
X128393001Y-125635000I-249999J0D01*
G01*
X126642999Y-125635000D01*
G75*
G02*
X126393000Y-125385001I0J249999D01*
G01*
X126393000Y-123534999D01*
G75*
G02*
X126642999Y-123285000I249999J0D01*
G01*
X128393001Y-123285000D01*
G75*
G02*
X128643000Y-123534999I0J-249999D01*
G01*
G37*
%TD*%
%TO.C,C15*%
G36*
G01*
X100847001Y-102421000D02*
X98796999Y-102421000D01*
G75*
G02*
X98547000Y-102171001I0J249999D01*
G01*
X98547000Y-100420999D01*
G75*
G02*
X98796999Y-100171000I249999J0D01*
G01*
X100847001Y-100171000D01*
G75*
G02*
X101097000Y-100420999I0J-249999D01*
G01*
X101097000Y-102171001D01*
G75*
G02*
X100847001Y-102421000I-249999J0D01*
G01*
G37*
G36*
G01*
X100847001Y-108821000D02*
X98796999Y-108821000D01*
G75*
G02*
X98547000Y-108571001I0J249999D01*
G01*
X98547000Y-106820999D01*
G75*
G02*
X98796999Y-106571000I249999J0D01*
G01*
X100847001Y-106571000D01*
G75*
G02*
X101097000Y-106820999I0J-249999D01*
G01*
X101097000Y-108571001D01*
G75*
G02*
X100847001Y-108821000I-249999J0D01*
G01*
G37*
%TD*%
%TO.C,C12*%
G36*
G01*
X152697000Y-73923001D02*
X152697000Y-71872999D01*
G75*
G02*
X152946999Y-71623000I249999J0D01*
G01*
X154697001Y-71623000D01*
G75*
G02*
X154947000Y-71872999I0J-249999D01*
G01*
X154947000Y-73923001D01*
G75*
G02*
X154697001Y-74173000I-249999J0D01*
G01*
X152946999Y-74173000D01*
G75*
G02*
X152697000Y-73923001I0J249999D01*
G01*
G37*
G36*
G01*
X146297000Y-73923001D02*
X146297000Y-71872999D01*
G75*
G02*
X146546999Y-71623000I249999J0D01*
G01*
X148297001Y-71623000D01*
G75*
G02*
X148547000Y-71872999I0J-249999D01*
G01*
X148547000Y-73923001D01*
G75*
G02*
X148297001Y-74173000I-249999J0D01*
G01*
X146546999Y-74173000D01*
G75*
G02*
X146297000Y-73923001I0J249999D01*
G01*
G37*
%TD*%
%TO.C,C18*%
G36*
G01*
X131092000Y-89825001D02*
X131092000Y-87974999D01*
G75*
G02*
X131341999Y-87725000I249999J0D01*
G01*
X133092001Y-87725000D01*
G75*
G02*
X133342000Y-87974999I0J-249999D01*
G01*
X133342000Y-89825001D01*
G75*
G02*
X133092001Y-90075000I-249999J0D01*
G01*
X131341999Y-90075000D01*
G75*
G02*
X131092000Y-89825001I0J249999D01*
G01*
G37*
G36*
G01*
X125992000Y-89825001D02*
X125992000Y-87974999D01*
G75*
G02*
X126241999Y-87725000I249999J0D01*
G01*
X127992001Y-87725000D01*
G75*
G02*
X128242000Y-87974999I0J-249999D01*
G01*
X128242000Y-89825001D01*
G75*
G02*
X127992001Y-90075000I-249999J0D01*
G01*
X126241999Y-90075000D01*
G75*
G02*
X125992000Y-89825001I0J249999D01*
G01*
G37*
%TD*%
%TO.C,C16*%
G36*
G01*
X97880999Y-84737000D02*
X99731001Y-84737000D01*
G75*
G02*
X99981000Y-84986999I0J-249999D01*
G01*
X99981000Y-86737001D01*
G75*
G02*
X99731001Y-86987000I-249999J0D01*
G01*
X97880999Y-86987000D01*
G75*
G02*
X97631000Y-86737001I0J249999D01*
G01*
X97631000Y-84986999D01*
G75*
G02*
X97880999Y-84737000I249999J0D01*
G01*
G37*
G36*
G01*
X97880999Y-79637000D02*
X99731001Y-79637000D01*
G75*
G02*
X99981000Y-79886999I0J-249999D01*
G01*
X99981000Y-81637001D01*
G75*
G02*
X99731001Y-81887000I-249999J0D01*
G01*
X97880999Y-81887000D01*
G75*
G02*
X97631000Y-81637001I0J249999D01*
G01*
X97631000Y-79886999D01*
G75*
G02*
X97880999Y-79637000I249999J0D01*
G01*
G37*
%TD*%
%TO.C,C14*%
G36*
G01*
X100872001Y-128456000D02*
X98821999Y-128456000D01*
G75*
G02*
X98572000Y-128206001I0J249999D01*
G01*
X98572000Y-126455999D01*
G75*
G02*
X98821999Y-126206000I249999J0D01*
G01*
X100872001Y-126206000D01*
G75*
G02*
X101122000Y-126455999I0J-249999D01*
G01*
X101122000Y-128206001D01*
G75*
G02*
X100872001Y-128456000I-249999J0D01*
G01*
G37*
G36*
G01*
X100872001Y-134856000D02*
X98821999Y-134856000D01*
G75*
G02*
X98572000Y-134606001I0J249999D01*
G01*
X98572000Y-132855999D01*
G75*
G02*
X98821999Y-132606000I249999J0D01*
G01*
X100872001Y-132606000D01*
G75*
G02*
X101122000Y-132855999I0J-249999D01*
G01*
X101122000Y-134606001D01*
G75*
G02*
X100872001Y-134856000I-249999J0D01*
G01*
G37*
%TD*%
%TO.C,C13*%
G36*
G01*
X165011000Y-131735001D02*
X165011000Y-129884999D01*
G75*
G02*
X165260999Y-129635000I249999J0D01*
G01*
X167011001Y-129635000D01*
G75*
G02*
X167261000Y-129884999I0J-249999D01*
G01*
X167261000Y-131735001D01*
G75*
G02*
X167011001Y-131985000I-249999J0D01*
G01*
X165260999Y-131985000D01*
G75*
G02*
X165011000Y-131735001I0J249999D01*
G01*
G37*
G36*
G01*
X159911000Y-131735001D02*
X159911000Y-129884999D01*
G75*
G02*
X160160999Y-129635000I249999J0D01*
G01*
X161911001Y-129635000D01*
G75*
G02*
X162161000Y-129884999I0J-249999D01*
G01*
X162161000Y-131735001D01*
G75*
G02*
X161911001Y-131985000I-249999J0D01*
G01*
X160160999Y-131985000D01*
G75*
G02*
X159911000Y-131735001I0J249999D01*
G01*
G37*
%TD*%
%TO.C,C11*%
G36*
G01*
X166413000Y-126247001D02*
X166413000Y-124196999D01*
G75*
G02*
X166662999Y-123947000I249999J0D01*
G01*
X168413001Y-123947000D01*
G75*
G02*
X168663000Y-124196999I0J-249999D01*
G01*
X168663000Y-126247001D01*
G75*
G02*
X168413001Y-126497000I-249999J0D01*
G01*
X166662999Y-126497000D01*
G75*
G02*
X166413000Y-126247001I0J249999D01*
G01*
G37*
G36*
G01*
X160013000Y-126247001D02*
X160013000Y-124196999D01*
G75*
G02*
X160262999Y-123947000I249999J0D01*
G01*
X162013001Y-123947000D01*
G75*
G02*
X162263000Y-124196999I0J-249999D01*
G01*
X162263000Y-126247001D01*
G75*
G02*
X162013001Y-126497000I-249999J0D01*
G01*
X160262999Y-126497000D01*
G75*
G02*
X160013000Y-126247001I0J249999D01*
G01*
G37*
%TD*%
D15*
%TO.C,J1*%
X150762000Y-85030000D03*
X153302000Y-85030000D03*
X150762000Y-87570000D03*
X153302000Y-87570000D03*
X150762000Y-90110000D03*
X153302000Y-90110000D03*
X150762000Y-92650000D03*
X153302000Y-92650000D03*
X150762000Y-95190000D03*
X153302000Y-95190000D03*
X150762000Y-97730000D03*
X153302000Y-97730000D03*
X150762000Y-100270000D03*
X153302000Y-100270000D03*
X150762000Y-102810000D03*
X153302000Y-102810000D03*
X150762000Y-105350000D03*
X153302000Y-105350000D03*
X150762000Y-107890000D03*
X153302000Y-107890000D03*
X150762000Y-110430000D03*
X153302000Y-110430000D03*
X150762000Y-112970000D03*
X153302000Y-112970000D03*
X150762000Y-115510000D03*
X153302000Y-115510000D03*
X150762000Y-118050000D03*
X153302000Y-118050000D03*
X150762000Y-120590000D03*
X153302000Y-120590000D03*
X150762000Y-123130000D03*
X153302000Y-123130000D03*
X150762000Y-125670000D03*
X153302000Y-125670000D03*
X150762000Y-128210000D03*
X153302000Y-128210000D03*
X150762000Y-130750000D03*
X153302000Y-130750000D03*
X150762000Y-133290000D03*
D16*
X153302000Y-133290000D03*
%TD*%
D15*
%TO.C,J5*%
X140462000Y-143256000D03*
X137922000Y-143256000D03*
D16*
X135382000Y-143256000D03*
%TD*%
D17*
%TO.C,M8*%
X175050000Y-138160000D03*
%TD*%
%TO.C,M7*%
X175050000Y-80160000D03*
%TD*%
%TO.C,M6*%
X152050000Y-138160000D03*
%TD*%
%TO.C,M5*%
X152050000Y-80160000D03*
%TD*%
D18*
%TO.C,M4*%
X178718000Y-144680000D03*
D19*
X178718000Y-144680000D03*
%TD*%
D18*
%TO.C,M3*%
X98708000Y-144680000D03*
D19*
X98708000Y-144680000D03*
%TD*%
D18*
%TO.C,M2*%
X176178000Y-58955000D03*
D19*
X176178000Y-58955000D03*
%TD*%
D18*
%TO.C,M1*%
X102518000Y-58955000D03*
D19*
X102518000Y-58955000D03*
%TD*%
D20*
%TO.C,J4*%
X100798000Y-76655000D03*
X100798000Y-75405000D03*
X100798000Y-74155000D03*
X100798000Y-72905000D03*
X100798000Y-71655000D03*
X100798000Y-70405000D03*
X100798000Y-69155000D03*
X100798000Y-67905000D03*
X100798000Y-66655000D03*
%TD*%
D15*
%TO.C,J3*%
X106807000Y-106966000D03*
X104267000Y-106966000D03*
X106807000Y-104426000D03*
X104267000Y-104426000D03*
X106807000Y-101886000D03*
X104267000Y-101886000D03*
X106807000Y-99346000D03*
X104267000Y-99346000D03*
X106807000Y-96806000D03*
X104267000Y-96806000D03*
X106807000Y-94266000D03*
X104267000Y-94266000D03*
X106807000Y-91726000D03*
X104267000Y-91726000D03*
X106807000Y-89186000D03*
X104267000Y-89186000D03*
X106807000Y-86646000D03*
X104267000Y-86646000D03*
X106807000Y-84106000D03*
D16*
X104267000Y-84106000D03*
%TD*%
D15*
%TO.C,J2*%
X104267000Y-120856000D03*
X106807000Y-120856000D03*
X104267000Y-123396000D03*
X106807000Y-123396000D03*
X104267000Y-125936000D03*
X106807000Y-125936000D03*
X104267000Y-128476000D03*
X106807000Y-128476000D03*
X104267000Y-131016000D03*
X106807000Y-131016000D03*
X104267000Y-133556000D03*
X106807000Y-133556000D03*
X104267000Y-136096000D03*
X106807000Y-136096000D03*
X104267000Y-138636000D03*
D16*
X106807000Y-138636000D03*
%TD*%
D21*
%TO.C,H2*%
X171098000Y-58955000D03*
X171098000Y-61495000D03*
X168558000Y-58955000D03*
X168558000Y-61495000D03*
X166018000Y-58955000D03*
X166018000Y-61495000D03*
X163478000Y-58955000D03*
X163478000Y-61495000D03*
X160938000Y-58955000D03*
X160938000Y-61495000D03*
X158398000Y-58955000D03*
X158398000Y-61495000D03*
X155858000Y-58955000D03*
X155858000Y-61495000D03*
X153318000Y-58955000D03*
X153318000Y-61495000D03*
X150778000Y-58955000D03*
X150778000Y-61495000D03*
X148238000Y-58955000D03*
X148238000Y-61495000D03*
X145698000Y-58955000D03*
X145698000Y-61495000D03*
X143158000Y-58955000D03*
X143158000Y-61495000D03*
X140618000Y-58955000D03*
X140618000Y-61495000D03*
X138078000Y-58955000D03*
X138078000Y-61495000D03*
X135538000Y-58955000D03*
X135538000Y-61495000D03*
X132998000Y-58955000D03*
X132998000Y-61495000D03*
X130458000Y-58955000D03*
X130458000Y-61495000D03*
X127918000Y-58955000D03*
X127918000Y-61495000D03*
X125378000Y-58955000D03*
X125378000Y-61495000D03*
X122838000Y-58955000D03*
X122838000Y-61495000D03*
X120298000Y-58955000D03*
X120298000Y-61495000D03*
X117758000Y-58955000D03*
X117758000Y-61495000D03*
X115218000Y-58955000D03*
X115218000Y-61495000D03*
X112678000Y-58955000D03*
X112678000Y-61495000D03*
X110138000Y-58955000D03*
X110138000Y-61495000D03*
X107598000Y-58955000D03*
D22*
X107598000Y-61495000D03*
%TD*%
D21*
%TO.C,H1*%
X171098000Y-64035000D03*
X171098000Y-66575000D03*
X168558000Y-64035000D03*
X168558000Y-66575000D03*
X166018000Y-64035000D03*
X166018000Y-66575000D03*
X163478000Y-64035000D03*
X163478000Y-66575000D03*
X160938000Y-64035000D03*
X160938000Y-66575000D03*
X158398000Y-64035000D03*
X158398000Y-66575000D03*
X155858000Y-64035000D03*
X155858000Y-66575000D03*
X153318000Y-64035000D03*
X153318000Y-66575000D03*
X150778000Y-64035000D03*
X150778000Y-66575000D03*
X148238000Y-64035000D03*
X148238000Y-66575000D03*
X145698000Y-64035000D03*
X145698000Y-66575000D03*
X143158000Y-64035000D03*
X143158000Y-66575000D03*
X140618000Y-64035000D03*
X140618000Y-66575000D03*
X138078000Y-64035000D03*
X138078000Y-66575000D03*
X135538000Y-64035000D03*
X135538000Y-66575000D03*
X132998000Y-64035000D03*
X132998000Y-66575000D03*
X130458000Y-64035000D03*
X130458000Y-66575000D03*
X127918000Y-64035000D03*
X127918000Y-66575000D03*
X125378000Y-64035000D03*
X125378000Y-66575000D03*
X122838000Y-64035000D03*
X122838000Y-66575000D03*
X120298000Y-64035000D03*
X120298000Y-66575000D03*
X117758000Y-64035000D03*
X117758000Y-66575000D03*
X115218000Y-64035000D03*
X115218000Y-66575000D03*
X112678000Y-64035000D03*
X112678000Y-66575000D03*
X110138000Y-64035000D03*
X110138000Y-66575000D03*
X107598000Y-64035000D03*
D22*
X107598000Y-66575000D03*
%TD*%
D23*
%TO.C,J9*%
X260410000Y-147320000D03*
X261660000Y-147320000D03*
X262910000Y-147320000D03*
G36*
G01*
X264560000Y-146870000D02*
X264560000Y-147770000D01*
G75*
G02*
X264360000Y-147970000I-200000J0D01*
G01*
X263960000Y-147970000D01*
G75*
G02*
X263760000Y-147770000I0J200000D01*
G01*
X263760000Y-146870000D01*
G75*
G02*
X263960000Y-146670000I200000J0D01*
G01*
X264360000Y-146670000D01*
G75*
G02*
X264560000Y-146870000I0J-200000D01*
G01*
G37*
%TD*%
D10*
%TO.C,J10*%
X271399000Y-70826000D03*
G36*
G01*
X270649000Y-67476000D02*
X272149000Y-67476000D01*
G75*
G02*
X272399000Y-67726000I0J-250000D01*
G01*
X272399000Y-68926000D01*
G75*
G02*
X272149000Y-69176000I-250000J0D01*
G01*
X270649000Y-69176000D01*
G75*
G02*
X270399000Y-68926000I0J250000D01*
G01*
X270399000Y-67726000D01*
G75*
G02*
X270649000Y-67476000I250000J0D01*
G01*
G37*
%TD*%
D12*
%TO.C,BT1*%
X256183000Y-84342000D03*
X259283000Y-84342000D03*
X259283000Y-105142000D03*
X256183000Y-105142000D03*
D11*
X257683000Y-94742000D03*
%TD*%
%TO.C,C19*%
G36*
G01*
X230797000Y-124369001D02*
X230797000Y-122518999D01*
G75*
G02*
X231046999Y-122269000I249999J0D01*
G01*
X232797001Y-122269000D01*
G75*
G02*
X233047000Y-122518999I0J-249999D01*
G01*
X233047000Y-124369001D01*
G75*
G02*
X232797001Y-124619000I-249999J0D01*
G01*
X231046999Y-124619000D01*
G75*
G02*
X230797000Y-124369001I0J249999D01*
G01*
G37*
G36*
G01*
X225697000Y-124369001D02*
X225697000Y-122518999D01*
G75*
G02*
X225946999Y-122269000I249999J0D01*
G01*
X227697001Y-122269000D01*
G75*
G02*
X227947000Y-122518999I0J-249999D01*
G01*
X227947000Y-124369001D01*
G75*
G02*
X227697001Y-124619000I-249999J0D01*
G01*
X225946999Y-124619000D01*
G75*
G02*
X225697000Y-124369001I0J249999D01*
G01*
G37*
%TD*%
%TO.C,C18*%
G36*
G01*
X222034000Y-90968001D02*
X222034000Y-89117999D01*
G75*
G02*
X222283999Y-88868000I249999J0D01*
G01*
X224034001Y-88868000D01*
G75*
G02*
X224284000Y-89117999I0J-249999D01*
G01*
X224284000Y-90968001D01*
G75*
G02*
X224034001Y-91218000I-249999J0D01*
G01*
X222283999Y-91218000D01*
G75*
G02*
X222034000Y-90968001I0J249999D01*
G01*
G37*
G36*
G01*
X216934000Y-90968001D02*
X216934000Y-89117999D01*
G75*
G02*
X217183999Y-88868000I249999J0D01*
G01*
X218934001Y-88868000D01*
G75*
G02*
X219184000Y-89117999I0J-249999D01*
G01*
X219184000Y-90968001D01*
G75*
G02*
X218934001Y-91218000I-249999J0D01*
G01*
X217183999Y-91218000D01*
G75*
G02*
X216934000Y-90968001I0J249999D01*
G01*
G37*
%TD*%
%TO.C,C17*%
G36*
G01*
X214719000Y-123280999D02*
X214719000Y-125131001D01*
G75*
G02*
X214469001Y-125381000I-249999J0D01*
G01*
X212718999Y-125381000D01*
G75*
G02*
X212469000Y-125131001I0J249999D01*
G01*
X212469000Y-123280999D01*
G75*
G02*
X212718999Y-123031000I249999J0D01*
G01*
X214469001Y-123031000D01*
G75*
G02*
X214719000Y-123280999I0J-249999D01*
G01*
G37*
G36*
G01*
X219819000Y-123280999D02*
X219819000Y-125131001D01*
G75*
G02*
X219569001Y-125381000I-249999J0D01*
G01*
X217818999Y-125381000D01*
G75*
G02*
X217569000Y-125131001I0J249999D01*
G01*
X217569000Y-123280999D01*
G75*
G02*
X217818999Y-123031000I249999J0D01*
G01*
X219569001Y-123031000D01*
G75*
G02*
X219819000Y-123280999I0J-249999D01*
G01*
G37*
%TD*%
%TO.C,C16*%
G36*
G01*
X188812999Y-83737000D02*
X190663001Y-83737000D01*
G75*
G02*
X190913000Y-83986999I0J-249999D01*
G01*
X190913000Y-85737001D01*
G75*
G02*
X190663001Y-85987000I-249999J0D01*
G01*
X188812999Y-85987000D01*
G75*
G02*
X188563000Y-85737001I0J249999D01*
G01*
X188563000Y-83986999D01*
G75*
G02*
X188812999Y-83737000I249999J0D01*
G01*
G37*
G36*
G01*
X188812999Y-78637000D02*
X190663001Y-78637000D01*
G75*
G02*
X190913000Y-78886999I0J-249999D01*
G01*
X190913000Y-80637001D01*
G75*
G02*
X190663001Y-80887000I-249999J0D01*
G01*
X188812999Y-80887000D01*
G75*
G02*
X188563000Y-80637001I0J249999D01*
G01*
X188563000Y-78886999D01*
G75*
G02*
X188812999Y-78637000I249999J0D01*
G01*
G37*
%TD*%
%TO.C,C15*%
G36*
G01*
X191779001Y-102421000D02*
X189728999Y-102421000D01*
G75*
G02*
X189479000Y-102171001I0J249999D01*
G01*
X189479000Y-100420999D01*
G75*
G02*
X189728999Y-100171000I249999J0D01*
G01*
X191779001Y-100171000D01*
G75*
G02*
X192029000Y-100420999I0J-249999D01*
G01*
X192029000Y-102171001D01*
G75*
G02*
X191779001Y-102421000I-249999J0D01*
G01*
G37*
G36*
G01*
X191779001Y-108821000D02*
X189728999Y-108821000D01*
G75*
G02*
X189479000Y-108571001I0J249999D01*
G01*
X189479000Y-106820999D01*
G75*
G02*
X189728999Y-106571000I249999J0D01*
G01*
X191779001Y-106571000D01*
G75*
G02*
X192029000Y-106820999I0J-249999D01*
G01*
X192029000Y-108571001D01*
G75*
G02*
X191779001Y-108821000I-249999J0D01*
G01*
G37*
%TD*%
%TO.C,C14*%
G36*
G01*
X191804001Y-128456000D02*
X189753999Y-128456000D01*
G75*
G02*
X189504000Y-128206001I0J249999D01*
G01*
X189504000Y-126455999D01*
G75*
G02*
X189753999Y-126206000I249999J0D01*
G01*
X191804001Y-126206000D01*
G75*
G02*
X192054000Y-126455999I0J-249999D01*
G01*
X192054000Y-128206001D01*
G75*
G02*
X191804001Y-128456000I-249999J0D01*
G01*
G37*
G36*
G01*
X191804001Y-134856000D02*
X189753999Y-134856000D01*
G75*
G02*
X189504000Y-134606001I0J249999D01*
G01*
X189504000Y-132855999D01*
G75*
G02*
X189753999Y-132606000I249999J0D01*
G01*
X191804001Y-132606000D01*
G75*
G02*
X192054000Y-132855999I0J-249999D01*
G01*
X192054000Y-134606001D01*
G75*
G02*
X191804001Y-134856000I-249999J0D01*
G01*
G37*
%TD*%
%TO.C,C13*%
G36*
G01*
X255933000Y-131989001D02*
X255933000Y-130138999D01*
G75*
G02*
X256182999Y-129889000I249999J0D01*
G01*
X257933001Y-129889000D01*
G75*
G02*
X258183000Y-130138999I0J-249999D01*
G01*
X258183000Y-131989001D01*
G75*
G02*
X257933001Y-132239000I-249999J0D01*
G01*
X256182999Y-132239000D01*
G75*
G02*
X255933000Y-131989001I0J249999D01*
G01*
G37*
G36*
G01*
X250833000Y-131989001D02*
X250833000Y-130138999D01*
G75*
G02*
X251082999Y-129889000I249999J0D01*
G01*
X252833001Y-129889000D01*
G75*
G02*
X253083000Y-130138999I0J-249999D01*
G01*
X253083000Y-131989001D01*
G75*
G02*
X252833001Y-132239000I-249999J0D01*
G01*
X251082999Y-132239000D01*
G75*
G02*
X250833000Y-131989001I0J249999D01*
G01*
G37*
%TD*%
%TO.C,C12*%
G36*
G01*
X244137000Y-72399001D02*
X244137000Y-70348999D01*
G75*
G02*
X244386999Y-70099000I249999J0D01*
G01*
X246137001Y-70099000D01*
G75*
G02*
X246387000Y-70348999I0J-249999D01*
G01*
X246387000Y-72399001D01*
G75*
G02*
X246137001Y-72649000I-249999J0D01*
G01*
X244386999Y-72649000D01*
G75*
G02*
X244137000Y-72399001I0J249999D01*
G01*
G37*
G36*
G01*
X237737000Y-72399001D02*
X237737000Y-70348999D01*
G75*
G02*
X237986999Y-70099000I249999J0D01*
G01*
X239737001Y-70099000D01*
G75*
G02*
X239987000Y-70348999I0J-249999D01*
G01*
X239987000Y-72399001D01*
G75*
G02*
X239737001Y-72649000I-249999J0D01*
G01*
X237986999Y-72649000D01*
G75*
G02*
X237737000Y-72399001I0J249999D01*
G01*
G37*
%TD*%
%TO.C,C11*%
G36*
G01*
X257345000Y-126247001D02*
X257345000Y-124196999D01*
G75*
G02*
X257594999Y-123947000I249999J0D01*
G01*
X259345001Y-123947000D01*
G75*
G02*
X259595000Y-124196999I0J-249999D01*
G01*
X259595000Y-126247001D01*
G75*
G02*
X259345001Y-126497000I-249999J0D01*
G01*
X257594999Y-126497000D01*
G75*
G02*
X257345000Y-126247001I0J249999D01*
G01*
G37*
G36*
G01*
X250945000Y-126247001D02*
X250945000Y-124196999D01*
G75*
G02*
X251194999Y-123947000I249999J0D01*
G01*
X252945001Y-123947000D01*
G75*
G02*
X253195000Y-124196999I0J-249999D01*
G01*
X253195000Y-126247001D01*
G75*
G02*
X252945001Y-126497000I-249999J0D01*
G01*
X251194999Y-126497000D01*
G75*
G02*
X250945000Y-126247001I0J249999D01*
G01*
G37*
%TD*%
D13*
%TO.C,U1*%
X235204000Y-79121000D03*
X213614000Y-79121000D03*
X235204000Y-94361000D03*
X213614000Y-94361000D03*
D14*
X218059000Y-95631000D03*
X220599000Y-95631000D03*
X223139000Y-95631000D03*
X225679000Y-95631000D03*
X228219000Y-95631000D03*
X230759000Y-95631000D03*
%TD*%
D17*
%TO.C,M8*%
X265982000Y-138160000D03*
%TD*%
%TO.C,M7*%
X265982000Y-80160000D03*
%TD*%
%TO.C,M6*%
X242982000Y-138160000D03*
%TD*%
%TO.C,M5*%
X242982000Y-80160000D03*
%TD*%
D24*
%TO.C,J6*%
X232328000Y-143331000D03*
X228428000Y-143331000D03*
G36*
G01*
X227528000Y-144436000D02*
X227528000Y-145886000D01*
G75*
G02*
X227153000Y-146261000I-375000J0D01*
G01*
X226403000Y-146261000D01*
G75*
G02*
X226028000Y-145886000I0J375000D01*
G01*
X226028000Y-144436000D01*
G75*
G02*
X226403000Y-144061000I375000J0D01*
G01*
X227153000Y-144061000D01*
G75*
G02*
X227528000Y-144436000I0J-375000D01*
G01*
G37*
G36*
G01*
X234728000Y-144436000D02*
X234728000Y-145886000D01*
G75*
G02*
X234353000Y-146261000I-375000J0D01*
G01*
X233603000Y-146261000D01*
G75*
G02*
X233228000Y-145886000I0J375000D01*
G01*
X233228000Y-144436000D01*
G75*
G02*
X233603000Y-144061000I375000J0D01*
G01*
X234353000Y-144061000D01*
G75*
G02*
X234728000Y-144436000I0J-375000D01*
G01*
G37*
G36*
G01*
X234528000Y-141986000D02*
X234528000Y-142736000D01*
G75*
G02*
X234153000Y-143111000I-375000J0D01*
G01*
X233203000Y-143111000D01*
G75*
G02*
X232828000Y-142736000I0J375000D01*
G01*
X232828000Y-141986000D01*
G75*
G02*
X233203000Y-141611000I375000J0D01*
G01*
X234153000Y-141611000D01*
G75*
G02*
X234528000Y-141986000I0J-375000D01*
G01*
G37*
G36*
G01*
X227928000Y-141986000D02*
X227928000Y-142736000D01*
G75*
G02*
X227553000Y-143111000I-375000J0D01*
G01*
X226603000Y-143111000D01*
G75*
G02*
X226228000Y-142736000I0J375000D01*
G01*
X226228000Y-141986000D01*
G75*
G02*
X226603000Y-141611000I375000J0D01*
G01*
X227553000Y-141611000D01*
G75*
G02*
X227928000Y-141986000I0J-375000D01*
G01*
G37*
%TD*%
D18*
%TO.C,M4*%
X269650000Y-144680000D03*
D19*
X269650000Y-144680000D03*
%TD*%
D18*
%TO.C,M3*%
X189640000Y-144680000D03*
D19*
X189640000Y-144680000D03*
%TD*%
D18*
%TO.C,M2*%
X267110000Y-58955000D03*
D19*
X267110000Y-58955000D03*
%TD*%
D18*
%TO.C,M1*%
X193450000Y-58955000D03*
D19*
X193450000Y-58955000D03*
%TD*%
D15*
%TO.C,J7*%
X240309400Y-144780000D03*
D16*
X242849400Y-144780000D03*
%TD*%
D20*
%TO.C,J4*%
X191730000Y-76655000D03*
X191730000Y-75405000D03*
X191730000Y-74155000D03*
X191730000Y-72905000D03*
X191730000Y-71655000D03*
X191730000Y-70405000D03*
X191730000Y-69155000D03*
X191730000Y-67905000D03*
X191730000Y-66655000D03*
%TD*%
D15*
%TO.C,J3*%
X197739000Y-106966000D03*
X195199000Y-106966000D03*
X197739000Y-104426000D03*
X195199000Y-104426000D03*
X197739000Y-101886000D03*
X195199000Y-101886000D03*
X197739000Y-99346000D03*
X195199000Y-99346000D03*
X197739000Y-96806000D03*
X195199000Y-96806000D03*
X197739000Y-94266000D03*
X195199000Y-94266000D03*
X197739000Y-91726000D03*
X195199000Y-91726000D03*
X197739000Y-89186000D03*
X195199000Y-89186000D03*
X197739000Y-86646000D03*
X195199000Y-86646000D03*
X197739000Y-84106000D03*
D16*
X195199000Y-84106000D03*
%TD*%
D15*
%TO.C,J2*%
X195199000Y-120856000D03*
X197739000Y-120856000D03*
X195199000Y-123396000D03*
X197739000Y-123396000D03*
X195199000Y-125936000D03*
X197739000Y-125936000D03*
X195199000Y-128476000D03*
X197739000Y-128476000D03*
X195199000Y-131016000D03*
X197739000Y-131016000D03*
X195199000Y-133556000D03*
X197739000Y-133556000D03*
X195199000Y-136096000D03*
X197739000Y-136096000D03*
X195199000Y-138636000D03*
D16*
X197739000Y-138636000D03*
%TD*%
D15*
%TO.C,J1*%
X241694000Y-85030000D03*
X244234000Y-85030000D03*
X241694000Y-87570000D03*
X244234000Y-87570000D03*
X241694000Y-90110000D03*
X244234000Y-90110000D03*
X241694000Y-92650000D03*
X244234000Y-92650000D03*
X241694000Y-95190000D03*
X244234000Y-95190000D03*
X241694000Y-97730000D03*
X244234000Y-97730000D03*
X241694000Y-100270000D03*
X244234000Y-100270000D03*
X241694000Y-102810000D03*
X244234000Y-102810000D03*
X241694000Y-105350000D03*
X244234000Y-105350000D03*
X241694000Y-107890000D03*
X244234000Y-107890000D03*
X241694000Y-110430000D03*
X244234000Y-110430000D03*
X241694000Y-112970000D03*
X244234000Y-112970000D03*
X241694000Y-115510000D03*
X244234000Y-115510000D03*
X241694000Y-118050000D03*
X244234000Y-118050000D03*
X241694000Y-120590000D03*
X244234000Y-120590000D03*
X241694000Y-123130000D03*
X244234000Y-123130000D03*
X241694000Y-125670000D03*
X244234000Y-125670000D03*
X241694000Y-128210000D03*
X244234000Y-128210000D03*
X241694000Y-130750000D03*
X244234000Y-130750000D03*
X241694000Y-133290000D03*
D16*
X244234000Y-133290000D03*
%TD*%
D21*
%TO.C,H2*%
X262030000Y-58955000D03*
X262030000Y-61495000D03*
X259490000Y-58955000D03*
X259490000Y-61495000D03*
X256950000Y-58955000D03*
X256950000Y-61495000D03*
X254410000Y-58955000D03*
X254410000Y-61495000D03*
X251870000Y-58955000D03*
X251870000Y-61495000D03*
X249330000Y-58955000D03*
X249330000Y-61495000D03*
X246790000Y-58955000D03*
X246790000Y-61495000D03*
X244250000Y-58955000D03*
X244250000Y-61495000D03*
X241710000Y-58955000D03*
X241710000Y-61495000D03*
X239170000Y-58955000D03*
X239170000Y-61495000D03*
X236630000Y-58955000D03*
X236630000Y-61495000D03*
X234090000Y-58955000D03*
X234090000Y-61495000D03*
X231550000Y-58955000D03*
X231550000Y-61495000D03*
X229010000Y-58955000D03*
X229010000Y-61495000D03*
X226470000Y-58955000D03*
X226470000Y-61495000D03*
X223930000Y-58955000D03*
X223930000Y-61495000D03*
X221390000Y-58955000D03*
X221390000Y-61495000D03*
X218850000Y-58955000D03*
X218850000Y-61495000D03*
X216310000Y-58955000D03*
X216310000Y-61495000D03*
X213770000Y-58955000D03*
X213770000Y-61495000D03*
X211230000Y-58955000D03*
X211230000Y-61495000D03*
X208690000Y-58955000D03*
X208690000Y-61495000D03*
X206150000Y-58955000D03*
X206150000Y-61495000D03*
X203610000Y-58955000D03*
X203610000Y-61495000D03*
X201070000Y-58955000D03*
X201070000Y-61495000D03*
X198530000Y-58955000D03*
D22*
X198530000Y-61495000D03*
%TD*%
D21*
%TO.C,H1*%
X262030000Y-64035000D03*
X262030000Y-66575000D03*
X259490000Y-64035000D03*
X259490000Y-66575000D03*
X256950000Y-64035000D03*
X256950000Y-66575000D03*
X254410000Y-64035000D03*
X254410000Y-66575000D03*
X251870000Y-64035000D03*
X251870000Y-66575000D03*
X249330000Y-64035000D03*
X249330000Y-66575000D03*
X246790000Y-64035000D03*
X246790000Y-66575000D03*
X244250000Y-64035000D03*
X244250000Y-66575000D03*
X241710000Y-64035000D03*
X241710000Y-66575000D03*
X239170000Y-64035000D03*
X239170000Y-66575000D03*
X236630000Y-64035000D03*
X236630000Y-66575000D03*
X234090000Y-64035000D03*
X234090000Y-66575000D03*
X231550000Y-64035000D03*
X231550000Y-66575000D03*
X229010000Y-64035000D03*
X229010000Y-66575000D03*
X226470000Y-64035000D03*
X226470000Y-66575000D03*
X223930000Y-64035000D03*
X223930000Y-66575000D03*
X221390000Y-64035000D03*
X221390000Y-66575000D03*
X218850000Y-64035000D03*
X218850000Y-66575000D03*
X216310000Y-64035000D03*
X216310000Y-66575000D03*
X213770000Y-64035000D03*
X213770000Y-66575000D03*
X211230000Y-64035000D03*
X211230000Y-66575000D03*
X208690000Y-64035000D03*
X208690000Y-66575000D03*
X206150000Y-64035000D03*
X206150000Y-66575000D03*
X203610000Y-64035000D03*
X203610000Y-66575000D03*
X201070000Y-64035000D03*
X201070000Y-66575000D03*
X198530000Y-64035000D03*
D22*
X198530000Y-66575000D03*
%TD*%
M02*
